<svg xmlns="http://www.w3.org/2000/svg" xmlns:xlink="http://www.w3.org/1999/xlink" width="500" height="500" viewBox="0 0 500 500">
  <defs>
    <clipPath id="clip-path">
      <path id="Trazado_108764" data-name="Trazado 108764" d="M1279.293,3778.372s-3.46,23-4,34.63,2.92,58.33,2.92,71.63,10,55,10,55l-2.74,2.19-.18,2.91,8,2.55c4,1.28,4.74,1.1,4.74,1.1s-.91-8.57-.91-27.71,3.1-54.13,3.28-69.63,5.83-30.25,5.83-30.25l2.37-2s9.55,49.62,9.55,53.45-8.93,64-9.48,65.43-1.28,2.19-1.28,4.2v5.65l13.49-5.29a17.394,17.394,0,0,0-.54-4.56,9.329,9.329,0,0,1-.55-3.46c0-.55,19.5-51.76,19.5-57.6a88.542,88.542,0,0,0-1.14-12.39l-2.19-52.13s2.55-5.47,1.46-10.21-7.11-18.77-8.2-19.68S1290.413,3788.212,1279.293,3778.372Z" fill="none"/>
    </clipPath>
    <clipPath id="clip-path-2">
      <path id="Trazado_108769" data-name="Trazado 108769" d="M1224.983,3675.2s-7.66-9.48-7.66-11.3,57.6-25.7,58.51-25.7,16.41,10.75,16.59,11.67,1.09,5.83,1.09,6.56-2.73,2.18-2.73,2.18-3.47,3.29-4.38,3.29h-.91a14.787,14.787,0,0,1-3.64,1.09,3.111,3.111,0,0,1-2-1.09s-5.1,1.27-4.74.36,6.2-4.56,6.2-4.56-6.74-4.19-8-6.92a37.6,37.6,0,0,1-2-5.47l-35.58,25.84Z" fill="none"/>
    </clipPath>
    <clipPath id="clip-path-3">
      <path id="Trazado_108777" data-name="Trazado 108777" d="M1295.7,3694.7s-5.65-2.73-12.55-6.55-10.39-3.1-13.12-3.1-26.8-12.39-26.8-12.39l-10.78,10.93s42.83,31.35,43.56,33.72,2.37,52.13,1.64,56-2,5.47-1.27,6.93,10,9.66,26.25,9.48,27.7-4.74,28.79-6.93,1.1-3.1.37-4.74-1.46-3.64-1.46-3.64l5.82-39.42,5.84,29.89s2.91,1.64,9.11.55,8.93-2.74,8.93-2.74-9.84-45.2-11.85-50.85-3.28-5.11-9.66-7.47-23.15-7.66-23.15-7.66Z" fill="none"/>
    </clipPath>
    <clipPath id="clip-path-4">
      <path id="Trazado_108800" data-name="Trazado 108800" d="M1238.483,3628.152H1064.6a21.227,21.227,0,0,0-20.42,21.3l3.66,80v214.53a17.62,17.62,0,0,0,17.62,17.62h170.13a19.489,19.489,0,0,0,18.63-18.63v-214.48l3.67-80a19.43,19.43,0,0,0-18.5-20.319Q1238.939,3628.152,1238.483,3628.152Z" fill="none"/>
    </clipPath>
  </defs>
  <g id="Grupo_61934" data-name="Grupo 61934" transform="translate(-961.878 -3533.809)">
    <rect id="Rectángulo_6960" data-name="Rectángulo 6960" width="500" height="500" transform="translate(961.878 3533.809)" fill="#344154" opacity="0"/>
    <g id="Grupo_61948" data-name="Grupo 61948">
      <g id="freepik--background-simple--inject-2">
        <path id="Trazado_108744" data-name="Trazado 108744" d="M1024.293,3739.622s-16,68.58,28.65,128.33,122.64,83,185.27,103.45,121.31-3.16,143.32-55.8-22.45-81-32.25-149.75-2-88.56-47.7-140.91-139.55-51.1-203,2.65S1024.293,3739.622,1024.293,3739.622Z" fill="#d9a171"/>
        <path id="Trazado_108745" data-name="Trazado 108745" d="M1024.293,3739.622s-16,68.58,28.65,128.33,122.64,83,185.27,103.45,121.31-3.16,143.32-55.8-22.45-81-32.25-149.75-2-88.56-47.7-140.91-139.55-51.1-203,2.65S1024.293,3739.622,1024.293,3739.622Z" fill="#fff" opacity="0.7" style="isolation: isolate"/>
      </g>
      <g id="freepik--Floor--inject-2">
        <ellipse id="Elipse_4124" data-name="Elipse 4124" cx="180.5" cy="18.5" rx="180.5" ry="18.5" transform="translate(1017.153 3944.152)" fill="#344154"/>
      </g>
      <g id="freepik--Plants--inject-2">
        <path id="Trazado_108746" data-name="Trazado 108746" d="M1342.153,3792.022c-.06,0,.65-3.52.72-3.73.82-2.51,3.87-6.89,6.82-6.88a3.49,3.49,0,0,1,3.4,3.581,3.453,3.453,0,0,1-.037.419c-.21,2.08-2.08,3.85-3.76,4.87C1347.323,3791.452,1342.153,3792.022,1342.153,3792.022Z" fill="#d9a171"/>
        <path id="Trazado_108747" data-name="Trazado 108747" d="M1336.443,3768.352c2.78,1,4.16,6.14,4.07,8.78,0,.23-.53,3.78-.58,3.75h0c.22.81.45,1.68.69,2.64.41,1.77.87,3.78,1.22,6a63,63,0,0,1,.78,7.21,45.4,45.4,0,0,1-.27,8.1.414.414,0,0,1,0,.1c.37-.79,1.46-2.95,1.56-3.11,1.45-2.2,5.54-5.62,8.39-4.83a3.5,3.5,0,0,1,2.317,4.374,3.256,3.256,0,0,1-.127.346c-.75,1.94-3,3.16-4.91,3.7-2.14.61-6.9-.11-7.28-.17a62.45,62.45,0,0,1-1.76,8.07q-.66,2.329-1.43,4.63c.33-.67.64-1.26.69-1.34,1.45-2.21,5.54-5.62,8.39-4.84a3.5,3.5,0,0,1,2.329,4.368,3.577,3.577,0,0,1-.129.352c-.76,1.95-3,3.16-4.92,3.7s-6,0-7.07-.14c-.21.59-.4,1.18-.6,1.77-1,2.82-2,5.64-2.85,8.42-.31,1-.58,2-.86,2.94.3-.59.56-1.09.61-1.16,1.45-2.2,5.54-5.62,8.39-4.83a3.49,3.49,0,0,1,2.324,4.354,3.339,3.339,0,0,1-.134.366c-.75,1.94-3,3.16-4.91,3.7s-5.6.06-6.89-.12c-.25,1-.5,2-.7,3-.12.68-.28,1.32-.36,2s-.19,1.36-.28,2c-.14,1.3-.28,2.63-.38,3.89-.08.88-.13,1.72-.19,2.56.3-1,.92-2.89,1-3a13.568,13.568,0,0,1,4.53-5.15,3.832,3.832,0,0,1,.38-.68,3.5,3.5,0,0,1,5.14-.8c2.24,1.93,1.68,7.23.65,9.66-.06.15-.89,1.63-1.43,2.55.4-.49.78-1,1.2-1.48.82-1,1.67-2,2.58-3.05l1.38-1.5c.45-.51,1-1,1.49-1.49,1.19-1.14,2.44-2.25,3.73-3.33-.88-.72-4-3.32-4.85-5.09s-1.52-4.25-.6-6.12a3.5,3.5,0,0,1,4.62-1.778,3.308,3.308,0,0,1,.38.2c2.5,1.57,2.75,6.9,2.1,9.46,0,.15-.71,1.94-1.1,2.91.78-.64,1.55-1.29,2.36-1.92,2.34-1.8,4.76-3.56,7.17-5.32.74-.54,1.46-1.08,2.19-1.63-.31-.25-4-3.27-5-5.25-.88-1.76-1.51-4.25-.59-6.12a3.49,3.49,0,0,1,4.605-1.776,3.423,3.423,0,0,1,.395.206c2.5,1.57,2.76,6.89,2.11,9.45-.05.19-1,2.75-1.3,3.39,1.61-1.19,3.2-2.4,4.72-3.66a59.744,59.744,0,0,0,5.85-5.44c-.15-.12-4.06-3.25-5.07-5.28-.89-1.76-1.52-4.25-.6-6.12a3.492,3.492,0,0,1,4.6-1.788,3.546,3.546,0,0,1,.4.208c2.51,1.57,2.76,6.9,2.11,9.46,0,.16-.78,2.12-1.15,3l.14.09a45.74,45.74,0,0,0,4.8-6.44c.79-1.25,1.47-2.49,2.11-3.71-.79-.51-4.36-2.87-5.48-4.6s-2-4.06-1.26-6a3.5,3.5,0,0,1,4.412-2.244,3.288,3.288,0,0,1,.348.134c2.66,1.29,3.49,6.55,3.13,9.17,0,.14-.38,1.56-.66,2.59.28-.55.58-1.12.83-1.65,1-2,1.74-3.92,2.41-5.61.37-1,.68-1.84,1-2.67-.51-.9-2.53-4.56-2.73-6.57s.12-4.52,1.66-5.93a3.5,3.5,0,0,1,4.95.048,3.443,3.443,0,0,1,.24.272c1.77,2.37.08,7.43-1.44,9.58-.13.19-2.53,2.86-2.56,2.81h0c-.26.8-.55,1.65-.88,2.58-.63,1.71-1.36,3.63-2.29,5.67a61.784,61.784,0,0,1-3.32,6.44,45.332,45.332,0,0,1-4.7,6.61.233.233,0,0,1-.07.07c.74-.45,2.84-1.65,3-1.73,2.42-1,7.72-1.62,9.66.6a3.5,3.5,0,0,1-.469,4.928,3.712,3.712,0,0,1-.3.222c-1.71,1.2-4.27,1-6.14.37-2.12-.67-5.7-3.9-6-4.16a62.264,62.264,0,0,1-5.92,5.77c-1.22,1-2.48,2.06-3.75,3.07.65-.37,1.23-.7,1.32-.74,2.42-1,7.72-1.63,9.66.6a3.49,3.49,0,0,1-.464,4.914,3.543,3.543,0,0,1-.306.226c-1.7,1.21-4.26,1-6.14.38s-5-3.3-5.83-4l-1.47,1.14c-2.37,1.82-4.75,3.62-7,5.46-.8.65-1.57,1.31-2.34,2l1.15-.64c2.42-1,7.72-1.63,9.66.6a3.51,3.51,0,0,1-.486,4.94,3.4,3.4,0,0,1-.284.21c-1.7,1.2-4.26,1-6.14.37s-4.71-3-5.68-3.89c-.77.7-1.54,1.41-2.25,2.13-.47.5-1,.95-1.41,1.47l-1.35,1.53c-.83,1-1.68,2-2.46,3-.55.69-1.06,1.36-1.57,2,.79-.65,2.36-1.9,2.51-2,2.23-1.4,7.38-2.78,9.64-.87a3.49,3.49,0,0,1,.272,4.928,3.2,3.2,0,0,1-.272.272c-1.5,1.45-4.06,1.6-6,1.3-2.14-.34-6-2.86-6.51-3.18-.84,1.11-1.66,2.2-2.41,3.25-2.61,3.61-4.65,6.71-6,8.9-.05.08-.1.15-.14.23l-1.81-.88.28-.43c1.46-2.19,3.59-5.28,6.3-8.86.86-1.14,1.8-2.34,2.77-3.56a37.409,37.409,0,0,1-2.81-3.47c-2.07.81-6.39.85-6.95.85-.09,1.39-.17,2.75-.22,4-.19,4.45-.17,8.17-.13,10.76v.3l-2-1c0-2.58.1-6.07.36-10.19.09-1.42.21-2.94.35-4.49-.55-.14-5.05-1.29-6.75-2.65-1.54-1.23-3.16-3.22-3.1-5.31a3.5,3.5,0,0,1,3.472-3.527,3.671,3.671,0,0,1,.378.017c2.93.38,5.39,5.11,5.87,7.7,0,.16.15,1.85.21,2.92.06-.63.11-1.25.18-1.9.13-1.29.3-2.58.47-4l.33-2c.1-.67.28-1.37.42-2.07.36-1.6.8-3.21,1.27-4.82-1.13-.12-5.14-.59-6.85-1.58s-3.61-2.71-3.87-4.78a3.5,3.5,0,0,1,2.9-4.01,3.451,3.451,0,0,1,.369-.04c2.95-.07,6.1,4.23,7,6.73.05.15.47,2,.69,3,.29-1,.58-1.93.91-2.9.95-2.79,2-5.59,3-8.39.32-.86.62-1.71.93-2.57-.4,0-5.18-.49-7.1-1.6-1.71-1-3.61-2.71-3.87-4.78a3.489,3.489,0,0,1,2.88-4.008,3.649,3.649,0,0,1,.39-.042c2.95-.07,6.1,4.23,7,6.72.06.19.67,2.87.79,3.55.68-1.88,1.34-3.77,1.92-5.66a62.325,62.325,0,0,0,1.88-7.76c-.19,0-5.18-.48-7.15-1.61-1.71-1-3.61-2.71-3.87-4.78a3.506,3.506,0,0,1,3.27-4.05c2.95-.07,6.1,4.23,7,6.73.06.16.52,2.2.72,3.17h.17a45.067,45.067,0,0,0,.44-8,41.362,41.362,0,0,0-.28-4.26c-.94,0-5.22,0-7.11-.81s-3.89-2.3-4.37-4.33a3.49,3.49,0,0,1,2.427-4.3,3.6,3.6,0,0,1,.373-.082c2.93-.39,6.53,3.54,7.67,5.92.06.13.55,1.51.88,2.53-.07-.62-.13-1.26-.21-1.85-.3-2.21-.71-4.22-1.09-6-.22-1-.45-1.92-.66-2.76-.93-.47-4.63-2.41-5.9-4s-2.4-3.83-1.89-5.86A3.49,3.49,0,0,1,1336.443,3768.352Z" fill="#d9a171"/>
        <path id="Trazado_108748" data-name="Trazado 108748" d="M1389.863,3813.9c-2.32-.1-6.93-2.47-6.93-2.47s2.48-2.56,2.66-2.71c2.06-1.64,7-3.61,9.48-2a3.5,3.5,0,0,1,.841,4.878,3.614,3.614,0,0,1-.231.292C1394.363,3813.532,1391.833,3813.982,1389.863,3813.9Z" fill="#d9a171"/>
        <g id="Grupo_61934-2" data-name="Grupo 61934" opacity="0.5">
          <path id="Trazado_108749" data-name="Trazado 108749" d="M1342.153,3792.022c-.06,0,.65-3.52.72-3.73.82-2.51,3.87-6.89,6.82-6.88a3.49,3.49,0,0,1,3.4,3.581,3.453,3.453,0,0,1-.037.419c-.21,2.08-2.08,3.85-3.76,4.87C1347.323,3791.452,1342.153,3792.022,1342.153,3792.022Z" fill="#fff"/>
          <path id="Trazado_108750" data-name="Trazado 108750" d="M1336.443,3768.352c2.78,1,4.16,6.14,4.07,8.78,0,.23-.53,3.78-.58,3.75h0c.22.81.45,1.68.69,2.64.41,1.77.87,3.78,1.22,6a63,63,0,0,1,.78,7.21,45.4,45.4,0,0,1-.27,8.1.414.414,0,0,1,0,.1c.37-.79,1.46-2.95,1.56-3.11,1.45-2.2,5.54-5.62,8.39-4.83a3.5,3.5,0,0,1,2.317,4.374,3.256,3.256,0,0,1-.127.346c-.75,1.94-3,3.16-4.91,3.7-2.14.61-6.9-.11-7.28-.17a62.45,62.45,0,0,1-1.76,8.07q-.66,2.329-1.43,4.63c.33-.67.64-1.26.69-1.34,1.45-2.21,5.54-5.62,8.39-4.84a3.5,3.5,0,0,1,2.329,4.368,3.577,3.577,0,0,1-.129.352c-.76,1.95-3,3.16-4.92,3.7s-6,0-7.07-.14c-.21.59-.4,1.18-.6,1.77-1,2.82-2,5.64-2.85,8.42-.31,1-.58,2-.86,2.94.3-.59.56-1.09.61-1.16,1.45-2.2,5.54-5.62,8.39-4.83a3.49,3.49,0,0,1,2.324,4.354,3.339,3.339,0,0,1-.134.366c-.75,1.94-3,3.16-4.91,3.7s-5.6.06-6.89-.12c-.25,1-.5,2-.7,3-.12.68-.28,1.32-.36,2s-.19,1.36-.28,2c-.14,1.3-.28,2.63-.38,3.89-.08.88-.13,1.72-.19,2.56.3-1,.92-2.89,1-3a13.568,13.568,0,0,1,4.53-5.15,3.832,3.832,0,0,1,.38-.68,3.5,3.5,0,0,1,5.14-.8c2.24,1.93,1.68,7.23.65,9.66-.06.15-.89,1.63-1.43,2.55.4-.49.78-1,1.2-1.48.82-1,1.67-2,2.58-3.05l1.38-1.5c.45-.51,1-1,1.49-1.49,1.19-1.14,2.44-2.25,3.73-3.33-.88-.72-4-3.32-4.85-5.09s-1.52-4.25-.6-6.12a3.5,3.5,0,0,1,4.62-1.778,3.308,3.308,0,0,1,.38.2c2.5,1.57,2.75,6.9,2.1,9.46,0,.15-.71,1.94-1.1,2.91.78-.64,1.55-1.29,2.36-1.92,2.34-1.8,4.76-3.56,7.17-5.32.74-.54,1.46-1.08,2.19-1.63-.31-.25-4-3.27-5-5.25-.88-1.76-1.51-4.25-.59-6.12a3.49,3.49,0,0,1,4.605-1.776,3.423,3.423,0,0,1,.395.206c2.5,1.57,2.76,6.89,2.11,9.45-.05.19-1,2.75-1.3,3.39,1.61-1.19,3.2-2.4,4.72-3.66a59.744,59.744,0,0,0,5.85-5.44c-.15-.12-4.06-3.25-5.07-5.28-.89-1.76-1.52-4.25-.6-6.12a3.492,3.492,0,0,1,4.6-1.788,3.546,3.546,0,0,1,.4.208c2.51,1.57,2.76,6.9,2.11,9.46,0,.16-.78,2.12-1.15,3l.14.09a45.74,45.74,0,0,0,4.8-6.44c.79-1.25,1.47-2.49,2.11-3.71-.79-.51-4.36-2.87-5.48-4.6s-2-4.06-1.26-6a3.5,3.5,0,0,1,4.412-2.244,3.288,3.288,0,0,1,.348.134c2.66,1.29,3.49,6.55,3.13,9.17,0,.14-.38,1.56-.66,2.59.28-.55.58-1.12.83-1.65,1-2,1.74-3.92,2.41-5.61.37-1,.68-1.84,1-2.67-.51-.9-2.53-4.56-2.73-6.57s.12-4.52,1.66-5.93a3.5,3.5,0,0,1,4.95.048,3.443,3.443,0,0,1,.24.272c1.77,2.37.08,7.43-1.44,9.58-.13.19-2.53,2.86-2.56,2.81h0c-.26.8-.55,1.65-.88,2.58-.63,1.71-1.36,3.63-2.29,5.67a61.784,61.784,0,0,1-3.32,6.44,45.332,45.332,0,0,1-4.7,6.61.233.233,0,0,1-.07.07c.74-.45,2.84-1.65,3-1.73,2.42-1,7.72-1.62,9.66.6a3.5,3.5,0,0,1-.469,4.928,3.712,3.712,0,0,1-.3.222c-1.71,1.2-4.27,1-6.14.37-2.12-.67-5.7-3.9-6-4.16a62.264,62.264,0,0,1-5.92,5.77c-1.22,1-2.48,2.06-3.75,3.07.65-.37,1.23-.7,1.32-.74,2.42-1,7.72-1.63,9.66.6a3.49,3.49,0,0,1-.464,4.914,3.543,3.543,0,0,1-.306.226c-1.7,1.21-4.26,1-6.14.38s-5-3.3-5.83-4l-1.47,1.14c-2.37,1.82-4.75,3.62-7,5.46-.8.65-1.57,1.31-2.34,2l1.15-.64c2.42-1,7.72-1.63,9.66.6a3.51,3.51,0,0,1-.486,4.94,3.4,3.4,0,0,1-.284.21c-1.7,1.2-4.26,1-6.14.37s-4.71-3-5.68-3.89c-.77.7-1.54,1.41-2.25,2.13-.47.5-1,.95-1.41,1.47l-1.35,1.53c-.83,1-1.68,2-2.46,3-.55.69-1.06,1.36-1.57,2,.79-.65,2.36-1.9,2.51-2,2.23-1.4,7.38-2.78,9.64-.87a3.49,3.49,0,0,1,.272,4.928,3.2,3.2,0,0,1-.272.272c-1.5,1.45-4.06,1.6-6,1.3-2.14-.34-6-2.86-6.51-3.18-.84,1.11-1.66,2.2-2.41,3.25-2.61,3.61-4.65,6.71-6,8.9-.05.08-.1.15-.14.23l-1.81-.88.28-.43c1.46-2.19,3.59-5.28,6.3-8.86.86-1.14,1.8-2.34,2.77-3.56a37.409,37.409,0,0,1-2.81-3.47c-2.07.81-6.39.85-6.95.85-.09,1.39-.17,2.75-.22,4-.19,4.45-.17,8.17-.13,10.76v.3l-2-1c0-2.58.1-6.07.36-10.19.09-1.42.21-2.94.35-4.49-.55-.14-5.05-1.29-6.75-2.65-1.54-1.23-3.16-3.22-3.1-5.31a3.5,3.5,0,0,1,3.472-3.527,3.671,3.671,0,0,1,.378.017c2.93.38,5.39,5.11,5.87,7.7,0,.16.15,1.85.21,2.92.06-.63.11-1.25.18-1.9.13-1.29.3-2.58.47-4l.33-2c.1-.67.28-1.37.42-2.07.36-1.6.8-3.21,1.27-4.82-1.13-.12-5.14-.59-6.85-1.58s-3.61-2.71-3.87-4.78a3.5,3.5,0,0,1,2.9-4.01,3.451,3.451,0,0,1,.369-.04c2.95-.07,6.1,4.23,7,6.73.05.15.47,2,.69,3,.29-1,.58-1.93.91-2.9.95-2.79,2-5.59,3-8.39.32-.86.62-1.71.93-2.57-.4,0-5.18-.49-7.1-1.6-1.71-1-3.61-2.71-3.87-4.78a3.489,3.489,0,0,1,2.88-4.008,3.649,3.649,0,0,1,.39-.042c2.95-.07,6.1,4.23,7,6.72.06.19.67,2.87.79,3.55.68-1.88,1.34-3.77,1.92-5.66a62.325,62.325,0,0,0,1.88-7.76c-.19,0-5.18-.48-7.15-1.61-1.71-1-3.61-2.71-3.87-4.78a3.506,3.506,0,0,1,3.27-4.05c2.95-.07,6.1,4.23,7,6.73.06.16.52,2.2.72,3.17h.17a45.067,45.067,0,0,0,.44-8,41.362,41.362,0,0,0-.28-4.26c-.94,0-5.22,0-7.11-.81s-3.89-2.3-4.37-4.33a3.49,3.49,0,0,1,2.427-4.3,3.6,3.6,0,0,1,.373-.082c2.93-.39,6.53,3.54,7.67,5.92.06.13.55,1.51.88,2.53-.07-.62-.13-1.26-.21-1.85-.3-2.21-.71-4.22-1.09-6-.22-1-.45-1.92-.66-2.76-.93-.47-4.63-2.41-5.9-4s-2.4-3.83-1.89-5.86A3.49,3.49,0,0,1,1336.443,3768.352Z" fill="#fff"/>
          <path id="Trazado_108751" data-name="Trazado 108751" d="M1389.863,3813.9c-2.32-.1-6.93-2.47-6.93-2.47s2.48-2.56,2.66-2.71c2.06-1.64,7-3.61,9.48-2a3.5,3.5,0,0,1,.841,4.878,3.614,3.614,0,0,1-.231.292C1394.363,3813.532,1391.833,3813.982,1389.863,3813.9Z" fill="#fff"/>
        </g>
        <path id="Trazado_108752" data-name="Trazado 108752" d="M1362.893,3871.722s-14-33.78-21.85-32.31,13.45,53.85,13.45,53.85-24.66-46.51-41.47-46.51,6.13,51.4,27.46,68.54c0,0-33.62-36.23-53.24-28.39s39.23,44.54,39.23,44.54-34.18-10.77-30.26-2.44,14.57,9.79,14.57,9.79l-38.67,2H1406.6l-30.26-2.94s31.38-15.67,23-22-26.9,7.34-26.9,7.34,31.94-35.24,25.78-48.46-33.63,24-33.63,24,22.42-47.48,17.94-55.8S1362.893,3871.722,1362.893,3871.722Z" fill="#d9a171"/>
        <path id="Trazado_108753" data-name="Trazado 108753" d="M1362.893,3871.722s-14-33.78-21.85-32.31,13.45,53.85,13.45,53.85-24.66-46.51-41.47-46.51,6.13,51.4,27.46,68.54c0,0-33.62-36.23-53.24-28.39s39.23,44.54,39.23,44.54-34.18-10.77-30.26-2.44,14.57,9.79,14.57,9.79l-38.67,2H1406.6l-30.26-2.94s31.38-15.67,23-22-26.9,7.34-26.9,7.34,31.94-35.24,25.78-48.46-33.63,24-33.63,24,22.42-47.48,17.94-55.8S1362.893,3871.722,1362.893,3871.722Z" fill="#fff" opacity="0.4" style="isolation: isolate"/>
        <path id="Trazado_108754" data-name="Trazado 108754" d="M1367.383,3873.5c-12.33,36.42-12.33,62.2-12.33,62.2s14.57.56,29.7-10.65" fill="none" stroke="#263238" stroke-linecap="round" stroke-linejoin="round" stroke-width="1"/>
        <path id="Trazado_108755" data-name="Trazado 108755" d="M1361.213,3893.152a218.213,218.213,0,0,0-10.06-32" fill="none" stroke="#263238" stroke-linecap="round" stroke-linejoin="round" stroke-width="1"/>
        <path id="Trazado_108756" data-name="Trazado 108756" d="M1324.793,3871.822l31.36,46.51s21.29-17.93,28.58-28" fill="none" stroke="#263238" stroke-linecap="round" stroke-linejoin="round" stroke-width="1"/>
        <path id="Trazado_108757" data-name="Trazado 108757" d="M1355.613,3929.542s-33.06-15.69-46.46-24.66" fill="none" stroke="#263238" stroke-linecap="round" stroke-linejoin="round" stroke-width="1"/>
      </g>
      <g id="freepik--Character--inject-2">
        <path id="Trazado_108758" data-name="Trazado 108758" d="M1343.273,3767.982l-7.29,20-4.92.73,3.46,13.49s5.29-6.57,6.93-8.94,17.7-28.02,17.7-28.02Z" fill="#ffbf9d" stroke="#263238" stroke-linecap="round" stroke-linejoin="round" stroke-width="1"/>
        <path id="Trazado_108759" data-name="Trazado 108759" d="M1286.043,3943.872s-12.21,10.94-13.31,14.77,8.93,1.45,13.86-1.83a64.293,64.293,0,0,0,7.29-5.47l.54,1.46s2.92-.36,3.47-2.18-1.1-6.2-1.1-6.2Z" fill="#fff" stroke="#263238" stroke-linecap="round" stroke-linejoin="round" stroke-width="1"/>
        <path id="Trazado_108760" data-name="Trazado 108760" d="M1319.213,3940.772s12.43,13.31,13.52,17.14-8.93,1.45-13.85-1.83a65.21,65.21,0,0,1-7.29-5.46l-.55,1.45s-2.92-.36-3.46-2.18,1.09-6.2,1.09-6.2Z" fill="#fff" stroke="#263238" stroke-linecap="round" stroke-linejoin="round" stroke-width="1"/>
        <path id="Trazado_108761" data-name="Trazado 108761" d="M1279.293,3778.372s-3.46,23-4,34.63,2.92,58.33,2.92,71.63,10,55,10,55l-2.74,2.19-.18,2.91,8,2.55c4,1.28,4.74,1.1,4.74,1.1s-.91-8.57-.91-27.71,3.1-54.13,3.28-69.63,5.83-30.25,5.83-30.25l2.37-2s9.55,49.62,9.55,53.45-8.93,64-9.48,65.43-1.28,2.19-1.28,4.2v5.65l13.49-5.29a17.394,17.394,0,0,0-.54-4.56,9.329,9.329,0,0,1-.55-3.46c0-.55,19.5-51.76,19.5-57.6a88.542,88.542,0,0,0-1.14-12.39l-2.19-52.13s2.55-5.47,1.46-10.21-7.11-18.77-8.2-19.68S1290.413,3788.212,1279.293,3778.372Z" fill="#d9a171"/>
        <g id="Grupo_61938" data-name="Grupo 61938">
          <g id="Grupo_61937" data-name="Grupo 61937" clip-path="url(#clip-path)">
            <g id="Grupo_61936" data-name="Grupo 61936">
              <g id="Grupo_61935" data-name="Grupo 61935" opacity="0.2">
                <path id="Trazado_108762" data-name="Trazado 108762" d="M1323.913,3870.552c0-5.5,3.47-62.38,3.47-62.38l-18.74,10.66c1.31,6.88,9.48,49.89,9.48,53.41,0,3.83-8.93,64-9.48,65.43s-1.28,2.19-1.28,4.2v5.65l13.49-5.29a17.394,17.394,0,0,0-.54-4.56,9.329,9.329,0,0,1-.55-3.46c0-.44,12.62-33.66,17.55-49.68C1321.953,3887.882,1323.913,3875.932,1323.913,3870.552Z"/>
                <path id="Trazado_108763" data-name="Trazado 108763" d="M1300.483,3888.822l-1.54-7.76c.07-1.17.15-2.33.22-3.48l-.67,1.22-16.67-84,26.82-4.42c-10.51.25-29.35-12-29.35-12l-4.14,29.1,1.33,56.67,1.75,21.86c.06,1.26.17,2.71.35,4.29l.57,7.18a6.227,6.227,0,0,0,.74,2.08c2.85,17.28,8.34,40.12,8.34,40.12l-2.74,2.19-.18,2.91,8,2.55c4,1.28,4.74,1.1,4.74,1.1s-.91-8.57-.91-27.71c0-7.18.43-16.61,1-26.39A40.51,40.51,0,0,0,1300.483,3888.822Z"/>
              </g>
            </g>
          </g>
        </g>
        <path id="Trazado_108765" data-name="Trazado 108765" d="M1279.293,3778.372s-3.46,23-4,34.63,2.92,58.33,2.92,71.63,10,55,10,55l-2.74,2.19-.18,2.91,8,2.55c4,1.28,4.74,1.1,4.74,1.1s-.91-8.57-.91-27.71,3.1-54.13,3.28-69.63,5.83-30.25,5.83-30.25l2.37-2s9.55,49.62,9.55,53.45-8.93,64-9.48,65.43-1.28,2.19-1.28,4.2v5.65l13.49-5.29a17.394,17.394,0,0,0-.54-4.56,9.329,9.329,0,0,1-.55-3.46c0-.55,19.5-51.76,19.5-57.6a88.542,88.542,0,0,0-1.14-12.39l-2.19-52.13s2.55-5.47,1.46-10.21-7.11-18.77-8.2-19.68S1290.413,3788.212,1279.293,3778.372Z" fill="none" stroke="#263238" stroke-linecap="round" stroke-linejoin="round" stroke-width="1"/>
        <line id="Línea_310" data-name="Línea 310" y1="10.75" x2="17.86" transform="translate(1308.643 3808.082)" fill="none" stroke="#263238" stroke-linecap="round" stroke-linejoin="round" stroke-width="1"/>
        <line id="Línea_311" data-name="Línea 311" y1="3.65" x2="9.29" transform="translate(1313.933 3813.912)" fill="none" stroke="#263238" stroke-linecap="round" stroke-linejoin="round" stroke-width="1"/>
        <line id="Línea_312" data-name="Línea 312" x2="0.18" y2="19.14" transform="translate(1306.093 3789.852)" fill="none" stroke="#263238" stroke-linecap="round" stroke-linejoin="round" stroke-width="1"/>
        <path id="Trazado_108766" data-name="Trazado 108766" d="M1308.643,3790.4l.91,15.86-2,2.18" fill="none" stroke="#263238" stroke-linecap="round" stroke-linejoin="round" stroke-width="1"/>
        <line id="Línea_313" data-name="Línea 313" x2="1.45" y2="13.85" transform="translate(1321.043 3788.942)" fill="none" stroke="#263238" stroke-linecap="round" stroke-linejoin="round" stroke-width="1"/>
        <line id="Línea_314" data-name="Línea 314" x2="3.47" y2="7.29" transform="translate(1323.223 3787.482)" fill="none" stroke="#263238" stroke-linecap="round" stroke-linejoin="round" stroke-width="1"/>
        <line id="Línea_315" data-name="Línea 315" x1="6.38" y2="21.69" transform="translate(1284.763 3788.942)" fill="none" stroke="#263238" stroke-linecap="round" stroke-linejoin="round" stroke-width="1"/>
        <line id="Línea_316" data-name="Línea 316" y2="16.04" transform="translate(1291.693 3790.222)" fill="none" stroke="#263238" stroke-linecap="round" stroke-linejoin="round" stroke-width="1"/>
        <path id="Trazado_108767" data-name="Trazado 108767" d="M1224.983,3675.2s-7.66-9.48-7.66-11.3,57.6-25.7,58.51-25.7,16.41,10.75,16.59,11.67,1.09,5.83,1.09,6.56-2.73,2.18-2.73,2.18-3.47,3.29-4.38,3.29h-.91a14.787,14.787,0,0,1-3.64,1.09,3.111,3.111,0,0,1-2-1.09s-5.1,1.27-4.74.36,6.2-4.56,6.2-4.56-6.74-4.19-8-6.92a37.6,37.6,0,0,1-2-5.47l-35.58,25.84Z" fill="#ffbf9d"/>
        <g id="Grupo_61941" data-name="Grupo 61941">
          <g id="Grupo_61940" data-name="Grupo 61940" clip-path="url(#clip-path-2)">
            <g id="Grupo_61939" data-name="Grupo 61939">
              <path id="Trazado_108768" data-name="Trazado 108768" d="M1270.463,3640.272c-14.46,5.83-53.14,22.14-53.14,23.63,0,1.82,7.66,11.3,7.66,11.3l10.75-4,35.49-25.84Z" opacity="0.2" style="isolation: isolate"/>
            </g>
          </g>
        </g>
        <path id="Trazado_108770" data-name="Trazado 108770" d="M1224.983,3675.2s-7.66-9.48-7.66-11.3,57.6-25.7,58.51-25.7,16.41,10.75,16.59,11.67,1.09,5.83,1.09,6.56-2.73,2.18-2.73,2.18-3.47,3.29-4.38,3.29h-.91a14.787,14.787,0,0,1-3.64,1.09,3.111,3.111,0,0,1-2-1.09s-5.1,1.27-4.74.36,6.2-4.56,6.2-4.56-6.74-4.19-8-6.92a37.6,37.6,0,0,1-2-5.47l-35.58,25.84Z" fill="none" stroke="#263238" stroke-linecap="round" stroke-linejoin="round" stroke-width="1"/>
        <path id="Trazado_108771" data-name="Trazado 108771" d="M1279.843,3661.9s3.85-.81,4.22-1.63,1.12-3.22.53-4.72" fill="none" stroke="#263238" stroke-linecap="round" stroke-linejoin="round" stroke-width="1"/>
        <path id="Trazado_108772" data-name="Trazado 108772" d="M1285.493,3661.9s2-1.11,2.24-2.83a30.352,30.352,0,0,0-.52-5.91" fill="none" stroke="#263238" stroke-linecap="round" stroke-linejoin="round" stroke-width="1"/>
        <path id="Trazado_108773" data-name="Trazado 108773" d="M1290.783,3658.612a5.841,5.841,0,0,0,.24-3.66c-.52-2-.9-4.11-.9-4.11" fill="none" stroke="#263238" stroke-linecap="round" stroke-linejoin="round" stroke-width="1"/>
        <path id="Trazado_108774" data-name="Trazado 108774" d="M1295.7,3694.7s-5.65-2.73-12.55-6.55-10.39-3.1-13.12-3.1-26.8-12.39-26.8-12.39l-10.78,10.93s42.83,31.35,43.56,33.72,2.37,52.13,1.64,56-2,5.47-1.27,6.93,10,9.66,26.25,9.48,27.7-4.74,28.79-6.93,1.1-3.1.37-4.74-1.46-3.64-1.46-3.64l5.82-39.42,5.84,29.89s2.91,1.64,9.11.55,8.93-2.74,8.93-2.74-9.84-45.2-11.85-50.85-3.28-5.11-9.66-7.47-23.15-7.66-23.15-7.66Z" fill="#aed3f2"/>
        <g id="Grupo_61944" data-name="Grupo 61944">
          <g id="Grupo_61943" data-name="Grupo 61943" clip-path="url(#clip-path-3)">
            <g id="Grupo_61942" data-name="Grupo 61942">
              <path id="Trazado_108775" data-name="Trazado 108775" d="M1320.353,3786.742c-6.62,0-18.62-.83-23.17-4.14s-10.76-27.31-10.76-27.31l12,16.55-20.5-86a20.939,20.939,0,0,0-7.92-.81c-2.74,0-26.8-12.39-26.8-12.39l-10.75,10.95s42.83,31.35,43.56,33.72,2.37,52.13,1.64,56-2,5.47-1.27,6.93,10,9.66,26.25,9.48a77.149,77.149,0,0,0,20.92-3C1322.533,3786.732,1321.463,3786.742,1320.353,3786.742Z" opacity="0.2" style="isolation: isolate"/>
              <path id="Trazado_108776" data-name="Trazado 108776" d="M1336.4,3736.732l3.2-9.94.71,4.97,6.74-4.26-5.05,37.38Z" opacity="0.2" style="isolation: isolate"/>
            </g>
          </g>
        </g>
        <path id="Trazado_108778" data-name="Trazado 108778" d="M1295.7,3694.7s-5.65-2.73-12.55-6.55-10.39-3.1-13.12-3.1-26.8-12.39-26.8-12.39l-10.78,10.93s42.83,31.35,43.56,33.72,2.37,52.13,1.64,56-2,5.47-1.27,6.93,10,9.66,26.25,9.48,27.7-4.74,28.79-6.93,1.1-3.1.37-4.74-1.46-3.64-1.46-3.64l5.82-39.42,5.84,29.89s2.91,1.64,9.11.55,8.93-2.74,8.93-2.74-9.84-45.2-11.85-50.85-3.28-5.11-9.66-7.47-23.15-7.66-23.15-7.66Z" fill="none" stroke="#263238" stroke-linecap="round" stroke-linejoin="round" stroke-width="1"/>
        <path id="Trazado_108779" data-name="Trazado 108779" d="M1341.973,3723.542l-5.81,11.45,11.18-11.18" fill="none" stroke="#263238" stroke-linecap="round" stroke-linejoin="round" stroke-width="1"/>
        <line id="Línea_317" data-name="Línea 317" x1="5.65" y1="22.24" transform="translate(1270.363 3695.072)" fill="none" stroke="#263238" stroke-linecap="round" stroke-linejoin="round" stroke-width="1"/>
        <line id="Línea_318" data-name="Línea 318" x1="11.66" y1="29.35" transform="translate(1264.353 3687.232)" fill="none" stroke="#263238" stroke-linecap="round" stroke-linejoin="round" stroke-width="1"/>
        <path id="Trazado_108780" data-name="Trazado 108780" d="M1276.713,3716.072s9.88,43.49,17,52.61" fill="none" stroke="#263238" stroke-linecap="round" stroke-linejoin="round" stroke-width="1"/>
        <path id="Trazado_108781" data-name="Trazado 108781" d="M1279.9,3737.052s5.32,34.22,10.19,41.06" fill="none" stroke="#263238" stroke-linecap="round" stroke-linejoin="round" stroke-width="1"/>
        <path id="Trazado_108782" data-name="Trazado 108782" d="M1293.883,3705.462l6.92,17.13-3.82,51.95,7.47,18.05,7.84-20.44-8.21-50.12,12.58-16-1.28-.92s-3.82,2.92-7.47,6.38-6.92,3.83-8.75,1.28-3.46-9.66-3.46-9.66Z" fill="#344154" stroke="#263238" stroke-linecap="round" stroke-linejoin="round" stroke-width="1"/>
        <path id="Trazado_108783" data-name="Trazado 108783" d="M1302.633,3686.322s-6.2.73-8,4-4.93,4.19-5.47,10.39-1.28,9.48-.55,9.48,8.57-5.47,8.57-5.47,2.73,7.84,3.83,8.38,2.91-.54,4.55-1.82,5.47-5.83,7.29-4.92,5.65,10.39,7.11,8,6-13.85,2.37-22.24S1302.633,3686.322,1302.633,3686.322Z" fill="#fff" stroke="#263238" stroke-linecap="round" stroke-linejoin="round" stroke-width="1"/>
        <path id="Trazado_108784" data-name="Trazado 108784" d="M1298.983,3685.042s1.09,17.87,1.28,23.15,1.64,6.56,2.91,5.47,12.4-11.3,13.49-17.31,1.64-9.48,1.64-9.48Z" fill="#ff9a6c" stroke="#263238" stroke-linecap="round" stroke-linejoin="round" stroke-width="1"/>
        <path id="Trazado_108785" data-name="Trazado 108785" d="M1296.613,3668.282s-1.82-5.84-4-4.93-2.92,7.48-1.46,10.39,5.47,3.1,6,1.83S1296.613,3668.282,1296.613,3668.282Z" fill="#ffbf9d" stroke="#263238" stroke-linecap="round" stroke-linejoin="round" stroke-width="1"/>
        <path id="Trazado_108786" data-name="Trazado 108786" d="M1327.6,3665.362l9.29-7.66,3.47-.73-1.83,3.29-10.2,7.65S1327.053,3667.732,1327.6,3665.362Z" fill="#d9a171" stroke="#263238" stroke-linecap="round" stroke-linejoin="round" stroke-width="1"/>
        <path id="Trazado_108787" data-name="Trazado 108787" d="M1336.893,3657.7l-.38.32,1.85,2.36.17-.12,1.83-3.29Z" fill="#fff" stroke="#263238" stroke-linecap="round" stroke-linejoin="round" stroke-width="1"/>
        <path id="Trazado_108788" data-name="Trazado 108788" d="M1327.6,3667s3.64-3.65,4.92-.73.18,6.56-2.55,9.11-4.38,2-4.38.19S1327.6,3667,1327.6,3667Z" fill="#ffbf9d" stroke="#263238" stroke-linecap="round" stroke-linejoin="round" stroke-width="1"/>
        <path id="Trazado_108789" data-name="Trazado 108789" d="M1302.443,3642.582s-6.92,1.27-7.47,4.92,1.28,31.35,2.19,35.72,8.75,13.13,14.94,12.76,10.76-7.65,12.4-11.85,6.56-28.8,6.56-34.45-10.21-12.21-18-12.21S1302.443,3642.582,1302.443,3642.582Z" fill="#ffbf9d" stroke="#263238" stroke-linecap="round" stroke-linejoin="round" stroke-width="1"/>
        <path id="Trazado_108790" data-name="Trazado 108790" d="M1312.273,3668.912s2.92,6.93,1.82,8.39-7.11,2.18-7.11-1.1" fill="none" stroke="#263238" stroke-linecap="round" stroke-linejoin="round" stroke-width="1"/>
        <path id="Trazado_108791" data-name="Trazado 108791" d="M1304.983,3680.4s3.83,4.55,11.48.18" fill="none" stroke="#263238" stroke-linecap="round" stroke-linejoin="round" stroke-width="1"/>
        <path id="Trazado_108792" data-name="Trazado 108792" d="M1310.273,3668a6.38,6.38,0,1,0-6.38,6.38,6.379,6.379,0,0,0,6.38-6.38Z" fill="#d0f8ff" stroke="#263238" stroke-linecap="round" stroke-linejoin="round" stroke-width="1"/>
        <path id="Trazado_108793" data-name="Trazado 108793" d="M1326.673,3669.152a6.38,6.38,0,1,0-6.39,6.37h.01A6.379,6.379,0,0,0,1326.673,3669.152Z" fill="#d0f8ff" stroke="#263238" stroke-linecap="round" stroke-linejoin="round" stroke-width="1"/>
        <path id="Trazado_108794" data-name="Trazado 108794" d="M1310.273,3668s2.18-.73,3.64.37" fill="none" stroke="#263238" stroke-linecap="round" stroke-linejoin="round" stroke-width="1"/>
        <path id="Trazado_108795" data-name="Trazado 108795" d="M1313.023,3637.472c-7.84,0-10.58,5.11-10.58,5.11s-6.92,1.27-7.47,4.92c-.28,1.87.06,10.1.59,18.25.2.14,1.23.76,1.23-.39s-.73-3.1.19-4.19,3.64-1.64,5.46-4.56,1.28-4.74,1.83-5.29,6.38-4.37,5.1-1.64-9.48,7.48-4.74,10,14.76,2.37,18.23-.18,6-8.21,5.47-5.65-2.19,6.74-1.64,8a27.918,27.918,0,0,1,.91,5.1s-1.64,5.83-1.1,6.2a1.112,1.112,0,0,0,.72,0c1.87-8.78,3.84-20,3.84-23.53C1331.063,3644.032,1320.853,3637.472,1313.023,3637.472Z" fill="#344154" stroke="#263238" stroke-linecap="round" stroke-linejoin="round" stroke-width="1"/>
        <path id="Trazado_108796" data-name="Trazado 108796" d="M1338.9,3761.962l.36,6.2s1.28,1.82,9.85,1.46,13.3-3.28,13.3-3.28l-1.82-8.2S1348.743,3762.512,1338.9,3761.962Z" fill="#aed3f2" stroke="#263238" stroke-linecap="round" stroke-linejoin="round" stroke-width="1"/>
        <path id="Trazado_108797" data-name="Trazado 108797" d="M1241.933,3667.552l-21.51,8.2s9.3,10.93,9.84,10.75,16-12.21,15.86-13.49S1241.933,3667.552,1241.933,3667.552Z" fill="#fff" stroke="#263238" stroke-linecap="round" stroke-linejoin="round" stroke-width="1"/>
      </g>
      <g id="freepik--Device--inject-2">
        <path id="Trazado_108798" data-name="Trazado 108798" d="M1238.483,3628.152H1064.6a21.227,21.227,0,0,0-20.42,21.3l3.66,80v214.53a17.62,17.62,0,0,0,17.62,17.62h170.13a19.489,19.489,0,0,0,18.63-18.63v-214.48l3.67-80a19.43,19.43,0,0,0-18.5-20.319Q1238.939,3628.152,1238.483,3628.152Z" fill="#fff"/>
        <g id="Grupo_61947" data-name="Grupo 61947">
          <g id="Grupo_61946" data-name="Grupo 61946" clip-path="url(#clip-path-4)">
            <g id="Grupo_61945" data-name="Grupo 61945">
              <path id="Trazado_108799" data-name="Trazado 108799" d="M1248.073,3630.682a19.388,19.388,0,0,1,3.82,12.47l-3.67,80v214.49a19.49,19.49,0,0,1-18.63,18.63h-170.13a17.626,17.626,0,0,1-8.37-2.12,17.571,17.571,0,0,0,14.37,7.44h170.13a19.489,19.489,0,0,0,18.63-18.63v-214.47l3.67-80A19.448,19.448,0,0,0,1248.073,3630.682Z" opacity="0.2" style="isolation: isolate"/>
            </g>
          </g>
        </g>
        <path id="Trazado_108801" data-name="Trazado 108801" d="M1238.483,3628.152H1064.6a21.227,21.227,0,0,0-20.42,21.3l3.66,80v214.53a17.62,17.62,0,0,0,17.62,17.62h170.13a19.489,19.489,0,0,0,18.63-18.63v-214.48l3.67-80a19.43,19.43,0,0,0-18.5-20.319Q1238.939,3628.152,1238.483,3628.152Z" fill="none" stroke="#263238" stroke-miterlimit="10" stroke-width="1"/>
        <path id="Trazado_108802" data-name="Trazado 108802" d="M1244.783,3726.052l3.37-74.66a11.91,11.91,0,0,0-11.357-12.438q-.272-.012-.543-.012h-169.41a11.91,11.91,0,0,0-11.912,11.908c0,.181,0,.361.012.542l3.36,74.66Z" fill="#344154" stroke="#263238" stroke-miterlimit="10" stroke-width="1"/>
        <rect id="Rectángulo_6961" data-name="Rectángulo 6961" width="172.41" height="58.31" transform="translate(1064.943 3658.322)" fill="#7d7d7d"/>
        <rect id="Rectángulo_6962" data-name="Rectángulo 6962" width="155.39" height="41.29" transform="translate(1073.453 3666.832)" fill="#bfbfbf"/>
        <rect id="Rectángulo_6963" data-name="Rectángulo 6963" width="86.99" height="25.53" rx="4.97" transform="translate(1065.263 3749.732)" fill="#7d7d7d" stroke="#263238" stroke-miterlimit="10" stroke-width="1"/>
        <line id="Línea_319" data-name="Línea 319" y2="25.21" transform="translate(1083.543 3750.052)" fill="none" stroke="#263238" stroke-miterlimit="10" stroke-width="1"/>
        <line id="Línea_320" data-name="Línea 320" y2="25.21" transform="translate(1101.093 3750.052)" fill="none" stroke="#263238" stroke-miterlimit="10" stroke-width="1"/>
        <line id="Línea_321" data-name="Línea 321" y2="25.21" transform="translate(1118.633 3750.052)" fill="none" stroke="#263238" stroke-miterlimit="10" stroke-width="1"/>
        <line id="Línea_322" data-name="Línea 322" y2="25.21" transform="translate(1136.173 3750.052)" fill="none" stroke="#263238" stroke-miterlimit="10" stroke-width="1"/>
        <rect id="Rectángulo_6964" data-name="Rectángulo 6964" width="30.95" height="20.04" rx="4.62" transform="translate(1174.373 3763.762)" fill="#d9d9d9" stroke="#263238" stroke-miterlimit="10" stroke-width="1"/>
        <rect id="Rectángulo_6965" data-name="Rectángulo 6965" width="30.95" height="23.59" rx="4.62" transform="translate(1065.783 3791.422)" fill="#d9d9d9" stroke="#263238" stroke-miterlimit="10" stroke-width="1"/>
        <rect id="Rectángulo_6966" data-name="Rectángulo 6966" width="30.95" height="23.59" rx="4.62" transform="translate(1102.063 3791.422)" fill="#d9d9d9" stroke="#263238" stroke-miterlimit="10" stroke-width="1"/>
        <path id="Trazado_108803" data-name="Trazado 108803" d="M1142.963,3791.422h21.7a4.63,4.63,0,0,1,4.63,4.63h0v14.34a4.63,4.63,0,0,1-4.62,4.63h-21.7a4.621,4.621,0,0,1-4.62-4.62v-14.36A4.62,4.62,0,0,1,1142.963,3791.422Z" fill="#d9d9d9" stroke="#263238" stroke-miterlimit="10" stroke-width="1"/>
        <rect id="Rectángulo_6967" data-name="Rectángulo 6967" width="30.95" height="23.59" rx="4.62" transform="translate(1174.623 3791.422)" fill="#d9d9d9" stroke="#263238" stroke-miterlimit="10" stroke-width="1"/>
        <rect id="Rectángulo_6968" data-name="Rectángulo 6968" width="30.95" height="23.59" rx="4.62" transform="translate(1210.903 3791.422)" fill="#d9d9d9" stroke="#263238" stroke-miterlimit="10" stroke-width="1"/>
        <rect id="Rectángulo_6969" data-name="Rectángulo 6969" width="30.95" height="23.59" rx="4.62" transform="translate(1065.783 3823.132)" fill="#d9d9d9" stroke="#263238" stroke-miterlimit="10" stroke-width="1"/>
        <rect id="Rectángulo_6970" data-name="Rectángulo 6970" width="30.95" height="23.59" rx="4.62" transform="translate(1102.063 3823.132)" fill="#999" stroke="#263238" stroke-miterlimit="10" stroke-width="1"/>
        <path id="Trazado_108804" data-name="Trazado 108804" d="M1142.963,3823.152h21.7a4.63,4.63,0,0,1,4.63,4.63h0v14.34a4.63,4.63,0,0,1-4.62,4.63h-21.7a4.62,4.62,0,0,1-4.62-4.62v-14.38A4.619,4.619,0,0,1,1142.963,3823.152Z" fill="#999" stroke="#263238" stroke-miterlimit="10" stroke-width="1"/>
        <rect id="Rectángulo_6971" data-name="Rectángulo 6971" width="30.95" height="23.59" rx="4.62" transform="translate(1174.623 3823.132)" fill="#999" stroke="#263238" stroke-miterlimit="10" stroke-width="1"/>
        <rect id="Rectángulo_6972" data-name="Rectángulo 6972" width="30.95" height="23.59" rx="4.62" transform="translate(1210.903 3823.132)" fill="#d9d9d9" stroke="#263238" stroke-miterlimit="10" stroke-width="1"/>
        <rect id="Rectángulo_6973" data-name="Rectángulo 6973" width="30.95" height="23.59" rx="4.62" transform="translate(1065.783 3854.842)" fill="#d9d9d9" stroke="#263238" stroke-miterlimit="10" stroke-width="1"/>
        <rect id="Rectángulo_6974" data-name="Rectángulo 6974" width="30.95" height="23.59" rx="4.62" transform="translate(1102.063 3854.842)" fill="#999" stroke="#263238" stroke-miterlimit="10" stroke-width="1"/>
        <path id="Trazado_108805" data-name="Trazado 108805" d="M1142.963,3854.842h21.7a4.63,4.63,0,0,1,4.63,4.63h0v14.34a4.63,4.63,0,0,1-4.62,4.63h-21.7a4.62,4.62,0,0,1-4.62-4.62v-14.35a4.62,4.62,0,0,1,4.61-4.63Z" fill="#999" stroke="#263238" stroke-miterlimit="10" stroke-width="1"/>
        <rect id="Rectángulo_6975" data-name="Rectángulo 6975" width="30.95" height="23.59" rx="4.62" transform="translate(1174.623 3854.842)" fill="#999" stroke="#263238" stroke-miterlimit="10" stroke-width="1"/>
        <rect id="Rectángulo_6976" data-name="Rectángulo 6976" width="30.95" height="23.59" rx="4.62" transform="translate(1210.903 3854.842)" fill="#d9d9d9" stroke="#263238" stroke-miterlimit="10" stroke-width="1"/>
        <rect id="Rectángulo_6977" data-name="Rectángulo 6977" width="30.95" height="23.59" rx="4.62" transform="translate(1065.783 3886.552)" fill="#d9a171" stroke="#263238" stroke-miterlimit="10" stroke-width="1"/>
        <rect id="Rectángulo_6978" data-name="Rectángulo 6978" width="30.95" height="23.59" rx="4.62" transform="translate(1102.063 3886.552)" fill="#999" stroke="#263238" stroke-miterlimit="10" stroke-width="1"/>
        <path id="Trazado_108806" data-name="Trazado 108806" d="M1142.963,3886.552h21.7a4.63,4.63,0,0,1,4.63,4.63h0v14.34a4.631,4.631,0,0,1-4.62,4.63h-21.7a4.621,4.621,0,0,1-4.62-4.62v-14.38A4.619,4.619,0,0,1,1142.963,3886.552Z" fill="#999" stroke="#263238" stroke-miterlimit="10" stroke-width="1"/>
        <rect id="Rectángulo_6979" data-name="Rectángulo 6979" width="30.95" height="23.59" rx="4.62" transform="translate(1174.623 3886.552)" fill="#999" stroke="#263238" stroke-miterlimit="10" stroke-width="1"/>
        <rect id="Rectángulo_6980" data-name="Rectángulo 6980" width="30.95" height="23.59" rx="4.62" transform="translate(1065.783 3918.272)" fill="#d9a171" stroke="#263238" stroke-miterlimit="10" stroke-width="1"/>
        <rect id="Rectángulo_6981" data-name="Rectángulo 6981" width="30.95" height="23.59" rx="4.62" transform="translate(1102.063 3918.272)" fill="#999" stroke="#263238" stroke-miterlimit="10" stroke-width="1"/>
        <path id="Trazado_108807" data-name="Trazado 108807" d="M1142.963,3918.272h21.7a4.63,4.63,0,0,1,4.63,4.63h0v14.34a4.631,4.631,0,0,1-4.62,4.63h-21.7a4.621,4.621,0,0,1-4.62-4.62v-14.36A4.62,4.62,0,0,1,1142.963,3918.272Z" fill="#999" stroke="#263238" stroke-miterlimit="10" stroke-width="1"/>
        <rect id="Rectángulo_6982" data-name="Rectángulo 6982" width="30.95" height="23.59" rx="4.62" transform="translate(1174.623 3918.272)" fill="#d9d9d9" stroke="#263238" stroke-miterlimit="10" stroke-width="1"/>
        <path id="Trazado_108808" data-name="Trazado 108808" d="M1237.153,3886.552h-21.56a4.7,4.7,0,0,0-4.69,4.7v45.9a4.69,4.69,0,0,0,4.69,4.69h21.56a4.69,4.69,0,0,0,4.7-4.68v-45.91a4.7,4.7,0,0,0-4.7-4.7Z" fill="#d9d9d9" stroke="#263238" stroke-miterlimit="10" stroke-width="1"/>
        <rect id="Rectángulo_6983" data-name="Rectángulo 6983" width="30.95" height="20.04" rx="4.62" transform="translate(1210.903 3763.762)" fill="#d9a171" stroke="#263238" stroke-miterlimit="10" stroke-width="1"/>
        <path id="Trazado_108809" data-name="Trazado 108809" d="M1216.873,3778.742a7,7,0,0,1,0-8.43,5.63,5.63,0,0,1,7.78,0,7,7,0,0,1,0,8.43A5.63,5.63,0,0,1,1216.873,3778.742Zm6.56-.92a6.148,6.148,0,0,0,0-6.6,3.582,3.582,0,0,0-5.35,0,6.21,6.21,0,0,0,0,6.6,3.562,3.562,0,0,0,5.35,0Z" fill="#fff"/>
        <path id="Trazado_108810" data-name="Trazado 108810" d="M1228.623,3779.942a.64.64,0,0,1-.22-.51v-9.51a1,1,0,0,1,.26-.74.84.84,0,0,1,.64-.27,1.175,1.175,0,0,1,.57.16,1.453,1.453,0,0,1,.5.46l5.72,8.32v-8.24a.644.644,0,0,1,.21-.51.733.733,0,0,1,.52-.19.71.71,0,0,1,.5.19.609.609,0,0,1,.22.51v9.54a.944.944,0,0,1-.96,1.02,1.146,1.146,0,0,1-.53-.14,1.161,1.161,0,0,1-.44-.38l-5.74-8.32v8.14a.61.61,0,0,1-.22.51.808.808,0,0,1-.52.19A.759.759,0,0,1,1228.623,3779.942Z" fill="#fff"/>
        <path id="Trazado_108811" data-name="Trazado 108811" d="M1075.413,3809.652a1.241,1.241,0,0,1-.41-.51l-3.65-8.21v8.54a.47.47,0,0,1-.22.42.94.94,0,0,1-1,0,.472.472,0,0,1-.22-.42v-9.32a1,1,0,0,1,.36-.76,1.232,1.232,0,0,1,.83-.3,1.269,1.269,0,0,1,.74.23,1.54,1.54,0,0,1,.56.7l3.57,7.91,3.56-7.91a1.473,1.473,0,0,1,.55-.7,1.319,1.319,0,0,1,1.58.07,1,1,0,0,1,.36.76v9.29a.469.469,0,0,1-.22.42.847.847,0,0,1-.51.15.883.883,0,0,1-.51-.15.5.5,0,0,1-.22-.42v-8.54l-3.67,8.25a1.232,1.232,0,0,1-.41.51.913.913,0,0,1-.53.18A.945.945,0,0,1,1075.413,3809.652Z" fill="#fff"/>
        <path id="Trazado_108812" data-name="Trazado 108812" d="M1086.793,3809.532a4.843,4.843,0,0,1-1.79-2.06,6.831,6.831,0,0,1-.6-2.91,7.091,7.091,0,0,1,.37-2.27,5.7,5.7,0,0,1,1-1.84,4.806,4.806,0,0,1,1.68-1.25,5.478,5.478,0,0,1,2.24-.45,5.716,5.716,0,0,1,2.84.73.569.569,0,0,1,.34.54.6.6,0,0,1-.17.44.55.55,0,0,1-.42.19.683.683,0,0,1-.25-.07l-.2-.1-.26-.12-.31-.12-.41-.12-.49-.07c-.2-.01-.407-.01-.61,0a4.006,4.006,0,0,0-1.38.23,3.12,3.12,0,0,0-1,.65,3.855,3.855,0,0,0-.72,1,5.183,5.183,0,0,0-.42,1.24,7.143,7.143,0,0,0,0,2.81,4.991,4.991,0,0,0,.42,1.23,3.626,3.626,0,0,0,.72,1,3.113,3.113,0,0,0,1.06.64,3.922,3.922,0,0,0,1.41.24,3.773,3.773,0,0,0,1.22-.19,7.036,7.036,0,0,0,1.14-.53.568.568,0,0,1,.3-.08.538.538,0,0,1,.41.18.579.579,0,0,1,.18.42.72.72,0,0,1-.4.61,5.507,5.507,0,0,1-3.09.86A5.092,5.092,0,0,1,1086.793,3809.532Z" fill="#fff"/>
        <path id="Trazado_108813" data-name="Trazado 108813" d="M1078.793,3933.152h-5.4l-.93,2.39a.73.73,0,0,1-.73.52.842.842,0,0,1-.54-.2.622.622,0,0,1-.24-.49.845.845,0,0,1,.06-.29l3.73-9.26a1.935,1.935,0,0,1,.57-.88,1.541,1.541,0,0,1,1.55,0,1.931,1.931,0,0,1,.58.88l3.71,9.33a.661.661,0,0,1,.07.29.63.63,0,0,1-.25.49.846.846,0,0,1-.55.2.731.731,0,0,1-.72-.52Zm-2.7-6.93-2.26,5.8h4.51Z" fill="#fff"/>
        <path id="Trazado_108814" data-name="Trazado 108814" d="M1085.043,3935.442a4.8,4.8,0,0,1-1.79-2.05,6.833,6.833,0,0,1-.6-2.91,7.038,7.038,0,0,1,.37-2.27,5.761,5.761,0,0,1,1-1.85,4.574,4.574,0,0,1,1.68-1.24,5.279,5.279,0,0,1,2.24-.46,5.713,5.713,0,0,1,2.84.73.589.589,0,0,1,.34.54.637.637,0,0,1-.17.44.537.537,0,0,1-.42.19.731.731,0,0,1-.26-.06l-.19-.1-.26-.13-.31-.11-.41-.12a4.287,4.287,0,0,0-.49-.08c-.2-.01-.407-.01-.61,0a3.786,3.786,0,0,0-1.38.24,2.872,2.872,0,0,0-1,.65,3.8,3.8,0,0,0-.71,1,4.991,4.991,0,0,0-.42,1.23,7.178,7.178,0,0,0-.14,1.41,7.028,7.028,0,0,0,.14,1.41,4.755,4.755,0,0,0,.42,1.22,3.442,3.442,0,0,0,.72,1,3.112,3.112,0,0,0,1.06.65,4.179,4.179,0,0,0,1.41.23,3.793,3.793,0,0,0,1.22-.18,7.91,7.91,0,0,0,1.14-.53.584.584,0,0,1,.3-.09.541.541,0,0,1,.41.18.567.567,0,0,1,.17.42.738.738,0,0,1-.39.62,5.513,5.513,0,0,1-3.09.85A5,5,0,0,1,1085.043,3935.442Z" fill="#fff"/>
        <path id="Trazado_108815" data-name="Trazado 108815" d="M1078.833,3903.442a4.782,4.782,0,0,1-1.78-2.05,6.832,6.832,0,0,1-.6-2.91,7.008,7.008,0,0,1,.36-2.27,5.761,5.761,0,0,1,1-1.85,4.541,4.541,0,0,1,1.67-1.24,5.36,5.36,0,0,1,2.25-.46,5.674,5.674,0,0,1,2.83.73.609.609,0,0,1,.308.806.621.621,0,0,1-.138.194.522.522,0,0,1-.41.19.649.649,0,0,1-.26-.06l-.19-.1-.27-.13-.31-.11-.41-.12a3.851,3.851,0,0,0-.49-.08c-.2-.01-.407-.01-.61,0a3.853,3.853,0,0,0-1.38.24,2.843,2.843,0,0,0-1,.65,4.081,4.081,0,0,0-.72,1,5,5,0,0,0-.42,1.23,7.25,7.25,0,0,0-.13,1.41,7.025,7.025,0,0,0,.13,1.41,4.76,4.76,0,0,0,.42,1.22,3.851,3.851,0,0,0,.72,1,3.207,3.207,0,0,0,1.06.65,4.179,4.179,0,0,0,1.41.23,3.74,3.74,0,0,0,1.22-.18,7.12,7.12,0,0,0,1.14-.53.65.65,0,0,1,.3-.09.579.579,0,0,1,.42.18.6.6,0,0,1,.17.42.737.737,0,0,1-.39.62,5.547,5.547,0,0,1-3.09.85A5.005,5.005,0,0,1,1078.833,3903.442Z" fill="#fff"/>
        <path id="Trazado_108816" data-name="Trazado 108816" d="M1074.863,3835.362a3.691,3.691,0,0,1,0-4.38,2.381,2.381,0,0,1,2-.88,2.716,2.716,0,0,1,1.2.26,2.266,2.266,0,0,1,.85.71,3.534,3.534,0,0,1,.47,1,3.662,3.662,0,0,1,.16,1.11,3.3,3.3,0,0,1-.73,2.19,2.63,2.63,0,0,1-3.715.185c-.064-.058-.126-.12-.185-.185Zm2.83-.34a1.762,1.762,0,0,0,.49-.79,3.9,3.9,0,0,0,.13-1.07,3.761,3.761,0,0,0-.16-1.01,1.644,1.644,0,0,0-.49-.79,1.269,1.269,0,0,0-.88-.32,1.241,1.241,0,0,0-.87.32,1.742,1.742,0,0,0-.49.79,3.789,3.789,0,0,0-.13,1.06,3.944,3.944,0,0,0,.13,1.07,1.852,1.852,0,0,0,.49.79,1.241,1.241,0,0,0,.87.32A1.27,1.27,0,0,0,1077.693,3835.022Zm-.77,6.57a.432.432,0,0,1-.14-.32.6.6,0,0,1,.09-.27l6.13-10.85a.511.511,0,0,1,.45-.3.44.44,0,0,1,.32.13.475.475,0,0,1,.13.33.742.742,0,0,1-.1.33l-6.11,10.78a.477.477,0,0,1-.77.17Zm5.49-1a3.41,3.41,0,0,1-.71-2.21,3.264,3.264,0,0,1,.73-2.17,2.371,2.371,0,0,1,1.94-.88,2.611,2.611,0,0,1,1.2.27,2.138,2.138,0,0,1,.84.7,3.469,3.469,0,0,1,.47,1,3.729,3.729,0,0,1,.16,1.11,3.642,3.642,0,0,1-.31,1.54,2.594,2.594,0,0,1-4.32.67Zm2.83-.35a1.755,1.755,0,0,0,.49-.78,3.972,3.972,0,0,0,.13-1.08,3.443,3.443,0,0,0-.08-.81,2.453,2.453,0,0,0-.24-.68,1.355,1.355,0,0,0-2.05-.36,1.67,1.67,0,0,0-.48.79,4.136,4.136,0,0,0,0,2.13,1.668,1.668,0,0,0,.48.79,1.271,1.271,0,0,0,.88.32,1.238,1.238,0,0,0,.87-.35Z" fill="#fff"/>
        <path id="Trazado_108817" data-name="Trazado 108817" d="M1116.073,3840.962a.66.66,0,0,1-.24-.52.816.816,0,0,1,.08-.34l3.84-8.82h-5.17a.625.625,0,0,1-.47-.19.65.65,0,0,1,0-.88.581.581,0,0,1,.47-.19h6a1,1,0,0,1,.65.2.678.678,0,0,1,.23.54,1.736,1.736,0,0,1-.14.67l-4,9.3a.67.67,0,0,1-.67.44A.841.841,0,0,1,1116.073,3840.962Z" fill="#fff"/>
        <path id="Trazado_108818" data-name="Trazado 108818" d="M1152.153,3840.992a3.05,3.05,0,0,1-1.38-1.09,2.889,2.889,0,0,1-.52-1.73,3,3,0,0,1,.58-1.82,2.693,2.693,0,0,1,1.65-1,2.535,2.535,0,0,1-1.53-.92,2.665,2.665,0,0,1-.52-1.65,2.7,2.7,0,0,1,.51-1.65,2.923,2.923,0,0,1,1.32-1,5.01,5.01,0,0,1,1.86-.33,5.589,5.589,0,0,1,1.45.19,4.01,4.01,0,0,1,1.17.56,2.625,2.625,0,0,1,.8.95,2.909,2.909,0,0,1,.29,1.3,2.619,2.619,0,0,1-.53,1.66,2.561,2.561,0,0,1-1.51.91,2.992,2.992,0,0,1,1.66,1,2.841,2.841,0,0,1,.56,1.79,3,3,0,0,1-.52,1.73,3.125,3.125,0,0,1-1.39,1.09,5.755,5.755,0,0,1-3.95,0Zm3.63-1.33a1.741,1.741,0,0,0,.64-1.48,2,2,0,0,0-.65-1.58,2.735,2.735,0,0,0-3.29,0,2,2,0,0,0-.66,1.58,1.9,1.9,0,0,0,.32,1.12,1.814,1.814,0,0,0,.83.65,2.986,2.986,0,0,0,1.16.2,2.629,2.629,0,0,0,1.62-.49Zm0-5.5a1.709,1.709,0,0,0,.59-1.4,1.579,1.579,0,0,0-.63-1.38,2.633,2.633,0,0,0-1.57-.45,3.56,3.56,0,0,0-.82.1,2.46,2.46,0,0,0-.7.31,1.427,1.427,0,0,0-.5.58,1.875,1.875,0,0,0-.18.84,1.712,1.712,0,0,0,.59,1.4,2.94,2.94,0,0,0,3.22,0Z" fill="#fff"/>
        <path id="Trazado_108819" data-name="Trazado 108819" d="M1186.373,3840.762a.5.5,0,0,1-.3-.49.811.811,0,0,1,.17-.49.52.52,0,0,1,.41-.23.5.5,0,0,1,.19.05,4.627,4.627,0,0,0,2,.47,3.468,3.468,0,0,0,1-.12,2.441,2.441,0,0,0,.73-.33,2.072,2.072,0,0,0,.52-.54,3.3,3.3,0,0,0,.36-.7,4.5,4.5,0,0,0,.22-.87,7.829,7.829,0,0,0,.11-1v-1.09a2.111,2.111,0,0,1-.94,1.13,3.286,3.286,0,0,1-1.78.49,3.468,3.468,0,0,1-2.58-1,3.511,3.511,0,0,1-1-2.57,3.631,3.631,0,0,1,1-2.67,3.691,3.691,0,0,1,2.75-1,4.653,4.653,0,0,1,1.64.28,3.31,3.31,0,0,1,1.18.75,3.836,3.836,0,0,1,.76,1.14,5.522,5.522,0,0,1,.42,1.38,9.36,9.36,0,0,1,.12,1.55v1.28a7.539,7.539,0,0,1-.17,1.27,7.28,7.28,0,0,1-.34,1.21,4.482,4.482,0,0,1-.56,1.06,3.587,3.587,0,0,1-.82.87,3.8,3.8,0,0,1-1.14.56,5.467,5.467,0,0,1-1.51.2A5.393,5.393,0,0,1,1186.373,3840.762Zm4.61-5.49a2.5,2.5,0,0,0,.64-1.81,2.546,2.546,0,0,0-.6-1.73,2.087,2.087,0,0,0-1.69-.7,2.2,2.2,0,0,0-1.73.67,2.54,2.54,0,0,0-.6,1.78,2.735,2.735,0,0,0,.55,1.77,1.9,1.9,0,0,0,1.62.69A2.359,2.359,0,0,0,1190.983,3835.272Z" fill="#fff"/>
        <path id="Trazado_108820" data-name="Trazado 108820" d="M1119.273,3871.982a.653.653,0,0,1-.23-.52v-1.73h-4.48a.731.731,0,0,1-.58-.25.8.8,0,0,1-.22-.57,1,1,0,0,1,.14-.49l4.29-6.73a1.44,1.44,0,0,1,1.28-.74,1.157,1.157,0,0,1,.78.27,1,1,0,0,1,.32.82v6.54h1.13a.55.55,0,0,1,.43.17.622.622,0,0,1,0,.81.55.55,0,0,1-.43.17h-1.14v1.73a.65.65,0,0,1-.23.52.78.78,0,0,1-.52.19A.831.831,0,0,1,1119.273,3871.982Zm-.23-3.4v-6l-3.75,6Z" fill="#fff"/>
        <path id="Trazado_108821" data-name="Trazado 108821" d="M1152.423,3872.022a5.2,5.2,0,0,1-1.51-.94.431.431,0,0,1-.15-.34.722.722,0,0,1,.21-.49.62.62,0,0,1,.45-.23.439.439,0,0,1,.28.1,3.661,3.661,0,0,0,2.49.94,2.308,2.308,0,0,0,1.76-.63,2.508,2.508,0,0,0,.6-1.78,2.41,2.41,0,0,0-.59-1.68,2,2,0,0,0-1.56-.64,2.99,2.99,0,0,0-1.25.29,2.71,2.71,0,0,0-1,.72.416.416,0,0,1-.31.1,1.392,1.392,0,0,1-.64-.17c-.22-.12-.32-.25-.32-.41v-5.12c0-.47.25-.71.76-.71h5.14a.519.519,0,0,1,.43.18.647.647,0,0,1,.01.84.566.566,0,0,1-.44.17h-4.63v3.79l.1-.1a2.124,2.124,0,0,1,.28-.22,4.054,4.054,0,0,1,.48-.27,3.481,3.481,0,0,1,.69-.22,4.406,4.406,0,0,1,.9-.09,3.248,3.248,0,0,1,2.51,1,3.6,3.6,0,0,1,.95,2.58,3.468,3.468,0,0,1-1.07,2.65,3.859,3.859,0,0,1-2.74,1A4.953,4.953,0,0,1,1152.423,3872.022Z" fill="#fff"/>
        <path id="Trazado_108822" data-name="Trazado 108822" d="M1187.993,3872.052a3.08,3.08,0,0,1-1.18-.75,3.807,3.807,0,0,1-.76-1.13,5.777,5.777,0,0,1-.42-1.39,9.368,9.368,0,0,1-.12-1.55v-1.27a10.464,10.464,0,0,1,.18-1.27,6.616,6.616,0,0,1,.33-1.22,5.158,5.158,0,0,1,.56-1.06,3.481,3.481,0,0,1,2-1.42,4.982,4.982,0,0,1,1.5-.21,5.553,5.553,0,0,1,2.43.58.519.519,0,0,1,.29.5.829.829,0,0,1-.17.49.491.491,0,0,1-.41.22.386.386,0,0,1-.19-.05,4.76,4.76,0,0,0-2-.47,3.462,3.462,0,0,0-.95.12,2.681,2.681,0,0,0-.72.34,2.019,2.019,0,0,0-.53.54,3.108,3.108,0,0,0-.36.7,4.306,4.306,0,0,0-.22.86,8.628,8.628,0,0,0-.11,1v1.09a2.005,2.005,0,0,1,.94-1.13,3.172,3.172,0,0,1,1.78-.49,3.38,3.38,0,0,1,3.551,3.2,3.227,3.227,0,0,1,0,.37,3.619,3.619,0,0,1-1,2.66,3.688,3.688,0,0,1-2.75,1A4.378,4.378,0,0,1,1187.993,3872.052Zm-.09-5.19a2.8,2.8,0,0,0,0,3.54,2.122,2.122,0,0,0,1.69.69,2.222,2.222,0,0,0,1.73-.66,2.565,2.565,0,0,0,.6-1.79,2.788,2.788,0,0,0-.54-1.77,2,2,0,0,0-1.63-.69A2.368,2.368,0,0,0,1187.9,3866.862Z" fill="#fff"/>
        <path id="Trazado_108823" data-name="Trazado 108823" d="M1117.823,3904.462a.691.691,0,0,1-.23-.55v-8.76l-1.69,1a.6.6,0,0,1-.31.09.56.56,0,0,1-.3-1l2.69-1.68a.813.813,0,0,1,.43-.11.707.707,0,0,1,.74.77v9.69a.688.688,0,0,1-.23.55.87.87,0,0,1-.56.2A.855.855,0,0,1,1117.823,3904.462Z" fill="#fff"/>
        <path id="Trazado_108824" data-name="Trazado 108824" d="M1157.223,3898.242a6.552,6.552,0,0,1-1.43,1.74l-3.58,3.49h4.72a.616.616,0,0,1,.46.17.6.6,0,0,1,.16.42.565.565,0,0,1-.16.42.59.59,0,0,1-.46.18h-5.4a1.172,1.172,0,0,1-.74-.23.722.722,0,0,1-.28-.58,1.082,1.082,0,0,1,.37-.77l4.08-4.13a6.1,6.1,0,0,0,.93-1.2,2.234,2.234,0,0,0,.3-1.09,2,2,0,0,0-.6-1.5,2.047,2.047,0,0,0-1.47-.57,4.249,4.249,0,0,0-1,.1,3.825,3.825,0,0,0-.62.17,4.554,4.554,0,0,0-.55.29l-.44.26a.582.582,0,0,1-.23.05.561.561,0,0,1-.43-.2.611.611,0,0,1-.19-.45.542.542,0,0,1,.3-.48,7.493,7.493,0,0,1,1.49-.72,5.215,5.215,0,0,1,1.75-.25,3.447,3.447,0,0,1,2.45.92,3,3,0,0,1,1,2.24A3.587,3.587,0,0,1,1157.223,3898.242Z" fill="#fff"/>
        <path id="Trazado_108825" data-name="Trazado 108825" d="M1186.583,3904.242a.641.641,0,0,1-.41-.58.651.651,0,0,1,.18-.46.564.564,0,0,1,.42-.2.831.831,0,0,1,.2,0,5.092,5.092,0,0,0,2.16.52,2.71,2.71,0,0,0,1.69-.49,1.609,1.609,0,0,0,.65-1.37,2,2,0,0,0-.75-1.64,2.886,2.886,0,0,0-1.9-.61h-.57a.481.481,0,0,1-.41-.17.549.549,0,0,1-.15-.4.593.593,0,0,1,.15-.41.481.481,0,0,1,.41-.17h.51a2.868,2.868,0,0,0,1.76-.5,1.707,1.707,0,0,0,.66-1.45,1.6,1.6,0,0,0-.6-1.33,2.361,2.361,0,0,0-1.48-.47,5.063,5.063,0,0,0-2.3.54.5.5,0,0,1-.18,0,.534.534,0,0,1-.42-.23.766.766,0,0,1-.18-.49.493.493,0,0,1,.26-.45,4.647,4.647,0,0,1,1.2-.45,6.371,6.371,0,0,1,1.64-.23,5.071,5.071,0,0,1,1.84.32,3,3,0,0,1,1.31,1,2.852,2.852,0,0,1,.5,1.69,2.408,2.408,0,0,1-.52,1.57,3,3,0,0,1-1.38.92,2.648,2.648,0,0,1,1.58,1,3,3,0,0,1,.59,1.86,3.12,3.12,0,0,1-.32,1.42,2.608,2.608,0,0,1-.87,1,4.027,4.027,0,0,1-1.21.55,5.583,5.583,0,0,1-1.44.18A5.426,5.426,0,0,1,1186.583,3904.242Z" fill="#fff"/>
        <path id="Trazado_108826" data-name="Trazado 108826" d="M1116.223,3935.022a3.226,3.226,0,0,1-1.14-.85,4.448,4.448,0,0,1-.71-1.29,7.172,7.172,0,0,1-.39-1.56,13.637,13.637,0,0,1-.11-1.75q0-5.79,3.95-5.79c2.62,0,3.94,1.93,3.94,5.79a13.458,13.458,0,0,1-.11,1.74,7.055,7.055,0,0,1-.39,1.56,4.183,4.183,0,0,1-.71,1.29,3.149,3.149,0,0,1-1.13.85,3.714,3.714,0,0,1-1.6.32A3.825,3.825,0,0,1,1116.223,3935.022Zm2.38-1.11a1.919,1.919,0,0,0,.59-.4,2.672,2.672,0,0,0,.41-.62,4.1,4.1,0,0,0,.28-.74,5.975,5.975,0,0,0,.16-.85c0-.32.07-.61.08-.88s0-.55,0-.85v-.9a3.543,3.543,0,0,0-.08-.89,5.729,5.729,0,0,0-.17-.85,4.1,4.1,0,0,0-.28-.74,2.039,2.039,0,0,0-.41-.6,1.734,1.734,0,0,0-.59-.39,2.078,2.078,0,0,0-1.55,0,1.818,1.818,0,0,0-.58.38,2.3,2.3,0,0,0-.42.6,4.242,4.242,0,0,0-.28.74c-.06.25-.11.54-.16.86a7.334,7.334,0,0,0-.08.89c-.01.28,0,.57,0,.9v.86a3.354,3.354,0,0,0,.08.87,5.975,5.975,0,0,0,.16.85,4.386,4.386,0,0,0,.28.75,2.189,2.189,0,0,0,.41.61,1.812,1.812,0,0,0,.59.4,1.958,1.958,0,0,0,.78.15,1.989,1.989,0,0,0,.78-.15Z" fill="#fff"/>
        <path id="Trazado_108827" data-name="Trazado 108827" d="M1152.653,3931.4a1.774,1.774,0,0,1-.5-1.25,1.722,1.722,0,0,1,.55-1.27,1.908,1.908,0,0,1,1.44-.55,2,2,0,0,1,1.43.54,1.729,1.729,0,0,1,.55,1.28,1.8,1.8,0,0,1-.54,1.3,2.183,2.183,0,0,1-2.93-.05Z" fill="#fff"/>
        <path id="Trazado_108828" data-name="Trazado 108828" d="M1225.253,3799.682a1.739,1.739,0,0,1-.039-2.46l.039-.04a2.12,2.12,0,0,1,2.79,0,1.684,1.684,0,0,1,.54,1.25,1.738,1.738,0,0,1-.53,1.26,2.111,2.111,0,0,1-2.8,0Z" fill="#fff"/>
        <path id="Trazado_108829" data-name="Trazado 108829" d="M1225.253,3810.152a1.762,1.762,0,0,1-.53-1.27,1.691,1.691,0,0,1,.53-1.23,1.877,1.877,0,0,1,1.4-.53,1.9,1.9,0,0,1,1.39.52,1.669,1.669,0,0,1,.54,1.24,1.758,1.758,0,0,1-.53,1.27,2.111,2.111,0,0,1-2.8,0Z" fill="#fff"/>
        <path id="Trazado_108830" data-name="Trazado 108830" d="M1184.153,3929.152a.9.9,0,0,1-.28-.65.861.861,0,0,1,.29-.68,1.062,1.062,0,0,1,.74-.26h11.13a1,1,0,0,1,.72.26.82.82,0,0,1,.31.68.829.829,0,0,1-.31.66,1.08,1.08,0,0,1-.72.26h-11.2A1,1,0,0,1,1184.153,3929.152Zm0,5.13a.84.84,0,0,1-.28-.64.894.894,0,0,1,.29-.68,1.113,1.113,0,0,1,.74-.26h11.17a1,1,0,0,1,.7.26.859.859,0,0,1,.29.68.817.817,0,0,1-.3.65,1.078,1.078,0,0,1-.72.26h-11.25a1,1,0,0,1-.64-.23Z" fill="#fff"/>
        <path id="Trazado_108831" data-name="Trazado 108831" d="M1225.773,3836.632l-3.13,4.2a.779.779,0,0,1-.63.36.661.661,0,0,1-.48-.2.642.642,0,0,1-.21-.47.706.706,0,0,1,.15-.43l3.49-4.56-3.28-4.47a.5.5,0,0,1-.12-.34.725.725,0,0,1,.25-.53.8.8,0,0,1,.56-.23.72.72,0,0,1,.6.34l3,4.07,3-4.06a.8.8,0,0,1,.65-.36.649.649,0,0,1,.46.18.568.568,0,0,1,.19.43.667.667,0,0,1-.14.4l-3.37,4.53,3.35,4.58a.681.681,0,0,1,.14.4.637.637,0,0,1-.25.49.872.872,0,0,1-.56.21.681.681,0,0,1-.59-.31Z" fill="#fff"/>
        <path id="Trazado_108832" data-name="Trazado 108832" d="M1225.513,3923.842a1.134,1.134,0,0,1-.31-.82v-5.19h-5.4a1.194,1.194,0,0,1-.83-.31,1,1,0,0,1-.132-1.408,1.031,1.031,0,0,1,.132-.132,1.19,1.19,0,0,1,.84-.29h5.4v-5.24a1.12,1.12,0,0,1,.31-.81,1,1,0,0,1,.8-.34,1.057,1.057,0,0,1,.8.33,1.128,1.128,0,0,1,.31.82v5.24h5.41a1.255,1.255,0,0,1,.84.29,1.022,1.022,0,0,1,0,1.54,1.2,1.2,0,0,1-.84.31h-5.41v5.19a1.118,1.118,0,0,1-.31.8,1,1,0,0,1-.8.34A1.062,1.062,0,0,1,1225.513,3923.842Z" fill="#fff"/>
        <path id="Trazado_108833" data-name="Trazado 108833" d="M1075.6,3870.862a.813.813,0,0,1-.23-.59v-3.78h-3.92a.881.881,0,0,1-.61-.22.741.741,0,0,1-.076-1.044.77.77,0,0,1,.076-.076.921.921,0,0,1,.62-.22h3.92v-3.78a.865.865,0,0,1,.23-.6.749.749,0,0,1,.58-.24.767.767,0,0,1,.58.24.85.85,0,0,1,.23.6v3.8h3.94a.916.916,0,0,1,.6.22.7.7,0,0,1,.26.56.745.745,0,0,1-.25.56.881.881,0,0,1-.61.22H1077v3.78a.829.829,0,0,1-.23.58.741.741,0,0,1-.58.25A.75.75,0,0,1,1075.6,3870.862Z" fill="#fff"/>
        <path id="Trazado_108834" data-name="Trazado 108834" d="M1220.253,3867.662a.5.5,0,0,1,0-.85,1.113,1.113,0,0,1,.68-.18h10.77a1.089,1.089,0,0,1,.67.18.548.548,0,0,1,.24.43.521.521,0,0,1-.24.42,1.092,1.092,0,0,1-.67.18h-10.77A1.123,1.123,0,0,1,1220.253,3867.662Z" fill="#fff"/>
        <path id="Trazado_108835" data-name="Trazado 108835" d="M1083.513,3872.992a.594.594,0,0,1-.17-.42.608.608,0,0,1,.17-.43.579.579,0,0,1,.45-.18h7.28a.541.541,0,0,1,.45.19.6.6,0,0,1,.17.42.6.6,0,0,1-.62.6h-7.28A.579.579,0,0,1,1083.513,3872.992Z" fill="#fff"/>
        <path id="Trazado_108836" data-name="Trazado 108836" d="M1079.323,3875.152a.522.522,0,0,1-.55.1c-.14-.08-.2-.26-.19-.52a2.269,2.269,0,0,1,.35-1l8-13.89a2,2,0,0,1,.66-.78.522.522,0,0,1,.55-.1c.14.08.2.26.18.52a2.257,2.257,0,0,1-.35,1l-8,13.89A2.311,2.311,0,0,1,1079.323,3875.152Z" fill="#fff"/>
        <path id="Trazado_108837" data-name="Trazado 108837" d="M1220.253,3804.152a.5.5,0,0,1,0-.85,1.113,1.113,0,0,1,.68-.18h10.77a1.089,1.089,0,0,1,.67.18.548.548,0,0,1,.24.43.521.521,0,0,1-.24.42,1.092,1.092,0,0,1-.67.18h-10.77A1.123,1.123,0,0,1,1220.253,3804.152Z" fill="#fff"/>
        <path id="Trazado_108838" data-name="Trazado 108838" d="M1112.083,3809.652a1.24,1.24,0,0,1-.41-.51l-3.66-8.21v8.54a.489.489,0,0,1-.21.42.96.96,0,0,1-1.03,0,.5.5,0,0,1-.22-.42v-9.32a1,1,0,0,1,.36-.76,1.32,1.32,0,0,1,1.58-.07,1.54,1.54,0,0,1,.56.7l3.56,7.91,3.54-7.88a1.473,1.473,0,0,1,.55-.7,1.319,1.319,0,0,1,1.58.07,1,1,0,0,1,.36.76v9.29a.469.469,0,0,1-.22.42.907.907,0,0,1-.51.15.852.852,0,0,1-.51-.15.472.472,0,0,1-.22-.42v-8.54l-3.63,8.22a1.222,1.222,0,0,1-.4.51.943.943,0,0,1-.54.18A.912.912,0,0,1,1112.083,3809.652Z" fill="#fff"/>
        <path id="Trazado_108839" data-name="Trazado 108839" d="M1121.733,3809.922a.679.679,0,0,1-.24-.56v-9.68a.7.7,0,0,1,.24-.54.77.77,0,0,1,.56-.23h3.4a8.431,8.431,0,0,1,1.18.07,5.281,5.281,0,0,1,1.08.25,2.977,2.977,0,0,1,.91.49,2.207,2.207,0,0,1,.6.82,2.767,2.767,0,0,1,.23,1.19,2.386,2.386,0,0,1-.59,1.65,3,3,0,0,1-1.77.91h0a2.569,2.569,0,0,1,2.08,2.52l.28,2.46a.34.34,0,0,1,0,.11.641.641,0,0,1-.22.51.752.752,0,0,1-.52.2.911.911,0,0,1-.57-.19.673.673,0,0,1-.29-.52l-.24-2.19a7.463,7.463,0,0,0-.19-1.11,1.49,1.49,0,0,0-.36-.67,1.188,1.188,0,0,0-.61-.36,4.421,4.421,0,0,0-1-.09h-2.62v4.37a.679.679,0,0,1-.24.56.872.872,0,0,1-.56.2A.811.811,0,0,1,1121.733,3809.922Zm3.63-6.14h.83a4.248,4.248,0,0,0,.74-.16,1.815,1.815,0,0,0,.62-.32,1.526,1.526,0,0,0,.4-.55,1.989,1.989,0,0,0,.16-.83,2.052,2.052,0,0,0-.11-.69,1.074,1.074,0,0,0-.31-.48,1.95,1.95,0,0,0-.42-.3,1.882,1.882,0,0,0-.55-.16l-.57-.14h-3.08v3.61Z" fill="#fff"/>
        <path id="Trazado_108840" data-name="Trazado 108840" d="M1148.753,3809.652a1.159,1.159,0,0,1-.41-.51l-3.66-8.21v8.54a.469.469,0,0,1-.22.42.848.848,0,0,1-.51.15.907.907,0,0,1-.51-.15.472.472,0,0,1-.22-.42v-9.32a1,1,0,0,1,.36-.76,1.248,1.248,0,0,1,.83-.3,1.318,1.318,0,0,1,.75.23,1.54,1.54,0,0,1,.56.7l3.56,7.91,3.56-7.91a1.536,1.536,0,0,1,.55-.7,1.321,1.321,0,0,1,.76-.17,1.269,1.269,0,0,1,.84.3,1,1,0,0,1,.36.76v9.29a.5.5,0,0,1-.22.42.96.96,0,0,1-1.03,0,.49.49,0,0,1-.21-.42v-8.54l-3.67,8.19a1.16,1.16,0,0,1-.41.51.87.87,0,0,1-1.06,0Z" fill="#fff"/>
        <path id="Trazado_108841" data-name="Trazado 108841" d="M1157.253,3806.372a.474.474,0,0,1-.17-.38.511.511,0,0,1,.17-.4.652.652,0,0,1,.46-.16h3.49a.611.611,0,0,1,.45.16.487.487,0,0,1,.18.4.449.449,0,0,1-.18.38.679.679,0,0,1-.45.15h-3.49A.69.69,0,0,1,1157.253,3806.372Z" fill="#fff"/>
        <path id="Trazado_108842" data-name="Trazado 108842" d="M1185.413,3809.652a1.241,1.241,0,0,1-.41-.51l-3.65-8.21v8.54a.47.47,0,0,1-.22.42.94.94,0,0,1-1,0,.472.472,0,0,1-.22-.42v-9.32a1,1,0,0,1,.36-.76,1.232,1.232,0,0,1,.83-.3,1.269,1.269,0,0,1,.74.23,1.477,1.477,0,0,1,.56.7l3.57,7.91,3.56-7.91a1.535,1.535,0,0,1,.55-.7,1.319,1.319,0,0,1,1.58.07,1,1,0,0,1,.36.76v9.29a.469.469,0,0,1-.22.42.837.837,0,0,1-.5.15.891.891,0,0,1-.52-.15.5.5,0,0,1-.22-.42v-8.54l-3.67,8.25a1.232,1.232,0,0,1-.41.51.913.913,0,0,1-.53.18A.945.945,0,0,1,1185.413,3809.652Z" fill="#fff"/>
        <path id="Trazado_108843" data-name="Trazado 108843" d="M1198.253,3809.922a.574.574,0,0,1-.16-.42v-2.72h-2.83a.653.653,0,0,1-.44-.16.521.521,0,0,1-.18-.4.512.512,0,0,1,.18-.41.647.647,0,0,1,.44-.15h2.83v-2.74a.6.6,0,0,1,.16-.43.538.538,0,0,1,.42-.17.529.529,0,0,1,.41.17.609.609,0,0,1,.17.43v2.74h2.83a.692.692,0,0,1,.44.15.509.509,0,0,1,.18.41.52.52,0,0,1-.18.4.628.628,0,0,1-.44.16h-2.83v2.72a.6.6,0,0,1-.17.42.57.57,0,0,1-.41.17A.511.511,0,0,1,1198.253,3809.922Z" fill="#fff"/>
        <path id="Trazado_108844" data-name="Trazado 108844" d="M1184.653,3773.152l4.5,6,5-9h5" fill="none" stroke="#fff" stroke-miterlimit="10" stroke-width="1"/>
      </g>
    </g>
  </g>
</svg>
