<svg xmlns="http://www.w3.org/2000/svg" width="383.323" height="381.102" viewBox="0 0 383.323 381.102">
  <g id="Grupo_61950" data-name="Grupo 61950" transform="translate(-9431.342 -6659.961)">
    <g id="freepik--background-simple--inject-2" transform="translate(9431.342 6671.461)">
      <path id="Trazado_108845" data-name="Trazado 108845" d="M9792.486,6974.858c18.988-26.686,24.489-63.687,21.351-95.072-1.553-15.552-4.593-31.856-13.776-44.889-13.38-19-35.465-28.974-52.3-44.311-24.777-22.564-35.259-55.51-56.336-80.941-27.513-33.128-70.856-37.315-111.41-35.358-30.476,1.5-79.471,2.073-86.639,40.313-7.434,39.645,6.607,76.812-23.126,95.808s-45.427,58.641-36.341,92.5c7.664,28.561,44.4,33.615,52.033,62.771,9.085,34.689,61.944,80.941,113.152,77.637s80.94-37.167,102.414-35.515c24.886,1.908,51.4,1.833,72.318-13.719A85.827,85.827,0,0,0,9792.486,6974.858Z" transform="translate(-9431.342 -6673.885)" fill="#d9a171"/>
      <path id="Trazado_108846" data-name="Trazado 108846" d="M9792.486,6974.858c18.988-26.686,24.489-63.687,21.351-95.072-1.553-15.552-4.593-31.856-13.776-44.889-13.38-19-35.465-28.974-52.3-44.311-24.777-22.564-35.259-55.51-56.336-80.941-27.513-33.128-70.856-37.315-111.41-35.358-30.476,1.5-79.471,2.073-86.639,40.313-7.434,39.645,6.607,76.812-23.126,95.808s-45.427,58.641-36.341,92.5c7.664,28.561,44.4,33.615,52.033,62.771,9.085,34.689,61.944,80.941,113.152,77.637s80.94-37.167,102.414-35.515c24.886,1.908,51.4,1.833,72.318-13.719A85.827,85.827,0,0,0,9792.486,6974.858Z" transform="translate(-9431.342 -6673.885)" fill="#aed3f2" opacity="0.7" style="isolation: isolate"/>
    </g>
    <g id="freepik--Plant--inject-2" transform="translate(9657.848 6734.815)">
      <path id="Trazado_108847" data-name="Trazado 108847" d="M9819.712,6768.835s-15.768-8.764-16.932,11.092-4.088,148.882-4.088,148.882" transform="translate(-9721.793 -6753.432)" fill="none" stroke="#263238" stroke-linecap="round" stroke-linejoin="round" stroke-width="2"/>
      <path id="Trazado_108848" data-name="Trazado 108848" d="M9793.732,6784.791s12.859,28.61,7.021,145.363" transform="translate(-9720.93 -6756.544)" fill="none" stroke="#263238" stroke-linecap="round" stroke-linejoin="round" stroke-width="2"/>
      <path id="Trazado_108849" data-name="Trazado 108849" d="M9799.327,6770.336s-6.03,3.866-9.457-.553,2.32-12.521-2.751-15.99-13.826,1.825-13.826,1.825,6.748,1.982,6.525,5.658-3.461,5.071-3.89,3.46-3.651-9.7-9.128-6.335a13.591,13.591,0,0,0-6.31,8.59s12.761-1.355,13.513,3.436-5.22-.826-10.481-1.148-10.043.463-9.705,3.651a41.53,41.53,0,0,1-.5,8.408s4.452-3.956,10.233-3.617,5.566,4.022.306,3.716-9.771,4.683-9.771,4.683,4.79,8.193,10.885,12.24,8.26,2.6,9-.521-.925-11.133,2.75-10.919-6.087,13.884-1.388,14.686,8.466-.553,9.705-3.643l1.238-3.089s-1.651-8.011-.925-11.133,1.577.091,2.412,3.833,1.354,12.744,2.965,12.306,6.74-6.987,7.946-9.548-6.766-10.423-6.674-12,6.243,1.421,7.2,3.064a40.569,40.569,0,0,1,1.883,3.8s3.84-2.412,3.75-9.795S9799.327,6770.336,9799.327,6770.336Z" transform="translate(-9713.896 -6750.943)" fill="#d9a171"/>
      <path id="Trazado_108850" data-name="Trazado 108850" d="M9799.327,6770.336s-6.03,3.866-9.457-.553,2.32-12.521-2.751-15.99-13.826,1.825-13.826,1.825,6.748,1.982,6.525,5.658-3.461,5.071-3.89,3.46-3.651-9.7-9.128-6.335a13.591,13.591,0,0,0-6.31,8.59s12.761-1.355,13.513,3.436-5.22-.826-10.481-1.148-10.043.463-9.705,3.651a41.53,41.53,0,0,1-.5,8.408s4.452-3.956,10.233-3.617,5.566,4.022.306,3.716-9.771,4.683-9.771,4.683,4.79,8.193,10.885,12.24,8.26,2.6,9-.521-.925-11.133,2.75-10.919-6.087,13.884-1.388,14.686,8.466-.553,9.705-3.643l1.238-3.089s-1.651-8.011-.925-11.133,1.577.091,2.412,3.833,1.354,12.744,2.965,12.306,6.74-6.987,7.946-9.548-6.766-10.423-6.674-12,6.243,1.421,7.2,3.064a40.569,40.569,0,0,1,1.883,3.8s3.84-2.412,3.75-9.795S9799.327,6770.336,9799.327,6770.336Z" transform="translate(-9713.896 -6750.943)" fill="#344154" opacity="0.3" style="isolation: isolate"/>
      <path id="Trazado_108851" data-name="Trazado 108851" d="M9772.012,6791.979c3.933-4.856,9.73-11.438,14.586-14.577" transform="translate(-9717.148 -6755.259)" fill="none" stroke="#263238" stroke-linecap="round" stroke-linejoin="round" stroke-width="1"/>
      <path id="Trazado_108852" data-name="Trazado 108852" d="M9766.452,6801.441s1.008-1.4,2.644-3.51" transform="translate(-9716.181 -6758.833)" fill="none" stroke="#263238" stroke-linecap="round" stroke-linejoin="round" stroke-width="1"/>
      <path id="Trazado_108853" data-name="Trazado 108853" d="M9792.772,6778.861s5.847,8.259,6.93,16.767" transform="translate(-9720.763 -6755.512)" fill="none" stroke="#263238" stroke-linecap="round" stroke-linejoin="round" stroke-width="1"/>
      <path id="Trazado_108854" data-name="Trazado 108854" d="M9784.762,6784.776s1.652-.958,1.024,9.556" transform="translate(-9719.368 -6756.538)" fill="none" stroke="#263238" stroke-linecap="round" stroke-linejoin="round" stroke-width="1"/>
      <path id="Trazado_108855" data-name="Trazado 108855" d="M9789.932,6771.08s3.3-2.965,1.578-8.878" transform="translate(-9720.269 -6752.613)" fill="none" stroke="#263238" stroke-linecap="round" stroke-linejoin="round" stroke-width="1"/>
      <line id="Línea_323" data-name="Línea 323" x1="2.379" y1="4.361" transform="translate(62.767 19.112)" fill="none" stroke="#263238" stroke-linecap="round" stroke-linejoin="round" stroke-width="1"/>
      <path id="Trazado_108856" data-name="Trazado 108856" d="M9775.858,6783.137s-7.573-5.723-12.307-6" transform="translate(-9715.676 -6755.213)" fill="none" stroke="#263238" stroke-linecap="round" stroke-linejoin="round" stroke-width="1"/>
      <path id="Trazado_108857" data-name="Trazado 108857" d="M9827.848,6754.382s-.239,8.672-7,9.085-10.952-10.861-17.881-8.144-7.591,15.082-7.591,15.082,6.607-5.4,10.109-2.676,2.718,6.93.826,6.261-12.207-2.965-12.562,4.815a16.444,16.444,0,0,0,4.3,12.174s7.325-13.686,12.645-11.192-4.394,4.667-8.259,9.713-6.385,10.382-2.966,12.207,8.086,6.228,8.086,6.228-.925-7.153,3.354-12.711,7.821-2.824,3.923,2.222-1.957,12.984-1.957,12.984,11.472.826,19.682-2.544,8.26-6.525,5.608-9.366-11.777-6.657-9.085-10.2,9.745,15.569,13.751,11.406,5.22-8.854,2.974-12.208l-2.255-3.3s-9.135-3.815-11.777-6.656,1.172-1.52,5.483.2,13.678,7.326,14.347,5.418-2.4-11.514-4.13-14.47-15.048-.322-16.567-1.487,5.682-5.286,7.979-5.129a49.5,49.5,0,0,1,5.1.7s.2-5.476-7.269-10.423S9827.848,6754.382,9827.848,6754.382Z" transform="translate(-9720.927 -6750.592)" fill="#d9a171"/>
      <path id="Trazado_108858" data-name="Trazado 108858" d="M9827.848,6754.382s-.239,8.672-7,9.085-10.952-10.861-17.881-8.144-7.591,15.082-7.591,15.082,6.607-5.4,10.109-2.676,2.718,6.93.826,6.261-12.207-2.965-12.562,4.815a16.444,16.444,0,0,0,4.3,12.174s7.325-13.686,12.645-11.192-4.394,4.667-8.259,9.713-6.385,10.382-2.966,12.207,8.086,6.228,8.086,6.228-.925-7.153,3.354-12.711,7.821-2.824,3.923,2.222-1.957,12.984-1.957,12.984,11.472.826,19.682-2.544,8.26-6.525,5.608-9.366-11.777-6.657-9.085-10.2,9.745,15.569,13.751,11.406,5.22-8.854,2.974-12.208l-2.255-3.3s-9.135-3.815-11.777-6.656,1.172-1.52,5.483.2,13.678,7.326,14.347,5.418-2.4-11.514-4.13-14.47-15.048-.322-16.567-1.487,5.682-5.286,7.979-5.129a49.5,49.5,0,0,1,5.1.7s.2-5.476-7.269-10.423S9827.848,6754.382,9827.848,6754.382Z" transform="translate(-9720.927 -6750.592)" fill="#344154" opacity="0.2" style="isolation: isolate"/>
      <path id="Trazado_108859" data-name="Trazado 108859" d="M9829.839,6801.4c-2.188-7.251-4.823-17.535-4.658-24.539" transform="translate(-9726.402 -6755.164)" fill="none" stroke="#263238" stroke-linecap="round" stroke-linejoin="round" stroke-width="1"/>
      <path id="Trazado_108860" data-name="Trazado 108860" d="M9833.872,6815.919s-.719-1.965-1.71-5.038" transform="translate(-9727.619 -6761.086)" fill="none" stroke="#263238" stroke-linecap="round" stroke-linejoin="round" stroke-width="1"/>
      <path id="Trazado_108861" data-name="Trazado 108861" d="M9828.762,6774.741s12.249-.215,21.475,4.493" transform="translate(-9727.027 -6754.795)" fill="none" stroke="#263238" stroke-linecap="round" stroke-linejoin="round" stroke-width="1"/>
      <path id="Trazado_108862" data-name="Trazado 108862" d="M9829.222,6786.734s.157-2.3,10.267,5.493" transform="translate(-9727.107 -6756.828)" fill="none" stroke="#263238" stroke-linecap="round" stroke-linejoin="round" stroke-width="1"/>
      <path id="Trazado_108863" data-name="Trazado 108863" d="M9819.258,6771.953s-.7-5.369-7.806-7.632" transform="translate(-9724.015 -6752.982)" fill="none" stroke="#263238" stroke-linecap="round" stroke-linejoin="round" stroke-width="1"/>
      <line id="Línea_324" data-name="Línea 324" x1="5.988" y1="0.595" transform="translate(91.196 26.314)" fill="none" stroke="#263238" stroke-linecap="round" stroke-linejoin="round" stroke-width="1"/>
      <path id="Trazado_108864" data-name="Trazado 108864" d="M9821.478,6792.911s-10.894,3.684-14.4,8.259" transform="translate(-9723.254 -6757.958)" fill="none" stroke="#263238" stroke-linecap="round" stroke-linejoin="round" stroke-width="1"/>
      <path id="Trazado_108865" data-name="Trazado 108865" d="M9747.092,6825.081s34.45,22.771,33.863,110.931" transform="translate(-9712.811 -6763.558)" fill="none" stroke="#263238" stroke-linecap="round" stroke-linejoin="round" stroke-width="2"/>
      <path id="Trazado_108866" data-name="Trazado 108866" d="M9789.686,6816.948s-1.1,9.986-8.945,9.829-11.612-13.562-19.863-11.084-10.184,16.684-10.184,16.684,8.094-5.608,11.919-2.131,2.478,8.259.347,7.3-13.793-4.592-14.95,4.361a19,19,0,0,0,3.816,14.461s9.737-15.1,15.651-11.72-5.517,4.956-10.489,10.432-8.351,11.365-4.576,13.8,8.738,7.954,8.738,7.954-.421-8.366,5.071-14.354,9.292-2.527,4.32,2.932-3.478,14.8-3.478,14.8,13.157,1.991,22.944-1.082,10.134-6.748,7.351-10.282-12.959-8.8-9.474-12.612,9.771,18.873,14.793,14.454,6.854-9.73,4.575-13.8l-2.288-4.072s-10.175-5.269-12.958-8.8,1.494-1.652,6.31.751,15.1,9.738,16.039,7.607-1.651-13.512-3.419-17.088-17.344-1.792-19-3.3,7.054-5.559,9.688-5.162a58.228,58.228,0,0,1,5.782,1.3s.751-6.31-7.392-12.719S9789.686,6816.948,9789.686,6816.948Z" transform="translate(-9712.936 -6761.438)" fill="#d9a171"/>
      <path id="Trazado_108867" data-name="Trazado 108867" d="M9789.686,6816.948s-1.1,9.986-8.945,9.829-11.612-13.562-19.863-11.084-10.184,16.684-10.184,16.684,8.094-5.608,11.919-2.131,2.478,8.259.347,7.3-13.793-4.592-14.95,4.361a19,19,0,0,0,3.816,14.461s9.737-15.1,15.651-11.72-5.517,4.956-10.489,10.432-8.351,11.365-4.576,13.8,8.738,7.954,8.738,7.954-.421-8.366,5.071-14.354,9.292-2.527,4.32,2.932-3.478,14.8-3.478,14.8,13.157,1.991,22.944-1.082,10.134-6.748,7.351-10.282-12.959-8.8-9.474-12.612,9.771,18.873,14.793,14.454,6.854-9.73,4.575-13.8l-2.288-4.072s-10.175-5.269-12.958-8.8,1.494-1.652,6.31.751,15.1,9.738,16.039,7.607-1.651-13.512-3.419-17.088-17.344-1.792-19-3.3,7.054-5.559,9.688-5.162a58.228,58.228,0,0,1,5.782,1.3s.751-6.31-7.392-12.719S9789.686,6816.948,9789.686,6816.948Z" transform="translate(-9712.936 -6761.438)" fill="#344154" opacity="0.3" style="isolation: isolate"/>
      <path id="Trazado_108868" data-name="Trazado 108868" d="M9788.106,6870.6c-1.843-8.573-3.907-20.648-3.056-28.75" transform="translate(-9719.385 -6766.477)" fill="none" stroke="#263238" stroke-linecap="round" stroke-linejoin="round" stroke-width="1"/>
      <path id="Trazado_108869" data-name="Trazado 108869" d="M9791.438,6887.741s-.645-2.337-1.5-5.979" transform="translate(-9720.271 -6773.424)" fill="none" stroke="#263238" stroke-linecap="round" stroke-linejoin="round" stroke-width="1"/>
      <path id="Trazado_108870" data-name="Trazado 108870" d="M9789.452,6839.741s14.156.9,24.381,7.219" transform="translate(-9720.185 -6766.11)" fill="none" stroke="#263238" stroke-linecap="round" stroke-linejoin="round" stroke-width="1"/>
      <path id="Trazado_108871" data-name="Trazado 108871" d="M9788.812,6853.635s.405-2.635,11.324,7.3" transform="translate(-9720.073 -6768.474)" fill="none" stroke="#263238" stroke-linecap="round" stroke-linejoin="round" stroke-width="1"/>
      <path id="Trazado_108872" data-name="Trazado 108872" d="M9778.712,6835.631s-.29-6.261-8.26-9.54" transform="translate(-9716.877 -6763.734)" fill="none" stroke="#263238" stroke-linecap="round" stroke-linejoin="round" stroke-width="1"/>
      <line id="Línea_325" data-name="Línea 325" x1="6.855" y1="1.247" transform="translate(56.474 79.982)" fill="none" stroke="#263238" stroke-linecap="round" stroke-linejoin="round" stroke-width="1"/>
      <path id="Trazado_108873" data-name="Trazado 108873" d="M9779.138,6860.311s-12.917,3.2-17.386,8.152" transform="translate(-9715.363 -6769.69)" fill="none" stroke="#263238" stroke-linecap="round" stroke-linejoin="round" stroke-width="1"/>
      <path id="Trazado_108874" data-name="Trazado 108874" d="M9763.352,6900.323s22.185,16.932,24.522,42.04l-4.675-84.071" transform="translate(-9715.642 -6769.339)" fill="none" stroke="#263238" stroke-linecap="round" stroke-linejoin="round" stroke-width="2"/>
      <path id="Trazado_108875" data-name="Trazado 108875" d="M9796.688,6933.428s-16.932-123.187,32.111-123.187" transform="translate(-9720.952 -6760.975)" fill="none" stroke="#263238" stroke-linecap="round" stroke-linejoin="round" stroke-width="2"/>
      <path id="Trazado_108876" data-name="Trazado 108876" d="M9859.332,6829.358c-5.427-3.213-11.423-3.3-14.362-6.673s2.832-5.1,5.922-3.816,10.249,4.956,11.6,5.781.421-10.927-2.1-15.346-9.4-6.987-12.835-3.378c-7.252,7.615-18.559-2.371-17.782-8.317s-4.782-12.389-16.708-8.606-7.483,5.839-7.483,5.839,8.474,5.187,13.9,8.4,14.412,5.963,12.488,8.3-7.136.909-11.481-2.577-16.848-11.8-18.112-8.714-5.781,11.563-5.781,11.563a126.825,126.825,0,0,1,16.346,3.626c7.26,2.28,8.746,6.269,3.072,6.607s-15.974-3.948-19.187,1.479-1.007,19.36-1.007,19.36,10.389-7.045,15.692-7.021,1.907,2.965-4.015,6.781a81.5,81.5,0,0,0-7.434,5.129l5.4,13.859s8.911-1.14,12.43-.892l3.519.248s0-14.487,4.129-18.781,4.907,5.641,5.782,8.177-1.768,10.125-1.768,10.125,10.291-5.633,13.628-7.871l3.3-2.238s-3.849-10.522-6.467-13.528-6.178-2.561-3.164-5.17,7.5-1.239,10.068,2.478a80.422,80.422,0,0,1,5.633,10.936s3.841.62,8.838-5.03S9864.767,6832.563,9859.332,6829.358Zm-47.169,15.949c-3.989-1.991,5.525-5.971,5.525-5.971C9821.133,6838.831,9816.152,6847.305,9812.163,6845.307Zm6.715-18.608c-1.7-.826,3.4-2.544,3.4-2.544C9829.64,6825.567,9820.579,6827.549,9818.878,6826.7Z" transform="translate(-9721.167 -6757.082)" fill="#d9a171"/>
      <path id="Trazado_108877" data-name="Trazado 108877" d="M9814.959,6869.711q-1.547,1.652-3.2,3.188" transform="translate(-9724.068 -6771.327)" fill="none" stroke="#263238" stroke-linecap="round" stroke-linejoin="round" stroke-width="1"/>
      <path id="Trazado_108878" data-name="Trazado 108878" d="M9836.833,6832.182a132,132,0,0,1-17.171,27.33" transform="translate(-9725.443 -6764.794)" fill="none" stroke="#263238" stroke-linecap="round" stroke-linejoin="round" stroke-width="1"/>
      <path id="Trazado_108879" data-name="Trazado 108879" d="M9842.632,6825.462c2.4-5.344,3.618-8.871,3.618-8.871s4.452,2.081,8.763.975a16.646,16.646,0,0,1,7.788-.157" transform="translate(-9729.442 -6762.081)" fill="none" stroke="#263238" stroke-linecap="round" stroke-linejoin="round" stroke-width="1"/>
      <path id="Trazado_108880" data-name="Trazado 108880" d="M9833.951,6823.722c1.131-.975-16.279-9.631-16.279-9.631" transform="translate(-9725.097 -6761.645)" fill="none" stroke="#263238" stroke-linecap="round" stroke-linejoin="round" stroke-width="1"/>
      <path id="Trazado_108881" data-name="Trazado 108881" d="M9848.452,6832.1s8.26,3.4,12.818,8.672" transform="translate(-9730.455 -6764.78)" fill="none" stroke="#263238" stroke-linecap="round" stroke-linejoin="round" stroke-width="1"/>
      <path id="Trazado_108882" data-name="Trazado 108882" d="M9829.572,6838.657a69.008,69.008,0,0,0-13.355-.941,42.864,42.864,0,0,0-13.215,2.246" transform="translate(-9722.543 -6765.753)" fill="none" stroke="#263238" stroke-linecap="round" stroke-linejoin="round" stroke-width="1"/>
      <path id="Trazado_108883" data-name="Trazado 108883" d="M9837.7,6845.451s9.125,5.946,8.952,13.355" transform="translate(-9728.585 -6767.104)" fill="none" stroke="#263238" stroke-linecap="round" stroke-linejoin="round" stroke-width="1"/>
      <path id="Trazado_108884" data-name="Trazado 108884" d="M9748.5,6818.722s-5.483,3.989-8.978,0,1.47-11.959-3.485-14.949-12.959,2.478-12.959,2.478,6.475,1.495,6.475,4.956-2.989,4.956-3.485,3.494-3.989-8.978-8.969-5.484a12.807,12.807,0,0,0-5.484,8.474s11.96-2,12.959,2.478-4.955-.5-9.969-.5-9.474,1-8.979,3.99a38.817,38.817,0,0,1,0,7.97s3.989-3.98,9.474-3.98,5.484,3.485.5,3.485-8.971,4.956-8.971,4.956,4.956,7.475,10.969,10.96,7.971,2,8.474-.991-1.494-10.473,1.991-10.473-4.956,13.462-.5,13.958,7.97-1,8.969-3.989l1-2.99s-2-7.433-1.494-10.464,1.494,0,2.478,3.485,1.991,11.968,3.485,11.463,5.979-6.979,6.979-9.465-6.979-9.473-6.979-10.968,5.979,1,6.979,2.478a37.843,37.843,0,0,1,1.99,3.485s3.493-2.478,2.99-9.473S9748.5,6818.722,9748.5,6818.722Z" transform="translate(-9705.586 -6759.693)" fill="#d9a171"/>
      <path id="Trazado_108885" data-name="Trazado 108885" d="M9723.732,6840.877c3.444-4.815,8.557-11.349,12.967-14.586" transform="translate(-9708.745 -6763.769)" fill="none" stroke="#263238" stroke-linecap="round" stroke-linejoin="round" stroke-width="1"/>
      <path id="Trazado_108886" data-name="Trazado 108886" d="M9718.912,6850.3s.875-1.379,2.3-3.461" transform="translate(-9707.905 -6767.346)" fill="none" stroke="#263238" stroke-linecap="round" stroke-linejoin="round" stroke-width="1"/>
      <path id="Trazado_108887" data-name="Trazado 108887" d="M9742.452,6827.492s5.979,7.482,7.475,15.453" transform="translate(-9712.003 -6763.978)" fill="none" stroke="#263238" stroke-linecap="round" stroke-linejoin="round" stroke-width="1"/>
      <path id="Trazado_108888" data-name="Trazado 108888" d="M9735.213,6833.525s1.494-1,1.494,8.97" transform="translate(-9710.744 -6765.023)" fill="none" stroke="#263238" stroke-linecap="round" stroke-linejoin="round" stroke-width="1"/>
      <path id="Trazado_108889" data-name="Trazado 108889" d="M9739.452,6820.275s2.99-2.99,1-8.474" transform="translate(-9711.481 -6761.246)" fill="none" stroke="#263238" stroke-linecap="round" stroke-linejoin="round" stroke-width="1"/>
      <line id="Línea_326" data-name="Línea 326" x1="2.486" y1="3.989" transform="translate(21.479 60.028)" fill="none" stroke="#263238" stroke-linecap="round" stroke-linejoin="round" stroke-width="1"/>
      <path id="Trazado_108890" data-name="Trazado 108890" d="M9726.651,6832.486s-7.475-4.956-11.959-4.956" transform="translate(-9707.171 -6763.984)" fill="none" stroke="#263238" stroke-linecap="round" stroke-linejoin="round" stroke-width="1"/>
      <path id="Trazado_108891" data-name="Trazado 108891" d="M9763.752,6897.676s15.767-8.755,16.932,11.092c.727,12.265,2.114,66.206,3.072,105.644" transform="translate(-9715.711 -6775.86)" fill="none" stroke="#263238" stroke-linecap="round" stroke-linejoin="round" stroke-width="2"/>
      <path id="Trazado_108892" data-name="Trazado 108892" d="M9792.373,6913.631s-9.68,21.606-8.425,103.885" transform="translate(-9719.207 -6778.973)" fill="none" stroke="#263238" stroke-linecap="round" stroke-linejoin="round" stroke-width="2"/>
      <path id="Trazado_108893" data-name="Trazado 108893" d="M9777.706,6899.187s6.028,3.865,9.465-.553-2.32-12.529,2.75-15.99,13.817,1.826,13.817,1.826-6.738,1.974-6.524,5.657,3.47,5.071,3.9,3.461,3.643-9.713,9.085-6.343a13.548,13.548,0,0,1,6.31,8.6s-12.735-1.355-13.512,3.436,5.229-.826,10.481-1.148,10.051.462,9.713,3.65a41.533,41.533,0,0,0,.5,8.408s-4.451-3.956-10.232-3.618-5.567,4.022-.313,3.708,9.77,4.7,9.77,4.7-4.79,8.193-10.877,12.249-8.26,2.594-9-.528.934-11.125-2.75-10.911,6.095,13.884,1.4,14.685-8.474-.554-9.713-3.642l-1.239-3.1s1.652-8,.934-11.125-1.578.09-2.412,3.832-1.362,12.736-2.973,12.307-6.739-6.987-7.945-9.556,6.772-10.423,6.682-11.992-6.253,1.42-7.21,3.056a40.9,40.9,0,0,0-1.884,3.808s-3.832-2.412-3.741-9.8S9777.706,6899.187,9777.706,6899.187Z" transform="translate(-9717.177 -6773.374)" fill="#d9a171"/>
      <path id="Trazado_108894" data-name="Trazado 108894" d="M9777.706,6899.187s6.028,3.865,9.465-.553-2.32-12.529,2.75-15.99,13.817,1.826,13.817,1.826-6.738,1.974-6.524,5.657,3.47,5.071,3.9,3.461,3.643-9.713,9.085-6.343a13.548,13.548,0,0,1,6.31,8.6s-12.735-1.355-13.512,3.436,5.229-.826,10.481-1.148,10.051.462,9.713,3.65a41.533,41.533,0,0,0,.5,8.408s-4.451-3.956-10.232-3.618-5.567,4.022-.313,3.708,9.77,4.7,9.77,4.7-4.79,8.193-10.877,12.249-8.26,2.594-9-.528.934-11.125-2.75-10.911,6.095,13.884,1.4,14.685-8.474-.554-9.713-3.642l-1.239-3.1s1.652-8,.934-11.125-1.578.09-2.412,3.832-1.362,12.736-2.973,12.307-6.739-6.987-7.945-9.556,6.772-10.423,6.682-11.992-6.253,1.42-7.21,3.056a40.9,40.9,0,0,0-1.884,3.808s-3.832-2.412-3.741-9.8S9777.706,6899.187,9777.706,6899.187Z" transform="translate(-9717.177 -6773.374)" fill="#344154" opacity="0.3" style="isolation: isolate"/>
      <path id="Trazado_108895" data-name="Trazado 108895" d="M9812.81,6920.829c-3.932-4.864-9.721-11.439-14.577-14.577" transform="translate(-9721.713 -6777.688)" fill="none" stroke="#263238" stroke-linecap="round" stroke-linejoin="round" stroke-width="1"/>
      <path id="Trazado_108896" data-name="Trazado 108896" d="M9820.9,6930.331s-1.008-1.4-2.644-3.51" transform="translate(-9725.198 -6781.268)" fill="none" stroke="#263238" stroke-linecap="round" stroke-linejoin="round" stroke-width="1"/>
      <path id="Trazado_108897" data-name="Trazado 108897" d="M9793.663,6907.711s-5.839,8.259-6.921,16.758" transform="translate(-9719.713 -6777.941)" fill="none" stroke="#263238" stroke-linecap="round" stroke-linejoin="round" stroke-width="1"/>
      <path id="Trazado_108898" data-name="Trazado 108898" d="M9802.888,6913.616s-1.652-.958-1.016,9.556" transform="translate(-9722.322 -6778.965)" fill="none" stroke="#263238" stroke-linecap="round" stroke-linejoin="round" stroke-width="1"/>
      <path id="Trazado_108899" data-name="Trazado 108899" d="M9797.524,6899.922s-3.3-2.965-1.577-8.871" transform="translate(-9721.229 -6775.042)" fill="none" stroke="#263238" stroke-linecap="round" stroke-linejoin="round" stroke-width="1"/>
      <line id="Línea_327" data-name="Línea 327" y1="4.361" x2="2.379" transform="translate(80.813 125.532)" fill="none" stroke="#263238" stroke-linecap="round" stroke-linejoin="round" stroke-width="1"/>
      <path id="Trazado_108900" data-name="Trazado 108900" d="M9809.5,6911.985s7.574-5.724,12.3-6" transform="translate(-9723.675 -6777.641)" fill="none" stroke="#263238" stroke-linecap="round" stroke-linejoin="round" stroke-width="1"/>
      <path id="Trazado_108901" data-name="Trazado 108901" d="M9747.831,6883.253s.24,8.672,7,9.085,10.959-10.861,17.881-8.144,7.6,15.081,7.6,15.081-6.607-5.4-10.109-2.676-2.717,6.921-.825,6.26,12.206-2.965,12.57,4.807a16.413,16.413,0,0,1-4.312,12.174s-7.318-13.677-12.646-11.183,4.4,4.659,8.26,9.713,6.459,10.407,3.007,12.215-8.078,6.228-8.078,6.228.925-7.152-3.361-12.711-7.813-2.833-3.924,2.222,1.958,12.984,1.958,12.984-11.472.784-19.674-2.544-8.26-6.525-5.608-9.366,11.77-6.666,9.044-10.2-9.745,15.561-13.751,11.406-5.187-8.862-2.966-12.216l2.247-3.345s9.135-3.815,11.777-6.657-1.164-1.52-5.483.2-13.678,7.318-14.339,5.418,2.4-11.513,4.13-14.47,15.048-.322,16.56-1.495-5.683-5.278-7.97-5.121a49.48,49.48,0,0,0-5.1.7s-.2-5.484,7.26-10.431S9747.831,6883.253,9747.831,6883.253Z" transform="translate(-9708.793 -6773.018)" fill="#d9a171"/>
      <path id="Trazado_108902" data-name="Trazado 108902" d="M9747.831,6883.253s.24,8.672,7,9.085,10.959-10.861,17.881-8.144,7.6,15.081,7.6,15.081-6.607-5.4-10.109-2.676-2.717,6.921-.825,6.26,12.206-2.965,12.57,4.807a16.413,16.413,0,0,1-4.312,12.174s-7.318-13.677-12.646-11.183,4.4,4.659,8.26,9.713,6.459,10.407,3.007,12.215-8.078,6.228-8.078,6.228.925-7.152-3.361-12.711-7.813-2.833-3.924,2.222,1.958,12.984,1.958,12.984-11.472.784-19.674-2.544-8.26-6.525-5.608-9.366,11.77-6.666,9.044-10.2-9.745,15.561-13.751,11.406-5.187-8.862-2.966-12.216l2.247-3.345s9.135-3.815,11.777-6.657-1.164-1.52-5.483.2-13.678,7.318-14.339,5.418,2.4-11.513,4.13-14.47,15.048-.322,16.56-1.495-5.683-5.278-7.97-5.121a49.48,49.48,0,0,0-5.1.7s-.2-5.484,7.26-10.431S9747.831,6883.253,9747.831,6883.253Z" transform="translate(-9708.793 -6773.018)" fill="#344154" opacity="0.2" style="isolation: isolate"/>
      <path id="Trazado_108903" data-name="Trazado 108903" d="M9757.072,6930.249c2.188-7.251,4.823-17.542,4.658-24.538" transform="translate(-9714.548 -6777.593)" fill="none" stroke="#263238" stroke-linecap="round" stroke-linejoin="round" stroke-width="1"/>
      <path id="Trazado_108904" data-name="Trazado 108904" d="M9753.662,6944.768s.719-1.974,1.71-5.046" transform="translate(-9713.955 -6783.514)" fill="none" stroke="#263238" stroke-linecap="round" stroke-linejoin="round" stroke-width="1"/>
      <path id="Trazado_108905" data-name="Trazado 108905" d="M9754.606,6903.591s-12.249-.223-21.475,4.493" transform="translate(-9710.381 -6777.225)" fill="none" stroke="#263238" stroke-linecap="round" stroke-linejoin="round" stroke-width="1"/>
      <path id="Trazado_108906" data-name="Trazado 108906" d="M9756.51,6915.575s-.156-2.288-10.258,5.492" transform="translate(-9712.665 -6779.256)" fill="none" stroke="#263238" stroke-linecap="round" stroke-linejoin="round" stroke-width="1"/>
      <path id="Trazado_108907" data-name="Trazado 108907" d="M9766.992,6900.8s.693-5.368,7.813-7.631" transform="translate(-9716.275 -6775.411)" fill="none" stroke="#263238" stroke-linecap="round" stroke-linejoin="round" stroke-width="1"/>
      <line id="Línea_328" data-name="Línea 328" y1="0.586" x2="5.988" transform="translate(48.785 132.734)" fill="none" stroke="#263238" stroke-linecap="round" stroke-linejoin="round" stroke-width="1"/>
      <path id="Trazado_108908" data-name="Trazado 108908" d="M9763.382,6921.761s10.895,3.684,14.4,8.259" transform="translate(-9715.646 -6780.387)" fill="none" stroke="#263238" stroke-linecap="round" stroke-linejoin="round" stroke-width="1"/>
      <path id="Trazado_108909" data-name="Trazado 108909" d="M9834.209,6953.932s-23.423,15.494-31.327,70.41" transform="translate(-9722.522 -6785.988)" fill="none" stroke="#263238" stroke-linecap="round" stroke-linejoin="round" stroke-width="2"/>
      <path id="Trazado_108910" data-name="Trazado 108910" d="M9784.14,6945.8s1.1,9.977,8.945,9.829,11.621-13.57,19.863-11.084,10.191,16.684,10.191,16.684-8.1-5.608-11.926-2.131-2.478,8.259-.339,7.3,13.8-4.576,14.949,4.361a19,19,0,0,1-3.815,14.454s-9.729-15.09-15.651-11.72,5.517,4.956,10.48,10.423,8.351,11.373,4.576,13.81-8.738,7.979-8.738,7.979.4-8.342-5.071-14.347-9.292-2.535-4.32,2.932,3.486,14.8,3.486,14.8-13.166,1.991-22.944-1.09-10.143-6.748-7.359-10.274,12.959-8.8,9.482-12.62-9.779,18.88-14.793,14.462-6.863-9.729-4.575-13.81l2.279-4.071s10.184-5.27,12.959-8.8-1.486-1.652-6.311.751-15.09,9.738-16.039,7.607,1.651-13.512,3.419-17.088,17.345-1.8,19-3.3-7.054-5.559-9.681-5.162a56.288,56.288,0,0,0-5.781,1.3s-.751-6.31,7.392-12.719S9784.14,6945.8,9784.14,6945.8Z" transform="translate(-9714.931 -6783.872)" fill="#d9a171"/>
      <path id="Trazado_108911" data-name="Trazado 108911" d="M9784.14,6945.8s1.1,9.977,8.945,9.829,11.621-13.57,19.863-11.084,10.191,16.684,10.191,16.684-8.1-5.608-11.926-2.131-2.478,8.259-.339,7.3,13.8-4.576,14.949,4.361a19,19,0,0,1-3.815,14.454s-9.729-15.09-15.651-11.72,5.517,4.956,10.48,10.423,8.351,11.373,4.576,13.81-8.738,7.979-8.738,7.979.4-8.342-5.071-14.347-9.292-2.535-4.32,2.932,3.486,14.8,3.486,14.8-13.166,1.991-22.944-1.09-10.143-6.748-7.359-10.274,12.959-8.8,9.482-12.62-9.779,18.88-14.793,14.462-6.863-9.729-4.575-13.81l2.279-4.071s10.184-5.27,12.959-8.8-1.486-1.652-6.311.751-15.09,9.738-16.039,7.607,1.651-13.512,3.419-17.088,17.345-1.8,19-3.3-7.054-5.559-9.681-5.162a56.288,56.288,0,0,0-5.781,1.3s-.751-6.31,7.392-12.719S9784.14,6945.8,9784.14,6945.8Z" transform="translate(-9714.931 -6783.872)" fill="#344154" opacity="0.3" style="isolation: isolate"/>
      <path id="Trazado_108912" data-name="Trazado 108912" d="M9799.1,6999.45c1.843-8.573,3.915-20.689,3.057-28.759" transform="translate(-9721.864 -6788.905)" fill="none" stroke="#263238" stroke-linecap="round" stroke-linejoin="round" stroke-width="1"/>
      <path id="Trazado_108913" data-name="Trazado 108913" d="M9796.152,7016.583s.644-2.337,1.5-5.972" transform="translate(-9721.352 -6795.854)" fill="none" stroke="#263238" stroke-linecap="round" stroke-linejoin="round" stroke-width="1"/>
      <path id="Trazado_108914" data-name="Trazado 108914" d="M9793.313,6968.591s-14.157.9-24.382,7.21" transform="translate(-9716.612 -6788.539)" fill="none" stroke="#263238" stroke-linecap="round" stroke-linejoin="round" stroke-width="1"/>
      <path id="Trazado_108915" data-name="Trazado 108915" d="M9796.7,6982.475s-.4-2.635-11.323,7.31" transform="translate(-9719.475 -6790.901)" fill="none" stroke="#263238" stroke-linecap="round" stroke-linejoin="round" stroke-width="1"/>
      <path id="Trazado_108916" data-name="Trazado 108916" d="M9807.452,6964.47s.3-6.26,8.26-9.539" transform="translate(-9723.318 -6786.161)" fill="none" stroke="#263238" stroke-linecap="round" stroke-linejoin="round" stroke-width="1"/>
      <line id="Línea_329" data-name="Línea 329" y1="1.247" x2="6.855" transform="translate(82.631 186.403)" fill="none" stroke="#263238" stroke-linecap="round" stroke-linejoin="round" stroke-width="1"/>
      <path id="Trazado_108917" data-name="Trazado 108917" d="M9805.1,6989.182s12.91,3.229,17.387,8.144" transform="translate(-9722.909 -6792.124)" fill="none" stroke="#263238" stroke-linecap="round" stroke-linejoin="round" stroke-width="1"/>
      <line id="Línea_330" data-name="Línea 330" y1="42.7" x2="2.37" transform="translate(76.031 195.381)" fill="none" stroke="#263238" stroke-linecap="round" stroke-linejoin="round" stroke-width="2"/>
      <path id="Trazado_108918" data-name="Trazado 108918" d="M9786.646,7021.955c.5-35.928-4.635-82.873-34.9-82.873" transform="translate(-9713.62 -6783.403)" fill="none" stroke="#263238" stroke-linecap="round" stroke-linejoin="round" stroke-width="2"/>
      <path id="Trazado_108919" data-name="Trazado 108919" d="M9713.971,6958.2c5.426-3.2,11.431-3.3,14.37-6.666s-2.832-5.1-5.922-3.824-10.25,4.956-11.611,5.781-.413-10.919,2.1-15.337,9.4-6.987,12.835-3.378c7.251,7.615,18.558-2.371,17.789-8.326s4.782-12.348,16.709-8.6,7.475,5.831,7.475,5.831-8.466,5.195-13.892,8.4-14.421,5.963-12.488,8.3,7.128.917,11.48-2.577,16.832-11.786,18.113-8.7,5.781,11.6,5.781,11.6a127.108,127.108,0,0,0-16.354,3.634c-7.26,2.28-8.746,6.269-3.072,6.607s15.981-3.956,19.188,1.47,1.015,19.36,1.015,19.36-10.39-7.037-15.692-7.012-1.907,2.957,4.015,6.781a83.149,83.149,0,0,1,7.434,5.129l-5.394,13.81s-8.912-1.14-12.39-.892l-3.518.248s0-14.487-4.13-18.79-4.9,5.649-5.781,8.185,1.775,10.118,1.775,10.118-10.291-5.633-13.628-7.871l-3.3-2.238s3.849-10.514,6.459-13.529,6.178-2.552,3.171-5.17-7.507-1.23-10.076,2.478-5.583,10.993-5.583,10.993-3.84.627-8.829-5.03S9708.544,6961.415,9713.971,6958.2Zm47.168,15.957c3.989-1.991-5.476-5.98-5.476-5.98-3.493-.5,1.494,7.97,5.476,5.98Zm-6.715-18.608c1.7-.826-3.395-2.552-3.395-2.552-7.367,1.42,1.7,3.4,3.395,2.552Z" transform="translate(-9706.177 -6779.513)" fill="#d9a171"/>
      <path id="Trazado_108920" data-name="Trazado 108920" d="M9772.262,6998.551q1.563,1.651,3.2,3.2" transform="translate(-9717.192 -6793.755)" fill="none" stroke="#263238" stroke-linecap="round" stroke-linejoin="round" stroke-width="1"/>
      <path id="Trazado_108921" data-name="Trazado 108921" d="M9747.5,6961a131.858,131.858,0,0,0,17.171,27.33" transform="translate(-9712.883 -6787.218)" fill="none" stroke="#263238" stroke-linecap="round" stroke-linejoin="round" stroke-width="1"/>
      <path id="Trazado_108922" data-name="Trazado 108922" d="M9741.013,6954.312c-2.387-5.344-3.617-8.871-3.617-8.871s-4.443,2.082-8.763.975a16.515,16.515,0,0,0-7.781-.157" transform="translate(-9708.243 -6784.509)" fill="none" stroke="#263238" stroke-linecap="round" stroke-linejoin="round" stroke-width="1"/>
      <path id="Trazado_108923" data-name="Trazado 108923" d="M9750.5,6952.572c-1.123-.983,16.278-9.63,16.278-9.63" transform="translate(-9713.396 -6784.075)" fill="none" stroke="#263238" stroke-linecap="round" stroke-linejoin="round" stroke-width="1"/>
      <path id="Trazado_108924" data-name="Trazado 108924" d="M9736.751,6960.941s-8.26,3.411-12.819,8.681" transform="translate(-9708.779 -6787.208)" fill="none" stroke="#263238" stroke-linecap="round" stroke-linejoin="round" stroke-width="1"/>
      <path id="Trazado_108925" data-name="Trazado 108925" d="M9752.722,6967.5a69.148,69.148,0,0,1,13.364-.941,42.917,42.917,0,0,1,13.215,2.246" transform="translate(-9713.791 -6788.181)" fill="none" stroke="#263238" stroke-linecap="round" stroke-linejoin="round" stroke-width="1"/>
      <path id="Trazado_108926" data-name="Trazado 108926" d="M9748.3,6974.3s-9.085,5.947-8.953,13.355" transform="translate(-9711.464 -6789.533)" fill="none" stroke="#263238" stroke-linecap="round" stroke-linejoin="round" stroke-width="1"/>
      <path id="Trazado_108927" data-name="Trazado 108927" d="M9829.2,6947.569s5.483,3.989,8.969,0-1.461-11.959,3.494-14.957,12.958,2.478,12.958,2.478-6.482,1.5-6.482,4.955,2.989,4.956,3.494,3.485,3.979-8.969,8.969-5.483a12.869,12.869,0,0,1,5.484,8.474s-11.968-1.99-12.959,2.478,4.955-.5,9.969-.5,9.466.991,8.97,3.98a39.464,39.464,0,0,0,0,7.979s-3.989-3.989-9.474-3.989-5.483,3.494-.5,3.494,8.969,4.955,8.969,4.955-4.955,7.434-10.959,10.969-7.979,1.99-8.474-1,1.494-10.465-2-10.465,4.956,13.454.5,13.958-7.979-1-8.978-3.989l-.991-2.989s1.99-7.393,1.5-10.4-1.5,0-2.478,3.493-2,11.96-3.494,11.464-5.979-6.979-6.971-9.474,6.971-9.465,6.971-10.96-5.979.991-6.971,2.478a38.133,38.133,0,0,0-2,3.494s-3.486-2.478-2.99-9.474S9829.2,6947.569,9829.2,6947.569Z" transform="translate(-9726.145 -6782.121)" fill="#d9a171"/>
      <path id="Trazado_108928" data-name="Trazado 108928" d="M9861.438,6969.725c-3.444-4.814-8.557-11.356-12.976-14.594" transform="translate(-9730.457 -6786.196)" fill="none" stroke="#263238" stroke-linecap="round" stroke-linejoin="round" stroke-width="1"/>
      <path id="Trazado_108929" data-name="Trazado 108929" d="M9868.5,6979.151s-.876-1.387-2.3-3.46" transform="translate(-9733.543 -6789.775)" fill="none" stroke="#263238" stroke-linecap="round" stroke-linejoin="round" stroke-width="1"/>
      <path id="Trazado_108930" data-name="Trazado 108930" d="M9843.875,6956.341s-5.988,7.434-7.483,15.453" transform="translate(-9728.355 -6786.407)" fill="none" stroke="#263238" stroke-linecap="round" stroke-linejoin="round" stroke-width="1"/>
      <path id="Trazado_108931" data-name="Trazado 108931" d="M9852.378,6962.375s-1.5-1-1.5,8.97" transform="translate(-9730.878 -6787.452)" fill="none" stroke="#263238" stroke-linecap="round" stroke-linejoin="round" stroke-width="1"/>
      <path id="Trazado_108932" data-name="Trazado 108932" d="M9848.1,6949.125s-2.99-2.99-.991-8.474" transform="translate(-9730.102 -6783.676)" fill="none" stroke="#263238" stroke-linecap="round" stroke-linejoin="round" stroke-width="1"/>
      <line id="Línea_331" data-name="Línea 331" y1="3.981" x2="2.494" transform="translate(121.994 166.448)" fill="none" stroke="#263238" stroke-linecap="round" stroke-linejoin="round" stroke-width="1"/>
      <path id="Trazado_108933" data-name="Trazado 108933" d="M9858.722,6961.336s7.483-4.956,11.968-4.956" transform="translate(-9732.243 -6786.414)" fill="none" stroke="#263238" stroke-linecap="round" stroke-linejoin="round" stroke-width="1"/>
    </g>
    <g id="freepik--Form--inject-2" transform="translate(9458.688 6659.961)">
      <rect id="Rectángulo_6984" data-name="Rectángulo 6984" width="183.356" height="241.451" transform="translate(5.781 6.607)" fill="#344154" opacity="0.2" style="isolation: isolate"/>
      <rect id="Rectángulo_6985" data-name="Rectángulo 6985" width="183.356" height="241.451" transform="translate(0)" fill="#fff"/>
      <path id="Trazado_108934" data-name="Trazado 108934" d="M9601.662,6741.84h-125.21V6713.7h162.477v28.139h-34.243" transform="translate(-9466.541 -6669.315)" fill="none" stroke="#263238" stroke-linecap="round" stroke-linejoin="round" stroke-width="1"/>
      <path id="Trazado_108935" data-name="Trazado 108935" d="M9486.595,6785.006h-10.143v-14.545h88.688" transform="translate(-9466.541 -6679.196)" fill="none" stroke="#263238" stroke-linecap="round" stroke-linejoin="round" stroke-width="1"/>
      <path id="Trazado_108936" data-name="Trazado 108936" d="M9571.706,6770.461h69.939v14.545H9492.062" transform="translate(-9469.258 -6679.196)" fill="none" stroke="#263238" stroke-linecap="round" stroke-linejoin="round" stroke-width="1"/>
      <path id="Trazado_108937" data-name="Trazado 108937" d="M9613.473,6820.646H9476.452V6806.1h162.477v14.545H9616.5" transform="translate(-9466.541 -6685.4)" fill="none" stroke="#263238" stroke-linecap="round" stroke-linejoin="round" stroke-width="1"/>
      <path id="Trazado_108938" data-name="Trazado 108938" d="M9518.458,6914.61h-42.006v-74.069h162.477v74.069H9522.572" transform="translate(-9466.541 -6691.395)" fill="none" stroke="#263238" stroke-linecap="round" stroke-linejoin="round" stroke-width="1"/>
      <rect id="Rectángulo_6986" data-name="Rectángulo 6986" width="162.476" height="12.942" transform="translate(9.911 149.146)" fill="#d1d1d1" stroke="#263238" stroke-linecap="round" stroke-linejoin="round" stroke-width="1"/>
      <path id="Trazado_108939" data-name="Trazado 108939" d="M9553.685,6748.316v18.22h-77.232v-18.765" transform="translate(-9466.541 -6675.246)" fill="none" stroke="#263238" stroke-linecap="round" stroke-linejoin="round" stroke-width="1"/>
      <rect id="Rectángulo_6987" data-name="Rectángulo 6987" width="162.476" height="8.168" transform="translate(9.911 54.37)" fill="#d1d1d1" stroke="#263238" stroke-linecap="round" stroke-linejoin="round" stroke-width="1"/>
      <line id="Línea_332" data-name="Línea 332" y2="9.267" transform="translate(118.446 45.145)" fill="none" stroke="#263238" stroke-linecap="round" stroke-linejoin="round" stroke-width="1"/>
      <rect id="Rectángulo_6988" data-name="Rectángulo 6988" width="11.067" height="5.41" transform="translate(128.266 46.698)" fill="#d1d1d1" stroke="#263238" stroke-linecap="round" stroke-linejoin="round" stroke-width="1"/>
      <line id="Línea_333" data-name="Línea 333" y2="9.82" transform="translate(92.586 62.795)" fill="none" stroke="#263238" stroke-linecap="round" stroke-linejoin="round" stroke-width="1"/>
      <line id="Línea_334" data-name="Línea 334" y2="9.82" transform="translate(126.556 62.795)" fill="none" stroke="#263238" stroke-linecap="round" stroke-linejoin="round" stroke-width="1"/>
      <line id="Línea_335" data-name="Línea 335" y1="18.633" transform="translate(39.801 72.657)" fill="none" stroke="#263238" stroke-linecap="round" stroke-linejoin="round" stroke-width="1"/>
      <line id="Línea_336" data-name="Línea 336" y1="18.633" transform="translate(58.715 72.657)" fill="none" stroke="#263238" stroke-linecap="round" stroke-linejoin="round" stroke-width="1"/>
      <line id="Línea_337" data-name="Línea 337" y2="14.173" transform="translate(79.338 91.38)" fill="none" stroke="#263238" stroke-linecap="round" stroke-linejoin="round" stroke-width="1"/>
      <line id="Línea_338" data-name="Línea 338" y2="43.815" transform="translate(118.074 91.182)" fill="none" stroke="#263238" stroke-linecap="round" stroke-linejoin="round" stroke-width="1"/>
      <path id="Trazado_108940" data-name="Trazado 108940" d="M9476.452,6788.071v14.908h108.222" transform="translate(-9466.541 -6682.261)" fill="none" stroke="#263238" stroke-linecap="round" stroke-linejoin="round" stroke-width="1"/>
      <line id="Línea_339" data-name="Línea 339" y2="14.338" transform="translate(50.67 105.917)" fill="none" stroke="#263238" stroke-linecap="round" stroke-linejoin="round" stroke-width="1"/>
      <line id="Línea_340" data-name="Línea 340" x2="9.606" transform="translate(162.864 174.146)" fill="none" stroke="#263238" stroke-linecap="round" stroke-linejoin="round" stroke-width="1"/>
      <line id="Línea_341" data-name="Línea 341" x2="149.154" transform="translate(10.134 174.146)" fill="none" stroke="#263238" stroke-linecap="round" stroke-linejoin="round" stroke-width="1"/>
      <line id="Línea_342" data-name="Línea 342" x2="162.336" transform="translate(10.134 185.842)" fill="none" stroke="#263238" stroke-linecap="round" stroke-linejoin="round" stroke-width="1"/>
      <line id="Línea_343" data-name="Línea 343" x2="112.318" transform="translate(60.152 197.487)" fill="none" stroke="#263238" stroke-linecap="round" stroke-linejoin="round" stroke-width="1"/>
      <line id="Línea_344" data-name="Línea 344" x2="45.897" transform="translate(10.134 197.487)" fill="none" stroke="#263238" stroke-linecap="round" stroke-linejoin="round" stroke-width="1"/>
      <rect id="Rectángulo_6989" data-name="Rectángulo 6989" width="5.492" height="5.492" transform="translate(35.556 177.368)" fill="#d1d1d1" stroke="#263238" stroke-linecap="round" stroke-linejoin="round" stroke-width="1"/>
      <rect id="Rectángulo_6990" data-name="Rectángulo 6990" width="5.492" height="5.492" transform="translate(67.065 177.368)" fill="#d1d1d1" stroke="#263238" stroke-linecap="round" stroke-linejoin="round" stroke-width="1"/>
      <rect id="Rectángulo_6991" data-name="Rectángulo 6991" width="5.492" height="5.492" transform="translate(45.302 188.576)" fill="#d1d1d1" stroke="#263238" stroke-linecap="round" stroke-linejoin="round" stroke-width="1"/>
      <rect id="Rectángulo_6992" data-name="Rectángulo 6992" width="5.492" height="5.492" transform="translate(75.423 188.576)" fill="#d1d1d1" stroke="#263238" stroke-linecap="round" stroke-linejoin="round" stroke-width="1"/>
      <rect id="Rectángulo_6993" data-name="Rectángulo 6993" width="5.492" height="5.492" transform="translate(104.215 188.576)" fill="#d1d1d1" stroke="#263238" stroke-linecap="round" stroke-linejoin="round" stroke-width="1"/>
      <rect id="Rectángulo_6994" data-name="Rectángulo 6994" width="5.492" height="5.492" transform="translate(133.453 188.576)" fill="#d1d1d1" stroke="#263238" stroke-linecap="round" stroke-linejoin="round" stroke-width="1"/>
      <line id="Línea_345" data-name="Línea 345" y2="11.654" transform="translate(42.758 185.941)" fill="none" stroke="#263238" stroke-linecap="round" stroke-linejoin="round" stroke-width="1"/>
      <line id="Línea_346" data-name="Línea 346" y2="11.654" transform="translate(72.219 185.941)" fill="none" stroke="#263238" stroke-linecap="round" stroke-linejoin="round" stroke-width="1"/>
      <line id="Línea_347" data-name="Línea 347" y2="11.654" transform="translate(101.671 185.941)" fill="none" stroke="#263238" stroke-linecap="round" stroke-linejoin="round" stroke-width="1"/>
      <line id="Línea_348" data-name="Línea 348" y2="11.654" transform="translate(131.124 185.941)" fill="none" stroke="#263238" stroke-linecap="round" stroke-linejoin="round" stroke-width="1"/>
      <line id="Línea_349" data-name="Línea 349" x2="162.336" transform="translate(10.134 209.364)" fill="none" stroke="#263238" stroke-linecap="round" stroke-linejoin="round" stroke-width="1"/>
      <rect id="Rectángulo_6995" data-name="Rectángulo 6995" width="5.492" height="5.492" transform="translate(25.15 200.452)" fill="#d1d1d1" stroke="#263238" stroke-linecap="round" stroke-linejoin="round" stroke-width="1"/>
      <rect id="Rectángulo_6996" data-name="Rectángulo 6996" width="5.492" height="5.492" transform="translate(75.423 200.452)" fill="#d1d1d1" stroke="#263238" stroke-linecap="round" stroke-linejoin="round" stroke-width="1"/>
      <rect id="Rectángulo_6997" data-name="Rectángulo 6997" width="5.492" height="5.492" transform="translate(104.215 200.452)" fill="#d1d1d1" stroke="#263238" stroke-linecap="round" stroke-linejoin="round" stroke-width="1"/>
      <rect id="Rectángulo_6998" data-name="Rectángulo 6998" width="5.492" height="5.492" transform="translate(141.316 200.452)" fill="#d1d1d1" stroke="#263238" stroke-linecap="round" stroke-linejoin="round" stroke-width="1"/>
      <line id="Línea_350" data-name="Línea 350" y2="11.53" transform="translate(22.606 197.818)" fill="none" stroke="#263238" stroke-linecap="round" stroke-linejoin="round" stroke-width="1"/>
      <line id="Línea_351" data-name="Línea 351" y2="11.53" transform="translate(72.219 197.818)" fill="none" stroke="#263238" stroke-linecap="round" stroke-linejoin="round" stroke-width="1"/>
      <line id="Línea_352" data-name="Línea 352" y2="11.53" transform="translate(101.671 197.818)" fill="none" stroke="#263238" stroke-linecap="round" stroke-linejoin="round" stroke-width="1"/>
      <line id="Línea_353" data-name="Línea 353" y2="11.53" transform="translate(138.987 197.818)" fill="none" stroke="#263238" stroke-linecap="round" stroke-linejoin="round" stroke-width="1"/>
      <line id="Línea_354" data-name="Línea 354" x2="17.89" transform="translate(59.326 39.702)" fill="none" stroke="#263238" stroke-miterlimit="10" stroke-width="1"/>
      <line id="Línea_355" data-name="Línea 355" x2="45.789" transform="translate(10.523 39.702)" fill="none" stroke="#263238" stroke-miterlimit="10" stroke-width="1"/>
      <line id="Línea_356" data-name="Línea 356" x2="39.43" transform="translate(91.339 39.702)" fill="none" stroke="#263238" stroke-miterlimit="10" stroke-width="1"/>
      <line id="Línea_357" data-name="Línea 357" x2="31.154" transform="translate(141.481 39.702)" fill="none" stroke="#263238" stroke-miterlimit="10" stroke-width="1"/>
      <g id="Grupo_61949" data-name="Grupo 61949" transform="translate(38.785 16.102)">
        <path id="Trazado_108941" data-name="Trazado 108941" d="M9518.107,6688.54a5.67,5.67,0,0,1-2.332.418,4.127,4.127,0,0,1-4.363-4.468,4.395,4.395,0,0,1,4.613-4.638,4.739,4.739,0,0,1,2.1.393l-.275.931a4.144,4.144,0,0,0-1.781-.368c-2.071,0-3.446,1.324-3.446,3.644a3.21,3.21,0,0,0,3.394,3.551,4.573,4.573,0,0,0,1.86-.367Z" transform="translate(-9511.412 -6679.525)" fill="#344154"/>
        <path id="Trazado_108942" data-name="Trazado 108942" d="M9526.307,6687.653c0,.656.014,1.232.053,1.729h-1.021l-.066-1.035h-.025a2.386,2.386,0,0,1-2.1,1.18c-1,0-2.189-.55-2.189-2.778v-3.708h1.153v3.512c0,1.205.366,2.018,1.415,2.018a1.667,1.667,0,0,0,1.521-1.048,1.69,1.69,0,0,0,.1-.59v-3.892h1.152Z" transform="translate(-9513.074 -6680.08)" fill="#344154"/>
        <path id="Trazado_108943" data-name="Trazado 108943" d="M9530.295,6686.391a2.03,2.03,0,0,0,2.175,2.2,4.162,4.162,0,0,0,1.755-.327l.2.825a5.13,5.13,0,0,1-2.109.393,2.946,2.946,0,0,1-3.119-3.2c0-1.913,1.127-3.419,2.975-3.419,2.07,0,2.621,1.821,2.621,2.988a4.648,4.648,0,0,1-.039.537Zm3.38-.825a1.641,1.641,0,0,0-1.6-1.874,1.911,1.911,0,0,0-1.769,1.874Z" transform="translate(-9514.508 -6680.05)" fill="#344154"/>
        <path id="Trazado_108944" data-name="Trazado 108944" d="M9537.686,6684.727c0-.655-.015-1.192-.054-1.716h1.022l.065,1.048h.027a2.329,2.329,0,0,1,2.095-1.192c.879,0,2.242.524,2.242,2.7v3.787h-1.153V6685.7c0-1.021-.38-1.873-1.469-1.873a1.638,1.638,0,0,0-1.546,1.179,1.678,1.678,0,0,0-.078.538v3.813h-1.152Z" transform="translate(-9515.977 -6680.05)" fill="#344154"/>
        <path id="Trazado_108945" data-name="Trazado 108945" d="M9547.673,6680.836v1.821h1.651v.878h-1.651v3.42c0,.785.224,1.231.866,1.231a2.55,2.55,0,0,0,.666-.079l.054.865a2.826,2.826,0,0,1-1.022.157,1.6,1.6,0,0,1-1.244-.484,2.348,2.348,0,0,1-.446-1.651v-3.459h-.982v-.878h.982v-1.52Z" transform="translate(-9517.357 -6679.696)" fill="#344154"/>
        <path id="Trazado_108946" data-name="Trazado 108946" d="M9555.094,6689.353l-.093-.8h-.039a2.363,2.363,0,0,1-1.939.943,1.807,1.807,0,0,1-1.939-1.821c0-1.533,1.363-2.372,3.813-2.359v-.131a1.308,1.308,0,0,0-1.442-1.467,3.155,3.155,0,0,0-1.649.472l-.264-.76a3.941,3.941,0,0,1,2.084-.563c1.939,0,2.411,1.324,2.411,2.595v2.371a8.875,8.875,0,0,0,.105,1.52Zm-.171-3.236c-1.258-.026-2.687.2-2.687,1.428a1.021,1.021,0,0,0,1.089,1.1,1.579,1.579,0,0,0,1.533-1.061,1.215,1.215,0,0,0,.065-.367Z" transform="translate(-9518.317 -6680.05)" fill="#344154"/>
        <path id="Trazado_108947" data-name="Trazado 108947" d="M9559.081,6688.174a3.025,3.025,0,0,0,1.52.458c.839,0,1.231-.42,1.231-.943,0-.551-.327-.853-1.18-1.167-1.139-.406-1.678-1.035-1.678-1.8a1.957,1.957,0,0,1,2.189-1.86,3.168,3.168,0,0,1,1.559.393l-.287.839a2.469,2.469,0,0,0-1.3-.367c-.682,0-1.062.393-1.062.865,0,.524.38.76,1.206,1.074,1.1.419,1.665.97,1.665,1.914,0,1.113-.865,1.9-2.373,1.9a3.627,3.627,0,0,1-1.782-.432Z" transform="translate(-9519.66 -6680.05)" fill="#344154"/>
        <path id="Trazado_108948" data-name="Trazado 108948" d="M9568.965,6685.082c0-.813-.025-1.468-.052-2.071h1.035l.052,1.088h.026a2.493,2.493,0,0,1,2.254-1.232c1.532,0,2.687,1.3,2.687,3.223,0,2.28-1.39,3.407-2.884,3.407a2.221,2.221,0,0,1-1.951-1h-.026v3.446h-1.141Zm1.141,1.69a2.671,2.671,0,0,0,.052.472,1.779,1.779,0,0,0,1.729,1.349c1.22,0,1.926-.995,1.926-2.45,0-1.271-.668-2.358-1.887-2.358a1.84,1.84,0,0,0-1.742,1.428,1.929,1.929,0,0,0-.078.472Z" transform="translate(-9521.422 -6680.05)" fill="#344154"/>
        <path id="Trazado_108949" data-name="Trazado 108949" d="M9583.644,6686.129a3.1,3.1,0,0,1-3.158,3.368,3.015,3.015,0,0,1-3.039-3.263,3.1,3.1,0,0,1,3.146-3.368A3,3,0,0,1,9583.644,6686.129Zm-5.031.065c0,1.389.8,2.438,1.926,2.438,1.1,0,1.927-1.035,1.927-2.464,0-1.073-.537-2.436-1.9-2.436S9578.612,6684.99,9578.612,6686.195Z" transform="translate(-9522.907 -6680.05)" fill="#344154"/>
        <path id="Trazado_108950" data-name="Trazado 108950" d="M9586.7,6684.99c0-.747-.014-1.389-.053-1.979h1.008l.04,1.245h.052a1.9,1.9,0,0,1,1.756-1.389,1.228,1.228,0,0,1,.328.04v1.087a1.713,1.713,0,0,0-.393-.04,1.618,1.618,0,0,0-1.547,1.481,3.329,3.329,0,0,0-.052.537v3.381h-1.14Z" transform="translate(-9524.509 -6680.05)" fill="#344154"/>
        <path id="Trazado_108951" data-name="Trazado 108951" d="M9599.684,6689.12a4.262,4.262,0,0,1-1.821.366,3.013,3.013,0,0,1-3.158-3.236,3.223,3.223,0,0,1,3.406-3.368,3.858,3.858,0,0,1,1.6.328l-.262.892a2.671,2.671,0,0,0-1.337-.3,2.391,2.391,0,0,0-.039,4.77,3.282,3.282,0,0,0,1.415-.314Z" transform="translate(-9525.911 -6680.052)" fill="#344154"/>
        <path id="Trazado_108952" data-name="Trazado 108952" d="M9607.912,6686.129a3.1,3.1,0,0,1-3.156,3.368,3.016,3.016,0,0,1-3.041-3.263,3.1,3.1,0,0,1,3.145-3.368A3,3,0,0,1,9607.912,6686.129Zm-5.031.065c0,1.389.8,2.438,1.927,2.438,1.1,0,1.926-1.035,1.926-2.464,0-1.073-.538-2.436-1.9-2.436S9602.881,6684.99,9602.881,6686.195Z" transform="translate(-9527.132 -6680.05)" fill="#344154"/>
        <path id="Trazado_108953" data-name="Trazado 108953" d="M9610.916,6688.759c.025-.432.051-1.074.051-1.638v-7.665h1.142v3.983h.024a2.362,2.362,0,0,1,2.162-1.167c1.574,0,2.687,1.311,2.674,3.236,0,2.267-1.429,3.394-2.844,3.394a2.257,2.257,0,0,1-2.121-1.193h-.04l-.052,1.048Zm1.192-2.542a2.061,2.061,0,0,0,.052.418,1.779,1.779,0,0,0,1.73,1.35c1.2,0,1.926-.982,1.926-2.437,0-1.271-.656-2.358-1.887-2.358a1.837,1.837,0,0,0-1.756,1.415,2.209,2.209,0,0,0-.065.472Z" transform="translate(-9528.733 -6679.456)" fill="#344154"/>
        <path id="Trazado_108954" data-name="Trazado 108954" d="M9619.993,6684.99c0-.747-.013-1.389-.053-1.979h1.009l.04,1.245h.053a1.9,1.9,0,0,1,1.756-1.389,1.208,1.208,0,0,1,.326.04v1.087a1.713,1.713,0,0,0-.393-.04,1.618,1.618,0,0,0-1.546,1.481,3.216,3.216,0,0,0-.053.537v3.381h-1.14Z" transform="translate(-9530.304 -6680.05)" fill="#344154"/>
        <path id="Trazado_108955" data-name="Trazado 108955" d="M9628.52,6689.353l-.094-.8h-.039a2.36,2.36,0,0,1-1.937.943,1.808,1.808,0,0,1-1.94-1.821c0-1.533,1.362-2.372,3.813-2.359v-.131a1.307,1.307,0,0,0-1.441-1.467,3.165,3.165,0,0,0-1.652.472l-.261-.76a3.935,3.935,0,0,1,2.083-.563c1.938,0,2.411,1.324,2.411,2.595v2.371a8.982,8.982,0,0,0,.1,1.52Zm-.172-3.236c-1.258-.026-2.686.2-2.686,1.428a1.021,1.021,0,0,0,1.088,1.1,1.579,1.579,0,0,0,1.533-1.061,1.213,1.213,0,0,0,.064-.367Z" transform="translate(-9531.1 -6680.05)" fill="#344154"/>
        <path id="Trazado_108956" data-name="Trazado 108956" d="M9632.746,6684.99c0-.747-.013-1.389-.052-1.979h1.009l.039,1.245h.053a1.9,1.9,0,0,1,1.756-1.389,1.208,1.208,0,0,1,.326.04v1.087a1.707,1.707,0,0,0-.393-.04,1.617,1.617,0,0,0-1.545,1.481,3.11,3.11,0,0,0-.054.537v3.381h-1.14Z" transform="translate(-9532.524 -6680.05)" fill="#344154"/>
      </g>
    </g>
    <g id="freepik--Character--inject-2" transform="translate(9438.866 6787.979)">
      <path id="Trazado_108957" data-name="Trazado 108957" d="M9644.392,7045.2l61.3-2.52,33.475,40.686-82.667,7.2Z" transform="translate(-9475.952 -6854.601)" fill="#ffbf9d"/>
      <path id="Trazado_108958" data-name="Trazado 108958" d="M9659.382,7078.678l66.265-4.617,4.369,5.5-68.791,5.228Z" transform="translate(-9478.562 -6860.063)" fill="none" stroke="#263238" stroke-linecap="round" stroke-linejoin="round" stroke-width="0.5"/>
      <path id="Trazado_108959" data-name="Trazado 108959" d="M9656.972,7070.809l63.507-4,2.022,2.553-64.678,4.262Z" transform="translate(-9478.143 -6858.801)" fill="none" stroke="#263238" stroke-linecap="round" stroke-linejoin="round" stroke-width="0.5"/>
      <path id="Trazado_108960" data-name="Trazado 108960" d="M9655.021,7064.438l61.251-3.527,1.876,2.362-62.35,3.75Z" transform="translate(-9477.803 -6857.774)" fill="none" stroke="#263238" stroke-linecap="round" stroke-linejoin="round" stroke-width="0.5"/>
      <path id="Trazado_108961" data-name="Trazado 108961" d="M9650.012,7048.042l55.371-2.412,8.291,10.448-60.242,3.312Z" transform="translate(-9476.931 -6855.114)" fill="none" stroke="#263238" stroke-linecap="round" stroke-linejoin="round" stroke-width="0.5"/>
      <path id="Trazado_108962" data-name="Trazado 108962" d="M9653.373,7059.04l59.326-3.139,1.561,1.966-60.243,3.312Z" transform="translate(-9477.517 -6856.902)" fill="#d1d1d1" stroke="#263238" stroke-linecap="round" stroke-linejoin="round" stroke-width="0.5"/>
      <path id="Trazado_108963" data-name="Trazado 108963" d="M9702.366,7075.344l-1.975-3.494,29.667-1.949,2.727,3.436" transform="translate(-9485.7 -6859.339)" fill="none" stroke="#263238" stroke-linecap="round" stroke-linejoin="round" stroke-width="0.5"/>
      <path id="Trazado_108964" data-name="Trazado 108964" d="M9660.152,7081.184l67.14-4.823,1.272,1.594-67.875,5.005Z" transform="translate(-9478.696 -6860.463)" fill="#d1d1d1" stroke="#263238" stroke-linecap="round" stroke-linejoin="round" stroke-width="0.5"/>
      <line id="Línea_358" data-name="Línea 358" x1="0.933" y1="1.99" transform="translate(205.598 220.746)" fill="none" stroke="#263238" stroke-linecap="round" stroke-linejoin="round" stroke-width="0.5"/>
      <path id="Trazado_108965" data-name="Trazado 108965" d="M9678.712,7083.566l4.815-.355.512,1.165-4.848.372Z" transform="translate(-9481.927 -6861.656)" fill="#d1d1d1" stroke="#263238" stroke-linecap="round" stroke-linejoin="round" stroke-width="0.5"/>
      <line id="Línea_359" data-name="Línea 359" x1="1.082" y1="1.966" transform="translate(214.501 216.252)" fill="none" stroke="#263238" stroke-linecap="round" stroke-linejoin="round" stroke-width="0.5"/>
      <line id="Línea_360" data-name="Línea 360" x1="0.892" y1="2.015" transform="translate(200.444 217.227)" fill="none" stroke="#263238" stroke-linecap="round" stroke-linejoin="round" stroke-width="0.5"/>
      <line id="Línea_361" data-name="Línea 361" x2="2.453" y2="3.477" transform="translate(233.101 211.297)" fill="none" stroke="#263238" stroke-linecap="round" stroke-linejoin="round" stroke-width="0.5"/>
      <line id="Línea_362" data-name="Línea 362" x2="2.28" y2="3.518" transform="translate(225.833 211.776)" fill="none" stroke="#263238" stroke-linecap="round" stroke-linejoin="round" stroke-width="0.5"/>
      <line id="Línea_363" data-name="Línea 363" x1="1.528" y1="2.585" transform="translate(216.244 209.703)" fill="none" stroke="#263238" stroke-linecap="round" stroke-linejoin="round" stroke-width="0.5"/>
      <line id="Línea_364" data-name="Línea 364" x1="3.7" y1="7.871" transform="translate(198.585 205.474)" fill="none" stroke="#263238" stroke-linecap="round" stroke-linejoin="round" stroke-width="0.5"/>
      <path id="Trazado_108966" data-name="Trazado 108966" d="M9724.881,7066.282l-1.991-2.511-40.628,2.445" transform="translate(-9482.545 -6858.272)" fill="none" stroke="#263238" stroke-linecap="round" stroke-linejoin="round" stroke-width="0.5"/>
      <line id="Línea_365" data-name="Línea 365" x1="1.668" y1="2.478" transform="translate(225.494 206.473)" fill="none" stroke="#263238" stroke-linecap="round" stroke-linejoin="round" stroke-width="0.5"/>
      <line id="Línea_366" data-name="Línea 366" x1="58.459" y2="2.982" transform="translate(175.245 197.231)" fill="none" stroke="#263238" stroke-linecap="round" stroke-linejoin="round" stroke-width="0.5"/>
      <line id="Línea_367" data-name="Línea 367" x1="57.683" y2="2.833" transform="translate(174.692 195.563)" fill="none" stroke="#263238" stroke-linecap="round" stroke-linejoin="round" stroke-width="0.5"/>
      <line id="Línea_368" data-name="Línea 368" x1="56.931" y2="2.693" transform="translate(174.163 193.944)" fill="none" stroke="#263238" stroke-linecap="round" stroke-linejoin="round" stroke-width="0.5"/>
      <path id="Trazado_108967" data-name="Trazado 108967" d="M9709.5,7052.862l1.875-.091.57.793-1.892.091Z" transform="translate(-9487.286 -6856.357)" fill="#d1d1d1" stroke="#263238" stroke-linecap="round" stroke-linejoin="round" stroke-width="0.5"/>
      <path id="Trazado_108968" data-name="Trazado 108968" d="M9696.242,7053.52l1.925-.1.5.81-1.932.1Z" transform="translate(-9484.979 -6856.47)" fill="#d1d1d1" stroke="#263238" stroke-linecap="round" stroke-linejoin="round" stroke-width="0.5"/>
      <path id="Trazado_108969" data-name="Trazado 108969" d="M9704.122,7051.122l1.875-.091.537.776-1.884.091Z" transform="translate(-9486.35 -6856.054)" fill="#d1d1d1" stroke="#263238" stroke-linecap="round" stroke-linejoin="round" stroke-width="0.5"/>
      <path id="Trazado_108970" data-name="Trazado 108970" d="M9691.532,7051.722l1.916-.091.471.793-1.925.091Z" transform="translate(-9484.158 -6856.159)" fill="#d1d1d1" stroke="#263238" stroke-linecap="round" stroke-linejoin="round" stroke-width="0.5"/>
      <path id="Trazado_108971" data-name="Trazado 108971" d="M9679.232,7052.312l1.957-.091.405.8-1.966.091Z" transform="translate(-9482.018 -6856.261)" fill="#d1d1d1" stroke="#263238" stroke-linecap="round" stroke-linejoin="round" stroke-width="0.5"/>
      <path id="Trazado_108972" data-name="Trazado 108972" d="M9666.482,7052.922l1.99-.091.347.809-2.007.1Z" transform="translate(-9479.798 -6856.368)" fill="#d1d1d1" stroke="#263238" stroke-linecap="round" stroke-linejoin="round" stroke-width="0.5"/>
      <line id="Línea_369" data-name="Línea 369" x1="1.148" y1="1.644" transform="translate(220.167 194.448)" fill="none" stroke="#263238" stroke-linecap="round" stroke-linejoin="round" stroke-width="0.5"/>
      <line id="Línea_370" data-name="Línea 370" x1="1.024" y1="1.668" transform="translate(210.091 194.919)" fill="none" stroke="#263238" stroke-linecap="round" stroke-linejoin="round" stroke-width="0.5"/>
      <line id="Línea_371" data-name="Línea 371" x1="0.884" y1="1.693" transform="translate(199.808 195.406)" fill="none" stroke="#263238" stroke-linecap="round" stroke-linejoin="round" stroke-width="0.5"/>
      <line id="Línea_372" data-name="Línea 372" x1="0.743" y1="1.726" transform="translate(189.294 195.902)" fill="none" stroke="#263238" stroke-linecap="round" stroke-linejoin="round" stroke-width="0.5"/>
      <line id="Línea_373" data-name="Línea 373" x1="56.18" y2="2.552" transform="translate(173.643 192.342)" fill="none" stroke="#263238" stroke-linecap="round" stroke-linejoin="round" stroke-width="0.5"/>
      <path id="Trazado_108973" data-name="Trazado 108973" d="M9710.952,7048.753l1.825-.082.554.743-1.825.091Z" transform="translate(-9487.539 -6855.644)" fill="#d1d1d1" stroke="#263238" stroke-linecap="round" stroke-linejoin="round" stroke-width="0.5"/>
      <path id="Trazado_108974" data-name="Trazado 108974" d="M9690.352,7049.7l1.884-.09.463.768-1.9.091Z" transform="translate(-9483.953 -6855.808)" fill="#d1d1d1" stroke="#263238" stroke-linecap="round" stroke-linejoin="round" stroke-width="0.5"/>
      <path id="Trazado_108975" data-name="Trazado 108975" d="M9678.212,7050.253l1.925-.082.405.776-1.941.091Z" transform="translate(-9481.84 -6855.905)" fill="#d1d1d1" stroke="#263238" stroke-linecap="round" stroke-linejoin="round" stroke-width="0.5"/>
      <path id="Trazado_108976" data-name="Trazado 108976" d="M9662.2,7050.992l1.981-.09.314.792-1.99.091Z" transform="translate(-9479.053 -6856.032)" fill="#d1d1d1" stroke="#263238" stroke-linecap="round" stroke-linejoin="round" stroke-width="0.5"/>
      <line id="Línea_374" data-name="Línea 374" x1="1.181" y1="1.569" transform="translate(225.734 192.523)" fill="none" stroke="#263238" stroke-linecap="round" stroke-linejoin="round" stroke-width="0.5"/>
      <line id="Línea_375" data-name="Línea 375" x1="0.975" y1="1.611" transform="translate(209.1 193.283)" fill="none" stroke="#263238" stroke-linecap="round" stroke-linejoin="round" stroke-width="0.5"/>
      <line id="Línea_376" data-name="Línea 376" x1="0.851" y1="1.627" transform="translate(198.941 193.746)" fill="none" stroke="#263238" stroke-linecap="round" stroke-linejoin="round" stroke-width="0.5"/>
      <line id="Línea_377" data-name="Línea 377" x1="0.677" y1="1.66" transform="translate(185.767 194.349)" fill="none" stroke="#263238" stroke-linecap="round" stroke-linejoin="round" stroke-width="0.5"/>
      <line id="Línea_378" data-name="Línea 378" x1="27.231" y2="2.098" transform="translate(224.742 220.473)" fill="none" stroke="#263238" stroke-miterlimit="10" stroke-width="0.5"/>
      <line id="Línea_379" data-name="Línea 379" x1="17.08" y2="1.313" transform="translate(201.692 223.033)" fill="none" stroke="#263238" stroke-miterlimit="10" stroke-width="0.5"/>
      <line id="Línea_380" data-name="Línea 380" x1="14.074" y2="1.082" transform="translate(182.869 224.718)" fill="none" stroke="#263238" stroke-miterlimit="10" stroke-width="0.5"/>
      <path id="Trazado_108977" data-name="Trazado 108977" d="M9691.285,6888.512a112.3,112.3,0,0,0-17.072,6.607c-9.085,4.41-26.975,11.018-35.515,14.321s-13.76,11.835-15.412,15.965-8.812,21.747-8.812,21.747-15.14,23.679-19,29.461-9.085,13.768-9.358,21.2,3.85,11.563,13.488,11.563,13.768-3.3,18.442-8.259,19.822-29.188,22.027-31.938,8.26-13.215,8.26-13.215,3.031,27.256,3.031,35.787v20.1h86.722s4.13-30.287,4.956-32.765,7.152-20.376,7.152-20.376,22.854,36.895,26.669,41.85,14.71,15.4,25.381,11.217,8.482-15.627,2.7-29.387-15.933-37.167-15.933-38.282-4.129-17.344-20.921-30.014-33.31-15.692-37.166-17.617S9714.684,6888.512,9691.285,6888.512Z" transform="translate(-9465.807 -6827.765)" fill="#aed3f2" stroke="#263238" stroke-linecap="round" stroke-linejoin="round" stroke-width="1"/>
      <path id="Trazado_108978" data-name="Trazado 108978" d="M9647.367,6948.512l10.736,16.8s-8.812-9.085-14.321-10.465" transform="translate(-9475.847 -6838.209)" fill="none" stroke="#263238" stroke-linecap="round" stroke-linejoin="round" stroke-width="1"/>
      <path id="Trazado_108979" data-name="Trazado 108979" d="M9657.582,6967.91l-6.335-2.206s-5.781-3.3-10.465-1.924" transform="translate(-9475.324 -6840.808)" fill="none" stroke="#263238" stroke-linecap="round" stroke-linejoin="round" stroke-width="1"/>
      <path id="Trazado_108980" data-name="Trazado 108980" d="M9700.992,6920.181c.62,4.534,2.048,10.167,5.336,14.041" transform="translate(-9485.805 -6833.277)" fill="none" stroke="#263238" stroke-linecap="round" stroke-linejoin="round" stroke-width="1"/>
      <path id="Trazado_108981" data-name="Trazado 108981" d="M9700.45,6911.181s-.059,1.577.09,3.956" transform="translate(-9485.709 -6831.71)" fill="none" stroke="#263238" stroke-linecap="round" stroke-linejoin="round" stroke-width="1"/>
      <path id="Trazado_108982" data-name="Trazado 108982" d="M9704.1,6941.182a24.783,24.783,0,0,0,2.479,2.213" transform="translate(-9486.347 -6836.933)" fill="none" stroke="#263238" stroke-linecap="round" stroke-linejoin="round" stroke-width="1"/>
      <path id="Trazado_108983" data-name="Trazado 108983" d="M9694.782,6926.181a36.565,36.565,0,0,0,6.55,11.15" transform="translate(-9484.725 -6834.321)" fill="none" stroke="#263238" stroke-linecap="round" stroke-linejoin="round" stroke-width="1"/>
      <path id="Trazado_108984" data-name="Trazado 108984" d="M9759.549,7000.661a31.957,31.957,0,0,1-5.1,6.764" transform="translate(-9495.111 -6847.286)" fill="none" stroke="#263238" stroke-linecap="round" stroke-linejoin="round" stroke-width="1"/>
      <path id="Trazado_108985" data-name="Trazado 108985" d="M9774.842,6967.511s-6.4,14.47-12.39,24.778" transform="translate(-9496.504 -6841.516)" fill="none" stroke="#263238" stroke-linecap="round" stroke-linejoin="round" stroke-width="1"/>
      <path id="Trazado_108986" data-name="Trazado 108986" d="M9742.98,7011.631c-.826,1-1.462,1.834-1.857,2.379" transform="translate(-9492.792 -6849.196)" fill="none" stroke="#263238" stroke-linecap="round" stroke-linejoin="round" stroke-width="1"/>
      <path id="Trazado_108987" data-name="Trazado 108987" d="M9754.265,6996.512s-5.07,5.9-8.812,10.464" transform="translate(-9493.544 -6846.564)" fill="none" stroke="#263238" stroke-linecap="round" stroke-linejoin="round" stroke-width="1"/>
      <path id="Trazado_108988" data-name="Trazado 108988" d="M9784.782,6969.1s12.116-19.269,12.67-20.921" transform="translate(-9500.391 -6838.151)" fill="none" stroke="#263238" stroke-linecap="round" stroke-linejoin="round" stroke-width="1"/>
      <path id="Trazado_108989" data-name="Trazado 108989" d="M9796,6962.9c3.6-2.915,9.011-6.607,14.413-7.714" transform="translate(-9502.344 -6839.37)" fill="none" stroke="#263238" stroke-linecap="round" stroke-linejoin="round" stroke-width="1"/>
      <path id="Trazado_108990" data-name="Trazado 108990" d="M9790.782,6968.659s.982-1.016,2.635-2.478" transform="translate(-9501.436 -6841.284)" fill="none" stroke="#263238" stroke-linecap="round" stroke-linejoin="round" stroke-width="1"/>
      <path id="Trazado_108991" data-name="Trazado 108991" d="M9807.033,6951.511a66.866,66.866,0,0,0-9.911,6.335" transform="translate(-9502.539 -6838.73)" fill="none" stroke="#263238" stroke-linecap="round" stroke-linejoin="round" stroke-width="1"/>
      <path id="Trazado_108992" data-name="Trazado 108992" d="M9815.122,7000.534a15.559,15.559,0,0,1,14.866.826" transform="translate(-9505.672 -6847.002)" fill="none" stroke="#263238" stroke-linecap="round" stroke-linejoin="round" stroke-width="1"/>
      <path id="Trazado_108993" data-name="Trazado 108993" d="M9818.122,6996.423s9.631-1.925,16.791,2.478" transform="translate(-9506.194 -6846.476)" fill="none" stroke="#263238" stroke-linecap="round" stroke-linejoin="round" stroke-width="1"/>
      <path id="Trazado_108994" data-name="Trazado 108994" d="M9599.452,6999.671a15.388,15.388,0,0,1,12.39-3.849" transform="translate(-9468.13 -6846.42)" fill="none" stroke="#263238" stroke-linecap="round" stroke-linejoin="round" stroke-width="1"/>
      <path id="Trazado_108995" data-name="Trazado 108995" d="M9620.092,6996.631a23.378,23.378,0,0,1,1.95,1.553" transform="translate(-9471.723 -6846.585)" fill="none" stroke="#263238" stroke-linecap="round" stroke-linejoin="round" stroke-width="1"/>
      <path id="Trazado_108996" data-name="Trazado 108996" d="M9611.122,6992.851a13.4,13.4,0,0,1,4.518,1.4" transform="translate(-9470.161 -6845.927)" fill="none" stroke="#263238" stroke-linecap="round" stroke-linejoin="round" stroke-width="1"/>
      <path id="Trazado_108997" data-name="Trazado 108997" d="M9710.738,6895.134s-2.478,10.464-1.651,18.17,9.357,19.55,16.519,22.3,20.367-5.228,25.051-9.911,4.955-19.549,4.955-19.549-7.137-15.412-22.3-19.822S9710.738,6895.134,9710.738,6895.134Z" transform="translate(-9487.185 -6827.227)" fill="#ffbf9d" stroke="#263238" stroke-linecap="round" stroke-linejoin="round" stroke-width="1"/>
      <path id="Trazado_108998" data-name="Trazado 108998" d="M9777.712,6894.229s1.438,4.3-1.329,9.746-8.11,10.043-9.548,9.572,4.468-20.169,4.468-20.169S9775.227,6891.174,9777.712,6894.229Z" transform="translate(-9497.228 -6828.478)" fill="#ffbf9d" stroke="#263238" stroke-linecap="round" stroke-linejoin="round" stroke-width="1"/>
      <path id="Trazado_108999" data-name="Trazado 108999" d="M9706.09,6875.383s-2.717,3.626-1.816,9.672,4.534,12.083,6.046,12.083,2.114-20.541,2.114-20.541S9709.411,6873.269,9706.09,6875.383Z" transform="translate(-9486.346 -6825.356)" fill="#ffbf9d" stroke="#263238" stroke-linecap="round" stroke-linejoin="round" stroke-width="1"/>
      <path id="Trazado_109000" data-name="Trazado 109000" d="M9711.821,6878.8s-2.114,18.435.3,25.992,7.251,19.334,14.809,22.357,24.777-9.969,27.5-15.106,10.274-26.893,10.274-26.893a19.756,19.756,0,0,0,2.726-18.74c-3.932-10.877-25.083-17.525-33.862-17.22s-17.527,7.557-18.13,13.3S9711.821,6878.8,9711.821,6878.8Z" transform="translate(-9487.541 -6820.918)" fill="#ffbf9d" stroke="#263238" stroke-linecap="round" stroke-linejoin="round" stroke-width="1"/>
      <path id="Trazado_109001" data-name="Trazado 109001" d="M9733.106,6897.318s-6.648-8.16-12.694-5.435" transform="translate(-9489.186 -6828.254)" fill="none" stroke="#263238" stroke-linecap="round" stroke-linejoin="round" stroke-width="2"/>
      <path id="Trazado_109002" data-name="Trazado 109002" d="M9748.582,6902.852s9.086-2.114,13.3,1.817" transform="translate(-9494.089 -6830.162)" fill="none" stroke="#263238" stroke-linecap="round" stroke-linejoin="round" stroke-width="2"/>
      <path id="Trazado_109003" data-name="Trazado 109003" d="M9721.512,6900.781s1.941,5.781,9.821,5.112" transform="translate(-9489.377 -6829.9)" fill="none" stroke="#263238" stroke-linecap="round" stroke-linejoin="round" stroke-width="1"/>
      <path id="Trazado_109004" data-name="Trazado 109004" d="M9747.852,6910.651s1.817,3.932,10.275,2.42" transform="translate(-9493.962 -6831.618)" fill="none" stroke="#263238" stroke-linecap="round" stroke-linejoin="round" stroke-width="1"/>
      <path id="Trazado_109005" data-name="Trazado 109005" d="M9729.8,6917.312a5.286,5.286,0,0,0,.5,3.609c.983,1.479,3.444,3.609,5.253,3.609s5.583-.652,6.566-1.652a11.834,11.834,0,0,0,1.651-2.139" transform="translate(-9490.799 -6832.778)" fill="none" stroke="#263238" stroke-linecap="round" stroke-linejoin="round" stroke-width="1"/>
      <path id="Trazado_109006" data-name="Trazado 109006" d="M9724.852,6923.871s4.13,4.757,7.558,5.905,9.845-.826,11.654-1.479" transform="translate(-9489.958 -6833.919)" fill="none" stroke="#263238" stroke-linecap="round" stroke-linejoin="round" stroke-width="1"/>
      <path id="Trazado_109007" data-name="Trazado 109007" d="M9780.132,6852.045c-.28-1.982,1.132-4.815,1.413-6.508s-1.982-4.815-3.956-7.359a11.381,11.381,0,0,1-2.271-7.069c0-1.7-1.975-3.114-3.676-4.246a31.572,31.572,0,0,1-5.657-4.815c-1.132-1.413-5.938-1.132-6.789-1.132s-4.525-3.1-6.789-4.237-6.789.826-6.789.826-5.377-2.544-6.509-2.544-5.946,1.982-5.946,1.982a25.256,25.256,0,0,1-4.955,1.544,5.289,5.289,0,0,0-.942-.157c-.636-.826-6.294,2.568-6.294,2.568l-5.087.826-1.892,3.064c-1.809.2-6.046.875-6.344,2.949-.38,2.643,0,3.774-1.131,5.278s-5.277,1.131-4.13,4.526,3.767,6.038.372,7.929-5.277,5.278-3.395,7.161,3.395,4.526,3.022,6.038-.76,4.906.752,5.658a26.735,26.735,0,0,1,3.774,2.643l1.884,4.129,1.131,2.643s1.883-6.038,3.395-6.789,0,2.643,3.022,2.643,6.029-14.338,8.26-14.718,9.085,12.455,15.85,12.455,15.123-5.938,18.525-5.938.752,14.33.752,17.344.752,6.029.752,7.169,3.773-5.286,6.417-6.8c.727-.413,1.6-.917,2.519-1.5a.458.458,0,0,1-.041.207s9.341-5.946,10.473-7.92.28-3.684.28-5.376,1.132-3.114,1.413-5.658S9780.413,6854.02,9780.132,6852.045Z" transform="translate(-9485.392 -6814.961)" fill="#344154" stroke="#263238" stroke-linecap="round" stroke-linejoin="round" stroke-width="1"/>
      <line id="Línea_381" data-name="Línea 381" x1="363.895" transform="translate(0 184.024)" fill="none" stroke="#263238" stroke-linecap="round" stroke-linejoin="round" stroke-width="1"/>
      <path id="Trazado_109008" data-name="Trazado 109008" d="M9808.779,7008.208s-10.315-3.791-17.732-.826-24.827,10.01-36.68,12.232a154.586,154.586,0,0,1-33.706,2.222c-10.01-.372-15.568,1.115-17.79,2.965s-10.374,12.224-9.639,13.339,1.561,1.537,5.2.744c1.445-.322,5.558-4.815,5.558-4.815l7.434-3.3s-7.78,8.523-6.674,9.63,2.966-.372,4.453-1.479,4.443-3.708,4.443-3.708l6.673-2.965s-7.086,4.782-7.086,6.987,1.726.908,4.666-.265a33.786,33.786,0,0,0,3.973-2.932l5.575-1.569a24.507,24.507,0,0,0,11.67,2.775,17.87,17.87,0,0,0,11.563-4.312s25.942,3.709,38.909,2.594,29.271.372,35.944-4.443-1.851-17.418-2.593-18.534" transform="translate(-9484.446 -6848.259)" fill="#ffbf9d" stroke="#263238" stroke-linecap="round" stroke-linejoin="round" stroke-width="1"/>
      <path id="Trazado_109009" data-name="Trazado 109009" d="M9695.322,7043.12a25.649,25.649,0,0,1,2.759-5.7c1.379-1.727,7.764-5.864,10.011-7.07a25.218,25.218,0,0,1,2.758-1.379" transform="translate(-9484.818 -6852.215)" fill="none" stroke="#263238" stroke-linecap="round" stroke-linejoin="round" stroke-width="1"/>
      <line id="Línea_382" data-name="Línea 382" y1="4.336" x2="6.517" transform="translate(226.931 178.136)" fill="none" stroke="#263238" stroke-linecap="round" stroke-linejoin="round" stroke-width="1"/>
      <line id="Línea_383" data-name="Línea 383" y1="3.056" x2="6.079" transform="translate(235.827 180.895)" fill="none" stroke="#263238" stroke-linecap="round" stroke-linejoin="round" stroke-width="1"/>
      <path id="Trazado_109010" data-name="Trazado 109010" d="M9822.555,7008.264c-5.509-1.313-13.289-2.6-17.732-.825-6.607,2.635-21.044,8.474-32.5,11.307a10.232,10.232,0,0,1,2.651,6.5,25.265,25.265,0,0,1-1.223,8.92c8.73.982,21.614,2.122,29.593,1.438,12.967-1.115,29.271.371,35.944-4.444s-1.85-17.418-2.594-18.533" transform="translate(-9498.222 -6848.315)" fill="#d9a171" stroke="#263238" stroke-linecap="round" stroke-linejoin="round" stroke-width="1"/>
      <path id="Trazado_109011" data-name="Trazado 109011" d="M9594.465,7006.141c.693-1.875,5.781-6.36,12.628-5.162s14.619,8.8,19.063,14.652,7.987,7.434,7.987,7.434l-5.236,16s-3.222-.776-9.267-2.312-19.575-3.535-25.795-5.468-8.87-8.623-7.516-14.867a37.173,37.173,0,0,1,3.511-9.961" transform="translate(-9465.785 -6847.307)" fill="#d9a171" stroke="#263238" stroke-linecap="round" stroke-linejoin="round" stroke-width="1"/>
      <path id="Trazado_109012" data-name="Trazado 109012" d="M9631.405,7018.364q-.708-.917-1.5-1.883c-3.873,1.545-8.787,4.394-11.39,9.416a18.126,18.126,0,0,0-2.113,11.811c3.3.627,6.351,1.223,8.474,1.759,6.046,1.536,9.267,2.313,9.267,2.313l5.237-16S9635.84,7024.22,9631.405,7018.364Z" transform="translate(-9471.035 -6850.04)" fill="#ffbf9d" stroke="#263238" stroke-linecap="round" stroke-linejoin="round" stroke-width="1"/>
      <path id="Trazado_109013" data-name="Trazado 109013" d="M9631.966,7035.5c-.347,2.478-1.106,5.311,2.479,6.88s7.152,5.443,9.406,6.352a33.963,33.963,0,0,0,8.483,2.048c2.295.148,5.129.9,9.629-.354s4.379-2.412,4.379-2.412a11.488,11.488,0,0,0,4.2-.578c1.388-.686.413-2.4-1.271-3.081s-3.75-1.586-3.75-1.586,2.56-2.361,1.915-2.948l-.635-.586s2.956.347,3.212-.595-1.6-5.1-2.346-8.606-2.3-3.031-5.153-3.593-6.731.157-11.852-.934-12.538.743-15.471,1.52" transform="translate(-9473.735 -6851.553)" fill="#ffbf9d" stroke="#263238" stroke-linecap="round" stroke-linejoin="round" stroke-width="1"/>
      <path id="Trazado_109014" data-name="Trazado 109014" d="M9656.229,7008.428l4.675,16.519,3.733,1.775-5.534-19.128a1.486,1.486,0,0,0-1.837-1.021,1.425,1.425,0,0,0-.178.063h0A1.5,1.5,0,0,0,9656.229,7008.428Z" transform="translate(-9478.003 -6848.306)" fill="#344154"/>
      <path id="Trazado_109015" data-name="Trazado 109015" d="M9658.824,7027.3s8.176,4.361,8.738,4.584c.388.157,4.03,6.244,5.187,9.168.537,1.338-.065,2.106-1.321,2.8l-1.693-.685-10.168-6.4-3.725-1.776" transform="translate(-9477.945 -6851.924)" fill="#ffbf9d" stroke="#263238" stroke-linecap="round" stroke-linejoin="round" stroke-width="1"/>
      <path id="Trazado_109016" data-name="Trazado 109016" d="M9652.542,7044.551s7.962,4.733,9.639,5.6,7.8,1.264,7.8,1.264" transform="translate(-9477.371 -6854.926)" fill="none" stroke="#263238" stroke-linecap="round" stroke-linejoin="round" stroke-width="1"/>
      <path id="Trazado_109017" data-name="Trazado 109017" d="M9648.932,7050.181s6.683,3.684,8,4.13,4.129,1.222,4.129,1.222" transform="translate(-9476.743 -6855.906)" fill="none" stroke="#263238" stroke-linecap="round" stroke-linejoin="round" stroke-width="1"/>
    </g>
    <g id="freepik--Device--inject-2" transform="translate(9457.862 6934.185)">
      <path id="Trazado_109018" data-name="Trazado 109018" d="M9578.561,7080.525l30.492-28.048-67.181-4.336Z" transform="translate(-9477.103 -7001.757)" fill="#ccc" stroke="#263238" stroke-linecap="round" stroke-linejoin="round" stroke-width="1"/>
      <path id="Trazado_109019" data-name="Trazado 109019" d="M9584.274,7077.567,9598,7064.559l-15.9-.958Z" transform="translate(-9484.105 -7004.448)" fill="#344154" stroke="#263238" stroke-linecap="round" stroke-linejoin="round" stroke-width="1"/>
      <path id="Trazado_109020" data-name="Trazado 109020" d="M9470.126,6991.981l100.573,4.451-5.79,74.317-101.457-4.9Z" transform="translate(-9463.452 -6991.981)" fill="#a6a6a6" stroke="#263238" stroke-linecap="round" stroke-linejoin="round" stroke-width="1"/>
      <path id="Trazado_109021" data-name="Trazado 109021" d="M9463.992,7060.905c5.947-.876,15.981-3.213,32.93-8.7,40.347-13.058,45.426-49.556,73.871-55.775l-100.573-4.452Z" transform="translate(-9463.546 -6991.981)" fill="#344154" stroke="#263238" stroke-linecap="round" stroke-linejoin="round" stroke-width="1"/>
      <ellipse id="Elipse_4125" data-name="Elipse 4125" cx="7.714" cy="5.93" rx="7.714" ry="5.93" transform="translate(45.245 31.749)" fill="#ffbf9d"/>
    </g>
  </g>
</svg>
