<svg xmlns="http://www.w3.org/2000/svg" width="333" height="333" viewBox="0 0 333 333">
  <g id="Capa_2" data-name="Capa 2" transform="translate(0 -0.266)">
    <g id="Capa_1" data-name="Capa 1" transform="translate(0 0.266)">
      <g id="freepik--Plants--inject-44" transform="translate(254.205 97.068)">
        <path id="Trazado_106295" data-name="Trazado 106295" d="M428.653,146.231a2.171,2.171,0,0,0-.473-.147,3.332,3.332,0,0,0-1.446,0,5.332,5.332,0,0,0-2.1,1.08,11.059,11.059,0,0,0-2.133,2.486,44.562,44.562,0,0,0-3.692,8.357c-1.446,3.845-2.666,7.771-3.759,11.75h0a3.28,3.28,0,0,1-.773.966,1.52,1.52,0,0,1-1.213.387,2.306,2.306,0,0,1-1.113-.666c-.313-.287-.607-.593-.9-.906a19.618,19.618,0,0,0-1.846-1.8,3.4,3.4,0,0,0-2.339-.953,3.146,3.146,0,0,0-2.139,1.426,5.419,5.419,0,0,0-.74,2.666,26.759,26.759,0,0,0,.773,5.825c.333,1.993.753,4.039,1.14,6.125.2,1.046.393,2.1.593,3.166l.3,1.613a2.053,2.053,0,0,1-.193,1.706.82.82,0,0,1-.886.3,2.559,2.559,0,0,1-.793-.407l-1.333-1.013a29.948,29.948,0,0,0-2.826-1.906,10.664,10.664,0,0,0-3.159-1.333,3.579,3.579,0,0,0-1.679,0,2.426,2.426,0,0,0-1.373.92,5.651,5.651,0,0,0-.9,3.332,19.332,19.332,0,0,0,.353,3.612,47.172,47.172,0,0,0,2.046,7.164,9.331,9.331,0,0,1,.58,1.853,1.247,1.247,0,0,1-.44,1.226.726.726,0,0,1-.26.153.853.853,0,0,1-.58-.133,10.113,10.113,0,0,1-1.539-1.226l-1.426-1.333a20.514,20.514,0,0,0-3.032-2.439,6.053,6.053,0,0,0-1.753-.8,2.173,2.173,0,0,0-1.779.22,2.573,2.573,0,0,0-1.006,1.546,7.936,7.936,0,0,0-.24,1.946,17.248,17.248,0,0,0,.5,4,34.659,34.659,0,0,0,2.886,7.651,59.168,59.168,0,0,0,4.312,7.164,40.277,40.277,0,0,0,2.6,3.332c.893,1.106,1.8,2.206,2.706,3.332v.04l-.16-.067,4.239-.613a42.106,42.106,0,0,0,4.179-.72,59.679,59.679,0,0,0,8-2.406,35.034,35.034,0,0,0,7.3-3.726,16.275,16.275,0,0,0,3.046-2.606,7.72,7.72,0,0,0,1.14-1.606,2.559,2.559,0,0,0,.293-1.819,2.146,2.146,0,0,0-1.166-1.366,6.332,6.332,0,0,0-1.833-.586,21.029,21.029,0,0,0-3.885-.233h-1.946a10.086,10.086,0,0,1-2-.127.826.826,0,0,1-.52-.293.927.927,0,0,1-.087-.293,1.873,1.873,0,0,1,0-.273,1.4,1.4,0,0,1,.513-.926,9.8,9.8,0,0,1,1.673-.98,45.987,45.987,0,0,0,6.351-3.892,17.823,17.823,0,0,0,2.666-2.439,5.6,5.6,0,0,0,1.573-3.066,2.406,2.406,0,0,0-.4-1.606,3.486,3.486,0,0,0-1.24-1.133,10.569,10.569,0,0,0-3.219-1.153,30.205,30.205,0,0,0-3.372-.487l-1.68-.16a2.293,2.293,0,0,1-.86-.233.846.846,0,0,1-.446-.826,2.106,2.106,0,0,1,1.006-1.386l1.333-.986,2.566-1.953,4.958-3.766a26.128,26.128,0,0,0,4.492-3.792,5.332,5.332,0,0,0,1.226-2.453,3.119,3.119,0,0,0-.607-2.553,2.2,2.2,0,0,0-1.086-.666,4.9,4.9,0,0,0-1.286-.213,19.57,19.57,0,0,0-2.573.093c-.427,0-.853.06-1.273.067a2.313,2.313,0,0,1-1.26-.273,1.567,1.567,0,0,1-.666-1.1,3.672,3.672,0,0,1,.073-1.24h0a120.735,120.735,0,0,0,5.165-11.11,46.308,46.308,0,0,0,2.9-8.664,11.191,11.191,0,0,0,.133-3.266,5.212,5.212,0,0,0-.78-2.226,2.966,2.966,0,0,0-1.026-1.006,2.528,2.528,0,0,0-.447-.22,1.566,1.566,0,0,1,.46.193,3.005,3.005,0,0,1,1.066,1,5.212,5.212,0,0,1,.806,2.246,10.964,10.964,0,0,1-.1,3.3,45.2,45.2,0,0,1-2.859,8.664,120.642,120.642,0,0,1-5.078,11.243h0a3.333,3.333,0,0,0-.067,1.146,1.333,1.333,0,0,0,.547.953,2.173,2.173,0,0,0,1.133.233c.413,0,.833-.04,1.26-.073a20.035,20.035,0,0,1,2.606-.1,5.024,5.024,0,0,1,1.333.22,2.519,2.519,0,0,1,1.2.713,3.332,3.332,0,0,1,.666,2.666,5.558,5.558,0,0,1-1.28,2.573,26.971,26.971,0,0,1-4.525,3.852l-4.952,3.772-2.559,1.946-1.3.993a3.132,3.132,0,0,0-.593.52,1.333,1.333,0,0,0-.307.666.566.566,0,0,0,.3.547,2,2,0,0,0,.753.193l1.679.16a28.974,28.974,0,0,1,3.4.487,11.17,11.17,0,0,1,3.332,1.18,4,4,0,0,1,1.333,1.233,2.793,2.793,0,0,1,.453,1.793,6,6,0,0,1-1.646,3.252,18.975,18.975,0,0,1-2.732,2.486,46.739,46.739,0,0,1-6.378,4,9.055,9.055,0,0,0-1.613.933,1.046,1.046,0,0,0-.4.706,1,1,0,0,0,0,.2c0,.053,0,.18.047.173a.667.667,0,0,0,.307.14,10,10,0,0,0,1.893.12h1.946a19.993,19.993,0,0,1,3.945.233,6.364,6.364,0,0,1,1.933.62,2.486,2.486,0,0,1,1.333,1.579,2.872,2.872,0,0,1-.32,2.053,7.938,7.938,0,0,1-1.186,1.673,16.5,16.5,0,0,1-3.106,2.666,34.656,34.656,0,0,1-7.371,3.766,58.48,58.48,0,0,1-8.064,2.426,40.206,40.206,0,0,1-4.192.72l-4.245.62h-.1l-.06-.08h-.033l-2.706-3.332c-.92-1.066-1.793-2.179-2.606-3.332a58.716,58.716,0,0,1-4.345-7.218,35.325,35.325,0,0,1-2.912-7.738,17.021,17.021,0,0,1-.513-4.059,8.72,8.72,0,0,1,.253-2.039,2.926,2.926,0,0,1,1.146-1.733,2.506,2.506,0,0,1,2.053-.267,6.47,6.47,0,0,1,1.839.84,20.4,20.4,0,0,1,3.079,2.479l1.426,1.333a10.08,10.08,0,0,0,1.479,1.18.666.666,0,0,0,.327.107l.147-.093.147-.147a1.006,1.006,0,0,0,.173-.786,9.193,9.193,0,0,0-.56-1.779,47.076,47.076,0,0,1-2.039-7.238,19.417,19.417,0,0,1-.353-3.672,6,6,0,0,1,.973-3.519,2.779,2.779,0,0,1,1.533-1.026,4,4,0,0,1,1.819,0,10.975,10.975,0,0,1,3.246,1.333,28.511,28.511,0,0,1,2.852,1.926L405.034,189a2.325,2.325,0,0,0,.666.367.56.56,0,0,0,.593-.2,1.28,1.28,0,0,0,.22-.666,2.82,2.82,0,0,0-.087-.786c-.1-.54-.193-1.073-.293-1.606-.2-1.066-.393-2.126-.586-3.166-.38-2.093-.76-4.132-1.126-6.125a25,25,0,0,1-.766-5.892,5.658,5.658,0,0,1,.786-2.766,3.366,3.366,0,0,1,2.273-1.5,2.486,2.486,0,0,1,1.366.273,5.146,5.146,0,0,1,1.14.74,20.11,20.11,0,0,1,1.866,1.826q.433.46.88.9a2.139,2.139,0,0,0,1,.593,1.333,1.333,0,0,0,1.08-.333,3.192,3.192,0,0,0,.72-.893h0a122.832,122.832,0,0,1,3.8-11.77,44.655,44.655,0,0,1,3.752-8.357,11.117,11.117,0,0,1,2.173-2.493,5.266,5.266,0,0,1,2.139-1.066,3.206,3.206,0,0,1,1.466,0A1.606,1.606,0,0,1,428.653,146.231Z" transform="translate(-382.338 -145.993)" fill="#344154"/>
        <path id="Trazado_106296" data-name="Trazado 106296" d="M429.824,160a.666.666,0,0,1-.067.22l-.227.626c-.22.566-.527,1.373-.913,2.393-.813,2.1-1.966,5.105-3.392,8.8l-11.07,29.084c-4.305,11.33-8.251,21.64-11.17,29.051-1.453,3.706-2.666,6.7-3.492,8.764-.413,1.013-.74,1.806-.973,2.366-.113.26-.193.46-.26.62l-.1.2a1.132,1.132,0,0,1,.067-.213c.053-.16.133-.367.227-.626.22-.573.526-1.373.913-2.4.813-2.1,1.966-5.1,3.392-8.8l11.07-29.071c4.305-11.363,8.244-21.633,11.17-29.044,1.453-3.706,2.666-6.7,3.492-8.764.413-1.013.74-1.813.973-2.373.113-.253.193-.46.26-.613Z" transform="translate(-387.007 -150.665)" fill="#344154"/>
        <path id="Trazado_106297" data-name="Trazado 106297" d="M440.38,194.5a11.947,11.947,0,0,1-1.666.993l-4.079,2.266c-1.6.886-3.052,1.679-4.125,2.219a8.985,8.985,0,0,1-1.779.773,13.231,13.231,0,0,1,1.666-.993l4.065-2.3c1.6-.886,3.059-1.66,4.139-2.186A10.491,10.491,0,0,1,440.38,194.5Z" transform="translate(-397.204 -162.172)" fill="#344154"/>
        <path id="Trazado_106298" data-name="Trazado 106298" d="M424.529,196.4c-.087.04-1.673-2.986-3.539-6.758s-3.332-6.865-3.232-6.911,1.673,2.986,3.546,6.758S424.615,196.352,424.529,196.4Z" transform="translate(-393.542 -158.246)" fill="#344154"/>
        <path id="Trazado_106299" data-name="Trazado 106299" d="M414.821,224.717a10.269,10.269,0,0,1-1.466-1.333c-.866-.866-2-2.1-3.232-3.526s-2.233-2.772-2.939-3.772a9.995,9.995,0,0,1-1.073-1.666,12.554,12.554,0,0,1,1.266,1.52c.76.96,1.806,2.273,3.012,3.692s2.326,2.666,3.139,3.579A12.055,12.055,0,0,1,414.821,224.717Z" transform="translate(-389.659 -168.816)" fill="#344154"/>
        <path id="Trazado_106300" data-name="Trazado 106300" d="M431.373,225.57a9.9,9.9,0,0,1-1.759.52c-1.093.273-2.613.626-4.292,1s-3.212.666-4.319.906a9.763,9.763,0,0,1-1.813.273,9.657,9.657,0,0,1,1.759-.513c1.093-.273,2.613-.666,4.3-1.006s3.206-.666,4.312-.9a9.4,9.4,0,0,1,1.813-.28Z" transform="translate(-394.022 -172.535)" fill="#344154"/>
        <path id="Trazado_106301" data-name="Trazado 106301" d="M424.912,250.07a17.45,17.45,0,0,1-2.266.606c-1.413.327-3.332.76-5.518,1.213s-4.125.853-5.545,1.12a15.9,15.9,0,0,1-2.313.367,14.962,14.962,0,0,1,2.266-.606c1.406-.327,3.332-.76,5.518-1.213s4.119-.853,5.538-1.12a14.475,14.475,0,0,1,2.319-.367Z" transform="translate(-390.713 -180.706)" fill="#344154"/>
        <path id="Trazado_106302" data-name="Trazado 106302" d="M404.44,248.063a3.232,3.232,0,0,1-.5-.453c-.307-.307-.733-.76-1.26-1.333-1.046-1.146-2.453-2.766-3.932-4.612s-2.753-3.579-3.639-4.852c-.447-.666-.793-1.153-1.026-1.52a2.878,2.878,0,0,1-.333-.593,2.326,2.326,0,0,1,.44.513l1.12,1.46c.933,1.233,2.233,2.932,3.712,4.772s2.846,3.486,3.845,4.665a18.5,18.5,0,0,1,1.573,1.953Z" transform="translate(-385.536 -175.58)" fill="#344154"/>
        <path id="Trazado_106303" data-name="Trazado 106303" d="M393.665,281.241c-11.57-9.33-13.249-25.279-11.8-39.415.247-2.359.153-4.872,1.42-6.871s4-3.232,6.045-2.093c1.7.946,2.319,3.046,3.186,4.8a14,14,0,0,0,5.185,5.678c1.453.886,3.286,1.493,4.825.773,2.119-.986,2.553-3.785,2.7-6.138l.82-13.156a21.89,21.89,0,0,1,1.193-6.938,7.391,7.391,0,0,1,4.925-4.625c2.259-.48,4.958,1.013,5.272,3.332a20.528,20.528,0,0,1-.133,2.932,2.481,2.481,0,0,0,1.286,2.426,2.9,2.9,0,0,0,2.666-.9,31.333,31.333,0,0,0,6.2-8.091,43.406,43.406,0,0,1,5.838-8.391c2.386-2.439,5.565-4.285,8.951-4.245s6.825,2.366,7.451,5.732-1.54,6.611-3.832,9.151a52.6,52.6,0,0,1-11.676,9.684,4.312,4.312,0,0,0-2,1.839c-.62,1.533.76,3.192,2.273,3.819,1.713.7,3.632.666,5.452.993s3.752,1.286,4.325,3.066c.8,2.473-1.386,4.852-3.479,6.371a45.253,45.253,0,0,1-13.776,6.785,15.167,15.167,0,0,0-5.118,2.059c-1.48,1.12-2.466,3.179-1.733,4.892s2.859,2.4,4.665,2.186a32.471,32.471,0,0,0,5.3-1.62c3.332-1,7.478-.487,9.33,2.446a7.519,7.519,0,0,1,.34,6.665,17.208,17.208,0,0,1-3.965,5.572,45.319,45.319,0,0,1-20.247,12.25c-7.678,2.086-14.662,2.313-21.94-.926" transform="translate(-381.426 -164.113)" fill="#d9a171"/>
        <g id="Grupo_60095" data-name="Grupo 60095" transform="translate(0 36.206)" opacity="0.1">
          <path id="Trazado_106304" data-name="Trazado 106304" d="M393.665,281.241c-11.57-9.33-13.249-25.279-11.8-39.415.247-2.359.153-4.872,1.42-6.871s4-3.232,6.045-2.093c1.7.946,2.319,3.046,3.186,4.8a14,14,0,0,0,5.185,5.678c1.453.886,3.286,1.493,4.825.773,2.119-.986,2.553-3.785,2.7-6.138l.82-13.156a21.89,21.89,0,0,1,1.193-6.938,7.391,7.391,0,0,1,4.925-4.625c2.259-.48,4.958,1.013,5.272,3.332a20.528,20.528,0,0,1-.133,2.932,2.481,2.481,0,0,0,1.286,2.426,2.9,2.9,0,0,0,2.666-.9,31.333,31.333,0,0,0,6.2-8.091,43.406,43.406,0,0,1,5.838-8.391c2.386-2.439,5.565-4.285,8.951-4.245s6.825,2.366,7.451,5.732-1.54,6.611-3.832,9.151a52.6,52.6,0,0,1-11.676,9.684,4.312,4.312,0,0,0-2,1.839c-.62,1.533.76,3.192,2.273,3.819,1.713.7,3.632.666,5.452.993s3.752,1.286,4.325,3.066c.8,2.473-1.386,4.852-3.479,6.371a45.253,45.253,0,0,1-13.776,6.785,15.167,15.167,0,0,0-5.118,2.059c-1.48,1.12-2.466,3.179-1.733,4.892s2.859,2.4,4.665,2.186a32.471,32.471,0,0,0,5.3-1.62c3.332-1,7.478-.487,9.33,2.446a7.519,7.519,0,0,1,.34,6.665,17.208,17.208,0,0,1-3.965,5.572,45.319,45.319,0,0,1-20.247,12.25c-7.678,2.086-14.662,2.313-21.94-.926" transform="translate(-381.426 -200.319)"/>
        </g>
        <path id="Trazado_106305" data-name="Trazado 106305" d="M398.43,292.9a104.211,104.211,0,0,1,5.172-19.121,212.757,212.757,0,0,1,9.924-22.12l2.9-5.665c.96-1.859,1.906-3.7,2.946-5.445a107,107,0,0,1,6.538-9.677c2.233-2.979,4.452-5.725,6.551-8.277s4.112-4.885,6.031-6.938a84.381,84.381,0,0,1,9.77-9c1.233-.966,2.213-1.686,2.886-2.166l.766-.54a1.656,1.656,0,0,1,.267-.173,1.033,1.033,0,0,1-.24.207l-.74.58c-.666.5-1.619,1.24-2.832,2.233a88.125,88.125,0,0,0-9.65,9.077c-1.9,2.059-3.892,4.405-6,6.958s-4.3,5.332-6.511,8.291a104.769,104.769,0,0,0-6.491,9.65c-1.033,1.739-2,3.566-2.926,5.425l-2.9,5.665a220.443,220.443,0,0,0-9.937,22.046,106.233,106.233,0,0,0-5.245,19.034" transform="translate(-387.097 -165.264)" fill="#344154"/>
        <path id="Trazado_106306" data-name="Trazado 106306" d="M429.166,245.849a4.859,4.859,0,0,1-.167-1.02c-.073-.666-.16-1.613-.247-2.8-.167-2.359-.293-5.638-.42-9.244s-.3-6.878-.507-9.237c-.1-1.173-.187-2.126-.26-2.786a4.505,4.505,0,0,1-.06-1.033,4.667,4.667,0,0,1,.227,1.006c.12.666.26,1.606.4,2.786.287,2.353.507,5.625.666,9.244s.22,6.785.293,9.25c.047,1.113.08,2.046.113,2.8a5.385,5.385,0,0,1-.04,1.033Z" transform="translate(-396.793 -170.587)" fill="#344154"/>
        <path id="Trazado_106307" data-name="Trazado 106307" d="M460.657,253.483a6.738,6.738,0,0,1-1.22.067c-.78,0-1.906,0-3.332.093-2.786.113-6.665.393-10.87.9s-8.044,1.126-10.79,1.659c-1.373.253-2.479.493-3.246.666a7.285,7.285,0,0,1-1.2.207,6.715,6.715,0,0,1,1.16-.373c.753-.213,1.853-.493,3.226-.793,2.732-.606,6.551-1.28,10.8-1.793a105.025,105.025,0,0,1,10.917-.766c1.4,0,2.533,0,3.332.04A6.815,6.815,0,0,1,460.657,253.483Z" transform="translate(-397.627 -181.8)" fill="#344154"/>
        <path id="Trazado_106308" data-name="Trazado 106308" d="M400.516,288.148a1.653,1.653,0,0,1-.18-.38l-.447-1.133c-.38-.98-.893-2.419-1.5-4.2-1.22-3.566-2.752-8.544-4.372-14.056s-3.1-10.5-4.245-14.089c-.56-1.746-1.026-3.179-1.366-4.245l-.367-1.153a2.2,2.2,0,0,1-.1-.413,1.332,1.332,0,0,1,.18.38c.12.307.267.666.44,1.133.38.98.893,2.419,1.506,4.2,1.22,3.566,2.753,8.544,4.365,14.062s3.106,10.5,4.252,14.082c.56,1.746,1.02,3.179,1.333,4.245l.367,1.153A1.253,1.253,0,0,1,400.516,288.148Z" transform="translate(-383.599 -180.176)" fill="#344154"/>
        <path id="Trazado_106309" data-name="Trazado 106309" d="M447.891,292.69a1.44,1.44,0,0,1-.413.14l-1.193.313-4.4,1.1c-3.719.926-8.831,2.266-14.482,3.759s-10.783,2.786-14.522,3.639c-1.866.427-3.379.76-4.432.966l-1.213.233a1.818,1.818,0,0,1-.426.047,1.534,1.534,0,0,1,.407-.133l1.2-.313,4.4-1.1c3.712-.926,8.831-2.273,14.482-3.766s10.783-2.786,14.516-3.639c1.866-.427,3.386-.753,4.432-.96l1.213-.233A1.637,1.637,0,0,1,447.891,292.69Z" transform="translate(-389.892 -194.922)" fill="#344154"/>
      </g>
      <rect id="Rectángulo_6376" data-name="Rectángulo 6376" width="333" height="333" transform="translate(0 0)" fill="#344154" opacity="0"/>
      <g id="freepik--background-complete--inject-44" transform="translate(21.487 30.54)">
        <path id="Trazado_106310" data-name="Trazado 106310" d="M36.18,426.54v16.728h3.879a23.472,23.472,0,0,1,0-5.3c.367-1.966,4.559-7.044,4.432-11.4Z" transform="translate(-33.554 -173.038)" fill="#ebebeb"/>
        <path id="Trazado_106311" data-name="Trazado 106311" d="M82.5,426.54v16.728h3.859a23.474,23.474,0,0,1,0-5.3c.367-1.966,4.559-7.044,4.432-11.4Z" transform="translate(-49.004 -173.038)" fill="#e0e0e0"/>
        <path id="Trazado_106312" data-name="Trazado 106312" d="M123.669,426.54v16.728h-3.892a23.471,23.471,0,0,0,0-5.3c-.373-1.966-4.559-7.044-4.439-11.4Z" transform="translate(-59.956 -173.038)" fill="#ebebeb"/>
        <path id="Trazado_106313" data-name="Trazado 106313" d="M163.769,426.54v16.728h-3.859a23.473,23.473,0,0,0,0-5.3c-.367-1.966-4.559-7.044-4.432-11.4Z" transform="translate(-73.344 -173.038)" fill="#e0e0e0"/>
        <rect id="Rectángulo_6377" data-name="Rectángulo 6377" width="92.451" height="83.021" transform="translate(0 171.014)" fill="#f5f5f5"/>
        <path id="Trazado_106314" data-name="Trazado 106314" d="M133.59,302.77l.686,83.021H158.5V302.77Z" transform="translate(-66.044 -131.756)" fill="#e0e0e0"/>
        <rect id="Rectángulo_6378" data-name="Rectángulo 6378" width="59.355" height="21.127" transform="translate(4.159 177.125)" fill="#ebebeb"/>
        <rect id="Rectángulo_6379" data-name="Rectángulo 6379" width="59.355" height="21.127" transform="translate(4.159 202.457)" fill="#ebebeb"/>
        <rect id="Rectángulo_6380" data-name="Rectángulo 6380" width="59.355" height="21.127" transform="translate(4.159 227.796)" fill="#ebebeb"/>
        <path id="Trazado_106315" data-name="Trazado 106315" d="M71.339,266.98,68.78,290.739h32.8L104.3,266.98Z" transform="translate(-44.428 -119.819)" fill="#e0e0e0"/>
        <path id="Trazado_106316" data-name="Trazado 106316" d="M73.4,269.54,70.91,290.327h29.6l2.393-20.787Z" transform="translate(-45.138 -120.673)" fill="#fff"/>
        <path id="Trazado_106317" data-name="Trazado 106317" d="M81.353,274.79l-1.533,13.8H98.5l.96-13.8Z" transform="translate(-48.11 -122.424)" fill="#ebebeb"/>
        <path id="Trazado_106318" data-name="Trazado 106318" d="M119.546,282.33l6.778,13.622L118,295.859l1.546-13.529" transform="translate(-60.844 -124.939)" fill="#ebebeb"/>
        <path id="Trazado_106319" data-name="Trazado 106319" d="M84.1,328.356a2.173,2.173,0,1,1-2.179-2.166h0A2.173,2.173,0,0,1,84.1,328.356Z" transform="translate(-48.086 -139.568)" fill="#e0e0e0"/>
        <path id="Trazado_106320" data-name="Trazado 106320" d="M84.1,366.753a2.176,2.176,0,1,0-.007,0Z" transform="translate(-48.086 -152.372)" fill="#e0e0e0"/>
        <path id="Trazado_106321" data-name="Trazado 106321" d="M84.1,405.153a1.713,1.713,0,1,0-.007.02Z" transform="translate(-48.086 -165.187)" fill="#e0e0e0"/>
        <path id="Trazado_106322" data-name="Trazado 106322" d="M101.167,100.017,48.75,99.51l1.46,68.312,52.417.193Z" transform="translate(-37.747 -63.961)" fill="#e0e0e0"/>
        <path id="Trazado_106323" data-name="Trazado 106323" d="M99.366,104.246,53.48,103.06l1.326,61.954,45.873.566Z" transform="translate(-39.324 -65.145)" fill="#fafafa"/>
        <path id="Trazado_106324" data-name="Trazado 106324" d="M95.341,118.477,64.89,117.97l.933,43.307,30.417-.653Z" transform="translate(-43.13 -70.118)" fill="#ebebeb"/>
        <path id="Trazado_106325" data-name="Trazado 106325" d="M65.823,161.277l29.944-22.9L64.89,117.97Z" transform="translate(-43.13 -70.118)" fill="#f5f5f5"/>
        <path id="Trazado_106326" data-name="Trazado 106326" d="M442.832,46.617,396.84,46.17l1.286,59.935,45.979.167Z" transform="translate(-153.848 -46.17)" fill="#e0e0e0"/>
        <path id="Trazado_106327" data-name="Trazado 106327" d="M441.244,50.336,400.99,49.29l1.166,54.35,40.241.493Z" transform="translate(-155.233 -47.211)" fill="#fafafa"/>
        <path id="Trazado_106328" data-name="Trazado 106328" d="M437.715,62.817,411.01,62.37l.813,37.988,26.685-.566Z" transform="translate(-158.575 -51.573)" fill="#ebebeb"/>
        <path id="Trazado_106329" data-name="Trazado 106329" d="M411.823,100.358l26.272-20.087L411.01,62.37Z" transform="translate(-158.575 -51.573)" fill="#f5f5f5"/>
        <path id="Trazado_106330" data-name="Trazado 106330" d="M388.548,384.94c-.193.586,6.665,26.658,6.665,26.658l4.705-.98-6.471-25.679Z" transform="translate(-151.081 -159.163)" fill="#ebebeb"/>
        <path id="Trazado_106331" data-name="Trazado 106331" d="M438.55,379.35l-9.41,30.384h5.492l9.017-28.225Z" transform="translate(-164.622 -157.299)" fill="#f5f5f5"/>
        <path id="Trazado_106332" data-name="Trazado 106332" d="M450.8,372.29,440.02,407.379h5.492l10.39-32.93Z" transform="translate(-168.251 -154.944)" fill="#ebebeb"/>
        <path id="Trazado_106333" data-name="Trazado 106333" d="M393.55,421.71l5.492,19.014H426.68l5.1-19.014Z" transform="translate(-152.751 -171.427)" fill="#e0e0e0"/>
        <path id="Trazado_106334" data-name="Trazado 106334" d="M408.059,402.078a.883.883,0,0,1-.06-.2l-.147-.58c-.127-.533-.3-1.286-.526-2.246l-1.893-8.3-6.2-27.691.167.14h-4.839l.167-.213c2.459,10.9,4.665,20.66,6.245,27.711.773,3.512,1.4,6.345,1.839,8.331.2.966.367,1.719.48,2.259.047.247.087.44.113.586a.54.54,0,0,1,0,.207.878.878,0,0,1-.06-.2c-.04-.147-.087-.34-.147-.58-.133-.533-.313-1.286-.547-2.246-.46-2-1.12-4.805-1.939-8.3-1.619-7.051-3.852-16.8-6.345-27.691l-.053-.207h5.2v.133c2.393,10.9,4.545,20.66,6.1,27.711.753,3.512,1.366,6.345,1.793,8.331.2.966.353,1.719.467,2.259l.113.586A.786.786,0,0,1,408.059,402.078Z" transform="translate(-153.004 -151.795)" fill="#e0e0e0"/>
      </g>
      <g id="freepik--Checklist--inject-44" transform="translate(92.351 34.066)">
        <rect id="Rectángulo_6381" data-name="Rectángulo 6381" width="161.623" height="221.465" transform="translate(0 17.575)" fill="#455a64"/>
        <path id="Trazado_106335" data-name="Trazado 106335" d="M300.54,290.605H158.77V91.26H300.54V290.605Z" transform="translate(-145.307 -64.735)" fill="#e0e0e0"/>
        <path id="Trazado_106336" data-name="Trazado 106336" d="M297.817,285.589H157.32V87.31h140.5V285.589Z" transform="translate(-144.824 -63.417)" fill="#ebebeb"/>
        <path id="Trazado_106337" data-name="Trazado 106337" d="M281.41,270.41l-16.182,13.176H153.39V88.06H295.16v171.2Z" transform="translate(-143.513 -63.668)" fill="#fafafa"/>
        <path id="Trazado_106338" data-name="Trazado 106338" d="M281.324,270.3s.287-.247.866-.72l2.593-2.119,10.257-8.351v.04c0-28.125-.053-90.639-.1-171.2l.153.16H153.323l.173-.173c0,73.511,0,141.323-.04,195.526l-.133-.14,111.839.08h-.04l12.156-9.857,3.046-2.459c.666-.546,1.02-.813,1.02-.813l-1,.833-3.046,2.526-12.116,9.9h0L153.3,283.63h-.14v-.14c0-54.2,0-122.016-.033-195.526V87.79h142.1v.14c-.047,80.588-.087,143.076-.1,171.2h0l-10.3,8.311-2.606,2.179Z" transform="translate(-143.426 -63.577)" fill="#344154"/>
        <path id="Trazado_106339" data-name="Trazado 106339" d="M226.127,67.56h38.755a9.437,9.437,0,0,1,9.43,9.43V87.447H216.29V77.39a9.844,9.844,0,0,1,9.837-9.83Z" transform="translate(-164.493 -56.83)" fill="#d9a171"/>
        <path id="Trazado_106340" data-name="Trazado 106340" d="M236.559,62.19,234.44,51.46h33.41L265.99,62.19Z" transform="translate(-170.546 -51.46)" fill="#d9a171"/>
        <path id="Trazado_106341" data-name="Trazado 106341" d="M199.519,158.686H175.64V134.8h23.879Zm-23.213-.666h22.546V135.466H176.306Z" transform="translate(-150.934 -79.257)" fill="#d9a171"/>
        <path id="Trazado_106342" data-name="Trazado 106342" d="M300.954,143.373c0,.093-16.628.173-37.129.173s-37.135-.08-37.135-.173,16.622-.173,37.135-.173S300.954,143.273,300.954,143.373Z" transform="translate(-167.961 -82.059)" fill="#344154"/>
        <path id="Trazado_106343" data-name="Trazado 106343" d="M300.954,150.813c0,.1-16.628.173-37.129.173s-37.135-.073-37.135-.173,16.622-.173,37.135-.173S300.954,150.72,300.954,150.813Z" transform="translate(-167.961 -84.54)" fill="#344154"/>
        <path id="Trazado_106344" data-name="Trazado 106344" d="M300.954,158.263c0,.093-16.628.173-37.129.173s-37.135-.08-37.135-.173,16.622-.173,37.135-.173S300.954,158.17,300.954,158.263Z" transform="translate(-167.961 -87.025)" fill="#344154"/>
        <path id="Trazado_106345" data-name="Trazado 106345" d="M300.954,165.713c0,.093-16.628.173-37.129.173s-37.135-.08-37.135-.173,16.622-.173,37.135-.173S300.954,165.607,300.954,165.713Z" transform="translate(-167.961 -89.51)" fill="#344154"/>
        <path id="Trazado_106346" data-name="Trazado 106346" d="M199.519,213.906H175.64V190h23.879Zm-23.213-.666h22.546V190.666H176.306Z" transform="translate(-150.934 -97.669)" fill="#d9a171"/>
        <path id="Trazado_106347" data-name="Trazado 106347" d="M182.76,203.223l3.172-3.406,5.285,4.225,12.1-11.743,2.9,3.419-15.229,15.022Z" transform="translate(-153.309 -98.436)" fill="#d9a171"/>
        <path id="Trazado_106348" data-name="Trazado 106348" d="M300.954,198.6c0,.093-16.628.173-37.129.173s-37.135-.08-37.135-.173,16.622-.173,37.135-.173S300.954,198.51,300.954,198.6Z" transform="translate(-167.961 -100.48)" fill="#344154"/>
        <path id="Trazado_106349" data-name="Trazado 106349" d="M300.954,206.053c0,.093-16.628.173-37.129.173s-37.135-.08-37.135-.173,16.622-.173,37.135-.173S300.954,205.96,300.954,206.053Z" transform="translate(-167.961 -102.965)" fill="#344154"/>
        <path id="Trazado_106350" data-name="Trazado 106350" d="M300.954,213.493c0,.1-16.628.173-37.129.173s-37.135-.073-37.135-.173,16.622-.173,37.135-.173S300.954,213.4,300.954,213.493Z" transform="translate(-167.961 -105.447)" fill="#344154"/>
        <path id="Trazado_106351" data-name="Trazado 106351" d="M300.954,220.913c0,.093-16.628.173-37.129.173s-37.135-.08-37.135-.173,16.622-.173,37.135-.173S300.954,220.84,300.954,220.913Z" transform="translate(-167.961 -107.922)" fill="#344154"/>
        <path id="Trazado_106352" data-name="Trazado 106352" d="M199.519,267.366H175.64V243.48h23.879Zm-23.213-.666h22.546V244.146H176.306Z" transform="translate(-150.934 -115.506)" fill="#d9a171"/>
        <path id="Trazado_106353" data-name="Trazado 106353" d="M182.76,256.673l3.172-3.406,5.285,4.225,12.1-11.743,2.9,3.419-15.229,15.022Z" transform="translate(-153.309 -116.263)" fill="#d9a171"/>
        <path id="Trazado_106354" data-name="Trazado 106354" d="M300.954,252.053c0,.093-16.628.173-37.129.173s-37.135-.08-37.135-.173,16.622-.173,37.135-.173S300.954,251.96,300.954,252.053Z" transform="translate(-167.961 -118.308)" fill="#344154"/>
        <path id="Trazado_106355" data-name="Trazado 106355" d="M300.954,259.493c0,.1-16.628.173-37.129.173s-37.135-.073-37.135-.173,16.622-.173,37.135-.173S300.954,259.4,300.954,259.493Z" transform="translate(-167.961 -120.789)" fill="#344154"/>
        <path id="Trazado_106356" data-name="Trazado 106356" d="M300.954,266.913c0,.1-16.628.173-37.129.173s-37.135-.073-37.135-.173,16.622-.173,37.135-.173S300.954,266.84,300.954,266.913Z" transform="translate(-167.961 -123.264)" fill="#344154"/>
        <path id="Trazado_106357" data-name="Trazado 106357" d="M300.954,274.393c0,.093-16.628.173-37.129.173s-37.135-.08-37.135-.173,16.622-.173,37.135-.173S300.954,274.3,300.954,274.393Z" transform="translate(-167.961 -125.759)" fill="#344154"/>
        <path id="Trazado_106358" data-name="Trazado 106358" d="M199.519,318.976H175.64V295.09h23.879Zm-23.213-.666h22.546V295.756H176.306Z" transform="translate(-150.934 -132.72)" fill="#d9a171"/>
        <path id="Trazado_106359" data-name="Trazado 106359" d="M182.76,308.283l3.172-3.406,5.285,4.225,12.1-11.743,2.9,3.412-15.229,15.022Z" transform="translate(-153.309 -133.477)" fill="#d9a171"/>
        <path id="Trazado_106360" data-name="Trazado 106360" d="M300.954,303.653c0,.1-16.628.173-37.129.173s-37.135-.073-37.135-.173,16.622-.173,37.135-.173S300.954,303.587,300.954,303.653Z" transform="translate(-167.961 -135.519)" fill="#344154"/>
        <path id="Trazado_106361" data-name="Trazado 106361" d="M300.954,311.1c0,.093-16.628.173-37.129.173s-37.135-.08-37.135-.173,16.622-.173,37.135-.173S300.954,311.01,300.954,311.1Z" transform="translate(-167.961 -138.003)" fill="#344154"/>
        <path id="Trazado_106362" data-name="Trazado 106362" d="M300.954,318.553c0,.093-16.628.173-37.129.173s-37.135-.08-37.135-.173,16.622-.173,37.135-.173S300.954,318.453,300.954,318.553Z" transform="translate(-167.961 -140.488)" fill="#344154"/>
        <path id="Trazado_106363" data-name="Trazado 106363" d="M300.954,325.993c0,.1-16.628.173-37.129.173s-37.135-.073-37.135-.173,16.622-.173,37.135-.173S300.954,325.9,300.954,325.993Z" transform="translate(-167.961 -142.97)" fill="#344154"/>
        <path id="Trazado_106364" data-name="Trazado 106364" d="M320.092,332.87,304.55,365.06h11.1Z" transform="translate(-193.931 -145.321)" fill="#e0e0e0"/>
        <path id="Trazado_106365" data-name="Trazado 106365" d="M321.2,365.33l4.445-32.19L351.131,341Z" transform="translate(-199.484 -145.411)" fill="#fafafa"/>
        <path id="Trazado_106366" data-name="Trazado 106366" d="M321.2,365.21l8.571-7.058,21.287-17.4.06.293-9.844-3.026-15.615-4.845.207-.133c-1.333,9.33-2.473,17.361-3.279,23.053-.806,5.538-1.22,8.4-1.333,9.117v-.147l.06-.44c.053-.42.127-1.006.227-1.753.207-1.566.5-3.812.873-6.665.773-5.738,1.853-13.809,3.112-23.239v-.187l.18.053,15.655,4.825L351.2,340.7l.307.093-.247.2c-8.6,6.938-16.128,13-21.513,17.328l-6.285,5.045-1.68,1.333-.427.34Z" transform="translate(-199.484 -145.291)" fill="#344154"/>
        <g id="Grupo_60096" data-name="Grupo 60096" transform="translate(93.151)" opacity="0.3">
          <path id="Trazado_106367" data-name="Trazado 106367" d="M280.179,51.46,278.34,62.19h2.293l1.859-10.73h-2.926" transform="translate(-278.34 -51.46)"/>
        </g>
      </g>
      <g id="freepik--Character--inject-44" transform="translate(57.802 97.346)">
        <path id="Trazado_106368" data-name="Trazado 106368" d="M131.748,203.416h0a6,6,0,0,0,6.431-5.525v-.22c.127-3.266.24-6.565.24-6.565s4.945-.46,5.332-5.332.193-16.188.193-16.188h0a17.048,17.048,0,0,0-17.235,1.106l.3,17.221v9.27C127.03,200.263,128.649,203.183,131.748,203.416Z" transform="translate(-100.065 -153.531)" fill="#ffbe9d"/>
        <path id="Trazado_106369" data-name="Trazado 106369" d="M137.578,177.684a2.519,2.519,0,0,0-3.332-.733,2.846,2.846,0,0,0-.946,3.559,3.739,3.739,0,0,0,2.4,1.813,1.886,1.886,0,0,1,1.473,2,6.265,6.265,0,0,1-1.719,3.406,8.991,8.991,0,0,1-5.665,2.666c-2.086.247-4.472-.187-5.685-1.9a7.764,7.764,0,0,1-.98-4.405q-.107-5.4-.227-10.823a15.822,15.822,0,0,1,.247-3.885,5.218,5.218,0,0,1,2.053-3.212c1.193-.786,2.666-.853,4.052-1.286a33.656,33.656,0,0,0,4.725-2.486c1.586-.813,3.526-1.3,5.118-.5,1.146.573,1.913,1.713,3.019,2.346,1.586.9,3.739.666,4.505,3.026a4,4,0,0,1,0,2.486,5.754,5.754,0,0,1-7.818,3.079,7.668,7.668,0,0,1-.093,3.419c-.18.547-.24,1.366-1.086,1.386" transform="translate(-98.783 -151.439)" fill="#344154"/>
        <path id="Trazado_106370" data-name="Trazado 106370" d="M120.521,165.229a16.575,16.575,0,0,0,1.573-4.918,5.645,5.645,0,0,0-1.54-4.752,4.665,4.665,0,0,0-3.226-1.14,5.458,5.458,0,0,0-4.918,3.9,5.865,5.865,0,0,0,2,6,6.365,6.365,0,0,0,6.345.826" transform="translate(-95.236 -149.08)" fill="#344154"/>
        <path id="Trazado_106371" data-name="Trazado 106371" d="M124.949,168a2.413,2.413,0,0,1-2.319,2.266,8.4,8.4,0,0,0,1.333-.933C124.576,168.666,124.876,168,124.949,168Z" transform="translate(-98.704 -153.611)" fill="#d9a171"/>
        <path id="Trazado_106372" data-name="Trazado 106372" d="M120.907,167.562a4.438,4.438,0,0,1-1.333.966,3.752,3.752,0,0,1-1.746.5,2.433,2.433,0,0,1-2.046-.92,2.7,2.7,0,0,1-.36-2.213,4.332,4.332,0,0,1,.82-1.619,5.2,5.2,0,0,1,1.16-1.166c-.3.46-.62.906-.96,1.333a4.465,4.465,0,0,0-.706,1.546,2.453,2.453,0,0,0,.327,1.939,2.179,2.179,0,0,0,1.766.8,3.786,3.786,0,0,0,1.639-.4,14.306,14.306,0,0,1,1.44-.766Z" transform="translate(-96.268 -151.98)" fill="#344154"/>
        <path id="Trazado_106373" data-name="Trazado 106373" d="M111.22,175.6a2.406,2.406,0,0,1,.233.54,5.478,5.478,0,0,0,.726,1.4,2,2,0,0,0,1.913.88,2.666,2.666,0,0,0,1.846-1.859,18.475,18.475,0,0,0,.5-2.839,4.425,4.425,0,0,1,.933-2.246,2.532,2.532,0,0,1,1.426-.813.973.973,0,0,1,.6.053,2.879,2.879,0,0,0-.573.08,2.453,2.453,0,0,0-1.266.84,4.359,4.359,0,0,0-.806,2.133,17.068,17.068,0,0,1-.487,2.906,2.912,2.912,0,0,1-2.113,2.059,2,2,0,0,1-1.333-.253,2.726,2.726,0,0,1-.84-.793,4.738,4.738,0,0,1-.666-1.5,1.593,1.593,0,0,1-.093-.586Z" transform="translate(-94.898 -154.489)" fill="#344154"/>
        <path id="Trazado_106374" data-name="Trazado 106374" d="M107.054,239.76s-2.5,18.274,0,20.594a5.27,5.27,0,0,0,4.925,1.553l4.752-4,.933-18.168Z" transform="translate(-93.138 -177.539)" fill="#ffbe9d"/>
        <path id="Trazado_106375" data-name="Trazado 106375" d="M185.06,157.333l3.172-3.406,5.285,4.225,12.1-11.743,2.9,3.419-15.229,15.022Z" transform="translate(-119.527 -146.41)" fill="#d9a171"/>
        <path id="Trazado_106376" data-name="Trazado 106376" d="M193.885,164.19l-4.6,2.952c-.207-1.819-1.593-3.619-1.526-2.706s0,5.652,0,5.652l-8.191,17.255a8.176,8.176,0,0,1-5.058,4.859l-7.671,2.279,2.992,10.124,10.663-3.532a9.164,9.164,0,0,0,5.831-5.845l7.331-22.34a34.5,34.5,0,0,0,1.173-4.4A8.379,8.379,0,0,0,193.885,164.19Z" transform="translate(-113.45 -152.34)" fill="#ffbe9d"/>
        <path id="Trazado_106377" data-name="Trazado 106377" d="M146.034,444.8l-.12-5.112-9.584.153.087,7.484.6.033c2.666.1,13.469.34,15.229-.22C154.2,446.508,146.034,444.8,146.034,444.8Z" transform="translate(-103.274 -244.23)" fill="#d9a171"/>
        <g id="Grupo_60097" data-name="Grupo 60097" transform="translate(33.11 200.321)" opacity="0.5">
          <path id="Trazado_106378" data-name="Trazado 106378" d="M139.922,449.66a3.332,3.332,0,0,0-1.26-2,3.259,3.259,0,0,0-2.253-.666l.04,2.666Z" transform="translate(-136.41 -446.984)" fill="#fff"/>
        </g>
        <g id="Grupo_60098" data-name="Grupo 60098" transform="translate(33.116 201.551)" opacity="0.4">
          <path id="Trazado_106379" data-name="Trazado 106379" d="M150.029,448.83s2.866.773,2.519,1.253-11.29.666-16.128.293v-.213l12.769-.087S149.5,448.863,150.029,448.83Z" transform="translate(-136.42 -448.83)" fill="#fff"/>
        </g>
        <path id="Trazado_106380" data-name="Trazado 106380" d="M136.25,450.687h.666l1.746.047c1.473.033,3.506.047,5.752,0s4.285-.107,5.752-.18l1.746-.1.473-.033h-.48l-1.739.067c-1.473.047-3.506.113-5.752.147s-4.279,0-5.752,0h-2.406Z" transform="translate(-103.247 -247.809)" fill="#344154"/>
        <path id="Trazado_106381" data-name="Trazado 106381" d="M155.638,450.169a3.508,3.508,0,0,1,.313-.833,3.925,3.925,0,0,1,.58-.666,1.566,1.566,0,0,0-.893,1.513Z" transform="translate(-109.713 -247.226)" fill="#344154"/>
        <path id="Trazado_106382" data-name="Trazado 106382" d="M151.358,448.429a2,2,0,0,0,.3-.367c.14-.22.22-.42.193-.433s-.16.147-.293.367S151.331,448.416,151.358,448.429Z" transform="translate(-108.284 -246.878)" fill="#344154"/>
        <path id="Trazado_106383" data-name="Trazado 106383" d="M150.188,447.965a1.533,1.533,0,0,0,.333-.233c.167-.153.273-.293.253-.313s-.173.08-.333.227S150.161,447.939,150.188,447.965Z" transform="translate(-107.895 -246.807)" fill="#344154"/>
        <path id="Trazado_106384" data-name="Trazado 106384" d="M149.43,446.858a.986.986,0,0,0,.5.053,1.066,1.066,0,0,0,.5-.06,1.406,1.406,0,0,0-.5-.053,1.273,1.273,0,0,0-.5.06Z" transform="translate(-107.643 -246.6)" fill="#344154"/>
        <path id="Trazado_106385" data-name="Trazado 106385" d="M149.16,445.94a1.413,1.413,0,0,0,1.14.067,4.12,4.12,0,0,0-.573,0,3.2,3.2,0,0,0-.566-.067Z" transform="translate(-107.553 -246.315)" fill="#344154"/>
        <path id="Trazado_106386" data-name="Trazado 106386" d="M151.84,447.14a1.579,1.579,0,0,0,.613,0,3.334,3.334,0,0,0,.666-.153,2,2,0,0,0,.373-.16.3.3,0,0,0,.153-.193.26.26,0,0,0-.1-.247,1.14,1.14,0,0,0-1.393.353,1.379,1.379,0,0,0-.193.413.353.353,0,0,0,0,.167,2,2,0,0,1,.273-.526,1.266,1.266,0,0,1,.52-.353,1.013,1.013,0,0,1,.74.04c.093.073.06.187-.047.253a1.774,1.774,0,0,1-.347.153,3.925,3.925,0,0,1-.666.173C152.067,447.12,151.84,447.12,151.84,447.14Z" transform="translate(-108.447 -246.429)" fill="#344154"/>
        <path id="Trazado_106387" data-name="Trazado 106387" d="M151.661,447.05a.593.593,0,0,0,.067-.427,1.093,1.093,0,0,0-.18-.447.626.626,0,0,0-.513-.307.247.247,0,0,0-.187.287h0a.666.666,0,0,0,.107.273,1.447,1.447,0,0,0,.3.367.773.773,0,0,0,.353.247,4.109,4.109,0,0,1-.293-.3,2.459,2.459,0,0,1-.267-.366c-.087-.127-.147-.36,0-.393s.313.133.407.253a1.153,1.153,0,0,1,.187.4A2.173,2.173,0,0,1,151.661,447.05Z" transform="translate(-108.114 -246.292)" fill="#344154"/>
        <path id="Trazado_106388" data-name="Trazado 106388" d="M136.49,446.832h.706a3.019,3.019,0,0,1,2.539,1.959c.153.407.173.666.193.666a.473.473,0,0,0,0-.193,2.72,2.72,0,0,0-.113-.513,2.926,2.926,0,0,0-2.613-2,2.322,2.322,0,0,0-.527,0A.587.587,0,0,0,136.49,446.832Z" transform="translate(-103.327 -246.581)" fill="#344154"/>
        <path id="Trazado_106389" data-name="Trazado 106389" d="M137.858,440.88a14.9,14.9,0,0,0-.053,1.966,16.666,16.666,0,0,0,.06,2,15.381,15.381,0,0,0,.053-2A19.371,19.371,0,0,0,137.858,440.88Z" transform="translate(-103.762 -244.627)" fill="#344154"/>
        <path id="Trazado_106390" data-name="Trazado 106390" d="M143.46,449.513a5.525,5.525,0,0,0,1.406.113,4.948,4.948,0,0,0,1.4-.133c0-.033-.666,0-1.4,0a12.845,12.845,0,0,0-1.406.02Z" transform="translate(-105.652 -247.495)" fill="#344154"/>
        <path id="Trazado_106391" data-name="Trazado 106391" d="M140.65,449.558l.113.28c.06.147.107.267.14.267s.047-.153-.033-.32S140.67,449.538,140.65,449.558Z" transform="translate(-104.714 -247.521)" fill="#344154"/>
        <path id="Trazado_106392" data-name="Trazado 106392" d="M139.56,448.257a.593.593,0,0,0,.147.22c.107.1.2.16.22.14s-.04-.127-.14-.22S139.587,448.231,139.56,448.257Z" transform="translate(-104.351 -247.086)" fill="#344154"/>
        <path id="Trazado_106393" data-name="Trazado 106393" d="M138,447.614a.666.666,0,0,1,.28.073c.14.073.24.12.267.1s-.053-.153-.233-.207A.393.393,0,0,0,138,447.614Z" transform="translate(-103.831 -246.856)" fill="#344154"/>
        <path id="Trazado_106394" data-name="Trazado 106394" d="M137,447.4a.233.233,0,0,0,.12.107c.08,0,.153.033.167,0s-.047-.08-.127-.107S137,447.365,137,447.4Z" transform="translate(-103.497 -246.794)" fill="#344154"/>
        <path id="Trazado_106395" data-name="Trazado 106395" d="M95.677,439.86l3.246-3.939-7.331-6.151L86.78,435.5l.427.413c1.939,1.806,10,9.044,11.69,9.764C100.762,446.485,95.677,439.86,95.677,439.86Z" transform="translate(-86.747 -240.922)" fill="#d9a171"/>
        <g id="Grupo_60099" data-name="Grupo 60099" transform="translate(0.073 192.441)" opacity="0.5">
          <path id="Trazado_106396" data-name="Trazado 106396" d="M89.506,439.479a3.332,3.332,0,0,0,.367-2.353,3.232,3.232,0,0,0-1.28-1.966l-1.753,2.046Z" transform="translate(-86.84 -435.16)" fill="#fff"/>
        </g>
        <g id="Grupo_60100" data-name="Grupo 60100" transform="translate(0 194.427)" opacity="0.4">
          <path id="Trazado_106397" data-name="Trazado 106397" d="M98.053,446s1.666,2.459,1.093,2.593-9.011-6.878-12.416-10.3l.147-.153,9.737,8.264S97.607,445.658,98.053,446Z" transform="translate(-86.73 -438.14)" fill="#fff"/>
        </g>
        <path id="Trazado_106398" data-name="Trazado 106398" d="M86.78,438l.113.12.347.327,1.293,1.173c1.093.98,2.626,2.319,4.352,3.759s3.332,2.713,4.479,3.619l1.386,1.06.38.28.14.093-.127-.113-.367-.3-1.333-1.086c-1.153-.92-2.732-2.2-4.459-3.639s-3.266-2.766-4.372-3.732l-1.333-1.146-.36-.313Z" transform="translate(-86.747 -243.667)" fill="#344154"/>
        <path id="Trazado_106399" data-name="Trazado 106399" d="M101.41,450.389a3.752,3.752,0,0,1,.786-.433,4.835,4.835,0,0,1,.88-.133,1.453,1.453,0,0,0-1.666.567Z" transform="translate(-91.626 -247.585)" fill="#344154"/>
        <path id="Trazado_106400" data-name="Trazado 106400" d="M99.53,446.18c0,.033.22,0,.467-.087s.447-.167.433-.2-.22,0-.467.087a1.227,1.227,0,0,0-.433.2Z" transform="translate(-90.999 -246.295)" fill="#344154"/>
        <path id="Trazado_106401" data-name="Trazado 106401" d="M99,445.073a1.44,1.44,0,0,0,.407.047c.227,0,.4-.04.4-.073s-.187-.053-.407-.047a.907.907,0,0,0-.4.073Z" transform="translate(-90.823 -246.001)" fill="#344154"/>
        <path id="Trazado_106402" data-name="Trazado 106402" d="M99.33,443.635a2.252,2.252,0,0,0,.347.366,1.206,1.206,0,0,0,.42.287,2.141,2.141,0,0,0-.347-.373C99.537,443.735,99.357,443.581,99.33,443.635Z" transform="translate(-90.933 -245.542)" fill="#344154"/>
        <path id="Trazado_106403" data-name="Trazado 106403" d="M99.75,442.7a1.373,1.373,0,0,0,.82.793,4.661,4.661,0,0,0-.413-.393C99.917,442.9,99.81,442.658,99.75,442.7Z" transform="translate(-91.073 -245.232)" fill="#344154"/>
        <path id="Trazado_106404" data-name="Trazado 106404" d="M100.69,445.557a1.672,1.672,0,0,0,.473.393,3,3,0,0,0,.6.307,1.642,1.642,0,0,0,.387.127.307.307,0,0,0,.24-.053.247.247,0,0,0,.087-.247,1.14,1.14,0,0,0-1.286-.666,1.086,1.086,0,0,0-.42.187.668.668,0,0,0-.12.113,2.087,2.087,0,0,1,.553-.22,1.186,1.186,0,0,1,.626.073.966.966,0,0,1,.533.507.153.153,0,0,1-.2.167,1.735,1.735,0,0,1-.36-.113,3.22,3.22,0,0,1-.593-.28,2.25,2.25,0,0,1-.52-.293Z" transform="translate(-91.373 -246.132)" fill="#344154"/>
        <path id="Trazado_106405" data-name="Trazado 106405" d="M100.769,445.2a.727.727,0,0,0,.333-.28,1.053,1.053,0,0,0,.16-.453.667.667,0,0,0-.193-.573.253.253,0,0,0-.333.1.7.7,0,0,0-.093.273,1.873,1.873,0,0,0,0,.473.84.84,0,0,0,.107.42v-.42a2.665,2.665,0,0,1,.04-.453c0-.153.12-.367.26-.293s.147.307.147.46a1.026,1.026,0,0,1-.127.42,1.745,1.745,0,0,1-.3.327Z" transform="translate(-91.365 -245.624)" fill="#344154"/>
        <path id="Trazado_106406" data-name="Trazado 106406" d="M89.53,435.16a3.664,3.664,0,0,1,.527.467,3.092,3.092,0,0,1,.78,1.48,3.019,3.019,0,0,1-.133,1.666c-.153.413-.32.633-.3.666a.474.474,0,0,0,.127-.153,2.173,2.173,0,0,0,.247-.46,2.866,2.866,0,0,0,.173-1.719,2.993,2.993,0,0,0-.833-1.513,2.78,2.78,0,0,0-.413-.327A.579.579,0,0,0,89.53,435.16Z" transform="translate(-87.664 -242.719)" fill="#344154"/>
        <path id="Trazado_106407" data-name="Trazado 106407" d="M93.223,431.51a16.237,16.237,0,0,0-1.333,1.46,19.459,19.459,0,0,0-1.24,1.533,15.329,15.329,0,0,0,1.333-1.453,18.4,18.4,0,0,0,1.24-1.54Z" transform="translate(-88.037 -241.502)" fill="#344154"/>
        <path id="Trazado_106408" data-name="Trazado 106408" d="M93.09,441.71a5.392,5.392,0,0,0,.986,1,4.946,4.946,0,0,0,1.153.813s-.487-.4-1.073-.9a10.658,10.658,0,0,0-1.066-.913Z" transform="translate(-88.851 -244.904)" fill="#344154"/>
        <path id="Trazado_106409" data-name="Trazado 106409" d="M90.847,439.9s-.047.133-.087.287-.1.267-.073.287.133-.08.187-.26S90.893,439.893,90.847,439.9Z" transform="translate(-88.048 -244.3)" fill="#344154"/>
        <path id="Trazado_106410" data-name="Trazado 106410" d="M90.99,438.2a.416.416,0,0,0,0,.26c.047.14.047.253.08.253s.047-.12,0-.26S90.99,438.2,90.99,438.2Z" transform="translate(-88.144 -243.733)" fill="#344154"/>
        <path id="Trazado_106411" data-name="Trazado 106411" d="M90.18,436.756c0,.033.087.113.16.24s.107.253.14.253.053-.153-.04-.313S90.193,436.73,90.18,436.756Z" transform="translate(-87.881 -243.25)" fill="#344154"/>
        <path id="Trazado_106412" data-name="Trazado 106412" d="M89.53,435.85v.167a.12.12,0,0,0,.127.107v-.167a.12.12,0,0,0-.127-.107Z" transform="translate(-87.664 -242.949)" fill="#344154"/>
        <path id="Trazado_106413" data-name="Trazado 106413" d="M116.011,283.936s-3.192,13.5-2.286,16.175,6.751,4.212,6.751,4.212l-.2,36.982L87.94,381.293l11.93,9.79s35.016-40.048,38.1-47.319-2-60.415-2-60.415Z" transform="translate(-87.134 -192.085)" fill="#344154"/>
        <path id="Trazado_106414" data-name="Trazado 106414" d="M141.319,276,142.9,388.312l-16.442.1L118.2,296.9h0c-1.746-1.666-4.205-4.519-3.865-10.883l.4-7.391Z" transform="translate(-95.926 -189.633)" fill="#344154"/>
        <path id="Trazado_106415" data-name="Trazado 106415" d="M128.84,356.466a.82.82,0,0,1,.093-.167c.087-.12.187-.273.313-.46l1.22-1.726,4.465-6.185v.08c-.36-3.9-.793-8.624-1.26-13.722-.6-6.665-1.08-12.729-1.366-17.121-.147-2.193-.24-4-.293-5.192,0-.586-.04-1.06-.047-1.42a2.034,2.034,0,0,1,0-.493,3.212,3.212,0,0,1,.06.493c0,.353.067.826.113,1.413.1,1.26.233,3.019.407,5.185.347,4.379.866,10.423,1.466,17.1.447,5.118.9,9.837,1.2,13.756v.087l-4.565,6.1-1.286,1.686-.347.433Z" transform="translate(-100.775 -200.994)" fill="#455a64"/>
        <path id="Trazado_106416" data-name="Trazado 106416" d="M132.091,309.156a21.877,21.877,0,0,1-4.359-.667,21.818,21.818,0,0,1-4.252-1.16,36.65,36.65,0,0,1,4.325.82,39.2,39.2,0,0,1,4.285,1.006Z" transform="translate(-98.988 -200.083)" fill="#455a64"/>
        <path id="Trazado_106417" data-name="Trazado 106417" d="M148.791,366.871a16.766,16.766,0,0,0-4.439-1.16,17.02,17.02,0,0,0-4.572.447,3.713,3.713,0,0,1,1.28-.5,10.2,10.2,0,0,1,3.332-.293,10.385,10.385,0,0,1,3.226.806,4,4,0,0,1,1.173.7Z" transform="translate(-104.424 -219.43)" fill="#455a64"/>
        <path id="Trazado_106418" data-name="Trazado 106418" d="M151.516,375.42c.073.06-4.552,6.271-10.337,13.869s-10.537,13.722-10.61,13.669,4.552-6.271,10.337-13.876S151.45,375.36,151.516,375.42Z" transform="translate(-101.352 -222.794)" fill="#455a64"/>
        <path id="Trazado_106419" data-name="Trazado 106419" d="M154.517,288.043a2.813,2.813,0,0,1-.926,1.226,4.592,4.592,0,0,1-6.478-.427,3.189,3.189,0,0,1-.227-.28,2.666,2.666,0,0,1-.666-1.393,12.95,12.95,0,0,0,.84,1.233,4.559,4.559,0,0,0,6.365.666A13.2,13.2,0,0,0,154.517,288.043Z" transform="translate(-106.572 -193.359)" fill="#455a64"/>
        <path id="Trazado_106420" data-name="Trazado 106420" d="M122.706,191.764a14.342,14.342,0,0,1-.78-19.994" transform="translate(-97.241 -154.869)" fill="#344154"/>
        <path id="Trazado_106421" data-name="Trazado 106421" d="M108.912,217.49s-3.572,4.039-4.312,19.481c0,0,10.177,1.933,10.363,1.38S108.912,217.49,108.912,217.49Z" transform="translate(-92.69 -170.118)" fill="#d9a171"/>
        <g id="Grupo_60101" data-name="Grupo 60101" transform="translate(11.91 47.372)" opacity="0.3">
          <path id="Trazado_106422" data-name="Trazado 106422" d="M108.912,217.49s-3.572,4.039-4.312,19.481c0,0,10.177,1.933,10.363,1.38S108.912,217.49,108.912,217.49Z" transform="translate(-104.6 -217.49)"/>
        </g>
        <path id="Trazado_106423" data-name="Trazado 106423" d="M112.178,258.694h31.25l-.507-4.885s-3.572-18.568-3.546-18.814l.56-1.18a11.776,11.776,0,0,0,.14-9.83h0l15.329-5.232-3.746-12.623c-6.945,1.166-17.441,2.479-17.441,2.479l-1.56.127s-10.837.566-11.07.593c-4.532.553-9.8.9-11.73,5.752-1.033,2.593-.053,6.485,1.633,10.5l4,12.33c1.6,6.778-.953,6.451-2.359,13.276C112.9,252.2,112.158,257.734,112.178,258.694Z" transform="translate(-94.303 -166.329)" fill="#d9a171"/>
        <g id="Grupo_60102" data-name="Grupo 60102" transform="translate(15.132 39.801)" opacity="0.3">
          <path id="Trazado_106424" data-name="Trazado 106424" d="M112.178,258.694h31.25l-.507-4.885s-3.572-18.568-3.546-18.814l.56-1.18a11.776,11.776,0,0,0,.14-9.83h0l15.329-5.232-3.746-12.623c-6.945,1.166-17.441,2.479-17.441,2.479l-1.56.127s-10.837.566-11.07.593c-4.532.553-9.8.9-11.73,5.752-1.033,2.593-.053,6.485,1.633,10.5l4,12.33c1.6,6.778-.953,6.451-2.359,13.276C112.9,252.2,112.158,257.734,112.178,258.694Z" transform="translate(-109.435 -206.13)"/>
        </g>
        <path id="Trazado_106425" data-name="Trazado 106425" d="M169.375,225.36a3.092,3.092,0,0,1-.666.287l-1.886.666c-1.6.54-3.825,1.253-6.278,2.039s-4.665,1.566-6.2,2.206c-.786.32-1.406.6-1.839.786a2.732,2.732,0,0,1-.666.267,3.408,3.408,0,0,1,.626-.393c.42-.22,1.026-.54,1.8-.886a61.607,61.607,0,0,1,6.191-2.306c2.459-.786,4.665-1.466,6.311-1.946.806-.24,1.466-.427,1.919-.553A3.038,3.038,0,0,1,169.375,225.36Z" transform="translate(-108.447 -172.743)" fill="#344154"/>
        <path id="Trazado_106426" data-name="Trazado 106426" d="M154.751,215.183c0,.093-9.244.173-20.66.173s-20.66-.08-20.66-.173,9.237-.173,20.66-.173S154.751,215.09,154.751,215.183Z" transform="translate(-95.635 -169.291)" fill="#fafafa"/>
        <path id="Trazado_106427" data-name="Trazado 106427" d="M153.856,224.393c0,.093-10.283.173-22.966.173s-22.96-.08-22.96-.173,10.277-.173,22.96-.173S153.856,224.3,153.856,224.393Z" transform="translate(-93.801 -172.363)" fill="#fafafa"/>
        <path id="Trazado_106428" data-name="Trazado 106428" d="M109.922,234.9a10.68,10.68,0,0,1-3.832,0,10.679,10.679,0,0,1,3.832,0Z" transform="translate(-93.187 -175.862)" fill="#fafafa"/>
        <path id="Trazado_106429" data-name="Trazado 106429" d="M141.811,235.193c0,.093-6.725.173-15.015.173s-15.015-.08-15.015-.173,6.718-.173,15.015-.173S141.811,235.093,141.811,235.193Z" transform="translate(-95.085 -175.965)" fill="#fafafa"/>
        <path id="Trazado_106430" data-name="Trazado 106430" d="M142.348,245.983c0,.1-6.038.173-13.476.173s-13.482-.073-13.482-.173,6-.173,13.482-.173S142.348,245.89,142.348,245.983Z" transform="translate(-96.289 -179.564)" fill="#fafafa"/>
        <path id="Trazado_106431" data-name="Trazado 106431" d="M143.332,255.993c0,.093-5.465.173-12.21.173s-12.223-.08-12.223-.173,5.472-.173,12.223-.173S143.332,255.893,143.332,255.993Z" transform="translate(-97.46 -182.902)" fill="#fafafa"/>
        <path id="Trazado_106432" data-name="Trazado 106432" d="M144.089,264.083c0,.1-5.852.173-13.069.173s-13.069-.073-13.069-.173,5.852-.173,13.069-.173S144.089,263.97,144.089,264.083Z" transform="translate(-97.143 -185.601)" fill="#fafafa"/>
        <path id="Trazado_106433" data-name="Trazado 106433" d="M144.827,274.4c0,.1-6.665.173-14.869.173s-14.869-.073-14.869-.173,6.665-.173,14.869-.173S144.827,274.31,144.827,274.4Z" transform="translate(-96.189 -189.043)" fill="#fafafa"/>
        <path id="Trazado_106434" data-name="Trazado 106434" d="M115.438,244.845a2.046,2.046,0,0,1-.28-.613l-.666-1.706c-.553-1.44-1.333-3.426-2.133-5.645s-1.473-4.245-1.893-5.732c-.207-.746-.367-1.333-.453-1.773a2.793,2.793,0,0,1-.113-.666,24.653,24.653,0,0,1,.8,2.366c.48,1.466,1.18,3.479,2,5.692s1.54,4.212,2,5.678c.247.733.433,1.333.553,1.746a2.906,2.906,0,0,1,.187.653Z" transform="translate(-94.458 -173.86)" fill="#344154"/>
      </g>
    </g>
  </g>
</svg>
