<?xml version="1.0" encoding="utf-8"?>
<!-- Generator: Adobe Illustrator 25.3.1, SVG Export Plug-In . SVG Version: 6.00 Build 0)  -->
<svg version="1.1" id="Layer_1" xmlns="http://www.w3.org/2000/svg" xmlns:xlink="http://www.w3.org/1999/xlink" x="0px" y="0px"
	 viewBox="0 0 598.3 500" style="enable-background:new 0 0 598.3 500;" xml:space="preserve">
<style type="text/css">
	.st0{fill:#AED3F2;}
	.st1{opacity:0.4;}
	.st2{fill:#344154;}
	.st3{fill:#455A64;}
	.st4{fill:#FFBF9D;}
	.st5{fill:#AA6550;}
	.st6{fill:#FAFAFA;}
	.st7{opacity:0.3;}
	.st8{fill:#E0E0E0;}
	.st9{fill:#F5F5F5;}
	.st10{fill:#EBEBEB;}
	.st11{fill:#FFFFFF;}
</style>
<g id="Grupo_59599">
	<g id="freepik--Character--inject-34">
		<path id="Trazado_103706" class="st0" d="M294.9,478.2l3.1-13l25.4,0.6l-2.1,18.5l-1.6,0.1c-7.2,0.5-36.6,2-41.5,0.6
			C272.9,483.5,294.9,478.2,294.9,478.2z"/>
		<g id="Grupo_59593" class="st1">
			<path id="Trazado_103707" d="M311.8,484.3c0.4-2.2,1.5-4.2,3.3-5.6c1.7-1.4,3.9-2.1,6.1-2l0.1,7.3L311.8,484.3z"/>
		</g>
		<g id="Grupo_59594" class="st1">
			<path id="Trazado_103708" d="M284.1,481.2c0,0-7.7,2.4-6.8,3.6c1,1.2,30.8,0.9,43.8-0.4v-0.6l-34.7,0.7
				C286.5,484.5,285.6,481.2,284.1,481.2z"/>
		</g>
		<path id="Trazado_103709" class="st2" d="M321.6,483.7c-0.1,0-0.3,0.1-0.5,0.1l-1.3,0.1l-4.7,0.3c-4,0.2-9.5,0.4-15.6,0.5
			c-6.2,0.1-11.6,0-15.6,0l-4.7-0.1h-1.7c0.1,0,0.3,0,0.5,0h21.6c6.2,0,11.6-0.2,15.6-0.4l4.7-0.2h1.3L321.6,483.7z"/>
		<path id="Trazado_103710" class="st2" d="M286.5,484.9c-0.2-0.8-0.5-1.5-0.9-2.3c-0.5-0.7-1-1.3-1.6-1.8
			C285.5,481.6,286.5,483.2,286.5,484.9L286.5,484.9z"/>
		<path id="Trazado_103711" class="st2" d="M294.1,480.9c-0.3-0.3-0.6-0.6-0.8-1c-0.4-0.6-0.6-1.1-0.6-1.2c0.1-0.1,0.5,0.4,0.8,1
			S294.2,480.9,294.1,480.9z"/>
		<path id="Trazado_103712" class="st2" d="M296.2,479.8c-0.3-0.1-0.7-0.3-0.9-0.6c-0.5-0.4-0.8-0.8-0.7-0.8
			c0.1-0.1,0.5,0.2,0.9,0.6C295.8,479.1,296,479.4,296.2,479.8z"/>
		<path id="Trazado_103713" class="st2" d="M297.5,477.3c-0.4,0.2-0.9,0.2-1.4,0.2c-0.5,0.1-0.9,0-1.4-0.1c0.4-0.2,0.9-0.2,1.4-0.2
			C296.6,477.1,297.1,477.2,297.5,477.3z"/>
		<path id="Trazado_103714" class="st2" d="M297.9,475.6c-0.9,0.5-2.1,0.6-3.1,0.3c0.5-0.1,1-0.1,1.6-0.1
			C296.9,475.6,297.4,475.6,297.9,475.6z"/>
		<path id="Trazado_103715" class="st2" d="M293.2,478.7c-0.6,0.1-1.1,0.1-1.7,0c-0.6-0.1-1.2-0.2-1.8-0.4c-0.4-0.1-0.7-0.2-1-0.4
			c-0.2-0.1-0.4-0.3-0.4-0.5c-0.1-0.3,0-0.5,0.2-0.7c1.3-0.7,2.9-0.3,3.8,0.9c0.3,0.3,0.5,0.7,0.6,1.1c0.1,0.3,0.1,0.4,0,0.5
			c-0.2-0.5-0.4-1-0.8-1.4c-0.4-0.4-0.9-0.8-1.4-0.9c-0.7-0.2-1.4-0.2-2,0.2c-0.3,0.2-0.2,0.5,0.1,0.7c0.3,0.2,0.6,0.3,0.9,0.4
			c0.6,0.2,1.1,0.3,1.7,0.4C292.1,478.5,292.6,478.5,293.2,478.7z"/>
		<path id="Trazado_103716" class="st2" d="M292.8,478.7c-0.2-0.4-0.3-0.8-0.2-1.2c0.1-0.4,0.2-0.8,0.4-1.2c0.3-0.5,0.8-0.8,1.4-0.9
			c0.4,0.1,0.6,0.4,0.5,0.8c0,0.3-0.1,0.5-0.3,0.7c-0.2,0.4-0.5,0.7-0.8,1c-0.5,0.5-0.9,0.7-0.9,0.7s0.3-0.3,0.8-0.8
			c0.3-0.3,0.5-0.7,0.7-1c0.2-0.4,0.4-1,0-1.1s-0.9,0.4-1.1,0.7c-0.2,0.3-0.4,0.7-0.5,1.1C292.8,478,292.7,478.4,292.8,478.7z"/>
		<path id="Trazado_103717" class="st2" d="M320.9,476.6c0,0.1-0.7-0.1-1.9,0.1c-3.1,0.4-5.8,2.5-6.8,5.5c-0.4,1.1-0.4,1.9-0.5,1.9
			c0-0.2,0-0.3,0-0.5c0-0.5,0.1-1,0.3-1.4c0.9-3.1,3.7-5.4,6.9-5.7c0.5-0.1,1-0.1,1.4,0C320.6,476.5,320.8,476.6,320.9,476.6z"/>
		<path id="Trazado_103718" class="st2" d="M318.1,465.8c0.2,1.8,0.3,3.6,0.3,5.4c0.1,1.8,0.1,3.6,0,5.4c-0.2-1.8-0.3-3.6-0.3-5.3
			C318,469.4,318,467.6,318.1,465.8z"/>
		<path id="Trazado_103719" class="st2" d="M308.4,481.8c-2.5,0.5-5.1,0.6-7.6,0.2c0-0.1,1.7,0,3.8,0S308.4,481.7,308.4,481.8z"/>
		<path id="Trazado_103720" class="st2" d="M313.5,481.7c0.1,0.1-0.1,0.4-0.3,0.7c-0.2,0.4-0.3,0.7-0.4,0.7s-0.1-0.4,0.1-0.9
			C313.1,481.9,313.5,481.6,313.5,481.7z"/>
		<path id="Trazado_103721" class="st2" d="M315.4,479.3c0.1,0.1-0.1,0.3-0.4,0.6c-0.3,0.3-0.5,0.5-0.6,0.4s0.1-0.3,0.4-0.6
			C315.1,479.4,315.4,479.2,315.4,479.3z"/>
		<path id="Trazado_103722" class="st2" d="M318.2,478.1c0,0.1-0.4,0.1-0.7,0.2s-0.7,0.4-0.7,0.3s0.1-0.4,0.6-0.6
			S318.2,478.1,318.2,478.1z"/>
		<path id="Trazado_103723" class="st2" d="M320.1,477.6c0,0.1-0.1,0.2-0.3,0.3c-0.2,0.1-0.4,0.1-0.5,0c0-0.1,0.1-0.2,0.3-0.3
			C319.9,477.5,320.1,477.5,320.1,477.6z"/>
		<path id="Trazado_103724" class="st0" d="M398.7,478.3l0.1-13.9l-26.1-0.3l-0.3,20.4l1.6,0.1c7.2,0.5,36.6,2,41.4,0.6
			C420.8,483.5,398.7,478.3,398.7,478.3z"/>
		<g id="Grupo_59595" class="st1">
			<path id="Trazado_103725" d="M381.8,484.3c-0.4-2.2-1.5-4.2-3.3-5.6c-1.7-1.4-3.9-2.1-6.1-2l-0.1,7.3L381.8,484.3z"/>
		</g>
		<g id="Grupo_59596" class="st1">
			<path id="Trazado_103726" d="M409.5,481.2c0,0,7.7,2.4,6.8,3.6c-1,1.2-30.7,0.9-43.8-0.4v-0.6l34.7,0.7
				C407.2,484.5,408,481.3,409.5,481.2z"/>
		</g>
		<path id="Trazado_103727" class="st2" d="M372.1,483.8h0.5l1.3,0.1l4.7,0.3c4,0.2,9.5,0.4,15.6,0.5c6.2,0.1,11.6,0,15.6-0.1
			l4.7-0.1h1.7c-0.1,0-0.3,0-0.5,0h-21.7c-6.1,0-11.6-0.2-15.6-0.4l-4.7-0.2h-1.3L372.1,483.8z"/>
		<path id="Trazado_103728" class="st2" d="M407.2,485c0.2-0.8,0.5-1.5,0.9-2.3c0.5-0.7,1-1.3,1.6-1.8c-0.8,0.3-1.5,0.9-1.9,1.6
			C407.3,483.3,407.1,484.1,407.2,485z"/>
		<path id="Trazado_103729" class="st2" d="M399.5,480.9c0.3-0.3,0.6-0.6,0.8-1c0.4-0.6,0.6-1.1,0.6-1.2c-0.1-0.1-0.5,0.4-0.8,1
			C399.8,480.1,399.6,480.5,399.5,480.9z"/>
		<path id="Trazado_103730" class="st2" d="M397.4,479.8c0.1,0.1,0.5-0.2,0.9-0.6c0.5-0.4,0.8-0.8,0.7-0.8c-0.1-0.1-0.5,0.2-0.9,0.6
			C397.7,479.4,397.4,479.8,397.4,479.8z"/>
		<path id="Trazado_103731" class="st2" d="M396.1,477.4c0.4,0.2,0.9,0.2,1.4,0.2c0.5,0.1,0.9,0,1.4-0.1c-0.4-0.2-0.9-0.2-1.4-0.2
			C397,477.2,396.6,477.2,396.1,477.4z"/>
		<path id="Trazado_103732" class="st2" d="M395.7,475.6c0.9,0.5,2.1,0.6,3.1,0.3c-0.5-0.1-1-0.1-1.5-0.1
			C396.7,475.7,396.2,475.6,395.7,475.6z"/>
		<path id="Trazado_103733" class="st2" d="M400.4,478.7c0.6,0.1,1.1,0.1,1.7,0c0.6-0.1,1.2-0.2,1.8-0.4c0.4-0.1,0.7-0.2,1-0.4
			c0.2-0.1,0.3-0.3,0.4-0.5c0.1-0.3,0-0.5-0.2-0.7c-1.3-0.7-2.9-0.3-3.8,0.9c-0.3,0.3-0.5,0.7-0.6,1.1c0,0.1,0,0.3,0,0.5
			c0.2-0.5,0.4-1,0.8-1.4c0.4-0.4,0.9-0.8,1.4-0.9c0.7-0.2,1.4-0.2,2,0.2c0.3,0.2,0.2,0.5-0.1,0.7c-0.3,0.2-0.6,0.3-0.9,0.4
			c-0.6,0.2-1.1,0.3-1.7,0.4C401.1,478.7,400.4,478.7,400.4,478.7z"/>
		<path id="Trazado_103734" class="st2" d="M400.9,478.8c0.2-0.4,0.3-0.8,0.2-1.2c-0.1-0.4-0.2-0.8-0.4-1.2
			c-0.3-0.5-0.8-0.8-1.4-0.9c-0.4,0.1-0.6,0.4-0.5,0.8c0,0.3,0.1,0.5,0.3,0.8c0.2,0.4,0.5,0.7,0.8,1c0.5,0.5,0.9,0.7,0.9,0.7
			c0,0-0.3-0.3-0.8-0.8c-0.3-0.3-0.5-0.6-0.7-1c-0.2-0.4-0.4-1,0-1.1c0.4-0.1,0.8,0.4,1.1,0.7c0.2,0.3,0.4,0.7,0.5,1.1
			C400.9,478.1,400.9,478.4,400.9,478.8z"/>
		<path id="Trazado_103735" class="st2" d="M372.7,476.7c0.6,0,1.3,0,1.9,0.1c3.1,0.4,5.8,2.5,6.8,5.5c0.4,1.1,0.4,1.9,0.5,1.9
			c0-0.2,0-0.3,0-0.5c0-0.5-0.1-1-0.3-1.4c-0.5-1.5-1.4-2.9-2.6-3.9c-1.2-1-2.8-1.6-4.4-1.8c-0.5-0.1-1-0.1-1.4,0
			C373,476.6,372.9,476.6,372.7,476.7z"/>
		<path id="Trazado_103736" class="st2" d="M375.5,465.9c-0.2,1.8-0.3,3.6-0.3,5.4c-0.1,1.8-0.1,3.6,0,5.4c0.2-1.8,0.3-3.6,0.3-5.4
			C375.6,469.5,375.6,467.7,375.5,465.9z"/>
		<path id="Trazado_103737" class="st2" d="M385.2,481.8c2.5,0.5,5.1,0.6,7.6,0.2c0-0.1-1.7,0-3.8-0.1
			C386.9,481.9,385.2,481.7,385.2,481.8z"/>
		<path id="Trazado_103738" class="st2" d="M380.1,481.8c-0.1,0.1,0.1,0.4,0.3,0.8c0.2,0.4,0.3,0.7,0.4,0.7c0.1,0,0.1-0.4-0.1-0.9
			C380.5,481.9,380.1,481.7,380.1,481.8z"/>
		<path id="Trazado_103739" class="st2" d="M378.2,479.3c-0.1,0.1,0.1,0.3,0.4,0.6c0.3,0.3,0.5,0.5,0.6,0.4c0.1-0.1-0.1-0.3-0.4-0.6
			S378.3,479.3,378.2,479.3z"/>
		<path id="Trazado_103740" class="st2" d="M375.5,478.2c0,0.1,0.4,0.1,0.7,0.2c0.4,0.1,0.7,0.3,0.7,0.3s-0.1-0.4-0.6-0.6
			S375.4,478.1,375.5,478.2z"/>
		<path id="Trazado_103741" class="st2" d="M373.5,477.7c0,0.1,0.1,0.2,0.3,0.3c0.2,0.1,0.4,0.1,0.5,0c0-0.1-0.1-0.2-0.3-0.3
			C373.8,477.6,373.5,477.6,373.5,477.7z"/>
		<path id="Trazado_103742" class="st2" d="M413.6,224.3L401.7,475l-32.5,0.8l2.6-217.4L323,476.2l-27.7-1.3l43.4-250.1L413.6,224.3
			z"/>
		<path id="Trazado_103743" class="st3" d="M379.7,227.7c0,1.4-0.1,2.8-0.3,4.1c-0.3,2.5-0.7,6-1.2,9.9c-0.2,1.8-0.5,3.7-0.9,5.4
			c-0.4,1.5-1.2,2.9-2.4,3.9c-0.8,0.7-1.7,1.2-2.8,1.4c-0.4,0.1-0.8,0.1-1.1,0c2.8-0.5,5.1-2.6,5.7-5.4c0.4-1.8,0.7-3.6,0.8-5.4
			c0.5-3.8,1-7.3,1.4-9.9C379.1,230.4,379.4,229,379.7,227.7z"/>
		<path id="Trazado_103744" class="st3" d="M371.7,229.2c0.1,0.1-0.2,0.5,0,1.1c0.1,0.4,0.3,0.6,0.7,0.8c0.4,0.2,0.9,0,1.2-0.3
			c0.3-0.3,0.5-0.8,0.3-1.2c-0.1-0.3-0.4-0.6-0.8-0.7c-0.4-0.1-0.8-0.1-1.1-0.1c-0.1-0.1,0.3-0.6,1.3-0.4c0.9,0.3,1.4,1.2,1.1,2.1
			c-0.3,0.9-1.2,1.4-2.1,1.1c-0.1,0-0.1,0-0.2-0.1c-0.5-0.3-0.8-0.7-0.9-1.3C371.1,229.5,371.7,229.1,371.7,229.2z"/>
		<path id="Trazado_103745" class="st3" d="M351,233.5c-1-2.2-0.8-4.9,0.5-6.9c0.2,0.1-0.3,1.6-0.4,3.4
			C351.1,231.2,351.1,232.4,351,233.5z"/>
		<path id="Trazado_103746" class="st3" d="M355.7,233c-1-2.3-0.9-5,0.2-7.2c0,1.2-0.1,2.4-0.2,3.6
			C355.8,230.6,355.8,231.8,355.7,233z"/>
		<path id="Trazado_103747" class="st3" d="M395.7,232.6c-0.1-1.2,0-2.5,0.1-3.7c-0.1-1.2-0.1-2.5,0-3.8
			C396.7,227.5,396.7,230.2,395.7,232.6L395.7,232.6z"/>
		<path id="Trazado_103748" class="st3" d="M400.8,232.1c-0.2-0.1,0.4-1.7,0.4-3.8c0.1-2.1-0.4-3.8-0.2-3.8c0.7,1.1,1,2.5,0.8,3.8
			C401.9,229.7,401.6,231,400.8,232.1z"/>
		<path id="Trazado_103749" class="st0" d="M357.7,111.1"/>
		<path id="Trazado_103750" class="st2" d="M393.3,67.1c1.3-1.6,2.4-4.4,1.6-6.3c1.6-0.8,1.7-2.2,1.7-4c-0.1-1.8-0.6-3.5-1.5-5.1
			c-1.2-2.6-3.2-4.8-5.7-6.3c-2.6-1.5-5.7-1.3-8.1,0.4c-3.5-4.2-9.7-4.7-13.9-1.2c-0.1,0.1-0.2,0.1-0.2,0.2c-0.6,0.7-1.3,1.4-2.1,2
			c-1.4,0.8-3.1,0.5-4.7,0.6c-4.6,0.4-7.9,4.4-7.5,9c0.1,0.9,0.3,1.8,0.7,2.6c-2.3,1.6-3.7,4.1-3.8,6.9c-0.1,2.7,0.2,5.5,0.9,8.1
			c0.7,3.3,1.6,6.7,3.9,9.2c1.6,1.7,3.8,2.7,6.1,2.9c3.3,0.2,6.6-1.3,8.5-4"/>
		<path id="Trazado_103751" class="st4" d="M358.7,123l26.3-1.2c0.2-2.8-1.3-20.1-1.3-20.1s9.9-1.5,10.1-11.5s-1.6-32.8-1.6-32.8
			l0,0c-11.5-4.9-24.8-3.3-34.7,4.4L356,63L358.7,123z"/>
		<path id="Trazado_103752" class="st5" d="M383.7,101.6c-4.6,0.1-9.1-1.2-13-3.7c0,0,3.1,7.1,13,6.3V101.6z"/>
		<path id="Trazado_103753" class="st4" d="M357.2,73.3c-0.2-0.1-6.8-2-6.6,4.7c0.2,6.8,7,5.2,7,5S357.2,73.3,357.2,73.3z"/>
		<path id="Trazado_103754" class="st5" d="M355.4,80.5c-0.1,0.1-0.2,0.1-0.3,0.2c-0.3,0.1-0.6,0.1-0.9,0c-0.9-0.5-1.5-1.5-1.4-2.6
			c0-0.6,0.1-1.2,0.3-1.7c0.1-0.4,0.4-0.8,0.9-0.9c0.3-0.1,0.6,0,0.7,0.3c0.1,0.2,0.1,0.3,0.1,0.3c0,0,0.1-0.1,0.1-0.4
			c0-0.2-0.1-0.3-0.3-0.4c-0.2-0.1-0.4-0.2-0.7-0.2c-0.6,0.1-1,0.6-1.2,1.1c-0.3,0.6-0.4,1.3-0.4,1.9c0,1.2,0.7,2.4,1.8,2.9
			c0.4,0.1,0.8,0,1.1-0.2C355.4,80.6,355.4,80.5,355.4,80.5z"/>
		<path id="Trazado_103755" class="st2" d="M390,73.1c0,0.8-0.6,1.4-1.4,1.4c-0.7,0.1-1.4-0.5-1.5-1.2c0,0,0,0,0,0v0
			c0-0.8,0.6-1.4,1.4-1.4C389.3,71.7,389.9,72.3,390,73.1C390,73,390,73,390,73.1L390,73.1z"/>
		<path id="Trazado_103756" class="st2" d="M390.3,71.5c-0.2,0.2-1.2-0.6-2.8-0.6c-1.5,0-2.7,0.8-2.8,0.6c-0.2-0.2,0.1-0.4,0.6-0.8
			c0.7-0.5,1.5-0.7,2.3-0.7c0.8,0,1.6,0.2,2.2,0.7C390.2,71,390.4,71.4,390.3,71.5z"/>
		<path id="Trazado_103757" class="st2" d="M375,73.4c0,0.8-0.6,1.4-1.4,1.4c-0.7,0.1-1.4-0.5-1.5-1.2c0,0,0,0,0,0v0
			c0-0.8,0.6-1.4,1.4-1.4C374.3,72.1,375,72.6,375,73.4C375,73.4,375,73.4,375,73.4L375,73.4z"/>
		<path id="Trazado_103758" class="st2" d="M375.3,71.7c-0.2,0.2-1.3-0.6-2.8-0.6c-1.5,0-2.7,0.8-2.8,0.6c-0.2-0.2,0.1-0.4,0.6-0.8
			c0.7-0.5,1.4-0.7,2.3-0.7c0.8,0,1.6,0.2,2.2,0.7C375.2,71.3,375.4,71.7,375.3,71.7z"/>
		<path id="Trazado_103759" class="st2" d="M380.8,83.1c0.8-0.2,1.6-0.4,2.5-0.5c0.4,0,0.8-0.1,0.8-0.4c0-0.4-0.1-0.8-0.3-1.2
			l-1.2-3c-1.1-2.5-1.9-5.1-2.6-7.8c1.3,2.4,2.3,4.9,3.2,7.5l1.1,3c0.2,0.5,0.3,1,0.2,1.5c-0.1,0.3-0.4,0.5-0.6,0.6
			c-0.2,0.1-0.4,0.1-0.7,0.1C382.5,83.2,381.6,83.2,380.8,83.1z"/>
		<path id="Trazado_103760" class="st2" d="M376.3,84.2c0.2,0,0.3,1.6,1.7,2.8c1,0.6,2.1,1,3.2,1.2c0,0.2-0.4,0.3-1.2,0.3
			c-1,0-1.9-0.3-2.7-0.9c-0.7-0.6-1.2-1.4-1.3-2.4C376,84.5,376.2,84.2,376.3,84.2z"/>
		<path id="Trazado_103761" class="st2" d="M375.7,65.8c-0.2,0.4-1.7,0.2-3.5,0.4c-1.8,0.2-3.2,0.7-3.5,0.3c-0.1-0.2,0.1-0.6,0.7-1
			c0.8-0.5,1.7-0.8,2.6-0.9c0.9-0.1,1.8,0,2.7,0.3C375.4,65.2,375.7,65.6,375.7,65.8z"/>
		<path id="Trazado_103762" class="st2" d="M389.7,67c-0.3,0.4-1.3,0-2.6,0s-2.4,0.2-2.6-0.1c-0.1-0.2,0.1-0.5,0.5-0.9
			c1.3-0.8,2.9-0.8,4.2,0.1C389.7,66.5,389.9,66.9,389.7,67z"/>
		<path id="Trazado_103763" class="st2" d="M355.4,62.5c0.1,2.9-0.5,6.1,0,9c0.1,0.4,1.2,1.6,1.3,2c0.6,2.5,1.6,3.6,3.1,1
			c0.6-1.6,1-3.2,1.2-4.9l1.8-9.2c2.3,1.2,4.9,1.8,7.6,1.8c2.7-0.1,5.1-1.5,6.5-3.8c2.3,3.8,7.2,5,11,2.7c0.5-0.3,1-0.7,1.4-1.1
			c1,1.4,2.9,1.8,4.4,0.9c1.4-1,2.1-2.7,1.6-4.4c-0.7-2.4-3.3-3.7-5.7-4.5c-9.5-2.8-19.9-0.6-28.4,4.4c-1.3,0.7-2.4,1.6-3.4,2.6
			c-1,1.1-2.3,2.4-2.4,3.7"/>
		<path id="Trazado_103764" class="st3" d="M378,78.9c0.3-0.4,0.6-0.8,0.8-1.3c0.7-1.2,0.9-2.6,0.7-3.9c-0.5-3.2-3.5-5.5-6.7-5
			c-3.2,0.5-5.5,3.5-5,6.7c0.4,2.6,2.4,4.6,5,5c1.3,0.2,2.7,0,3.9-0.7C377.5,79.2,377.9,78.8,378,78.9c0.1,0-0.1,0.1-0.2,0.3
			c-0.3,0.3-0.6,0.5-0.9,0.7c-1.2,0.8-2.7,1.1-4.1,0.9c-3.5-0.4-6-3.7-5.6-7.2c0.4-3.5,3.7-6,7.2-5.6c2.9,0.4,5.2,2.7,5.6,5.6
			c0.2,1.4-0.1,2.9-0.9,4.1c-0.2,0.3-0.4,0.6-0.7,0.9C378.1,78.8,378,78.9,378,78.9z"/>
		<path id="Trazado_103765" class="st3" d="M393.7,78.9c0.3-0.4,0.6-0.8,0.8-1.3c0.7-1.2,0.9-2.6,0.7-3.9c-0.5-3.2-3.5-5.5-6.7-5
			c-3.2,0.5-5.5,3.5-5,6.7c0.4,2.6,2.4,4.6,5,5c1.3,0.2,2.7,0,3.9-0.7C393.3,79.2,393.6,78.8,393.7,78.9c0.1,0-0.1,0.1-0.2,0.3
			c-0.3,0.3-0.6,0.5-0.9,0.7c-1.2,0.8-2.6,1.1-4.1,0.9c-3.5-0.4-6-3.6-5.6-7.2c0.4-3.5,3.6-6,7.2-5.6c2.9,0.4,5.2,2.7,5.6,5.6
			c0.2,1.4-0.1,2.9-0.9,4.1c-0.2,0.3-0.4,0.6-0.7,0.9C393.9,78.7,393.8,78.8,393.7,78.9z"/>
		<path id="Trazado_103766" class="st3" d="M383.3,74c0,0.2-0.8,0.3-1.8,0.3s-1.8-0.1-1.8-0.3s0.8-0.3,1.8-0.3S383.3,73.8,383.3,74z
			"/>
		<path id="Trazado_103767" class="st3" d="M356.7,73.5c1.8-0.4,3.6-0.5,5.4-0.5c1.8-0.2,3.6-0.1,5.4,0.1c-1.8,0.4-3.6,0.5-5.4,0.5
			C360.4,73.8,358.5,73.8,356.7,73.5z"/>
		<path id="Trazado_103768" class="st4" d="M362.4,71.6l-8.5-3.1l-8.1,2.8L334.7,83l-7.2,6.9l11.8,5.3l6.3-2.5l10-6.8l5.6-10.7
			c0,0-1.6-0.8-3.4,1.8l-1.7,2.3l-1.6-6.2v-1.8l5,1.5c1,0.3,2.2,0,2.8-0.8L362.4,71.6z"/>
		<path id="Trazado_103769" class="st5" d="M346.5,80.6c0.4,0.4,0.6,0.8,0.7,1.4c0.8,2.4,0.7,5-0.5,7.3c-0.4,0.9-0.8,1.3-0.9,1.2
			c0.6-1.6,1-3.2,1.2-4.9C347.1,83.9,346.9,82.3,346.5,80.6z"/>
		<path id="Trazado_103770" class="st5" d="M346.6,80.8c1-0.3,2-0.6,3.1-0.7h0.1c0.4,0.2,0.6,0.7,0.5,1.2c-0.1,0.4-0.3,0.8-0.5,1.2
			c-0.2,0.3-0.3,0.7-0.2,1.1c0.2,0.4,0.5,0.7,0.8,1H350c0.9-0.5,1.6-1.2,2.2-2.1c0.8-1.3-0.1-2.7-0.6-4c-0.1-0.3-0.2-0.6-0.4-0.8
			c-0.2-0.1-0.4-0.2-0.7-0.1l-1.7,0.3c-1.1,0.2-2.2,0.4-3.4,0.4c1.1-0.4,2.2-0.6,3.3-0.8l1.7-0.3c0.4-0.1,0.8,0,1.1,0.3
			c0.2,0.3,0.4,0.6,0.5,1c0.3,0.6,0.6,1.3,0.9,2c0.3,0.8,0.2,1.7-0.2,2.5c-0.6,0.9-1.4,1.7-2.4,2.3l-0.2,0.1l-0.2-0.2
			c-0.4-0.3-0.8-0.8-1-1.3c-0.1-0.5,0-1.1,0.3-1.5c0.2-0.3,0.4-0.7,0.5-1c0.1-0.3,0-0.6-0.2-0.8h0.1
			C348.6,80.6,347.6,80.7,346.6,80.8z"/>
		<path id="Trazado_103771" class="st5" d="M352.9,81.7c0.1,0.2,0.3,0.3,0.5,0.4c0.5,0.2,1.1-0.1,1.3-0.7c0,0,0,0,0,0c0,0,0,0,0-0.1
			c0.2-0.9,0-1.9-0.5-2.6c-0.4-1-0.9-2.2-1.4-3.3c-0.5-1.1-1.8-0.9-2.9-0.8c-1.1,0.1-2.1,0.2-2.9,0.4c-0.9,0.2-1.8,0.3-2.7,0.4
			c0.8-0.4,1.7-0.7,2.6-0.8c0.8-0.2,1.8-0.4,2.9-0.5c0.6-0.1,1.2-0.1,1.8-0.1c0.7,0.1,1.4,0.5,1.7,1.2c0.6,1.2,0.9,2.4,1.4,3.3
			c0.2,0.5,0.4,1,0.5,1.5c0.1,0.5,0.1,1-0.1,1.5c-0.2,0.4-0.5,0.7-0.9,0.9c-0.3,0.1-0.6,0.1-0.9-0.1C352.8,82,352.8,81.6,352.9,81.7
			z"/>
		<path id="Trazado_103772" class="st5" d="M356.2,79.3c-0.4-0.7-0.6-1.5-0.8-2.3c-0.2-0.8-0.5-1.6-0.7-2.5c-0.1-0.5-0.3-1-0.4-1.5
			c-0.2-0.4-0.5-0.8-0.9-1c-1-0.2-2-0.1-2.9,0.3l-2.5,0.7c-0.8,0.3-1.6,0.4-2.4,0.5c0.7-0.4,1.5-0.7,2.3-0.9l2.5-0.8
			c1-0.5,2.2-0.6,3.3-0.3c0.6,0.2,1.1,0.7,1.3,1.4c0.2,0.6,0.3,1,0.4,1.5l0.6,2.5C356,77.7,356.1,78.5,356.2,79.3z"/>
		<path id="Trazado_103773" class="st5" d="M334.7,83c0.1-0.1,0.1-0.2,0.2-0.2c0.2-0.2,0.3-0.4,0.6-0.6l2.2-2.4l8.1-8.5l0,0l8.1-2.8
			h0.1l8.5,3.1h0.1V72l0,0c-0.3,0.4-0.8,0.7-1.4,0.9c-0.5,0.1-1.1,0.1-1.7,0l0,0l-3.5-1.1l-1.5-0.5l0.2-0.2V73
			c0.5,2.1,1.1,4.2,1.6,6.2H356c0.7-1,1.4-1.9,2.2-2.8c0.7-1,2-1.5,3.2-1.3h0.2l-0.1,0.2l-5.7,10.7l0,0l-7.3,4.9l-2.1,1.4
			c-0.5,0.3-0.7,0.5-0.7,0.5s0.2-0.2,0.7-0.5l2-1.4l7.3-5l0,0l5.6-10.7l0.1,0.2c-0.5-0.2-1-0.1-1.5,0.1c-0.5,0.3-0.9,0.6-1.3,1
			c-0.7,0.9-1.4,1.9-2.1,2.8l-0.2,0.3l-0.1-0.4c-0.5-2-1.1-4.1-1.6-6.2l0,0v-2.1l0.2,0.1l1.5,0.5l3.5,1.1l0,0c0.5,0.1,1,0.1,1.5,0
			c0.5-0.1,0.9-0.4,1.2-0.8v-0.2l0.1,0.2l-8.5-3.1h0.1l-8.1,2.8l0,0l-8.2,8.4l-2.3,2.4l-0.6,0.6C334.9,83,334.8,83,334.7,83z"/>
		<path id="Trazado_103774" class="st0" d="M338.2,158l-0.6-40.9l10.7-3.6c3.4-0.6,6.6-1.9,10.6-2l0,0c7.4,5.9,17.8,6,25.4,0.3
			l0.4-0.3c1,0.1,2.4,0.2,4.1,0.5h0.3c4.2,0.5,8.2,2.1,11.6,4.6l0,0l53,31.6l31.1-23.7l15.8,12.4c0,0-40.7,40.7-44.7,41.7
			c-2.7,0.7-29.9-14.2-46.4-23.4c0.7,9.9,4.4,64.7,4.2,72.2h-75.7l-0.1-34.6v-9.4L338.2,158z"/>
		<path id="Trazado_103775" class="st2" d="M408.3,131.9c-0.1,0.6-0.1,1.2-0.1,1.8c0,1.3,0.1,3,0.1,4.9c0.2,4.2,0.4,9.9,0.8,16.3
			c0.3,6.3,0.7,12.1,1,16.2c0.2,2,0.3,3.6,0.4,4.9c0,0.6,0.1,1.2,0.2,1.8c0.1-0.6,0.1-1.2,0.1-1.8c0-1.3-0.1-3-0.2-4.9
			c-0.2-4.2-0.4-9.9-0.8-16.3c-0.3-6.3-0.7-12.1-1-16.3c-0.2-2-0.3-3.6-0.4-4.9C408.5,133.1,408.4,132.5,408.3,131.9z"/>
		<path id="Trazado_103776" class="st2" d="M476.3,131.3c-0.2,0.2,3.2,3.4,7.6,7.2c4.4,3.8,8,6.8,8.2,6.6c0.1-0.2-3.3-3.4-7.7-7.2
			c-2.2-1.9-4.2-3.6-5.6-4.8C478,132.5,477.2,131.9,476.3,131.3z"/>
		<path id="Trazado_103777" class="st2" d="M472.7,134c-0.1,0.2,3.3,3.4,7.7,7.3c2.2,1.9,4.2,3.7,5.7,4.9c0.8,0.7,1.6,1.3,2.5,1.9
			c-0.6-0.8-1.3-1.6-2.1-2.3c-1.4-1.3-3.4-3.1-5.6-5.1s-4.2-3.7-5.7-4.9C474.5,135.2,473.6,134.5,472.7,134z"/>
		<path id="Trazado_103778" class="st0" d="M329.9,83.1c0,0-30.3,28.3-39.8,39.9c-4.3,5.2-5.3,13-1.8,18.8l0,0
			c2.8,4.7,7.9,7.4,13.3,7l36.5-2.4l2.8-30.3l-22,6.9l25.7-26.8L329.9,83.1z"/>
		<path id="Trazado_103779" class="st2" d="M337.8,170.4c-0.2,0-0.2-6.5-0.1-14.5s0.3-14.5,0.5-14.5s0.2,6.5,0.1,14.5
			C338.2,163.9,338,170.4,337.8,170.4z"/>
		<path id="Trazado_103780" class="st2" d="M328.7,112.5c-0.3,0.4-0.6,0.8-0.9,1.2l-2.7,3c-2.3,2.5-5.5,6-9.2,10l0.1-0.1
			c-0.4,1.3-0.8,2.6-1.3,3.9c-1,2.9-2.4,5.6-4,8.1c-1.4,2-3.3,3.8-5.4,5.1c-1.4,0.9-3,1.5-4.6,1.9c-0.4,0.1-0.9,0.1-1.4,0.1h-0.5
			c0,0,0.7-0.1,1.8-0.4c1.6-0.4,3.1-1.1,4.5-2c2-1.3,3.8-3.1,5.1-5.1c1.6-2.5,2.9-5.2,3.9-8c0.5-1.3,0.9-2.6,1.3-3.9v-0.1l0,0
			c3.7-4,7-7.4,9.4-9.9l2.8-2.9C327.9,113.2,328.3,112.9,328.7,112.5z"/>
		<path id="Trazado_103781" class="st2" d="M314.2,131.2c1.1,3.7,0.6,7.8-1.4,11.2c-0.2-0.1,0.9-2.4,1.2-5.5S314,131.2,314.2,131.2z
			"/>
		<path id="Trazado_103782" class="st6" d="M348.8,226.7c-0.1-0.1-0.1-0.2-0.2-0.2l-0.5-0.7l-1.7-2.8c-0.9-1.5-1.8-3-2.5-4.6
			c-1.1-2.1-1.4-4.5-1.1-6.9c0.5-2.6,2-5.1,3.2-7.8c0.6-1.4,0.9-2.9,1-4.5c0-1.6-0.1-3.3-0.5-4.9c-0.7-3.3-2-6.7-2.3-10.5
			c-0.3-3.9,0.1-7.7,1-11.5c0.9-3.8,1.9-7.5,2.7-11.2c0.4-1.8,0.6-3.6,0.8-5.4c0-0.9,0.1-1.8,0.2-2.6c0-0.9,0-1.7,0-2.6
			c-0.4-6-1.4-11.9-3-17.8c-1-3.9-1.8-7.9-2.4-12c-0.2-1.4-0.3-2.5-0.4-3.3v-0.9c0-0.1,0-0.2,0-0.3c0,0.1,0,0.2,0.1,0.3
			c0.1,0.3,0.1,0.6,0.1,0.9c0.1,0.8,0.2,1.9,0.5,3.3c0.5,2.8,1.4,6.9,2.6,11.9c1.6,5.8,2.7,11.8,3.1,17.8v2.6c0,0.9-0.1,1.8-0.1,2.7
			c-0.2,1.8-0.5,3.6-0.8,5.4c-0.8,3.6-1.8,7.3-2.7,11.2c-0.9,3.7-1.3,7.5-1,11.3c0.3,3.7,1.6,7,2.3,10.4c0.4,1.6,0.5,3.3,0.5,5
			c-0.1,1.6-0.4,3.2-1,4.6c-1.2,2.8-2.7,5.2-3.2,7.7c-0.4,2.3-0.1,4.6,0.9,6.7c0.7,1.6,1.5,3.1,2.4,4.6l1.6,2.9l0.4,0.8
			C348.7,226.6,348.8,226.7,348.8,226.7z"/>
		<path id="Trazado_103783" class="st6" d="M365.3,116.1c0,0.1,0.1,0.2,0.1,0.3l0.2,0.8c0.2,0.7,0.4,1.8,0.6,3.2c0.6,4,1,8,1,12.1
			c0.1,6-0.4,12-1.6,17.9c-1.2,6.7-3.2,13.9-3.8,21.6c-0.6,7.8,0.5,15.2,1.5,21.9c1,5.9,1.6,11.9,1.8,17.9c0.1,4.1-0.4,8.1-1.4,12
			l-0.3,1l-0.3,0.8l-0.5,1.3l-0.3,0.8c-0.1,0.2-0.1,0.3-0.1,0.3c0-0.1,0-0.2,0-0.3l0.3-0.8l0.4-1.3c0.1-0.3,0.2-0.5,0.3-0.8
			c0.1-0.3,0.1-0.6,0.2-1c0.9-3.9,1.3-7.9,1.2-12c-0.3-6-0.9-11.9-1.9-17.8c-0.9-6.7-2.1-14.1-1.5-22c0.6-7.9,2.6-15.1,3.8-21.7
			c1.1-5.9,1.7-11.8,1.7-17.8c0-4-0.3-8.1-0.8-12.1c-0.2-1.4-0.4-2.5-0.5-3.3c0-0.3-0.1-0.6-0.1-0.9
			C365.2,116.3,365.2,116.2,365.3,116.1z"/>
		<path id="Trazado_103784" class="st6" d="M393.1,226.8l-0.2-0.2l-0.4-0.8c-0.2-0.4-0.4-0.8-0.6-1.3c-0.1-0.3-0.2-0.5-0.3-0.9
			s-0.2-0.7-0.3-1c-0.4-1.8-0.5-3.6-0.4-5.3c0.2-2.4,0.5-4.7,0.9-7c0.5-2.8,0.9-5.6,1.1-8.5c0.1-3.2-0.5-6.5-1.7-9.5
			c-1.3-3.4-2.4-6.9-3.3-10.4c-0.6-3.9-0.5-7.9,0.2-11.7c0.6-4,1.4-7.8,1.6-11.5c0.2-3.6-0.1-7.2-0.8-10.7c-1.3-6.8-3.2-12.8-3.8-18
			c-0.6-4.1-0.5-8.3,0.4-12.4c0.3-1.5,0.9-2.9,1.6-4.3c0,0.1,0,0.2-0.1,0.3l-0.3,0.8c-0.4,1.1-0.7,2.1-0.9,3.2
			c-0.8,4-0.9,8.2-0.2,12.3c0.7,5.2,2.5,11.2,3.9,18c0.7,3.6,1,7.2,0.9,10.9c-0.2,3.8-1,7.7-1.6,11.6c-0.7,3.8-0.8,7.7-0.2,11.5
			c0.8,3.5,1.9,7,3.2,10.3c0.6,1.6,1,3.3,1.3,4.9c0.3,1.6,0.4,3.2,0.3,4.8c-0.2,2.9-0.6,5.7-1.2,8.5c-0.5,2.3-0.8,4.6-1,7
			c-0.2,1.8-0.1,3.5,0.3,5.3C391.8,224.1,392.4,225.5,393.1,226.8z"/>
		<path id="Trazado_103785" class="st6" d="M403.1,120.4c0,0.1,0.1,0.2,0.1,0.3l0.2,0.8c0.2,0.7,0.4,1.7,0.7,3.1
			c0.6,3.9,0.8,7.8,0.5,11.7c-0.3,4.9-1.2,10.7-2.1,17.2c-0.9,7-1.4,14-1.3,21.1c0.3,12.8,1.4,25.6,3.4,38.3
			c0.7,4.8,1.3,8.8,1.7,11.5c0.2,1.3,0.3,2.4,0.5,3.1c0,0.3,0,0.5,0.1,0.8c0,0.1,0,0.2,0,0.3c0-0.1-0.1-0.2-0.1-0.3
			c0-0.3-0.1-0.5-0.2-0.8c-0.1-0.8-0.3-1.8-0.6-3.1c-0.5-2.7-1.2-6.6-1.9-11.5c-2.1-12.7-3.3-25.5-3.6-38.3c0-7.1,0.4-14.2,1.4-21.2
			c0.9-6.5,1.9-12.2,2.3-17.1c0.3-3.9,0.2-7.8-0.3-11.6c-0.2-1.4-0.4-2.4-0.6-3.1l-0.2-0.8C403.1,120.6,403.1,120.5,403.1,120.4z"/>
		<path id="Trazado_103786" class="st6" d="M421.3,162.7c-0.1-0.4-0.2-0.8-0.2-1.2c-0.1-0.8-0.2-1.9-0.2-3.3
			c-0.2-2.8-0.3-6.7-0.3-11c0-4.3,0.1-8.2,0.2-11c0.1-1.4,0.1-2.5,0.2-3.3c0-0.4,0.1-0.8,0.2-1.2c0.1,0.4,0.1,0.8,0.1,1.2v14.3
			c0,4.2,0.1,8,0.1,11v3.3C421.4,161.9,421.4,162.3,421.3,162.7z"/>
		<path id="Trazado_103787" class="st6" d="M432.8,136.1c-0.2,0.4-0.3,0.7-0.5,1.1c-0.5,1-0.7,2-0.7,3.1c0,1.4,0.3,3,0.5,4.8
			c0.2,1.8,0.6,3.8,0.9,5.9c0.3,2,0.3,4,0.1,6.1c-0.1,1.7-0.5,3.3-1.2,4.8c-0.5,1-1,2-1.7,2.8c-0.5,0.6-0.8,0.9-0.9,0.9
			c0.8-1.2,1.6-2.5,2.2-3.9c1.1-3.4,1.4-7.1,0.8-10.7c-0.3-2.1-0.7-4.1-0.9-5.9c-0.2-1.6-0.3-3.3-0.3-4.9c0-1.1,0.3-2.3,0.9-3.2
			C432.2,136.6,432.4,136.3,432.8,136.1z"/>
		<path id="Trazado_103788" class="st6" d="M305.2,146.9c0.5,0,1.1,0,1.6,0c1.4,0,2.8-0.1,4.2-0.4c2-0.6,3.8-1.8,5.1-3.4
			c1.6-1.8,3.2-3.9,4.9-6.1c3.5-4.4,6.6-8.3,8.9-11.1l2.7-3.3c0.3-0.4,0.7-0.8,1.1-1.2c-0.3,0.5-0.5,0.9-0.9,1.3l-2.6,3.4
			c-2.2,2.9-5.3,6.8-8.8,11.2c-1.8,2.2-3.3,4.3-5,6.1c-1.4,1.7-3.3,2.9-5.4,3.5c-1.4,0.3-2.9,0.4-4.3,0.2
			C306.2,147.1,305.7,147,305.2,146.9z"/>
		<path id="Trazado_103789" class="st6" d="M335.3,90.2c-0.1,0.2-0.2,0.5-0.3,0.7c-0.3,0.7-0.6,1.3-1,1.9c-1.4,2.3-3.2,4.3-5.3,5.9
			c-2.5,2.2-5.9,4.3-9.4,6.9s-7.3,5.7-9.6,10.2c-1,2.3-2.2,4.5-3.5,6.6c-1.4,1.9-3.1,3.5-5,4.8c-1.8,1.3-3.6,2.4-5.2,3.4
			c-1.5,1-2.8,2.2-4,3.6c-1.7,2-2.5,4.6-2.2,7.2c0.2,0.9,0.5,1.8,1,2.7l-0.1-0.1c-0.1-0.1-0.2-0.3-0.3-0.5c-0.4-0.6-0.6-1.3-0.8-2
			c-0.4-2.7,0.4-5.4,2.1-7.5c1.2-1.4,2.5-2.7,4-3.7c1.6-1.2,3.4-2.2,5.2-3.5c1.9-1.3,3.5-2.9,4.9-4.7c1.3-2.1,2.4-4.3,3.4-6.5
			c2.4-4.6,6.2-7.9,9.8-10.4c3.6-2.5,6.9-4.7,9.5-6.8c2.1-1.6,3.9-3.5,5.3-5.7c0.4-0.6,0.8-1.2,1.1-1.8
			C335,90.6,335.1,90.4,335.3,90.2z"/>
		<g id="Grupo_59597" class="st7">
			<path id="Trazado_103790" d="M299.5,145.5c10.3,0.2,18.8-8.1,18.9-18.4c0,0,0,0,0,0c0-0.1,0-0.1,0-0.2c0-0.6-0.1-1.4-0.7-1.7
				c-0.6-0.2-1.2,0-1.5,0.5c-0.3,0.5-0.5,1-0.5,1.6c-1.6,8.2-7.1,15.1-14.7,18.6"/>
		</g>
		<g id="Grupo_59598" class="st7">
			<path id="Trazado_103791" d="M445.1,144.6c-0.8,0.6-1.4,1.4-1.8,2.4c-2.6,4.1-7.7,5.7-11,9.1c-2.6,2.6-4.7,5.7-4.7,9.3l5.6,2.5
				l14.4-22.5C447.4,144.3,445.9,144,445.1,144.6z"/>
		</g>
		<path id="Trazado_103792" class="st8" d="M185.2,424.6c0,0-19.5,4.2-9.4,27.9c10.1,23.7,4.1,30.1-2.9,31.8l53.4-0.3l4.7-59.6
			L185.2,424.6z"/>
		<path id="Trazado_103793" class="st9" d="M224.1,484.3c-3.8,0-7.5-1.4-10.3-3.9c-4.4-3.9-9.8-11.1-10.9-23.6
			c-2.3-26.5-17.7-32.2-17.7-32.2l45.8-0.2c0,0,14.9,0,16.1,23.5c1.3,24.7,35.5,38.8,56.6,36.1L224.1,484.3z"/>
		<path id="Trazado_103794" class="st10" d="M292.3,383.7c0,0-24-2.9-26.7,50.3s-42.9,50.3-42.9,50.3h80.2c0,0,16.7-3.7,12.8-41.2
			c-1.6-15.8,26.6-59.3,26.6-59.3L292.3,383.7z"/>
		<path id="Trazado_103795" class="st8" d="M278.9,389.7c-2.6,3.1-1.5,8,0.7,11.3s5.7,5.6,9.3,7.4c3.6,1.8,7.3,3.4,10.5,5.8
			c4.9,3.8,8.2,9.4,10.2,15.2c1.8,5.9,3,12,3.6,18.2c0,0-2.6-44.1-10.4-56.4S283.8,383.8,278.9,389.7z"/>
		<path id="Trazado_103796" class="st9" d="M340.8,484.3c0,0-23.7,1.2-27-26.3c-3.3-27.5-6.1-72.7-21.5-74.3h48.6
			c6.8,0,13,4.2,15.5,10.5c2.1,5.4,4.3,13.4,5.6,25.1c2.8,24.7,16.8,65.3,51.8,64.9L340.8,484.3z"/>
		<path id="Trazado_103797" class="st2" d="M356.7,461.7c0,0.2-7.1,0.3-15.8,0.3c-8.7,0-15.8-0.1-15.8-0.3c0-0.2,7.1-0.3,15.8-0.3
			C349.6,461.3,356.7,461.5,356.7,461.7z"/>
		<path id="Trazado_103798" class="st2" d="M364.8,463.6c-0.2-1.5-0.3-3.1-0.3-4.7l0.3,0.3h-4.7l0.3-0.3l0,0v4.6l-0.3-0.3
			c1.6,0,3.1,0.1,4.7,0.3c-1.5,0.2-3.1,0.3-4.7,0.3h-0.3v-4.8l0,0l0.3-0.3h4.9v0.3C365.1,460.4,365,462,364.8,463.6z"/>
		<path id="Trazado_103799" class="st2" d="M364,471.8c0,0.2-7.1,0.3-15.8,0.3c-8.7,0-15.8-0.1-15.8-0.3c0-0.2,7.1-0.3,15.8-0.3
			C356.9,471.5,364,471.7,364,471.8z"/>
		<path id="Trazado_103800" class="st2" d="M372,473.8c-0.2-1.5-0.3-3.1-0.3-4.7l0.3,0.3h-4.7l0.3-0.3l0,0v4.6l-0.3-0.3
			C369,473.4,370.5,473.5,372,473.8c-1.5,0.1-3.1,0.2-4.6,0.2h-0.3v-4.9l0,0c-0.3,0.3,0.4-0.4,0.3-0.3h4.9v0.3
			C372.4,470.7,372.3,472.2,372,473.8z"/>
		<path id="Trazado_103801" class="st2" d="M350.6,435.9c0,0.2-7.1,0.3-15.8,0.3s-15.8-0.1-15.8-0.3c0-0.2,7.1-0.3,15.8-0.3
			S350.6,435.8,350.6,435.9z"/>
		<path id="Trazado_103802" class="st2" d="M358.7,437.9c-0.2-1.5-0.3-3.1-0.3-4.7l0.3,0.3H354l0.3-0.3l0,0v4.6l-0.3-0.3
			c1.6,0,3.1,0.1,4.7,0.3c-1.5,0.2-3.1,0.3-4.7,0.3h-0.3v-4.8l0,0c-0.3,0.3,0.4-0.4,0.3-0.3h4.9v0.3
			C359,434.7,358.9,436.3,358.7,437.9z"/>
		<path id="Trazado_103803" class="st2" d="M348.9,422.5c0,0.2-7.1,0.3-15.8,0.3c-8.7,0-15.8-0.1-15.8-0.3c0-0.2,7.1-0.3,15.8-0.3
			C341.8,422.2,348.9,422.4,348.9,422.5z"/>
		<path id="Trazado_103804" class="st2" d="M357,424.4c-0.2-1.5-0.3-3.1-0.3-4.7l0.3,0.3h-4.7l0.3-0.3l0,0v4.6l-0.3-0.3
			c1.6,0,3.1,0.1,4.7,0.3c-1.5,0.2-3.1,0.3-4.7,0.3h-0.3v-4.8l0,0c-0.3,0.3,0.4-0.4,0.3-0.3h4.9v0.3
			C357.3,421.3,357.2,422.9,357,424.4z"/>
		<path id="Trazado_103805" class="st2" d="M346.6,410.3c0,0.2-7.1,0.3-15.8,0.3c-8.7,0-15.8-0.1-15.8-0.3c0-0.2,7.1-0.3,15.8-0.3
			C339.5,409.9,346.6,410.1,346.6,410.3z"/>
		<path id="Trazado_103806" class="st2" d="M354.6,412.2c-0.2-1.5-0.3-3.1-0.3-4.7l0.3,0.3h-4.7l0.3-0.3l0,0v4.6l-0.3-0.3
			c1.6,0,3.1,0.1,4.7,0.3c-1.5,0.2-3.1,0.3-4.7,0.3h-0.3v-4.8l0,0c-0.3,0.3,0.4-0.4,0.3-0.3h4.9v0.4
			C354.9,409.1,354.8,410.6,354.6,412.2z"/>
		<path id="Trazado_103807" class="st2" d="M343.3,399c0,0.2-7.1,0.3-15.8,0.3c-8.7,0-15.8-0.1-15.8-0.3s7.1-0.3,15.8-0.3
			C336.2,398.7,343.3,398.8,343.3,399z"/>
		<path id="Trazado_103808" class="st2" d="M351.4,400.9c-0.2-1.5-0.3-3.1-0.3-4.7l0.3,0.3h-4.7l0.3-0.3l0,0v4.6l-0.3-0.3
			C348.3,400.5,349.9,400.6,351.4,400.9c-1.5,0.1-3.1,0.2-4.6,0.2h-0.3v-4.9l0,0l0.3-0.3h4.9v0.3
			C351.7,397.7,351.6,399.3,351.4,400.9z"/>
		<path id="Trazado_103809" class="st2" d="M337.8,389.5c0,0.2-7.1,0.3-15.8,0.3c-8.7,0-15.8-0.1-15.8-0.3c0-0.2,7.1-0.3,15.8-0.3
			C330.7,389.2,337.8,389.4,337.8,389.5z"/>
		<path id="Trazado_103810" class="st2" d="M345.9,391.4c-0.2-1.5-0.3-3.1-0.3-4.7l0.3,0.3h-4.7l0.3-0.3l0,0v4.6l-0.3-0.3
			c1.6,0,3.1,0.1,4.7,0.3c-1.5,0.2-3.1,0.3-4.7,0.3H341v-4.8l0,0l0.3-0.3h4.9v0.3C346.3,388.3,346.1,389.9,345.9,391.4z"/>
		<path id="Trazado_103811" class="st0" d="M348.9,413.7c0.5-1.1,1.3-2.2,2.1-3.1c0.3-0.3,0.5-0.6,0.8-0.9l0.2-0.2l0.2,0.2
			c1.1,1,1.8,1.8,1.7,1.9c-0.1,0.1-1-0.5-2.1-1.4h0.4l-0.8,1C350.7,412,349.9,412.9,348.9,413.7z"/>
		<path id="Trazado_103812" class="st0" d="M351.3,425.4c0.5-1.1,1.3-2.2,2.1-3.1l0.8-0.9l0.2-0.2l0.2,0.2c1.1,1,1.8,1.8,1.7,1.9
			s-1-0.5-2.1-1.4h0.4l-0.8,1C353.2,423.8,352.3,424.7,351.3,425.4z"/>
		<path id="Trazado_103813" class="st0" d="M358.2,465.5c0.5-1.1,1.3-2.2,2.1-3.1c0.3-0.3,0.5-0.6,0.8-0.9l0.2-0.2l0.2,0.2
			c1.1,1,1.8,1.8,1.7,1.9c-0.1,0.1-1-0.5-2.1-1.4h0.4l-0.8,1C360.1,463.9,359.2,464.8,358.2,465.5z"/>
		<path id="Trazado_103814" class="st0" d="M353.1,438.9c0.5-1.1,1.3-2.2,2.1-3.1l0.8-0.9l0.2-0.2l0.2,0.2c1.1,1,1.8,1.8,1.7,1.9
			c-0.1,0.1-1-0.5-2.1-1.4h0.4l-0.8,1C354.9,437.3,354.1,438.2,353.1,438.9z"/>
		<path id="Trazado_103815" class="st2" d="M353.7,448.8c0,0.2-7.1,0.3-15.8,0.3c-8.7,0-15.8-0.1-15.8-0.3c0-0.2,7.1-0.3,15.8-0.3
			C346.6,448.5,353.7,448.6,353.7,448.8z"/>
		<path id="Trazado_103816" class="st2" d="M361.7,450.7c-0.2-1.5-0.3-3.1-0.3-4.7l0.3,0.3H357l0.3-0.3l0,0v4.6l-0.3-0.3
			c1.6,0,3.1,0.1,4.7,0.3c-1.5,0.2-3.1,0.3-4.7,0.3h-0.3V446l0,0c-0.3,0.3,0.4-0.4,0.3-0.3h4.9v0.3
			C362.1,447.6,361.9,449.1,361.7,450.7z"/>
		<path id="Trazado_103817" class="st0" d="M355.4,452.3c0.5-1.1,1.3-2.2,2.1-3.1c0.3-0.3,0.5-0.6,0.8-0.9l0.2-0.2l0.2,0.2
			c1.1,1,1.8,1.8,1.7,1.9s-1-0.5-2.1-1.4h0.4l-0.8,1C357.3,450.7,356.4,451.6,355.4,452.3z"/>
		<path id="Trazado_103818" class="st2" d="M222.2,468.8c0-0.2,6.4-0.3,14.3-0.3c7.9,0,14.4,0.1,14.4,0.3s-6.4,0.3-14.4,0.3
			C228.6,469.1,222.2,469,222.2,468.8z"/>
		<path id="Trazado_103819" class="st2" d="M214.9,467.1c0.2,1.4,0.3,2.8,0.3,4.2l-0.3-0.3h4.2c0.1-0.1-0.6,0.6-0.3,0.3l0,0v-4.2
			l0.3,0.3C217.7,467.4,216.3,467.3,214.9,467.1c1.4-0.2,2.8-0.3,4.2-0.2h0.3v4.5l0,0l-0.3,0.3h-4.5v-0.3
			C214.6,469.9,214.7,468.5,214.9,467.1z"/>
		<path id="Trazado_103820" class="st0" d="M220.6,465.6c-0.5,1-1.1,2-1.9,2.8l-0.7,0.9l-0.2,0.2l-0.2-0.2c-1-0.9-1.6-1.6-1.5-1.7
			c0.1-0.1,0.9,0.4,1.9,1.3h-0.4l0.7-0.9C219.4,466.6,220.5,465.5,220.6,465.6z"/>
		<path id="Trazado_103821" class="st2" d="M216.5,460.4c0-0.2,6.4-0.3,14.4-0.3c7.9,0,14.3,0.1,14.3,0.3s-6.4,0.3-14.3,0.3
			C223,460.7,216.5,460.6,216.5,460.4z"/>
		<path id="Trazado_103822" class="st2" d="M209.2,458.7c0.2,1.4,0.3,2.8,0.3,4.2l-0.3-0.3h4.2l-0.3,0.3l0,0v-4.2l0.3,0.3
			C212,459,210.6,458.9,209.2,458.7c1.4-0.1,2.8-0.2,4.2-0.2h0.3v4.5l0,0l-0.3,0.3h-4.4V463C208.9,461.5,209,460.1,209.2,458.7z"/>
		<path id="Trazado_103823" class="st0" d="M214.9,457.3c-0.5,1-1.1,2-1.9,2.8l-0.7,0.9l-0.2,0.2l-0.2-0.2c-1-0.9-1.6-1.6-1.5-1.7
			c0.1-0.1,0.9,0.4,1.9,1.3h-0.4l0.7-0.9C213.1,458.7,214,457.9,214.9,457.3z"/>
		<path id="Trazado_103824" class="st2" d="M214.6,450.9c0-0.2,6.4-0.3,14.3-0.3c7.9,0,14.4,0.1,14.4,0.3c0,0.2-6.4,0.3-14.4,0.3
			C221,451.2,214.6,451,214.6,450.9z"/>
		<path id="Trazado_103825" class="st2" d="M207.3,449.1c0.2,1.4,0.3,2.8,0.3,4.2l-0.3-0.3h4.2l-0.3,0.3l0,0v-4.2l0.3,0.3
			C210,449.5,208.6,449.4,207.3,449.1c1.3-0.1,2.8-0.2,4.2-0.2h0.3v4.5l0,0c0.3-0.3-0.4,0.4-0.3,0.3h-4.5v-0.3
			C206.9,452,207,450.6,207.3,449.1z"/>
		<path id="Trazado_103826" class="st0" d="M213,447.7c-0.5,1-1.1,2-1.9,2.8l-0.7,0.9l-0.2,0.2l-0.2-0.2c-1-0.9-1.6-1.6-1.5-1.7
			c0.1-0.1,0.9,0.4,1.9,1.3h-0.4l0.7-0.9C211.8,448.7,212.8,447.6,213,447.7z"/>
		<path id="Trazado_103827" class="st2" d="M212.5,441.2c0-0.2,6.4-0.3,14.3-0.3c7.9,0,14.3,0.1,14.3,0.3s-6.4,0.3-14.3,0.3
			C218.9,441.5,212.5,441.3,212.5,441.2z"/>
		<path id="Trazado_103828" class="st2" d="M205.2,439.4c0.2,1.4,0.3,2.8,0.3,4.2l-0.3-0.3h4.2l-0.3,0.3l0,0v-4.2l0.3,0.3
			C207.9,439.8,206.5,439.7,205.2,439.4c1.4-0.1,2.8-0.2,4.2-0.2h0.3v4.5l0,0l-0.3,0.3h-4.5v-0.3
			C204.8,442.3,204.9,440.8,205.2,439.4z"/>
		<path id="Trazado_103829" class="st0" d="M210.9,438c-0.5,1-1.1,2-1.9,2.8l-0.7,0.9l-0.2,0.2l-0.2-0.2c-1-0.9-1.6-1.6-1.5-1.7
			c0.1-0.1,0.9,0.4,1.9,1.3h-0.4l0.7-0.9C209.7,439,210.7,437.9,210.9,438z"/>
		<path id="Trazado_103830" class="st2" d="M207.1,431.6c0-0.2,6.4-0.3,14.3-0.3c7.9,0,14.3,0.1,14.3,0.3c0,0.2-6.4,0.3-14.3,0.3
			C213.5,431.9,207.1,431.7,207.1,431.6z"/>
		<path id="Trazado_103831" class="st2" d="M199.7,429.8c0.2,1.4,0.3,2.8,0.3,4.2l-0.3-0.3h4.2l-0.3,0.3l0,0v-4.2l0.3,0.3
			C202.5,430.1,201.1,430.1,199.7,429.8c1.4-0.1,2.8-0.2,4.2-0.2h0.3v4.5l0,0c0.3-0.3-0.4,0.4-0.3,0.3h-4.4v-0.3
			C199.4,432.7,199.5,431.3,199.7,429.8z"/>
		<path id="Trazado_103832" class="st0" d="M205.4,428.4c-0.5,1-1.1,2-1.9,2.8l-0.7,0.9l-0.2,0.2l-0.2-0.2c-1-0.9-1.6-1.6-1.5-1.7
			c0.1-0.1,0.9,0.4,1.9,1.3h-0.4l0.7-0.9C204.2,429.4,205.3,428.3,205.4,428.4z"/>
		<path id="Trazado_103833" class="st2" d="M291.5,383.6h3.8l10.6-0.1h36.2c2.6-0.3,5.2,0.2,7.5,1.4c2.4,1.3,4.4,3.1,5.9,5.3
			c2.4,3.8,4,8.1,4.6,12.5c0.8,4.2,1.4,8.3,2,12.3c1.1,7.8,1.7,14.9,2.9,20.7c1,4.6,2.5,9,4.5,13.2c0.7,1.5,1.4,2.6,1.8,3.4
			c0.2,0.3,0.4,0.6,0.5,0.9c0.1,0.1,0.1,0.2,0.2,0.3c-0.1-0.1-0.2-0.2-0.2-0.3l-0.6-0.8c-0.7-1.1-1.3-2.2-1.9-3.4
			c-2.1-4.2-3.7-8.7-4.8-13.3c-1.3-5.9-2-12.9-3.1-20.8c-0.5-3.9-1.2-8-2-12.2c-0.7-4.4-2.2-8.5-4.6-12.3c-1.4-2.1-3.4-3.9-5.7-5.1
			c-2.2-1.2-4.7-1.7-7.1-1.4l0,0l-36.3-0.2l-10.6-0.1l-2.8-0.1h-0.7L291.5,383.6z"/>
		<path id="Trazado_103834" class="st2" d="M173,484.3c0.3-0.1,0.7-0.2,1-0.3c1-0.3,1.9-0.8,2.7-1.4c1.3-1,2.4-2.3,3.1-3.8
			c0.9-2.1,1.3-4.3,1.2-6.6c0-2.8-0.4-5.7-1.2-8.4c-1-3.2-2.2-6.4-3.6-9.5c-0.7-1.7-1.4-3.5-1.9-5.3c-0.6-1.9-1.1-3.9-1.4-5.9
			c-0.7-4.4,0.1-8.9,2.4-12.8c1.3-2.1,3.1-3.7,5.2-4.8c0.6-0.3,1.1-0.5,1.7-0.7c0.3-0.1,0.6-0.2,0.9-0.2l0.9-0.1
			c1.3-0.1,2.6,0.1,3.7,0.8c2.2,1.3,4.2,3.1,5.7,5.2c1.6,2.1,3,4.4,4.3,6.8c1.3,2.4,2.4,5,3.3,7.6c0.5,1.3,0.9,2.7,1.2,4.1
			c0.3,1.4,0.4,2.8,0.6,4.3c0.4,2.9,0.9,5.7,1.6,8.6c0.7,2.9,1.6,5.7,2.7,8.6c0.5,1.4,1.1,2.8,1.8,4.1c0.8,1.3,1.8,2.4,3,3.4
			c1.2,1,2.4,1.9,3.8,2.7c1.3,0.8,2.7,1.5,4.2,2.1c1.5,0.6,3,0.9,4.6,0.9c1.6,0,3.2-0.2,4.7-0.3c3.2-0.2,6.4-0.9,9.5-2
			c3.1-1.2,6-2.8,8.7-4.7c2.7-1.9,5.1-4.4,7-7.1c3.9-5.7,6.9-12,8.6-18.6c0.8-3,1.4-6.1,1.8-9.1c0.4-3.1,0.6-6.1,0.8-9.2
			c0.4-6,1.2-12,2.3-18c0.6-2.9,1.3-5.8,2.2-8.6c0.8-2.8,1.8-5.5,2.9-8.2c1.2-2.6,2.7-5,4.5-7.2c1.8-2.2,4-4,6.5-5.3l0,0
			c2.1-1.3,4.5-1.9,7-2c2.4,0,4.8,0.9,6.6,2.5c1.7,1.6,3.1,3.5,4.1,5.6c0.9,2.1,1.7,4.2,2.4,6.3c2.6,8,4.5,16.3,5.6,24.7
			c1.1,7.9,1.7,15.4,2.2,22.4c0.5,7,1.2,13.4,3,18.9c1.4,5,4,9.6,7.5,13.5c2.6,2.8,6,4.9,9.6,6.2c2.3,0.8,4.7,1.1,7.1,0.9
			c0.8-0.1,1.4-0.1,1.8-0.2l0.6-0.1l-0.6,0.1c-0.6,0.1-1.2,0.2-1.9,0.3c-2.4,0.2-4.9-0.1-7.2-0.9c-3.7-1.2-7.1-3.3-9.8-6.1
			c-3.6-3.9-6.2-8.5-7.7-13.5c-1.8-5.6-2.6-12-3.1-18.9c-0.5-6.9-1.1-14.4-2.2-22.3c-1.1-8.4-3-16.6-5.7-24.6
			c-0.7-2.1-1.5-4.2-2.4-6.3c-0.9-2.1-2.2-3.9-3.9-5.4c-1.7-1.5-4-2.4-6.3-2.4c-2.3,0-4.6,0.7-6.7,1.9l0,0c-2.4,1.3-4.5,3-6.3,5.2
			c-1.8,2.2-3.3,4.5-4.5,7.1c-1.1,2.6-2.1,5.4-2.9,8.1c-0.8,2.8-1.6,5.6-2.2,8.5c-1.1,5.9-1.9,11.9-2.3,17.9c-0.2,3-0.4,6.1-0.8,9.2
			c-0.4,3.1-1,6.2-1.8,9.2c-1.8,6.7-4.7,13.1-8.7,18.8c-1.9,2.8-4.3,5.3-7.1,7.3c-2.7,2-5.7,3.6-8.8,4.8c-3.1,1.1-6.4,1.8-9.7,2
			c-1.6,0.1-3.2,0.3-4.9,0.3c-1.6,0-3.2-0.4-4.7-0.9c-1.5-0.6-2.9-1.3-4.3-2.1c-1.4-0.8-2.6-1.7-3.8-2.8c-1.2-1-2.2-2.2-3.1-3.6
			c-0.8-1.3-1.4-2.7-1.9-4.2c-1-2.8-1.9-5.7-2.7-8.6c-0.7-2.8-1.2-5.7-1.6-8.6c-0.5-5.5-2.2-10.9-4.9-15.8c-1.2-2.3-2.6-4.6-4.2-6.7
			c-1.5-2.1-3.3-3.8-5.5-5.1c-2.1-1.3-4.7-0.7-6.8,0.2c-2.1,1-3.8,2.7-5,4.7c-2.2,3.8-3,8.2-2.4,12.5c0.3,2,0.7,3.9,1.3,5.8
			c0.6,1.8,1.2,3.6,1.9,5.3c1.4,3.1,2.6,6.3,3.6,9.5c0.7,2.8,1.1,5.6,1.2,8.5c0.1,2.3-0.4,4.6-1.3,6.7c-0.7,1.5-1.8,2.8-3.2,3.8
			c-0.8,0.6-1.8,1-2.8,1.3C173.7,484.2,173.3,484.3,173,484.3z"/>
		<path id="Trazado_103835" class="st2" d="M256.1,467.3c0,0-0.1,0-0.2-0.1c-0.1-0.1-0.3-0.3-0.6-0.5c-0.7-0.6-1.4-1.3-2.1-2
			c-1.1-1.1-2-2.3-2.9-3.6c-1.2-1.7-2.2-3.5-2.9-5.4c-0.7-2.4-1.3-4.8-1.6-7.3c-0.4-2.6-0.7-5.5-1.3-8.4c-0.5-3.1-1.4-6.1-2.8-8.8
			c-0.7-1.4-1.7-2.8-2.8-3.9c-0.5-0.6-1.2-1.1-1.9-1.5c-0.8-0.3-1.6-0.6-2.4-0.7c-3.3-0.5-6.7-0.7-10-0.5c-3.3,0-6.4,0.2-9.4,0.2
			l-15.9,0.1h-13.7c-0.3,0-0.7,0-1-0.1c0.3,0,0.7-0.1,1-0.1l2.9-0.1l10.7-0.2l15.9-0.3c3,0,6.1-0.2,9.4-0.3c3.4-0.2,6.8,0,10.1,0.5
			c0.9,0.1,1.7,0.4,2.5,0.8c0.4,0.2,0.8,0.4,1.2,0.7c0.3,0.3,0.6,0.6,0.9,0.9c1.2,1.2,2.2,2.6,2.9,4.1c1.4,2.8,2.4,5.9,2.9,9
			c0.5,3,0.8,5.8,1.2,8.4c0.3,2.4,0.8,4.8,1.5,7.2c0.7,1.9,1.6,3.7,2.8,5.4c0.9,1.3,1.8,2.5,2.8,3.6c0.8,0.9,1.5,1.6,2,2.1
			C255.7,466.8,255.9,467,256.1,467.3z"/>
		<path id="Trazado_103836" class="st4" d="M505,109.2c0.1-2.9,1.7-5.5,4.3-6.9c0.4-0.2,0.9-0.4,1.3-0.4c0.5,0,0.9,0.3,1.1,0.7
			c0.1,0.5,0,1-0.4,1.3c-0.4,0.3-0.8,0.6-1.2,0.9c-1.2,1-1.8,2.6-1.5,4.1"/>
		<path id="Trazado_103837" class="st10" d="M482.7,58.4c-11.3,0.9-19.7,10.7-18.9,21.9c1.1,16,0.7,37.7-6.9,50.9
			c-13.2,22.9-33,26.9-31.5,72.7s3.6,50.6-5.6,62.4c-9.1,11.8-29,5.7-37.6,32.7c-8.6,26.9-2.5,161.6-16.3,175.9
			c0,0-11.2,10.7-22.9,9.7h65.7c5.6,0.1,11-2.1,15-5.9c3.4-3.2,5.3-7.7,5.2-12.4c0-9.3,3-140.3,8.1-151.5s31.5-22.6,35.5-48.4
			c4-25.8,2.6-67.6,2.6-75.1c0-7.1,1.4-21.1,15.1-37.3c20.7-24.6,17.9-51.4,18.4-60.6c0.5-9.2-3.6-36.7-3.6-36.7L482.7,58.4z"/>
		<path id="Trazado_103838" class="st8" d="M465.6,76.9c0.9-3.4,4.4-5.4,7.8-4.4c1.4,0.4,2.7,1.3,3.6,2.5c2,2.8,1.5,7.1,4.1,9.4
			c1.7,1.4,4.1,1.5,6.3,1.5c6.9-0.1,13.8-1,20.6-2.6l-1.5-21.6c0,0-32.9-2.9-36.9,2.5C465.5,69.6,465.6,76.9,465.6,76.9z"/>
		<path id="Trazado_103839" class="st9" d="M464,88c0-4.9,1.1-9.2,2.3-13.9c1.4-5.7,5.4-9.9,10.2-10.7c6.1-0.9,12.2,8,12.2,8
			s23.8-3.5,35.1-4.3c-0.8-2.9-6.8-10.6-11-11.5c-4.3-0.8-8.7-1-13-0.7c-7.8,0.2-15.9,0.5-23,3.8c-7.1,3.4-14.3,8.3-12.6,26.5"/>
		<path id="Trazado_103840" class="st2" d="M510.3,56.2c-0.4,0.1-0.8,0.1-1.2,0.1l-3.2,0.2c-2.7,0.2-6.5,0.5-10.7,0.9
			c-4.2,0.4-7.9,1-10.6,1.4l-3.2,0.6c-0.4,0.1-0.8,0.2-1.2,0.2c0.4-0.1,0.8-0.3,1.2-0.3c0.7-0.2,1.8-0.4,3.2-0.7
			c3.5-0.7,7-1.2,10.6-1.6c4.1-0.4,7.9-0.7,10.7-0.8l3.2-0.1C509.5,56.2,509.9,56.2,510.3,56.2z"/>
		<path id="Trazado_103841" class="st2" d="M436.6,316.2c0,0.2-10.1,1.8-22.5,3.7c-12.4,1.8-22.6,3.2-22.6,3
			c0-0.2,10.1-1.8,22.5-3.7S436.5,316.1,436.6,316.2z"/>
		<path id="Trazado_103842" class="st2" d="M438.9,311.3c0,0.2-9.3,0.4-20.7,0.4c-11.4,0.1-20.7,0-20.7-0.2c0-0.2,9.3-0.4,20.7-0.4
			C429.7,311.1,438.9,311.1,438.9,311.3z"/>
		<path id="Trazado_103843" class="st2" d="M345.9,484.7l1.2-0.2c1.1-0.1,2.2-0.4,3.3-0.7c4.1-1.2,8-3.2,11.5-5.7
			c1.2-0.9,2.4-1.8,3.5-2.8c1.2-1.1,2.1-2.5,2.6-4c1.3-3.4,2.3-7,2.8-10.7c1.5-8.9,2.5-17.9,3-27c1.4-20.1,2-44,2.8-70.6
			c0.4-13.3,0.9-27.2,2-41.7c0.3-3.6,0.6-7.2,1.1-10.9c0.4-3.7,1.1-7.4,2.1-11c0.6-1.8,1.3-3.6,2-5.3l1.3-2.5l0.6-1.3
			c0.2-0.4,0.5-0.8,0.8-1.2c2-3.3,4.6-6.2,7.7-8.5c3.1-2.2,6.5-4,10.1-5.4c3.5-1.3,7-2.8,10.2-4.6l1.2-0.7c0.4-0.3,0.7-0.6,1.1-0.9
			l1.1-0.9l0.9-1c0.3-0.3,0.6-0.7,0.9-1l0.8-1.1c0.6-0.7,1.1-1.5,1.6-2.3c1-1.5,1.8-3.1,2.5-4.8c0.6-1.7,1.1-3.4,1.3-5.2
			c0.5-3.5,0.7-7.1,0.6-10.7c0-3.6-0.1-7.1-0.2-10.5c-0.3-7-0.5-13.8-0.8-20.4c-0.1-3.3-0.3-6.6-0.3-9.9v-4.8c0-1.6,0.2-3.2,0.2-4.7
			c0.1-3.2,0.6-6.2,1-9.3c0.5-3,1.2-5.9,2.1-8.8c1.7-5.5,4.2-10.7,7.5-15.4c3.1-4.3,6.4-8.4,9.9-12.3c3.2-3.6,6.1-7.4,8.8-11.3
			l1.8-2.8c0.6-0.9,1-1.9,1.6-2.8c0.9-1.9,1.6-3.8,2.3-5.7c2-6.5,3.2-13.3,3.6-20.1c0.4-5.6,0.4-10,0.3-12.9c0-1.5,0-2.6-0.1-3.4
			c0-0.4,0-0.8,0-1.2c0,0,0.1,1.6,0.2,4.5c0.1,3,0.1,7.3-0.2,13c-0.3,6.8-1.5,13.6-3.5,20.1c-0.6,2-1.4,3.9-2.3,5.8
			c-0.5,0.9-1,1.9-1.6,2.9c-0.6,0.9-1.2,1.9-1.8,2.9c-2.7,4-5.6,7.8-8.8,11.4c-3.5,3.9-6.9,8-10,12.3c-3.2,4.7-5.7,9.8-7.4,15.3
			c-0.9,2.9-1.6,5.8-2.1,8.7c-0.4,3-0.9,6.1-1,9.2c-0.1,1.6-0.2,3.1-0.2,4.7c0,1.6,0,3.2,0,4.8c0,3.2,0.2,6.5,0.3,9.8
			c0.3,6.6,0.5,13.5,0.8,20.4c0.1,3.5,0.2,7,0.2,10.6c0.1,3.6-0.1,7.2-0.6,10.8c-0.3,1.8-0.7,3.6-1.4,5.3c-0.7,1.7-1.5,3.4-2.5,4.9
			c-0.5,0.8-1,1.6-1.6,2.3l-0.8,1.1c-0.3,0.4-0.6,0.7-0.9,1.1l-1,1.1l-1.1,0.9c-0.4,0.3-0.7,0.6-1.1,0.9l-1.2,0.8
			c-3.3,1.8-6.8,3.4-10.3,4.7c-3.6,1.3-6.9,3.1-10,5.3c-3.1,2.2-5.6,5-7.6,8.3c-0.2,0.4-0.5,0.8-0.8,1.2l-0.6,1.3l-1.2,2.5
			c-0.7,1.8-1.4,3.5-1.9,5.2c-1,3.6-1.7,7.2-2.1,10.9c-0.5,3.6-0.8,7.3-1.1,10.9c-1.1,14.4-1.6,28.4-2,41.7
			c-0.9,26.6-1.5,50.5-2.9,70.6c-0.5,9.1-1.6,18.1-3.1,27c-0.6,3.7-1.6,7.3-2.9,10.8c-0.6,1.6-1.5,3-2.7,4.1c-1.1,1-2.3,1.9-3.6,2.7
			c-3.5,2.6-7.4,4.5-11.6,5.7c-1.1,0.3-2.2,0.5-3.3,0.6L345.9,484.7z"/>
		<path id="Trazado_103844" class="st2" d="M464.1,85.8l-0.1-1.5c0-1-0.2-2.5-0.3-4.4c0-1.1,0-2.2,0.1-3.2c0.1-1.2,0.5-2.5,0.7-3.8
			c0.7-3.2,2.2-6.2,4.4-8.6c3-2.9,6.5-5,10.4-6.4c4.6-1.7,9.4-2.7,14.3-3c2.6-0.2,5.3-0.3,8.1-0.4c2.9-0.1,5.8,0.2,8.6,0.9
			c1.5,0.4,2.9,0.9,4.3,1.6c1.4,0.7,2.7,1.6,3.9,2.6c1.2,1,2.4,2.2,3.4,3.4c0.5,0.6,1,1.3,1.3,2.1c0.4,0.7,0.7,1.6,0.7,2.4v0.2h-0.2
			c-5.3,0.5-11,1.6-17,2.4l0.2-0.3c0.7,5.8,1.4,11.8,1.8,18c0.1,1.6,0.1,3.1,0.1,4.7s-0.1,3.2-0.1,4.7c0,3.2,0,6.5-0.2,9.8
			c-0.4,6.8-1.5,13.6-3.4,20.1c-2.1,6.9-5.1,13.4-9,19.5c-3.9,6.2-9.4,11.5-13,18.1c-4,6.6-6.5,14-7.4,21.6
			c-0.3,3.9-0.3,7.9-0.1,11.8c0,3.9,0.1,8,0.1,12c0.1,8.1,0,16.2-0.3,24.5c-0.3,9.5-0.8,18.9-2,28.1c-0.5,4.6-1.6,9.1-3.3,13.4
			c-1.8,4.2-4.1,8.1-7,11.7c-5.6,7.1-12.5,12.8-18.8,18.6l-2.2,2.3c-0.7,0.8-1.5,1.6-2.2,2.4l-1,1.3c-0.3,0.4-0.6,0.8-0.9,1.3
			l-0.8,1.4c-0.2,0.5-0.4,1-0.5,1.4c-0.9,4.1-1.5,8.2-1.8,12.3c-1.6,16.4-2.3,32-3,46.7c-0.7,14.6-1.2,28.3-1.6,40.7
			s-0.7,23.7-1,33.6c-0.1,5-0.2,9.5-0.3,13.8c0.1,2-0.1,4.1-0.3,6.1c-0.3,1.8-1,3.6-1.9,5.2c-1.6,2.7-3.8,5-6.4,6.6
			c-1.9,1.2-4,2.1-6.3,2.6c-1.4,0.3-2.7,0.5-4.1,0.6h-1.1c0.4,0,0.7,0,1.1-0.1c3.7-0.2,7.2-1.4,10.3-3.3c2.6-1.7,4.8-3.9,6.3-6.6
			c0.9-1.6,1.5-3.3,1.8-5.1c0.3-2,0.4-4,0.3-6.1c0.1-4.2,0.2-8.8,0.3-13.8c0.2-9.9,0.5-21.2,0.9-33.6c0.4-12.5,0.9-26.1,1.5-40.7
			s1.4-30.3,3-46.7c0.3-4.2,0.9-8.3,1.8-12.4c0.2-0.5,0.3-1.1,0.5-1.5l0.8-1.4c0.3-0.5,0.6-0.9,0.9-1.3l1-1.3
			c0.7-0.8,1.4-1.6,2.2-2.4l2.4-2.3c6.3-5.9,13.2-11.4,18.7-18.5c2.8-3.5,5.1-7.4,6.9-11.6c1.7-4.3,2.7-8.7,3.2-13.3
			c1.2-9.2,1.7-18.6,2-28.1c0.3-8.2,0.3-16.4,0.3-24.4c0-4-0.1-8-0.1-12c-0.2-3.9-0.1-7.9,0.2-11.8c0.9-7.7,3.4-15.2,7.4-21.9
			c3.7-6.7,9.2-12,13-18.1c3.9-6,6.9-12.5,8.9-19.3c1.9-6.5,3-13.2,3.4-20c0.2-3.3,0.2-6.6,0.3-9.8c0-1.6,0.1-3.2,0.1-4.7
			c0-1.5,0-3.2-0.1-4.7c-0.4-6.2-1.1-12.2-1.8-18v-0.2h0.2c5.9-0.7,11.6-1.9,17-2.4l-0.2,0.2c-0.2-1.6-0.9-3.1-2-4.3
			c-1-1.2-2.1-2.4-3.3-3.4c-1.2-1-2.4-1.9-3.8-2.6c-1.4-0.6-2.8-1.1-4.2-1.5c-2.8-0.7-5.7-1-8.5-0.9c-2.8,0-5.5,0.1-8.1,0.4
			c-4.9,0.3-9.6,1.3-14.2,2.9c-3.9,1.3-7.4,3.5-10.3,6.3c-2.2,2.4-3.7,5.3-4.4,8.5c-0.3,1.4-0.6,2.6-0.7,3.8
			c-0.1,1.1-0.2,2.1-0.2,3.2c0.1,1.9,0.2,3.4,0.2,4.4C464.1,84.8,464.1,85.3,464.1,85.8z"/>
		<path id="Trazado_103845" class="st2" d="M523.8,67.3c-0.2,0.1-0.4,0.1-0.7,0.1l-1.9,0.3l-7.1,0.9l-23.5,2.9l-1.9,0.2h-0.2
			l-0.1-0.2c-1.1-1.8-2.5-3.5-4-5c-1.4-1.4-3.1-2.4-5-2.8c-1.7-0.3-3.5-0.2-5.2,0.3c-1.4,0.5-2.8,1.3-3.8,2.4
			c-1.5,1.6-2.7,3.5-3.6,5.6c-0.3,0.7-0.5,1.3-0.6,1.7c-0.1,0.2-0.1,0.4-0.2,0.6c0-0.2,0-0.4,0.1-0.6c0.6-2.8,2-5.4,3.9-7.6
			c1.1-1.2,2.5-2,4-2.6c1.7-0.6,3.6-0.7,5.4-0.4c2,0.5,3.8,1.5,5.3,3c1.5,1.5,2.9,3.2,4.1,5.1l-0.3-0.1l1.9-0.2l23.5-2.7l7.1-0.7
			l1.9-0.2C523.3,67.3,523.5,67.3,523.8,67.3z"/>
		<path id="Trazado_103846" class="st4" d="M508.6,111.3c0,0.6-0.4,1.1-1,1.4l-7.1,2.7c-1.1,0.4-2.5,0.7-3.2-0.2
			c-0.4-0.7-0.3-1.6,0.3-2.2c0.6-0.5,1.3-0.9,2-1.2c2.7-1.2,5.7-2.3,8.5-3.4c0.2-0.1,0.4,0,0.5,0.2c0,0,0,0,0,0c0,0.1,0,0.1,0,0.2
			L508.6,111.3z"/>
		<path id="Trazado_103847" class="st4" d="M508.8,113.7c0.3,1.5-0.5,2.9-1.9,3.5l-6.6,2.5c-1.1,0.4-2.5,0.7-3.2-0.2
			c-0.4-0.7-0.3-1.6,0.3-2.2c0.6-0.5,1.3-0.9,2-1.2c2.6-1.1,5.5-2.2,8.1-3.3c0.4-0.2,0.9,0,1.1,0.5c0,0,0,0,0,0c0,0.1,0,0.1,0,0.2
			L508.8,113.7z"/>
		<path id="Trazado_103848" class="st4" d="M507.6,117.3c0.5,2.1-0.6,4.3-2.7,5.1l-5.5,2.1c-1.1,0.4-2.5,0.7-3.2-0.2
			c-0.4-0.7-0.3-1.6,0.3-2.2c0.6-0.5,1.3-0.9,2-1.2C501.5,119.7,504.7,118.4,507.6,117.3L507.6,117.3z"/>
		<path id="Trazado_103849" class="st2" d="M478.6,173.4c0,0.2-8.7,3.4-19.5,7.2c-10.8,3.8-19.6,6.8-19.7,6.6
			c-0.1-0.2,8.7-3.4,19.5-7.2C469.7,176.2,478.6,173.3,478.6,173.4z"/>
		<path id="Trazado_103850" class="st2" d="M473.9,178.2c-1,0.8-2,1.6-3.2,2.3c-2,1.3-4.7,3.1-7.9,4.9c-3.2,1.9-6,3.5-8.1,4.6
			c-1.1,0.7-2.3,1.2-3.5,1.7c1-0.8,2.1-1.5,3.3-2.1l8-4.7l8-4.7C471.6,179.4,472.8,178.7,473.9,178.2z"/>
	</g>
	<g id="freepik--speech-bubble--inject-34">
		<path id="Trazado_103851" class="st11" d="M291.4,32.8c0,0.1,0,0.3,0,0.4v1.1c0,1,0,2.4,0.1,4c0,3.4,0.1,8.3,0.1,14l-0.3-0.3h19.4
			c0.1,0-0.6,0.6-0.3,0.3l0,0V32.8l0.3,0.3l-14-0.1l-4-0.1h-1.5c0.4,0,0.9,0,1.4,0l3.9-0.1l14.2-0.1h0.3v19.5l0,0
			c0.3-0.3-0.4,0.4-0.3,0.3H291v-0.3c0.1-5.8,0.1-10.7,0.1-14.2c0-1.6,0-2.9,0.1-3.9C291.2,33.7,291.3,33.2,291.4,32.8z"/>
		<path id="Trazado_103852" class="st11" d="M314.9,28.5c0.4,0.3-3.7,6-9.2,12.6c-1.2,1.4-2.3,2.7-3.3,3.9l-0.6,0.7l-0.7-0.6
			c-4.5-4.1-7.6-7.2-7.4-7.5s3.8,2.3,8.5,6.2l-1.2,0.1c1-1.2,2.1-2.6,3.2-4C309.8,33.3,314.5,28.2,314.9,28.5z"/>
		<path id="Trazado_103853" class="st11" d="M303.2,14.3h-2.9l-1.3,0.2l-1.5,0.2l-1.6,0.4c-2.8,0.7-5.5,1.9-7.9,3.5
			c-7.3,4.6-12,12.4-12.8,21c-0.1,1.3-0.1,2.6-0.1,3.8c0,0.7,0,1.3,0.1,2c0.1,0.7,0.2,1.3,0.3,2c0.5,2.7,1.4,5.3,2.7,7.8
			c1.4,2.6,3.1,4.9,5.1,7c2.2,2.1,4.6,3.9,7.3,5.3c2.8,1.4,5.8,2.4,9,2.7c0.8,0.1,1.6,0.2,2.4,0.2c0.8,0,1.6,0,2.4,0
			c1.6-0.1,3.2-0.3,4.8-0.6c3.4-0.7,6.7-2.1,9.6-4h-0.3l9.8,3.9l0.6,0.2l-0.2-0.6c-1-3.6-2-7.1-2.9-10.5v0.3
			c2.6-3.5,4.4-7.6,5.2-11.9c0.4-2,0.5-4.1,0.4-6.1c0-1-0.1-2-0.3-2.9c-0.1-0.5-0.2-1-0.2-1.4c-0.1-0.5-0.2-0.9-0.3-1.4
			c-1.6-6.4-5.5-12.1-10.9-15.9c-2-1.4-4.2-2.6-6.5-3.4l-1.5-0.5l-1.4-0.4l-1.3-0.3l-1.2-0.2c-0.7-0.1-1.4-0.2-2-0.2L303.2,14.3
			c0.1,0,0.2,0,0.2,0l0.9,0.1l1.4,0.1c0.7,0.1,1.3,0.2,1.9,0.3c10.9,1.9,19.6,10,22.3,20.7c0.1,0.5,0.2,0.9,0.3,1.4s0.1,0.9,0.2,1.4
			c0.2,1,0.3,1.9,0.3,2.9c0.1,2,0,4-0.4,6c-0.8,4.3-2.6,8.3-5.2,11.7l-0.1,0.1v0.1l2.9,10.5l0.4-0.4l-9.7-4l-0.2-0.1l-0.1,0.1
			c-4.2,2.8-9.1,4.4-14.1,4.5c-0.8,0-1.6,0-2.4,0c-0.8,0-1.6-0.1-2.4-0.2c-3.1-0.4-6-1.3-8.8-2.7c-2.6-1.3-5.1-3.1-7.2-5.1
			c-2-2-3.7-4.3-5-6.9c-1.2-2.4-2.1-5-2.6-7.6c-0.1-0.7-0.2-1.3-0.3-1.9c-0.1-0.6-0.1-1.3-0.1-1.9c-0.1-1.3,0-2.5,0.1-3.8
			c0.8-8.5,5.4-16.1,12.5-20.8c2.4-1.6,5-2.8,7.8-3.6l1.6-0.4l1.4-0.2l1.2-0.2l1-0.1l1.4-0.1C302.8,14.3,303,14.3,303.2,14.3z"/>
	</g>
</g>
</svg>
