<svg xmlns="http://www.w3.org/2000/svg" width="500" height="500" viewBox="0 0 500 500">
  <g id="Grupo_59600" data-name="Grupo 59600" transform="translate(-726.398 -88.167)">
    <rect id="Rectángulo_6079" data-name="Rectángulo 6079" width="500" height="500" transform="translate(726.398 88.167)" fill="#e5c065" opacity="0"/>
    <g id="Grupo_59599" data-name="Grupo 59599">
      <g id="freepik--Character--inject-34">
        <path id="Trazado_103706" data-name="Trazado 103706" d="M961.63,549.2l2.58-11,21.43.53-1.79,15.65-1.36.11c-6.07.41-30.88,1.66-35,.48C943.04,553.637,961.63,549.2,961.63,549.2Z" fill="#aed3f2"/>
        <g id="Grupo_59593" data-name="Grupo 59593" opacity="0.4">
          <path id="Trazado_103707" data-name="Trazado 103707" d="M975.87,554.3a7.627,7.627,0,0,1,2.75-4.73,7.4,7.4,0,0,1,5.12-1.66l.08,6.15Z"/>
        </g>
        <g id="Grupo_59594" data-name="Grupo 59594" opacity="0.4">
          <path id="Trazado_103708" data-name="Trazado 103708" d="M952.53,551.7s-6.53,2-5.7,3,26,.75,37-.36v-.49l-29.3.62S953.81,551.727,952.53,551.7Z"/>
        </g>
        <path id="Trazado_103709" data-name="Trazado 103709" d="M984.15,553.857a1.675,1.675,0,0,1-.38.05l-1.08.08-4,.22c-3.37.17-8,.33-13.2.4s-9.83,0-13.21,0l-4-.12h-1.46a1.609,1.609,0,0,1,.38,0h18.28c5.2,0,9.82-.21,13.19-.33l4-.13h1.09Z" fill="#344154"/>
        <path id="Trazado_103710" data-name="Trazado 103710" d="M954.52,554.847a9.055,9.055,0,0,0-.77-1.9,8.87,8.87,0,0,0-1.39-1.52,3.563,3.563,0,0,1,2.16,3.42Z" fill="#344154"/>
        <path id="Trazado_103711" data-name="Trazado 103711" d="M960.97,551.487a2.825,2.825,0,0,1-.71-.84c-.33-.51-.54-.94-.48-1s.38.34.71.84S961.04,551.427,960.97,551.487Z" fill="#344154"/>
        <path id="Trazado_103712" data-name="Trazado 103712" d="M962.74,550.487a2.188,2.188,0,0,1-.78-.51c-.38-.33-.66-.66-.61-.71s.4.17.78.51A2.3,2.3,0,0,1,962.74,550.487Z" fill="#344154"/>
        <path id="Trazado_103713" data-name="Trazado 103713" d="M963.84,548.407a2.511,2.511,0,0,1-1.15.17,2.715,2.715,0,0,1-1.15-.11,2.59,2.59,0,0,1,1.15-.16A2.62,2.62,0,0,1,963.84,548.407Z" fill="#344154"/>
        <path id="Trazado_103714" data-name="Trazado 103714" d="M964.21,546.937a3.252,3.252,0,0,1-2.61.23,7.761,7.761,0,0,1,1.31-.1A7.665,7.665,0,0,1,964.21,546.937Z" fill="#344154"/>
        <path id="Trazado_103715" data-name="Trazado 103715" d="M960.2,549.557a4.23,4.23,0,0,1-1.42,0,8.625,8.625,0,0,1-1.51-.31,4.592,4.592,0,0,1-.86-.35.781.781,0,0,1-.37-.41.56.56,0,0,1,.21-.57,2.6,2.6,0,0,1,3.22.72,2.47,2.47,0,0,1,.47.94c.06.24.06.37,0,.38a3.911,3.911,0,0,0-.66-1.2,2.5,2.5,0,0,0-1.22-.77,2.191,2.191,0,0,0-1.68.14c-.22.16-.13.43.12.57a3.725,3.725,0,0,0,.8.33,9.638,9.638,0,0,0,1.46.36A7.282,7.282,0,0,1,960.2,549.557Z" fill="#344154"/>
        <path id="Trazado_103716" data-name="Trazado 103716" d="M959.83,549.637a1.426,1.426,0,0,1-.17-1,2.3,2.3,0,0,1,.37-1,1.42,1.42,0,0,1,1.17-.74.56.56,0,0,1,.44.65,1.487,1.487,0,0,1-.23.63,4.3,4.3,0,0,1-.66.87c-.44.44-.78.61-.8.58s.28-.26.66-.71a4.752,4.752,0,0,0,.58-.86c.19-.3.32-.83,0-.89s-.72.32-.93.61a2.3,2.3,0,0,0-.39.92A5.575,5.575,0,0,0,959.83,549.637Z" fill="#344154"/>
        <path id="Trazado_103717" data-name="Trazado 103717" d="M983.63,547.847c0,.05-.63-.05-1.63.08a6.85,6.85,0,0,0-5.7,4.66c-.33.95-.35,1.59-.4,1.58a1.086,1.086,0,0,1,0-.44,5.956,5.956,0,0,1,.23-1.19,6.7,6.7,0,0,1,5.86-4.8,5.687,5.687,0,0,1,1.21,0A1.091,1.091,0,0,1,983.63,547.847Z" fill="#344154"/>
        <path id="Trazado_103718" data-name="Trazado 103718" d="M981.23,538.717a41.118,41.118,0,0,1,.25,4.52,40.081,40.081,0,0,1,0,4.52,38.185,38.185,0,0,1-.25-4.51A40.288,40.288,0,0,1,981.23,538.717Z" fill="#344154"/>
        <path id="Trazado_103719" data-name="Trazado 103719" d="M973.04,552.187a18,18,0,0,1-6.43.14c0-.08,1.45,0,3.22,0S973.04,552.107,973.04,552.187Z" fill="#344154"/>
        <path id="Trazado_103720" data-name="Trazado 103720" d="M977.38,552.127c.06.05-.11.3-.25.63s-.22.63-.3.62-.11-.34.05-.72S977.34,552.067,977.38,552.127Z" fill="#344154"/>
        <path id="Trazado_103721" data-name="Trazado 103721" d="M978.98,550.077c.06.05-.08.28-.31.52s-.45.38-.5.33.09-.28.31-.52S978.93,550.027,978.98,550.077Z" fill="#344154"/>
        <path id="Trazado_103722" data-name="Trazado 103722" d="M981.3,549.127c0,.07-.31.08-.63.19s-.55.3-.61.25.12-.36.52-.5S981.32,549.057,981.3,549.127Z" fill="#344154"/>
        <path id="Trazado_103723" data-name="Trazado 103723" d="M982.95,548.667c0,.07-.1.19-.28.26s-.35.07-.38,0,.1-.19.28-.26S982.92,548.6,982.95,548.667Z" fill="#344154"/>
        <path id="Trazado_103724" data-name="Trazado 103724" d="M1049.32,549.247l.07-11.74-22-.27-.28,17.19,1.37.1c6.06.41,30.88,1.66,34.95.48C1067.96,553.687,1049.32,549.247,1049.32,549.247Z" fill="#aed3f2"/>
        <g id="Grupo_59595" data-name="Grupo 59595" opacity="0.4">
          <path id="Trazado_103725" data-name="Trazado 103725" d="M1035.04,554.347a7.651,7.651,0,0,0-2.75-4.73,7.45,7.45,0,0,0-5.12-1.66l-.08,6.15Z"/>
        </g>
        <g id="Grupo_59596" data-name="Grupo 59596" opacity="0.4">
          <path id="Trazado_103726" data-name="Trazado 103726" d="M1058.42,551.747s6.53,2,5.7,3-25.95.75-37-.36v-.5l29.3.63S1057.14,551.787,1058.42,551.747Z"/>
        </g>
        <path id="Trazado_103727" data-name="Trazado 103727" d="M1026.8,553.917h.38l1.08.08,4,.23c3.37.16,8,.32,13.2.4s9.83,0,13.21-.05l4-.11h1.47a1.727,1.727,0,0,0-.38,0h-18.3c-5.16,0-9.82-.21-13.19-.32l-4-.14h-1.09Z" fill="#344154"/>
        <path id="Trazado_103728" data-name="Trazado 103728" d="M1056.43,554.9a9.3,9.3,0,0,1,.77-1.9,8.134,8.134,0,0,1,1.39-1.51,2.882,2.882,0,0,0-1.61,1.37A3,3,0,0,0,1056.43,554.9Z" fill="#344154"/>
        <path id="Trazado_103729" data-name="Trazado 103729" d="M1049.98,551.487a2.864,2.864,0,0,0,.71-.83c.33-.5.54-.94.48-1s-.38.33-.71.83A2.538,2.538,0,0,0,1049.98,551.487Z" fill="#344154"/>
        <path id="Trazado_103730" data-name="Trazado 103730" d="M1048.21,550.557c.05.05.4-.17.79-.51s.65-.65.6-.71-.4.17-.78.51S1048.16,550.487,1048.21,550.557Z" fill="#344154"/>
        <path id="Trazado_103731" data-name="Trazado 103731" d="M1047.11,548.487a2.763,2.763,0,0,0,1.15.16,2.535,2.535,0,0,0,1.15-.11,2.747,2.747,0,0,0-1.14-.16A2.592,2.592,0,0,0,1047.11,548.487Z" fill="#344154"/>
        <path id="Trazado_103732" data-name="Trazado 103732" d="M1046.75,547a3.22,3.22,0,0,0,2.6.23,6.994,6.994,0,0,0-1.3-.11A6.3,6.3,0,0,0,1046.75,547Z" fill="#344154"/>
        <path id="Trazado_103733" data-name="Trazado 103733" d="M1050.75,549.607a3.9,3.9,0,0,0,1.42,0,7.785,7.785,0,0,0,1.51-.31,5.308,5.308,0,0,0,.86-.34.84.84,0,0,0,.36-.44.56.56,0,0,0-.21-.57,2.6,2.6,0,0,0-3.21.72,2.388,2.388,0,0,0-.48.94.839.839,0,0,0,0,.38,3.888,3.888,0,0,1,.66-1.2,2.569,2.569,0,0,1,1.22-.77,2.192,2.192,0,0,1,1.68.14c.22.17.13.43-.12.58a4.035,4.035,0,0,1-.8.32,9.192,9.192,0,0,1-1.46.37C1051.29,549.567,1050.75,549.567,1050.75,549.607Z" fill="#344154"/>
        <path id="Trazado_103734" data-name="Trazado 103734" d="M1051.12,549.687a1.432,1.432,0,0,0,.17-1,2.339,2.339,0,0,0-.37-1,1.42,1.42,0,0,0-1.17-.74.57.57,0,0,0-.44.65,1.559,1.559,0,0,0,.23.64,4.479,4.479,0,0,0,.66.86c.44.44.78.61.8.58s-.28-.25-.66-.71a4.641,4.641,0,0,1-.58-.85c-.19-.3-.32-.84,0-.9s.71.32.92.61a2.3,2.3,0,0,1,.39.92A5.563,5.563,0,0,1,1051.12,549.687Z" fill="#344154"/>
        <path id="Trazado_103735" data-name="Trazado 103735" d="M1027.32,547.9a8.658,8.658,0,0,1,1.63.08,6.879,6.879,0,0,1,5.7,4.67c.33.94.35,1.58.4,1.57a1.09,1.09,0,0,0,0-.44,5.422,5.422,0,0,0-.23-1.19,6.82,6.82,0,0,0-2.18-3.31,6.9,6.9,0,0,0-3.68-1.49,5.7,5.7,0,0,0-1.21,0A1.83,1.83,0,0,0,1027.32,547.9Z" fill="#344154"/>
        <path id="Trazado_103736" data-name="Trazado 103736" d="M1029.72,538.767a41.358,41.358,0,0,0-.25,4.52,40.288,40.288,0,0,0,0,4.53,38.354,38.354,0,0,0,.25-4.52A40.229,40.229,0,0,0,1029.72,538.767Z" fill="#344154"/>
        <path id="Trazado_103737" data-name="Trazado 103737" d="M1037.88,552.237a18,18,0,0,0,6.43.14c0-.07-1.45,0-3.22-.05S1037.89,552.157,1037.88,552.237Z" fill="#344154"/>
        <path id="Trazado_103738" data-name="Trazado 103738" d="M1033.57,552.177c-.06.05.11.3.25.64s.22.62.3.62.12-.35-.05-.73S1033.61,552.127,1033.57,552.177Z" fill="#344154"/>
        <path id="Trazado_103739" data-name="Trazado 103739" d="M1031.97,550.137c-.06.05.08.28.31.51s.45.38.5.33-.09-.28-.31-.51S1032.04,550.077,1031.97,550.137Z" fill="#344154"/>
        <path id="Trazado_103740" data-name="Trazado 103740" d="M1029.65,549.177c0,.08.31.08.63.2s.55.29.61.24-.12-.36-.52-.5S1029.63,549.107,1029.65,549.177Z" fill="#344154"/>
        <path id="Trazado_103741" data-name="Trazado 103741" d="M1028.04,548.717c0,.07.1.19.28.26s.35.08.38,0-.1-.18-.28-.26S1028.04,548.657,1028.04,548.717Z" fill="#344154"/>
        <path id="Trazado_103742" data-name="Trazado 103742" d="M1061.83,334.807l-10.01,211.67-27.47.65,2.16-183.53L985.4,547.477l-23.39-1.06,36.68-211.18Z" fill="#344154"/>
        <path id="Trazado_103743" data-name="Trazado 103743" d="M1033.25,337.667a23.409,23.409,0,0,1-.25,3.48c-.23,2.14-.58,5.09-1,8.35a34.235,34.235,0,0,1-.76,4.6,6.485,6.485,0,0,1-2,3.29,5,5,0,0,1-2.33,1.15,2.007,2.007,0,0,1-.95,0,5.92,5.92,0,0,0,4.79-4.6,40.7,40.7,0,0,0,.7-4.54c.43-3.25.84-6.2,1.17-8.32A20.238,20.238,0,0,1,1033.25,337.667Z" fill="#455a64"/>
        <path id="Trazado_103744" data-name="Trazado 103744" d="M1026.48,338.927c.08.05-.18.4,0,.95a1.091,1.091,0,0,0,.57.68.93.93,0,0,0,1-.23.91.91,0,0,0,.28-1,1.143,1.143,0,0,0-.65-.61,1.939,1.939,0,0,0-.95-.05c-.05-.05.29-.49,1.06-.35a1.429,1.429,0,1,1-1,2.67,1.43,1.43,0,0,1-.74-1.08C1025.98,339.187,1026.46,338.857,1026.48,338.927Z" fill="#455a64"/>
        <path id="Trazado_103745" data-name="Trazado 103745" d="M1009.04,342.577a6.151,6.151,0,0,1,.41-5.86c.16.06-.27,1.32-.37,2.91A27.47,27.47,0,0,1,1009.04,342.577Z" fill="#455a64"/>
        <path id="Trazado_103746" data-name="Trazado 103746" d="M1012.96,342.177a7.178,7.178,0,0,1,.2-6.1,25.284,25.284,0,0,1-.2,3A26.291,26.291,0,0,1,1012.96,342.177Z" fill="#455a64"/>
        <path id="Trazado_103747" data-name="Trazado 103747" d="M1046.77,341.787a19.624,19.624,0,0,1,.07-3.16,19.974,19.974,0,0,1,0-3.17,8.578,8.578,0,0,1-.09,6.33Z" fill="#455a64"/>
        <path id="Trazado_103748" data-name="Trazado 103748" d="M1051.04,341.4c-.16-.06.3-1.45.35-3.22s-.3-3.19-.14-3.24a5,5,0,0,1,.71,3.25A5.1,5.1,0,0,1,1051.04,341.4Z" fill="#455a64"/>
        <path id="Trazado_103749" data-name="Trazado 103749" d="M1014.69,239.207Z" fill="#aed3f2"/>
        <path id="Trazado_103750" data-name="Trazado 103750" d="M1044.75,202.087c1.12-1.33,2-3.7,1.31-5.3,1.34-.69,1.46-1.88,1.46-3.38a9.214,9.214,0,0,0-1.3-4.27,12.383,12.383,0,0,0-4.83-5.29,6.429,6.429,0,0,0-6.87.3,8.33,8.33,0,0,0-11.737-1.007c-.065.054-.13.11-.193.167a8.845,8.845,0,0,1-1.81,1.65c-1.19.66-2.65.41-4,.54a7,7,0,0,0-5.82,9.76,7.619,7.619,0,0,0-3.23,5.83,22.334,22.334,0,0,0,.78,6.83c.62,2.77,1.32,5.68,3.28,7.73a8.052,8.052,0,0,0,5.14,2.43,8.2,8.2,0,0,0,7.2-3.39" fill="#344154"/>
        <path id="Trazado_103751" data-name="Trazado 103751" d="M1015.48,249.277l22.22-1c.13-2.36-1.08-17-1.08-17s8.4-1.3,8.51-9.7-1.36-27.68-1.36-27.68h0a29.2,29.2,0,0,0-29.33,3.68l-1.24,1Z" fill="#ffbf9d"/>
        <path id="Trazado_103752" data-name="Trazado 103752" d="M1036.64,231.187a19.556,19.556,0,0,1-11-3.11s2.59,6,11,5.29Z" fill="#aa6550"/>
        <path id="Trazado_103753" data-name="Trazado 103753" d="M1014.23,207.267c-.14-.06-5.77-1.71-5.58,4s5.91,4.38,5.91,4.21S1014.23,207.267,1014.23,207.267Z" fill="#ffbf9d"/>
        <path id="Trazado_103754" data-name="Trazado 103754" d="M1012.74,213.387a1.476,1.476,0,0,1-.27.16,1,1,0,0,1-.74,0,2.46,2.46,0,0,1-1.22-2.19,3.226,3.226,0,0,1,.24-1.44,1.172,1.172,0,0,1,.72-.79.511.511,0,0,1,.6.26c.08.16.05.27.08.28s.12-.1.07-.34a.669.669,0,0,0-.24-.35.741.741,0,0,0-.56-.13,1.423,1.423,0,0,0-1,.93,3.369,3.369,0,0,0-.3,1.61,2.6,2.6,0,0,0,1.54,2.43,1.08,1.08,0,0,0,.91-.18C1012.73,213.487,1012.76,213.4,1012.74,213.387Z" fill="#aa6550"/>
        <path id="Trazado_103755" data-name="Trazado 103755" d="M1041.92,207.087a1.19,1.19,0,0,1-1.15,1.21,1.149,1.149,0,0,1-1.238-1.054l0-.026a1.2,1.2,0,0,1,1.15-1.21,1.14,1.14,0,0,1,1.237,1.034Z" fill="#344154"/>
        <path id="Trazado_103756" data-name="Trazado 103756" d="M1042.18,205.737c-.14.16-1.05-.52-2.34-.51s-2.24.65-2.38.49.08-.35.49-.65a3.324,3.324,0,0,1,1.91-.59,3.169,3.169,0,0,1,1.87.6C1042.12,205.387,1042.26,205.667,1042.18,205.737Z" fill="#344154"/>
        <path id="Trazado_103757" data-name="Trazado 103757" d="M1029.28,207.387a1.19,1.19,0,0,1-1.15,1.21,1.149,1.149,0,0,1-1.238-1.054l0-.026a1.2,1.2,0,0,1,1.16-1.21,1.14,1.14,0,0,1,1.228,1.045Z" fill="#344154"/>
        <path id="Trazado_103758" data-name="Trazado 103758" d="M1029.5,205.977c-.15.16-1.06-.52-2.35-.51s-2.24.65-2.38.49.08-.35.5-.65a3.291,3.291,0,0,1,1.9-.59,3.17,3.17,0,0,1,1.87.6C1029.44,205.627,1029.57,205.907,1029.5,205.977Z" fill="#344154"/>
        <path id="Trazado_103759" data-name="Trazado 103759" d="M1034.18,215.547a9.083,9.083,0,0,1,2.1-.38c.33,0,.64-.1.7-.32a1.852,1.852,0,0,0-.22-1l-1-2.51a44.3,44.3,0,0,1-2.19-6.56,42.511,42.511,0,0,1,2.71,6.37l.94,2.53a1.91,1.91,0,0,1,.17,1.29.829.829,0,0,1-.54.48,2.005,2.005,0,0,1-.56.08A7.971,7.971,0,0,1,1034.18,215.547Z" fill="#344154"/>
        <path id="Trazado_103760" data-name="Trazado 103760" d="M1030.38,216.487c.21,0,.22,1.39,1.42,2.39a6.48,6.48,0,0,0,2.7,1c.01.16-.34.28-1,.29a3.467,3.467,0,0,1-2.25-.78,3.08,3.08,0,0,1-1.1-2C1030.13,216.777,1030.29,216.487,1030.38,216.487Z" fill="#344154"/>
        <path id="Trazado_103761" data-name="Trazado 103761" d="M1029.83,200.917c-.13.35-1.41.19-2.93.37s-2.74.6-2.94.28c-.09-.15.12-.48.62-.82a4.892,4.892,0,0,1,2.18-.76,4.814,4.814,0,0,1,2.29.27C1029.61,200.487,1029.89,200.757,1029.83,200.917Z" fill="#344154"/>
        <path id="Trazado_103762" data-name="Trazado 103762" d="M1041.71,202c-.23.3-1.12,0-2.19,0s-2,.2-2.18-.11c-.09-.15.05-.44.45-.72a3.16,3.16,0,0,1,3.52.11C1041.69,201.557,1041.81,201.857,1041.71,202Z" fill="#344154"/>
        <path id="Trazado_103763" data-name="Trazado 103763" d="M1012.75,198.187c.11,2.44-.43,5.17,0,7.57.07.37,1,1.34,1.1,1.7.49,2.12,1.37,3,2.64.84a19.074,19.074,0,0,0,1-4.14l1.53-7.76a13.427,13.427,0,0,0,6.39,1.52,6.539,6.539,0,0,0,5.45-3.22,6.78,6.78,0,0,0,10.51,1.38,2.829,2.829,0,0,0,3.74.79,3.359,3.359,0,0,0,1.37-3.7c-.58-2.05-2.78-3.16-4.82-3.76-8-2.35-16.82-.51-24,3.7a12.229,12.229,0,0,0-2.9,2.19c-.82.89-1.95,2-2,3.16" fill="#344154"/>
        <path id="Trazado_103764" data-name="Trazado 103764" d="M1031.77,211.987a7.824,7.824,0,0,0,.7-1.07,5.24,5.24,0,0,0,.6-3.3,5,5,0,1,0-5.66,5.66,5.251,5.251,0,0,0,3.3-.59c.71-.4,1-.74,1.06-.7s-.06.1-.21.26a4.27,4.27,0,0,1-.75.61,5.182,5.182,0,0,1-3.45.79,5.44,5.44,0,1,1,6.07-6.07,5.16,5.16,0,0,1-.78,3.44,4.02,4.02,0,0,1-.61.76Q1031.8,212,1031.77,211.987Z" fill="#455a64"/>
        <path id="Trazado_103765" data-name="Trazado 103765" d="M1045.04,211.987a7.824,7.824,0,0,0,.7-1.07,5.251,5.251,0,0,0,.59-3.3,5,5,0,1,0-5.66,5.66,5.251,5.251,0,0,0,3.3-.59c.71-.4,1-.74,1.07-.7s-.06.1-.21.26a4.014,4.014,0,0,1-.76.61,5.171,5.171,0,0,1-3.44.79,5.44,5.44,0,1,1,6.06-6.07,5.159,5.159,0,0,1-.78,3.44,4.064,4.064,0,0,1-.61.76A.806.806,0,0,1,1045.04,211.987Z" fill="#455a64"/>
        <path id="Trazado_103766" data-name="Trazado 103766" d="M1036.25,207.887c0,.15-.66.26-1.48.26s-1.49-.11-1.49-.26.67-.26,1.49-.26S1036.25,207.747,1036.25,207.887Z" fill="#455a64"/>
        <path id="Trazado_103767" data-name="Trazado 103767" d="M1013.84,207.487a19.984,19.984,0,0,1,4.57-.42,20.908,20.908,0,0,1,4.59.11,19.7,19.7,0,0,1-4.57.41A20.542,20.542,0,0,1,1013.84,207.487Z" fill="#455a64"/>
        <path id="Trazado_103768" data-name="Trazado 103768" d="M1018.66,205.877l-7.18-2.59-6.8,2.36-9.41,9.84-6.12,5.84,10,4.44,5.29-2.11,8.43-5.74,4.77-9s-1.36-.64-2.89,1.51l-1.43,1.91-1.36-5.2V205.6l4.22,1.29a2.221,2.221,0,0,0,2.4-.7Z" fill="#ffbf9d"/>
        <path id="Trazado_103769" data-name="Trazado 103769" d="M1005.19,213.487a2.573,2.573,0,0,1,.62,1.14,8,8,0,0,1-.39,6.13c-.37.72-.71,1.09-.76,1.05a17.21,17.21,0,0,0,1-4.11A16.854,16.854,0,0,0,1005.19,213.487Z" fill="#aa6550"/>
        <path id="Trazado_103770" data-name="Trazado 103770" d="M1005.26,213.587a13.6,13.6,0,0,1,2.61-.62h.06a.93.93,0,0,1,.43,1,2.9,2.9,0,0,1-.45,1,1.069,1.069,0,0,0-.18.91,2.1,2.1,0,0,0,.71.84h-.31a5.781,5.781,0,0,0,1.82-1.76c.7-1.11-.1-2.28-.53-3.35a3.958,3.958,0,0,0-.35-.69.641.641,0,0,0-.56-.12l-1.42.22a16.043,16.043,0,0,1-2.84.32,15.267,15.267,0,0,1,2.78-.68l1.42-.28a1.061,1.061,0,0,1,.95.22,3.166,3.166,0,0,1,.45.81c.24.54.53,1.06.75,1.7a2.549,2.549,0,0,1-.19,2.1,6.137,6.137,0,0,1-2,1.92l-.16.11-.15-.13a2.56,2.56,0,0,1-.83-1.07,1.488,1.488,0,0,1,.25-1.28,2.671,2.671,0,0,0,.43-.87.6.6,0,0,0-.19-.64h.11A14.168,14.168,0,0,1,1005.26,213.587Z" fill="#aa6550"/>
        <path id="Trazado_103771" data-name="Trazado 103771" d="M1010.57,214.347a.826.826,0,0,0,.46.32.88.88,0,0,0,1.106-.571c.005-.016.01-.033.014-.049a3,3,0,0,0-.42-2.22c-.36-.84-.73-1.84-1.16-2.75s-1.54-.76-2.44-.66-1.74.21-2.43.32a13.782,13.782,0,0,1-2.25.33,7.88,7.88,0,0,1,2.18-.69c.69-.16,1.52-.32,2.45-.44a6.641,6.641,0,0,1,1.51-.08,1.759,1.759,0,0,1,1.43,1c.49,1,.8,2,1.16,2.82a7.8,7.8,0,0,1,.42,1.29,2,2,0,0,1-.11,1.24,1.243,1.243,0,0,1-.75.74,1,1,0,0,1-.79-.06C1010.55,214.647,1010.55,214.337,1010.57,214.347Z" fill="#aa6550"/>
        <path id="Trazado_103772" data-name="Trazado 103772" d="M1013.36,212.327a7.893,7.893,0,0,1-.69-1.92c-.19-.66-.4-1.37-.61-2.11-.12-.39-.23-.84-.35-1.23a1.382,1.382,0,0,0-.79-.83,4.187,4.187,0,0,0-2.46.24l-2.13.57a8.266,8.266,0,0,1-2,.39,8.018,8.018,0,0,1,1.9-.75l2.09-.67a4.369,4.369,0,0,1,2.8-.26,1.882,1.882,0,0,1,1.07,1.14c.14.47.22.87.33,1.28l.51,2.14A7.83,7.83,0,0,1,1013.36,212.327Z" fill="#aa6550"/>
        <path id="Trazado_103773" data-name="Trazado 103773" d="M995.27,215.487a1.194,1.194,0,0,1,.15-.19c.14-.14.29-.32.48-.53l1.87-2,6.82-7.21h0l6.8-2.39h.05l7.19,2.58h.1v.47h0a2.289,2.289,0,0,1-1.14.76,3.2,3.2,0,0,1-1.41,0h0l-2.95-.9-1.26-.39.2-.14v1.49c.46,1.78.92,3.52,1.36,5.2h-.27c.62-.82,1.19-1.62,1.82-2.4a2.589,2.589,0,0,1,2.68-1.06h.14l-.08.15-4.79,9h0l-6.2,4.16-1.79,1.19c-.39.26-.6.38-.6.38s.19-.16.56-.43l1.67-1.16,6.14-4.24h0l4.74-9,.07.2a1.65,1.65,0,0,0-1.26.12,3.681,3.681,0,0,0-1.08.87c-.59.74-1.18,1.58-1.79,2.39l-.19.25-.08-.3c-.45-1.69-.9-3.42-1.37-5.2h0v-1.75l.2.06,1.26.39,2.95.9h0a2.865,2.865,0,0,0,1.27,0,2,2,0,0,0,1-.66v-.2l.1.14-7.18-2.6h.1l-6.81,2.35h0l-6.9,7.13-1.91,2-.51.51A.809.809,0,0,1,995.27,215.487Z" fill="#aa6550"/>
        <path id="Trazado_103774" data-name="Trazado 103774" d="M998.19,278.787l-.47-34.55,9-3c2.83-.54,5.58-1.57,8.91-1.71h0a17.539,17.539,0,0,0,21.41.27l.3-.23c.86.1,2,.21,3.43.38h.28a21,21,0,0,1,9.83,3.92h0l44.72,26.7,26.26-20,13.3,10.43s-34.4,34.4-37.74,35.22c-2.31.57-25.26-12-39.17-19.72.57,8.33,3.68,54.63,3.53,61h-63.9l-.05-29.2v-7.95Z" fill="#aed3f2"/>
        <path id="Trazado_103775" data-name="Trazado 103775" d="M1057.39,256.747a6.668,6.668,0,0,0-.05,1.54c0,1.11.08,2.51.12,4.16.13,3.52.36,8.37.65,13.73s.58,10.21.83,13.72c.13,1.65.24,3,.32,4.15a8.147,8.147,0,0,0,.21,1.53,6.636,6.636,0,0,0,.05-1.53c0-1.12-.08-2.51-.13-4.17-.13-3.52-.35-8.37-.64-13.73s-.58-10.22-.83-13.73c-.13-1.65-.24-3-.33-4.15A7.716,7.716,0,0,0,1057.39,256.747Z" fill="#344154"/>
        <path id="Trazado_103776" data-name="Trazado 103776" d="M1114.83,256.287c-.15.16,2.74,2.89,6.43,6.11s6.77,5.72,6.89,5.58-2.78-2.84-6.47-6.07c-1.84-1.61-3.53-3-4.77-4.06A13.929,13.929,0,0,0,1114.83,256.287Z" fill="#344154"/>
        <path id="Trazado_103777" data-name="Trazado 103777" d="M1111.78,258.567c-.12.14,2.81,2.88,6.51,6.16,1.85,1.64,3.55,3.09,4.8,4.12a10.822,10.822,0,0,0,2.12,1.57,10.774,10.774,0,0,0-1.81-1.91c-1.18-1.12-2.83-2.63-4.69-4.27s-3.55-3.09-4.81-4.11A10.464,10.464,0,0,0,1111.78,258.567Z" fill="#344154"/>
        <path id="Trazado_103778" data-name="Trazado 103778" d="M991.17,215.6s-25.56,23.89-33.63,33.68c-3.65,4.41-4.48,11-1.54,15.9h0a12.139,12.139,0,0,0,11.26,5.9l30.78-2.06,2.33-25.61-18.61,5.81,21.68-22.67Z" fill="#aed3f2"/>
        <path id="Trazado_103779" data-name="Trazado 103779" d="M997.86,289.287c-.15,0-.19-5.5-.1-12.27s.28-12.25.43-12.25.18,5.49.09,12.26S998.04,289.287,997.86,289.287Z" fill="#344154"/>
        <path id="Trazado_103780" data-name="Trazado 103780" d="M990.19,240.407a6.063,6.063,0,0,1-.77,1l-2.26,2.53c-1.93,2.13-4.66,5.09-7.78,8.44l.06-.11c-.3,1.08-.67,2.19-1.09,3.3a32.277,32.277,0,0,1-3.39,6.86,15.692,15.692,0,0,1-4.53,4.31,10.986,10.986,0,0,1-3.92,1.57,6.421,6.421,0,0,1-1.14.12h-.4s.55-.08,1.5-.31a12,12,0,0,0,3.76-1.68,15.994,15.994,0,0,0,4.33-4.27,34.128,34.128,0,0,0,3.31-6.77c.41-1.1.77-2.2,1.08-3.26v-.06h0c3.13-3.34,5.91-6.25,7.91-8.32l2.36-2.42A7.352,7.352,0,0,1,990.19,240.407Z" fill="#344154"/>
        <path id="Trazado_103781" data-name="Trazado 103781" d="M977.89,256.2a12.063,12.063,0,0,1-1.15,9.42c-.15-.06.72-2,1-4.66S977.73,256.217,977.89,256.2Z" fill="#344154"/>
        <path id="Trazado_103782" data-name="Trazado 103782" d="M1007.13,336.857a1.141,1.141,0,0,1-.14-.2l-.39-.62-1.44-2.4a41.568,41.568,0,0,1-2.13-3.9,9.513,9.513,0,0,1-.9-5.81c.41-2.2,1.72-4.28,2.68-6.61a10.749,10.749,0,0,0,.83-3.77,17.17,17.17,0,0,0-.43-4.11c-.58-2.79-1.67-5.66-1.95-8.83a31.487,31.487,0,0,1,.86-9.69c.73-3.25,1.63-6.37,2.27-9.42a45.416,45.416,0,0,0,.7-4.52c0-.74.1-1.48.13-2.21s0-1.46,0-2.17a81.344,81.344,0,0,0-2.51-15,100.618,100.618,0,0,1-2-10.11c-.17-1.21-.26-2.15-.3-2.79v-.73a.952.952,0,0,1,0-.25.937.937,0,0,0,.05.25,6.233,6.233,0,0,1,.1.72c.06.64.19,1.57.39,2.77.38,2.4,1.14,5.83,2.19,10.05a78.679,78.679,0,0,1,2.63,15.07v2.2c0,.74-.07,1.49-.11,2.25-.15,1.51-.39,3-.7,4.58-.64,3.08-1.54,6.19-2.26,9.42a31.2,31.2,0,0,0-.86,9.53c.26,3.09,1.33,5.94,1.91,8.78a16.99,16.99,0,0,1,.41,4.23,11,11,0,0,1-.88,3.91c-1,2.38-2.31,4.41-2.71,6.52a9.177,9.177,0,0,0,.8,5.62,42.992,42.992,0,0,0,2,3.92l1.35,2.45.34.64A1.055,1.055,0,0,1,1007.13,336.857Z" fill="#fafafa"/>
        <path id="Trazado_103783" data-name="Trazado 103783" d="M1021.04,243.4a1,1,0,0,1,.07.24l.16.71c.13.62.3,1.54.5,2.74a70.973,70.973,0,0,1,.87,10.21,75.808,75.808,0,0,1-1.31,15.13c-1,5.63-2.66,11.72-3.2,18.27s.46,12.81,1.24,18.46a118.682,118.682,0,0,1,1.51,15.12,35.792,35.792,0,0,1-1.2,10.16l-.22.83-.25.71-.42,1.11-.26.67c-.06.15-.1.23-.1.23a.875.875,0,0,1,0-.25l.22-.69.36-1.12c.07-.22.15-.45.23-.71s.12-.54.19-.83a37.267,37.267,0,0,0,1-10.11,124.2,124.2,0,0,0-1.63-15c-.8-5.65-1.77-11.93-1.28-18.57s2.22-12.71,3.25-18.31a77.168,77.168,0,0,0,1.41-15.05,80.967,80.967,0,0,0-.7-10.18c-.16-1.2-.3-2.13-.41-2.75a5.2,5.2,0,0,0-.1-.72A.6.6,0,0,1,1021.04,243.4Z" fill="#fafafa"/>
        <path id="Trazado_103784" data-name="Trazado 103784" d="M1044.53,336.9l-.14-.21-.37-.64a5.962,5.962,0,0,1-.51-1.1c-.08-.22-.19-.46-.27-.73s-.14-.55-.22-.85a15.885,15.885,0,0,1-.32-4.51,53.523,53.523,0,0,1,.79-5.94,51.183,51.183,0,0,0,.89-7.14,21.5,21.5,0,0,0-1.41-8,65.831,65.831,0,0,1-2.78-8.77,28.87,28.87,0,0,1,.19-9.89c.52-3.35,1.2-6.57,1.39-9.73a37.331,37.331,0,0,0-.71-9.06c-1.12-5.72-2.67-10.79-3.2-15.22a28.4,28.4,0,0,1,.32-10.46,14.418,14.418,0,0,1,1.32-3.62.883.883,0,0,1-.08.25l-.26.69a20.887,20.887,0,0,0-.78,2.72,28.845,28.845,0,0,0-.15,10.37c.56,4.38,2.15,9.42,3.3,15.18a37.087,37.087,0,0,1,.75,9.18c-.18,3.21-.87,6.46-1.39,9.78a28.631,28.631,0,0,0-.2,9.71,66.007,66.007,0,0,0,2.73,8.71,29.926,29.926,0,0,1,1.12,4.16,18.182,18.182,0,0,1,.27,4.06,49.368,49.368,0,0,1-1,7.2,54.727,54.727,0,0,0-.86,5.88,16.231,16.231,0,0,0,.23,4.46A15.512,15.512,0,0,0,1044.53,336.9Z" fill="#fafafa"/>
        <path id="Trazado_103785" data-name="Trazado 103785" d="M1052.98,247.047a1.33,1.33,0,0,1,.08.23l.19.67c.18.59.37,1.47.59,2.62a42.98,42.98,0,0,1,.39,9.86c-.24,4.16-1.05,9.07-1.8,14.51a130.28,130.28,0,0,0-1.11,17.81,241.369,241.369,0,0,0,2.88,32.32c.61,4.08,1.11,7.4,1.46,9.75.17,1.11.29,2,.39,2.65a3.872,3.872,0,0,0,.09.69,1.066,1.066,0,0,1,0,.24.989.989,0,0,1-.07-.23,5,5,0,0,0-.13-.69c-.12-.64-.28-1.52-.49-2.63-.4-2.29-1-5.61-1.62-9.72a224.575,224.575,0,0,1-3-32.38,126.393,126.393,0,0,1,1.16-17.88c.78-5.45,1.61-10.33,1.9-14.47a44.861,44.861,0,0,0-.22-9.8c-.18-1.14-.34-2-.49-2.63l-.14-.68A.711.711,0,0,1,1052.98,247.047Z" fill="#fafafa"/>
        <path id="Trazado_103786" data-name="Trazado 103786" d="M1068.38,282.8a3.761,3.761,0,0,1-.15-1c-.06-.66-.13-1.62-.19-2.81-.13-2.37-.24-5.65-.25-9.28s.06-6.91.17-9.28c.06-1.19.11-2.15.17-2.81a4.433,4.433,0,0,1,.13-1,3.814,3.814,0,0,1,.07,1V269.7c0,3.55.07,6.77.1,9.27v2.81A4.522,4.522,0,0,1,1068.38,282.8Z" fill="#fafafa"/>
        <path id="Trazado_103787" data-name="Trazado 103787" d="M1078.04,260.277a7.323,7.323,0,0,1-.46.91,5.8,5.8,0,0,0-.58,2.64c0,1.15.24,2.55.4,4.09s.53,3.22.76,5a23.292,23.292,0,0,1,.1,5.11,12.782,12.782,0,0,1-1,4.08,10.685,10.685,0,0,1-1.47,2.4c-.42.52-.69.77-.72.75a22.893,22.893,0,0,0,1.85-3.29,19.234,19.234,0,0,0,.7-9c-.22-1.77-.55-3.46-.72-5a37.326,37.326,0,0,1-.29-4.16,5.55,5.55,0,0,1,.77-2.73A2.737,2.737,0,0,1,1078.04,260.277Z" fill="#fafafa"/>
        <path id="Trazado_103788" data-name="Trazado 103788" d="M970.32,269.417a7.89,7.89,0,0,1,1.34,0,14.423,14.423,0,0,0,3.57-.33,8.686,8.686,0,0,0,4.32-2.88c1.33-1.51,2.66-3.32,4.13-5.14,2.92-3.68,5.58-7,7.53-9.36l2.32-2.8a6.742,6.742,0,0,1,.91-1,6.63,6.63,0,0,1-.75,1.1l-2.19,2.91c-1.88,2.43-4.49,5.78-7.41,9.45-1.48,1.83-2.8,3.61-4.18,5.14a8.892,8.892,0,0,1-4.59,2.92,12.382,12.382,0,0,1-3.67.17A5.848,5.848,0,0,1,970.32,269.417Z" fill="#fafafa"/>
        <path id="Trazado_103789" data-name="Trazado 103789" d="M995.72,221.577a3.818,3.818,0,0,1-.24.59,11.666,11.666,0,0,1-.86,1.6,20.009,20.009,0,0,1-4.44,5c-2.15,1.83-5,3.67-7.95,5.85s-6.15,4.85-8.07,8.65a53.093,53.093,0,0,1-2.94,5.55,15.836,15.836,0,0,1-4.24,4.07c-1.54,1.07-3.06,2-4.39,2.91a16.049,16.049,0,0,0-3.36,3,7.84,7.84,0,0,0-1.86,6.06,6.712,6.712,0,0,0,.83,2.25l-.11-.12a1.878,1.878,0,0,1-.28-.39,5.212,5.212,0,0,1-.64-1.7,8,8,0,0,1,1.77-6.33,16.174,16.174,0,0,1,3.4-3.14c1.34-1,2.86-1.89,4.36-2.95a15.6,15.6,0,0,0,4.1-4,50.6,50.6,0,0,0,2.89-5.5c2-3.91,5.26-6.65,8.26-8.8s5.84-4,8-5.74a21,21,0,0,0,4.5-4.79,12.673,12.673,0,0,0,.93-1.54A2.686,2.686,0,0,1,995.72,221.577Z" fill="#fafafa"/>
        <g id="Grupo_59597" data-name="Grupo 59597" opacity="0.3">
          <path id="Trazado_103790" data-name="Trazado 103790" d="M965.49,268.247a15.759,15.759,0,0,0,16-15.518c0-.054,0-.108,0-.162,0-.53-.09-1.16-.56-1.4a1.06,1.06,0,0,0-1.25.43,3.323,3.323,0,0,0-.45,1.35,22,22,0,0,1-12.44,15.69"/>
        </g>
        <g id="Grupo_59598" data-name="Grupo 59598" opacity="0.3">
          <path id="Trazado_103791" data-name="Trazado 103791" d="M1088.42,267.487a5.459,5.459,0,0,0-1.56,2c-2.17,3.42-6.46,4.8-9.33,7.65-2.19,2.19-3.94,4.78-3.95,7.88l4.69,2.13,12.2-19C1090.36,267.277,1089.15,267.007,1088.42,267.487Z"/>
        </g>
        <path id="Trazado_103792" data-name="Trazado 103792" d="M869.04,503.947s-16.44,3.54-7.91,23.54,3.43,25.45-2.46,26.86l45.1-.29,4-50.29Z" fill="#e0e0e0"/>
        <path id="Trazado_103793" data-name="Trazado 103793" d="M901.84,554.327a13,13,0,0,1-8.69-3.26c-3.71-3.26-8.29-9.36-9.2-19.94-1.91-22.39-14.91-27.17-14.91-27.17l38.71-.17s12.57,0,13.59,19.87c1.07,20.83,29.95,32.79,47.78,30.46Z" fill="#f5f5f5"/>
        <path id="Trazado_103794" data-name="Trazado 103794" d="M959.46,469.347s-20.28-2.43-22.53,42.49-36.22,42.48-36.22,42.48h67.72s14.09-3.13,10.81-34.83c-1.37-13.3,22.49-50.11,22.49-50.11Z" fill="#ebebeb"/>
        <path id="Trazado_103795" data-name="Trazado 103795" d="M948.16,474.427c-2.16,2.59-1.28,6.74.61,9.54s4.84,4.69,7.84,6.25,6.14,2.88,8.83,4.93c4.16,3.18,6.93,7.9,8.61,12.86a79.4,79.4,0,0,1,3.06,15.38s-2.22-37.27-8.77-47.61S952.3,469.487,948.16,474.427Z" fill="#e0e0e0"/>
        <path id="Trazado_103796" data-name="Trazado 103796" d="M1000.36,554.317s-20,1-22.78-22.21-5.11-61.37-18.12-62.76h41a14,14,0,0,1,13.06,8.88c1.78,4.58,3.59,11.35,4.71,21.21,2.37,20.83,14.17,55.14,43.73,54.84Z" fill="#f5f5f5"/>
        <path id="Trazado_103797" data-name="Trazado 103797" d="M1013.82,535.2c0,.14-6,.26-13.35.26s-13.35-.12-13.35-.26,6-.26,13.35-.26S1013.82,535.047,1013.82,535.2Z" fill="#344154"/>
        <path id="Trazado_103798" data-name="Trazado 103798" d="M1020.63,536.807a35.348,35.348,0,0,1-.22-3.93l.22.22h-3.93l.26-.26h0v3.85l-.23-.22a35.347,35.347,0,0,1,3.93.22,26.485,26.485,0,0,1-3.93.23h-.22v-4.08h0l.26-.26h4.16v.22A26.645,26.645,0,0,1,1020.63,536.807Z" fill="#344154"/>
        <path id="Trazado_103799" data-name="Trazado 103799" d="M1019.95,543.807c0,.15-6,.26-13.34.26s-13.35-.11-13.35-.26,6-.26,13.35-.26S1019.95,543.667,1019.95,543.807Z" fill="#344154"/>
        <path id="Trazado_103800" data-name="Trazado 103800" d="M1026.77,545.427a34.179,34.179,0,0,1-.23-3.93l.23.22h-3.93l.26-.26h0v3.92l-.22-.23a34.194,34.194,0,0,1,3.93.23,27.9,27.9,0,0,1-3.93.22h-.23v-4.11h0c-.24.23.31-.32.26-.26h4.13v.26A27.931,27.931,0,0,1,1026.77,545.427Z" fill="#344154"/>
        <path id="Trazado_103801" data-name="Trazado 103801" d="M1008.67,513.487c0,.14-6,.26-13.34.26s-13.35-.12-13.35-.26,6-.26,13.35-.26S1008.67,513.347,1008.67,513.487Z" fill="#344154"/>
        <path id="Trazado_103802" data-name="Trazado 103802" d="M1015.49,515.107a33.732,33.732,0,0,1-.23-3.93l.23.23h-3.93l.26-.26h0V515l-.22-.22a35.6,35.6,0,0,1,3.93.22,26.761,26.761,0,0,1-3.93.23h-.23v-4.08h0c-.23.23.32-.32.27-.26h4.16v.22A27.745,27.745,0,0,1,1015.49,515.107Z" fill="#344154"/>
        <path id="Trazado_103803" data-name="Trazado 103803" d="M1007.21,502.167c0,.14-6,.26-13.35.26s-13.35-.12-13.35-.26,6-.26,13.35-.26S1007.21,502.027,1007.21,502.167Z" fill="#344154"/>
        <path id="Trazado_103804" data-name="Trazado 103804" d="M1014.04,503.787a35.527,35.527,0,0,1-.22-3.94l.22.23h-3.93l.26-.26h0v3.86l-.23-.23a33.744,33.744,0,0,1,3.93.23,29.844,29.844,0,0,1-3.93.22h-.22v-4.09h0c-.23.24.32-.31.26-.26h4.16v.22A26.776,26.776,0,0,1,1014.04,503.787Z" fill="#344154"/>
        <path id="Trazado_103805" data-name="Trazado 103805" d="M1005.27,491.8c0,.14-6,.26-13.35.26s-13.35-.12-13.35-.26,6-.26,13.35-.26S1005.27,491.647,1005.27,491.8Z" fill="#344154"/>
        <path id="Trazado_103806" data-name="Trazado 103806" d="M1012.04,493.407a36.608,36.608,0,0,1-.23-3.93l.23.23h-3.93l.26-.26h0v3.85l-.22-.22a35.348,35.348,0,0,1,3.93.22,26.761,26.761,0,0,1-3.93.23h-.22v-4.08h0c-.23.23.31-.32.26-.26h4.16v.3A28.421,28.421,0,0,1,1012.04,493.407Z" fill="#344154"/>
        <path id="Trazado_103807" data-name="Trazado 103807" d="M1002.52,482.287c0,.14-6,.26-13.35.26s-13.35-.12-13.35-.26,6-.27,13.35-.27S1002.52,482.137,1002.52,482.287Z" fill="#344154"/>
        <path id="Trazado_103808" data-name="Trazado 103808" d="M1009.33,483.9a35.348,35.348,0,0,1-.22-3.93l.22.22h-3.93l.26-.26h0v3.9l-.23-.23a36.608,36.608,0,0,1,3.93.23,28.522,28.522,0,0,1-3.93.23h-.22v-4.13h0l.26-.26h4.16v.23A26.778,26.778,0,0,1,1009.33,483.9Z" fill="#344154"/>
        <path id="Trazado_103809" data-name="Trazado 103809" d="M997.89,474.307c0,.14-6,.26-13.35.26s-13.35-.12-13.35-.26,6-.26,13.35-.26S997.89,474.167,997.89,474.307Z" fill="#344154"/>
        <path id="Trazado_103810" data-name="Trazado 103810" d="M1004.7,475.917a35.1,35.1,0,0,1-.22-3.93l.22.23h-3.93l.26-.26h0v3.85l-.23-.22a38.488,38.488,0,0,1,3.93.22,26.485,26.485,0,0,1-3.93.23h-.22v-4.09h0l.26-.26H1005v.22A26.391,26.391,0,0,1,1004.7,475.917Z" fill="#344154"/>
        <path id="Trazado_103811" data-name="Trazado 103811" d="M1007.2,494.687a9.713,9.713,0,0,1,1.8-2.61c.23-.26.44-.52.67-.79l.17-.2.18.17c.92.84,1.52,1.49,1.45,1.58s-.81-.42-1.77-1.21h.35l-.65.81A9.769,9.769,0,0,1,1007.2,494.687Z" fill="#aed3f2"/>
        <path id="Trazado_103812" data-name="Trazado 103812" d="M1009.26,504.587a9.713,9.713,0,0,1,1.8-2.61l.67-.79.17-.19.18.16c.92.84,1.52,1.49,1.45,1.58s-.81-.42-1.77-1.2h.35l-.65.81A9.867,9.867,0,0,1,1009.26,504.587Z" fill="#aed3f2"/>
        <path id="Trazado_103813" data-name="Trazado 103813" d="M1015.12,538.487a9.714,9.714,0,0,1,1.8-2.61c.23-.26.44-.52.67-.79l.17-.2.18.17c.92.84,1.52,1.49,1.45,1.58s-.81-.42-1.77-1.21h.35l-.65.81A9.768,9.768,0,0,1,1015.12,538.487Z" fill="#aed3f2"/>
        <path id="Trazado_103814" data-name="Trazado 103814" d="M1010.74,515.987a9.446,9.446,0,0,1,1.8-2.61l.67-.79.17-.2.18.17c.91.84,1.52,1.49,1.45,1.58s-.81-.42-1.77-1.21h.35l-.65.81A10.015,10.015,0,0,1,1010.74,515.987Z" fill="#aed3f2"/>
        <path id="Trazado_103815" data-name="Trazado 103815" d="M1011.25,524.347c0,.14-6,.26-13.35.26s-13.35-.12-13.35-.26,6-.26,13.35-.26S1011.25,524.2,1011.25,524.347Z" fill="#344154"/>
        <path id="Trazado_103816" data-name="Trazado 103816" d="M1018.04,525.957a36.607,36.607,0,0,1-.23-3.93l.23.23h-3.93l.26-.26h0v3.85l-.22-.22a35.348,35.348,0,0,1,3.93.22,26.761,26.761,0,0,1-3.93.23h-.22V522h0c-.24.23.31-.32.26-.26h4.16v.22A27.744,27.744,0,0,1,1018.04,525.957Z" fill="#344154"/>
        <path id="Trazado_103817" data-name="Trazado 103817" d="M1012.75,527.3a10,10,0,0,1,1.8-2.61c.23-.26.45-.52.67-.79l.17-.2.18.17c.92.84,1.53,1.49,1.45,1.57s-.81-.41-1.77-1.2h.35l-.64.81A9.934,9.934,0,0,1,1012.75,527.3Z" fill="#aed3f2"/>
        <path id="Trazado_103818" data-name="Trazado 103818" d="M900.28,541.247c0-.15,5.42-.26,12.11-.26s12.12.11,12.12.26-5.42.26-12.12.26S900.28,541.387,900.28,541.247Z" fill="#344154"/>
        <path id="Trazado_103819" data-name="Trazado 103819" d="M894.1,539.777a30,30,0,0,1,.22,3.57l-.22-.22h3.57c.05-.06-.5.49-.27.26h0V539.8l.23.23a28.218,28.218,0,0,1-3.57-.23,22.557,22.557,0,0,1,3.57-.22h.22v3.79h0l-.26.26h-3.8v-.22A21.859,21.859,0,0,1,894.1,539.777Z" fill="#344154"/>
        <path id="Trazado_103820" data-name="Trazado 103820" d="M898.92,538.567a8.269,8.269,0,0,1-1.62,2.38l-.61.72-.17.2-.18-.17c-.83-.76-1.38-1.36-1.3-1.45s.74.37,1.62,1.08h-.35l.58-.74C897.9,539.4,898.8,538.487,898.92,538.567Z" fill="#aed3f2"/>
        <path id="Trazado_103821" data-name="Trazado 103821" d="M895.46,534.137c0-.15,5.43-.26,12.12-.26s12.11.11,12.11.26-5.42.26-12.11.26S895.46,534.277,895.46,534.137Z" fill="#344154"/>
        <path id="Trazado_103822" data-name="Trazado 103822" d="M889.28,532.667a30.018,30.018,0,0,1,.22,3.57l-.22-.22h3.57l-.26.26h0v-3.56l.23.23a28.218,28.218,0,0,1-3.57-.23,22.674,22.674,0,0,1,3.57-.22h.22v3.79h0l-.26.26h-3.74v-.22A21.868,21.868,0,0,1,889.28,532.667Z" fill="#344154"/>
        <path id="Trazado_103823" data-name="Trazado 103823" d="M894.1,531.487a8.267,8.267,0,0,1-1.62,2.38l-.61.72-.17.2-.18-.17c-.83-.76-1.37-1.36-1.3-1.45s.75.37,1.62,1.08h-.35l.55-.76A7.849,7.849,0,0,1,894.1,531.487Z" fill="#aed3f2"/>
        <path id="Trazado_103824" data-name="Trazado 103824" d="M893.82,526.107c0-.15,5.42-.26,12.11-.26s12.12.11,12.12.26-5.42.26-12.12.26S893.82,526.247,893.82,526.107Z" fill="#344154"/>
        <path id="Trazado_103825" data-name="Trazado 103825" d="M887.64,524.637a29.8,29.8,0,0,1,.22,3.57l-.22-.22h3.56l-.26.26h0v-3.56l.22.23a28.073,28.073,0,0,1-3.56-.23,22.548,22.548,0,0,1,3.56-.22h.23v3.79h0c.23-.23-.32.32-.27.26h-3.79v-.22A21.89,21.89,0,0,1,887.64,524.637Z" fill="#344154"/>
        <path id="Trazado_103826" data-name="Trazado 103826" d="M892.45,523.427a7.879,7.879,0,0,1-1.61,2.38l-.61.72-.17.2-.18-.17c-.83-.76-1.38-1.36-1.3-1.45s.74.37,1.62,1.08h-.35l.58-.74C891.44,524.257,892.34,523.337,892.45,523.427Z" fill="#aed3f2"/>
        <path id="Trazado_103827" data-name="Trazado 103827" d="M892.04,517.9c0-.15,5.42-.27,12.11-.27s12.11.12,12.11.27-5.42.26-12.11.26S892.04,518.037,892.04,517.9Z" fill="#344154"/>
        <path id="Trazado_103828" data-name="Trazado 103828" d="M885.86,516.427a28.218,28.218,0,0,1,.23,3.57l-.23-.23h3.57l-.26.26h0v-3.54l.23.23a30.858,30.858,0,0,1-3.57-.23,23.547,23.547,0,0,1,3.57-.23h.22v3.77h0l-.26.26h-3.8v-.22A22.65,22.65,0,0,1,885.86,516.427Z" fill="#344154"/>
        <path id="Trazado_103829" data-name="Trazado 103829" d="M890.68,515.217a8.163,8.163,0,0,1-1.62,2.38l-.61.72-.17.19-.18-.16c-.83-.77-1.37-1.36-1.3-1.45s.75.37,1.62,1.07h-.35l.59-.73C889.66,516.037,890.57,515.117,890.68,515.217Z" fill="#aed3f2"/>
        <path id="Trazado_103830" data-name="Trazado 103830" d="M887.46,509.787c0-.14,5.42-.26,12.11-.26s12.11.12,12.11.26-5.42.26-12.11.26S887.46,509.937,887.46,509.787Z" fill="#344154"/>
        <path id="Trazado_103831" data-name="Trazado 103831" d="M881.27,508.327a28.072,28.072,0,0,1,.23,3.56l-.23-.22h3.57l-.26.26h0v-3.55l.22.22a29.581,29.581,0,0,1-3.57-.22,21.872,21.872,0,0,1,3.57-.23h.24v3.78h0c.23-.23-.32.32-.26.27h-3.74v-.23A22.494,22.494,0,0,1,881.27,508.327Z" fill="#344154"/>
        <path id="Trazado_103832" data-name="Trazado 103832" d="M886.09,507.107a8.015,8.015,0,0,1-1.62,2.38l-.61.72-.16.2-.19-.17c-.82-.76-1.37-1.36-1.29-1.44s.74.36,1.62,1.07h-.36l.59-.74C885.04,507.937,885.98,507.017,886.09,507.107Z" fill="#aed3f2"/>
        <path id="Trazado_103833" data-name="Trazado 103833" d="M958.78,469.307h3.23l8.94-.06h30.58a10.454,10.454,0,0,1,6.3,1.2,14.009,14.009,0,0,1,5,4.49,27.663,27.663,0,0,1,3.92,10.55c.71,3.57,1.22,7,1.65,10.35.89,6.61,1.43,12.61,2.49,17.52a51.716,51.716,0,0,0,3.83,11.13c.6,1.27,1.15,2.22,1.52,2.87.17.29.31.53.43.72a1.2,1.2,0,0,1,.13.26,1.115,1.115,0,0,1-.18-.23l-.47-.7a31.659,31.659,0,0,1-1.62-2.83,50.6,50.6,0,0,1-4.06-11.24c-1.12-5-1.69-10.93-2.6-17.54-.45-3.3-1-6.76-1.68-10.31a27.425,27.425,0,0,0-3.85-10.36,13.555,13.555,0,0,0-4.78-4.33,10,10,0,0,0-6-1.15h0l-30.61-.16-8.94-.09-2.4-.05h-.62Z" fill="#344154"/>
        <path id="Trazado_103834" data-name="Trazado 103834" d="M858.67,554.347a6.428,6.428,0,0,0,.85-.23,7.891,7.891,0,0,0,2.31-1.14,8.084,8.084,0,0,0,2.63-3.19,12.4,12.4,0,0,0,1-5.56,28.985,28.985,0,0,0-1-7.09,67.05,67.05,0,0,0-3-8c-.58-1.43-1.14-2.92-1.64-4.5a29.4,29.4,0,0,1-1.19-5,16.318,16.318,0,0,1,2-10.77,10.862,10.862,0,0,1,4.41-4.06,9.046,9.046,0,0,1,1.46-.55c.25-.06.5-.15.76-.2l.79-.1a5.15,5.15,0,0,1,3.13.65,15.93,15.93,0,0,1,4.79,4.4,39.972,39.972,0,0,1,3.6,5.71,46.36,46.36,0,0,1,2.76,6.4,26.309,26.309,0,0,1,1,3.46c.22,1.2.32,2.39.5,3.59a68.51,68.51,0,0,0,1.35,7.23,74.036,74.036,0,0,0,2.24,7.22,16.143,16.143,0,0,0,1.56,3.46,13.552,13.552,0,0,0,2.51,2.9,20.787,20.787,0,0,0,3.17,2.28,22.35,22.35,0,0,0,3.53,1.76,11.839,11.839,0,0,0,3.87.77c1.31,0,2.69-.15,4-.26a29.9,29.9,0,0,0,8-1.66,31.1,31.1,0,0,0,7.32-4,24.717,24.717,0,0,0,5.92-6,49.618,49.618,0,0,0,7.27-15.72,60.378,60.378,0,0,0,1.53-7.71c.33-2.58.48-5.18.7-7.76a131.519,131.519,0,0,1,1.94-15.19c.5-2.47,1.13-4.89,1.84-7.25a54.19,54.19,0,0,1,2.46-6.93,26.833,26.833,0,0,1,3.84-6.12,17.711,17.711,0,0,1,5.48-4.49h0a11.751,11.751,0,0,1,5.87-1.67,8.6,8.6,0,0,1,5.59,2.09,14.263,14.263,0,0,1,3.43,4.76,49.017,49.017,0,0,1,2.05,5.33,112.835,112.835,0,0,1,4.74,20.86c.94,6.69,1.42,13,1.84,18.89s1,11.28,2.53,16a28.637,28.637,0,0,0,6.34,11.36,19.472,19.472,0,0,0,8.14,5.2,16.545,16.545,0,0,0,6,.8c.69-.06,1.21-.12,1.56-.19l.53-.07-.52.11a11.711,11.711,0,0,1-1.57.23,16.075,16.075,0,0,1-6.06-.73,19.643,19.643,0,0,1-8.26-5.19,28.824,28.824,0,0,1-6.46-11.43c-1.52-4.71-2.16-10.16-2.6-16s-.93-12.19-1.88-18.86a113.424,113.424,0,0,0-4.81-20.76,47.334,47.334,0,0,0-2-5.28,13.735,13.735,0,0,0-3.31-4.6,8.148,8.148,0,0,0-5.3-2,11.331,11.331,0,0,0-5.62,1.61h0a17,17,0,0,0-5.29,4.35,26.006,26.006,0,0,0-3.76,6,53.026,53.026,0,0,0-2.43,6.86c-.71,2.36-1.33,4.76-1.83,7.21a132.1,132.1,0,0,0-1.94,15.12c-.21,2.57-.37,5.17-.69,7.79a63.738,63.738,0,0,1-1.54,7.78,50.335,50.335,0,0,1-7.36,15.88,25,25,0,0,1-6,6.14,31.527,31.527,0,0,1-7.44,4.06,30.829,30.829,0,0,1-8.15,1.69c-1.38.1-2.71.24-4.1.25a12.2,12.2,0,0,1-4-.8,22.248,22.248,0,0,1-3.62-1.81,21.27,21.27,0,0,1-3.23-2.34,13.519,13.519,0,0,1-2.6-3,16.667,16.667,0,0,1-1.6-3.56,72.36,72.36,0,0,1-2.25-7.27,69.648,69.648,0,0,1-1.34-7.28,34.1,34.1,0,0,0-4.15-13.31,38.47,38.47,0,0,0-3.54-5.65,15.561,15.561,0,0,0-4.65-4.3c-1.81-1.11-4-.61-5.78.19a10.4,10.4,0,0,0-4.22,3.93,16,16,0,0,0-2,10.53,28.572,28.572,0,0,0,1.09,4.87c.49,1.56,1,3,1.61,4.48a65.9,65.9,0,0,1,3,8.06,29.452,29.452,0,0,1,1,7.16,12.675,12.675,0,0,1-1.12,5.63,8.216,8.216,0,0,1-2.71,3.21,7.892,7.892,0,0,1-2.35,1.1A4.8,4.8,0,0,1,858.67,554.347Z" fill="#344154"/>
        <path id="Trazado_103835" data-name="Trazado 103835" d="M928.89,539.957s-.07,0-.18-.12-.29-.22-.5-.4a22.93,22.93,0,0,1-1.78-1.72,28.686,28.686,0,0,1-2.49-3,19.984,19.984,0,0,1-2.46-4.58,41.189,41.189,0,0,1-1.37-6.13c-.35-2.23-.63-4.62-1.06-7.1a25.389,25.389,0,0,0-2.4-7.46,13.881,13.881,0,0,0-2.4-3.33,5.314,5.314,0,0,0-1.61-1.25,8.9,8.9,0,0,0-2-.6,45.576,45.576,0,0,0-8.45-.43c-2.75,0-5.4.18-7.93.2l-13.45.12H869.28a4.5,4.5,0,0,1-.86-.05,6.508,6.508,0,0,1,.86-.06l2.46-.08,9.06-.2,13.44-.23c2.53,0,5.18-.19,7.94-.23a45.389,45.389,0,0,1,8.56.43,8.738,8.738,0,0,1,2.14.64,4.3,4.3,0,0,1,1,.61c.27.24.54.48.79.75a14.2,14.2,0,0,1,2.48,3.45,25.6,25.6,0,0,1,2.42,7.61c.42,2.51.68,4.9,1,7.12a40.29,40.29,0,0,0,1.29,6.08,19.551,19.551,0,0,0,2.35,4.53,31.21,31.21,0,0,0,2.4,3.06c.71.79,1.29,1.38,1.7,1.77A4.57,4.57,0,0,1,928.89,539.957Z" fill="#344154"/>
        <path id="Trazado_103836" data-name="Trazado 103836" d="M1139.04,237.627a6.71,6.71,0,0,1,3.59-5.8,2.292,2.292,0,0,1,1.11-.31,1,1,0,0,1,.92.59,1.13,1.13,0,0,1-.32,1.13,9.088,9.088,0,0,1-1,.77,3.59,3.59,0,0,0-1.23,3.45" fill="#ffbf9d"/>
        <path id="Trazado_103837" data-name="Trazado 103837" d="M1120.18,194.737a17.35,17.35,0,0,0-16,18.52c.91,13.5.63,31.84-5.82,43-11.16,19.32-27.9,22.75-26.62,61.38s3,42.72-4.72,52.7-24.46,4.82-31.76,27.57-2.15,136.49-13.74,148.51c0,0-9.44,9-19.31,8.15h55.46a18,18,0,0,0,12.68-5,14.268,14.268,0,0,0,4.4-10.43c0-7.83,2.57-118.46,6.87-127.91s26.61-19.08,30-40.87,2.22-57.05,2.19-63.39c0-6,1.17-17.78,12.71-31.51,17.52-20.75,15.13-43.43,15.52-51.16s-3-31-3-31Z" fill="#ebebeb"/>
        <path id="Trazado_103838" data-name="Trazado 103838" d="M1105.73,210.367a5.34,5.34,0,0,1,9.56-1.6c1.65,2.4,1.27,6,3.49,7.9,1.41,1.21,3.45,1.29,5.31,1.26a84.875,84.875,0,0,0,17.39-2.16l-1.28-18.28s-27.75-2.44-31.13,2.12S1105.73,210.367,1105.73,210.367Z" fill="#e0e0e0"/>
        <path id="Trazado_103839" data-name="Trazado 103839" d="M1104.41,219.737c0-4.12.93-7.75,1.9-11.75,1.17-4.84,4.54-8.37,8.63-9,5.17-.74,10.27,6.72,10.27,6.72s20.1-2.92,29.66-3.63c-.7-2.49-5.72-8.91-9.33-9.69a45.757,45.757,0,0,0-11-.59c-6.6.18-13.43.41-19.39,3.25s-12.1,7-10.65,22.34" fill="#f5f5f5"/>
        <path id="Trazado_103840" data-name="Trazado 103840" d="M1143.52,192.877a4.321,4.321,0,0,1-1,.12l-2.73.21c-2.3.17-5.48.41-9,.78s-6.66.82-8.93,1.22l-2.68.49a6.04,6.04,0,0,1-1,.15,5.573,5.573,0,0,1,1-.27c.63-.16,1.54-.36,2.67-.59a84.863,84.863,0,0,1,8.93-1.31c3.5-.31,6.69-.57,9-.69l2.73-.11A6.309,6.309,0,0,1,1143.52,192.877Z" fill="#344154"/>
        <path id="Trazado_103841" data-name="Trazado 103841" d="M1081.25,412.427c0,.15-8.51,1.53-19,3.09s-19.1,2.71-19.12,2.57,8.5-1.52,19-3.09S1081.23,412.287,1081.25,412.427Z" fill="#344154"/>
        <path id="Trazado_103842" data-name="Trazado 103842" d="M1083.26,408.267c0,.14-7.83.31-17.49.37s-17.5,0-17.5-.16,7.83-.31,17.49-.37S1083.26,408.117,1083.26,408.267Z" fill="#344154"/>
        <path id="Trazado_103843" data-name="Trazado 103843" d="M1004.7,554.7l1-.13a19.815,19.815,0,0,0,2.78-.57,31.1,31.1,0,0,0,9.71-4.84,34.707,34.707,0,0,0,2.94-2.33,9.072,9.072,0,0,0,2.22-3.39,45.778,45.778,0,0,0,2.4-9,221.446,221.446,0,0,0,2.52-22.76c1.17-16.94,1.65-37.16,2.35-59.6.37-11.23.74-23,1.68-35.21.24-3,.53-6.11.93-9.2a60.823,60.823,0,0,1,1.76-9.26c.5-1.51,1.08-3,1.65-4.49l1.07-2.15.54-1.08c.2-.34.43-.68.65-1a24.484,24.484,0,0,1,6.53-7.16,37.627,37.627,0,0,1,8.56-4.54,57.789,57.789,0,0,0,8.64-3.9l1-.62c.31-.23.6-.49.9-.73l.9-.73.78-.86c.25-.28.52-.56.77-.85l.69-.94c.48-.61.9-1.26,1.32-1.91a22.7,22.7,0,0,0,2.09-4.07,23.908,23.908,0,0,0,1.12-4.4,56.894,56.894,0,0,0,.51-9c0-3-.11-6-.21-8.9q-.35-8.809-.67-17.23c-.08-2.81-.25-5.57-.22-8.32v-4.08c0-1.35.14-2.69.2-4,.07-2.67.54-5.27.85-7.84a60.749,60.749,0,0,1,1.8-7.42,47.114,47.114,0,0,1,6.33-13,122.919,122.919,0,0,1,8.38-10.38,95.194,95.194,0,0,0,7.39-9.56l1.5-2.39c.5-.78.88-1.61,1.31-2.4a41.449,41.449,0,0,0,1.93-4.84,72.038,72.038,0,0,0,3-17c.32-4.74.31-8.43.29-10.92,0-1.24,0-2.19-.05-2.85a5.044,5.044,0,0,1,0-1s.11,1.31.17,3.81.09,6.2-.2,10.94a71.36,71.36,0,0,1-2.94,17,41.422,41.422,0,0,1-1.92,4.89c-.43.79-.81,1.64-1.32,2.42s-1,1.59-1.49,2.41a95.989,95.989,0,0,1-7.39,9.62,123.272,123.272,0,0,0-8.41,10.39,46.976,46.976,0,0,0-6.25,12.89,61.452,61.452,0,0,0-1.75,7.37c-.31,2.55-.76,5.13-.83,7.79-.06,1.32-.18,2.65-.2,4s0,2.7,0,4.07c0,2.72.15,5.5.23,8.3q.33,8.419.69,17.24c.1,2.93.21,5.9.21,8.91a55.944,55.944,0,0,1-.51,9.1,23.736,23.736,0,0,1-1.14,4.5,22.771,22.771,0,0,1-2.14,4.17c-.42.66-.85,1.32-1.33,1.94l-.7.94c-.26.31-.54.59-.8.89l-.81.89-.92.76c-.31.24-.61.51-.94.74l-1,.64a57.727,57.727,0,0,1-8.71,3.94,37,37,0,0,0-8.45,4.48,23.985,23.985,0,0,0-6.4,7c-.21.33-.44.66-.64,1l-.53,1.06-1,2.12c-.56,1.48-1.14,2.95-1.63,4.43a61.191,61.191,0,0,0-1.75,9.17c-.4,3.08-.69,6.14-.94,9.19-.94,12.17-1.32,23.95-1.7,35.17-.73,22.44-1.24,42.67-2.46,59.62a217.825,217.825,0,0,1-2.6,22.84,45.48,45.48,0,0,1-2.47,9.08,8.992,8.992,0,0,1-2.29,3.47,34.522,34.522,0,0,1-3,2.32,30.613,30.613,0,0,1-9.8,4.78,17.523,17.523,0,0,1-2.8.52Z" fill="#344154"/>
        <path id="Trazado_103844" data-name="Trazado 103844" d="M1104.47,217.807l-.09-1.26c0-.85-.13-2.08-.23-3.71a18.845,18.845,0,0,1,.1-2.74c.11-1,.38-2.08.61-3.25a15.727,15.727,0,0,1,3.73-7.3,24.007,24.007,0,0,1,8.78-5.41,45.1,45.1,0,0,1,12.05-2.54c2.21-.19,4.5-.29,6.87-.33a25.434,25.434,0,0,1,7.29.76,21.55,21.55,0,0,1,3.62,1.31,15.866,15.866,0,0,1,3.29,2.2,19.107,19.107,0,0,1,2.84,2.91,10.884,10.884,0,0,1,1.13,1.75,4.763,4.763,0,0,1,.62,2.06v.17h-.18c-4.49.39-9.3,1.38-14.34,2l.18-.22c.59,4.88,1.19,10,1.51,15.23.07,1.31.12,2.65.1,4s-.1,2.68-.1,4c0,2.72,0,5.48-.21,8.28a75.521,75.521,0,0,1-2.88,17,64.009,64.009,0,0,1-7.58,16.43c-3.32,5.25-7.9,9.68-11,15.28a45.472,45.472,0,0,0-6.21,18.25,82.6,82.6,0,0,0-.12,10q.06,5,.12,10.14c.05,6.8,0,13.69-.23,20.65-.28,8-.7,16-1.72,23.74a42.993,42.993,0,0,1-2.76,11.34,44.164,44.164,0,0,1-5.87,9.88c-4.69,6-10.52,10.77-15.86,15.68l-1.89,1.93c-.61.66-1.23,1.31-1.82,2l-.81,1.06a6.009,6.009,0,0,0-.74,1.09l-.65,1.15a12.613,12.613,0,0,0-.44,1.22,83.863,83.863,0,0,0-1.55,10.4c-1.33,13.84-1.95,27.06-2.55,39.42s-1,23.88-1.36,34.4-.63,20-.85,28.39q-.14,6.27-.26,11.64a31.892,31.892,0,0,1-.28,5.15,13.649,13.649,0,0,1-1.58,4.39,16.211,16.211,0,0,1-5.4,5.61,17.912,17.912,0,0,1-5.28,2.23,18.293,18.293,0,0,1-3.49.52h-.9a6.786,6.786,0,0,0,.9-.05,18.5,18.5,0,0,0,8.68-2.82,16.076,16.076,0,0,0,5.31-5.58,13.581,13.581,0,0,0,1.54-4.33,31.285,31.285,0,0,0,.25-5.11c.07-3.58.14-7.47.22-11.65.19-8.36.44-17.88.77-28.4s.74-22,1.29-34.4,1.19-25.58,2.51-39.45a83.463,83.463,0,0,1,1.49-10.51c.15-.43.27-.89.46-1.3l.68-1.19a6.51,6.51,0,0,1,.76-1.13l.83-1.08c.6-.69,1.22-1.35,1.84-2l2-1.9c5.36-4.94,11.16-9.66,15.8-15.63a43.762,43.762,0,0,0,5.8-9.76,43.253,43.253,0,0,0,2.72-11.21c1-7.75,1.43-15.68,1.71-23.7.23-6.95.28-13.83.23-20.63q-.06-5.1-.12-10.13a83.615,83.615,0,0,1,.13-10,45.816,45.816,0,0,1,6.29-18.45c3.13-5.66,7.74-10.12,11-15.3a63.138,63.138,0,0,0,7.55-16.3,75.575,75.575,0,0,0,2.88-16.9c.16-2.79.2-5.55.22-8.27,0-1.35.06-2.73.1-4s0-2.66-.09-4c-.31-5.25-.9-10.33-1.48-15.21v-.2h.2c5-.62,9.83-1.6,14.37-2l-.18.19a7,7,0,0,0-1.66-3.59,19.327,19.327,0,0,0-2.78-2.86,16.166,16.166,0,0,0-3.21-2.16,22.428,22.428,0,0,0-3.56-1.3,25.384,25.384,0,0,0-7.2-.76c-2.36,0-4.64.12-6.84.31a44.487,44.487,0,0,0-12,2.48,23.8,23.8,0,0,0-8.72,5.31,15.662,15.662,0,0,0-3.73,7.2c-.23,1.16-.52,2.23-.62,3.23a16.375,16.375,0,0,0-.13,2.72c.08,1.62.14,2.86.18,3.7A9.1,9.1,0,0,1,1104.47,217.807Z" fill="#344154"/>
        <path id="Trazado_103845" data-name="Trazado 103845" d="M1154.89,202.257a2.2,2.2,0,0,1-.56.12l-1.64.24-6,.79-19.85,2.42-1.59.19h-.16l-.08-.13a25.618,25.618,0,0,0-3.34-4.2,8.731,8.731,0,0,0-4.19-2.4,8.544,8.544,0,0,0-4.35.26,8.08,8.08,0,0,0-3.24,2,14.409,14.409,0,0,0-3,4.74c-.23.62-.4,1.11-.5,1.45a4.587,4.587,0,0,1-.17.5,1.642,1.642,0,0,1,.07-.53,14.3,14.3,0,0,1,3.3-6.41,8.528,8.528,0,0,1,3.36-2.16,8.9,8.9,0,0,1,4.59-.32,8.994,8.994,0,0,1,4.44,2.5,25.344,25.344,0,0,1,3.42,4.27l-.25-.11,1.59-.19,19.87-2.27,6-.63,1.64-.15A2.541,2.541,0,0,1,1154.89,202.257Z" fill="#344154"/>
        <path id="Trazado_103846" data-name="Trazado 103846" d="M1142.04,239.407a1.27,1.27,0,0,1-.82,1.14l-6,2.27c-.92.35-2.15.61-2.72-.19a1.54,1.54,0,0,1,.24-1.85,4.472,4.472,0,0,1,1.7-1c2.31-1,4.84-1.94,7.18-2.91a.34.34,0,0,1,.445.183.348.348,0,0,1,.025.157Z" fill="#ffbf9d"/>
        <path id="Trazado_103847" data-name="Trazado 103847" d="M1142.27,241.417a2.551,2.551,0,0,1-1.57,2.93l-5.57,2.14c-.92.35-2.15.61-2.72-.18a1.54,1.54,0,0,1,.24-1.85,4.355,4.355,0,0,1,1.7-1c2.21-.92,4.62-1.85,6.86-2.77a.73.73,0,0,1,.958.386.767.767,0,0,1,.042.134Z" fill="#ffbf9d"/>
        <path id="Trazado_103848" data-name="Trazado 103848" d="M1141.27,244.407a3.689,3.689,0,0,1-2.28,4.31l-4.64,1.77c-.92.35-2.15.61-2.72-.19a1.56,1.56,0,0,1,.24-1.85,4.585,4.585,0,0,1,1.71-1c2.47-1,5.2-2.08,7.66-3.11Z" fill="#ffbf9d"/>
        <path id="Trazado_103849" data-name="Trazado 103849" d="M1116.76,291.837c0,.14-7.31,2.85-16.43,6.06s-16.56,5.71-16.61,5.57,7.31-2.85,16.43-6.06S1116.71,291.7,1116.76,291.837Z" fill="#344154"/>
        <path id="Trazado_103850" data-name="Trazado 103850" d="M1112.81,295.837a18.594,18.594,0,0,1-2.66,1.9c-1.68,1.11-4,2.59-6.69,4.16s-5.08,2.93-6.86,3.87a17.732,17.732,0,0,1-2.94,1.42,22.576,22.576,0,0,1,2.76-1.74l6.78-4,6.76-4A21.767,21.767,0,0,1,1112.81,295.837Z" fill="#344154"/>
      </g>
      <g id="freepik--speech-bubble--inject-34">
        <path id="Trazado_103851" data-name="Trazado 103851" d="M958.7,173.127a1.656,1.656,0,0,1,0,.33v.9c0,.83,0,2,.05,3.36,0,2.91.07,7,.12,11.81l-.23-.22h16.4c.06,0-.49.49-.25.26h0v-16.44l.23.23-11.82-.12-3.36-.06h-1.23a9.428,9.428,0,0,1,1.14,0l3.3-.06,12-.11h.22v16.48h0c.23-.23-.32.32-.27.26H958.38v-.26c.05-4.9.09-9,.11-12,0-1.38,0-2.48.06-3.31A3.421,3.421,0,0,1,958.7,173.127Z" fill="#fff"/>
        <path id="Trazado_103852" data-name="Trazado 103852" d="M978.53,169.487c.33.27-3.15,5.06-7.77,10.68-1,1.18-1.9,2.3-2.77,3.32l-.51.58-.55-.49c-3.84-3.46-6.44-6.09-6.22-6.35s3.21,1.93,7.19,5.23l-1.05.09c.82-1.05,1.74-2.19,2.71-3.37C974.18,173.537,978.19,169.187,978.53,169.487Z" fill="#fff"/>
        <path id="Trazado_103853" data-name="Trazado 103853" d="M968.61,157.487h-2.45l-1.06.15-1.24.18-1.38.34a22.27,22.27,0,0,0-6.69,2.92,23.628,23.628,0,0,0-10.85,17.75,24.851,24.851,0,0,0-.07,3.24,8.327,8.327,0,0,0,.11,1.65c.11.55.17,1.11.25,1.67a23.7,23.7,0,0,0,2.25,6.59,25.405,25.405,0,0,0,4.3,5.92,25,25,0,0,0,6.2,4.45,22.41,22.41,0,0,0,7.56,2.32,15.049,15.049,0,0,0,2,.17,17.561,17.561,0,0,0,2,0,24.578,24.578,0,0,0,4.08-.52,23.875,23.875,0,0,0,8.12-3.41h-.24l8.27,3.32.49.2-.14-.51c-.83-3-1.65-6-2.43-8.85v.22a23.7,23.7,0,0,0,4.35-10.02,21.082,21.082,0,0,0,.32-5.17,15.634,15.634,0,0,0-.23-2.49c-.06-.41-.13-.81-.19-1.21a11.111,11.111,0,0,0-.29-1.17,23.65,23.65,0,0,0-9.23-13.46,22.743,22.743,0,0,0-5.49-2.9l-1.24-.44-1.18-.3-1.07-.27-1-.15c-.63-.08-1.18-.18-1.66-.21h-2.21a1.044,1.044,0,0,0,.25,0l.74.06,1.21.08a14.07,14.07,0,0,1,1.64.25,23.509,23.509,0,0,1,18.82,17.45c.09.38.21.76.28,1.15s.11.79.17,1.19a15.124,15.124,0,0,1,.22,2.44,20.854,20.854,0,0,1-.33,5.08,23.441,23.441,0,0,1-4.36,9.89l-.07.1v.12l2.42,8.85.35-.31-8.2-3.36-.13-.06-.12.08a23.2,23.2,0,0,1-11.93,3.84,19.059,19.059,0,0,1-2,0,14.4,14.4,0,0,1-2-.17,21.85,21.85,0,0,1-7.39-2.26,24.186,24.186,0,0,1-6.07-4.34,24.993,24.993,0,0,1-4.23-5.79,23.338,23.338,0,0,1-2.22-6.44c-.09-.55-.17-1.1-.26-1.64s-.07-1.08-.11-1.62a25.763,25.763,0,0,1,.05-3.18,23.37,23.37,0,0,1,10.57-17.54,22.653,22.653,0,0,1,6.59-3l1.36-.36,1.22-.2,1.05-.18.88-.06,1.2-.09A1.85,1.85,0,0,0,968.61,157.487Z" fill="#fff"/>
      </g>
    </g>
  </g>
</svg>
