<svg id="Capa_2" data-name="Capa 2" xmlns="http://www.w3.org/2000/svg" width="500" height="500" viewBox="0 0 500 500">
  <g id="Capa_1" data-name="Capa 1">
    <rect id="Rectángulo_6349" data-name="Rectángulo 6349" width="500" height="500" fill="#344154" opacity="0"/>
    <g id="freepik--background-complete--inject-51">
      <rect id="Rectángulo_6350" data-name="Rectángulo 6350" width="500" height="0.25" transform="translate(0 391.12)" fill="#ebebeb"/>
      <rect id="Rectángulo_6351" data-name="Rectángulo 6351" width="90.9" height="0.25" transform="translate(359 400.64)" fill="#ebebeb"/>
      <rect id="Rectángulo_6352" data-name="Rectángulo 6352" width="24.89" height="0.25" transform="translate(306.33 397.93)" fill="#ebebeb"/>
      <rect id="Rectángulo_6353" data-name="Rectángulo 6353" width="38.59" height="0.25" transform="translate(349.52 409.93)" fill="#ebebeb"/>
      <rect id="Rectángulo_6354" data-name="Rectángulo 6354" width="22.64" height="0.25" transform="translate(52.46 408.25)" fill="#ebebeb"/>
      <rect id="Rectángulo_6355" data-name="Rectángulo 6355" width="26.89" height="0.25" transform="translate(84 408.25)" fill="#ebebeb"/>
      <rect id="Rectángulo_6356" data-name="Rectángulo 6356" width="46.84" height="0.25" transform="translate(178.31 404.03)" fill="#ebebeb"/>
      <path id="Trazado_106208" data-name="Trazado 106208" d="M237,346.52H43.91a5.71,5.71,0,0,1-5.7-5.71V69.38a5.71,5.71,0,0,1,5.7-5.66H237a5.71,5.71,0,0,1,5.71,5.71h0V340.81A5.71,5.71,0,0,1,237,346.52ZM43.91,63.92a5.46,5.46,0,0,0-5.45,5.46V340.81a5.46,5.46,0,0,0,5.45,5.46H237a5.48,5.48,0,0,0,5.46-5.46V69.38A5.48,5.48,0,0,0,237,63.92Z" fill="#ebebeb"/>
      <path id="Trazado_106209" data-name="Trazado 106209" d="M453.31,346.52H260.21a5.73,5.73,0,0,1-5.71-5.71V69.38a5.72,5.72,0,0,1,5.71-5.66h193.1A5.71,5.71,0,0,1,459,69.38V340.81A5.7,5.7,0,0,1,453.31,346.52ZM260.21,63.92a5.48,5.48,0,0,0-5.46,5.46V340.81a5.48,5.48,0,0,0,5.46,5.46h193.1a5.48,5.48,0,0,0,5.46-5.46V69.38a5.48,5.48,0,0,0-5.46-5.46Z" fill="#ebebeb"/>
      <rect id="Rectángulo_6357" data-name="Rectángulo 6357" width="119.56" height="264.41" transform="translate(52.45 126.7)" fill="#f0f0f0"/>
      <rect id="Rectángulo_6358" data-name="Rectángulo 6358" width="113.89" height="264.41" transform="translate(52.46 126.7)" fill="#f5f5f5"/>
      <rect id="Rectángulo_6359" data-name="Rectángulo 6359" width="101.89" height="252.41" transform="translate(58.46 132.71)" fill="#f0f0f0"/>
      <path id="Trazado_106210" data-name="Trazado 106210" d="M91.38,251.72H70.61a2.69,2.69,0,0,1-2.67-2.67h0a2.69,2.69,0,0,1,2.67-2.67H91.38a2.69,2.69,0,0,1,2.67,2.67h0a2.69,2.69,0,0,1-2.67,2.67Z" fill="#fff"/>
      <rect id="Rectángulo_6360" data-name="Rectángulo 6360" width="1.56" height="252.41" transform="translate(58.46 132.71)" fill="#f0f0f0"/>
      <rect id="Rectángulo_6361" data-name="Rectángulo 6361" width="17.8" height="77.2" transform="translate(228.03 308.9)" fill="#f0f0f0"/>
      <rect id="Rectángulo_6362" data-name="Rectángulo 6362" width="87.78" height="4.89" transform="translate(154.63 386.11)" fill="#f0f0f0"/>
      <rect id="Rectángulo_6363" data-name="Rectángulo 6363" width="76.82" height="77.2" transform="translate(151.21 308.91)" fill="#f5f5f5"/>
      <rect id="Rectángulo_6364" data-name="Rectángulo 6364" width="62.82" height="25.32" transform="translate(158.2 318.41)" fill="#f0f0f0"/>
      <rect id="Rectángulo_6365" data-name="Rectángulo 6365" width="62.82" height="25.32" transform="translate(158.2 351.28)" fill="#f0f0f0"/>
      <path id="Trazado_106211" data-name="Trazado 106211" d="M182.56,320.54h14.11a1.75,1.75,0,0,0,1.73-1.73h0a1.74,1.74,0,0,0-1.73-1.74H182.56a1.74,1.74,0,0,0-1.73,1.74h0a1.75,1.75,0,0,0,1.73,1.73Z" fill="#f5f5f5"/>
      <path id="Trazado_106212" data-name="Trazado 106212" d="M182.56,353.42h14.11a1.74,1.74,0,0,0,1.73-1.7h0a1.75,1.75,0,0,0-1.73-1.73H182.56a1.75,1.75,0,0,0-1.73,1.73h0a1.74,1.74,0,0,0,1.73,1.7Z" fill="#f5f5f5"/>
      <path id="Trazado_106213" data-name="Trazado 106213" d="M195.47,307.39h0a1.33,1.33,0,0,1-1.32-1.32V266a1.32,1.32,0,0,1,1.32-1.32h0a1.33,1.33,0,0,1,1.32,1.32v40.11A1.33,1.33,0,0,1,195.47,307.39Z" fill="#f5f5f5"/>
      <rect id="Rectángulo_6366" data-name="Rectángulo 6366" width="24.7" height="3.11" transform="translate(183.12 305.83)" fill="#f0f0f0"/>
      <path id="Trazado_106214" data-name="Trazado 106214" d="M202.31,283.39h0a.66.66,0,0,1-.66-.65v-20a.68.68,0,0,1,.66-.66h0a.68.68,0,0,1,.66.66v20a.67.67,0,0,1-.65.67Z" fill="#f0f0f0"/>
      <path id="Trazado_106215" data-name="Trazado 106215" d="M176.26,269.62s.49-18.9,19.21-18.9,19.2,18.88,19.2,18.88Z" fill="#f0f0f0"/>
      <path id="Trazado_106216" data-name="Trazado 106216" d="M338.31,296.32h0c.53,0,1.07,0,1.61.05a22.95,22.95,0,0,1,20.55,28.86,114.531,114.531,0,0,0-3.6,29.89v29.34a3.85,3.85,0,0,1-3.84,3.86H259.87v-92Z" fill="#f0f0f0"/>
      <path id="Trazado_106217" data-name="Trazado 106217" d="M236.92,319.27a22.94,22.94,0,1,1,45.1,6,115,115,0,0,0-3.59,29.89V384.5a3.85,3.85,0,0,1-3.85,3.85H245.16a3.85,3.85,0,0,1-3.85-3.85h0V353.4a104.61,104.61,0,0,0-3.56-28,23.109,23.109,0,0,1-.83-6.13Z" fill="#f5f5f5"/>
      <rect id="Rectángulo_6367" data-name="Rectángulo 6367" width="83.61" height="55.86" transform="translate(291.49 332.46)" fill="#f0f0f0"/>
      <path id="Trazado_106218" data-name="Trazado 106218" d="M444.2,345.1H332.29V259.43a17.36,17.36,0,0,1,17.36-17.36h77.19a17.36,17.36,0,0,1,17.36,17.36Z" fill="#e0e0e0"/>
      <path id="Trazado_106219" data-name="Trazado 106219" d="M422.33,345.1H310.42V258.59A16.53,16.53,0,0,1,327,242.06h78.81a16.53,16.53,0,0,1,16.53,16.53V345.1Z" fill="#f5f5f5"/>
      <path id="Trazado_106220" data-name="Trazado 106220" d="M369.64,350.11H292.57a5,5,0,0,1-5-5V332.44a5,5,0,0,1,5-5h77.07a1.52,1.52,0,0,1,1.51,1.51h0v19.66a1.51,1.51,0,0,1-1.51,1.5Z" fill="#e0e0e0"/>
      <path id="Trazado_106221" data-name="Trazado 106221" d="M452.45,296.32h0c.53,0,1.06,0,1.61.05a23,23,0,0,1,21.28,21.39,22.68,22.68,0,0,1-.74,7.47,114.664,114.664,0,0,0-3.6,29.9v29.34a3.85,3.85,0,0,1-3.85,3.85H374v-92Z" fill="#f0f0f0"/>
      <path id="Trazado_106222" data-name="Trazado 106222" d="M351.06,319.27a22.94,22.94,0,0,1,45.84-1.5,23.229,23.229,0,0,1-.74,7.47,114.533,114.533,0,0,0-3.6,29.89v29.34a3.85,3.85,0,0,1-3.85,3.85H359.29a3.85,3.85,0,0,1-3.85-3.85h0V353.4a105,105,0,0,0-3.55-28A23.11,23.11,0,0,1,351.06,319.27Z" fill="#f5f5f5"/>
      <path id="Trazado_106223" data-name="Trazado 106223" d="M261.5,391.12H450.81a2.79,2.79,0,0,0,2.79-2.79H258.71a2.79,2.79,0,0,0,2.78,2.8Z" fill="#e0e0e0"/>
      <rect id="Rectángulo_6368" data-name="Rectángulo 6368" width="60.89" height="66.41" transform="translate(373.62 110.18)" fill="#e0e0e0"/>
      <rect id="Rectángulo_6369" data-name="Rectángulo 6369" width="62.47" height="66.41" transform="translate(369.99 110.18)" fill="#f5f5f5"/>
      <rect id="Rectángulo_6370" data-name="Rectángulo 6370" width="52.01" height="55.95" transform="translate(375.21 115.41)" fill="#fff"/>
      <path id="Trazado_106224" data-name="Trazado 106224" d="M401.22,129.24l14.22,24.64H387Z" fill="#f5f5f5"/>
      <rect id="Rectángulo_6371" data-name="Rectángulo 6371" width="60.89" height="66.41" transform="translate(288.2 148.95)" fill="#e0e0e0"/>
      <rect id="Rectángulo_6372" data-name="Rectángulo 6372" width="62.47" height="66.41" transform="translate(284.57 148.95)" fill="#f5f5f5"/>
      <rect id="Rectángulo_6373" data-name="Rectángulo 6373" width="52.01" height="55.95" transform="translate(289.79 154.18)" fill="#fff"/>
      <path id="Trazado_106225" data-name="Trazado 106225" d="M309.44,192.13l-6.17-10.69a7.34,7.34,0,0,1,6.36-11H322a7.35,7.35,0,0,1,6.37,11l-6.17,10.69a7.35,7.35,0,0,1-12.76,0Z" fill="#f5f5f5"/>
    </g>
    <g id="freepik--Shadow--inject-51">
      <ellipse id="freepik--path--inject-51" cx="193.89" cy="11.32" rx="193.89" ry="11.32" transform="translate(56.11 413.64)" fill="#f5f5f5"/>
    </g>
    <g id="freepik--Checklist--inject-51">
      <path id="Trazado_106226" data-name="Trazado 106226" d="M316.5,108.02H85.98l15.17,313.94H331.67Z" fill="#d9a171"/>
      <path id="Trazado_106227" data-name="Trazado 106227" d="M316.5,108.02H85.98l15.17,313.94H331.67Z" opacity="0.2"/>
      <path id="Trazado_106228" data-name="Trazado 106228" d="M318.63,108.02H88.11l15.18,313.94H333.81Z" fill="#d9a171"/>
      <path id="Trazado_106229" data-name="Trazado 106229" d="M306.46,118.58H98.65l14.52,289.19,180.7-.24,30.03-26.62Z" opacity="0.2"/>
      <path id="Trazado_106230" data-name="Trazado 106230" d="M308.05,118.57A2355.652,2355.652,0,0,0,329,377.431q-24.71,17-49.15,34H124.43A2360.5,2360.5,0,0,1,98.65,118.571Z" fill="#fff"/>
      <path id="Trazado_106231" data-name="Trazado 106231" d="M329,377.43q-24.71,17-49.15,34,5.34-22.5,11.13-45Z" fill="#ebebeb"/>
      <path id="Trazado_106232" data-name="Trazado 106232" d="M155,145q.58,15.89,1.38,31.78H124.61q-.8-15.9-1.38-31.78H155m3.24-3.35H119.76q.67,19.23,1.67,38.48h38.49q-1-19.24-1.67-38.48Z" fill="#d9a171"/>
      <path id="Trazado_106233" data-name="Trazado 106233" d="M284.82,157H176c-.1-2.39-.19-4.79-.28-7.18H284.53C284.62,152.17,284.72,154.57,284.82,157Z" fill="#e0e0e0"/>
      <path id="Trazado_106234" data-name="Trazado 106234" d="M261.83,172.06H176.67c-.11-2.4-.23-4.79-.33-7.18h85.15C261.6,167.27,261.72,169.67,261.83,172.06Z" fill="#e0e0e0"/>
      <path id="Trazado_106235" data-name="Trazado 106235" d="M158.12,207.27q1,15.9,2.23,31.8H128.57q-1.23-15.9-2.23-31.8h31.78m3.14-3.35H122.78q1.18,19.25,2.69,38.5H164q-1.5-19.24-2.7-38.5Z" fill="#d9a171"/>
      <path id="Trazado_106236" data-name="Trazado 106236" d="M219.4,219.21h-40c-.16-2.4-.33-4.79-.48-7.19h40C219.07,214.42,219.23,216.81,219.4,219.21Z" fill="#e0e0e0"/>
      <path id="Trazado_106237" data-name="Trazado 106237" d="M257.27,219.21H227.86c-.16-2.4-.33-4.79-.48-7.19h29.41C256.94,214.42,257.1,216.81,257.27,219.21Z" fill="#e0e0e0"/>
      <path id="Trazado_106238" data-name="Trazado 106238" d="M275.73,234.32H180.5c-.18-2.4-.35-4.79-.53-7.19H275.2C275.38,229.53,275.55,231.92,275.73,234.32Z" fill="#e0e0e0"/>
      <path id="Trazado_106239" data-name="Trazado 106239" d="M162.89,269.54q1.43,15.9,3.08,31.8H134.19q-1.65-15.9-3.08-31.8h31.78m3.06-3.35H127.46q1.7,19.26,3.72,38.51h38.49q-1.99-19.26-3.67-38.51Z" fill="#d9a171"/>
      <path id="Trazado_106240" data-name="Trazado 106240" d="M294.1,289.41H185.27l.72,7.18H294.82Z" fill="#e0e0e0"/>
      <path id="Trazado_106241" data-name="Trazado 106241" d="M269,274.3H183.84c.22,2.39.44,4.79.67,7.18h85.15C269.44,279.09,269.21,276.72,269,274.3Z" fill="#e0e0e0"/>
      <path id="Trazado_106242" data-name="Trazado 106242" d="M169.32,331.81q1.86,15.9,3.93,31.79H141.47q-2.07-15.89-3.93-31.79h31.78m3-3.35H133.8q2.2,19.26,4.75,38.49H177q-2.53-19.23-4.75-38.49Z" fill="#d9a171"/>
      <path id="Trazado_106243" data-name="Trazado 106243" d="M300.09,343.72H191.26c-.29-2.4-.58-4.79-.86-7.19H299.22C299.51,339,299.79,341.35,300.09,343.72Z" fill="#e0e0e0"/>
      <path id="Trazado_106244" data-name="Trazado 106244" d="M242.69,358.85H193.15c-.31-2.39-.61-4.79-.91-7.18h49.54C242.08,354.06,242.38,356.46,242.69,358.85Z" fill="#e0e0e0"/>
      <path id="Trazado_106245" data-name="Trazado 106245" d="M272.27,358.85H250.88c-.31-2.39-.61-4.79-.91-7.18h21.39C271.66,354.06,272,356.46,272.27,358.85Z" fill="#e0e0e0"/>
      <path id="Trazado_106246" data-name="Trazado 106246" d="M141,172.27,139.59,170c-3.08-4.9-9.36-9.27-11.53-10.55l1.62-2.87a45.53,45.53,0,0,1,11.26,9.67c4.84-6.59,12-13.4,21.8-20.72l2.07,2.7c-10.46,7.83-17.78,15-22.4,21.9Z" fill="#d9a171"/>
      <path id="Trazado_106247" data-name="Trazado 106247" d="M144.8,234.53l-1.47-2.24c-3.2-4.9-9.6-9.28-11.8-10.56l1.53-2.87a47,47,0,0,1,11.53,9.68c4.66-6.6,11.63-13.41,21.24-20.74.71.9,1.43,1.8,2.14,2.71-10.25,7.84-17.38,15-21.81,21.91C145.7,233.12,145.25,233.83,144.8,234.53Z" fill="#d9a171"/>
      <path id="Trazado_106248" data-name="Trazado 106248" d="M150.32,297l-1.53-2.24c-3.34-4.9-9.86-9.28-12.09-10.55.48-1,1-1.92,1.46-2.87A49,49,0,0,1,149.94,291c4.49-6.6,11.28-13.4,20.68-20.74l2.22,2.71c-10,7.84-17,15-21.23,21.91Z" fill="#d9a171"/>
      <path id="Trazado_106249" data-name="Trazado 106249" d="M251.13,394.18c-5.9,0-9.3-2.18-12.3-4.1s-5.58-3.58-10.56-3.58-7.2,1.74-9.55,3.58a16,16,0,0,1-11.13,4.1c-5.9,0-9.3-2.18-12.29-4.1s-5.57-3.58-10.56-3.58-7.2,1.74-9.55,3.58a16,16,0,0,1-11.12,4.1c-5.89,0-9.3-2.18-12.3-4.1s-5.57-3.58-10.56-3.58c-.13-1-.27-1.92-.4-2.88,5.9,0,9.29,2.18,12.29,4.1s5.57,3.58,10.55,3.58,7.2-1.74,9.55-3.58a16,16,0,0,1,11.14-4.1c5.9,0,9.28,2.18,12.28,4.1s5.58,3.58,10.56,3.58,7.2-1.74,9.55-3.58a16,16,0,0,1,11.14-4.1c5.9,0,9.29,2.18,12.29,4.1s5.57,3.58,10.56,3.58C250.85,392.26,251,393.22,251.13,394.18Z" fill="#ebebeb"/>
      <path id="Trazado_106250" data-name="Trazado 106250" d="M259.59,115.79c-3.38-9-11.19-14.91-19.59-14.91H222.88a6.5,6.5,0,0,1-5.95-4,16,16,0,0,0-14.57-9.79,14.17,14.17,0,0,0-13.62,9.79,5.78,5.78,0,0,1-5.57,4H166.06c-8.41,0-15.65,5.94-18.15,14.91l-1,3.57h114Z" fill="#344154"/>
      <path id="Trazado_106251" data-name="Trazado 106251" d="M260.2,122.88H148a3.74,3.74,0,0,1-3.69-3.52h0a3.33,3.33,0,0,1,3.15-3.51h112.4a3.73,3.73,0,0,1,3.69,3.51h0a3.32,3.32,0,0,1-3.13,3.51Z" fill="#d9a171"/>
      <path id="Trazado_106252" data-name="Trazado 106252" d="M260.2,122.88H148a3.74,3.74,0,0,1-3.69-3.52h0a3.33,3.33,0,0,1,3.15-3.51h112.4a3.73,3.73,0,0,1,3.69,3.51h0a3.32,3.32,0,0,1-3.13,3.51Z" opacity="0.2"/>
    </g>
    <g id="freepik--Character--inject-51">
      <path id="Trazado_106253" data-name="Trazado 106253" d="M360.92,418.95h-7.33l-.73-16.97h7.33Z" fill="#ffc3bd"/>
      <path id="Trazado_106254" data-name="Trazado 106254" d="M404.91,418.95h-7.33l-3.68-16.97h7.32Z" fill="#ffc3bd"/>
      <path id="Trazado_106255" data-name="Trazado 106255" d="M397.06,418.1h8.23a.63.63,0,0,1,.62.5l1.45,6.52a1.08,1.08,0,0,1-.84,1.28h-.23c-2.87-.05-4.27-.22-7.89-.22-2.23,0-6.82.23-9.89.23s-3.48-3-2.22-3.31c5.65-1.24,7.77-2.94,9.58-4.57a1.8,1.8,0,0,1,1.19-.43Z" fill="#344154"/>
      <path id="Trazado_106256" data-name="Trazado 106256" d="M353.64,418.1h8a.63.63,0,0,1,.62.5l1.45,6.52a1.06,1.06,0,0,1-.79,1.27.762.762,0,0,1-.21,0c-2.89-.05-7.06-.22-10.69-.22-4.24,0-7.9.23-12.88.23-3,0-3.84-3-2.58-3.31,5.73-1.26,10.41-1.39,15.36-4.45a3.42,3.42,0,0,1,1.72-.54Z" fill="#344154"/>
      <path id="Trazado_106257" data-name="Trazado 106257" d="M368,151.64c-1,5.36-1.58,12,2.17,15.58,0,0-2.15,5.44-12.11,5.44-9.1,0-4.54-5.44-4.54-5.44,6-1.43,5.66-8.82,4.62-13Z" fill="#ffc3bd"/>
      <path id="Trazado_106258" data-name="Trazado 106258" d="M350.66,168c.2-1.33,2.54-2.88,5.2-3.46s12.88-1.87,16-.58-.54,5.11-.54,5.11Z" fill="#d9a171"/>
      <path id="Trazado_106259" data-name="Trazado 106259" d="M350.66,168c.2-1.33,2.54-2.88,5.2-3.46s12.88-1.87,16-.58-.54,5.11-.54,5.11Z" fill="#fff" opacity="0.4"/>
      <path id="Trazado_106260" data-name="Trazado 106260" d="M352.86,401.99l.38,8.74h7.33l-.38-8.74Z" opacity="0.2"/>
      <path id="Trazado_106261" data-name="Trazado 106261" d="M401.23,401.99H393.9l1.9,8.74h7.33Z" opacity="0.2"/>
      <path id="Trazado_106262" data-name="Trazado 106262" d="M385.35,173.82l-8.83,5.9s12.68,22.55,11.62,26.16c-1.45,4.92-3.47,15.67-6.22,21.13.36,1.18,2.19,3.87,3.21,4.33,7-5.32,14.07-22,13.81-26.67C398.33,194.08,385.35,173.82,385.35,173.82Z" fill="#ffc3bd"/>
      <path id="Trazado_106263" data-name="Trazado 106263" d="M381.92,227l-7-.54,3.67,7.71s6.11.27,7.13-4.4Z" fill="#b55b52"/>
      <path id="Trazado_106264" data-name="Trazado 106264" d="M416.52,264.63l-.59,1.11-3.96,7.49L271.39,198.9l4.54-8.6Z" fill="#d9a171"/>
      <path id="Trazado_106265" data-name="Trazado 106265" d="M425.61,247.46l-2.9,5.48-1.64,3.1L280.48,181.71l4.54-8.6Z" fill="#d9a171"/>
      <rect id="Rectángulo_6374" data-name="Rectángulo 6374" width="9.72" height="159.03" transform="translate(275.967 190.268) rotate(-62.09)" fill="#d9a171"/>
      <rect id="Rectángulo_6375" data-name="Rectángulo 6375" width="9.72" height="159.03" transform="translate(275.967 190.268) rotate(-62.09)" opacity="0.2"/>
      <path id="Trazado_106266" data-name="Trazado 106266" d="M265.33,174.25l-4.09,7.74,10.15,16.91,13.63-25.78Z" fill="#d9a171"/>
      <path id="Trazado_106267" data-name="Trazado 106267" d="M265.33,174.25l-4.09,7.74,10.15,16.91,13.63-25.78Z" fill="#fff" opacity="0.8"/>
      <path id="Trazado_106268" data-name="Trazado 106268" d="M256.89,174.74l4.35,7.25,4.09-7.74Z" fill="#d9a171"/>
      <path id="Trazado_106269" data-name="Trazado 106269" d="M369.29,230l3.66,6.82,5.67-2.62-3.67-7.71Z" fill="#b55b52"/>
      <path id="Trazado_106270" data-name="Trazado 106270" d="M383.25,168.88c6.93,1,14.87,25,14.87,25l-14.56,8.22s-6.41-11.38-9.56-19.88C370.68,173.33,375.82,167.8,383.25,168.88Z" fill="#344154"/>
      <path id="Trazado_106271" data-name="Trazado 106271" d="M379.22,177.11c-3.15-2.88-1.22,9.45.28,17.34.77,1.54,1.5,2.94,2.12,4.11C385.13,192.36,383.56,181.08,379.22,177.11Z" opacity="0.2"/>
      <path id="Trazado_106272" data-name="Trazado 106272" d="M342.21,169.26s-8.65,22.12-.44,63.32H381c.27-6-3.51-35.36,2.29-63.7a101.621,101.621,0,0,0-13.12-1.66,144.506,144.506,0,0,0-16.65,0,72.292,72.292,0,0,0-11.31,2.04Z" fill="#344154"/>
      <path id="Trazado_106273" data-name="Trazado 106273" d="M348.24,179.54l-9.88-3.91s-11.38,23.23-15,24.4c-4.87,1.6-14.87,6-20.93,6.86-.76,1-1.94,4-1.75,5.1,8.35,2.73,26.12-.89,29.8-3.75C338.92,201.72,348.24,179.54,348.24,179.54Z" fill="#ffc3bd"/>
      <path id="Trazado_106274" data-name="Trazado 106274" d="M349.35,176.9c-1.63-3.76-4.75-5.33-8-4.78-1.26,4.61-3.39,14.74-3,30l2.33,1.12S352.14,183.33,349.35,176.9Z" opacity="0.2"/>
      <path id="Trazado_106275" data-name="Trazado 106275" d="M350.91,174.27c2.46,6.56-10,25.86-10,25.86l-14.66-8A89.37,89.37,0,0,1,334.72,175C339.87,167.29,348.2,167.08,350.91,174.27Z" fill="#344154"/>
      <path id="Trazado_106276" data-name="Trazado 106276" d="M302.79,206.87l-8.72,1.85,4.42,8.07A24.1,24.1,0,0,0,305,212Z" fill="#ffc3bd"/>
      <path id="Trazado_106277" data-name="Trazado 106277" d="M289.95,210.55l3.48,4.82,5.06,1.46-4.42-8.07Z" fill="#ffc3bd"/>
      <path id="Trazado_106278" data-name="Trazado 106278" d="M351.38,143.93a.9.9,0,0,1-.76,1c-.39,0-.67-.52-.63-1.11s.37-1,.76-1S351.42,143.34,351.38,143.93Z" fill="#344154"/>
      <path id="Trazado_106279" data-name="Trazado 106279" d="M351.9,144a21.161,21.161,0,0,1-3.11,4.88,3.38,3.38,0,0,0,2.79.69Z" fill="#ed847e"/>
      <path id="Trazado_106280" data-name="Trazado 106280" d="M350.63,141.89a.47.47,0,0,1-.15-.06.34.34,0,0,1-.11-.47h0a3.49,3.49,0,0,1,2.71-1.64.37.37,0,0,1,.35.35.35.35,0,0,1-.35.35h0a2.76,2.76,0,0,0-2.09,1.31.34.34,0,0,1-.36.16Z" fill="#344154"/>
      <path id="Trazado_106281" data-name="Trazado 106281" d="M371.26,143.42c-.86,7.22-1,11.48-4.87,15-5.83,5.28-14.58,1.45-15.9-5.89-1.18-6.6.43-17.29,7.69-19.77a9.92,9.92,0,0,1,13.08,10.66Z" fill="#ffc3bd"/>
      <path id="Trazado_106282" data-name="Trazado 106282" d="M356.71,144.83c-2.53.5-6.57-5.12-3.27-9.89-1.67-.83-7.12,2.45-9.17-.61s3.64-4.69,2.55-7.28c3.86.79-2.5,5.61,1.17,5.14s7.9-7.25,12-4.47c7.25,4.87,17.13-3.25,13.1,6.92,4.94-1,8.32,4.84,3.61,8.89-9.39,8.05-3.61,9.11-9.56,9.52C364.16,153.27,357.23,149.72,356.71,144.83Z" fill="#344154"/>
      <path id="Trazado_106283" data-name="Trazado 106283" d="M360.46,146.72a6,6,0,0,1-3.49,3.09c-2,.69-3.15-1.1-2.68-3.07.42-1.78,2-4.28,4.07-4.1a2.73,2.73,0,0,1,2.45,3A2.84,2.84,0,0,1,360.46,146.72Z" fill="#ffc3bd"/>
      <path id="Trazado_106284" data-name="Trazado 106284" d="M355.67,232.58s8.32,56,12.88,77c5,23,23.83,99.49,23.83,99.49H405.8s-12.41-74.66-15.27-97.41C387.44,287,381,232.61,381,232.61Z" fill="#d9a171"/>
      <path id="Trazado_106285" data-name="Trazado 106285" d="M355.67,232.58s8.32,56,12.88,77c5,23,23.83,99.49,23.83,99.49H405.8s-12.41-74.66-15.27-97.41C387.44,287,381,232.61,381,232.61Z" fill="#fff" opacity="0.2"/>
      <path id="Trazado_106286" data-name="Trazado 106286" d="M365.55,252.16c-.62-.88-1.18-1.18-1.7-1h-.11a1.38,1.38,0,0,0-.33.2,2,2,0,0,0-.29.29l-.16.2-.21.33a7.684,7.684,0,0,0-.45.91c-.08.19-.16.39-.23.59s-.18.51-.26.79-.23.76-.34,1.17a1.249,1.249,0,0,1-.08.32c0,.11-.11.46-.16.69s-.09.4-.13.6c-.09.39-.17.8-.25,1.22s-.17.91-.25,1.38a2.939,2.939,0,0,1-.08.49c-.1.6-.19,1.21-.28,1.84h0c2.22,13.94,4.86,29.92,7,41.07.1-.36.21-.74.3-1.15a51.2,51.2,0,0,0,1-5.64C370.43,282.09,369.56,257.89,365.55,252.16Z" opacity="0.2"/>
      <path id="Trazado_106287" data-name="Trazado 106287" d="M341.77,232.58s-1,54.78-.21,77.13c.83,23.24,8.95,99.33,8.95,99.33h12.41s.45-74.74,1-97.56c.6-24.88,3.6-78.9,3.6-78.9Z" fill="#d9a171"/>
      <path id="Trazado_106288" data-name="Trazado 106288" d="M341.77,232.58s-1,54.78-.21,77.13c.83,23.24,8.95,99.33,8.95,99.33h12.41s.45-74.74,1-97.56c.6-24.88,3.6-78.9,3.6-78.9Z" fill="#fff" opacity="0.2"/>
      <path id="Trazado_106289" data-name="Trazado 106289" d="M363.74,405.24c.05,0,0,4.05,0,4.05H349.43l-.6-4.55Z" fill="#344154"/>
      <path id="Trazado_106290" data-name="Trazado 106290" d="M405.8,405.54c.06,0,.67,3.75.67,3.75H391.72l-1.3-4.3Z" fill="#344154"/>
      <path id="Trazado_106291" data-name="Trazado 106291" d="M394.64,419.38a2.19,2.19,0,0,1-1.41-.37,1,1,0,0,1-.36-.92.56.56,0,0,1,.29-.49c.81-.41,3.18,1,3.45,1.2a.18.18,0,0,1,.07.18.17.17,0,0,1-.13.14,8.875,8.875,0,0,1-1.91.26Zm-1.09-1.51a.45.45,0,0,0-.23,0,.23.23,0,0,0-.11.2.72.72,0,0,0,.24.63,3.5,3.5,0,0,0,2.6.14,7,7,0,0,0-2.5-1Z" fill="#d9a171"/>
      <path id="Trazado_106292" data-name="Trazado 106292" d="M396.51,419.13h-.08c-.76-.41-2.22-2-2.07-2.83a.56.56,0,0,1,.55-.45.9.9,0,0,1,.74.22c.85.69,1,2.81,1,2.9a.21.21,0,0,1-.08.16Zm-1.48-3h0c-.23,0-.25.13-.26.18-.09.48.84,1.69,1.6,2.26a4.17,4.17,0,0,0-.87-2.29.57.57,0,0,0-.47-.13Z" fill="#d9a171"/>
      <path id="Trazado_106293" data-name="Trazado 106293" d="M350.59,419.38a2.73,2.73,0,0,1-1.78-.45,1,1,0,0,1-.32-.84.53.53,0,0,1,.28-.46c.89-.5,3.84,1,4.17,1.17a.16.16,0,0,1,.09.18.17.17,0,0,1-.14.14,11.92,11.92,0,0,1-2.3.26Zm-1.33-1.51a.871.871,0,0,0-.32.06.21.21,0,0,0-.11.19.61.61,0,0,0,.21.55c.45.4,1.66.47,3.28.2A9.729,9.729,0,0,0,349.26,417.87Z" fill="#d9a171"/>
      <path id="Trazado_106294" data-name="Trazado 106294" d="M352.86,419.13h-.07c-.89-.4-2.64-2-2.5-2.81,0-.19.17-.44.64-.48a1.26,1.26,0,0,1,1,.29c.93.77,1.12,2.74,1.13,2.83a.15.15,0,0,1-.07.15A.2.2,0,0,1,352.86,419.13Zm-1.79-3H351c-.31,0-.33.15-.34.2-.08.49,1.11,1.74,2,2.28a4.05,4.05,0,0,0-1-2.26,1,1,0,0,0-.59-.2Z" fill="#d9a171"/>
    </g>
  </g>
</svg>
