<svg id="Capa_2" data-name="Capa 2" xmlns="http://www.w3.org/2000/svg" width="480" height="480" viewBox="0 0 480 480">
  <g id="Capa_1" data-name="Capa 1">
    <g id="freepik--background-complete--inject-36" transform="translate(27.494 64.445)">
      <rect id="Rectángulo_6862" data-name="Rectángulo 6862" width="89.77" height="80.822" transform="translate(0 234.374)" fill="#f5f5f5"/>
      <rect id="Rectángulo_6863" data-name="Rectángulo 6863" width="66.355" height="24.72" rx="7.53" transform="translate(11.712 268.81)" fill="#e0e0e0"/>
      <path id="Trazado_107989" data-name="Trazado 107989" d="M117.95,327.2c0,.134-19.786.24-44.16.24s-44.16-.106-44.16-.24,19.786-.24,44.16-.24S117.95,327.1,117.95,327.2Z" transform="translate(-28.68 -77.523)" fill="#e0e0e0"/>
      <path id="Trazado_107990" data-name="Trazado 107990" d="M38.894,320.907a2.227,2.227,0,1,1-2.227-2.227A2.227,2.227,0,0,1,38.894,320.907Z" transform="translate(-28.872 -77.192)" fill="#e0e0e0"/>
      <path id="Trazado_107991" data-name="Trazado 107991" d="M45.744,320.907a2.227,2.227,0,1,1-2.227-2.227h0a2.208,2.208,0,0,1,2.227,2.227Z" transform="translate(-29.146 -77.192)" fill="#e0e0e0"/>
      <path id="Trazado_107992" data-name="Trazado 107992" d="M52.6,320.907a2.227,2.227,0,1,1-2.227-2.227,2.227,2.227,0,0,1,2.227,2.227Z" transform="translate(-29.42 -77.192)" fill="#e0e0e0"/>
      <rect id="Rectángulo_6864" data-name="Rectángulo 6864" width="117.706" height="43.853" rx="12.66" transform="translate(9.83 0.182)" fill="#e0e0e0"/>
      <path id="Trazado_107993" data-name="Trazado 107993" d="M340.77,67.13V177.8l17.827-18.49h84.547V67.13Z" transform="translate(-41.125 -67.13)" fill="#f5f5f5"/>
      <path id="Trazado_107994" data-name="Trazado 107994" d="M442.66,85.348c0,.154-22.57.278-50.4.278s-50.4-.125-50.4-.278,22.56-.278,50.4-.278S442.66,85.2,442.66,85.348Z" transform="translate(-41.169 -67.848)" fill="#e0e0e0"/>
      <path id="Trazado_107995" data-name="Trazado 107995" d="M352.458,78.1a2.544,2.544,0,1,1-2.563-2.534h0a2.544,2.544,0,0,1,2.563,2.534Z" transform="translate(-41.389 -67.468)" fill="#e0e0e0"/>
      <path id="Trazado_107996" data-name="Trazado 107996" d="M360.278,78.1a2.544,2.544,0,1,1-2.544-2.544h0a2.534,2.534,0,0,1,2.544,2.544Z" transform="translate(-41.702 -67.467)" fill="#e0e0e0"/>
      <path id="Trazado_107997" data-name="Trazado 107997" d="M368.089,78.1a2.534,2.534,0,1,1-2.534-2.534,2.534,2.534,0,0,1,2.534,2.534Z" transform="translate(-42.015 -67.468)" fill="#e0e0e0"/>
      <path id="Trazado_107998" data-name="Trazado 107998" d="M446.358,381.022a22.56,22.56,0,1,1-10.2-30.24h.058a22.531,22.531,0,0,1,10.138,30.24Z" transform="translate(-43.638 -78.382)" fill="#f5f5f5"/>
      <path id="Trazado_107999" data-name="Trazado 107999" d="M441.782,378.854a17.194,17.194,0,1,1-7.68-23.04h0a17.165,17.165,0,0,1,7.68,23.04Z" transform="translate(-43.862 -78.604)" fill="#ebebeb"/>
      <path id="Trazado_108000" data-name="Trazado 108000" d="M442.079,378.338a10.645,10.645,0,0,1,.518-2.045,17.817,17.817,0,0,0-.058-9.418,17.28,17.28,0,0,0-1.766-4.051,15.9,15.9,0,0,0-3.072-3.763,15.36,15.36,0,0,0-2.026-1.594,15.644,15.644,0,0,0-2.314-1.3,16.624,16.624,0,0,0-2.486-.96,16.088,16.088,0,0,0-2.525-.5,15.357,15.357,0,0,0-2.486-.115,14.182,14.182,0,0,0-2.381.23,17.082,17.082,0,0,0-4.224,1.3,17.635,17.635,0,0,0-7.181,6.077c-.768,1.1-1.133,1.766-1.229,1.728a4.954,4.954,0,0,1,.787-2,15.916,15.916,0,0,1,3.725-4.541,17.2,17.2,0,0,1,7.9-3.754,15.356,15.356,0,0,1,2.554-.3,17.175,17.175,0,0,1,5.4.614,17.926,17.926,0,0,1,2.688.96,18.29,18.29,0,0,1,2.5,1.411,17.05,17.05,0,0,1,2.179,1.728,16.042,16.042,0,0,1,1.8,1.978,15.3,15.3,0,0,1,1.43,2.131,17.222,17.222,0,0,1,2.285,8.448,15.985,15.985,0,0,1-1.018,5.76C442.588,377.742,442.156,378.376,442.079,378.338Z" transform="translate(-43.928 -78.578)" fill="#e0e0e0"/>
      <path id="Trazado_108001" data-name="Trazado 108001" d="M423.847,381.474l-1.306,2.746-2.4-1.162,1.258-2.63a12.768,12.768,0,0,1-5.069-4.8l2.736-2.3a10.839,10.839,0,0,0,3.84,3.955l1.92-4.022c-2.362-1.92-4.925-4.262-3.264-7.68,1.229-2.554,4.138-3.84,8.15-2.458l1.3-2.669,2.41,1.152-1.219,2.554a12.164,12.164,0,0,1,4.186,3.84l-2.63,2.39a10.82,10.82,0,0,0-3.091-3.034l-1.968,4.1c2.371,1.92,4.886,4.214,3.254,7.613C430.72,381.551,427.85,382.837,423.847,381.474Zm2.707-11.808,1.651-3.418c-1.421-.326-2.256.134-2.64.96s.1,1.651.96,2.458Zm1.354,7.8c.4-.845-.067-1.642-.96-2.5l-1.6,3.283c1.363.317,2.189-.058,2.563-.8Z" transform="translate(-44.148 -78.863)" fill="#e0e0e0"/>
    </g>
    <g id="freepik--Desk--inject-36" transform="translate(29.856 453.61)">
      <path id="Trazado_108002" data-name="Trazado 108002" d="M447.279,472.76c0,.134-93.168.25-208.08.25s-208.1-.115-208.1-.25,93.12-.25,208.1-.25S447.279,472.616,447.279,472.76Z" transform="translate(-31.1 -472.51)" fill="#263238"/>
    </g>
    <g id="freepik--Character--inject-36" transform="translate(108.36 145.845)">
      <path id="Trazado_108003" data-name="Trazado 108003" d="M283.49,209.784l-2.179,88.435c-.365,15.043-3.984,37.056-27.734,35.386h0c-20.5-3-25.238-22.685-24.874-36.72.173-6.653.3-12.2.269-12.893,0,0-22.464-2.669-23.539-24.96-.518-10.79.211-33.091,1.114-53.27a41.626,41.626,0,0,1,40.109-39.715l2.15-.077C272.076,166.46,284.69,186.524,283.49,209.784Z" transform="translate(-116.57 -152.483)" fill="#ffbe9d"/>
      <path id="Trazado_108004" data-name="Trazado 108004" d="M230,288.51s14.1.326,28.8-9.6c0,0-6.509,16.57-28.867,15.36Z" transform="translate(-117.557 -157.001)" fill="#eb996e"/>
      <path id="Trazado_108005" data-name="Trazado 108005" d="M245.858,218.208c.422.47,3.072-1.507,6.806-1.469s6.442,1.92,6.854,1.507c.2-.211-.23-1.046-1.411-1.92a9.35,9.35,0,0,0-5.491-1.776A8.918,8.918,0,0,0,247.2,216.3C246.06,217.161,245.666,218,245.858,218.208Z" transform="translate(-118.192 -154.427)" fill="#263238"/>
      <path id="Trazado_108006" data-name="Trazado 108006" d="M245.12,227.092a3.014,3.014,0,0,0,3.014,2.938,2.88,2.88,0,0,0,3.014-2.746V227.2a3,3,0,0,0-3.014-2.938A2.88,2.88,0,0,0,245.12,227Z" transform="translate(-118.165 -154.815)" fill="#263238"/>
      <path id="Trazado_108007" data-name="Trazado 108007" d="M234.781,243.808c0-.192-2.141-.48-5.606-.806-.883-.058-1.718-.2-1.92-.787a4.416,4.416,0,0,1,.5-2.621c.749-2.15,1.526-4.406,2.352-6.72,3.254-9.6,5.578-17.539,5.194-17.664s-3.35,7.574-6.6,17.2c-.787,2.362-1.536,4.637-2.246,6.806-.288,1.008-.826,2.16-.326,3.456a2.227,2.227,0,0,0,1.488,1.229,6.059,6.059,0,0,0,1.5.154C232.582,244.077,234.771,244.01,234.781,243.808Z" transform="translate(-117.396 -154.453)" fill="#263238"/>
      <path id="Trazado_108008" data-name="Trazado 108008" d="M248.069,203.714c.326.845,3.341.326,6.9.643s6.48,1.21,6.922.432c.2-.374-.326-1.152-1.517-1.92a11.155,11.155,0,0,0-5.174-1.661,11.03,11.03,0,0,0-5.357.845C248.559,202.619,247.925,203.31,248.069,203.714Z" transform="translate(-118.282 -153.891)" fill="#263238"/>
      <path id="Trazado_108009" data-name="Trazado 108009" d="M210.409,204.48c.365.691,3.3,0,6.835.067s6.432.586,6.835-.106c.173-.326-.384-.96-1.594-1.536a12.2,12.2,0,0,0-5.184-1.056,12.6,12.6,0,0,0-5.232,1.085C210.841,203.52,210.246,204.116,210.409,204.48Z" transform="translate(-116.775 -153.919)" fill="#263238"/>
      <path id="Trazado_108010" data-name="Trazado 108010" d="M285.455,228.873c.384-.182,15.187-5.088,15.245,10.2s-15.293,12.192-15.36,11.75S285.455,228.873,285.455,228.873Z" transform="translate(-119.773 -154.964)" fill="#ffbe9d"/>
      <path id="Trazado_108011" data-name="Trazado 108011" d="M290.219,245.213c.067,0,.269.182.71.394a2.755,2.755,0,0,0,2,0c1.613-.6,2.957-3.168,3.024-5.923a8.774,8.774,0,0,0-.758-3.84,3.091,3.091,0,0,0-2.016-2.035,1.354,1.354,0,0,0-1.565.739c-.2.422-.106.73-.182.758s-.336-.259-.211-.883a1.613,1.613,0,0,1,.6-.96,1.92,1.92,0,0,1,1.469-.4,3.734,3.734,0,0,1,2.794,2.362,8.976,8.976,0,0,1,.96,4.262c-.086,3.082-1.651,5.962-3.84,6.614a2.88,2.88,0,0,1-2.438-.394C290.248,245.587,290.162,245.242,290.219,245.213Z" transform="translate(-119.968 -155.166)" fill="#eb996e"/>
      <path id="Trazado_108012" data-name="Trazado 108012" d="M303.026,201.917c-2.986-5.5-3.485-11.952-5-18.019s-5.971-13.776-11.779-16.09c-5.136-3.178-12.029-3.024-16.5.49-.787-7.978-6.01-12.672-13.67-15s-20.16-1.565-27.667,1.152c-5.827,2.093-11.52,6.624-18.557,13.334a74.421,74.421,0,0,0-8.141,9.149l-7.5,20.534,5.366,11.117c.317.758.643,1.507,1.046,2.256h0l4.349,23.165c.566-6.25.96-28.061,1.469-34.31a35.011,35.011,0,0,0,25.334-10.56c3.562-3.667,6.422-8.314,11.088-10.416,6.01-2.7,12.96-.307,19.1,2.083l-.259-.25a27.839,27.839,0,0,1,8.39,6.538,87,87,0,0,0,2.4,36.9c.518,1.8,1.978,5.52,3.7,6.259,3.379,1.45,4.426-2.006,6.557-3.782,1.574-1.315,3.84-1.4,6.3-1.306,1.584-3.754,3.312-10.118,4.8-15.686a13.91,13.91,0,0,0,6.394.662q-.912-2.39-1.8-4.8a7.459,7.459,0,0,0,2.688,1.344,2.5,2.5,0,0,0,2.65-1.037C304.408,204.394,303.65,203.021,303.026,201.917Z" transform="translate(-116.128 -151.921)" fill="#263238"/>
      <path id="Trazado_108013" data-name="Trazado 108013" d="M267.05,173.21a17.42,17.42,0,0,1,2.16,2.131,15.773,15.773,0,0,1,3.149,7.517,28.8,28.8,0,0,1,.355,5.674c-.067,2.054-.317,4.243-.557,6.547a57.8,57.8,0,0,0-.432,7.3,24.62,24.62,0,0,0,.355,3.84,8.007,8.007,0,0,0,1.43,3.792,3.37,3.37,0,0,0,3.1,1.171,5.05,5.05,0,0,0,2.88-1.488c1.5-1.622,1.92-3.725,2.352-5.587l-.47.048a19.477,19.477,0,0,0,2.534,4.8,6.72,6.72,0,0,0,4.243,2.515,4.339,4.339,0,0,0,2.314-.317,3.7,3.7,0,0,0,1.613-1.478,3.9,3.9,0,0,0,.547-1.92,2.717,2.717,0,0,0-.653-1.757l-.24.2a14.4,14.4,0,0,0,4.646,3.763,15.212,15.212,0,0,0,1.459.634,4.8,4.8,0,0,0,.528.154,1.632,1.632,0,0,0-.49-.23c-.326-.154-.816-.365-1.411-.7a14.86,14.86,0,0,1-4.483-3.84l-.25.2a2.88,2.88,0,0,1,0,3.312,3.427,3.427,0,0,1-1.459,1.306,3.907,3.907,0,0,1-2.093.259,6.183,6.183,0,0,1-3.936-2.39,18.749,18.749,0,0,1-2.438-4.656l-.3-.73-.173.768a11.313,11.313,0,0,1-2.246,5.338,4.579,4.579,0,0,1-2.582,1.334,2.88,2.88,0,0,1-2.63-.96,7.565,7.565,0,0,1-1.325-3.552,25.092,25.092,0,0,1-.355-3.782,56.971,56.971,0,0,1,.4-7.238c.23-2.3.461-4.5.509-6.586a27.494,27.494,0,0,0-.432-5.76,15.735,15.735,0,0,0-3.35-7.584A8.726,8.726,0,0,0,267.05,173.21Z" transform="translate(-119.042 -152.773)" fill="#455a64"/>
      <path id="Trazado_108014" data-name="Trazado 108014" d="M210.418,218.358c.422.47,3.072-1.507,6.806-1.469s6.442,1.92,6.854,1.507c.2-.211-.23-1.046-1.411-1.92a9.293,9.293,0,0,0-5.482-1.776,9.034,9.034,0,0,0-5.424,1.747C210.61,217.311,210.207,218.156,210.418,218.358Z" transform="translate(-116.774 -154.433)" fill="#263238"/>
      <path id="Trazado_108015" data-name="Trazado 108015" d="M212.75,225.882a3.024,3.024,0,0,0,3.024,2.938,2.88,2.88,0,0,0,3-2.755v-.077a3,3,0,0,0-3.014-2.938,2.88,2.88,0,0,0-3.014,2.736Z" transform="translate(-116.87 -154.766)" fill="#263238"/>
      <path id="Trazado_108016" data-name="Trazado 108016" d="M203.23,175.33c-1.92,2.458-4.934,4.666-8.045,4.253a24.357,24.357,0,0,1-3.293-1.056c-1.114.634-.96,4.368-.221,5.424a21.427,21.427,0,0,0,2.285,2.477c-3.715,1.92-7.018.826-10.886-.7a19.133,19.133,0,0,0,10.992,15.629c1.92.874,4.32,1.382,6.144.269,1.6-.96,2.294-2.88,2.813-4.733a83.992,83.992,0,0,0,3.245-20.4Z" transform="translate(-115.683 -152.858)" fill="#263238"/>
      <path id="Trazado_108017" data-name="Trazado 108017" d="M238.5,252.753a3.053,3.053,0,0,1,2.669-1.613c1.037,0,1.92-.1,2.678.624a4.848,4.848,0,0,1,1.066,5.482,4.032,4.032,0,0,1-5.059,1.92c-1.814-.835-2.534-5.51-1.277-7.066" transform="translate(-117.877 -155.89)" fill="#eb996e"/>
      <path id="Trazado_108018" data-name="Trazado 108018" d="M237.849,256.074a6.537,6.537,0,0,1,.394.874,3.2,3.2,0,0,0,1.853,1.642,4.714,4.714,0,0,0,3.619-.432,3.782,3.782,0,0,0-1.853-6.787,3.706,3.706,0,0,0-3.3,1.354,3.782,3.782,0,0,0-.768,2.381c0,.614.106.96.058.96s-.048-.077-.106-.24a3.188,3.188,0,0,1-.144-.72,3.734,3.734,0,0,1,.682-2.6,3.974,3.974,0,0,1,3.629-1.594,4.214,4.214,0,0,1,2.045,7.68,5.021,5.021,0,0,1-3.984.374,3.322,3.322,0,0,1-1.92-1.92,3.137,3.137,0,0,1-.2-.71Z" transform="translate(-117.863 -155.88)" fill="#263238"/>
      <path id="Trazado_108019" data-name="Trazado 108019" d="M263.914,172.8a14.007,14.007,0,0,0-2.266-2.88,14.842,14.842,0,0,0-8.966-3.84,18.164,18.164,0,0,0-6.768.8,27.062,27.062,0,0,0-7.066,3.437c-4.656,3.082-8.774,7.68-13.277,12.336a58.713,58.713,0,0,1-7.066,6.3,28.531,28.531,0,0,1-7.776,4.166,25.68,25.68,0,0,1-14.784.24,25.239,25.239,0,0,1-8.938-4.531l-1.21-1.018c-.346-.3-.6-.6-.816-.816l-.49-.518c-.106-.115-.163-.182-.154-.192l.192.154.518.48c.23.211.5.5.845.787l1.21.96A25.919,25.919,0,0,0,196.014,193a25.431,25.431,0,0,0,14.544-.336,28.5,28.5,0,0,0,7.68-4.118,61.75,61.75,0,0,0,7-6.25c4.483-4.608,8.64-9.264,13.382-12.374a27.177,27.177,0,0,1,7.2-3.446,18.355,18.355,0,0,1,6.922-.758,14.784,14.784,0,0,1,9.034,4.109,10.828,10.828,0,0,1,1.7,2.141l.336.624C263.924,172.706,263.924,172.793,263.914,172.8Z" transform="translate(-115.733 -152.471)" fill="#455a64"/>
      <path id="Trazado_108020" data-name="Trazado 108020" d="M221.04,296.415l8.467-1.68,52.378-3.235,11.165,3.043-1.469,27.187-25.238,16.09-24.48-.48-15.4-14.026-3.408-13.91Z" transform="translate(-117.201 -157.505)" fill="#ffbe9d"/>
      <path id="Trazado_108021" data-name="Trazado 108021" d="M360.35,339.221a164.9,164.9,0,0,0-10.061-17.99,44.861,44.861,0,0,0-25.824-18.806l-40.32-10.934s-2.093,40.32-29.846,40.32-33.158-37.8-33.158-37.8l-46.7,18.634c-1.6.624-12.432,4.368-25.037,31.392-12,25.738-17.28,38.9-17.28,38.9l48.058,13.882,3,43.267-1.018,24.691,146.006-.326-.816-28.243.614-43.306,1.824,2.947,48.6-19.488S372.13,363.557,360.35,339.221Z" transform="translate(-113.645 -157.504)" fill="#d9a171"/>
      <path id="Trazado_108022" data-name="Trazado 108022" d="M336.8,368.45c.221,0,.086,15.648-.288,34.944S335.7,438.3,335.486,438.3s-.086-15.648.288-34.944S336.628,368.45,336.8,368.45Z" transform="translate(-121.775 -160.583)" fill="#263238"/>
      <path id="Trazado_108023" data-name="Trazado 108023" d="M174.6,359.21a6.719,6.719,0,0,1,.538,1.6c.288,1.046.682,2.573,1.142,4.454.96,3.782,2.045,9.024,3.1,14.861s1.8,11.155,2.266,15c.23,1.92.4,3.494.49,4.579a7.1,7.1,0,0,1,.058,1.69,6.615,6.615,0,0,1-.365-1.651c-.192-1.238-.432-2.755-.72-4.541-.6-3.84-1.45-9.12-2.5-14.947s-2.093-11.069-2.88-14.87c-.355-1.776-.653-3.283-.9-4.512a7.612,7.612,0,0,1-.23-1.67Z" transform="translate(-115.344 -160.213)" fill="#263238"/>
      <path id="Trazado_108024" data-name="Trazado 108024" d="M135.459,388l-19.584,39.293a28.627,28.627,0,0,0-2.966,14.15h0a28.637,28.637,0,0,0,28.608,27.2l56.1-3.254,2.458-25.546-42.691-10.3,16.176-30.586Z" transform="translate(-112.875 -161.365)" fill="#ffbe9d"/>
      <path id="Trazado_108025" data-name="Trazado 108025" d="M157.941,431.226c0,.182-1.92-.144-5.04-.125a38.526,38.526,0,0,0-11.837,2.093,35.645,35.645,0,0,0-10.56,5.626c-2.419,1.92-3.571,3.485-3.706,3.389s.2-.461.71-1.181a18.634,18.634,0,0,1,2.554-2.736,31.8,31.8,0,0,1,10.733-6.019,33.984,33.984,0,0,1,12.115-1.853,21.82,21.82,0,0,1,3.706.442,4.032,4.032,0,0,1,1.325.365Z" transform="translate(-113.43 -163.061)" fill="#eb996e"/>
      <path id="Trazado_108026" data-name="Trazado 108026" d="M176.37,399.08a11.089,11.089,0,0,1-.96,3,58.052,58.052,0,0,1-7.3,13.238,11,11,0,0,1-2.054,2.371c-.182-.134,2.64-3.984,5.462-9.11S176.159,399,176.37,399.08Z" transform="translate(-115.002 -161.808)" fill="#eb996e"/>
      <path id="Trazado_108027" data-name="Trazado 108027" d="M383.827,468.317H318V443.453l38.15-16.118L342,397.68l38.189-15.36,18.643,41.472c4.33,12.048,8.755,17.77,4.982,28.733C401.808,458.218,393.706,468.317,383.827,468.317Z" transform="translate(-121.08 -161.137)" fill="#ffbe9d"/>
      <path id="Trazado_108028" data-name="Trazado 108028" d="M192.024,440.1h10.982s24.778-8.957,29.875-8.1c4.589.768,21.4,11.933,24.691,14.141a2.054,2.054,0,0,1,.8,1.018h0a3.61,3.61,0,0,1-2.006,4.579l-.346.144.144.5a5.885,5.885,0,0,1,.259,2.006,2.419,2.419,0,0,1-4.5,1.046l.634,1.123a2.736,2.736,0,0,1,.346,1.507l-.058,1.027a2.765,2.765,0,0,1-1.92,2.467h0a2.784,2.784,0,0,1-2.88-.758c-2.131-2.342-6.72-7.037-9.85-7.555a71.925,71.925,0,0,0-10.166-.518,3.456,3.456,0,0,0-3.206,2.208h0c1.853.134,14.726,6.845,19.286,9.245a4.877,4.877,0,0,1,2.65,3.677c.163,1.421-.557,2.88-3.379,2.256-6.048-1.411-16.944-6.422-16.944-6.422s-5.626-1.6-9.264.96c-5.126,3.619-7.469,4.944-11.866,3.485a37.67,37.67,0,0,1-7.68-3.552l-8.64-.864S180.82,443.239,192.024,440.1Z" transform="translate(-115.804 -163.122)" fill="#ffbe9d"/>
      <path id="Trazado_108029" data-name="Trazado 108029" d="M226.36,444.756c0,.1,1.757-.461,4.656-.653a24,24,0,0,1,20.026,8.525,43.626,43.626,0,0,1,2.755,3.84,4.885,4.885,0,0,0-.547-1.152,20.035,20.035,0,0,0-1.92-2.88,23.261,23.261,0,0,0-20.314-8.64,18.856,18.856,0,0,0-3.418.586A4.665,4.665,0,0,0,226.36,444.756Z" transform="translate(-117.414 -163.592)" fill="#eb996e"/>
      <path id="Trazado_108030" data-name="Trazado 108030" d="M229.09,438.482a20.293,20.293,0,0,1,4.8-.845,21.12,21.12,0,0,1,11.3,3.216,44.8,44.8,0,0,1,9.082,7.68l2.5,2.64a8.247,8.247,0,0,0,.96.96,7.937,7.937,0,0,0-.816-1.056c-.547-.662-1.354-1.613-2.381-2.755a42.067,42.067,0,0,0-9.091-7.862,20.516,20.516,0,0,0-11.52-3.12,13.442,13.442,0,0,0-3.6.662,7.222,7.222,0,0,0-.96.355C229.186,438.405,229.08,438.463,229.09,438.482Z" transform="translate(-117.523 -163.338)" fill="#eb996e"/>
      <path id="Trazado_108031" data-name="Trazado 108031" d="M331.936,440.87H320.944s-24.778-8.957-29.875-8.1c-4.589.768-21.4,11.933-24.691,14.141a2.054,2.054,0,0,0-.8,1.018h0a3.619,3.619,0,0,0,2.006,4.579l.346.144-.144.5a5.884,5.884,0,0,0-.259,2.006,2.419,2.419,0,0,0,4.5,1.046l-.634,1.123a2.88,2.88,0,0,0-.346,1.507l.058,1.018a2.736,2.736,0,0,0,1.92,2.467h0a2.755,2.755,0,0,0,2.88-.749c2.131-2.352,6.72-7.046,9.85-7.565a72.117,72.117,0,0,1,10.176-.509,3.456,3.456,0,0,1,3.2,2.208h0c-1.853.125-14.726,6.845-19.286,9.245a4.877,4.877,0,0,0-2.65,3.667c-.163,1.43.557,2.928,3.379,2.266,6.048-1.411,16.944-6.422,16.944-6.422s5.626-1.613,9.264.96c5.126,3.619,7.469,4.944,11.866,3.485a37.673,37.673,0,0,0,7.68-3.552l8.64-.864S343.139,444.038,331.936,440.87Z" transform="translate(-118.974 -163.153)" fill="#ffbe9d"/>
      <path id="Trazado_108032" data-name="Trazado 108032" d="M299.465,445.558c0,.1-1.757-.461-4.656-.643a24,24,0,0,0-20.064,8.554,28.8,28.8,0,0,0-2.755,3.84,5.446,5.446,0,0,1,.547-1.142,20.036,20.036,0,0,1,1.92-2.88,23.261,23.261,0,0,1,20.314-8.64,20.658,20.658,0,0,1,3.418.576A5.455,5.455,0,0,1,299.465,445.558Z" transform="translate(-119.239 -163.627)" fill="#eb996e"/>
      <path id="Trazado_108033" data-name="Trazado 108033" d="M296.668,439.282a19.9,19.9,0,0,0-4.8-.845,21.12,21.12,0,0,0-11.27,3.2,45.44,45.44,0,0,0-9.082,7.68l-2.5,2.65a8.243,8.243,0,0,1-.96.96,7.442,7.442,0,0,1,.816-1.066c.547-.653,1.354-1.6,2.39-2.746a41.281,41.281,0,0,1,9.082-7.862,20.515,20.515,0,0,1,11.52-3.12,13.441,13.441,0,0,1,3.59.662,5.762,5.762,0,0,1,.96.355.9.9,0,0,1,.25.134Z" transform="translate(-119.082 -163.369)" fill="#eb996e"/>
      <path id="Trazado_108034" data-name="Trazado 108034" d="M387.089,430.777c-.058.086-1.488-.96-4.08-2.16-.643-.288-1.354-.6-2.15-.874s-1.632-.538-2.534-.8a30.289,30.289,0,0,0-12.106-.7c-.96.163-1.8.288-2.611.509a19.772,19.772,0,0,0-2.237.624c-2.707.883-4.253,1.757-4.3,1.67a4.7,4.7,0,0,1,1.075-.643,8.768,8.768,0,0,1,1.315-.643,15.223,15.223,0,0,1,1.8-.72,18.542,18.542,0,0,1,2.256-.691,24.809,24.809,0,0,1,2.64-.557,28.876,28.876,0,0,1,12.288.7c.912.288,1.786.528,2.563.864a18.045,18.045,0,0,1,2.16.96,13.222,13.222,0,0,1,1.709.96,9.944,9.944,0,0,1,1.229.8A5,5,0,0,1,387.089,430.777Z" transform="translate(-122.643 -162.862)" fill="#eb996e"/>
      <path id="Trazado_108035" data-name="Trazado 108035" d="M323.939,470.669H186.755a7.286,7.286,0,0,1-7.267-6.97l-4.118-94.416a7.277,7.277,0,0,1,6.941-7.6H327.789a7.286,7.286,0,0,1,7.286,7.286c0,.1,0,.192,0,.3l-3.84,94.416a7.277,7.277,0,0,1-7.3,6.989Z" transform="translate(-115.374 -160.312)" fill="#e0e0e0"/>
      <path id="Trazado_108036" data-name="Trazado 108036" d="M323.931,470.647a8.894,8.894,0,0,0,1.325-.154,7.181,7.181,0,0,0,3.446-1.709,7.315,7.315,0,0,0,2.448-5.616q.144-3.773.336-8.688c.518-13.075,1.258-31.987,2.179-55.363q.346-8.784.73-18.346c.125-3.187.259-6.442.384-9.754,0-.826.1-1.68.067-2.486a7.1,7.1,0,0,0-3.9-5.9,7.017,7.017,0,0,0-2.4-.72c-.826-.067-1.718,0-2.592,0H183.281a7.68,7.68,0,0,0-3.178.48,7.027,7.027,0,0,0-4.2,4.541,7.757,7.757,0,0,0-.288,1.565v1.622c.048,1.094.086,2.189.134,3.283l.288,6.538q.566,13.027,1.114,25.651c.73,16.819,1.43,33.034,2.1,48.49.086,1.92.163,3.84.25,5.76,0,.96.077,1.92.125,2.88a10.253,10.253,0,0,0,.346,2.746,7.1,7.1,0,0,0,3.35,4.118,7.19,7.19,0,0,0,2.544.816c.874.1,1.814.048,2.726.058h59.587l55.4.077,15.062.048H303.579l-55.4.077h-59.52c-.96,0-1.824,0-2.784-.058a7.536,7.536,0,0,1-6.269-5.242,10.445,10.445,0,0,1-.365-2.88c0-.96-.086-1.92-.134-2.88q-.115-2.88-.25-5.76c-.682-15.456-1.392-31.68-2.131-48.49q-.547-12.614-1.123-25.651c-.1-2.17-.182-4.349-.278-6.538l-.144-3.283a16.154,16.154,0,0,1,0-1.67,8.218,8.218,0,0,1,.3-1.68,7.517,7.517,0,0,1,4.5-4.858,8.2,8.2,0,0,1,3.36-.518H325.985c.883,0,1.738,0,2.64.048a7.517,7.517,0,0,1,6.058,4.512,7.68,7.68,0,0,1,.6,2.506c0,.874,0,1.68-.067,2.515q-.2,4.982-.4,9.763-.4,9.6-.768,18.346c-.96,23.366-1.776,42.24-2.333,55.354q-.221,4.9-.374,8.64a7.459,7.459,0,0,1-2.534,5.693,7.3,7.3,0,0,1-3.5,1.69c-.317.048-.634.077-.96.1Z" transform="translate(-115.366 -160.29)" fill="#263238"/>
      <path id="Trazado_108037" data-name="Trazado 108037" d="M265.734,419.9a7.517,7.517,0,1,1-7.517-7.517h0a7.526,7.526,0,0,1,7.517,7.517Z" transform="translate(-118.388 -162.34)" fill="#fff"/>
    </g>
    <g id="freepik--ad-3--inject-36" transform="translate(311.568 186.662)">
      <path id="Trazado_108038" data-name="Trazado 108038" d="M463.952,203.81v1.718c0,1.142,0,2.88.058,5.088,0,4.483.106,11.069.192,19.517.144,16.944.355,41.338.624,71.165v.2h-.2l-103.3.048.173-.077-20.582,22.512-.432.47V301.308l.25.25h-15.5v-.25c-.24-35.117-.47-68.218-.682-97.5v-.23h.221l100.723.115,28.406.058h-.1l-28.454.058-100.579.115.23-.23c.221,29.28.47,62.4.73,97.5l-.25-.24h15.456v22.79l-.432-.163L361.1,301.145l.067-.077H464.71l-.192.2c-.173-29.76-.317-54.134-.413-71.04-.048-8.467-.077-15.072-.1-19.565v-5.126C464.009,204.367,463.952,203.81,463.952,203.81Z" transform="translate(-324.55 -194.806)" fill="#263238"/>
      <path id="Trazado_108039" data-name="Trazado 108039" d="M463.26,218.131c0,.115-30.835.221-68.87.221s-68.89-.106-68.89-.221,30.835-.221,68.89-.221S463.26,218,463.26,218.131Z" transform="translate(-324.588 -195.379)" fill="#263238"/>
      <ellipse id="Elipse_4111" data-name="Elipse 4111" cx="1.843" cy="2.016" rx="1.843" ry="2.016" transform="translate(4.8 15.274)" fill="#e0e0e0"/>
      <ellipse id="Elipse_4112" data-name="Elipse 4112" cx="1.843" cy="2.016" rx="1.843" ry="2.016" transform="translate(10.253 15.274)" fill="#e0e0e0"/>
      <ellipse id="Elipse_4113" data-name="Elipse 4113" cx="1.843" cy="2.016" rx="1.843" ry="2.016" transform="translate(15.696 15.274)" fill="#e0e0e0"/>
      <path id="Trazado_108040" data-name="Trazado 108040" d="M394.34,260.026V248.449a.739.739,0,0,1,.739-.749.729.729,0,0,1,.365.106l10.349,5.837a.749.749,0,0,1,0,1.286l-10.358,5.76a.739.739,0,0,1-.96-.269A.73.73,0,0,1,394.34,260.026Z" transform="translate(-327.342 -196.57)" fill="#fff"/>
      <circle id="Elipse_4114" data-name="Elipse 4114" cx="13.248" cy="13.248" r="13.248" transform="translate(125.098)" fill="#d9a171"/>
      <rect id="Rectángulo_6865" data-name="Rectángulo 6865" width="11.942" height="2.669" transform="translate(133.182 16.521) rotate(-45)" fill="#fff"/>
      <rect id="Rectángulo_6866" data-name="Rectángulo 6866" width="2.669" height="11.942" transform="translate(133.172 9.948) rotate(-45)" fill="#fff"/>
    </g>
    <g id="freepik--ad-2--inject-36" transform="translate(188.16 23.789)">
      <path id="Trazado_108041" data-name="Trazado 108041" d="M196.25,39.69v95.338h87.072l18.816,14.554V39.69Z" transform="translate(-196.01 -25.376)" fill="#fff"/>
      <path id="Trazado_108042" data-name="Trazado 108042" d="M196.24,39.683H203.8l21.494-.058,76.8-.106h.211V150.131l-.4-.307-18.749-14.6H196v-.2c.048-28.8.077-52.608.106-69.283,0-8.314,0-14.832.058-19.277v.086c0,4.454,0,10.992.048,19.315,0,16.646.067,40.454.106,69.12l-.2-.2h87.158l.067.048,18.845,14.592-.4.2V39.722l.221.221-76.685-.115-21.542-.048h-7.162Z" transform="translate(-196 -25.37)" fill="#263238"/>
      <path id="Trazado_108043" data-name="Trazado 108043" d="M301.6,58.538c0,.154-23.347.288-52.128.288s-52.128-.134-52.128-.288,23.338-.288,52.128-.288S301.6,58.375,301.6,58.538Z" transform="translate(-196.054 -26.119)" fill="#263238"/>
      <path id="Trazado_108044" data-name="Trazado 108044" d="M208.341,51.04a2.63,2.63,0,1,1-2.63-2.64h0a2.63,2.63,0,0,1,2.63,2.64Z" transform="translate(-196.283 -25.725)" fill="#e0e0e0"/>
      <path id="Trazado_108045" data-name="Trazado 108045" d="M216.421,51.04a2.63,2.63,0,1,1-2.63-2.63h0a2.621,2.621,0,0,1,2.621,2.621Z" transform="translate(-196.606 -25.725)" fill="#e0e0e0"/>
      <path id="Trazado_108046" data-name="Trazado 108046" d="M224.511,51.04a2.625,2.625,0,1,1,.01,0Z" transform="translate(-196.93 -25.725)" fill="#e0e0e0"/>
      <path id="Trazado_108047" data-name="Trazado 108047" d="M283.743,93.423a29.491,29.491,0,1,1-30.25-28.714h.058a29.462,29.462,0,0,1,30.192,28.714Z" transform="translate(-197.151 -26.377)" fill="#d9a171"/>
      <path id="Trazado_108048" data-name="Trazado 108048" d="M276.987,93.888A22.483,22.483,0,1,1,253.947,72h0a22.435,22.435,0,0,1,23.04,21.83Z" transform="translate(-197.441 -26.668)" fill="#d9a171"/>
      <g id="Grupo_60189" data-name="Grupo 60189" transform="translate(34.296 44.474)" opacity="0.3">
        <path id="Trazado_108049" data-name="Trazado 108049" d="M276.975,93.142a13.094,13.094,0,0,1-.662-2.688,23.867,23.867,0,0,0-2.755-6.826,22.649,22.649,0,0,0-7.584-7.594,18.892,18.892,0,0,0-2.774-1.421,18.538,18.538,0,0,0-3.082-1.056,21.484,21.484,0,0,0-3.3-.6,22.406,22.406,0,0,0-6.912.384,21.591,21.591,0,0,0-6.173,2.352,21,21,0,0,0-2.6,1.718,22.56,22.56,0,0,0-6.72,8.41,23.684,23.684,0,0,0-1.987,7.094,13.192,13.192,0,0,1-.355,2.736,6.719,6.719,0,0,1-.307-2.784,20.851,20.851,0,0,1,1.526-7.526,22.483,22.483,0,0,1,6.835-9.168,20.036,20.036,0,0,1,2.765-1.92,21.688,21.688,0,0,1,3.149-1.536,22.32,22.32,0,0,1,3.475-1.066,23.042,23.042,0,0,1,3.715-.509,24.239,24.239,0,0,1,3.734.1,20.746,20.746,0,0,1,6.874,1.92,19.459,19.459,0,0,1,2.957,1.584A22.541,22.541,0,0,1,274.6,83.1a20.823,20.823,0,0,1,2.342,7.267,6.576,6.576,0,0,1,.029,2.774Z" transform="translate(-231.725 -71.107)"/>
      </g>
      <g id="Grupo_60190" data-name="Grupo 60190" transform="translate(47.582 52.176)" opacity="0.3">
        <path id="Trazado_108050" data-name="Trazado 108050" d="M257.954,108.055l.144,3.907-3.494.134-.144-3.84a16.55,16.55,0,0,1-8.8-2.467l1.757-4.33a14.237,14.237,0,0,0,6.874,2.218l-.221-5.837c-3.917-.787-8.3-1.92-8.5-6.912-.134-3.706,2.429-6.989,7.92-7.824l-.144-3.84,3.494-.134.144,3.84a15.725,15.725,0,0,1,7.171,1.862L262.581,89.2a14.15,14.15,0,0,0-5.414-1.613l.221,5.933c3.917.758,8.227,1.92,8.419,6.816C265.941,103.965,263.407,107.181,257.954,108.055Zm-4.09-15.36-.2-4.954c-1.834.49-2.525,1.526-2.486,2.678s1.123,1.92,2.678,2.323Zm6.336,8.189c-.048-1.219-1.085-1.843-2.611-2.314l.182,4.8c1.738-.384,2.477-1.315,2.477-2.438Z" transform="translate(-245.565 -79.13)"/>
      </g>
      <path id="Trazado_108051" data-name="Trazado 108051" d="M277.4,93.411v-.336c0-.25-.058-.624-.106-1.085l-.077-.8a5.835,5.835,0,0,0-.173-.96,15.952,15.952,0,0,0-.538-2.342,21.676,21.676,0,0,0-2.7-5.981,22.733,22.733,0,0,0-27.437-9A21.445,21.445,0,0,0,243.4,74.3a22.625,22.625,0,0,0-2.784,1.814,23.229,23.229,0,0,0-2.525,2.237,26.353,26.353,0,0,0-2.16,2.678,21.782,21.782,0,0,0-3.072,6.288,22.521,22.521,0,0,0,3.734,20.429,26.255,26.255,0,0,0,2.285,2.563,27.839,27.839,0,0,0,2.621,2.122,21.619,21.619,0,0,0,5.808,2.938,23.04,23.04,0,0,0,11.923.71,22.627,22.627,0,0,0,9.446-4.445,22.964,22.964,0,0,0,5.645-6.557,22.012,22.012,0,0,0,2.41-6.058,16.817,16.817,0,0,0,.422-2.371c.048-.346.106-.662.134-.96a7.514,7.514,0,0,0,0-.806,5.759,5.759,0,0,1,.058-1.085,2.311,2.311,0,0,1,0-.365,1.162,1.162,0,0,1,0,.365v1.92a9.427,9.427,0,0,1-.106.96,16.484,16.484,0,0,1-.278,2.362,21.878,21.878,0,0,1-2.352,6.2A23.04,23.04,0,0,1,247.2,115.8a26.371,26.371,0,0,1-3.053-1.238,24.958,24.958,0,0,1-2.88-1.747,27.761,27.761,0,0,1-2.688-2.15,27.409,27.409,0,0,1-2.333-2.621,22.406,22.406,0,0,1-3.475-6.288,22.81,22.81,0,0,1-.346-14.592A22.013,22.013,0,0,1,235.6,80.72a25.13,25.13,0,0,1,2.208-2.726,26.261,26.261,0,0,1,2.573-2.275,24,24,0,0,1,2.794-1.92,21.561,21.561,0,0,1,2.986-1.382A23.04,23.04,0,0,1,274,81.757a21.571,21.571,0,0,1,2.65,6.077,17.931,17.931,0,0,1,.5,2.371c.048.346.115.662.144.96a7.336,7.336,0,0,1,0,.8,8.126,8.126,0,0,0,.058,1.094,2.109,2.109,0,0,1,.058.355Z" transform="translate(-197.416 -26.624)" fill="#263238"/>
      <circle id="Elipse_4115" data-name="Elipse 4115" cx="14.304" cy="14.304" r="14.304" transform="translate(91.238)" fill="#d9a171"/>
      <rect id="Rectángulo_6867" data-name="Rectángulo 6867" width="12.893" height="2.88" transform="translate(99.961 17.849) rotate(-45)" fill="#fff"/>
      <rect id="Rectángulo_6868" data-name="Rectángulo 6868" width="2.88" height="12.893" transform="translate(99.957 10.762) rotate(-45)" fill="#fff"/>
    </g>
    <g id="freepik--ad-1--inject-36" transform="translate(16.838 142.512)">
      <path id="Trazado_108052" data-name="Trazado 108052" d="M162.386,274.656h-.1V158.88H17.81V274.973H143.57L162.386,293.8Z" transform="translate(-17.551 -148.867)" fill="#fff"/>
      <path id="Trazado_108053" data-name="Trazado 108053" d="M162.375,274.648v19.315l-.125-.125-18.845-18.8h.077l-125.76.077H17.54V158.69H162.385v.154c0,35-.058,63.869-.067,84.029V274.61h0v-8.362c0-5.4,0-13.3-.048-23.376,0-20.16,0-49.027-.067-84.029l.163.163H17.828l.2-.2V274.888l-.192-.182,125.76.077h0l18.8,18.845-.125.058C162.356,281.464,162.375,275.148,162.375,274.648Z" transform="translate(-17.54 -148.86)" fill="#263238"/>
      <path id="Trazado_108054" data-name="Trazado 108054" d="M162.29,172.332c0,.115-32.342.2-72.24.2s-72.25-.086-72.25-.2,32.342-.2,72.25-.2S162.29,172.207,162.29,172.332Z" transform="translate(-17.55 -149.397)" fill="#263238"/>
      <path id="Trazado_108055" data-name="Trazado 108055" d="M26.388,165.734a1.824,1.824,0,1,1-1.834-1.814h0a1.814,1.814,0,0,1,1.834,1.814Z" transform="translate(-17.748 -149.069)" fill="#e0e0e0"/>
      <path id="Trazado_108056" data-name="Trazado 108056" d="M32,165.734a1.824,1.824,0,1,1-1.834-1.814h0A1.824,1.824,0,0,1,32,165.734Z" transform="translate(-17.972 -149.069)" fill="#e0e0e0"/>
      <circle id="Elipse_4116" data-name="Elipse 4116" cx="1.824" cy="1.824" r="1.824" transform="translate(15.763 14.842)" fill="#e0e0e0"/>
      <circle id="Elipse_4117" data-name="Elipse 4117" cx="13.67" cy="13.67" r="13.67" transform="translate(131.165)" fill="#d9a171"/>
      <rect id="Rectángulo_6869" data-name="Rectángulo 6869" width="12.326" height="2.746" transform="translate(139.52 17.049) rotate(-45)" fill="#fff"/>
      <rect id="Rectángulo_6870" data-name="Rectángulo 6870" width="2.746" height="12.326" transform="translate(139.51 10.279) rotate(-45)" fill="#fff"/>
      <path id="Trazado_108057" data-name="Trazado 108057" d="M85.514,175.16,96.2,186.19l14.947-3.5,3.034,15.053,14.458,5.136-5.578,14.314,9.379,12.144-12.422,9,1.325,15.283-15.322.874-7.152,13.574L85.514,260.5l-13.363,7.565L65,254.494l-15.322-.874L51,238.338l-12.422-9,9.389-12.144-5.587-14.314,14.458-5.136,3.034-15.053,14.947,3.5Z" transform="translate(-18.382 -149.518)" fill="#d9a171"/>
    </g>
    <path id="Trazado_108058" data-name="Trazado 108058" d="M342.845,250.765a3.408,3.408,0,0,0,2.189-.758,2.678,2.678,0,0,0,1.037-1.92h2.218a4.282,4.282,0,0,1-.816,2.237,5.366,5.366,0,0,1-1.987,1.7,5.76,5.76,0,0,1-2.64.634,5.654,5.654,0,0,1-4.454-1.92,7.459,7.459,0,0,1-1.651-5.107v-.394a8.246,8.246,0,0,1,.739-3.552,5.625,5.625,0,0,1,2.1-2.419,5.981,5.981,0,0,1,3.254-.854,5.472,5.472,0,0,1,3.84,1.373,4.934,4.934,0,0,1,1.632,3.581H346.09a3.206,3.206,0,0,0-.96-2.179,3.139,3.139,0,0,0-2.227-.854,3.312,3.312,0,0,0-2.774,1.286,6.038,6.038,0,0,0-.96,3.715v.442a5.913,5.913,0,0,0,.96,3.648A3.3,3.3,0,0,0,342.845,250.765Z" transform="translate(-13.469 -9.536)" fill="#344154"/>
    <path id="Trazado_108059" data-name="Trazado 108059" d="M359.951,252.19a4.924,4.924,0,0,1-.336-1.44,5.2,5.2,0,0,1-3.9,1.7A4.8,4.8,0,0,1,352.4,251.3a3.686,3.686,0,0,1-1.3-2.88,3.84,3.84,0,0,1,1.632-3.322,7.68,7.68,0,0,1,4.57-1.181h2.275V242.83a2.611,2.611,0,0,0-.73-1.92,2.937,2.937,0,0,0-2.17-.73,3.389,3.389,0,0,0-2.093.634,1.862,1.862,0,0,0-.854,1.526h-2.352a3.2,3.2,0,0,1,.73-1.978,4.876,4.876,0,0,1,1.978-1.507,6.547,6.547,0,0,1,2.736-.557,5.414,5.414,0,0,1,3.706,1.181,4.243,4.243,0,0,1,1.392,3.254v6.307a7.747,7.747,0,0,0,.48,3v.154Zm-3.888-1.786a4.051,4.051,0,0,0,2.083-.566,3.36,3.36,0,0,0,1.43-1.478v-2.813h-1.853q-4.31,0-4.3,2.525a2.131,2.131,0,0,0,.73,1.718,2.88,2.88,0,0,0,1.91.614Zm2.16-17.654h2.88l-3.4,3.725h-1.92Z" transform="translate(-14.044 -9.31)" fill="#344154"/>
    <path id="Trazado_108060" data-name="Trazado 108060" d="M368.752,252.19H366.41V232.75h2.342Z" transform="translate(-14.656 -9.31)" fill="#344154"/>
    <path id="Trazado_108061" data-name="Trazado 108061" d="M378.215,250.765a3.408,3.408,0,0,0,2.189-.758,2.678,2.678,0,0,0,1.037-1.92h2.218a4.349,4.349,0,0,1-.806,2.237,5.4,5.4,0,0,1-2,1.7,5.76,5.76,0,0,1-2.64.634,5.616,5.616,0,0,1-4.445-1.92,7.411,7.411,0,0,1-1.651-5.107v-.394a8.247,8.247,0,0,1,.73-3.552,5.588,5.588,0,0,1,2.112-2.419,5.952,5.952,0,0,1,3.245-.854,5.443,5.443,0,0,1,3.84,1.373,4.934,4.934,0,0,1,1.632,3.581H381.46a3.206,3.206,0,0,0-1.008-2.179,3.12,3.12,0,0,0-2.227-.854,3.283,3.283,0,0,0-2.765,1.286,6.029,6.029,0,0,0-.96,3.715v.442a5.914,5.914,0,0,0,.96,3.648A3.312,3.312,0,0,0,378.215,250.765Z" transform="translate(-14.884 -9.536)" fill="#344154"/>
    <path id="Trazado_108062" data-name="Trazado 108062" d="M395.335,251.076a4.963,4.963,0,0,1-4.013,1.613,4.262,4.262,0,0,1-3.341-1.277,5.53,5.53,0,0,1-1.152-3.763V238.74h2.342v8.89c0,2.083.845,3.12,2.525,3.12a3.6,3.6,0,0,0,3.571-2.006v-10h2.342v13.69h-2.227Z" transform="translate(-15.473 -9.55)" fill="#344154"/>
    <path id="Trazado_108063" data-name="Trazado 108063" d="M404.323,252.19H402V232.75h2.342Z" transform="translate(-16.08 -9.31)" fill="#344154"/>
    <path id="Trazado_108064" data-name="Trazado 108064" d="M407.67,245.449a8.083,8.083,0,0,1,.8-3.619,5.76,5.76,0,0,1,2.2-2.477,5.961,5.961,0,0,1,3.216-.874,5.76,5.76,0,0,1,4.531,1.92,7.469,7.469,0,0,1,1.728,5.155v.144a8.208,8.208,0,0,1-.768,3.59,5.76,5.76,0,0,1-2.189,2.467,6.048,6.048,0,0,1-3.274.893,5.76,5.76,0,0,1-4.512-1.92,7.392,7.392,0,0,1-1.728-5.126Zm2.352.278a5.885,5.885,0,0,0,1.056,3.658,3.581,3.581,0,0,0,5.664,0,6.393,6.393,0,0,0,1.056-3.917,5.76,5.76,0,0,0-1.075-3.648,3.552,3.552,0,0,0-5.635,0,6.326,6.326,0,0,0-1.066,3.878Z" transform="translate(-16.306 -9.539)" fill="#344154"/>
    <path id="Trazado_108065" data-name="Trazado 108065" d="M429.81,245.23a8.054,8.054,0,0,1,1.488-5.069,5.088,5.088,0,0,1,7.68-.269V232.75h2.342v19.44h-2.112l-.115-1.469a4.742,4.742,0,0,1-3.907,1.728,4.685,4.685,0,0,1-3.84-1.92,8.131,8.131,0,0,1-1.5-5.088Zm2.342.269a6.076,6.076,0,0,0,.96,3.648,3.12,3.12,0,0,0,2.64,1.315A3.418,3.418,0,0,0,439,248.456v-6.288a3.446,3.446,0,0,0-3.226-1.92,3.13,3.13,0,0,0-2.678,1.325,6.72,6.72,0,0,0-.941,3.9Z" transform="translate(-17.192 -9.31)" fill="#344154"/>
    <path id="Trazado_108066" data-name="Trazado 108066" d="M451.288,252.678a5.971,5.971,0,0,1-4.531-1.834,6.72,6.72,0,0,1-1.747-4.886v-.432a8.2,8.2,0,0,1,.778-3.638,6.029,6.029,0,0,1,2.179-2.506,5.443,5.443,0,0,1,3.024-.9,5.136,5.136,0,0,1,4.157,1.757,7.6,7.6,0,0,1,1.478,5.04v.96h-9.274a4.8,4.8,0,0,0,1.181,3.274,3.754,3.754,0,0,0,2.88,1.248,4.109,4.109,0,0,0,2.1-.509,5.4,5.4,0,0,0,1.507-1.344l1.43,1.114A5.76,5.76,0,0,1,451.288,252.678Zm-.3-12.278a3.12,3.12,0,0,0-2.371,1.027,4.963,4.963,0,0,0-1.19,2.88h6.854v-.182a4.435,4.435,0,0,0-.96-2.765,2.957,2.957,0,0,0-2.333-.96Z" transform="translate(-17.8 -9.539)" fill="#344154"/>
    <path id="Trazado_108067" data-name="Trazado 108067" d="M363.455,283.168a3.408,3.408,0,0,0,2.189-.758,2.678,2.678,0,0,0,1.037-1.92H368.9a4.262,4.262,0,0,1-.806,2.237,5.318,5.318,0,0,1-2,1.7,5.759,5.759,0,0,1-2.64.634,5.616,5.616,0,0,1-4.445-1.872,7.411,7.411,0,0,1-1.651-5.107v-.365a8.246,8.246,0,0,1,.73-3.552,5.587,5.587,0,0,1,2.112-2.419,5.952,5.952,0,0,1,3.245-.854,5.482,5.482,0,0,1,3.84,1.373,4.925,4.925,0,0,1,1.622,3.581h-2.218a3.206,3.206,0,0,0-1.008-2.179,3.12,3.12,0,0,0-2.227-.854,3.283,3.283,0,0,0-2.765,1.286,6.038,6.038,0,0,0-.96,3.715v.442a5.914,5.914,0,0,0,.96,3.648,3.312,3.312,0,0,0,2.765,1.267Z" transform="translate(-14.294 -10.835)" fill="#344154"/>
    <path id="Trazado_108068" data-name="Trazado 108068" d="M371.48,277.849a8.083,8.083,0,0,1,.787-3.619,5.827,5.827,0,0,1,2.2-2.477,5.972,5.972,0,0,1,3.226-.874,5.76,5.76,0,0,1,4.522,1.92,7.469,7.469,0,0,1,1.728,5.155v.163a8.073,8.073,0,0,1-.768,3.59,5.76,5.76,0,0,1-2.189,2.467,6.009,6.009,0,0,1-3.264.893,5.76,5.76,0,0,1-4.512-1.92,7.392,7.392,0,0,1-1.728-5.126Zm2.352.278a5.885,5.885,0,0,0,1.056,3.658,3.581,3.581,0,0,0,5.664,0,6.394,6.394,0,0,0,1.046-3.917,5.856,5.856,0,0,0-1.066-3.648,3.408,3.408,0,0,0-2.88-1.4,3.35,3.35,0,0,0-2.794,1.382,6.326,6.326,0,0,0-1.027,3.926Z" transform="translate(-14.859 -10.835)" fill="#344154"/>
    <path id="Trazado_108069" data-name="Trazado 108069" d="M395.476,281.189a1.728,1.728,0,0,0-.72-1.478,7.1,7.1,0,0,0-2.5-.9,11.73,11.73,0,0,1-2.822-.912,3.975,3.975,0,0,1-1.536-1.267,3,3,0,0,1-.5-1.747,3.552,3.552,0,0,1,1.421-2.88,5.549,5.549,0,0,1,3.638-1.162,5.664,5.664,0,0,1,3.773,1.2,3.84,3.84,0,0,1,1.45,3.072h-2.352a2.112,2.112,0,0,0-.816-1.661,3.072,3.072,0,0,0-2.054-.691,3.168,3.168,0,0,0-2,.557,1.738,1.738,0,0,0-.73,1.459,1.44,1.44,0,0,0,.672,1.277,8.246,8.246,0,0,0,2.429.816,13.085,13.085,0,0,1,2.88.96,4.244,4.244,0,0,1,1.613,1.306,3.283,3.283,0,0,1,.528,1.872,3.494,3.494,0,0,1-1.469,2.938,6.173,6.173,0,0,1-3.84,1.114,6.787,6.787,0,0,1-2.88-.586,4.8,4.8,0,0,1-1.987-1.622,3.974,3.974,0,0,1-.71-2.266h2.342a2.419,2.419,0,0,0,.96,1.872,3.657,3.657,0,0,0,2.323.691,3.84,3.84,0,0,0,2.131-.538A1.67,1.67,0,0,0,395.476,281.189Z" transform="translate(-15.479 -10.833)" fill="#344154"/>
    <path id="Trazado_108070" data-name="Trazado 108070" d="M404.549,267.679V271H407.1v1.786h-2.554v8.506a1.92,1.92,0,0,0,.346,1.238,1.44,1.44,0,0,0,1.162.413,6.128,6.128,0,0,0,1.114-.154v1.92a7.026,7.026,0,0,1-1.8.25A2.928,2.928,0,0,1,403,284a4.109,4.109,0,0,1-.8-2.7v-8.515H399.72v-1.8h2.486V267.66Z" transform="translate(-15.989 -10.706)" fill="#344154"/>
    <path id="Trazado_108071" data-name="Trazado 108071" d="M409.35,277.849a8.084,8.084,0,0,1,.8-3.619,5.827,5.827,0,0,1,2.2-2.477,5.972,5.972,0,0,1,3.226-.874,5.76,5.76,0,0,1,4.522,1.92,7.469,7.469,0,0,1,1.728,5.155v.163a8.207,8.207,0,0,1-.768,3.59,5.76,5.76,0,0,1-2.189,2.467,6.019,6.019,0,0,1-3.274.893,5.76,5.76,0,0,1-4.512-1.92,7.392,7.392,0,0,1-1.728-5.126Zm2.352.278a5.827,5.827,0,0,0,1.066,3.658,3.581,3.581,0,0,0,5.664,0,6.461,6.461,0,0,0,1.046-3.917,5.856,5.856,0,0,0-1.066-3.648,3.418,3.418,0,0,0-2.88-1.4,3.37,3.37,0,0,0-2.8,1.382,6.326,6.326,0,0,0-1.027,3.926Z" transform="translate(-16.374 -10.835)" fill="#344154"/>
    <path id="Trazado_108072" data-name="Trazado 108072" d="M433.346,281.189a1.747,1.747,0,0,0-.71-1.478,7.1,7.1,0,0,0-2.5-.9,11.731,11.731,0,0,1-2.822-.912,4.089,4.089,0,0,1-1.546-1.267,3,3,0,0,1-.5-1.747,3.571,3.571,0,0,1,1.421-2.88,5.577,5.577,0,0,1,3.648-1.162,5.7,5.7,0,0,1,3.773,1.2,3.84,3.84,0,0,1,1.45,3.072h-2.352a2.15,2.15,0,0,0-.816-1.661,3.072,3.072,0,0,0-2.054-.691,3.2,3.2,0,0,0-2.006.557,1.757,1.757,0,0,0-.72,1.459,1.421,1.421,0,0,0,.672,1.277,8.265,8.265,0,0,0,2.419.816,12.74,12.74,0,0,1,2.88.96,4.1,4.1,0,0,1,1.613,1.306,3.206,3.206,0,0,1,.528,1.872,3.494,3.494,0,0,1-1.469,2.938,6.153,6.153,0,0,1-3.84,1.114,6.816,6.816,0,0,1-2.88-.586,4.733,4.733,0,0,1-1.978-1.622,3.917,3.917,0,0,1-.72-2.266h2.342a2.448,2.448,0,0,0,.96,1.872,3.677,3.677,0,0,0,2.323.691,3.84,3.84,0,0,0,2.141-.538A1.68,1.68,0,0,0,433.346,281.189Z" transform="translate(-16.994 -10.833)" fill="#344154"/>
    <path id="Trazado_108073" data-name="Trazado 108073" d="M66.835,96.35a3.408,3.408,0,0,0,2.189-.758,2.678,2.678,0,0,0,1.037-1.92h2.218a4.282,4.282,0,0,1-.816,2.237,5.367,5.367,0,0,1-1.987,1.7,5.76,5.76,0,0,1-2.64.634,5.635,5.635,0,0,1-4.454-1.872,7.459,7.459,0,0,1-1.651-5.107v-.384a8.256,8.256,0,0,1,.739-3.562,5.626,5.626,0,0,1,2.1-2.352,6.058,6.058,0,0,1,3.245-.854,5.53,5.53,0,0,1,3.84,1.373,4.954,4.954,0,0,1,1.632,3.59H70.061a3.216,3.216,0,0,0-.96-2.189,3.139,3.139,0,0,0-2.237-.854A3.293,3.293,0,0,0,64.1,87.316a6.038,6.038,0,0,0-.96,3.715v.442a5.914,5.914,0,0,0,.96,3.648A3.3,3.3,0,0,0,66.835,96.35Z" transform="translate(-2.429 -3.364)" fill="#344154"/>
    <path id="Trazado_108074" data-name="Trazado 108074" d="M74.85,91.031a8.083,8.083,0,0,1,.8-3.619,5.827,5.827,0,0,1,2.227-2.448A5.971,5.971,0,0,1,81.1,84.09a5.76,5.76,0,0,1,4.522,1.92,7.469,7.469,0,0,1,1.728,5.155v.163a8.179,8.179,0,0,1-.768,3.59A5.846,5.846,0,0,1,84.392,97.4a6.1,6.1,0,0,1-3.274.883,5.76,5.76,0,0,1-4.512-1.92,7.392,7.392,0,0,1-1.728-5.126Zm2.352.278a5.827,5.827,0,0,0,1.066,3.658,3.581,3.581,0,0,0,5.664,0,6.461,6.461,0,0,0,1.046-3.917A5.856,5.856,0,0,0,83.912,87.4a3.418,3.418,0,0,0-2.88-1.4,3.37,3.37,0,0,0-2.8,1.382A6.346,6.346,0,0,0,77.2,91.309Z" transform="translate(-2.994 -3.363)" fill="#344154"/>
    <path id="Trazado_108075" data-name="Trazado 108075" d="M98.846,94.367a1.718,1.718,0,0,0-.71-1.469,6.893,6.893,0,0,0-2.5-.96,11.732,11.732,0,0,1-2.822-.912,4.07,4.07,0,0,1-1.546-1.258,3.014,3.014,0,0,1-.5-1.747,3.581,3.581,0,0,1,1.421-2.88,5.578,5.578,0,0,1,3.648-1.162,5.7,5.7,0,0,1,3.773,1.277,3.84,3.84,0,0,1,1.45,3.072H98.711a2.131,2.131,0,0,0-.816-1.651,3.034,3.034,0,0,0-2.054-.7,3.2,3.2,0,0,0-2.006.557,1.757,1.757,0,0,0-.72,1.459,1.411,1.411,0,0,0,.672,1.277,8.506,8.506,0,0,0,2.419.826,12.3,12.3,0,0,1,2.88.96A4.041,4.041,0,0,1,100.7,92.37a3.177,3.177,0,0,1,.528,1.862,3.523,3.523,0,0,1-1.469,2.947,6.211,6.211,0,0,1-3.84,1.1,6.816,6.816,0,0,1-2.88-.586,4.733,4.733,0,0,1-1.978-1.622,3.907,3.907,0,0,1-.72-2.256h2.342a2.448,2.448,0,0,0,.96,1.862,3.677,3.677,0,0,0,2.323.691,3.84,3.84,0,0,0,2.141-.538,1.67,1.67,0,0,0,.739-1.469Z" transform="translate(-3.614 -3.359)" fill="#344154"/>
    <path id="Trazado_108076" data-name="Trazado 108076" d="M107.928,80.87v3.312h2.554V86h-2.554v8.5a1.92,1.92,0,0,0,.336,1.238,1.45,1.45,0,0,0,1.171.413,5.453,5.453,0,0,0,1.114-.154v1.92a7.046,7.046,0,0,1-1.8.25,2.88,2.88,0,0,1-2.362-.96,4.09,4.09,0,0,1-.8-2.7V86h-2.5V84.182h2.5V80.87Z" transform="translate(-4.124 -3.235)" fill="#344154"/>
    <path id="Trazado_108077" data-name="Trazado 108077" d="M112.73,91.029a8.083,8.083,0,0,1,.787-3.619,5.846,5.846,0,0,1,2.208-2.477,5.962,5.962,0,0,1,3.216-.874,5.76,5.76,0,0,1,4.531,1.92,7.469,7.469,0,0,1,1.718,5.155V91.3a8.179,8.179,0,0,1-.758,3.59,5.846,5.846,0,0,1-2.189,2.477,6.125,6.125,0,0,1-3.274.883,5.76,5.76,0,0,1-4.512-1.92A7.392,7.392,0,0,1,112.73,91.2Zm2.352.278a5.885,5.885,0,0,0,1.056,3.658,3.581,3.581,0,0,0,5.664,0,6.394,6.394,0,0,0,1.056-3.917,5.866,5.866,0,0,0-1.075-3.648A3.408,3.408,0,0,0,118.9,86a3.36,3.36,0,0,0-2.794,1.382,6.346,6.346,0,0,0-1.027,3.926Z" transform="translate(-4.509 -3.362)" fill="#344154"/>
    <path id="Trazado_108078" data-name="Trazado 108078" d="M136.724,94.367A1.7,1.7,0,0,0,136,92.9a6.826,6.826,0,0,0-2.486-.96,11.453,11.453,0,0,1-2.822-.912,3.994,3.994,0,0,1-1.546-1.258,3.015,3.015,0,0,1-.5-1.747,3.552,3.552,0,0,1,1.421-2.88,5.549,5.549,0,0,1,3.638-1.162,5.76,5.76,0,0,1,3.782,1.2,3.84,3.84,0,0,1,1.45,3.072H136.58a2.1,2.1,0,0,0-.816-1.651,3.014,3.014,0,0,0-2.054-.7,3.168,3.168,0,0,0-2,.557,1.757,1.757,0,0,0-.72,1.459,1.411,1.411,0,0,0,.672,1.277,8.285,8.285,0,0,0,2.419.826,12.48,12.48,0,0,1,2.88.96,4.042,4.042,0,0,1,1.6,1.363A3.178,3.178,0,0,1,139.1,94.2a3.523,3.523,0,0,1-1.488,2.947,6.211,6.211,0,0,1-3.84,1.1,6.816,6.816,0,0,1-2.88-.586,4.675,4.675,0,0,1-1.978-1.622,3.907,3.907,0,0,1-.72-2.256h2.342a2.419,2.419,0,0,0,.96,1.862,3.658,3.658,0,0,0,2.323.691,3.84,3.84,0,0,0,2.131-.538,1.661,1.661,0,0,0,.778-1.44Z" transform="translate(-5.128 -3.359)" fill="#344154"/>
    <path id="Trazado_108079" data-name="Trazado 108079" d="M389.572,131.3h-2.438L377.9,117.1v14.2H375.46V112.87H377.9l9.3,14.266V112.87h2.419Z" transform="translate(-15.018 -4.515)" fill="#344154"/>
    <path id="Trazado_108080" data-name="Trazado 108080" d="M397.269,131.3H394.84V112.87h2.429Z" transform="translate(-15.794 -4.515)" fill="#344154"/>
    <path id="Trazado_108081" data-name="Trazado 108081" d="M404.618,131.3H402.18V112.87h2.438Z" transform="translate(-16.087 -4.515)" fill="#344154"/>
    <path id="Trazado_108082" data-name="Trazado 108082" d="M419.506,123.161h-7.738V131.3H409.34V112.87h11.414v1.987h-8.986v6.317h7.738Z" transform="translate(-16.374 -4.515)" fill="#344154"/>
    <path id="Trazado_108083" data-name="Trazado 108083" d="M47.111,367.54a2.477,2.477,0,0,0,1.613-.557,1.987,1.987,0,0,0,.778-1.411h1.632a3.149,3.149,0,0,1-.6,1.661,4.032,4.032,0,0,1-1.478,1.258,4.32,4.32,0,0,1-1.92.47,4.2,4.2,0,0,1-3.331-1.344,5.51,5.51,0,0,1-1.219-3.84v-.3a6.192,6.192,0,0,1,.538-2.63,4.2,4.2,0,0,1,1.565-1.8,4.464,4.464,0,0,1,2.41-.634,4.07,4.07,0,0,1,2.88,1.018,3.658,3.658,0,0,1,1.2,2.659H49.549a2.448,2.448,0,0,0-.749-1.622,2.323,2.323,0,0,0-1.651-.634,2.448,2.448,0,0,0-2.054.96,4.531,4.531,0,0,0-.73,2.755v.326a4.406,4.406,0,0,0,.73,2.707,2.448,2.448,0,0,0,2.016.95Z" transform="translate(-1.703 -14.337)" fill="#344154"/>
    <path id="Trazado_108084" data-name="Trazado 108084" d="M53.05,363.6a5.933,5.933,0,0,1,.586-2.678,4.31,4.31,0,0,1,1.632-1.843,4.406,4.406,0,0,1,2.381-.643A4.291,4.291,0,0,1,61,359.87a5.53,5.53,0,0,1,1.286,3.84v.067a6.067,6.067,0,0,1-.566,2.65,4.311,4.311,0,0,1-1.622,1.834,4.493,4.493,0,0,1-2.429.662,4.262,4.262,0,0,1-3.341-1.44,5.463,5.463,0,0,1-1.277-3.706Zm1.738.211a4.358,4.358,0,0,0,.787,2.707,2.659,2.659,0,0,0,4.2,0,4.733,4.733,0,0,0,.778-2.88,4.339,4.339,0,0,0-.826-2.746,2.63,2.63,0,0,0-4.176,0,4.8,4.8,0,0,0-.758,2.88Z" transform="translate(-2.122 -14.337)" fill="#344154"/>
    <path id="Trazado_108085" data-name="Trazado 108085" d="M66.562,358.622l.048,1.133a3.715,3.715,0,0,1,3-1.315,2.88,2.88,0,0,1,2.88,1.632,3.84,3.84,0,0,1,1.315-1.181,3.946,3.946,0,0,1,1.92-.451q3.341,0,3.4,3.533v6.8H77.41v-6.72a2.323,2.323,0,0,0-.5-1.632,2.189,2.189,0,0,0-1.67-.538,2.313,2.313,0,0,0-1.6.576,2.342,2.342,0,0,0-.739,1.555v6.72H71.16v-6.643a1.92,1.92,0,0,0-2.17-2.15,2.323,2.323,0,0,0-2.333,1.459v7.4H64.92V358.622Z" transform="translate(-2.597 -14.337)" fill="#344154"/>
    <path id="Trazado_108086" data-name="Trazado 108086" d="M91.033,363.777a6.038,6.038,0,0,1-1.066,3.725,3.4,3.4,0,0,1-2.88,1.421,3.715,3.715,0,0,1-2.88-1.171v4.877H82.46V358.622h1.584l.086,1.133a3.552,3.552,0,0,1,2.947-1.315,3.466,3.466,0,0,1,2.88,1.373,6.154,6.154,0,0,1,1.066,3.84Zm-1.738-.2a4.464,4.464,0,0,0-.73-2.707,2.371,2.371,0,0,0-2.006-.96,2.544,2.544,0,0,0-2.362,1.4v4.848a2.544,2.544,0,0,0,2.381,1.382,2.333,2.333,0,0,0,1.978-.96,4.906,4.906,0,0,0,.739-2.966Z" transform="translate(-3.298 -14.337)" fill="#344154"/>
    <path id="Trazado_108087" data-name="Trazado 108087" d="M98.586,360.187a4.74,4.74,0,0,0-.854-.067,2.285,2.285,0,0,0-2.314,1.45v7.2H93.68V358.622h1.69V359.8a2.688,2.688,0,0,1,2.458-1.363,1.642,1.642,0,0,1,.768.134Z" transform="translate(-3.747 -14.337)" fill="#344154"/>
    <path id="Trazado_108088" data-name="Trazado 108088" d="M106.308,368.771a3.658,3.658,0,0,1-.24-1.066,3.84,3.84,0,0,1-2.88,1.258,3.562,3.562,0,0,1-2.458-.854,2.726,2.726,0,0,1-.96-2.15,2.88,2.88,0,0,1,1.2-2.458,5.674,5.674,0,0,1,3.389-.883h1.69v-.758a1.92,1.92,0,0,0-.547-1.44,2.16,2.16,0,0,0-1.6-.547,2.582,2.582,0,0,0-1.555.47,1.4,1.4,0,0,0-.624,1.133H99.991a2.41,2.41,0,0,1,.538-1.459A3.648,3.648,0,0,1,102,358.892a4.8,4.8,0,0,1,2.026-.413,3.994,3.994,0,0,1,2.746.874,3.187,3.187,0,0,1,1.037,2.419v4.666a5.635,5.635,0,0,0,.355,2.218v.154Zm-2.88-1.325a3,3,0,0,0,1.555-.422,2.573,2.573,0,0,0,1.056-1.094v-2.083h-1.363c-2.122,0-3.187.624-3.187,1.872a1.584,1.584,0,0,0,.547,1.277A2.131,2.131,0,0,0,103.427,367.446Z" transform="translate(-3.991 -14.339)" fill="#344154"/>
    <path id="Trazado_108089" data-name="Trazado 108089" d="M69.91,212.348a7.315,7.315,0,0,1,2.083-5.366,7.171,7.171,0,0,1,5.328-2.112A7.075,7.075,0,0,1,82.668,207a7.555,7.555,0,0,1,2.054,5.5v1.766a7.238,7.238,0,0,1-2.074,5.347,7.162,7.162,0,0,1-5.28,2.074,7.315,7.315,0,0,1-5.347-2.074,7.411,7.411,0,0,1-2.112-5.52Zm3.437,1.92a4.675,4.675,0,0,0,1.085,3.206,3.706,3.706,0,0,0,2.938,1.258,3.61,3.61,0,0,0,2.88-1.219,4.877,4.877,0,0,0,1.085-3.341v-1.814a4.8,4.8,0,0,0-1.075-3.216,3.965,3.965,0,0,0-5.808,0,5.011,5.011,0,0,0-1.066,3.312Zm5.059,24.576L75.8,237.2l17.664-28.272,2.6,1.642Zm9.12-6.134a7.306,7.306,0,0,1,2.074-5.357,7.152,7.152,0,0,1,5.357-2.1,7.238,7.238,0,0,1,5.347,2.083,7.478,7.478,0,0,1,2.083,5.539v1.766a7.277,7.277,0,0,1-2.074,5.347,7.123,7.123,0,0,1-5.357,2.1,7.315,7.315,0,0,1-5.347-2.074,7.421,7.421,0,0,1-2.112-5.53Zm3.427,1.92a4.8,4.8,0,0,0,1.123,3.226,3.706,3.706,0,0,0,2.88,1.258,3.571,3.571,0,0,0,2.88-1.238,4.944,4.944,0,0,0,1.066-3.35v-1.843a4.714,4.714,0,0,0-1.066-3.206,3.965,3.965,0,0,0-5.76,0,4.8,4.8,0,0,0-1.123,3.36Z" transform="translate(-2.796 -8.195)" fill="#fff"/>
    <rect id="Rectángulo_6871" data-name="Rectángulo 6871" width="480" height="480" fill="#d9a171" opacity="0"/>
  </g>
</svg>
