<svg id="Capa_2" data-name="Capa 2" xmlns="http://www.w3.org/2000/svg" width="500" height="500" viewBox="0 0 500 500">
  <g id="Capa_1" data-name="Capa 1">
    <rect id="Rectángulo_6312" data-name="Rectángulo 6312" width="500" height="500" fill="#344154" opacity="0"/>
    <g id="freepik--background-complete--inject-39">
      <rect id="Rectángulo_6313" data-name="Rectángulo 6313" width="140.58" height="252.55" transform="translate(273.8 42.98)" fill="#ebebeb"/>
      <rect id="Rectángulo_6314" data-name="Rectángulo 6314" width="127.9" height="237.7" transform="translate(279.42 50.3)" fill="#fafafa"/>
      <path id="Trazado_105712" data-name="Trazado 105712" d="M407.32,53.1,279.42,215.79V50.3h127.9Z" fill="#f5f5f5"/>
      <rect id="Rectángulo_6315" data-name="Rectángulo 6315" width="130.68" height="2.53" transform="translate(279.42 118.68)" fill="#ebebeb"/>
      <rect id="Rectángulo_6316" data-name="Rectángulo 6316" width="130.68" height="2.53" transform="translate(279.42 175.28)" fill="#ebebeb"/>
      <rect id="Rectángulo_6317" data-name="Rectángulo 6317" width="130.68" height="2.53" transform="translate(279.42 231.89)" fill="#ebebeb"/>
      <rect id="Rectángulo_6318" data-name="Rectángulo 6318" width="6.46" height="174.79" transform="translate(340.14 119.95)" fill="#ebebeb"/>
      <rect id="Rectángulo_6319" data-name="Rectángulo 6319" width="2.93" height="69.64" transform="translate(304.05 50.3)" fill="#ebebeb"/>
      <rect id="Rectángulo_6320" data-name="Rectángulo 6320" width="2.93" height="69.64" transform="translate(329.29 50.3)" fill="#ebebeb"/>
      <rect id="Rectángulo_6321" data-name="Rectángulo 6321" width="2.93" height="69.64" transform="translate(354.54 50.3)" fill="#ebebeb"/>
      <rect id="Rectángulo_6322" data-name="Rectángulo 6322" width="2.93" height="69.64" transform="translate(379.79 50.3)" fill="#ebebeb"/>
      <rect id="Rectángulo_6323" data-name="Rectángulo 6323" width="5.95" height="258.39" transform="translate(267.85 38.69)" fill="#f5f5f5"/>
      <path id="Trazado_105713" data-name="Trazado 105713" d="M420.33,297.8l-5.95-2.28V38.69h5.95Z" fill="#e0e0e0"/>
      <rect id="Rectángulo_6324" data-name="Rectángulo 6324" width="152.47" height="6.89" transform="translate(267.85 36.09)" fill="#e0e0e0"/>
      <rect id="Rectángulo_6325" data-name="Rectángulo 6325" width="160.72" height="6.42" transform="translate(263.64 298.65)" fill="#e0e0e0"/>
      <path id="Trazado_105714" data-name="Trazado 105714" d="M414.38,295.52l9.97,3.13H263.64l10.16-3.13Z" fill="#ebebeb"/>
      <path id="Trazado_105715" data-name="Trazado 105715" d="M274.27,461.64c16.77-10.07,21.84-30.57,22.5-49.27.11-3.12.68-6.38-.61-9.21s-4.62-4.94-7.5-3.82c-2.39.92-3.58,3.54-5,5.68a18.22,18.22,0,0,1-7.78,6.47c-2.06.89-4.56,1.35-6.44.13-2.58-1.66-2.64-5.4-2.41-8.49q.66-8.65,1.31-17.31a28.789,28.789,0,0,0-.3-9.26c-.76-3-2.69-5.89-5.58-6.92s-6.65.42-7.49,3.41a29.151,29.151,0,0,0-.35,3.85c-.18,1.28-.87,2.66-2.12,2.93s-2.44-.68-3.3-1.65c-3-3.35-4.87-7.53-6.62-11.68s-3.44-8.38-6.1-12-6.49-6.6-10.91-7.16-9.33,1.86-10.75,6.13.81,8.9,3.34,12.62a69.44,69.44,0,0,0,13.44,14.73,5.66,5.66,0,0,1,2.23,2.76c.53,2.11-1.57,4-3.65,4.56-2.37.61-4.85.2-7.29.31s-5.12,1-6.19,3.22c-1.49,3.08.93,6.58,3.38,8.94a59.489,59.489,0,0,0,16.82,11.33c2.23,1,4.57,1.89,6.3,3.61s2.64,4.59,1.38,6.7-4.16,2.6-6.52,2-4.4-2.05-6.61-3.07c-4.15-1.9-9.66-2-12.64,1.5a9.86,9.86,0,0,0-1.65,8.59,22.53,22.53,0,0,0,4.17,8,59.7,59.7,0,0,0,24.19,19.64c9.63,4.1,18.72,5.66,28.78,2.75" fill="#f5f5f5"/>
      <path id="Trazado_105716" data-name="Trazado 105716" d="M271.23,462.54c-.17-7.44,1.14-3.32-1-12.92A276.129,276.129,0,0,0,261.29,419q-1.41-4-2.76-7.92c-.91-2.59-1.82-5.16-2.85-7.62a137.993,137.993,0,0,0-6.79-13.81c-2.37-4.29-4.77-8.27-7-12s-4.47-7.12-6.61-10.14A109.727,109.727,0,0,0,224.17,354c-1.43-1.49-2.58-2.6-3.37-3.35l-.9-.84a2.686,2.686,0,0,0-.32-.27,2.06,2.06,0,0,0,.28.31l.86.88c.76.78,1.88,1.92,3.29,3.43A116.072,116.072,0,0,1,235,367.72c2.11,3,4.28,6.45,6.54,10.16s4.64,7.7,7,12a140.089,140.089,0,0,1,6.72,13.77c1,2.45,1.92,5,2.83,7.6l2.76,7.91a284.586,284.586,0,0,1,9,30.56c2.13,9.57.86,5.41,1.07,12.82" fill="#e0e0e0"/>
      <path id="Trazado_105717" data-name="Trazado 105717" d="M255.54,403.4a5.928,5.928,0,0,0,.4-1.3c.22-.84.5-2.07.82-3.6.66-3.06,1.41-7.3,2.23-12s1.63-8.91,2.32-11.95c.35-1.51.64-2.74.85-3.59a7.468,7.468,0,0,0,.27-1.33,5.73,5.73,0,0,0-.48,1.27c-.28.83-.63,2-1,3.56-.8,3-1.68,7.25-2.49,11.94s-1.51,8.81-2.06,12c-.26,1.44-.48,2.66-.65,3.63a6.4,6.4,0,0,0-.21,1.37Z" fill="#e0e0e0"/>
      <path id="Trazado_105718" data-name="Trazado 105718" d="M216.24,393.25a8.471,8.471,0,0,0,1.58.3c1,.16,2.48.39,4.29.73,3.62.64,8.59,1.71,14,3.13s10.29,2.93,13.77,4.12c1.75.58,3.15,1.09,4.12,1.43a8.16,8.16,0,0,0,1.52.49,8.7,8.7,0,0,0-1.44-.7c-1-.41-2.33-1-4.07-1.61-3.46-1.29-8.31-2.86-13.76-4.29a141.188,141.188,0,0,0-14.09-3c-1.83-.28-3.31-.45-4.34-.54a8.33,8.33,0,0,0-1.58-.06Z" fill="#e0e0e0"/>
      <path id="Trazado_105719" data-name="Trazado 105719" d="M269.82,448.85a2.131,2.131,0,0,0,.31-.47l.78-1.39c.67-1.21,1.6-3,2.72-5.21,2.23-4.43,5.13-10.64,8.24-17.54s5.94-13.14,8.08-17.61l2.55-5.28.69-1.44a2,2,0,0,0,.2-.53,4.655,4.655,0,0,0-.3.47l-.78,1.39c-.68,1.22-1.6,3-2.72,5.21-2.24,4.43-5.14,10.65-8.24,17.55s-5.94,13.13-8.08,17.6l-2.56,5.29-.68,1.44A2.361,2.361,0,0,0,269.82,448.85Z" fill="#e0e0e0"/>
      <path id="Trazado_105720" data-name="Trazado 105720" d="M218.09,428.13a2,2,0,0,0,.51.25l1.5.63,5.5,2.24c4.68,1.89,11.11,4.56,18.21,7.53s13.56,5.58,18.28,7.37c2.36.89,4.27,1.6,5.6,2.06l1.54.52a2.118,2.118,0,0,0,.55.14,2,2,0,0,0-.51-.25l-1.5-.62-5.54-2.23c-4.67-1.89-11.1-4.56-18.21-7.53s-13.55-5.58-18.27-7.37c-2.36-.89-4.27-1.6-5.61-2.05l-1.54-.57A2.232,2.232,0,0,0,218.09,428.13Z" fill="#e0e0e0"/>
      <rect id="Rectángulo_6326" data-name="Rectángulo 6326" width="37.81" height="12.17" transform="translate(158.01 74.45)" fill="#f5f5f5"/>
      <rect id="Rectángulo_6327" data-name="Rectángulo 6327" width="37.81" height="12.17" transform="translate(193.47 98.79)" fill="#fafafa"/>
      <path id="Trazado_105721" data-name="Trazado 105721" d="M210.17,98.79a.89.89,0,0,1,0-.23v-3c0-2.12,0-5.14-.09-8.9l.17.17-37,.09c.11-.12-.27.26.25-.26h0V98.79l-.26-.25,26.36.11,7.77.07h.16l-7.7.07-26.61.12H173V86.64h0c.52-.52.15-.15.27-.26l37,.09h.17v.17c0,3.81-.07,6.86-.09,9V98C210.32,98.59,210.18,98.8,210.17,98.79Z" fill="#e0e0e0"/>
      <rect id="Rectángulo_6328" data-name="Rectángulo 6328" width="37.81" height="12.17" transform="translate(430.07 178.34)" fill="#fafafa"/>
      <path id="Trazado_105722" data-name="Trazado 105722" d="M480.6,178a.89.89,0,0,1,0-.23v-3c0-2.12-.05-5.13-.09-8.9l.17.17-37,.09c.11-.12-.27.26.25-.26h0V178l-.26-.25,26.43.11,7.76.08h.16l-7.7.07-26.72.23h-.25v-12.4h0c.52-.52.15-.15.27-.26l37,.09h.17v.17c0,3.81-.07,6.86-.09,9v2.37a2.21,2.21,0,0,1-.1.79Z" fill="#e0e0e0"/>
      <rect id="Rectángulo_6329" data-name="Rectángulo 6329" width="37.81" height="12.17" transform="translate(414.16 315.39)" fill="#f5f5f5"/>
      <rect id="Rectángulo_6330" data-name="Rectángulo 6330" width="37.81" height="12.17" transform="translate(427.32 327.14)" fill="#fafafa"/>
      <path id="Trazado_105723" data-name="Trazado 105723" d="M441.12,351.25a.81.81,0,0,1,0-.22v-3c0-2.12-.05-5.13-.09-8.9l.17.17-37,.09c.11-.11-.27.26.25-.26h0V351.3l-.26-.25,26.43.12,7.76.07h.16l-7.7.07-26.61.12H404V339h0c.52-.52.15-.14.27-.26l37,.09h.17V339c0,3.81-.07,6.86-.09,9v2.38a1.45,1.45,0,0,1-.23.87Z" fill="#e0e0e0"/>
      <rect id="Rectángulo_6331" data-name="Rectángulo 6331" width="37.81" height="12.17" transform="translate(32.9 150.5)" fill="#fafafa"/>
      <path id="Trazado_105724" data-name="Trazado 105724" d="M87.42,150.5v-3.28c0-2.11-.06-5.13-.1-8.9l.17.17-37,.09.26-.25h0V150.5l-.25-.26,26.43.12,7.76.07h2.1a4.568,4.568,0,0,1,.74,0H84.85l-7.7.07-26.6.12H50.3V138.2h0l.26-.27,37,.09h0v.17c0,3.81-.08,6.86-.1,9v2.37A4.22,4.22,0,0,1,87.42,150.5Z" fill="#e0e0e0"/>
    </g>
    <g id="freepik--Floor--inject-39">
      <path id="Trazado_105725" data-name="Trazado 105725" d="M476,463.55c0,.14-102.26.26-228.38.26s-228.4-.12-228.4-.26,102.24-.3,228.39-.3S476,463.41,476,463.55Z" fill="#344154"/>
    </g>
    <g id="freepik--Box--inject-39">
      <path id="Trazado_105726" data-name="Trazado 105726" d="M439.12,413l-1.34,24.76a1.68,1.68,0,0,1-1.66,1.58l-44.55.33a1.69,1.69,0,0,1-1.69-1.66l-.14-19.28a1.69,1.69,0,0,1,1.67-1.68h27.4a1.7,1.7,0,0,0,1.18-.49l4.73-4.73a1.66,1.66,0,0,1,1.17-.49l11.55-.08a1.66,1.66,0,0,1,1.68,1.64Z" fill="#d9a171"/>
      <path id="Trazado_105727" data-name="Trazado 105727" d="M439.12,413l-1.34,24.76a1.68,1.68,0,0,1-1.66,1.58l-44.55.33a1.69,1.69,0,0,1-1.69-1.66l-.14-19.28a1.69,1.69,0,0,1,1.67-1.68h27.4a1.7,1.7,0,0,0,1.18-.49l4.73-4.73a1.66,1.66,0,0,1,1.17-.49l11.55-.08a1.66,1.66,0,0,1,1.68,1.64Z" opacity="0.3"/>
      <rect id="Rectángulo_6332" data-name="Rectángulo 6332" width="48.68" height="29.09" transform="translate(389.703 414.18) rotate(-0.42)" fill="#f5f5f5"/>
      <path id="Trazado_105728" data-name="Trazado 105728" d="M442.28,416.4l-3.49,30.36a1.1,1.1,0,0,1-1.06,1l-47.44.34a1.06,1.06,0,0,1-1.08-1l-2.61-30.34a1.06,1.06,0,0,1,1-1.16h.1l53.55-.4a1.08,1.08,0,0,1,1.08,1.08A.353.353,0,0,0,442.28,416.4Z" fill="#d9a171"/>
      <path id="Trazado_105729" data-name="Trazado 105729" d="M452.23,408.37l-1.34,24.76a1.68,1.68,0,0,1-1.66,1.58l-44.55.32a1.67,1.67,0,0,1-1.69-1.65h0l-.14-19.28a1.67,1.67,0,0,1,1.66-1.68h27.41a1.67,1.67,0,0,0,1.18-.48l4.73-4.73a1.66,1.66,0,0,1,1.17-.49l11.55-.08a1.67,1.67,0,0,1,1.68,1.66Z" fill="#d9a171"/>
      <path id="Trazado_105730" data-name="Trazado 105730" d="M452.23,408.37l-1.34,24.76a1.68,1.68,0,0,1-1.66,1.58l-44.55.32a1.67,1.67,0,0,1-1.69-1.65h0l-.14-19.28a1.67,1.67,0,0,1,1.66-1.68h27.41a1.67,1.67,0,0,0,1.18-.48l4.73-4.73a1.66,1.66,0,0,1,1.17-.49l11.55-.08a1.67,1.67,0,0,1,1.68,1.66Z" opacity="0.3"/>
      <rect id="Rectángulo_6333" data-name="Rectángulo 6333" width="48.68" height="29.09" transform="translate(402.818 409.494) rotate(-0.42)" fill="#f5f5f5"/>
      <path id="Trazado_105731" data-name="Trazado 105731" d="M455.39,411.73l-3.5,30.36a1.06,1.06,0,0,1-1.06,1l-47.44.35a1.07,1.07,0,0,1-1.08-1l-2.61-30.32a1.07,1.07,0,0,1,1-1.16h.09l53.54-.4a1.08,1.08,0,0,1,1.08,1.08Z" fill="#d9a171"/>
      <path id="Trazado_105732" data-name="Trazado 105732" d="M455.39,411.73l-3.5,30.36a1.06,1.06,0,0,1-1.06,1l-47.44.35a1.07,1.07,0,0,1-1.08-1l-2.61-30.32a1.07,1.07,0,0,1,1-1.16h.09l53.54-.4a1.08,1.08,0,0,1,1.08,1.08Z" opacity="0.3"/>
      <path id="Trazado_105733" data-name="Trazado 105733" d="M467,414.17l-1.34,24.75a1.68,1.68,0,0,1-1.66,1.59l-44.55.32a1.68,1.68,0,0,1-1.69-1.66l-.16-19.27a1.69,1.69,0,0,1,1.67-1.68h27.4a1.6,1.6,0,0,0,1.18-.49l4.73-4.72a1.66,1.66,0,0,1,1.17-.49l11.55-.09a1.67,1.67,0,0,1,1.7,1.64Z" fill="#d9a171"/>
      <rect id="Rectángulo_6334" data-name="Rectángulo 6334" width="48.68" height="29.09" transform="translate(417.58 415.296) rotate(-0.42)" fill="#f5f5f5"/>
      <path id="Trazado_105734" data-name="Trazado 105734" d="M470.16,417.53l-3.49,30.36a1.09,1.09,0,0,1-1.06.95l-47.45.35a1.05,1.05,0,0,1-1.07-1l-2.61-30.32a1.08,1.08,0,0,1,1-1.17h.09l53.54-.39a1.08,1.08,0,0,1,1.09,1.07A.76.76,0,0,1,470.16,417.53Z" fill="#d9a171"/>
      <path id="Trazado_105735" data-name="Trazado 105735" d="M414.47,421.66v42.11h60.76V421.66Zm19.83,7.59a3.11,3.11,0,0,1,3.11-3.11h14.88a3.11,3.11,0,1,1,.35,6.21H437.41a3.12,3.12,0,0,1-3.11-3.1Z" fill="#455a64"/>
      <path id="Trazado_105736" data-name="Trazado 105736" d="M381.72,421.66v42.11h32.75V421.66Z" fill="#344154"/>
    </g>
    <g id="freepik--Character--inject-39">
      <path id="Trazado_105737" data-name="Trazado 105737" d="M267.19,432,264,450.25s-19.65,2.92-20.56,6.24l35.22,7.42,6.11-28.28Z" fill="#d9a171"/>
      <g id="Grupo_60071" data-name="Grupo 60071" opacity="0.6">
        <path id="Trazado_105738" data-name="Trazado 105738" d="M275.23,451a1.48,1.48,0,0,1,.65,1.85,1.42,1.42,0,0,1-1.83.66,1.55,1.55,0,0,1-.68-2,1.46,1.46,0,0,1,2-.47" fill="#fff"/>
      </g>
      <path id="Trazado_105739" data-name="Trazado 105739" d="M278.68,463.9l.5-2.87-34-6s-1.71.35-1.76,1.49Z" fill="#fff" opacity="0.6"/>
      <path id="Trazado_105740" data-name="Trazado 105740" d="M263.48,450c0,.17.82.43,1.55,1.16s1,1.55,1.2,1.51.12-1.08-.78-1.95S263.48,449.78,263.48,450Z" fill="#344154"/>
      <path id="Trazado_105741" data-name="Trazado 105741" d="M259.47,450.7c-.08.15.61.6,1,1.45s.43,1.66.61,1.69.48-.92-.07-2S259.51,450.53,259.47,450.7Z" fill="#344154"/>
      <path id="Trazado_105742" data-name="Trazado 105742" d="M256.44,454.67c.15.07.57-.73.32-1.77s-1-1.58-1.07-1.45.29.74.48,1.59S256.27,454.62,256.44,454.67Z" fill="#344154"/>
      <path id="Trazado_105743" data-name="Trazado 105743" d="M264.67,445.86c0,.17.88.1,1.83.37s1.66.74,1.78.61-.48-.9-1.62-1.2S264.6,445.71,264.67,445.86Z" fill="#344154"/>
      <path id="Trazado_105744" data-name="Trazado 105744" d="M266.56,435.59l-.57,3.25,17.35,3.49.64-2.91Z" opacity="0.3"/>
      <path id="Trazado_105745" data-name="Trazado 105745" d="M265.38,442.18a3.35,3.35,0,0,0,1.76.37,8.418,8.418,0,0,0,2-.18,9,9,0,0,0,1.12-.33,2.09,2.09,0,0,0,.62-.3.77.77,0,0,0,.28-.9,1,1,0,0,0-.68-.55,3.068,3.068,0,0,0-.68-.05,5.767,5.767,0,0,0-1.17.15,6.142,6.142,0,0,0-1.85.72c-1,.59-1.4,1.17-1.34,1.22s.57-.38,1.54-.83a6.812,6.812,0,0,1,1.76-.56,7.9,7.9,0,0,1,1.08-.1c.39,0,.71.05.77.23s0,.1-.08.19a1.622,1.622,0,0,1-.46.22,9.058,9.058,0,0,1-1,.34,10.629,10.629,0,0,1-1.85.29,12.262,12.262,0,0,0-1.82.07Z" fill="#344154"/>
      <path id="Trazado_105746" data-name="Trazado 105746" d="M265.6,442.48a3,3,0,0,0,.82-1.61,5.86,5.86,0,0,0,.17-2,6.551,6.551,0,0,0-.23-1.17,1.46,1.46,0,0,0-.93-1.12.81.81,0,0,0-.84.33,2.369,2.369,0,0,0-.32.61,4,4,0,0,0-.25,1.19,4.06,4.06,0,0,0,.37,2c.49,1.06,1.17,1.41,1.19,1.36a7,7,0,0,1-.79-1.52,4.139,4.139,0,0,1-.21-1.78,3.5,3.5,0,0,1,.25-1c.13-.36.34-.63.47-.57a1.28,1.28,0,0,1,.49.71,6.148,6.148,0,0,1,.24,1,7,7,0,0,1,0,1.83C265.78,441.83,265.46,442.43,265.6,442.48Z" fill="#344154"/>
      <path id="Trazado_105747" data-name="Trazado 105747" d="M386.86,432.37l-7.62-9.95-.39-.51-13,9.65,12,13.2-.44,13.36c-6.69,1.73-7.7,5.07-7.7,5.07h13.91l12.64-24.34Z" fill="#d9a171"/>
      <path id="Trazado_105748" data-name="Trazado 105748" d="M396.3,438.84l-12.64,24.34-13.91.01,1.57-2.09,11.31-.63,11.66-23.01Z" fill="#fff" opacity="0.6"/>
      <path id="Trazado_105749" data-name="Trazado 105749" d="M377.53,452c.11.14.91-.32,2-.29s1.87.48,2,.34-.66-.94-2-.95S377.41,451.89,377.53,452Z" fill="#344154"/>
      <path id="Trazado_105750" data-name="Trazado 105750" d="M377.76,448.68c.14.1.75-.72,1.86-.94s2,.29,2.09.15-.11-.3-.5-.51A2.61,2.61,0,0,0,378,448C377.75,448.37,377.69,448.64,377.76,448.68Z" fill="#344154"/>
      <path id="Trazado_105751" data-name="Trazado 105751" d="M377.66,444.43c.15.07.63-.73,1.6-1.07s1.84,0,1.91-.17-.14-.27-.53-.41a2.42,2.42,0,0,0-2.83,1C377.6,444.14,377.6,444.4,377.66,444.43Z" fill="#344154"/>
      <path id="Trazado_105752" data-name="Trazado 105752" d="M373.94,441.13c.16.06.55-.73,1.42-1.29s1.72-.65,1.73-.82-1-.4-2.07.31S373.77,441.11,373.94,441.13Z" fill="#344154"/>
      <path id="Trazado_105753" data-name="Trazado 105753" d="M372.12,438.25a6.081,6.081,0,0,0,1.21-1.46l1.18-1.67a4.341,4.341,0,0,0,.64-1.13,1.07,1.07,0,0,0-.08-.84.85.85,0,0,0-.84-.44,2.579,2.579,0,0,0-1.3.67,5.059,5.059,0,0,0-.85,1,4.64,4.64,0,0,0-.72,2,2.53,2.53,0,0,0,.31,1.9,16,16,0,0,1,.11-1.83,4.53,4.53,0,0,1,1.53-2.59,2.14,2.14,0,0,1,1-.52.26.26,0,0,1,.27.12.55.55,0,0,1,0,.4,4.787,4.787,0,0,1-.53,1L373,436.6a6,6,0,0,0-.88,1.65Z" fill="#344154"/>
      <path id="Trazado_105754" data-name="Trazado 105754" d="M371.6,438.69c.07,0,0-.74-.74-1.57a3.46,3.46,0,0,0-4.12-.74.58.58,0,0,0-.22.49.77.77,0,0,0,.17.44,2.111,2.111,0,0,0,.5.44,5.45,5.45,0,0,0,1,.56,5.881,5.881,0,0,0,1.83.51,2.74,2.74,0,0,0,1.72-.16,16.4,16.4,0,0,0-1.65-.26,6.529,6.529,0,0,1-1.65-.6,5.28,5.28,0,0,1-.84-.55,1.339,1.339,0,0,1-.36-.31c-.07-.12-.05-.09,0-.12a1,1,0,0,1,.4-.15,3,3,0,0,1,.52-.08,3.07,3.07,0,0,1,1,.07,3.3,3.3,0,0,1,1.5.76,13.006,13.006,0,0,1,.94,1.27Z" fill="#344154"/>
      <circle id="Elipse_4076" data-name="Elipse 4076" cx="1.65" cy="1.65" r="1.65" transform="translate(385.2 436.77)" fill="#fff" opacity="0.6"/>
      <path id="Trazado_105755" data-name="Trazado 105755" d="M367.08,432.89l2.67,2.93,11.23-11.13-1.56-2.03Z" opacity="0.3"/>
      <path id="Trazado_105756" data-name="Trazado 105756" d="M299.14,253.78s-13,44.12-24.62,94c-7,30.24-13.65,86.51-13.65,86.51l30.86,6.8L305,368.75l14.12-42.82c4.85-13.52,11.82-23.4,20.28-30.72,9.2-13,14-27.87,12.15-43.7h0Z" fill="#344154"/>
      <path id="Trazado_105757" data-name="Trazado 105757" d="M296.6,260.81l11.53,95c1.12,9.17,2.67,18,8.9,24.83L363.72,436l23.13-20.76-49.49-67.66,8.6-95.38-48.42,8.26" fill="#344154"/>
      <path id="Trazado_105758" data-name="Trazado 105758" d="M337.83,346.88c.09.17-2,1.21-4,3.28s-2.89,4.21-3.06,4.13.54-2.41,2.6-4.56S337.79,346.72,337.83,346.88Z" fill="#455a64"/>
      <path id="Trazado_105759" data-name="Trazado 105759" d="M337.13,347.59c0,.18-1.85.12-4.07.34s-4,.62-4.07.44a8.75,8.75,0,0,1,4-1.07C335.29,347.07,337.15,347.42,337.13,347.59Z" fill="#455a64"/>
      <path id="Trazado_105760" data-name="Trazado 105760" d="M350.12,273.09a8.08,8.08,0,0,1-.17,1.08c-.08.38-.16.81-.26,1.31s-.31,1.1-.5,1.75a41.119,41.119,0,0,1-5.12,10.38c-2.7,4.11-6.45,8.58-10.44,13.64a84.364,84.364,0,0,0-5.8,8.25,101.687,101.687,0,0,0-5.05,9.58c-3.11,6.76-5.62,13.4-7.75,19.49s-3.9,11.62-5.4,16.27-2.68,8.35-3.54,11c-.42,1.25-.76,2.25-1,3a7.191,7.191,0,0,1-.4,1,6.705,6.705,0,0,1,.27-1.07l.89-3,3.34-11.08c1.44-4.66,3.17-10.22,5.27-16.33s4.6-12.78,7.72-19.57a97.4,97.4,0,0,1,5.11-9.63,81.131,81.131,0,0,1,5.87-8.29c4-5.06,7.8-9.48,10.52-13.52a43.461,43.461,0,0,0,5.27-10.2c.2-.65.41-1.22.55-1.73s.23-.92.32-1.28A6.3,6.3,0,0,1,350.12,273.09Z" fill="#455a64"/>
      <path id="Trazado_105761" data-name="Trazado 105761" d="M238.6,226.35l-8.11,4.22-14.07,6.91a4.17,4.17,0,0,0-2.25,1.86L209,248.42h9.87l2.63-4.43a8.49,8.49,0,0,0,9.45-2.64l14.33-5Z" fill="#ffbe9d"/>
      <path id="Trazado_105762" data-name="Trazado 105762" d="M332.81,114.89a6.4,6.4,0,0,1,12.06,1.44,17.67,17.67,0,0,0,.67,3.75,3.82,3.82,0,0,0,4.32,2.07,5.41,5.41,0,0,1-2.24,2.23.92.92,0,0,1,1.27.27.72.72,0,0,1,.12.27,1.5,1.5,0,0,1-.71,1.51,4.2,4.2,0,0,1-1.69.51c-2.85.43-6,.54-8.4-1-2.62-1.69-3.78-4.87-4.76-7.82" fill="#344154"/>
      <path id="Trazado_105763" data-name="Trazado 105763" d="M305.51,106.63c-3,.26-5.5,2.47-7.24,4.93s-2.95,5.28-4.77,7.68c-1.36,1.79-3.09,3.41-3.76,5.55-1.07,3.42.81,7.36-.68,10.61-.85,1.84-2.63,3.09-3.51,4.91-1.1,2.27-.6,5,.07,7.4a8.7,8.7,0,0,0,2.45,4.55,8.47,8.47,0,0,0,3.81,1.43,50.86,50.86,0,0,0,30.31-3.75" fill="#344154"/>
      <path id="Trazado_105764" data-name="Trazado 105764" d="M328.94,123.74a15.53,15.53,0,0,0-15.84-15.22h-.5c-8.31.42-14.7,7.58-14.75,15.9,0,7.29.09,14.63.51,17.24,1.25,7.87,6.31,10.27,8.31,10.92a9.77,9.77,0,0,0,2.16.21h0a.06.06,0,0,1,.05.06l-.43,9.31c.07,6,4.15,10.85,10.2,10.85s10.05-5.23,10.09-11.3Z" fill="#ffbe9d"/>
      <path id="Trazado_105765" data-name="Trazado 105765" d="M300.82,128.52a1.26,1.26,0,0,0,1.23,1.27,1.2,1.2,0,0,0,1.3-1.09h0a1.26,1.26,0,0,0-1.22-1.28,1.22,1.22,0,0,0-1.31,1.12Z" fill="#344154"/>
      <path id="Trazado_105766" data-name="Trazado 105766" d="M300,126.31c.15.17,1.11-.54,2.48-.54s2.36.68,2.51.52-.09-.37-.53-.69a3.43,3.43,0,0,0-2-.62,3.27,3.27,0,0,0-2,.64C300.07,125.94,299.93,126.25,300,126.31Z" fill="#344154"/>
      <path id="Trazado_105767" data-name="Trazado 105767" d="M314.16,128.52a1.25,1.25,0,0,0,1.22,1.27,1.2,1.2,0,0,0,1.3-1.09h0a1.26,1.26,0,0,0-1.22-1.28,1.21,1.21,0,0,0-1.3,1.12Z" fill="#344154"/>
      <path id="Trazado_105768" data-name="Trazado 105768" d="M313.41,126.57c.16.16,1.12-.55,2.48-.55s2.36.69,2.51.52-.08-.37-.52-.69a3.58,3.58,0,0,0-2-.62,3.4,3.4,0,0,0-2,.64C313.48,126.19,313.33,126.49,313.41,126.57Z" fill="#344154"/>
      <path id="Trazado_105769" data-name="Trazado 105769" d="M308.46,136.68a8.362,8.362,0,0,0-2.21-.4c-.35,0-.68-.11-.74-.34a1.82,1.82,0,0,1,.23-1l1-2.65c1.43-3.77,2.47-6.88,2.31-6.93a45.323,45.323,0,0,0-2.86,6.73c-.35.93-.67,1.82-1,2.67a2,2,0,0,0-.18,1.36.88.88,0,0,0,.57.51,3.11,3.11,0,0,0,.6.09,8.711,8.711,0,0,0,2.28-.04Z" fill="#344154"/>
      <path id="Trazado_105770" data-name="Trazado 105770" d="M308.9,152.81s5.27.43,11.85-3.53c0,0-2.08,7-12,6Z" fill="#eb996e"/>
      <path id="Trazado_105771" data-name="Trazado 105771" d="M309,140a2.48,2.48,0,0,1,2.2-.91,2.28,2.28,0,0,1,1.55.83,1.45,1.45,0,0,1,.11,1.63,1.65,1.65,0,0,1-1.79.45,5,5,0,0,1-1.74-1,1.481,1.481,0,0,1-.39-.4.47.47,0,0,1,0-.51" fill="#eb996e"/>
      <path id="Trazado_105772" data-name="Trazado 105772" d="M312.47,137.62c-.22,0-.22,1.47-1.49,2.52s-2.84.89-2.85,1.09.35.29,1,.31a3.67,3.67,0,0,0,2.38-.83,3.19,3.19,0,0,0,1.15-2.11C312.74,138,312.6,137.61,312.47,137.62Z" fill="#344154"/>
      <path id="Trazado_105773" data-name="Trazado 105773" d="M312.8,124.18c.13.37,1.49.19,3.09.39s2.9.62,3.11.29c.09-.16-.13-.51-.65-.86a5.45,5.45,0,0,0-4.73-.53C313,123.71,312.74,124,312.8,124.18Z" fill="#344154"/>
      <path id="Trazado_105774" data-name="Trazado 105774" d="M300.51,123.52c.24.31,1.18,0,2.31,0s2.08.21,2.3-.12c.1-.16,0-.47-.47-.76a3.32,3.32,0,0,0-3.72.12C300.53,123.05,300.4,123.37,300.51,123.52Z" fill="#344154"/>
      <path id="Trazado_105775" data-name="Trazado 105775" d="M296,122.73c2,2.26,7,0,9.84-2.21a7.52,7.52,0,0,0,9.85-3.58c2.12,2,5.64.74,6.6-2s-.31-6.19-2.46-8.17a11.8,11.8,0,0,0-7.68-2.83,16.66,16.66,0,0,0-15.76,9.31c-1.34,2.85-1.86,6.5-.39,9.47" fill="#344154"/>
      <path id="Trazado_105776" data-name="Trazado 105776" d="M319.37,106.63c5.71-2,12.22,3.05,13.42,7.15,2.08,7.11,1.23,8.16,3.06,11.45,1.2,2.14,4.52,4,6,6.19s2.24,6.56,1.75,9.36c-.41,2.36-2.52,9.08-2.52,9.08s-8.77,1-13.4.5a7.42,7.42,0,0,1-3.37-1c-1-.64.4-3.56.08-4.67-.93-3.15-3.61-4.66-3.38-7.94.3-4.35,3.58-5,2.88-9.36-.37-2.29-4.27-5.08-4.91-7.3s-3.12-10,.35-13.44" fill="#344154"/>
      <path id="Trazado_105777" data-name="Trazado 105777" d="M334,120.19c-.15,0,0-1.48-.34-3.23a25.449,25.449,0,0,1-.68-3.18,8,8,0,0,1,1,6.41Z" fill="#d9a171"/>
      <path id="Trazado_105778" data-name="Trazado 105778" d="M333.43,117.75a2,2,0,0,1-.61.24,6.26,6.26,0,0,1-1.78.17,7,7,0,0,1-2.59-.64,7.49,7.49,0,0,1-2.57-2,13.779,13.779,0,0,0-2.18-2.27,7.25,7.25,0,0,0-2.24-1.12,16.68,16.68,0,0,0-2.33-.4,1.449,1.449,0,0,1,.65-.12,6.22,6.22,0,0,1,1.77.16,7.29,7.29,0,0,1,2.43,1.09,13.348,13.348,0,0,1,2.29,2.28,7.26,7.26,0,0,0,4.8,2.61A18.578,18.578,0,0,0,333.43,117.75Z" fill="#455a64"/>
      <path id="Trazado_105779" data-name="Trazado 105779" d="M349.06,124.63a1.34,1.34,0,0,1-.72.36,3.35,3.35,0,0,1-2.18-.29,5.15,5.15,0,0,1-2.27-2.32c-.6-1.07-1-2.35-1.56-3.57A5.48,5.48,0,0,0,340,116a4.26,4.26,0,0,0-2.94-.25,5.39,5.39,0,0,0-2.37,1.52,1.56,1.56,0,0,1,.42-.68,4,4,0,0,1,1.84-1.19,4.56,4.56,0,0,1,3.25.16,5.73,5.73,0,0,1,2.63,3c.6,1.27,1,2.53,1.51,3.56a4.89,4.89,0,0,0,2,2.22,3.34,3.34,0,0,0,2,.42C348.78,124.73,349,124.59,349.06,124.63Z" fill="#455a64"/>
      <path id="Trazado_105780" data-name="Trazado 105780" d="M333.45,116.85a1.5,1.5,0,0,1-.72.08,3.68,3.68,0,0,1-1.84-.77,7.409,7.409,0,0,1-1.88-2.25,16.684,16.684,0,0,0-1.9-2.88,7.22,7.22,0,0,0-5.56-2.2,12.281,12.281,0,0,0-2.55.52,2.539,2.539,0,0,1,.61-.38,6.06,6.06,0,0,1,1.91-.5,7.25,7.25,0,0,1,6,2.2,16,16,0,0,1,1.93,3,7.4,7.4,0,0,0,1.69,2.2,4.13,4.13,0,0,0,2.31.98Z" fill="#455a64"/>
      <path id="Trazado_105781" data-name="Trazado 105781" d="M336,150.88l1-1.55a19.149,19.149,0,0,0,2-4.51,13.88,13.88,0,0,0,.25-7.18,11.19,11.19,0,0,0-5-7c-1.35-.8-2.84-1.34-4.16-2.15a7.41,7.41,0,0,1-3-3.29,23.913,23.913,0,0,1-1.28-3.77,18.229,18.229,0,0,0-1.15-3.2,5.74,5.74,0,0,0-3.51-3.15,4.84,4.84,0,0,0-1.78-.11,1.79,1.79,0,0,1,.46-.14,3.51,3.51,0,0,1,1.37,0A5.85,5.85,0,0,1,325,118a18,18,0,0,1,1.23,3.25,23,23,0,0,0,1.31,3.68A6.93,6.93,0,0,0,330.3,128c1.26.78,2.75,1.31,4.16,2.15a11.58,11.58,0,0,1,5.17,7.37,14,14,0,0,1-.37,7.4,17.248,17.248,0,0,1-2.18,4.51,12.2,12.2,0,0,1-.8,1.09C336.09,150.77,336,150.89,336,150.88Z" fill="#455a64"/>
      <path id="Trazado_105782" data-name="Trazado 105782" d="M292.74,153.3a1.62,1.62,0,0,1-.27-.28,8.183,8.183,0,0,1-.63-.91,10.22,10.22,0,0,1-1.34-3.86,10.74,10.74,0,0,1,.8-6,26.473,26.473,0,0,1,1.8-3.09,7.37,7.37,0,0,0,1.29-3.41c.17-2.52-1-4.87-1.16-7.17a12.17,12.17,0,0,1,.77-6,9.6,9.6,0,0,1,2.3-3.36,6.4,6.4,0,0,1,.85-.71,1.42,1.42,0,0,1,.33-.21s-.39.37-1,1.06a10.51,10.51,0,0,0-2.1,3.36,12.17,12.17,0,0,0-.64,5.8,25.329,25.329,0,0,0,.72,3.44,11.85,11.85,0,0,1,.49,3.84,8,8,0,0,1-1.37,3.63,28.35,28.35,0,0,0-1.8,3,10.58,10.58,0,0,0-.88,5.74,11.31,11.31,0,0,0,1.15,3.8C292.46,152.85,292.78,153.25,292.74,153.3Z" fill="#455a64"/>
      <path id="Trazado_105783" data-name="Trazado 105783" d="M311.06,105a25.2,25.2,0,0,0-3.75.77,13.93,13.93,0,0,0-7.22,5.36,17.08,17.08,0,0,0-2.58,8.7,22.14,22.14,0,0,0,.36,3.81,3.239,3.239,0,0,1-.36-1,12.339,12.339,0,0,1-.37-2.83,16.63,16.63,0,0,1,2.51-9,13.64,13.64,0,0,1,7.55-5.43,12.3,12.3,0,0,1,2.82-.46,3.3,3.3,0,0,1,1.04.08Z" fill="#455a64"/>
      <path id="Trazado_105784" data-name="Trazado 105784" d="M304.32,117.8a2.369,2.369,0,0,1-.25-.86,9,9,0,0,1-.11-2.48,10.13,10.13,0,0,1,10.89-9.31l.61.07a9,9,0,0,1,2.39.63,2.33,2.33,0,0,1,.8.44,17.71,17.71,0,0,0-3.23-.7,10.1,10.1,0,0,0-11.09,8.91A19.141,19.141,0,0,0,304.32,117.8Z" fill="#455a64"/>
      <path id="Trazado_105785" data-name="Trazado 105785" d="M349.86,259.94l-10.81-41.79,3.74-16.35,5.39-30.69s-4.95-6.77-17.77-7.42l-.86-6.21-21.95.77-.41,5.87a23.92,23.92,0,0,0-15.36,12h0l-15.59,29.32L233.6,226.78,239.23,240s42.8-16.22,46.42-17.81c2.41-1.05,5-5.49,7.29-10.25,1.71,8.18,3.48,14.66,3.48,14.66l-.37,32.06Z" fill="#d9a171"/>
      <path id="Trazado_105786" data-name="Trazado 105786" d="M330.74,175.11l-1.55.46c-1,.3-2.42.75-4.18,1.35a65,65,0,0,1-6.25,1.9,14.161,14.161,0,0,1-3.89.43,10.17,10.17,0,0,1-4-1.36c-1.26-.67-2.42-1.42-3.6-2a16.61,16.61,0,0,0-3.54-1.33,17.63,17.63,0,0,0-6.39-.4,22.81,22.81,0,0,0-5.72,1.63,1.629,1.629,0,0,1,.35-.23A9.743,9.743,0,0,1,293,175a16.57,16.57,0,0,1,4.25-1.23,17.23,17.23,0,0,1,10.21,1.64c1.21.61,2.38,1.36,3.62,2a9.75,9.75,0,0,0,3.77,1.31,13.83,13.83,0,0,0,3.74-.39c2.38-.53,4.48-1.24,6.25-1.78s3.22-1,4.24-1.2c.51-.12.91-.19,1.18-.23A1.08,1.08,0,0,1,330.74,175.11Z" fill="#fafafa"/>
      <path id="Trazado_105787" data-name="Trazado 105787" d="M337.35,196.32c0,.06-.84-.15-2.38-.23a20.08,20.08,0,0,0-6.4.87,58.648,58.648,0,0,0-8.92,3.66,40.35,40.35,0,0,1-11.24,3.91,18.429,18.429,0,0,1-3.15.17,14.311,14.311,0,0,1-3.05-.45,19.229,19.229,0,0,1-5.25-2.41c-3.09-2-5.7-4-8.32-4.83a9.69,9.69,0,0,0-6.31-.29,10,10,0,0,0-2.11,1.09,2.669,2.669,0,0,1,.47-.42,6.32,6.32,0,0,1,1.57-.86,9.67,9.67,0,0,1,6.5.13c2.7.83,5.39,2.86,8.46,4.77a18.63,18.63,0,0,0,5.12,2.32,13.909,13.909,0,0,0,2.94.43,17.4,17.4,0,0,0,3.06-.17,40.851,40.851,0,0,0,11.11-3.82,56.848,56.848,0,0,1,9-3.59,19.15,19.15,0,0,1,6.52-.71,13.13,13.13,0,0,1,1.76.27A4.338,4.338,0,0,1,337.35,196.32Z" fill="#fafafa"/>
      <path id="Trazado_105788" data-name="Trazado 105788" d="M297.33,181.7a1.44,1.44,0,0,1-.1.43c-.1.28-.2.68-.38,1.2-.35,1-.91,2.52-1.63,4.33s-1.6,4-2.39,6.4a30.4,30.4,0,0,0-1,3.89,16.389,16.389,0,0,0-.34,4.25,56.161,56.161,0,0,0,1.22,8.26c.52,2.52,1.07,4.77,1.53,6.67s.83,3.43,1.06,4.5c.12.53.2,1,.25,1.23a1.3,1.3,0,0,1,.05.44,11.649,11.649,0,0,1-.5-1.62l-1.23-4.43c-.5-1.89-1.09-4.14-1.64-6.66a52.049,52.049,0,0,1-1.27-8.33,17,17,0,0,1,.36-4.38,31.581,31.581,0,0,1,1-3.94c.82-2.46,1.75-4.6,2.51-6.39s1.37-3.25,1.78-4.26A11.375,11.375,0,0,1,297.33,181.7Z" fill="#344154"/>
      <path id="Trazado_105789" data-name="Trazado 105789" d="M272.91,227.17a1.44,1.44,0,0,1-.77-.09,5.41,5.41,0,0,1-1.84-1,10,10,0,0,1-2.09-2.32,11.24,11.24,0,0,1-1.34-3.58,24.426,24.426,0,0,0-1-3.56,7.18,7.18,0,0,0-1.67-2.44,5.11,5.11,0,0,0-2.43-1.2,1.91,1.91,0,0,1,.77,0,4.14,4.14,0,0,1,1.9.93,6.929,6.929,0,0,1,1.87,2.52,20,20,0,0,1,1.1,3.63,11.36,11.36,0,0,0,1.25,3.44,10,10,0,0,0,1.92,2.29,6.269,6.269,0,0,0,1.67,1.12C272.65,227.08,272.92,227.12,272.91,227.17Z" fill="#fafafa"/>
      <path id="Trazado_105790" data-name="Trazado 105790" d="M248.48,236.49c-.09,0,0-.88-.22-2.28a21.07,21.07,0,0,0-1.45-5.29,20.741,20.741,0,0,0-2.72-4.75c-.86-1.12-1.52-1.7-1.46-1.77a6,6,0,0,1,1.75,1.53,17.66,17.66,0,0,1,2.91,4.79,17.079,17.079,0,0,1,1.33,5.45,6.25,6.25,0,0,1-.14,2.32Z" fill="#fafafa"/>
      <path id="Trazado_105791" data-name="Trazado 105791" d="M339.19,217.77a16,16,0,0,0-1.76.14,27.2,27.2,0,0,0-4.73.89c-2,.53-4.24,1.36-6.78,2.28a44.879,44.879,0,0,1-8.5,2.37,33.83,33.83,0,0,1-15.82-1.36,31.83,31.83,0,0,1-4.46-1.91c-.51-.27-.89-.5-1.15-.65a2,2,0,0,1-.39-.28c.55.22,1.09.47,1.61.74a40.061,40.061,0,0,0,4.49,1.74,34.79,34.79,0,0,0,15.67,1.2,47.29,47.29,0,0,0,8.42-2.31c2.54-.89,4.85-1.7,6.85-2.19a22.93,22.93,0,0,1,4.8-.73,9.689,9.689,0,0,1,1.32,0,1.55,1.55,0,0,1,.43.07Z" fill="#fafafa"/>
      <g id="Grupo_60072" data-name="Grupo 60072" opacity="0.3">
        <path id="Trazado_105792" data-name="Trazado 105792" d="M308.74,164.14a19.54,19.54,0,0,0,18.93.09q-9.53.47-19.06.07"/>
      </g>
      <path id="Trazado_105793" data-name="Trazado 105793" d="M330.26,163.56a3.319,3.319,0,0,1-.87.3,16.94,16.94,0,0,1-2.45.52,43.64,43.64,0,0,1-8.24.28c-3.22-.14-6.11-.33-8.21-.34s-3.4.06-3.4,0a3,3,0,0,1,.9-.16c.59-.08,1.44-.14,2.5-.18,2.11-.08,5,.05,8.23.19a54.482,54.482,0,0,0,8.18-.13C329,163.79,330.24,163.47,330.26,163.56Z" fill="#344154"/>
      <path id="Trazado_105794" data-name="Trazado 105794" d="M316.8,209.65c.59,1.17,35.18,28.76,45.1,36.65a3.35,3.35,0,0,1,.53,4.71h0l-23.08,28.65a3.34,3.34,0,0,1-4.68.53l-44.21-35a3.34,3.34,0,0,1-.55-4.69l.11-.13Z" fill="#344154"/>
      <path id="Trazado_105795" data-name="Trazado 105795" d="M316.27,204.76c.61,1.21,37.65,30.73,46.05,37.41a2.14,2.14,0,0,1,.33,3l-24.59,30.54a2.14,2.14,0,0,1-3,.33l-46.14-36.58a2.14,2.14,0,0,1-.35-3l.06-.07Z" fill="#d9a171"/>
      <path id="Trazado_105796" data-name="Trazado 105796" d="M316.27,204.76c.61,1.22,38.36,31.29,46.28,37.6a1.84,1.84,0,0,1,.3,2.57h0l-25,31a1.85,1.85,0,0,1-2.59.29l-46.6-37a1.83,1.83,0,0,1-.31-2.58l.06-.08Z" opacity="0.4"/>
      <path id="Trazado_105797" data-name="Trazado 105797" d="M320.09,205.3c11.73,9.77,43.44,35,43.44,35L339,270.83a4.31,4.31,0,0,1-6,.68l-42.66-33.82a4.32,4.32,0,0,1-.7-6.07l.13-.15L312,206a5.83,5.83,0,0,1,8.09-.7Z" fill="#455a64"/>
      <path id="Trazado_105798" data-name="Trazado 105798" d="M349.46,229.05l.62,4.32,11.24,9.65,2.21-2.75Z" fill="#fafafa"/>
      <path id="Trazado_105799" data-name="Trazado 105799" d="M316.6,271.69h0l10.6-8.84-5.15-12.26-7.14,6.48a30.35,30.35,0,0,1-5.11.89,7.619,7.619,0,0,1-2.65-.2,12.282,12.282,0,0,1-3.11-1.11c-.85-.57-1.94.2-1.62,1.06s2.62,2.48,5.86,3c2.91.45-.38,2.6-2.25,3.74a.78.78,0,0,0-.3,1C306.7,267.65,310.52,274.86,316.6,271.69Z" fill="#ffbe9d"/>
      <path id="Trazado_105800" data-name="Trazado 105800" d="M333.42,184.89c-.79-11,9.42-22.16,15.38-12.91,6.54,10.14,20.87,34,24.4,50.2,1.65,7.55-43.61,43.55-46.4,45.77-.08.07-.81-.93-.87-1l-11.19-11.6c-.05-.07,2.63-2.81,2.7-2.88l31.87-31.22a.17.17,0,0,0,0-.21c-1.07-1.95-15.14-27.62-15.89-35.89Z" fill="#d9a171"/>
      <path id="Trazado_105801" data-name="Trazado 105801" d="M358.6,221c-.07.2-2.18-.47-4.87-.53s-4.83.45-4.89.24,2.09-1.06,4.92-1A8.59,8.59,0,0,1,358.6,221Z" fill="#344154"/>
      <path id="Trazado_105802" data-name="Trazado 105802" d="M356.6,224.56c-.17.14-1.46-1.29-3.53-2.34s-4-1.31-3.95-1.53,2.07-.27,4.28.89S356.75,224.47,356.6,224.56Z" fill="#344154"/>
      <path id="Trazado_105803" data-name="Trazado 105803" d="M349.31,221.25a2.7,2.7,0,0,1-.35-.59l-.91-1.72-3.24-6.37c-2.72-5.45-6.43-12.89-10.52-21.11A30.11,30.11,0,0,1,330.53,179c-.28-4,.88-7.79,3-10a8.32,8.32,0,0,1,3.47-2.2,7.49,7.49,0,0,1,3.08-.37,6.181,6.181,0,0,1,1.9.48c.21.09.35.19.45.24s.15.09.14.1a7.72,7.72,0,0,0-2.5-.62,7.31,7.31,0,0,0-3,.45,8.14,8.14,0,0,0-3.29,2.19c-2,2.19-3.12,5.84-2.82,9.77a30.26,30.26,0,0,0,3.8,12.21c4.05,8.24,7.71,15.71,10.39,21.18,1.29,2.68,2.34,4.86,3.09,6.44l.82,1.77A4.658,4.658,0,0,1,349.31,221.25Z" fill="#344154"/>
      <g id="Grupo_60073" data-name="Grupo 60073" opacity="0.3">
        <path id="Trazado_105804" data-name="Trazado 105804" d="M331.08,178.71c-1.16,9.75-2,19.61-1.1,29.38.48,5.15,5.93,11.6,10.22,14.49l-1.15-4.43c.63-2.87,2.73-11.94,2.73-11.94s-3.91-7.74-5.47-10.57a39.57,39.57,0,0,1-5.23-16.93"/>
      </g>
      <path id="Trazado_105805" data-name="Trazado 105805" d="M370,212.48a6.707,6.707,0,0,1-.69.64c-.23.19-.53.41-.89.65s-.76.52-1.23.79a24,24,0,0,1-3.42,1.67,27.59,27.59,0,0,1-9.08,1.93,22.063,22.063,0,0,1-3.81-.18,11.753,11.753,0,0,1-1.44-.26,6.592,6.592,0,0,1-1.06-.27,2.769,2.769,0,0,1-.88-.34c0-.09,1.3.3,3.43.5a25.917,25.917,0,0,0,3.74.08,34.5,34.5,0,0,0,4.53-.62,34.063,34.063,0,0,0,4.4-1.29,29.869,29.869,0,0,0,3.41-1.54C368.9,213.25,370,212.41,370,212.48Z" fill="#fafafa"/>
      <path id="Trazado_105806" data-name="Trazado 105806" d="M351.43,246a18.525,18.525,0,0,1-1-2.82,45.413,45.413,0,0,0-2.63-6.66,21.531,21.531,0,0,0-2.07-3.33,12.89,12.89,0,0,0-2.23-2.26c-1.44-1.11-2.52-1.54-2.47-1.63a2.32,2.32,0,0,1,.77.25,11,11,0,0,1,1.92,1.08,11.92,11.92,0,0,1,2.39,2.26,19.62,19.62,0,0,1,2.15,3.39,34.93,34.93,0,0,1,2.52,6.8,15.4,15.4,0,0,1,.65,2.92Z" fill="#fafafa"/>
      <path id="Trazado_105807" data-name="Trazado 105807" d="M339.6,257a10.141,10.141,0,0,1-2.62-1,25,25,0,0,1-10.05-8.79,9.57,9.57,0,0,1-1.3-2.47c.07,0,.6.88,1.61,2.26a29.19,29.19,0,0,0,9.91,8.67A25.173,25.173,0,0,0,339.6,257Z" fill="#fafafa"/>
      <path id="Trazado_105808" data-name="Trazado 105808" d="M350.82,175.25a2.26,2.26,0,0,1-.78.34,12.351,12.351,0,0,1-2.25.48c-1.93.29-4.63.12-7.53.28a14.36,14.36,0,0,0-4,.75,9,9,0,0,0-2.85,1.64,9.131,9.131,0,0,0-1.87,2.41,1.791,1.791,0,0,1,.25-.81,6.149,6.149,0,0,1,1.37-1.87,8.75,8.75,0,0,1,2.93-1.82,14.5,14.5,0,0,1,4.12-.82c3-.16,5.63.06,7.53-.13S350.79,175.15,350.82,175.25Z" fill="#fafafa"/>
      <path id="Trazado_105809" data-name="Trazado 105809" d="M361.15,193.86a1.84,1.84,0,0,1-.44.81,5,5,0,0,1-2,1.47,12.08,12.08,0,0,1-3.62.73,40.4,40.4,0,0,0-4.4.57,36.27,36.27,0,0,0-7.68,2.42c-1.89.84-3,1.49-3,1.42a2.77,2.77,0,0,1,.73-.54,22.893,22.893,0,0,1,2.16-1.21,30.619,30.619,0,0,1,7.73-2.6c3.14-.68,6.1-.37,8-1.14A5.66,5.66,0,0,0,361.15,193.86Z" fill="#fafafa"/>
    </g>
    <g id="freepik--Plant--inject-39">
      <path id="Trazado_105810" data-name="Trazado 105810" d="M114,94.44A15.24,15.24,0,0,1,124.6,100a26.94,26.94,0,0,1,5.29,10.91c2,7.63.65,16.62-1.59,24.18-8.23-3-13.24-11.86-15.5-16.5-3.57-7.35-5.57-22.78,1.26-24.1" fill="#d9a171"/>
      <path id="Trazado_105811" data-name="Trazado 105811" d="M140,144.38a13,13,0,0,1-.5-13,17.21,17.21,0,0,1,10.5-8.25c2-.6,4.36-.84,6.1.35a5.58,5.58,0,0,1,2.09,5.21,11.31,11.31,0,0,1-2.42,5.31c-4.06,5.4-9,9.88-15.71,10.38" fill="#d9a171"/>
      <g id="Grupo_60074" data-name="Grupo 60074" opacity="0.3">
        <path id="Trazado_105812" data-name="Trazado 105812" d="M140,144.38a13,13,0,0,1-.5-13,17.21,17.21,0,0,1,10.5-8.25c2-.6,4.36-.84,6.1.35a5.58,5.58,0,0,1,2.09,5.21,11.31,11.31,0,0,1-2.42,5.31c-4.06,5.4-9,9.88-15.71,10.38" fill="#fff"/>
      </g>
      <path id="Trazado_105813" data-name="Trazado 105813" d="M131.26,152.47a30.34,30.34,0,0,0-23.82-14.13c-2.45-.12-5.37.35-6.41,2.56s.46,4.78,2.16,6.55a25.91,25.91,0,0,0,28.17,5.67" fill="#d9a171"/>
      <g id="Grupo_60075" data-name="Grupo 60075" opacity="0.3">
        <path id="Trazado_105814" data-name="Trazado 105814" d="M131.26,152.47a30.34,30.34,0,0,0-23.82-14.13c-2.45-.12-5.37.35-6.41,2.56s.46,4.78,2.16,6.55a25.91,25.91,0,0,0,28.17,5.67" fill="#fff"/>
      </g>
      <path id="Trazado_105815" data-name="Trazado 105815" d="M140.11,170.58a9,9,0,0,1-.34-1.62c-.18-1.05-.43-2.57-.68-4.45a57.68,57.68,0,0,1-.33-14.85,28.19,28.19,0,0,1,5.5-13.72,18.58,18.58,0,0,1,3.19-3.2,10.132,10.132,0,0,1,1-.72,1.409,1.409,0,0,1,.38-.21,28,28,0,0,0-4.28,4.35,29.08,29.08,0,0,0-5.28,13.57,62.66,62.66,0,0,0,.19,14.74c.21,1.81.38,3.32.51,4.46A11.48,11.48,0,0,1,140.11,170.58Z" fill="#344154"/>
      <path id="Trazado_105816" data-name="Trazado 105816" d="M116.6,106.06a4.65,4.65,0,0,1,.32.63c.21.47.49,1.08.83,1.85.71,1.6,1.71,3.94,2.93,6.84,2.43,5.79,5.68,13.84,9.07,22.81S136,155.35,138,161.31c1,3,1.8,5.39,2.33,7.06.24.8.44,1.45.59,1.94a2.73,2.73,0,0,1,.18.68,3.108,3.108,0,0,1-.28-.65c-.17-.48-.4-1.11-.69-1.9-.6-1.71-1.45-4.09-2.48-7-2.1-5.92-5-14.09-8.42-23.05s-6.59-17-8.93-22.86l-2.78-6.9c-.3-.78-.55-1.41-.74-1.89a3.37,3.37,0,0,1-.18-.68Z" fill="#344154"/>
      <path id="Trazado_105817" data-name="Trazado 105817" d="M111.34,144.66a10.392,10.392,0,0,1,1.58.09,14.141,14.141,0,0,1,1.83.26,22,22,0,0,1,2.41.53l1.38.38c.48.14,1,.34,1.47.51a33.439,33.439,0,0,1,3.15,1.34,34.41,34.41,0,0,1,12.11,9.83c.71,1,1.41,1.89,2,2.82.28.46.57.89.8,1.33l.66,1.28a22.472,22.472,0,0,1,1,2.24,13.468,13.468,0,0,1,.62,1.75,10.191,10.191,0,0,1,.42,1.53c-.12,0-.7-2.15-2.38-5.35-.22-.4-.44-.82-.68-1.25s-.53-.84-.82-1.29c-.62-.95-1.29-1.87-2-2.76A35.76,35.76,0,0,0,123,148.2c-1.08-.5-2.09-1-3.1-1.36-.49-.18-1-.39-1.43-.54l-1.36-.41C113.6,144.9,111.32,144.78,111.34,144.66Z" fill="#344154"/>
      <path id="Trazado_105818" data-name="Trazado 105818" d="M124.45,163.19h29.63v17.34a12.29,12.29,0,0,1-12.29,12.29h-5a12.29,12.29,0,0,1-12.29-12.29V163.19Z" fill="#d9a171"/>
      <path id="Trazado_105819" data-name="Trazado 105819" d="M124.45,163.19h29.63v17.34a12.29,12.29,0,0,1-12.29,12.29h-5a12.29,12.29,0,0,1-12.29-12.29V163.19Z" opacity="0.3"/>
      <path id="Trazado_105820" data-name="Trazado 105820" d="M144.47,163.25a2.77,2.77,0,0,1-.34.88,15.259,15.259,0,0,1-1.32,2.2,17.67,17.67,0,0,1-14.56,7.43,14.561,14.561,0,0,1-2.55-.22,2.92,2.92,0,0,1-.91-.24c0-.09,1.32.17,3.45.1a18.74,18.74,0,0,0,14.28-7.29C143.82,164.45,144.38,163.25,144.47,163.25Z" fill="#fafafa"/>
      <path id="Trazado_105821" data-name="Trazado 105821" d="M153.8,183.25a3.12,3.12,0,0,1-1-.2,11.631,11.631,0,0,1-2.44-1.1A12.59,12.59,0,0,1,145,166.48a12.429,12.429,0,0,1,1.24-2.37,3.22,3.22,0,0,1,.63-.75,26,26,0,0,0-1.52,3.25,12.7,12.7,0,0,0,5.2,15,25.9,25.9,0,0,0,3.25,1.64Z" fill="#fafafa"/>
      <path id="Trazado_105822" data-name="Trazado 105822" d="M146.21,192a18.52,18.52,0,0,0-.62-4.38,13.48,13.48,0,0,0-2.21-4.21A15.24,15.24,0,0,0,139,179.6a16.73,16.73,0,0,0-10.28-2,36.047,36.047,0,0,0-4.35,1,5.181,5.181,0,0,1,1.1-.5,16.149,16.149,0,0,1,3.2-.81,16.35,16.35,0,0,1,10.59,1.89,15.24,15.24,0,0,1,4.5,4,13.43,13.43,0,0,1,2.18,4.4,11.35,11.35,0,0,1,.41,3.28A4.871,4.871,0,0,1,146.21,192Z" fill="#fafafa"/>
    </g>
    <g id="freepik--filing-cabinet--inject-39">
      <rect id="Rectángulo_6335" data-name="Rectángulo 6335" width="93.27" height="270.73" transform="translate(57.16 192.82)" fill="#344154"/>
      <rect id="Rectángulo_6336" data-name="Rectángulo 6336" width="102.12" height="270.73" transform="translate(98.38 192.82)" fill="#455a64"/>
      <rect id="Rectángulo_6337" data-name="Rectángulo 6337" width="91.01" height="55.89" transform="translate(104.93 269.66)" fill="#455a64"/>
      <path id="Trazado_105823" data-name="Trazado 105823" d="M135.6,401.64h31.17v1.41a2.15,2.15,0,0,1-2.1,2.2H137.76a2.15,2.15,0,0,1-2.15-2.15v-1.46Z" fill="#344154"/>
      <path id="Trazado_105824" data-name="Trazado 105824" d="M195.74,401.64v15.07c0,9.73.07,23.72.11,40.85v.2h-.2l-91,.06h-.31V401.5h.24l65.66.06h18.68l-18.8.08-65.5.17.24-.24v55.82l-.26-.26h0l91,.05-.21.21c0-17.08.09-31,.11-40.72,0-4.85,0-8.63.05-11.22v-2.94A3.8,3.8,0,0,0,195.74,401.64Z" fill="#344154"/>
      <rect id="Rectángulo_6338" data-name="Rectángulo 6338" width="27.1" height="7.32" transform="translate(138.46 415.29)" fill="#e0e0e0"/>
      <rect id="Rectángulo_6339" data-name="Rectángulo 6339" width="91.01" height="55.89" transform="translate(104.93 331.87)" fill="#455a64"/>
      <path id="Trazado_105825" data-name="Trazado 105825" d="M135.48,339.12h31.17v1.41a2.15,2.15,0,0,1-2.15,2.15H137.6a2.15,2.15,0,0,1-2.15-2.15v-1.41Z" fill="#344154"/>
      <path id="Trazado_105826" data-name="Trazado 105826" d="M196.6,339.12V343c0,2.58,0,6.34.05,11.17,0,9.73.07,23.72.11,40.85v.2H105.29V338.93h.24l65.66.06,18.74.05h-.08l-18.8.08-65.5.18.24-.25v55.82l-.26-.26h0l91,.05-.21.21c.05-17.08.09-31,.11-40.72V340a3,3,0,0,0,.17-.88Z" fill="#344154"/>
      <rect id="Rectángulo_6340" data-name="Rectángulo 6340" width="27.1" height="7.32" transform="translate(137.52 352.34)" fill="#e0e0e0"/>
      <path id="Trazado_105827" data-name="Trazado 105827" d="M135.81,200.25H167v1.41a2.15,2.15,0,0,1-2.15,2.15H138a2.15,2.15,0,0,1-2.15-2.15v-1.41Z" fill="#344154"/>
      <path id="Trazado_105828" data-name="Trazado 105828" d="M195.94,200.25v3.91c0,2.57,0,6.34.05,11.17,0,9.72.06,23.71.11,40.84v.2h-.21l-91,.05h-.29V200.11h.24l65.65.06h18.7l-18.79.08-65.5.18.24-.24V256l-.26-.26h0l91,.06-.2.2c0-17.08.08-31,.11-40.72,0-4.84,0-8.62.05-11.21v-2.94a2.32,2.32,0,0,1,.1-.88Z" fill="#344154"/>
      <rect id="Rectángulo_6341" data-name="Rectángulo 6341" width="27.1" height="7.32" transform="translate(137.36 212.11)" fill="#e0e0e0"/>
      <path id="Trazado_105829" data-name="Trazado 105829" d="M105.22,287.78v-21a3.28,3.28,0,0,1,3.28-3.28h55.94a3.23,3.23,0,0,1,3.23,3.23h0v21Z" fill="#d9a171"/>
      <path id="Trazado_105830" data-name="Trazado 105830" d="M105.22,287.78v-21a3.28,3.28,0,0,1,3.28-3.28h55.94a3.23,3.23,0,0,1,3.23,3.23h0v21Z" opacity="0.3"/>
      <path id="Trazado_105831" data-name="Trazado 105831" d="M110.94,287.78V269.32a.34.34,0,0,1,.32-.34h56.41v18.8Z" fill="#fafafa"/>
      <path id="Trazado_105832" data-name="Trazado 105832" d="M180.38,265.44l-1.61,22.34H118.06l1.62-20.73c.16-2,1.54-3.52,3.19-3.51l29.53.16h0a2.29,2.29,0,0,1,2-2.47h22.8C179.07,261.25,180.54,263.18,180.38,265.44Z" fill="#d9a171"/>
      <path id="Trazado_105833" data-name="Trazado 105833" d="M130.08,285.61v-21a3.28,3.28,0,0,1,3.28-3.28h55.95a3.23,3.23,0,0,1,3.23,3.23h0v21.06Z" fill="#d9a171"/>
      <path id="Trazado_105834" data-name="Trazado 105834" d="M130.08,285.61v-21a3.28,3.28,0,0,1,3.28-3.28h55.95a3.23,3.23,0,0,1,3.23,3.23h0v21.06Z" opacity="0.3"/>
      <path id="Trazado_105835" data-name="Trazado 105835" d="M135.81,285.61V267.14a.32.32,0,0,1,.31-.33h56.42v18.8Z" fill="#fafafa"/>
      <path id="Trazado_105836" data-name="Trazado 105836" d="M205.25,263.25l-1.65,22.36H142.92l1.68-20.74a3.5,3.5,0,0,1,3.19-3.5l29.53.15h0a2.29,2.29,0,0,1,2-2.47h22.77C203.94,259.05,205.41,261,205.25,263.25Z" fill="#d9a171"/>
      <path id="Trazado_105837" data-name="Trazado 105837" d="M164.68,286.82v-21a3.28,3.28,0,0,1,3.27-3.29h56a3.23,3.23,0,0,1,3.23,3.23h0v21.05Z" fill="#d9a171"/>
      <path id="Trazado_105838" data-name="Trazado 105838" d="M164.68,286.82v-21a3.28,3.28,0,0,1,3.27-3.29h56a3.23,3.23,0,0,1,3.23,3.23h0v21.05Z" opacity="0.3"/>
      <path id="Trazado_105839" data-name="Trazado 105839" d="M170.41,286.82V268.36a.32.32,0,0,1,.31-.34h56.41v18.8Z" fill="#fafafa"/>
      <rect id="Rectángulo_6342" data-name="Rectángulo 6342" width="57.22" height="33.54" transform="translate(173.25 263.21)" fill="#e0e0e0"/>
      <rect id="Rectángulo_6343" data-name="Rectángulo 6343" width="57.66" height="35.76" transform="translate(177.52 248.32)" fill="#f5f5f5"/>
      <path id="Trazado_105840" data-name="Trazado 105840" d="M188,281.82c-.15,0-.26-6.18-.26-13.8s.11-13.8.26-13.8.26,6.18.26,13.8S188.17,281.82,188,281.82Z" fill="#344154"/>
      <path id="Trazado_105841" data-name="Trazado 105841" d="M192.12,281.82c-.14,0-.26-6.18-.26-13.8s.12-13.8.26-13.8.26,6.18.26,13.8S192.27,281.82,192.12,281.82Z" fill="#344154"/>
      <path id="Trazado_105842" data-name="Trazado 105842" d="M196.6,281.82c-.15,0-.26-6.18-.26-13.8s.11-13.8.26-13.8.26,6.18.26,13.8S196.73,281.82,196.6,281.82Z" fill="#344154"/>
      <path id="Trazado_105843" data-name="Trazado 105843" d="M201.05,281.82c-.14,0-.26-6.18-.26-13.8s.12-13.8.26-13.8.26,6.18.26,13.8S201.19,281.82,201.05,281.82Z" fill="#344154"/>
      <path id="Trazado_105844" data-name="Trazado 105844" d="M205.51,281.82c-.14,0-.26-6.18-.26-13.8s.12-13.8.26-13.8.26,6.18.26,13.8S205.66,281.82,205.51,281.82Z" fill="#344154"/>
      <path id="Trazado_105845" data-name="Trazado 105845" d="M210,281.82c-.15,0-.26-6.18-.26-13.8s.11-13.8.26-13.8.26,6.18.26,13.8S210.12,281.82,210,281.82Z" fill="#344154"/>
      <path id="Trazado_105846" data-name="Trazado 105846" d="M214.44,281.82c-.14,0-.26-6.18-.26-13.8s.12-13.8.26-13.8.26,6.18.26,13.8S214.6,281.82,214.44,281.82Z" fill="#344154"/>
      <path id="Trazado_105847" data-name="Trazado 105847" d="M218.9,281.82c-.14,0-.26-6.18-.26-13.8s.12-13.8.26-13.8.26,6.18.26,13.8S219.05,281.82,218.9,281.82Z" fill="#344154"/>
      <path id="Trazado_105848" data-name="Trazado 105848" d="M223.37,281.82c-.15,0-.27-6.18-.27-13.8s.12-13.8.27-13.8.26,6.18.26,13.8S223.51,281.82,223.37,281.82Z" fill="#344154"/>
      <path id="Trazado_105849" data-name="Trazado 105849" d="M227.83,281.82c-.15,0-.26-6.18-.26-13.8s.11-13.8.26-13.8.26,6.18.26,13.8S228,281.82,227.83,281.82Z" fill="#344154"/>
      <path id="Trazado_105850" data-name="Trazado 105850" d="M239.84,268.43l-1.6,18.39H177.52l1.63-17.07a3.19,3.19,0,0,1,3.18-2.89l29.54.13h0a2,2,0,0,1,2-2h22.77a3.18,3.18,0,0,1,3.21,3.15A2.808,2.808,0,0,1,239.84,268.43Z" fill="#d9a171"/>
      <rect id="Rectángulo_6344" data-name="Rectángulo 6344" width="91.01" height="55.89" transform="translate(104.7 276.6)" fill="#344154"/>
      <rect id="Rectángulo_6345" data-name="Rectángulo 6345" width="91.01" height="55.89" transform="translate(159.77 276.6)" fill="#455a64"/>
      <path id="Trazado_105851" data-name="Trazado 105851" d="M250.78,332.25v-15c0-9.62-.07-23.46-.11-40.42l.2.21-91,.05h0l.26-.26V332.3l-.24-.24,65.46.12,18.79.06h.05l-18.74.07-65.62.11h-.24v-55.9h.27l91,.06h.21v.2c0,17-.09,30.89-.11,40.54,0,4.79,0,8.53-.05,11.08v2.88A9.2,9.2,0,0,0,250.78,332.25Z" fill="#344154"/>
      <path id="Trazado_105852" data-name="Trazado 105852" d="M192.52,276.6h31.17v1.23a2.15,2.15,0,0,1-2.15,2.15H194.67a2.15,2.15,0,0,1-2.15-2.15Z" fill="#344154"/>
      <rect id="Rectángulo_6346" data-name="Rectángulo 6346" width="27.1" height="7.32" transform="translate(195.14 289.13)" fill="#e0e0e0"/>
      <path id="Trazado_105853" data-name="Trazado 105853" d="M221.11,241.77a55.448,55.448,0,0,0-1.51,10.65c0,.46,0,1,.4,1.25s1-.44,1.33-.85c.64-.73,3-4.82,3-4.82a6.79,6.79,0,0,0,6.17-6.59" fill="#ffbe9d"/>
      <path id="Trazado_105854" data-name="Trazado 105854" d="M230.47,241.41a3.05,3.05,0,0,1,0,.74,6.34,6.34,0,0,1-.51,2,6.82,6.82,0,0,1-1.92,2.53,7.55,7.55,0,0,1-3.73,1.56l.18-.12c-.75,1.3-1.58,2.72-2.52,4.16-.15.21-.28.42-.46.64s-.31.38-.5.58a1.42,1.42,0,0,1-.75.47.81.81,0,0,1-.83-.5,3.14,3.14,0,0,1-.12-1.52c0-.46.06-.91.1-1.35a45.733,45.733,0,0,1,.63-4.66c.24-1.31.49-2.36.69-3.08a4.3,4.3,0,0,1,.36-1.1,4.83,4.83,0,0,1-.17,1.14c-.13.74-.33,1.79-.52,3.11s-.39,2.88-.51,4.62L219.8,252a3,3,0,0,0,.09,1.26c.07.16.21.25.29.23a1.09,1.09,0,0,0,.46-.33l.47-.56c.15-.19.29-.39.42-.59.93-1.42,1.77-2.84,2.54-4.12l.06-.11h.12a7.12,7.12,0,0,0,3.53-1.4,6.5,6.5,0,0,0,1.9-2.33,11.47,11.47,0,0,0,.79-2.64Z" fill="#eb996e"/>
    </g>
  </g>
</svg>
