<?xml version="1.0" encoding="utf-8"?>
<!-- Generator: Adobe Illustrator 25.3.1, SVG Export Plug-In . SVG Version: 6.00 Build 0)  -->
<svg version="1.1" id="Capa_2" xmlns="http://www.w3.org/2000/svg" xmlns:xlink="http://www.w3.org/1999/xlink" x="0px" y="0px"
	 viewBox="0 0 500 410" style="enable-background:new 0 0 500 410;" xml:space="preserve">
<style type="text/css">
	.st0{fill:#F5F5F5;}
	.st1{fill:#EBEBEB;}
	.st2{fill:#F0F0F0;}
	.st3{fill:#E6E6E6;}
	.st4{fill:#FAFAFA;}
	.st5{fill:#FFFFFF;}
	.st6{fill:#E0E0E0;}
	.st7{opacity:0.5;fill:#EBEBEB;enable-background:new    ;}
	.st8{fill:#D9A171;}
	.st9{opacity:0.2;fill:#D9A171;enable-background:new    ;}
	.st10{opacity:0.6;fill:#D9A171;enable-background:new    ;}
	.st11{opacity:0.3;}
	.st12{fill:#344154;}
	.st13{fill:#FFC3BD;}
	.st14{opacity:0.2;enable-background:new    ;}
	.st15{opacity:0.2;}
	.st16{fill:#ED847E;}
	.st17{opacity:0.8;fill:#FFFFFF;enable-background:new    ;}
	.st18{opacity:0.3;fill:#D9A171;enable-background:new    ;}
	.st19{opacity:0.2;fill:#FFFFFF;enable-background:new    ;}
	.st20{opacity:0.4;fill:#FFFFFF;enable-background:new    ;}
	.st21{opacity:0.8;fill:#D9A171;enable-background:new    ;}
	.st22{fill:#A02724;}
	.st23{fill:#B55B52;}
	.st24{opacity:0.5;fill:#FFFFFF;enable-background:new    ;}
	.st25{opacity:0.6;fill:#FFFFFF;enable-background:new    ;}
	.st26{opacity:0.7;fill:#FFFFFF;enable-background:new    ;}
</style>
<g>
	<g id="freepik--Shadow--inject-12">
		<ellipse id="freepik--path--inject-12" class="st0" cx="245.2" cy="373.9" rx="193.9" ry="11.3"/>
	</g>
	<g id="freepik--background-complete--inject-12">
		<rect id="Rectángulo_6727" y="351.8" class="st1" width="500" height="0.2"/>
		<rect id="Rectángulo_6728" x="290.2" y="358.6" class="st1" width="25.5" height="0.2"/>
		<rect id="Rectángulo_6729" x="395.1" y="364" class="st1" width="60.3" height="0.2"/>
		<rect id="Rectángulo_6730" x="222.5" y="358.7" class="st1" width="62.3" height="0.2"/>
		<rect id="Rectángulo_6731" x="169" y="366.2" class="st1" width="13" height="0.2"/>
		<rect id="Rectángulo_6732" x="194.7" y="366.2" class="st1" width="59.4" height="0.2"/>
		<rect id="Rectángulo_6733" x="52.5" y="362" class="st1" width="38.5" height="0.2"/>
		<path id="Trazado_107632" class="st1" d="M237,307.2H43.9c-3.1,0-5.7-2.6-5.7-5.7V30c0-3.1,2.6-5.7,5.7-5.7H237
			c3.2,0,5.7,2.6,5.7,5.7v0l0,0v271.4C242.7,304.6,240.2,307.2,237,307.2z M43.9,24.6c-3,0-5.4,2.4-5.5,5.4v271.5
			c0,3,2.4,5.5,5.5,5.5H237c3,0,5.4-2.4,5.5-5.5V30c0-3-2.5-5.4-5.5-5.4H43.9z"/>
		<path id="Trazado_107633" class="st1" d="M453.3,307.2H260.2c-3.1,0-5.7-2.6-5.7-5.7V30c0-3.1,2.6-5.7,5.7-5.7h193.1
			c3.1,0,5.7,2.5,5.7,5.7v271.5C459,304.6,456.5,307.2,453.3,307.2L453.3,307.2z M260.2,24.6c-3,0-5.4,2.4-5.5,5.4v271.5
			c0,3,2.4,5.4,5.5,5.5h193.1c3,0,5.4-2.4,5.5-5.5V30c0-3-2.4-5.4-5.5-5.5L260.2,24.6z"/>
		<path id="Trazado_107634" class="st2" d="M120.6,226c0,0-0.4,13-17.6,13s-17.6-13-17.6-13H120.6z"/>
		<path id="Trazado_107635" class="st2" d="M162.3,226c0,0-0.4,13-17.6,13S127,226,127,226H162.3z"/>
		<rect id="Rectángulo_6734" x="71.3" y="247.5" class="st2" width="39.4" height="95.4"/>
		<rect id="Rectángulo_6735" x="78.9" y="342.9" class="st2" width="127.5" height="8.9"/>
		<rect id="Rectángulo_6736" x="110.8" y="247.5" class="st0" width="103.2" height="95.4"/>
		<rect id="Rectángulo_6737" x="126.3" y="259.1" class="st2" width="72.2" height="29.4"/>
		<rect id="Rectángulo_6738" x="126.3" y="296.9" class="st2" width="72.2" height="29.4"/>
		<rect id="Rectángulo_6739" x="110.8" y="239" class="st2" width="108.5" height="8.6"/>
		<rect id="Rectángulo_6740" x="65.8" y="239" class="st3" width="44.9" height="8.6"/>
		<rect id="Rectángulo_6741" x="191.1" y="45.3" class="st4" width="200.9" height="144.3"/>
		<path id="Trazado_107636" class="st5" d="M202.6,189.6l51.1-144.3h38.4l-51.1,144.3H202.6z"/>
		<path id="Trazado_107637" class="st5" d="M305.7,189.6l51.1-144.3h14l-51.1,144.3H305.7z"/>
		<path id="Trazado_107638" class="st6" d="M401.7,40.4H181.6c-0.5,0-0.9,0.4-0.9,0.9l0,0c0,0.5,0.4,0.9,0.9,0.9h220.1
			c0.5,0,0.9-0.4,0.9-0.9l0,0C402.6,40.8,402.2,40.4,401.7,40.4z"/>
		<rect id="Rectángulo_6742" x="290.4" y="45" class="st2" width="2.4" height="144.9"/>
		<rect id="Rectángulo_6743" x="292.8" y="45" class="st6" width="1.2" height="144.9"/>
		<rect id="Rectángulo_6744" x="189.8" y="116.3" class="st2" width="203.7" height="2.4"/>
		<path id="Trazado_107639" class="st2" d="M393.5,188.6L393.5,188.6V44H189.8v144.6l0,0v2.4h203.7V188.6z M192.1,188.6V46.4h199
			v142.2H192.1z"/>
		<rect id="Rectángulo_6745" x="393.5" y="43.9" class="st6" width="1.2" height="147"/>
		<path id="Trazado_107640" class="st7" d="M364,38.2v169.4h43l-7.9-169.4H364z"/>
		<path id="Trazado_107641" class="st7" d="M220.5,38.2v169.4h-43l7.9-169.4H220.5z"/>
		<rect id="Rectángulo_6746" x="247.9" y="230" class="st1" width="211.2" height="34.8"/>
		<rect id="Rectángulo_6747" x="378.8" y="232.1" class="st0" width="77.7" height="30.7"/>
		<rect id="Rectángulo_6748" x="298.4" y="232.1" class="st0" width="77.7" height="30.7"/>
		<path id="Trazado_107642" class="st0" d="M290.7,351.8h-4.7l10-86.9h4.7L290.7,351.8z"/>
		<path id="Trazado_107643" class="st0" d="M249.7,351.8H245l10-86.9h4.7L249.7,351.8z"/>
		<path id="Trazado_107644" class="st0" d="M416.2,351.8h4.7l-10-86.9h-4.7L416.2,351.8z"/>
		<path id="Trazado_107645" class="st0" d="M457.3,351.8h4.7l-10-86.9h-4.7L457.3,351.8z"/>
		<path id="Trazado_107646" class="st6" d="M349.8,191.7h-16.3l-6.8,38.3H343L349.8,191.7z"/>
		<path id="Trazado_107647" class="st3" d="M386.1,158.4h-91.3l2.8,55.6h91.3L386.1,158.4z"/>
		<path id="Trazado_107648" class="st4" d="M384,159.7h-87l2.6,52.9h87L384,159.7z"/>
		<path id="Rectángulo_6749" class="st6" d="M409.1,223.9h1.8c0.4,0,0.7,0.3,0.7,0.7v0c0,0.4-0.3,0.7-0.7,0.7h-1.8
			c-0.4,0-0.7-0.3-0.7-0.7v0C408.4,224.3,408.7,223.9,409.1,223.9z"/>
		<path id="Trazado_107649" class="st3" d="M443.9,161.1l-19.8,19.8c-5.5-5.5-5.5-14.3,0-19.8C429.6,155.7,438.4,155.7,443.9,161.1z
			"/>
		<path id="Trazado_107650" class="st3" d="M416.4,163.4l7.7,7.7l10-10l-7.7-7.7c-2.8-2.8-7.2-2.8-10,0c0,0,0,0,0,0l0,0
			C413.6,156.1,413.6,160.6,416.4,163.4C416.4,163.4,416.4,163.4,416.4,163.4L416.4,163.4z"/>
		
			<rect id="Rectángulo_6750" x="376" y="168.3" transform="matrix(0.7071 -0.7071 0.7071 0.7071 -2.6405 331.9129)" class="st3" width="46.6" height="1.7"/>
		
			<rect id="Rectángulo_6751" x="393.8" y="182.5" transform="matrix(0.8601 -0.5101 0.5101 0.8601 -49.798 230.0626)" class="st3" width="1.7" height="46.6"/>
		<circle id="Elipse_4090" class="st3" cx="416.4" cy="153.4" r="2.9"/>
		<circle id="Elipse_4091" class="st3" cx="382.8" cy="185.7" r="1.8"/>
		<path id="Trazado_107651" class="st3" d="M399.2,224.7h13.6l1.1,5.4h-15.7L399.2,224.7z"/>
	</g>
	<g id="freepik--Board--inject-12">
		<path id="Trazado_107652" class="st8" d="M343.3,221.2H104.8c-6.7-0.1-12.1-5.4-12.3-12L89.3,74.1c-0.2-6.5,4.9-11.8,11.4-12
			h238.9c6.7,0.1,12.1,5.4,12.3,12l3.1,135.1c0.2,6.5-4.9,11.8-11.4,12L343.3,221.2z"/>
		<path id="Trazado_107653" class="st8" d="M343.3,221.7H104.8c-6.9-0.1-12.6-5.6-12.8-12.5L88.8,74.1c-0.2-6.7,5.1-12.3,11.9-12.5
			h238.9c6.9,0,12.6,5.5,12.8,12.5l3.1,135.1c0.2,6.7-5.1,12.3-11.9,12.5L343.3,221.7z M101.1,62.6c-6.2,0-11.2,5-11.2,11.1
			c0,0,0,0,0,0V74L93,209.2c0.2,6.4,5.4,11.5,11.8,11.5h238.5c6.2,0,11.2-5,11.2-11.2c0,0,0,0,0,0v-0.3l-3.1-135.1
			c-0.2-6.4-5.4-11.5-11.8-11.5L101.1,62.6z"/>
		<path id="Trazado_107654" class="st0" d="M345.3,221.2H106.8c-6.7-0.1-12.1-5.4-12.3-12L91.3,74.1c-0.2-6.5,4.9-11.8,11.4-12
			h238.9c6.7,0.1,12.1,5.4,12.3,12l3.1,135.1c0.2,6.5-4.9,11.8-11.4,12L345.3,221.2z"/>
		<path id="Trazado_107655" class="st8" d="M345.3,221.7H106.8c-6.9-0.1-12.6-5.6-12.8-12.5L90.8,74.1c-0.2-6.7,5.1-12.3,11.9-12.5
			h238.9c6.9,0,12.6,5.5,12.8,12.5l3.1,135.1c0.2,6.7-5.1,12.3-11.9,12.5L345.3,221.7z M103.1,62.6c-6.2,0-11.2,5-11.2,11.1
			c0,0,0,0,0,0V74L95,209.2c0.2,6.4,5.4,11.5,11.8,11.5h238.5c6.2,0,11.2-5,11.2-11.2c0,0,0,0,0,0v-0.3l-3.1-135.1
			c-0.2-6.4-5.4-11.5-11.8-11.5L103.1,62.6z"/>
		<path id="Trazado_107656" class="st6" d="M138.2,99.9l-16.1-15c7.6-8.2,21.2-8.2,30,0c2.8,2.6,4.9,5.9,6.2,9.5L138.2,99.9z"/>
		<path id="Trazado_107657" class="st9" d="M134.9,100.2l-21,1.9c-0.5-3-0.3-6.2,0.5-9.1c0.8-2.9,2.3-5.5,4.4-7.8L134.9,100.2z"/>
		<path id="Trazado_107658" class="st5" d="M138.2,101.4L126.6,114c-1.6-1.5-2.9-3.2-3.9-5.1c-1-1.9-1.7-3.9-2-6L138.2,101.4z"/>
		<path id="Trazado_107659" class="st10" d="M139.4,103.1l20.1-5.5c2.5,7.1,1,14.9-4,20.5c-7.6,8.2-21.2,8.2-30,0L139.4,103.1z"/>
		<path id="Trazado_107660" class="st9" d="M193.5,99.9l-16.1-15c7.6-8.2,21.2-8.2,30,0c2.8,2.6,4.9,5.9,6.2,9.5L193.5,99.9z"/>
		<path id="Trazado_107661" class="st6" d="M190.1,100.2l-21,1.9c-0.5-3-0.3-6.2,0.5-9.1c0.8-2.9,2.3-5.5,4.4-7.8L190.1,100.2z"/>
		<path id="Trazado_107662" class="st10" d="M193.5,101.4L181.8,114c-1.6-1.5-2.9-3.2-3.9-5.1c-1-1.9-1.7-3.9-2-6L193.5,101.4z"/>
		<path id="Trazado_107663" class="st5" d="M194.6,103.1l20.1-5.5c2.6,7.1,1,14.9-4,20.5c-7.6,8.2-21.2,8.2-30,0L194.6,103.1z"/>
		<g id="Grupo_60152" class="st11">
			<path id="Trazado_107664" class="st8" d="M106.9,201.8L106.9,201.8c-0.3,0-0.5-0.3-0.5-0.6c1.1-11.8,8.4-23.1,19.5-30.2
				c9.6-6.2,21.8-9.3,35.4-9c3.5,0.1,7,0.4,10.4,0.6c5.2,0.5,10.4,0.7,15.7,0.5c5.9-0.4,16.6-2.1,22.8-10.2c2.1-3,3.8-6.3,5-9.7
				c1.7-4,3.4-8.2,6.4-11.4c4.1-4.3,10.4-6.7,18.6-7.3c4.3-0.2,8.6-0.2,12.9,0.1c3.7,0.2,7.5,0.4,11.3,0.2c6.6-0.3,15.8-1.9,21.7-8
				c2.7-2.8,4.6-6.4,6.5-9.8c1-1.8,2-3.7,3.1-5.4c3.8-6,9.1-10.9,15.3-14.3c0.2-0.1,0.5,0,0.7,0.2l0,0c0.1,0.2,0,0.5-0.2,0.7
				c-6.1,3.3-11.3,8.1-15,14c-1.1,1.7-2.1,3.6-3,5.4c-1.9,3.5-3.8,7.2-6.6,10.1c-4.9,5-12.7,7.9-22.4,8.3c-3.8,0.1-7.6,0-11.3-0.2
				c-4.2-0.3-8.5-0.3-12.8-0.1c-8,0.5-14.1,2.9-18,7c-2.9,3.1-4.6,7.2-6.2,11.1c-1.3,3.5-3,6.8-5.1,9.9
				c-6.4,8.4-17.5,10.3-23.5,10.6c-5.3,0.2-10.6,0-15.8-0.6c-3.4-0.3-6.9-0.6-10.4-0.6c-13.3-0.3-25.4,2.8-34.8,8.9
				c-10.8,7-18,18-19.1,29.4C107.3,201.6,107.1,201.7,106.9,201.8L106.9,201.8z"/>
			<path id="Trazado_107665" class="st8" d="M313.1,92.3L313.1,92.3c-0.4-0.1-0.5-0.3-0.4-0.6l1.1-4.2c0.1-0.5,0.3-1,0.5-1.4
				c0,0,0-0.1,0-0.1c-3.2,0.1-6.3,0.5-9.4,1.2c-0.3,0.1-0.5-0.1-0.6-0.4c0,0,0,0,0,0l0,0c-0.1-0.3,0.1-0.5,0.4-0.6c0,0,0,0,0,0l0,0
				c3.1-0.7,6.3-1.1,9.5-1.2c0.4,0,0.7,0.2,0.9,0.5c0.2,0.3,0.3,0.7,0.1,1.1c-0.2,0.4-0.3,0.8-0.4,1.3l-1.1,4.2
				C313.5,92.2,313.3,92.3,313.1,92.3z"/>
		</g>
	</g>
	<g id="freepik--character-2--inject-12">
		<path id="Trazado_107666" class="st12" d="M354.4,81.3c0,0-14-6.1-18.1,11.2c-3.3,13.9-10.3,19.2-10.3,19.2s24.8,9.6,38.5-1.6
			L354.4,81.3z"/>
		<path id="Trazado_107667" class="st13" d="M338.2,139.6c-0.5,1.4-1,2.6-1.5,3.8s-1.1,2.4-1.7,3.6c-1.1,2.4-2.5,4.7-3.8,7
			c-2.7,4.7-5.8,9-9.3,13.1l-0.7,0.8c-0.2,0.3-0.4,0.4-0.9,0.9c-0.9,0.9-2.1,1.6-3.3,2c-1.2,0.3-2.4,0.4-3.5,0.2
			c-0.9-0.2-1.9-0.4-2.7-0.8c-1.4-0.6-2.8-1.4-4-2.4c-1.1-0.9-2.2-1.8-3.2-2.8c-3.8-3.8-7.1-8-9.9-12.5l3.5-2.7
			c3.4,3.6,7,6.9,10.9,10c1.7,1.4,3.5,2.5,5.5,3.2c0.8,0.3,1.4,0.1,1.2,0.1s-0.1,0-0.1,0c0.1-0.2,0.3-0.3,0.4-0.5l0.5-0.7
			c2.9-3.9,5.6-8,7.9-12.3c1.2-2.2,2.3-4.4,3.4-6.6c0.5-1.1,1-2.2,1.5-3.3s1-2.3,1.4-3.3L338.2,139.6z"/>
		<path id="Trazado_107668" class="st12" d="M335.3,127.5C331.6,127.4,325,141,325,141l9.7,11.8c0,0,11.3-14.2,9.8-18.8
			C342.9,129.1,340.8,127.7,335.3,127.5z"/>
		<path id="Trazado_107669" class="st14" d="M334.7,130.8l-5.1,15.9l4.6,5.5L334.7,130.8z"/>
		<path id="Trazado_107670" class="st13" d="M296.4,154.2l-10.4-2.6l7-5.5c0,0,5.2,2.2,5.5,5.8L296.4,154.2z"/>
		<path id="Trazado_107671" class="st13" d="M281.1,147.1l5.4-4l6.4,2.9l-7,5.5L281.1,147.1z"/>
		<path id="Trazado_107672" class="st13" d="M361.7,371.6H353l0.4-20.3h8.8L361.7,371.6z"/>
		<path id="Trazado_107673" class="st12" d="M352.1,370.6h9.9c0.4,0,0.6,0.3,0.7,0.6l1.1,7.8c0.1,0.8-0.5,1.5-1.2,1.5h-0.2
			c-3.4-0.1-5.1-0.3-9.4-0.3c-2.7,0-10.3,0.3-14,0.3s-3.9-3.6-2.4-4c6.9-1.5,11.7-3.5,14.1-5.5C351.1,370.8,351.6,370.6,352.1,370.6
			z"/>
		<g id="Grupo_60153" class="st15">
			<path id="Trazado_107674" d="M353.4,351.3l-0.2,10.5h8.8l0.2-10.5H353.4z"/>
		</g>
		<path id="Trazado_107675" class="st12" d="M331.8,131.9c-0.2,5.6,0.8,18.5,6.6,48.7l35.7-1.1c-1-14.5-1.3-23.4,4.7-53.4
			c-5-0.9-10.1-1.4-15.2-1.6c-5.4-0.2-10.8-0.1-16.2,0.5c-4.1,0.5-8.6,1.4-11.5,2C333.6,127.5,331.9,129.5,331.8,131.9z"/>
		<path id="Trazado_107676" class="st13" d="M361.5,106.4c-0.9,5.2-1.6,14.8,2.1,18.2c-2.8,4.4-7.3,7.6-12.4,8.8
			c-8.2-4.2-3.8-8.4-3.8-8.4c5.8-1.6,5.5-5.9,4.4-9.9L361.5,106.4z"/>
		<path id="Trazado_107677" class="st6" d="M351.2,133.4l1.1-2.1l5.7,1.3L351.2,133.4z"/>
		<path id="Trazado_107678" class="st5" d="M352.3,131.3c1.8-0.8,10.3-6.4,10.6-8.1c0.7,0.7,4.3,0.9,4.3,0.9s-2.1,9.9-6.3,17.1
			C358,134.8,355.4,133.3,352.3,131.3z"/>
		<path id="Trazado_107679" class="st6" d="M351.2,133.4l-0.5-2.1l-3.5,0.2L351.2,133.4z"/>
		<path id="Trazado_107680" class="st5" d="M350.8,131.3c-2.8-1.9-2.1-5.8-1.9-7.5c-0.7,0.7-4.3,0.9-4.3,0.9s-5.1,9.3-0.9,16.5
			C345.7,136.1,347.7,133.3,350.8,131.3z"/>
		<path id="Trazado_107681" class="st14" d="M357.5,110l-5.7,5.2c0.3,0.9,0.5,1.9,0.6,2.9c2.2-0.4,5.2-2.9,5.4-5.2
			C357.8,111.9,357.7,110.9,357.5,110z"/>
		<path id="Trazado_107682" class="st13" d="M364.3,94.4c-0.1,8.7,0,12.4-4.1,17.1c-6.3,7-17,5-19.5-3.6c-2.2-7.7-1.7-20.7,6.6-24.6
			c5.9-2.8,13-0.2,15.8,5.7C364,90.7,364.3,92.5,364.3,94.4L364.3,94.4z"/>
		<path id="Trazado_107683" class="st5" d="M363.6,98.6L363.6,98.6L352.6,98c-0.1,0-0.2-0.1-0.2-0.3c0,0,0,0,0,0l0,0
			c0-0.1,0.1-0.2,0.3-0.2c0,0,0,0,0,0l0,0l11,0.5c0.1,0,0.2,0.1,0.2,0.3c0,0,0,0,0,0l0,0C363.8,98.4,363.7,98.5,363.6,98.6
			C363.6,98.5,363.6,98.5,363.6,98.6L363.6,98.6z"/>
		<path id="Trazado_107684" class="st12" d="M338.4,180.6c0,0,4.5,65.2,7,91.9c2.6,27.8,6,87.2,6,87.2h11.9c0,0,2.5-60.5,1.5-87.9
			c-1-29.8-0.4-92.1-0.4-92.1L338.4,180.6z"/>
		<path id="Trazado_107685" class="st8" d="M364.4,360.1h-13.9l-1-4.4l15.6-0.5L364.4,360.1z"/>
		<path id="Trazado_107686" class="st14" d="M364.4,203.1c-1.4-1.6-3-0.8-4.8,3.8c-5.9,15.6,0.4,40.4,5,54.7
			C364.3,243.8,364.3,220.4,364.4,203.1z"/>
		<path id="Trazado_107687" class="st12" d="M350,98.1c0,0.7-0.3,1.3-0.8,1.3s-0.9-0.5-0.9-1.2s0.3-1.3,0.8-1.3S350,97.4,350,98.1z"
			/>
		<path id="Trazado_107688" class="st12" d="M342,98.4c0,0.7-0.3,1.3-0.8,1.3s-0.9-0.5-0.9-1.2s0.3-1.3,0.8-1.3S342,97.6,342,98.4z"
			/>
		<path id="Trazado_107689" class="st12" d="M341.3,97.1l-1.7-0.4C339.6,96.7,340.5,98,341.3,97.1z"/>
		<path id="Trazado_107690" class="st16" d="M345.1,98.9c-0.5,1.6-1.3,3.2-2.3,4.6c0.8,0.5,1.7,0.6,2.5,0.4L345.1,98.9z"/>
		<path id="Trazado_107691" class="st12" d="M349.3,106.5c-0.3,0.1-0.7,0.1-1,0.1c-0.1,0-0.2-0.1-0.2-0.2c0,0,0,0,0,0l0,0
			c0-0.1,0.1-0.2,0.2-0.2c1.8,0,3.5-0.9,4.5-2.4c0.1-0.1,0.2-0.1,0.3-0.1c0,0,0,0,0,0l0,0c0.1,0,0.1,0.2,0.1,0.3c0,0,0,0,0,0l0,0
			C352.2,105.3,350.9,106.2,349.3,106.5L349.3,106.5z"/>
		<path id="Trazado_107692" class="st13" d="M367,102.2c-0.5,1.6-1.6,2.9-3.1,3.7c-2,1-3.4-0.7-3.2-2.8c0.2-1.9,1.4-4.7,3.6-4.8
			c1.6-0.1,2.9,1.1,3,2.7c0,0,0,0,0,0C367.2,101.5,367.2,101.9,367,102.2z"/>
		<path id="Trazado_107693" class="st12" d="M353.1,95.7c-0.2,0-0.4,0-0.4-0.2c-1-1.7-3.4-1.9-3.4-1.9c-0.2,0-0.4-0.2-0.4-0.5
			c0-0.2,0.2-0.4,0.4-0.4c0.1,0,2.9,0.3,4.1,2.4c0.1,0.2,0.1,0.4-0.1,0.6c0,0,0,0,0,0l0,0L353.1,95.7z"/>
		<path id="Trazado_107694" class="st12" d="M339.4,94.3c-0.2,0-0.5-0.1-0.5-0.3c0-0.1,0-0.3,0.1-0.4l0,0c1-0.9,2.3-1.3,3.6-1.1
			c0.2,0.1,0.4,0.3,0.3,0.5c-0.1,0.2-0.3,0.4-0.5,0.3l0,0c-1-0.2-2.1,0.1-2.9,0.9C339.5,94.3,339.5,94.3,339.4,94.3L339.4,94.3z"/>
		<path id="Trazado_107695" class="st13" d="M383.2,136.2c1.2,4.7,2.4,9.4,3.6,14.1s2.6,9.4,4.1,13.9s3.4,9,5.1,13.6
			s3.5,9.2,5.1,13.9l-4,1.9c-2.6-4.2-5-8.6-7.4-12.9c-1.2-2.2-2.3-4.4-3.4-6.6c-1.1-2.2-2.2-4.6-3.1-7c-1.9-4.7-3.5-9.5-4.9-14.3
			s-2.7-9.6-3.8-14.5L383.2,136.2z"/>
		<path id="Trazado_107696" class="st12" d="M378.8,126.1c3.6,1,8.3,13.1,8.3,13.1l-13.6,10.3c0,0-5.4-10.1-4-14.8
			C370.9,129.9,374.7,125,378.8,126.1z"/>
		<path id="Trazado_107697" class="st8" d="M348.8,372.1c-0.8,0.1-1.5-0.1-2.1-0.5c-0.3-0.3-0.4-0.6-0.4-1c0-0.2,0.2-0.4,0.4-0.5
			c1.1-0.6,4.6,1.2,5,1.4c0.1,0,0.1,0.1,0.1,0.2c0,0.1-0.1,0.2-0.2,0.2C350.7,372,349.7,372.1,348.8,372.1z M347.2,370.3
			c-0.1,0-0.3,0-0.4,0.1c-0.1,0-0.1,0.1-0.1,0.2c0,0.2,0.1,0.5,0.2,0.7c0.5,0.5,2,0.6,3.9,0.2C349.7,370.9,348.5,370.5,347.2,370.3
			L347.2,370.3z"/>
		<path id="Trazado_107698" class="st8" d="M351.5,371.8L351.5,371.8c-1.1-0.5-3.2-2.4-3.1-3.4c0-0.2,0.2-0.5,0.8-0.6
			c0.4-0.1,0.8,0.1,1.2,0.4c1.1,0.9,1.3,3.3,1.3,3.4C351.7,371.7,351.7,371.8,351.5,371.8L351.5,371.8z M349.4,368.3h-0.1
			c-0.4,0-0.4,0.2-0.4,0.2c-0.1,0.6,1.3,2.1,2.4,2.7c-0.1-1-0.5-1.9-1.1-2.7C350,368.4,349.7,368.3,349.4,368.3z"/>
		<path id="Trazado_107699" class="st13" d="M413.3,371.6h-8.8l-5.3-20.3h8.8L413.3,371.6z"/>
		<path id="Trazado_107700" class="st12" d="M413.4,370.6h-9.9c-0.3,0-0.5,0.2-0.6,0.5c0,0,0,0.1,0,0.1l0.6,7.8
			c0.1,0.9,0.9,1.5,1.8,1.6c3.4-0.1,5-0.3,9.4-0.3c2.7,0,5.3,0.3,9,0.3s3.1-3.6,1.5-4c-7.2-1.5-7.5-3.5-10.2-5.5
			C414.5,370.8,413.9,370.6,413.4,370.6z"/>
		<g id="Grupo_60154" class="st15">
			<path id="Trazado_107701" d="M399.2,351.3l2.7,10.5h8.8l-2.7-10.5H399.2z"/>
		</g>
		<path id="Trazado_107702" class="st12" d="M374.1,179.5c10.1,13.6,16.3,63.5,20.8,90.2c4.7,27.8,16.1,90,16.1,90h-11.9
			c0,0-16.1-63.3-24.6-90.1c-9.4-29.6-23.3-90.1-23.3-90.1L374.1,179.5z"/>
		<path id="Trazado_107703" class="st8" d="M411.9,360.1h-13.9l-1-4.4l15.6-0.5L411.9,360.1z"/>
		<path id="Trazado_107704" class="st8" d="M414.5,370.8c0.7-0.3,1.3-0.8,1.7-1.4c0.1-0.4,0.1-0.8-0.1-1.1c-0.1-0.2-0.3-0.3-0.5-0.3
			c-1.2-0.1-3.6,3-3.9,3.4c-0.1,0.1-0.1,0.2,0,0.2c0,0.1,0.1,0.1,0.2,0.1C412.8,371.5,413.7,371.2,414.5,370.8z M415.1,368.5
			c0.1-0.1,0.2-0.1,0.4-0.1c0.1,0,0.2,0.1,0.2,0.1c0.1,0.2,0.2,0.5,0.1,0.7c-0.3,0.7-1.5,1.4-3.4,1.9
			C413.2,370.1,414.1,369.2,415.1,368.5z"/>
		<path id="Trazado_107705" class="st8" d="M411.9,371.7C412,371.7,412,371.7,411.9,371.7c0.8-0.9,1.9-3.5,1.3-4.4
			c-0.1-0.2-0.4-0.4-1-0.2c-0.4,0.1-0.7,0.4-0.9,0.8c-0.6,1.3,0.2,3.5,0.3,3.6c0,0.1,0.1,0.1,0.2,0.1
			C411.8,371.8,411.9,371.8,411.9,371.7L411.9,371.7z M412.3,367.6l0.1,0c0.4-0.1,0.5,0,0.5,0c0.4,0.5-0.3,2.4-1,3.5
			c-0.4-0.9-0.4-2-0.2-2.9C411.8,367.9,412,367.7,412.3,367.6L412.3,367.6z"/>
		<path id="Trazado_107706" class="st12" d="M349.3,96.9l-1.7-0.4C347.6,96.5,348.5,97.8,349.3,96.9z"/>
		<path id="Trazado_107707" class="st8" d="M374.5,177.4l1,3.2c0.1,0.2-0.2,0.5-0.6,0.5l-36.7,1.1c-0.3,0-0.6-0.1-0.6-0.3l-0.4-3.2
			c0-0.2,0.2-0.4,0.6-0.4l36.1-1.1C374.2,177.1,374.4,177.2,374.5,177.4z"/>
		<path id="Trazado_107708" class="st12" d="M369.8,181.6h1c0.2,0,0.3-0.1,0.3-0.2l-0.6-4.1c0-0.1-0.2-0.2-0.4-0.2h-1
			c-0.2,0-0.3,0.1-0.3,0.2l0.6,4.1C369.4,181.5,369.6,181.6,369.8,181.6z"/>
		<path id="Trazado_107709" class="st12" d="M341,182.5h1c0.2,0,0.3-0.1,0.3-0.2l-0.6-4.1c0-0.1-0.2-0.2-0.4-0.2h-1
			c-0.2,0-0.3,0.1-0.3,0.2l0.6,4.1C340.6,182.4,340.8,182.5,341,182.5z"/>
		<path id="Trazado_107710" class="st12" d="M355.4,182h1c0.2,0,0.3-0.1,0.3-0.2l-0.6-4.1c0-0.1-0.2-0.2-0.4-0.2h-1
			c-0.2,0-0.3,0.1-0.3,0.2l0.6,4.1C355,182,355.2,182,355.4,182z"/>
		<path id="Trazado_107711" class="st13" d="M400.1,190.1l7,6.4l-8.9,1.1c0,0-3.3-4.6-1.7-7.8L400.1,190.1z"/>
		<path id="Trazado_107712" class="st13" d="M408.3,203.8l-7.5,0.6l-2.6-6.7l8.9-1.1L408.3,203.8z"/>
		<path id="Trazado_107713" class="st12" d="M355.5,82.2c0,0-7.4-3.4-15.5,6.9c9.8,2.9,16.4,0.9,16.4,0.9L355.5,82.2z"/>
		<path id="Trazado_107714" class="st12" d="M354.4,81.3c0,0,1.8,25.8,0,38.6c10.3-3.3,20.2-13.5,20.2-13.5S373.2,78.2,354.4,81.3z"
			/>
		<path id="Trazado_107715" class="st5" d="M349.2,104.1c-2.3,0-4.5-2.9-4.8-6.4c-0.3-1.9,0.3-3.9,1.4-5.4c0.6-0.7,1.4-1,2.2-1.1
			c2.3,0,4.5,2.9,4.8,6.4l0,0c0.3,1.9-0.3,3.9-1.5,5.4C350.9,103.7,350.1,104.1,349.2,104.1L349.2,104.1z M348.1,91.8
			c-0.7,0-1.4,0.3-1.9,0.9c-1.1,1.4-1.6,3.2-1.3,5c0.3,3.3,2.2,5.9,4.3,5.9c0.7,0,1.4-0.3,1.9-0.9c1.1-1.4,1.6-3.2,1.3-5l0,0
			C352.1,94.4,350.2,91.8,348.1,91.8z"/>
		<path id="Trazado_107716" class="st5" d="M340.5,104.1c-1.9,0-3.6-2.8-3.9-6.4c-0.2-2.4,0.3-4.6,1.3-5.7c0.4-0.5,0.9-0.7,1.5-0.7
			c1.9,0,3.6,2.8,3.9,6.4l0,0c0.2,2.4-0.3,4.6-1.3,5.7C341.6,103.8,341.1,104.1,340.5,104.1z M339.4,91.8c-0.5,0-0.9,0.2-1.2,0.6
			c-0.9,1-1.4,3.1-1.2,5.3c0.3,3.2,1.8,5.9,3.4,5.9c0.5,0,0.9-0.2,1.2-0.6c0.9-1,1.4-3.1,1.2-5.3l0,0
			C342.5,94.5,341,91.8,339.4,91.8z"/>
		<path id="Trazado_107717" class="st5" d="M344.7,97.9h-0.1c-0.4-0.2-0.9-0.2-1.4,0c-0.1,0.1-0.3,0-0.3-0.1c-0.1-0.1-0.1-0.2,0-0.3
			c0,0,0,0,0,0l0,0c0.6-0.3,1.3-0.3,1.9,0c0.1,0.1,0.2,0.2,0.1,0.3C344.8,97.9,344.8,97.9,344.7,97.9z"/>
	</g>
	<g id="freepik--Desk--inject-12">
		<rect id="Rectángulo_6752" x="113.3" y="250.2" class="st8" width="273.3" height="9.3"/>
		<rect id="Rectángulo_6753" x="113.3" y="250.2" class="st17" width="273.3" height="9.3"/>
		<rect id="Rectángulo_6754" x="306.7" y="250.2" class="st18" width="80" height="9.3"/>
		<path id="Trazado_107718" class="st8" d="M326.2,384h-5.3l-7.1-124.5h12.4L326.2,384z"/>
		<path id="Trazado_107719" class="st8" d="M381.3,384h5.3l-7.1-124.5h-12.4L381.3,384z"/>
		<path id="Trazado_107720" class="st8" d="M118.7,384h-5.3l7.1-124.5h12.4L118.7,384z"/>
		<path id="Trazado_107721" class="st8" d="M173.8,384h5.3l7.1-124.5h-12.4V384z"/>
		<path id="Trazado_107722" class="st8" d="M302.5,205.5h-58.3c-1.4,0-2.6,1.1-2.9,2.4l-6.4,36.5c-0.2,1.1,0.4,2.1,1.5,2.4
			c0,0,0,0,0,0c0.2,0,0.3,0,0.5,0h58.3c1.4,0,2.6-1,2.9-2.4l6.4-36.4c0.2-1.1-0.4-2.1-1.5-2.4C302.8,205.6,302.6,205.5,302.5,205.5
			L302.5,205.5z"/>
		<path id="Trazado_107723" class="st19" d="M302.5,205.5h-58.3c-1.4,0-2.6,1.1-2.9,2.4l-6.4,36.5c-0.2,1.1,0.4,2.1,1.5,2.4
			c0,0,0,0,0,0c0.2,0,0.3,0,0.5,0h58.3c1.4,0,2.6-1,2.9-2.4l6.4-36.4c0.2-1.1-0.4-2.1-1.5-2.4C302.8,205.6,302.6,205.5,302.5,205.5
			L302.5,205.5z"/>
		<path id="Trazado_107724" class="st8" d="M301.3,205.5H243c-1.4,0-2.6,1.1-2.9,2.4l-6.4,36.5c-0.2,1.1,0.4,2.1,1.5,2.4
			c0,0,0,0,0,0c0.2,0,0.3,0,0.5,0h58.3c1.4,0,2.6-1,2.9-2.4l6.4-36.4c0.2-1.1-0.4-2.1-1.5-2.4c0,0,0,0,0,0
			C301.7,205.6,301.5,205.5,301.3,205.5L301.3,205.5z"/>
		<path id="Trazado_107725" class="st20" d="M301.3,205.5H243c-1.4,0-2.6,1.1-2.9,2.4l-6.4,36.5c-0.2,1.1,0.4,2.1,1.5,2.4
			c0,0,0,0,0,0c0.2,0,0.3,0,0.5,0h58.3c1.4,0,2.6-1,2.9-2.4l6.4-36.4c0.2-1.1-0.4-2.1-1.5-2.4c0,0,0,0,0,0
			C301.7,205.6,301.5,205.5,301.3,205.5L301.3,205.5z"/>
		<path id="Trazado_107726" class="st5" d="M235.8,245.9c-0.3,0-0.6-0.1-0.8-0.3c-0.2-0.3-0.3-0.6-0.2-0.9l6.4-36.5
			c0.2-0.9,0.9-1.6,1.9-1.6h58.3c0.3,0,0.6,0.1,0.8,0.4c0.2,0.3,0.3,0.6,0.2,0.9l-6.4,36.5c-0.2,0.9-0.9,1.6-1.9,1.6H235.8z"/>
		<path id="Trazado_107727" class="st8" d="M294.4,246.9h-73.3c-1.8,0-3.2,1.5-3.2,3.2h79.8C297.6,248.4,296.2,246.9,294.4,246.9z"
			/>
		<path id="Trazado_107728" class="st20" d="M294.4,246.9h-73.3c-1.8,0-3.2,1.5-3.2,3.2h79.8C297.6,248.4,296.2,246.9,294.4,246.9z"
			/>
		<path id="Trazado_107729" class="st21" d="M294.4,246.9h-16.3c-1.8,0-3.2,1.5-3.2,3.2h22.8C297.6,248.4,296.2,246.9,294.4,246.9z"
			/>
		<path id="Rectángulo_6755" class="st8" d="M322.1,233.9h10.7c0.7,0,1.2,0.5,1.2,1.2V249c0,0.7-0.5,1.2-1.2,1.2h-10.7
			c-0.7,0-1.2-0.5-1.2-1.2v-13.9C320.9,234.4,321.4,233.9,322.1,233.9z"/>
		<path id="Trazado_107730" class="st5" d="M322.6,241.9l0.2-0.9h-0.9v-1h1.1l0.3-1.3h1l-0.3,1.3h0.8l0.3-1.3h1l-0.3,1.3h0.5v1h-0.7
			l-0.2,0.9h0.9v1h-1.1l-0.3,1.3h-1l0.3-1.3h-0.8l-0.3,1.3h-1l0.3-1.3h-0.5v-1L322.6,241.9z M323.7,241.9h0.8l0.2-0.9h-0.8
			L323.7,241.9z"/>
		<path id="Trazado_107731" class="st5" d="M330.4,238.6v5.5h-1.5v-3.6c-0.2,0.2-0.5,0.3-0.7,0.5c-0.3,0.1-0.6,0.2-0.9,0.3V240
			c0.4-0.1,0.8-0.3,1.2-0.6c0.3-0.2,0.5-0.5,0.7-0.9L330.4,238.6z"/>
		<path id="Trazado_107732" class="st8" d="M335.2,248.4c-2.6,0-4.6-2.8-4.6-6.4s2.1-6.4,4.6-6.4s4.6,2.9,4.6,6.4
			S337.8,248.4,335.2,248.4z M335.2,237.1c-1.7,0-3.1,2.2-3.1,4.9s1.4,4.9,3.1,4.9s3.1-2.2,3.1-4.9S336.9,237.1,335.2,237.1z"/>
	</g>
	<g id="freepik--character-1--inject-12">
		<path id="Trazado_107733" class="st8" d="M181.6,203.5l-0.9,1.4l-1,1.6c-0.6,1.1-1.3,2.1-1.9,3.2c-1.2,2.2-2.4,4.4-3.6,6.6
			c-2.2,4.4-4.1,9-5.6,13.7c-0.4,1.2-0.7,2.3-1,3.5l-0.4,1.8l-0.2,0.9l-0.1,0.4c0,0.1,0,0.2-0.1,0.3c0,0-0.1,0-0.2-0.3
			c-0.1-0.2-0.3-0.4-0.5-0.6c-0.2-0.1-0.2,0-0.1,0.1c0.2,0.2,0.4,0.3,0.7,0.5c0.9,0.4,1.8,0.7,2.7,0.9c1.1,0.3,2.3,0.5,3.4,0.6
			c2.4,0.3,5,0.5,7.5,0.6h0.2c1.9,0.1,3.4,1.8,3.3,3.7c-0.1,1.4-1,2.6-2.3,3.1c-2.8,1-5.6,1.7-8.5,2.1c-3.2,0.5-6.6,0.4-9.8-0.2
			c-1-0.3-2-0.6-3-1.1c-1.2-0.6-2.3-1.4-3.2-2.4c-1.1-1.2-1.9-2.6-2.3-4.1c-0.4-1.4-0.5-2.8-0.4-4.2c0-0.2,0-0.5,0.1-0.7l0.1-0.5
			l0.1-1.1c0.1-0.7,0.2-1.5,0.3-2.2c0.2-1.5,0.5-2.9,0.9-4.3c1.4-5.6,3.3-11.1,5.7-16.3c1.2-2.6,2.5-5.1,3.9-7.6
			c0.7-1.2,1.4-2.5,2.2-3.7c0.4-0.6,0.8-1.2,1.2-1.8s0.8-1.2,1.3-1.9c2.3-3.1,6.7-3.7,9.8-1.4c2.9,2.2,3.7,6.2,1.8,9.3L181.6,203.5z
			"/>
		<path id="Trazado_107734" class="st12" d="M208.3,163.1c0.1,0.7,0.5,1.2,1,1.1s0.7-0.7,0.6-1.3s-0.5-1.2-1-1.1
			S208.2,162.5,208.3,163.1z"/>
		<path id="Trazado_107735" class="st22" d="M208.8,164.3c1.1,1.9,2.5,3.7,4.1,5.3c-0.8,0.8-2,1.2-3.1,1.1L208.8,164.3z"/>
		<path id="Trazado_107736" class="st12" d="M205.3,159.8c0.1,0,0.2-0.1,0.2-0.1c0.7-0.7,1.7-1.1,2.7-0.9c0.2,0.1,0.4-0.1,0.5-0.3
			c0.1-0.2-0.1-0.4-0.3-0.5c0,0,0,0-0.1,0c-1.3-0.2-2.6,0.2-3.5,1.1c-0.1,0.2-0.1,0.4,0,0.6C205.1,159.7,205.2,159.8,205.3,159.8
			L205.3,159.8z"/>
		<path id="Trazado_107737" class="st23" d="M188.5,170.6c0.3,6.3-0.2,17.7-5.1,21.1c0,0,0.8,6.4,12.1,8.1c12.5,1.9,6.9-5.3,6.9-5.3
			c-6.6-2.6-5.6-7.7-3.8-12.2L188.5,170.6z"/>
		<path id="Trazado_107738" class="st6" d="M181.4,194.2c-0.5-2.9-1-6.1,1.1-6.6c2.4-0.6,14.6,1.1,18.4,4s1.9,8,1.9,8L181.4,194.2z"
			/>
		<path id="Trazado_107739" class="st8" d="M214.4,204.9c0.5,10.1,0,30.1-6.8,60.3h-45.2c-0.3-6.3,6.2-33.4,5.6-63.2
			c-0.1-6.2,4.8-11.3,11-11.5h0.2c0.9,0,1.9,0,2.8,0.1c6.4,0.4,12.8,1.3,19.1,2.5c1.9,0.4,3.7,0.9,5.4,1.4
			C211,195.9,214.2,200.1,214.4,204.9z"/>
		<path id="Trazado_107740" class="st14" d="M207.6,223c-0.7,5.1-2.4,14,3.6,23.8c0.7-4.1,1.2-7.9,1.7-11.4L207.6,223z"/>
		<path id="Trazado_107741" class="st23" d="M242.8,235.4l7.6-2.6l-3.1-8c-3.5,0.5-6.5,2.9-7.7,6.3L242.8,235.4z"/>
		<path id="Trazado_107742" class="st23" d="M254.4,230.5l0.8-6.5l-7.9,0.7l3.1,8L254.4,230.5z"/>
		<path id="Trazado_107743" class="st8" d="M214.3,203.9c0.4,1.5,0.9,3.2,1.4,4.8s1,3.2,1.6,4.8c1.1,3.2,2.3,6.4,3.5,9.5
			c1.2,3.1,2.6,6.1,4.1,9c1.4,2.7,3.1,5.2,5,7.4l-7.3-1.1c1.4-0.6,2.9-1.2,4.3-2s2.9-1.4,4.4-2.2l4.5-2.4c1.5-0.8,3-1.6,4.5-2.4
			l0.2-0.1c1.7-0.9,3.9-0.2,4.8,1.6c0.6,1.2,0.5,2.6-0.3,3.7c-1.1,1.5-2.3,2.9-3.6,4.2c-1.2,1.4-2.6,2.6-3.9,3.9s-2.8,2.5-4.3,3.6
			c-1.5,1.2-3.1,2.3-4.8,3.3c-2.2,1.3-5.1,1-6.9-0.8l-0.4-0.4c-3-2.9-5.5-6.1-7.6-9.7c-2-3.3-3.8-6.7-5.4-10.1
			c-1.6-3.4-2.9-6.9-4.1-10.4c-0.6-1.8-1.2-3.5-1.7-5.3s-1-3.5-1.5-5.5c-1-3.7,1.2-7.6,5-8.6c3.7-1,7.6,1.2,8.6,5l0,0L214.3,203.9z"
			/>
		<path id="Trazado_107744" class="st23" d="M185.6,165.1c1.8,8.2,2.4,13.1,7.2,16.7c7.2,5.5,16.9,0.1,17.6-8.4
			c0.7-7.7-2.3-19.8-10.9-21.9c-6.1-1.5-12.4,2.2-13.9,8.4C185.2,161.6,185.2,163.3,185.6,165.1L185.6,165.1z"/>
		<path id="Trazado_107745" class="st12" d="M203.2,165.9c3.9-0.3,3.7-2.1,2.8-3.4s-1.9-6.1-1.9-6.1s5.4,1.4,4.3-3.8
			s-8.5-11.8-14.9-7.8c-12.8-2.1-17,3.1-15,7.8c-10.2,4.5-2.8,13.6,1.2,13.6c-3.6,3.2,1.8,7.9,10.5,13.1
			C196.7,171.6,206.1,173.7,203.2,165.9z"/>
		<path id="Trazado_107746" class="st12" d="M195.3,147.4c-0.3,0-0.5-0.1-0.7-0.3c-3-3-7.5-4.2-11.6-3.1c-0.5,0.2-1.1-0.1-1.3-0.6
			c-0.2-0.5,0.1-1.1,0.6-1.3c0.1,0,0.1,0,0.2,0c4.9-1.2,10,0.2,13.5,3.7c0.4,0.4,0.4,1,0,1.4C195.9,147.4,195.6,147.5,195.3,147.4
			L195.3,147.4z"/>
		<path id="Trazado_107747" class="st12" d="M182.1,175.4c-0.3,0-0.5-0.1-0.7-0.3c-2.8-2.8-4-5.1-3.6-7c0.3-1.5,1.4-2.7,2.8-3.2
			c0.5-0.2,1.1,0,1.3,0.5c0.2,0.5,0,1.1-0.5,1.3l0,0c-1.1,0.5-1.6,1.1-1.7,1.8s0.3,2.4,3.1,5.2c0.4,0.4,0.4,1,0,1.4l0,0
			C182.6,175.3,182.3,175.4,182.1,175.4z"/>
		<path id="Trazado_107748" class="st23" d="M198.4,165.3c0.7,2,2,3.7,3.7,4.8c2.3,1.5,3.8-0.2,3.5-2.7c-0.3-2.2-1.8-5.7-4.2-6.2
			S197.7,162.9,198.4,165.3z"/>
		<path id="Trazado_107749" class="st8" d="M276.6,376.7c1.1,0,2.1-0.1,2.5-0.6c0.2-0.3,0.2-0.6,0-0.9c-0.1-0.2-0.4-0.4-0.6-0.5
			c-1.4-0.4-4.4,1.3-4.5,1.4c-0.1,0-0.1,0.1-0.1,0.2c0,0.1,0.1,0.1,0.1,0.2C274.9,376.6,275.8,376.7,276.6,376.7L276.6,376.7z
			 M278,375.1c0.1,0,0.3,0,0.4,0c0.2,0,0.3,0.1,0.4,0.3c0.1,0.2,0.1,0.4,0,0.4c-0.4,0.5-2.5,0.6-4.1,0.3
			C275.7,375.6,276.8,375.2,278,375.1L278,375.1z"/>
		<path id="Trazado_107750" class="st8" d="M274.1,376.5L274.1,376.5c1.1-0.5,3.1-2.3,3-3.2c0-0.2-0.2-0.5-0.7-0.6
			c-0.4,0-0.8,0.1-1.1,0.3c-1.1,0.9-1.3,3.2-1.3,3.3c0,0.1,0,0.1,0.1,0.2C274,376.5,274,376.5,274.1,376.5z M276.1,373.1h0.1
			c0.4,0,0.4,0.2,0.4,0.2c0.1,0.6-1.3,2-2.3,2.6c0.1-1,0.5-1.9,1.1-2.6C275.6,373.2,275.9,373.1,276.1,373.1L276.1,373.1z"/>
		<path id="Trazado_107751" class="st23" d="M264.5,376.3h8.5l-1.6-19.6h-8.5L264.5,376.3z"/>
		<path id="Trazado_107752" class="st12" d="M272.9,375.3h-9.2c-0.3,0-0.6,0.2-0.6,0.6l-0.5,7.5c0,0.8,0.6,1.5,1.4,1.5c0,0,0,0,0,0
			l0,0c3.3-0.1,8.1-0.2,12.3-0.2c4.9,0,5.4,0.3,11.1,0.3c3.5,0,3.9-3.5,2.4-3.8c-6.8-1.5-8.5-1.6-14.7-5.1
			C274.4,375.6,273.7,375.4,272.9,375.3z"/>
		<path id="Trazado_107753" class="st14" d="M271.3,356.7l0.8,10.1h-8.5l-0.8-10.1H271.3z"/>
		<path id="Trazado_107754" class="st8" d="M224,376.7c0.7,0.1,1.4-0.1,2-0.5c0.2-0.3,0.2-0.7,0-1c-0.1-0.2-0.4-0.4-0.6-0.5
			c-1.2-0.3-3.6,1.3-3.7,1.4c-0.1,0-0.1,0.1-0.1,0.2c0,0.1,0.1,0.1,0.1,0.1C222.5,376.6,223.2,376.7,224,376.7L224,376.7z
			 M225.1,375.1h0.2c0.2,0,0.3,0.1,0.4,0.3c0.2,0.3,0.1,0.5,0,0.5c-0.4,0.5-2.1,0.5-3.4,0.3C223.1,375.6,224,375.3,225.1,375.1
			L225.1,375.1z"/>
		<path id="Trazado_107755" class="st8" d="M221.8,376.5L221.8,376.5c1-0.5,2.7-2.3,2.5-3.3c-0.1-0.3-0.3-0.5-0.6-0.5
			c-0.3,0-0.6,0.1-0.9,0.3c-1,0.8-1.2,3.2-1.2,3.3C221.6,376.4,221.6,376.5,221.8,376.5C221.8,376.5,221.8,376.5,221.8,376.5
			L221.8,376.5z M223.5,373.1L223.5,373.1c0.3,0,0.4,0.1,0.4,0.2c0.1,0.6-1,2-1.9,2.6c0.1-1,0.4-1.9,1-2.6
			C223.2,373.1,223.4,373.1,223.5,373.1z"/>
		<path id="Trazado_107756" class="st23" d="M214.1,376.3h8.4l4.2-19.6h-8.4L214.1,376.3z"/>
		<path id="Trazado_107757" class="st12" d="M223.1,375.3h-9.5c-0.3,0-0.6,0.2-0.7,0.6l-1.7,7.5c-0.1,0.7,0.3,1.3,0.9,1.5
			c0.1,0,0.2,0,0.3,0c3.3-0.1,4.9-0.2,9.1-0.2c2.6,0,5.9,0.3,9.4,0.3s4-3.5,2.6-3.8c-6.5-1.4-7-3.4-9.1-5.3
			C224.1,375.5,223.6,375.3,223.1,375.3L223.1,375.3z"/>
		<path id="Trazado_107758" d="M194,265.2c0,0,46.9,14.2,48.1,33.1c2.1,34.7-14.9,64.3-14.9,64.3h-12.7c0,0,4.8-14.7,6.6-46.1
			c2.2-39.5-72.5,0.9-58.7-51.2H194z"/>
		<g id="Grupo_60155" class="st15">
			<path id="Trazado_107759" d="M218.3,356.7h8.5l-2.2,10.1h-8.5L218.3,356.7z"/>
		</g>
		<path id="Trazado_107760" class="st12" d="M207.6,265.2c0,0,60.7,4,63.1,36.2c2.8,37,3.5,61.1,3.5,61.1h-12.6
			c0,0-6.5-22.7-12-55.3c-1.7-9.8-22.4-11.5-42-12.6c-16.9-1-29.9-2-31.3-20.7l0.2-8.7H207.6z"/>
		<path id="Trazado_107761" class="st8" d="M277.2,359.2c0.1,0-0.8,6-0.8,6H259l-0.5-5.3L277.2,359.2z"/>
		<path id="Trazado_107762" class="st8" d="M231,359.2c0.1,0-1.6,6-1.6,6H212l0.3-5.3L231,359.2z"/>
		<path id="Trazado_107763" class="st8" d="M204.8,291.9l-8.5-57.7c-0.5-3.2-3.2-5.6-6.5-5.6h-50.1c-3.6,0-6.6,2.9-6.6,6.6l0,0
			c0,0.3,0,0.7,0.1,1l8.2,55.8l0,0c0,2.7,2.2,4.9,4.9,4.9c0,0,0,0,0,0h91.3c0-2.7-2.2-4.9-4.9-4.9c0,0,0,0,0,0L204.8,291.9
			L204.8,291.9z"/>
		<path id="Trazado_107764" class="st24" d="M204.8,291.9l-8.5-57.7c-0.5-3.2-3.2-5.6-6.5-5.6h-50.1c-3.6,0-6.6,2.9-6.6,6.6l0,0
			c0,0.3,0,0.7,0.1,1l8.2,55.8l0,0c0,2.7,2.2,4.9,4.9,4.9c0,0,0,0,0,0h91.3c0-2.7-2.2-4.9-4.9-4.9c0,0,0,0,0,0L204.8,291.9
			L204.8,291.9z"/>
		<path id="Trazado_107765" class="st18" d="M189.8,228.6h-50.1c-3.6,0-6.6,2.9-6.6,6.6l0,0c0,0.3,0,0.7,0.1,1l8.2,55.8
			c0,2.7,2.2,4.9,4.9,4.9c0,0,0,0,0,0h53.1L189.8,228.6z"/>
		<path id="Trazado_107766" class="st8" d="M142.1,385.6h-2.8l7.1-88.8h2.8L142.1,385.6z"/>
		<path id="Trazado_107767" class="st25" d="M142.1,385.6h-2.8l7.1-88.8h2.8L142.1,385.6z"/>
		<path id="Trazado_107768" class="st8" d="M190.2,385.6h-2.8l7.1-88.8h2.8L190.2,385.6z"/>
		<path id="Trazado_107769" class="st25" d="M190.2,385.6h-2.8l7.1-88.8h2.8L190.2,385.6z"/>
		<path id="Trazado_107770" class="st8" d="M194.6,385.6h-2.8l-7.1-88.8h2.8L194.6,385.6z"/>
		<path id="Trazado_107771" class="st26" d="M194.6,385.6h-2.8l-7.1-88.8h2.8L194.6,385.6z"/>
		<path id="Trazado_107772" class="st8" d="M242.7,385.6h-2.8l-7.1-88.8h2.8L242.7,385.6z"/>
		<path id="Trazado_107773" class="st26" d="M242.7,385.6h-2.8l-7.1-88.8h2.8L242.7,385.6z"/>
	</g>
</g>
</svg>
