<svg id="Capa_2" data-name="Capa 2" xmlns="http://www.w3.org/2000/svg" width="500" height="500" viewBox="0 0 500 500">
  <g id="Capa_1" data-name="Capa 1">
    <rect id="Rectángulo_6726" data-name="Rectángulo 6726" width="500" height="500" fill="#344154" opacity="0"/>
    <g id="freepik--Shadow--inject-12">
      <ellipse id="freepik--path--inject-12" cx="193.89" cy="11.32" rx="193.89" ry="11.32" transform="translate(51.27 407.62)" fill="#f5f5f5"/>
    </g>
    <g id="freepik--background-complete--inject-12">
      <rect id="Rectángulo_6727" data-name="Rectángulo 6727" width="500" height="0.25" transform="translate(0 396.78)" fill="#ebebeb"/>
      <rect id="Rectángulo_6728" data-name="Rectángulo 6728" width="25.46" height="0.25" transform="translate(290.21 403.59)" fill="#ebebeb"/>
      <rect id="Rectángulo_6729" data-name="Rectángulo 6729" width="60.33" height="0.25" transform="translate(395.11 409)" fill="#ebebeb"/>
      <rect id="Rectángulo_6730" data-name="Rectángulo 6730" width="62.33" height="0.25" transform="translate(222.46 403.71)" fill="#ebebeb"/>
      <rect id="Rectángulo_6731" data-name="Rectángulo 6731" width="13.04" height="0.25" transform="translate(169 411.19)" fill="#ebebeb"/>
      <rect id="Rectángulo_6732" data-name="Rectángulo 6732" width="59.38" height="0.25" transform="translate(194.71 411.19)" fill="#ebebeb"/>
      <rect id="Rectángulo_6733" data-name="Rectángulo 6733" width="38.45" height="0.25" transform="translate(52.46 406.97)" fill="#ebebeb"/>
      <path id="Trazado_107632" data-name="Trazado 107632" d="M237,352.18H43.91a5.71,5.71,0,0,1-5.7-5.71V75a5.71,5.71,0,0,1,5.7-5.66H237a5.71,5.71,0,0,1,5.71,5.71h0V346.47a5.71,5.71,0,0,1-5.71,5.71ZM43.91,69.58A5.46,5.46,0,0,0,38.46,75V346.47a5.46,5.46,0,0,0,5.45,5.46H237a5.48,5.48,0,0,0,5.46-5.46V75A5.48,5.48,0,0,0,237,69.58Z" fill="#ebebeb"/>
      <path id="Trazado_107633" data-name="Trazado 107633" d="M453.31,352.18H260.21a5.73,5.73,0,0,1-5.71-5.71V75a5.72,5.72,0,0,1,5.71-5.66h193.1A5.71,5.71,0,0,1,459,75V346.47a5.7,5.7,0,0,1-5.69,5.71ZM260.21,69.58A5.48,5.48,0,0,0,254.75,75V346.47a5.48,5.48,0,0,0,5.46,5.46h193.1a5.48,5.48,0,0,0,5.46-5.46V75a5.48,5.48,0,0,0-5.46-5.46Z" fill="#ebebeb"/>
      <path id="Trazado_107634" data-name="Trazado 107634" d="M120.62,271s-.44,13-17.62,13-17.62-13-17.62-13Z" fill="#f0f0f0"/>
      <path id="Trazado_107635" data-name="Trazado 107635" d="M162.27,271s-.45,13-17.62,13S127,271,127,271Z" fill="#f0f0f0"/>
      <rect id="Rectángulo_6734" data-name="Rectángulo 6734" width="39.43" height="95.39" transform="translate(71.34 292.53)" fill="#f0f0f0"/>
      <rect id="Rectángulo_6735" data-name="Rectángulo 6735" width="127.51" height="8.86" transform="translate(78.91 387.92)" fill="#f0f0f0"/>
      <rect id="Rectángulo_6736" data-name="Rectángulo 6736" width="103.22" height="95.39" transform="translate(110.77 292.54)" fill="#f5f5f5"/>
      <rect id="Rectángulo_6737" data-name="Rectángulo 6737" width="72.21" height="29.35" transform="translate(126.28 304.14)" fill="#f0f0f0"/>
      <rect id="Rectángulo_6738" data-name="Rectángulo 6738" width="72.21" height="29.35" transform="translate(126.28 341.85)" fill="#f0f0f0"/>
      <rect id="Rectángulo_6739" data-name="Rectángulo 6739" width="108.47" height="8.55" transform="translate(110.77 283.98)" fill="#f0f0f0"/>
      <rect id="Rectángulo_6740" data-name="Rectángulo 6740" width="44.94" height="8.55" transform="translate(65.83 283.99)" fill="#e6e6e6"/>
      <rect id="Rectángulo_6741" data-name="Rectángulo 6741" width="200.95" height="144.26" transform="translate(191.15 90.34)" fill="#fafafa"/>
      <path id="Trazado_107636" data-name="Trazado 107636" d="M202.58,234.6,253.7,90.34h38.36L240.94,234.6Z" fill="#fff"/>
      <path id="Trazado_107637" data-name="Trazado 107637" d="M305.73,234.6,356.84,90.34h13.99L319.72,234.6Z" fill="#fff"/>
      <path id="Trazado_107638" data-name="Trazado 107638" d="M401.68,85.38H181.57a.91.91,0,0,0-.9.89h0a.9.9,0,0,0,.9.9H401.68a.9.9,0,0,0,.9-.9h0a.91.91,0,0,0-.9-.89Z" fill="#e0e0e0"/>
      <rect id="Rectángulo_6742" data-name="Rectángulo 6742" width="2.38" height="144.88" transform="translate(290.44 90.03)" fill="#f0f0f0"/>
      <rect id="Rectángulo_6743" data-name="Rectángulo 6743" width="1.19" height="144.88" transform="translate(292.81 90.03)" fill="#e0e0e0"/>
      <rect id="Rectángulo_6744" data-name="Rectángulo 6744" width="203.73" height="2.38" transform="translate(189.76 161.29)" fill="#f0f0f0"/>
      <path id="Trazado_107639" data-name="Trazado 107639" d="M393.49,233.61h0V89H189.76V233.61h0V236H393.49Zm-201.35,0V91.38h199V233.61Z" fill="#f0f0f0"/>
      <rect id="Rectángulo_6745" data-name="Rectángulo 6745" width="1.19" height="147.04" transform="translate(393.49 88.95)" fill="#e0e0e0"/>
      <path id="Trazado_107640" data-name="Trazado 107640" d="M363.95,83.2V252.61h43.01L399.07,83.2Z" fill="#ebebeb" opacity="0.5"/>
      <path id="Trazado_107641" data-name="Trazado 107641" d="M220.49,83.2V252.61H177.48L185.37,83.2Z" fill="#ebebeb" opacity="0.5"/>
      <rect id="Rectángulo_6746" data-name="Rectángulo 6746" width="211.16" height="34.81" transform="translate(247.89 275.05)" fill="#ebebeb"/>
      <rect id="Rectángulo_6747" data-name="Rectángulo 6747" width="77.68" height="30.67" transform="translate(378.82 277.12)" fill="#f5f5f5"/>
      <rect id="Rectángulo_6748" data-name="Rectángulo 6748" width="77.68" height="30.67" transform="translate(298.38 277.12)" fill="#f5f5f5"/>
      <path id="Trazado_107642" data-name="Trazado 107642" d="M290.74,396.78h-4.66l9.97-86.92h4.66Z" fill="#f5f5f5"/>
      <path id="Trazado_107643" data-name="Trazado 107643" d="M249.67,396.78H245l9.97-86.92h4.67Z" fill="#f5f5f5"/>
      <path id="Trazado_107644" data-name="Trazado 107644" d="M416.19,396.78h4.67l-9.97-86.92h-4.67Z" fill="#f5f5f5"/>
      <path id="Trazado_107645" data-name="Trazado 107645" d="M457.26,396.78h4.67l-9.97-86.92h-4.67Z" fill="#f5f5f5"/>
      <path id="Trazado_107646" data-name="Trazado 107646" d="M349.77,236.71H333.44l-6.8,38.34h16.33Z" fill="#e0e0e0"/>
      <path id="Trazado_107647" data-name="Trazado 107647" d="M386.09,203.38H294.76l2.78,55.56h91.33Z" fill="#e6e6e6"/>
      <path id="Trazado_107648" data-name="Trazado 107648" d="M383.99,204.7h-87l2.65,52.92h87Z" fill="#fafafa"/>
      <rect id="Rectángulo_6749" data-name="Rectángulo 6749" width="3.21" height="1.48" rx="0.72" transform="translate(408.42 268.93)" fill="#e0e0e0"/>
      <path id="Trazado_107649" data-name="Trazado 107649" d="M443.89,206.12l-19.8,19.8a14,14,0,0,1,19.8-19.8Z" fill="#e6e6e6"/>
      <path id="Trazado_107650" data-name="Trazado 107650" d="M416.39,208.38l7.72,7.72,10-10-7.72-7.71a7.06,7.06,0,0,0-10,0h0a7.06,7.06,0,0,0,0,10Z" fill="#e6e6e6"/>
      <rect id="Rectángulo_6750" data-name="Rectángulo 6750" width="46.6" height="1.67" transform="translate(382.268 230.029) rotate(-45)" fill="#e6e6e6"/>
      <rect id="Rectángulo_6751" data-name="Rectángulo 6751" width="1.67" height="46.6" transform="matrix(0.86, -0.51, 0.51, 0.86, 381.992, 231.22)" fill="#e6e6e6"/>
      <circle id="Elipse_4090" data-name="Elipse 4090" cx="2.88" cy="2.88" r="2.88" transform="translate(413.51 195.55)" fill="#e6e6e6"/>
      <circle id="Elipse_4091" data-name="Elipse 4091" cx="1.84" cy="1.84" r="1.84" transform="translate(380.98 228.82)" fill="#e6e6e6"/>
      <path id="Trazado_107651" data-name="Trazado 107651" d="M399.25,269.66h13.57l1.07,5.39h-15.7Z" fill="#e6e6e6"/>
    </g>
    <g id="freepik--Board--inject-12">
      <path id="Trazado_107652" data-name="Trazado 107652" d="M343.31,266.17H104.76a12.38,12.38,0,0,1-12.28-12L89.35,119.05a11.71,11.71,0,0,1,11.4-12H339.62a12.38,12.38,0,0,1,12.28,12L355,254.17a11.71,11.71,0,0,1-11.4,12Z" fill="#d9a171"/>
      <path id="Trazado_107653" data-name="Trazado 107653" d="M343.31,266.67H104.76A12.86,12.86,0,0,1,92,254.19L88.85,119.06a12.2,12.2,0,0,1,11.87-12.51h238.9A12.86,12.86,0,0,1,352.4,119l3.13,135.12a12.2,12.2,0,0,1-11.87,12.51ZM101.07,107.55a11.18,11.18,0,0,0-11.22,11.16V119L93,254.16a11.85,11.85,0,0,0,11.78,11.51H343.31a11.19,11.19,0,0,0,11.22-11.18v-.3L351.4,119.06a11.85,11.85,0,0,0-11.78-11.51Z" fill="#d9a171"/>
      <path id="Trazado_107654" data-name="Trazado 107654" d="M345.31,266.17H106.76a12.38,12.38,0,0,1-12.28-12L91.35,119.05a11.71,11.71,0,0,1,11.4-12H341.62a12.38,12.38,0,0,1,12.28,12L357,254.17a11.71,11.71,0,0,1-11.4,12Z" fill="#f5f5f5"/>
      <path id="Trazado_107655" data-name="Trazado 107655" d="M345.31,266.67H106.76A12.86,12.86,0,0,1,94,254.19L90.85,119.06a12.2,12.2,0,0,1,11.87-12.51h238.9A12.86,12.86,0,0,1,354.4,119l3.13,135.12a12.2,12.2,0,0,1-11.87,12.51ZM103.07,107.55a11.18,11.18,0,0,0-11.22,11.16V119L95,254.16a11.85,11.85,0,0,0,11.78,11.51H345.31a11.19,11.19,0,0,0,11.22-11.18v-.3L353.4,119.06a11.85,11.85,0,0,0-11.78-11.51Z" fill="#d9a171"/>
      <path id="Trazado_107656" data-name="Trazado 107656" d="M138.23,144.86l-16.13-15c7.63-8.24,21.19-8.24,30,0a23.4,23.4,0,0,1,6.2,9.52Z" fill="#e0e0e0"/>
      <path id="Trazado_107657" data-name="Trazado 107657" d="M134.87,145.19l-21,1.85a21,21,0,0,1,.52-9.12,19.39,19.39,0,0,1,4.37-7.75Z" fill="#d9a171" opacity="0.2"/>
      <path id="Trazado_107658" data-name="Trazado 107658" d="M138.23,146.38,126.59,159a19.66,19.66,0,0,1-3.91-5.06,18.71,18.71,0,0,1-2-6Z" fill="#fff"/>
      <path id="Trazado_107659" data-name="Trazado 107659" d="M139.36,148.09l20.11-5.5a20.36,20.36,0,0,1-4,20.52c-7.63,8.24-21.19,8.24-30,0Z" fill="#d9a171" opacity="0.6"/>
      <path id="Trazado_107660" data-name="Trazado 107660" d="M193.48,144.86l-16.13-15c7.63-8.24,21.19-8.24,30,0a23.52,23.52,0,0,1,6.21,9.52Z" fill="#d9a171" opacity="0.2"/>
      <path id="Trazado_107661" data-name="Trazado 107661" d="M190.11,145.19l-21,1.85a20.82,20.82,0,0,1,.53-9.12,19.25,19.25,0,0,1,4.36-7.75Z" fill="#e0e0e0"/>
      <path id="Trazado_107662" data-name="Trazado 107662" d="M193.48,146.38,181.83,159a19.66,19.66,0,0,1-3.91-5.06,18.71,18.71,0,0,1-2-6Z" fill="#d9a171" opacity="0.6"/>
      <path id="Trazado_107663" data-name="Trazado 107663" d="M194.6,148.09l20.11-5.5a20.32,20.32,0,0,1-4,20.52c-7.63,8.24-21.19,8.24-30,0Z" fill="#fff"/>
      <g id="Grupo_60152" data-name="Grupo 60152" opacity="0.3">
        <path id="Trazado_107664" data-name="Trazado 107664" d="M106.93,246.75h-.05a.52.52,0,0,1-.45-.55c1.14-11.78,8.44-23.07,19.53-30.19,9.61-6.17,21.82-9.29,35.39-9,3.48.07,7,.36,10.43.65a110.789,110.789,0,0,0,15.67.54c5.85-.35,16.59-2.14,22.75-10.24a42.91,42.91,0,0,0,5-9.68c1.66-4,3.37-8.21,6.44-11.43,4.08-4.29,10.35-6.73,18.65-7.26a114.772,114.772,0,0,1,12.85.12c3.69.17,7.51.35,11.26.2,6.62-.26,15.77-1.85,21.74-8,2.74-2.8,4.64-6.38,6.48-9.84,1-1.8,1.95-3.67,3.06-5.43A41.3,41.3,0,0,1,311,132.38a.5.5,0,0,1,.67.19h0a.51.51,0,0,1-.2.68,40.41,40.41,0,0,0-15,14c-1.09,1.73-2.08,3.58-3,5.37-1.87,3.52-3.8,7.16-6.65,10.07-4.91,5-12.66,7.89-22.42,8.27-3.78.15-7.62,0-11.33-.2a117.888,117.888,0,0,0-12.75-.12c-8,.51-14.09,2.85-18,7-2.94,3.08-4.61,7.17-6.24,11.12a43.48,43.48,0,0,1-5.11,9.91c-6.41,8.41-17.47,10.27-23.5,10.63a111.191,111.191,0,0,1-15.8-.55c-3.4-.28-6.92-.57-10.37-.64-13.33-.28-25.39,2.79-34.83,8.85-10.83,7-18,18-19.07,29.45a.54.54,0,0,1-.47.34Z" fill="#d9a171"/>
        <path id="Trazado_107665" data-name="Trazado 107665" d="M313.09,137.32H313a.5.5,0,0,1-.35-.61l1.09-4.25a10.269,10.269,0,0,1,.47-1.42.11.11,0,0,0,0-.11,48.711,48.711,0,0,0-9.39,1.16.49.49,0,0,1-.59-.37h0a.49.49,0,0,1,.37-.59h0a51.47,51.47,0,0,1,9.5-1.22,1.09,1.09,0,0,1,.92.46,1.11,1.11,0,0,1,.11,1.07,9.577,9.577,0,0,0-.42,1.28l-1.1,4.25A.49.49,0,0,1,313.09,137.32Z" fill="#d9a171"/>
      </g>
    </g>
    <g id="freepik--character-2--inject-12">
      <path id="Trazado_107666" data-name="Trazado 107666" d="M354.44,126.27s-14-6.14-18.11,11.17C333,151.38,326,156.6,326,156.6s24.75,9.56,38.55-1.65Z" fill="#344154"/>
      <path id="Trazado_107667" data-name="Trazado 107667" d="M338.17,184.55c-.51,1.38-1,2.56-1.54,3.8s-1.1,2.43-1.67,3.63c-1.15,2.4-2.45,4.72-3.77,7a87.13,87.13,0,0,1-9.27,13.13l-.67.76c-.24.27-.36.44-.86.95a8,8,0,0,1-3.34,2,8.34,8.34,0,0,1-3.55.2,11.481,11.481,0,0,1-2.74-.8,19.561,19.561,0,0,1-4-2.4,38.53,38.53,0,0,1-3.22-2.77,69.361,69.361,0,0,1-9.94-12.52l3.55-2.68a103,103,0,0,0,10.88,10,20.7,20.7,0,0,0,5.52,3.24c.8.27,1.35.15,1.21.11s-.13,0-.1,0a4.519,4.519,0,0,0,.38-.51l.55-.72a103.107,103.107,0,0,0,7.9-12.32c1.18-2.16,2.28-4.37,3.35-6.59.53-1.11,1.05-2.22,1.55-3.34s1-2.29,1.4-3.3Z" fill="#ffc3bd"/>
      <path id="Trazado_107668" data-name="Trazado 107668" d="M335.32,172.52C331.58,172.38,325,186,325,186l9.73,11.79s11.34-14.23,9.79-18.83C342.86,174.15,340.76,172.71,335.32,172.52Z" fill="#344154"/>
      <path id="Trazado_107669" data-name="Trazado 107669" d="M334.7,175.8l-5.06,15.85,4.56,5.51Z" opacity="0.2"/>
      <path id="Trazado_107670" data-name="Trazado 107670" d="M296.35,199.16,286,196.54l7-5.53s5.2,2.19,5.53,5.83Z" fill="#ffc3bd"/>
      <path id="Trazado_107671" data-name="Trazado 107671" d="M281.15,192.1l5.37-4,6.44,2.91-7.01,5.53Z" fill="#ffc3bd"/>
      <path id="Trazado_107672" data-name="Trazado 107672" d="M361.73,416.61h-8.78l.43-20.34h8.78Z" fill="#ffc3bd"/>
      <path id="Trazado_107673" data-name="Trazado 107673" d="M352.1,415.59H362a.7.7,0,0,1,.7.6l1.12,7.81a1.41,1.41,0,0,1-1.25,1.55h-.16c-3.44-.06-5.1-.26-9.44-.26-2.67,0-10.33.28-14,.28s-3.88-3.65-2.35-4c6.88-1.48,11.74-3.52,14.06-5.47A2.29,2.29,0,0,1,352.1,415.59Z" fill="#344154"/>
      <g id="Grupo_60153" data-name="Grupo 60153" opacity="0.2">
        <path id="Trazado_107674" data-name="Trazado 107674" d="M353.38,396.27l-.22,10.49h8.78l.23-10.49Z"/>
      </g>
      <path id="Trazado_107675" data-name="Trazado 107675" d="M331.79,176.87c-.19,5.56.77,18.53,6.61,48.72l35.66-1.06c-1-14.49-1.31-23.44,4.74-53.43a106.1,106.1,0,0,0-15.2-1.55,113.818,113.818,0,0,0-16.2.49c-4.12.5-8.57,1.35-11.49,2A5.17,5.17,0,0,0,331.79,176.87Z" fill="#344154"/>
      <path id="Trazado_107676" data-name="Trazado 107676" d="M361.45,151.38c-.87,5.24-1.6,14.82,2.15,18.18a20.21,20.21,0,0,1-12.37,8.82C343,174.21,347.4,170,347.4,170c5.77-1.56,5.49-5.87,4.36-9.89Z" fill="#ffc3bd"/>
      <path id="Trazado_107677" data-name="Trazado 107677" d="M351.23,178.38l1.06-2.08,5.71,1.29Z" fill="#e0e0e0"/>
      <path id="Trazado_107678" data-name="Trazado 107678" d="M352.29,176.3c1.84-.84,10.32-6.36,10.65-8.09.67.73,4.26.95,4.26.95s-2.15,9.87-6.31,17.09C358.05,179.81,355.35,178.3,352.29,176.3Z" fill="#fff"/>
      <path id="Trazado_107679" data-name="Trazado 107679" d="M351.23,178.38l-.48-2.08-3.5.25Z" fill="#e0e0e0"/>
      <path id="Trazado_107680" data-name="Trazado 107680" d="M350.75,176.3c-2.83-1.88-2.14-5.81-1.86-7.53-.67.72-4.26.94-4.26.94s-5.08,9.32-.91,16.54C345.69,181.07,347.69,178.3,350.75,176.3Z" fill="#fff"/>
      <path id="Trazado_107681" data-name="Trazado 107681" d="M357.5,155l-5.73,5.2a17.471,17.471,0,0,1,.58,2.86c2.21-.39,5.19-2.92,5.35-5.25A7.83,7.83,0,0,0,357.5,155Z" opacity="0.2"/>
      <path id="Trazado_107682" data-name="Trazado 107682" d="M364.3,139.38c-.11,8.72,0,12.41-4.14,17.08-6.28,7-17,5-19.46-3.58-2.24-7.71-1.69-20.67,6.65-24.55a11.89,11.89,0,0,1,16.95,11Z" fill="#ffc3bd"/>
      <path id="Trazado_107683" data-name="Trazado 107683" d="M363.59,143.57h0L352.64,143a.25.25,0,0,1-.24-.26h0a.25.25,0,0,1,.26-.24h0l10.95.54a.25.25,0,0,1,.23.27h0a.24.24,0,0,1-.25.23Z" fill="#fff"/>
      <path id="Trazado_107684" data-name="Trazado 107684" d="M338.4,225.59s4.51,65.25,7,91.92c2.61,27.75,6,87.22,6,87.22h11.87s2.48-60.48,1.54-87.85c-1-29.83-.37-92.06-.37-92.06Z" fill="#344154"/>
      <path id="Trazado_107685" data-name="Trazado 107685" d="M364.37,405.15H350.44l-1.03-4.44,15.61-.55Z" fill="#d9a171"/>
      <path id="Trazado_107686" data-name="Trazado 107686" d="M364.35,248.12c-1.44-1.6-3-.77-4.78,3.79-5.93,15.56.39,40.39,5,54.69C364.26,288.8,364.27,265.38,364.35,248.12Z" opacity="0.2"/>
      <path id="Trazado_107687" data-name="Trazado 107687" d="M350,143.14c0,.71-.32,1.3-.78,1.32s-.86-.53-.9-1.24.31-1.3.78-1.32S350,142.43,350,143.14Z" fill="#344154"/>
      <path id="Trazado_107688" data-name="Trazado 107688" d="M342,143.38c0,.71-.32,1.3-.78,1.32s-.86-.53-.9-1.24.31-1.3.78-1.32S342,142.62,342,143.38Z" fill="#344154"/>
      <path id="Trazado_107689" data-name="Trazado 107689" d="M341.29,142.12l-1.72-.41S340.51,143,341.29,142.12Z" fill="#344154"/>
      <path id="Trazado_107690" data-name="Trazado 107690" d="M345.08,143.91a18.6,18.6,0,0,1-2.3,4.64,3,3,0,0,0,2.55.35Z" fill="#ed847e"/>
      <path id="Trazado_107691" data-name="Trazado 107691" d="M349.32,151.48a6.667,6.667,0,0,1-1,.13.21.21,0,0,1-.22-.2h0a.22.22,0,0,1,.2-.21,5.55,5.55,0,0,0,4.46-2.42.21.21,0,0,1,.29-.07h0a.19.19,0,0,1,.07.27h0a5.83,5.83,0,0,1-3.8,2.5Z" fill="#344154"/>
      <path id="Trazado_107692" data-name="Trazado 107692" d="M367,147.24a6.34,6.34,0,0,1-3.14,3.71c-2,1-3.42-.67-3.23-2.78.17-1.89,1.41-4.71,3.59-4.84a2.86,2.86,0,0,1,3,2.74A2.75,2.75,0,0,1,367,147.24Z" fill="#ffc3bd"/>
      <path id="Trazado_107693" data-name="Trazado 107693" d="M353.13,140.7a.4.4,0,0,1-.44-.2c-.95-1.67-3.42-1.93-3.44-1.94a.412.412,0,0,1,.08-.82c.12,0,2.92.3,4.08,2.35a.4.4,0,0,1-.14.56h0Z" fill="#344154"/>
      <path id="Trazado_107694" data-name="Trazado 107694" d="M339.42,139.3a.43.43,0,0,1-.4-.71h0a4.13,4.13,0,0,1,3.64-1.06.42.42,0,0,1,.3.51.43.43,0,0,1-.51.3h0a3.24,3.24,0,0,0-2.87.87.42.42,0,0,1-.16.09Z" fill="#344154"/>
      <path id="Trazado_107695" data-name="Trazado 107695" d="M383.2,181.18c1.17,4.67,2.39,9.43,3.64,14.11s2.62,9.35,4.13,13.87,3.38,9,5.11,13.6,3.49,9.24,5.08,13.93l-4,1.89c-2.6-4.24-5-8.55-7.37-12.93q-1.76-3.28-3.42-6.64c-1.13-2.21-2.2-4.59-3.15-7-1.91-4.74-3.5-9.51-4.92-14.31s-2.72-9.6-3.82-14.54Z" fill="#ffc3bd"/>
      <path id="Trazado_107696" data-name="Trazado 107696" d="M378.8,171.1c3.6,1,8.26,13.15,8.26,13.15l-13.57,10.32s-5.36-10.11-4-14.78C370.92,174.94,374.68,170,378.8,171.1Z" fill="#344154"/>
      <path id="Trazado_107697" data-name="Trazado 107697" d="M348.8,417.13a3.29,3.29,0,0,1-2.13-.54,1.18,1.18,0,0,1-.38-1,.68.68,0,0,1,.36-.55c1.07-.59,4.57,1.2,5,1.4a.22.22,0,0,1,.11.22.19.19,0,0,1-.17.17A14.529,14.529,0,0,1,348.8,417.13Zm-1.57-1.82a.83.83,0,0,0-.38.07.24.24,0,0,0-.14.23.74.74,0,0,0,.24.67c.53.48,2,.56,3.92.24a11.159,11.159,0,0,0-3.64-1.21Z" fill="#d9a171"/>
      <path id="Trazado_107698" data-name="Trazado 107698" d="M351.52,416.82h-.08c-1.05-.48-3.12-2.37-3-3.36,0-.24.21-.53.78-.59a1.49,1.49,0,0,1,1.16.36c1.1.92,1.3,3.28,1.31,3.38a.21.21,0,0,1-.09.19Zm-2.09-3.56h-.12c-.38,0-.41.19-.42.24-.09.6,1.31,2.09,2.38,2.74a4.78,4.78,0,0,0-1.12-2.71A1.06,1.06,0,0,0,349.43,413.26Z" fill="#d9a171"/>
      <path id="Trazado_107699" data-name="Trazado 107699" d="M413.27,416.61h-8.78l-5.32-20.34h8.79Z" fill="#ffc3bd"/>
      <path id="Trazado_107700" data-name="Trazado 107700" d="M413.35,415.59h-9.87a.53.53,0,0,0-.57.48.24.24,0,0,0,0,.12l.6,7.81a1.84,1.84,0,0,0,1.75,1.56c3.43-.06,5-.26,9.38-.26,2.67,0,5.33.28,9,.28s3.08-3.65,1.47-4c-7.21-1.48-7.45-3.52-10.2-5.47A2.75,2.75,0,0,0,413.35,415.59Z" fill="#344154"/>
      <g id="Grupo_60154" data-name="Grupo 60154" opacity="0.2">
        <path id="Trazado_107701" data-name="Trazado 107701" d="M399.18,396.27l2.73,10.49h8.79l-2.74-10.49Z"/>
      </g>
      <path id="Trazado_107702" data-name="Trazado 107702" d="M374.06,224.53c10.15,13.6,16.33,63.54,20.82,90.24,4.67,27.77,16.15,90,16.15,90H399.16s-16.15-63.3-24.61-90.1c-9.35-29.59-23.32-90.1-23.32-90.1Z" fill="#344154"/>
      <path id="Trazado_107703" data-name="Trazado 107703" d="M411.88,405.15H397.94l-1.02-4.44,15.61-.55Z" fill="#d9a171"/>
      <path id="Trazado_107704" data-name="Trazado 107704" d="M414.52,415.84a3.3,3.3,0,0,0,1.69-1.41,1.15,1.15,0,0,0-.1-1.08.66.66,0,0,0-.55-.34c-1.23-.07-3.62,3.05-3.89,3.41a.21.21,0,0,0,0,.24.19.19,0,0,0,.22.08,15.4,15.4,0,0,0,2.63-.9Zm.63-2.32a.861.861,0,0,1,.38-.1.24.24,0,0,1,.22.15.76.76,0,0,1,.08.7c-.28.66-1.55,1.36-3.44,1.91a11.252,11.252,0,0,1,2.76-2.66Z" fill="#d9a171"/>
      <path id="Trazado_107705" data-name="Trazado 107705" d="M411.93,416.73a.18.18,0,0,0,.07-.05c.74-.88,1.79-3.48,1.22-4.31-.14-.2-.42-.39-1-.19a1.53,1.53,0,0,0-.89.82c-.6,1.3.24,3.52.27,3.62a.21.21,0,0,0,.16.13.2.2,0,0,0,.17-.02Zm.35-4.11.12-.05c.36-.13.45,0,.47,0,.35.49-.28,2.44-1,3.49a4.81,4.81,0,0,1-.16-2.93A1.06,1.06,0,0,1,412.28,412.62Z" fill="#d9a171"/>
      <path id="Trazado_107706" data-name="Trazado 107706" d="M349.29,141.93l-1.72-.41S348.51,142.81,349.29,141.93Z" fill="#344154"/>
      <path id="Trazado_107707" data-name="Trazado 107707" d="M374.53,222.38l1,3.17c.13.24-.16.5-.57.52l-36.7,1.09c-.32,0-.59-.14-.62-.34l-.41-3.19c0-.22.24-.41.59-.42l36.11-1.08a.66.66,0,0,1,.6.25Z" fill="#d9a171"/>
      <path id="Trazado_107708" data-name="Trazado 107708" d="M369.8,226.61h1c.19,0,.33-.11.32-.23l-.58-4.14c0-.12-.19-.21-.38-.21h-1c-.19,0-.33.11-.32.23l.58,4.14C369.44,226.52,369.61,226.61,369.8,226.61Z" fill="#344154"/>
      <path id="Trazado_107709" data-name="Trazado 107709" d="M341,227.46h1c.19,0,.33-.11.32-.23l-.58-4.13c0-.12-.19-.22-.38-.21h-1c-.19,0-.33.11-.32.23l.58,4.13C340.64,227.38,340.81,227.47,341,227.46Z" fill="#344154"/>
      <path id="Trazado_107710" data-name="Trazado 107710" d="M355.4,227h1c.19,0,.33-.11.32-.24l-.58-4.13c0-.12-.19-.21-.38-.21h-1c-.19,0-.33.11-.32.23l.58,4.13C355,227,355.21,227,355.4,227Z" fill="#344154"/>
      <path id="Trazado_107711" data-name="Trazado 107711" d="M400.15,235.11l7,6.41-8.86,1.14s-3.32-4.55-1.74-7.84Z" fill="#ffc3bd"/>
      <path id="Trazado_107712" data-name="Trazado 107712" d="M408.34,248.81l-7.47.55-2.6-6.7,8.86-1.13Z" fill="#ffc3bd"/>
      <path id="Trazado_107713" data-name="Trazado 107713" d="M355.5,127.18s-7.37-3.38-15.5,6.87c9.79,2.91,16.37.89,16.37.89Z" fill="#344154"/>
      <path id="Trazado_107714" data-name="Trazado 107714" d="M354.44,126.27s1.78,25.77,0,38.61c10.34-3.28,20.23-13.51,20.23-13.51S373.22,123.16,354.44,126.27Z" fill="#344154"/>
      <path id="Trazado_107715" data-name="Trazado 107715" d="M349.19,149.11c-2.32,0-4.45-2.87-4.76-6.4a7.14,7.14,0,0,1,1.44-5.38,3,3,0,0,1,2.25-1.06c2.32,0,4.46,2.87,4.77,6.4h0a7.12,7.12,0,0,1-1.45,5.38,3,3,0,0,1-2.25,1.06Zm-1.07-12.34a2.57,2.57,0,0,0-1.88.89,6.69,6.69,0,0,0-1.31,5c.28,3.27,2.2,5.94,4.26,5.94a2.49,2.49,0,0,0,1.88-.9,6.64,6.64,0,0,0,1.32-5h0C352.1,139.43,350.19,136.77,348.12,136.77Z" fill="#fff"/>
      <path id="Trazado_107716" data-name="Trazado 107716" d="M340.48,149.11c-1.88,0-3.6-2.81-3.91-6.4-.21-2.41.29-4.6,1.3-5.7a2,2,0,0,1,1.54-.74c1.88,0,3.59,2.81,3.91,6.4h0c.2,2.41-.3,4.59-1.31,5.7a2.1,2.1,0,0,1-1.53.74Zm-1.07-12.34a1.52,1.52,0,0,0-1.17.58c-.91,1-1.37,3.08-1.17,5.32.27,3.22,1.84,5.94,3.41,5.94a1.6,1.6,0,0,0,1.16-.58c.91-1,1.37-3.08,1.18-5.32h0C342.54,139.49,341,136.77,339.41,136.77Z" fill="#fff"/>
      <path id="Trazado_107717" data-name="Trazado 107717" d="M344.68,142.94h-.11a1.45,1.45,0,0,0-1.37,0,.25.25,0,0,1-.34-.08.23.23,0,0,1,.06-.33h0a2,2,0,0,1,1.85,0,.26.26,0,0,1,.13.33A.28.28,0,0,1,344.68,142.94Z" fill="#fff"/>
    </g>
    <g id="freepik--Desk--inject-12">
      <rect id="Rectángulo_6752" data-name="Rectángulo 6752" width="273.33" height="9.33" transform="translate(113.33 295.22)" fill="#d9a171"/>
      <rect id="Rectángulo_6753" data-name="Rectángulo 6753" width="273.33" height="9.33" transform="translate(113.33 295.22)" fill="#fff" opacity="0.8"/>
      <rect id="Rectángulo_6754" data-name="Rectángulo 6754" width="80" height="9.33" transform="translate(306.67 295.22)" fill="#d9a171" opacity="0.3"/>
      <path id="Trazado_107718" data-name="Trazado 107718" d="M326.17,429.05h-5.33l-7.09-124.5h12.42Z" fill="#d9a171"/>
      <path id="Trazado_107719" data-name="Trazado 107719" d="M381.33,429.05h5.34l-7.09-124.5H367.16Z" fill="#d9a171"/>
      <path id="Trazado_107720" data-name="Trazado 107720" d="M118.67,429.05h-5.34l7.09-124.5h12.42Z" fill="#d9a171"/>
      <path id="Trazado_107721" data-name="Trazado 107721" d="M173.83,429.05h5.33l7.09-124.5H173.83Z" fill="#d9a171"/>
      <path id="Trazado_107722" data-name="Trazado 107722" d="M302.45,250.52H244.13a3,3,0,0,0-2.85,2.43l-6.38,36.53a2,2,0,0,0,1.53,2.38,2.488,2.488,0,0,0,.47,0h58.31a3,3,0,0,0,2.85-2.42L304.44,253a2,2,0,0,0-1.52-2.38,1.879,1.879,0,0,0-.47-.1Z" fill="#d9a171"/>
      <path id="Trazado_107723" data-name="Trazado 107723" d="M302.45,250.52H244.13a3,3,0,0,0-2.85,2.43l-6.38,36.53a2,2,0,0,0,1.53,2.38,2.488,2.488,0,0,0,.47,0h58.31a3,3,0,0,0,2.85-2.42L304.44,253a2,2,0,0,0-1.52-2.38,1.879,1.879,0,0,0-.47-.1Z" fill="#fff" opacity="0.2"/>
      <path id="Trazado_107724" data-name="Trazado 107724" d="M301.33,250.52H243a3,3,0,0,0-2.85,2.43l-6.38,36.53a2,2,0,0,0,1.53,2.38,2.488,2.488,0,0,0,.47,0h58.31a3,3,0,0,0,2.92-2.42L303.38,253a2,2,0,0,0-1.52-2.39,2.321,2.321,0,0,0-.53-.09Z" fill="#d9a171"/>
      <path id="Trazado_107725" data-name="Trazado 107725" d="M301.33,250.52H243a3,3,0,0,0-2.85,2.43l-6.38,36.53a2,2,0,0,0,1.53,2.38,2.488,2.488,0,0,0,.47,0h58.31a3,3,0,0,0,2.92-2.42L303.38,253a2,2,0,0,0-1.52-2.39,2.321,2.321,0,0,0-.53-.09Z" fill="#fff" opacity="0.4"/>
      <path id="Trazado_107726" data-name="Trazado 107726" d="M235.8,290.9a1.06,1.06,0,0,1-.82-.34,1.1,1.1,0,0,1-.2-.91l6.38-36.53a2,2,0,0,1,1.86-1.6h58.31a1.07,1.07,0,0,1,.82.35,1.1,1.1,0,0,1,.2.91L296,289.3a2,2,0,0,1-1.86,1.6Z" fill="#fff"/>
      <path id="Trazado_107727" data-name="Trazado 107727" d="M294.4,291.9H221.06a3.27,3.27,0,0,0-3.25,3.25h79.84a3.27,3.27,0,0,0-3.25-3.25Z" fill="#d9a171"/>
      <path id="Trazado_107728" data-name="Trazado 107728" d="M294.4,291.9H221.06a3.27,3.27,0,0,0-3.25,3.25h79.84a3.27,3.27,0,0,0-3.25-3.25Z" fill="#fff" opacity="0.4"/>
      <path id="Trazado_107729" data-name="Trazado 107729" d="M294.4,291.9H278.06a3.27,3.27,0,0,0-3.25,3.25h22.84a3.27,3.27,0,0,0-3.25-3.25Z" fill="#d9a171" opacity="0.8"/>
      <rect id="Rectángulo_6755" data-name="Rectángulo 6755" width="13.09" height="16.32" rx="1.19" transform="translate(320.91 278.9)" fill="#d9a171"/>
      <path id="Trazado_107730" data-name="Trazado 107730" d="M322.63,286.85l.19-.94h-.9v-1H323l.26-1.32h1l-.27,1.32h.81l.27-1.32h1.05l-.27,1.32h.51v1h-.71l-.19.94h.9v1h-1.11l-.26,1.3h-1l.26-1.29h-.81l-.26,1.3h-1l.26-1.3h-.51v-1Zm1.05,0h.81l.19-.94h-.81Z" fill="#fff"/>
      <path id="Trazado_107731" data-name="Trazado 107731" d="M330.4,283.58v5.5h-1.52v-3.61a4.1,4.1,0,0,1-.71.46,6.489,6.489,0,0,1-.87.33V285a3.86,3.86,0,0,0,1.2-.6,2.381,2.381,0,0,0,.66-.85Z" fill="#fff"/>
      <path id="Trazado_107732" data-name="Trazado 107732" d="M335.23,293.43c-2.59,0-4.62-2.8-4.62-6.37s2.07-6.38,4.62-6.38,4.62,2.86,4.62,6.38S337.82,293.43,335.23,293.43Zm0-11.28c-1.71,0-3.15,2.24-3.15,4.91s1.44,4.9,3.15,4.9,3.15-2.24,3.15-4.9S336.93,282.15,335.23,282.15Z" fill="#d9a171"/>
    </g>
    <g id="freepik--character-1--inject-12">
      <path id="Trazado_107733" data-name="Trazado 107733" d="M181.55,248.49l-.93,1.44-1,1.58c-.65,1.06-1.28,2.14-1.91,3.23-1.24,2.18-2.44,4.39-3.55,6.63a91.66,91.66,0,0,0-5.59,13.71c-.36,1.16-.68,2.32-1,3.48l-.41,1.75-.17.87-.09.44a.65.65,0,0,1-.06.29s-.08,0-.18-.26a1.5,1.5,0,0,0-.48-.58c-.17-.1-.2,0-.11.09a2.909,2.909,0,0,0,.69.47,11.111,11.111,0,0,0,2.69.92,33.284,33.284,0,0,0,3.43.61c2.38.31,5,.46,7.46.59h.25a3.51,3.51,0,0,1,1,6.81,43.149,43.149,0,0,1-8.52,2.11,26.37,26.37,0,0,1-9.78-.25,14.4,14.4,0,0,1-3-1.11,11.4,11.4,0,0,1-3.22-2.42,10.5,10.5,0,0,1-2.34-4.1,11.9,11.9,0,0,1-.41-4.24,2.161,2.161,0,0,1,.06-.71l.07-.55.13-1.12c.11-.73.21-1.47.33-2.2.25-1.46.53-2.91.88-4.33a87.451,87.451,0,0,1,5.74-16.33c1.21-2.58,2.5-5.12,3.91-7.59.7-1.24,1.44-2.46,2.2-3.67.38-.61.77-1.21,1.18-1.82s.79-1.16,1.31-1.88a7,7,0,0,1,11.57,7.86Z" fill="#d9a171"/>
      <path id="Trazado_107734" data-name="Trazado 107734" d="M208.29,208.13c.1.68.54,1.17,1,1.11s.72-.67.62-1.34-.54-1.17-1-1.11S208.19,207.46,208.29,208.13Z" fill="#344154"/>
      <path id="Trazado_107735" data-name="Trazado 107735" d="M208.77,209.31a24.35,24.35,0,0,0,4.08,5.29,3.93,3.93,0,0,1-3.13,1.08Z" fill="#a02724"/>
      <path id="Trazado_107736" data-name="Trazado 107736" d="M205.34,204.75a.39.39,0,0,0,.22-.11,3.15,3.15,0,0,1,2.74-.93.4.4,0,1,0,.17-.78,3.93,3.93,0,0,0-3.47,1.14.42.42,0,0,0,0,.57.4.4,0,0,0,.34.11Z" fill="#344154"/>
      <path id="Trazado_107737" data-name="Trazado 107737" d="M188.48,215.58c.29,6.3-.19,17.68-5.08,21.13,0,0,.75,6.45,12.12,8.15,12.49,1.86,6.9-5.32,6.9-5.32-6.58-2.64-5.65-7.68-3.75-12.25Z" fill="#b55b52"/>
      <path id="Trazado_107738" data-name="Trazado 107738" d="M181.44,239.23c-.49-2.85-1-6.1,1.15-6.6,2.36-.55,14.58,1.08,18.44,4s1.88,8,1.88,8Z" fill="#e0e0e0"/>
      <path id="Trazado_107739" data-name="Trazado 107739" d="M214.39,249.85c.46,10.08,0,30.07-6.84,60.33H162.33c-.28-6.29,6.21-33.41,5.65-63.21A11.26,11.26,0,0,1,179,235.5h.18a24.523,24.523,0,0,1,2.8.11,160.79,160.79,0,0,1,19.06,2.48c1.88.43,3.71.93,5.37,1.44A11.33,11.33,0,0,1,214.39,249.85Z" fill="#d9a171"/>
      <path id="Trazado_107740" data-name="Trazado 107740" d="M207.56,268c-.72,5.12-2.38,14,3.61,23.82.68-4.07,1.23-7.88,1.68-11.44Z" opacity="0.2"/>
      <path id="Trazado_107741" data-name="Trazado 107741" d="M242.8,280.38l7.61-2.62-3.1-8a9.65,9.65,0,0,0-7.69,6.27Z" fill="#b55b52"/>
      <path id="Trazado_107742" data-name="Trazado 107742" d="M254.44,275.48l.81-6.46-7.94.66,3.1,8.03Z" fill="#b55b52"/>
      <path id="Trazado_107743" data-name="Trazado 107743" d="M214.34,248.92c.42,1.47.94,3.18,1.44,4.78s1,3.24,1.58,4.85c1.08,3.22,2.27,6.39,3.52,9.49A90.2,90.2,0,0,0,225,277a39.631,39.631,0,0,0,5,7.43l-7.33-1.13c1.41-.61,2.86-1.24,4.32-2s2.95-1.44,4.42-2.24l4.5-2.37c1.5-.79,3-1.65,4.53-2.39l.16-.08a3.54,3.54,0,0,1,4.41,5.3,51.9,51.9,0,0,1-3.58,4.25c-1.25,1.35-2.56,2.63-3.92,3.89s-2.8,2.45-4.3,3.59a54.157,54.157,0,0,1-4.78,3.26,5.78,5.78,0,0,1-6.94-.77l-.39-.37a46.759,46.759,0,0,1-7.65-9.67,86.144,86.144,0,0,1-5.35-10.15c-1.57-3.43-2.92-6.91-4.15-10.41-.61-1.75-1.2-3.51-1.73-5.28s-1-3.51-1.51-5.47a7,7,0,0,1,13.53-3.61Z" fill="#d9a171"/>
      <path id="Trazado_107744" data-name="Trazado 107744" d="M185.58,210.07c1.75,8.2,2.35,13.09,7.17,16.72,7.25,5.46,16.91.14,17.65-8.43.66-7.71-2.3-19.83-10.9-21.92a11.46,11.46,0,0,0-13.92,13.63Z" fill="#b55b52"/>
      <path id="Trazado_107745" data-name="Trazado 107745" d="M203.25,210.93c3.92-.3,3.69-2.11,2.81-3.44s-1.95-6.11-1.95-6.11,5.45,1.44,4.33-3.78-8.48-11.83-14.91-7.78c-12.81-2.11-17,3.06-15,7.84-10.17,4.5-2.83,13.61,1.22,13.61-3.61,3.22,1.78,7.86,10.52,13.07C196.67,216.63,206.11,218.7,203.25,210.93Z" fill="#344154"/>
      <path id="Trazado_107746" data-name="Trazado 107746" d="M195.33,192.44a1,1,0,0,1-.71-.31A12.07,12.07,0,0,0,183,189a1,1,0,1,1-.46-1.94,14.19,14.19,0,0,1,13.54,3.72,1,1,0,0,1-.75,1.7Z" fill="#344154"/>
      <path id="Trazado_107747" data-name="Trazado 107747" d="M182.08,220.38a1,1,0,0,1-.71-.29c-2.82-2.84-4-5.06-3.64-7a4.53,4.53,0,0,1,2.84-3.24,1,1,0,1,1,.86,1.81c-1.05.5-1.61,1.08-1.73,1.77s.28,2.42,3.09,5.24a1,1,0,0,1,0,1.41h0A1,1,0,0,1,182.08,220.38Z" fill="#344154"/>
      <path id="Trazado_107748" data-name="Trazado 107748" d="M198.43,210.29a9.57,9.57,0,0,0,3.7,4.84c2.29,1.51,3.84-.2,3.54-2.67-.27-2.23-1.79-5.7-4.25-6.23S197.66,207.9,198.43,210.29Z" fill="#b55b52"/>
      <path id="Trazado_107749" data-name="Trazado 107749" d="M276.62,421.73c1.08,0,2.13-.15,2.48-.63a.78.78,0,0,0,0-.88,1,1,0,0,0-.63-.47c-1.41-.38-4.36,1.3-4.49,1.38a.18.18,0,0,0-.09.2.2.2,0,0,0,.15.17,16,16,0,0,0,2.58.23Zm1.34-1.64a1.581,1.581,0,0,1,.38.05.58.58,0,0,1,.4.28c.14.25.09.37,0,.44-.4.55-2.54.56-4.11.34a9.18,9.18,0,0,1,3.37-1.11Z" fill="#d9a171"/>
      <path id="Trazado_107750" data-name="Trazado 107750" d="M274.06,421.5h.08c1-.45,3.05-2.28,2.89-3.24,0-.22-.19-.5-.74-.56a1.49,1.49,0,0,0-1.11.34c-1.08.89-1.31,3.17-1.32,3.26a.21.21,0,0,0,.09.18.14.14,0,0,0,.11.02Zm2.07-3.43h.12c.36,0,.38.18.39.22.09.58-1.28,2-2.33,2.64a4.76,4.76,0,0,1,1.12-2.61,1.11,1.11,0,0,1,.7-.25Z" fill="#d9a171"/>
      <path id="Trazado_107751" data-name="Trazado 107751" d="M264.45,421.3h8.46l-1.61-19.58h-8.46Z" fill="#b55b52"/>
      <path id="Trazado_107752" data-name="Trazado 107752" d="M272.92,420.32h-9.23a.62.62,0,0,0-.64.58l-.55,7.48a1.46,1.46,0,0,0,1.41,1.51h0c3.32-.06,8.1-.25,12.29-.25,4.89,0,5.4.26,11.14.26,3.47,0,3.91-3.51,2.41-3.82-6.82-1.45-8.49-1.61-14.73-5.13a4.44,4.44,0,0,0-2.1-.63Z" fill="#344154"/>
      <path id="Trazado_107753" data-name="Trazado 107753" d="M271.29,401.73l.84,10.09h-8.46l-.83-10.09Z" opacity="0.2"/>
      <path id="Trazado_107754" data-name="Trazado 107754" d="M224,421.73a2.76,2.76,0,0,0,2-.55.84.84,0,0,0,0-1,.9.9,0,0,0-.63-.46c-1.23-.29-3.57,1.31-3.67,1.38a.22.22,0,0,0-.08.2.17.17,0,0,0,.15.15,9.871,9.871,0,0,0,2.23.28Zm1.06-1.61h.25a.54.54,0,0,1,.37.27c.18.33.07.47,0,.51-.36.48-2.09.48-3.35.27a6.59,6.59,0,0,1,2.67-1.05Z" fill="#d9a171"/>
      <path id="Trazado_107755" data-name="Trazado 107755" d="M221.82,421.5h.09c.88-.48,2.57-2.33,2.39-3.27a.65.65,0,0,0-.64-.53,1.09,1.09,0,0,0-.85.26c-1,.8-1.19,3.24-1.19,3.34a.16.16,0,0,0,.2.2Zm1.7-3.43h.09c.26,0,.29.15.3.2.1.56-1,2-1.85,2.62a4.83,4.83,0,0,1,1-2.65.71.71,0,0,1,.46-.17Z" fill="#d9a171"/>
      <path id="Trazado_107756" data-name="Trazado 107756" d="M214.08,421.3h8.45l4.25-19.58h-8.45Z" fill="#b55b52"/>
      <path id="Trazado_107757" data-name="Trazado 107757" d="M223.13,420.32h-9.49a.73.73,0,0,0-.72.58l-1.67,7.48a1.24,1.24,0,0,0,.94,1.48,1.434,1.434,0,0,0,.29,0c3.32-.06,4.93-.25,9.11-.25,2.57,0,5.86.26,9.41.26s4-3.51,2.56-3.82c-6.51-1.43-7-3.39-9.05-5.27a2.05,2.05,0,0,0-1.38-.46Z" fill="#344154"/>
      <path id="Trazado_107758" data-name="Trazado 107758" d="M194,310.18s46.9,14.23,48.06,33.07c2.13,34.7-14.89,64.27-14.89,64.27H214.49s4.82-14.66,6.55-46.09c2.17-39.5-72.52.92-58.71-51.25Z"/>
      <g id="Grupo_60155" data-name="Grupo 60155" opacity="0.2">
        <path id="Trazado_107759" data-name="Trazado 107759" d="M218.32,401.73h8.46l-2.19,10.09h-8.46Z"/>
      </g>
      <path id="Trazado_107760" data-name="Trazado 107760" d="M207.55,310.18s60.65,4,63.05,36.19c2.75,37,3.55,61.15,3.55,61.15H261.59s-6.46-22.69-12-55.31c-1.67-9.77-22.39-11.45-42-12.61-16.9-1-29.88-2-31.3-20.72l.22-8.7Z" fill="#344154"/>
      <path id="Trazado_107761" data-name="Trazado 107761" d="M277.22,404.16c.07,0-.81,6-.81,6H259l-.47-5.31Z" fill="#d9a171"/>
      <path id="Trazado_107762" data-name="Trazado 107762" d="M231,404.16c.07,0-1.6,6-1.6,6H212l.32-5.31Z" fill="#d9a171"/>
      <path id="Trazado_107763" data-name="Trazado 107763" d="M204.82,336.94l-8.49-57.67a6.57,6.57,0,0,0-6.5-5.62H139.74a6.57,6.57,0,0,0-6.57,6.57,6.2,6.2,0,0,0,.07,1l8.2,55.76h0a4.87,4.87,0,0,0,4.88,4.88h91.32a4.87,4.87,0,0,0-4.88-4.88H204.82Z" fill="#d9a171"/>
      <path id="Trazado_107764" data-name="Trazado 107764" d="M204.82,336.94l-8.49-57.67a6.57,6.57,0,0,0-6.5-5.62H139.74a6.57,6.57,0,0,0-6.57,6.57,6.2,6.2,0,0,0,.07,1l8.2,55.76h0a4.87,4.87,0,0,0,4.88,4.88h91.32a4.87,4.87,0,0,0-4.88-4.88H204.82Z" fill="#fff" opacity="0.5"/>
      <path id="Trazado_107765" data-name="Trazado 107765" d="M189.83,273.65H139.74a6.57,6.57,0,0,0-6.57,6.57,6.2,6.2,0,0,0,.07,1l8.2,55.76a4.87,4.87,0,0,0,4.88,4.88h53.12Z" fill="#d9a171" opacity="0.3"/>
      <path id="Trazado_107766" data-name="Trazado 107766" d="M142.08,430.62h-2.83l7.08-88.8h2.84Z" fill="#d9a171"/>
      <path id="Trazado_107767" data-name="Trazado 107767" d="M142.08,430.62h-2.83l7.08-88.8h2.84Z" fill="#fff" opacity="0.6"/>
      <path id="Trazado_107768" data-name="Trazado 107768" d="M190.23,430.62H187.4l7.09-88.8h2.83Z" fill="#d9a171"/>
      <path id="Trazado_107769" data-name="Trazado 107769" d="M190.23,430.62H187.4l7.09-88.8h2.83Z" fill="#fff" opacity="0.6"/>
      <path id="Trazado_107770" data-name="Trazado 107770" d="M194.59,430.62h-2.84l-7.08-88.8h2.83Z" fill="#d9a171"/>
      <path id="Trazado_107771" data-name="Trazado 107771" d="M194.59,430.62h-2.84l-7.08-88.8h2.83Z" fill="#fff" opacity="0.7"/>
      <path id="Trazado_107772" data-name="Trazado 107772" d="M242.74,430.62h-2.83l-7.09-88.8h2.83Z" fill="#d9a171"/>
      <path id="Trazado_107773" data-name="Trazado 107773" d="M242.74,430.62h-2.83l-7.09-88.8h2.83Z" fill="#fff" opacity="0.7"/>
    </g>
  </g>
</svg>
