<svg xmlns="http://www.w3.org/2000/svg" xmlns:xlink="http://www.w3.org/1999/xlink" width="904.898" height="696.828" viewBox="0 0 904.898 696.828">
  <defs>
    <clipPath id="clip-path">
      <path id="Trazado_109211" data-name="Trazado 109211" d="M678.359,6408.474h323.335V6447.6H678.359v-39.125Z" fill="none" opacity="0" clip-rule="evenodd"/>
    </clipPath>
  </defs>
  <g id="Grupo_62404" data-name="Grupo 62404" transform="translate(9365 6547.224)">
    <path id="Trazado_109347" data-name="Trazado 109347" d="M13.516-8.117q0,4.248-1.451,6.313A5.16,5.16,0,0,1,7.529.261a5.2,5.2,0,0,1-4.51-2.02A10.5,10.5,0,0,1,1.5-7.79v-3.229q0-4.2,1.451-6.235A5.2,5.2,0,0,1,7.5-19.293a5.247,5.247,0,0,1,4.523,1.967q1.451,1.967,1.49,6.072ZM11.1-11.424a8.86,8.86,0,0,0-.863-4.477A2.969,2.969,0,0,0,7.5-17.306a2.93,2.93,0,0,0-2.706,1.4,8.652,8.652,0,0,0-.876,4.3v3.869a9,9,0,0,0,.9,4.555A2.964,2.964,0,0,0,7.529-1.712,2.923,2.923,0,0,0,10.189-3.1,8.677,8.677,0,0,0,11.1-7.464Z" transform="translate(-9360.395 -6475.148)" fill="#d9a171"/>
    <path id="Trazado_109348" data-name="Trazado 109348" d="M11.79-6.392h2.64v1.974H11.79V0H9.359V-4.418H.693V-5.843L9.215-19.032H11.79Zm-8.353,0H9.359v-9.333l-.288.523Zm25.11-1.725q0,4.248-1.451,6.313A5.16,5.16,0,0,1,22.561.261a5.2,5.2,0,0,1-4.51-2.02A10.5,10.5,0,0,1,16.535-7.79v-3.229q0-4.2,1.451-6.235a5.2,5.2,0,0,1,4.549-2.039,5.247,5.247,0,0,1,4.523,1.967q1.451,1.967,1.49,6.072Zm-2.418-3.307a8.86,8.86,0,0,0-.863-4.477,2.969,2.969,0,0,0-2.732-1.405,2.93,2.93,0,0,0-2.706,1.4,8.652,8.652,0,0,0-.876,4.3v3.869a9,9,0,0,0,.9,4.555,2.964,2.964,0,0,0,2.712,1.471A2.923,2.923,0,0,0,25.221-3.1a8.677,8.677,0,0,0,.908-4.366ZM43.58-8.117q0,4.248-1.451,6.313A5.16,5.16,0,0,1,37.593.261a5.2,5.2,0,0,1-4.51-2.02A10.5,10.5,0,0,1,31.567-7.79v-3.229q0-4.2,1.451-6.235a5.2,5.2,0,0,1,4.549-2.039,5.247,5.247,0,0,1,4.523,1.967q1.451,1.967,1.49,6.072Zm-2.418-3.307A8.86,8.86,0,0,0,40.3-15.9a2.969,2.969,0,0,0-2.732-1.405,2.93,2.93,0,0,0-2.706,1.4,8.652,8.652,0,0,0-.876,4.3v3.869a9,9,0,0,0,.9,4.555,2.964,2.964,0,0,0,2.712,1.471A2.923,2.923,0,0,0,40.253-3.1a8.677,8.677,0,0,0,.908-4.366ZM46.978-1.268a1.514,1.514,0,0,1,.373-1.046,1.42,1.42,0,0,1,1.118-.418,1.462,1.462,0,0,1,1.131.418,1.484,1.484,0,0,1,.386,1.046A1.4,1.4,0,0,1,49.6-.261a1.488,1.488,0,0,1-1.131.405,1.445,1.445,0,0,1-1.118-.405A1.431,1.431,0,0,1,46.978-1.268ZM65.657-8.117q0,4.248-1.451,6.313A5.16,5.16,0,0,1,59.67.261a5.2,5.2,0,0,1-4.51-2.02A10.5,10.5,0,0,1,53.644-7.79v-3.229q0-4.2,1.451-6.235a5.2,5.2,0,0,1,4.549-2.039,5.247,5.247,0,0,1,4.523,1.967q1.451,1.967,1.49,6.072Zm-2.418-3.307a8.861,8.861,0,0,0-.863-4.477,2.969,2.969,0,0,0-2.732-1.405,2.93,2.93,0,0,0-2.706,1.4,8.652,8.652,0,0,0-.876,4.3v3.869a9,9,0,0,0,.9,4.555A2.964,2.964,0,0,0,59.67-1.712,2.923,2.923,0,0,0,62.33-3.1a8.677,8.677,0,0,0,.908-4.366Zm17.45,3.307q0,4.248-1.451,6.313A5.16,5.16,0,0,1,74.7.261a5.2,5.2,0,0,1-4.51-2.02A10.5,10.5,0,0,1,68.676-7.79v-3.229q0-4.2,1.451-6.235a5.2,5.2,0,0,1,4.549-2.039A5.247,5.247,0,0,1,79.2-17.326q1.451,1.967,1.49,6.072Zm-2.418-3.307a8.86,8.86,0,0,0-.863-4.477,2.969,2.969,0,0,0-2.732-1.405,2.93,2.93,0,0,0-2.706,1.4,8.652,8.652,0,0,0-.876,4.3v3.869a9,9,0,0,0,.9,4.555A2.964,2.964,0,0,0,74.7-1.712,2.923,2.923,0,0,0,77.362-3.1a8.677,8.677,0,0,0,.908-4.366Zm17.45,3.307q0,4.248-1.451,6.313A5.16,5.16,0,0,1,89.734.261a5.2,5.2,0,0,1-4.51-2.02A10.5,10.5,0,0,1,83.708-7.79v-3.229q0-4.2,1.451-6.235a5.2,5.2,0,0,1,4.549-2.039,5.247,5.247,0,0,1,4.523,1.967q1.451,1.967,1.49,6.072ZM93.3-11.424A8.86,8.86,0,0,0,92.44-15.9a2.969,2.969,0,0,0-2.732-1.405A2.93,2.93,0,0,0,87-15.908a8.652,8.652,0,0,0-.876,4.3v3.869a9,9,0,0,0,.9,4.555,2.964,2.964,0,0,0,2.712,1.471A2.923,2.923,0,0,0,92.394-3.1,8.677,8.677,0,0,0,93.3-7.464Z" transform="translate(-9286.996 -6475.148)" fill="#344154"/>
    <path id="Trazado_109349" data-name="Trazado 109349" d="M11.071-19.045v2.052h-.444a6.367,6.367,0,0,0-4.5,1.673A6.962,6.962,0,0,0,4.2-10.758a5.162,5.162,0,0,1,4.1-1.725,4.935,4.935,0,0,1,3.967,1.752,6.756,6.756,0,0,1,1.484,4.523A6.735,6.735,0,0,1,12.15-1.5,5.514,5.514,0,0,1,7.856.261a5.433,5.433,0,0,1-4.431-2.1,8.315,8.315,0,0,1-1.7-5.4V-8.17q0-5.255,2.242-8.032t6.673-2.843ZM7.9-10.47a3.858,3.858,0,0,0-2.287.745A3.882,3.882,0,0,0,4.157-7.856v.889A6.243,6.243,0,0,0,5.215-3.176a3.173,3.173,0,0,0,2.64,1.438,3.074,3.074,0,0,0,2.569-1.2,4.99,4.99,0,0,0,.935-3.15,4.992,4.992,0,0,0-.948-3.17A3.038,3.038,0,0,0,7.9-10.47ZM28.548-8.117q0,4.248-1.451,6.313A5.16,5.16,0,0,1,22.561.261a5.2,5.2,0,0,1-4.51-2.02A10.5,10.5,0,0,1,16.535-7.79v-3.229q0-4.2,1.451-6.235a5.2,5.2,0,0,1,4.549-2.039,5.247,5.247,0,0,1,4.523,1.967q1.451,1.967,1.49,6.072Zm-2.418-3.307a8.86,8.86,0,0,0-.863-4.477,2.969,2.969,0,0,0-2.732-1.405,2.93,2.93,0,0,0-2.706,1.4,8.652,8.652,0,0,0-.876,4.3v3.869a9,9,0,0,0,.9,4.555,2.964,2.964,0,0,0,2.712,1.471A2.923,2.923,0,0,0,25.221-3.1a8.677,8.677,0,0,0,.908-4.366ZM31.946-1.268a1.514,1.514,0,0,1,.373-1.046,1.42,1.42,0,0,1,1.118-.418,1.462,1.462,0,0,1,1.131.418,1.484,1.484,0,0,1,.386,1.046,1.4,1.4,0,0,1-.386,1.006,1.488,1.488,0,0,1-1.131.405,1.445,1.445,0,0,1-1.118-.405A1.431,1.431,0,0,1,31.946-1.268ZM50.625-8.117q0,4.248-1.451,6.313A5.16,5.16,0,0,1,44.638.261a5.2,5.2,0,0,1-4.51-2.02A10.5,10.5,0,0,1,38.612-7.79v-3.229q0-4.2,1.451-6.235a5.2,5.2,0,0,1,4.549-2.039,5.247,5.247,0,0,1,4.523,1.967q1.451,1.967,1.49,6.072Zm-2.418-3.307a8.861,8.861,0,0,0-.863-4.477,2.969,2.969,0,0,0-2.732-1.405,2.93,2.93,0,0,0-2.706,1.4,8.652,8.652,0,0,0-.876,4.3v3.869a9,9,0,0,0,.9,4.555,2.964,2.964,0,0,0,2.712,1.471A2.923,2.923,0,0,0,47.3-3.1a8.677,8.677,0,0,0,.908-4.366Zm17.45,3.307q0,4.248-1.451,6.313A5.16,5.16,0,0,1,59.67.261a5.2,5.2,0,0,1-4.51-2.02A10.5,10.5,0,0,1,53.644-7.79v-3.229q0-4.2,1.451-6.235a5.2,5.2,0,0,1,4.549-2.039,5.247,5.247,0,0,1,4.523,1.967q1.451,1.967,1.49,6.072Zm-2.418-3.307a8.861,8.861,0,0,0-.863-4.477,2.969,2.969,0,0,0-2.732-1.405,2.93,2.93,0,0,0-2.706,1.4,8.652,8.652,0,0,0-.876,4.3v3.869a9,9,0,0,0,.9,4.555A2.964,2.964,0,0,0,59.67-1.712,2.923,2.923,0,0,0,62.33-3.1a8.677,8.677,0,0,0,.908-4.366Zm17.45,3.307q0,4.248-1.451,6.313A5.16,5.16,0,0,1,74.7.261a5.2,5.2,0,0,1-4.51-2.02A10.5,10.5,0,0,1,68.676-7.79v-3.229q0-4.2,1.451-6.235a5.2,5.2,0,0,1,4.549-2.039A5.247,5.247,0,0,1,79.2-17.326q1.451,1.967,1.49,6.072Zm-2.418-3.307a8.86,8.86,0,0,0-.863-4.477,2.969,2.969,0,0,0-2.732-1.405,2.93,2.93,0,0,0-2.706,1.4,8.652,8.652,0,0,0-.876,4.3v3.869a9,9,0,0,0,.9,4.555A2.964,2.964,0,0,0,74.7-1.712,2.923,2.923,0,0,0,77.362-3.1a8.677,8.677,0,0,0,.908-4.366Z" transform="translate(-9100.132 -6475.148)" fill="#344154"/>
    <path id="Trazado_109350" data-name="Trazado 109350" d="M9.529,0H7.1V-16.117L2.222-14.326v-2.2l6.928-2.6h.379Z" transform="translate(-9360.395 -6433.981)" fill="#d9a171"/>
    <path id="Trazado_109351" data-name="Trazado 109351" d="M11.071-19.045v2.052h-.444a6.367,6.367,0,0,0-4.5,1.673A6.962,6.962,0,0,0,4.2-10.758a5.162,5.162,0,0,1,4.1-1.725,4.935,4.935,0,0,1,3.967,1.752,6.756,6.756,0,0,1,1.484,4.523A6.735,6.735,0,0,1,12.15-1.5,5.514,5.514,0,0,1,7.856.261a5.433,5.433,0,0,1-4.431-2.1,8.315,8.315,0,0,1-1.7-5.4V-8.17q0-5.255,2.242-8.032t6.673-2.843ZM7.9-10.47a3.858,3.858,0,0,0-2.287.745A3.882,3.882,0,0,0,4.157-7.856v.889A6.243,6.243,0,0,0,5.215-3.176a3.173,3.173,0,0,0,2.64,1.438,3.074,3.074,0,0,0,2.569-1.2,4.99,4.99,0,0,0,.935-3.15,4.992,4.992,0,0,0-.948-3.17A3.038,3.038,0,0,0,7.9-10.47ZM26.1-19.045v2.052h-.444a6.367,6.367,0,0,0-4.5,1.673,6.962,6.962,0,0,0-1.935,4.562,5.162,5.162,0,0,1,4.1-1.725A4.935,4.935,0,0,1,27.3-10.731a6.756,6.756,0,0,1,1.484,4.523,6.734,6.734,0,0,1-1.6,4.706A5.514,5.514,0,0,1,22.888.261a5.433,5.433,0,0,1-4.431-2.1,8.315,8.315,0,0,1-1.7-5.4V-8.17q0-5.255,2.242-8.032t6.673-2.843ZM22.927-10.47a3.858,3.858,0,0,0-2.287.745,3.882,3.882,0,0,0-1.451,1.869v.889a6.243,6.243,0,0,0,1.059,3.791,3.173,3.173,0,0,0,2.64,1.438,3.074,3.074,0,0,0,2.569-1.2,4.99,4.99,0,0,0,.935-3.15,4.992,4.992,0,0,0-.948-3.17A3.038,3.038,0,0,0,22.927-10.47ZM43.58-8.117q0,4.248-1.451,6.313A5.16,5.16,0,0,1,37.593.261a5.2,5.2,0,0,1-4.51-2.02A10.5,10.5,0,0,1,31.567-7.79v-3.229q0-4.2,1.451-6.235a5.2,5.2,0,0,1,4.549-2.039,5.247,5.247,0,0,1,4.523,1.967q1.451,1.967,1.49,6.072Zm-2.418-3.307A8.86,8.86,0,0,0,40.3-15.9a2.969,2.969,0,0,0-2.732-1.405,2.93,2.93,0,0,0-2.706,1.4,8.652,8.652,0,0,0-.876,4.3v3.869a9,9,0,0,0,.9,4.555,2.964,2.964,0,0,0,2.712,1.471A2.923,2.923,0,0,0,40.253-3.1a8.677,8.677,0,0,0,.908-4.366ZM46.978-1.268a1.514,1.514,0,0,1,.373-1.046,1.42,1.42,0,0,1,1.118-.418,1.462,1.462,0,0,1,1.131.418,1.484,1.484,0,0,1,.386,1.046A1.4,1.4,0,0,1,49.6-.261a1.488,1.488,0,0,1-1.131.405,1.445,1.445,0,0,1-1.118-.405A1.431,1.431,0,0,1,46.978-1.268ZM65.657-8.117q0,4.248-1.451,6.313A5.16,5.16,0,0,1,59.67.261a5.2,5.2,0,0,1-4.51-2.02A10.5,10.5,0,0,1,53.644-7.79v-3.229q0-4.2,1.451-6.235a5.2,5.2,0,0,1,4.549-2.039,5.247,5.247,0,0,1,4.523,1.967q1.451,1.967,1.49,6.072Zm-2.418-3.307a8.861,8.861,0,0,0-.863-4.477,2.969,2.969,0,0,0-2.732-1.405,2.93,2.93,0,0,0-2.706,1.4,8.652,8.652,0,0,0-.876,4.3v3.869a9,9,0,0,0,.9,4.555A2.964,2.964,0,0,0,59.67-1.712,2.923,2.923,0,0,0,62.33-3.1a8.677,8.677,0,0,0,.908-4.366Zm17.45,3.307q0,4.248-1.451,6.313A5.16,5.16,0,0,1,74.7.261a5.2,5.2,0,0,1-4.51-2.02A10.5,10.5,0,0,1,68.676-7.79v-3.229q0-4.2,1.451-6.235a5.2,5.2,0,0,1,4.549-2.039A5.247,5.247,0,0,1,79.2-17.326q1.451,1.967,1.49,6.072Zm-2.418-3.307a8.86,8.86,0,0,0-.863-4.477,2.969,2.969,0,0,0-2.732-1.405,2.93,2.93,0,0,0-2.706,1.4,8.652,8.652,0,0,0-.876,4.3v3.869a9,9,0,0,0,.9,4.555A2.964,2.964,0,0,0,74.7-1.712,2.923,2.923,0,0,0,77.362-3.1a8.677,8.677,0,0,0,.908-4.366Zm17.45,3.307q0,4.248-1.451,6.313A5.16,5.16,0,0,1,89.734.261a5.2,5.2,0,0,1-4.51-2.02A10.5,10.5,0,0,1,83.708-7.79v-3.229q0-4.2,1.451-6.235a5.2,5.2,0,0,1,4.549-2.039,5.247,5.247,0,0,1,4.523,1.967q1.451,1.967,1.49,6.072ZM93.3-11.424A8.86,8.86,0,0,0,92.44-15.9a2.969,2.969,0,0,0-2.732-1.405A2.93,2.93,0,0,0,87-15.908a8.652,8.652,0,0,0-.876,4.3v3.869a9,9,0,0,0,.9,4.555,2.964,2.964,0,0,0,2.712,1.471A2.923,2.923,0,0,0,92.394-3.1,8.677,8.677,0,0,0,93.3-7.464Z" transform="translate(-9286.996 -6433.981)" fill="#344154"/>
    <path id="Trazado_109352" data-name="Trazado 109352" d="M9.529,0H7.1V-16.117L2.222-14.326v-2.2l6.928-2.6h.379Zm7.385-1.268a1.514,1.514,0,0,1,.373-1.046A1.42,1.42,0,0,1,18.4-2.732a1.462,1.462,0,0,1,1.131.418,1.484,1.484,0,0,1,.386,1.046,1.4,1.4,0,0,1-.386,1.006A1.488,1.488,0,0,1,18.4.144a1.445,1.445,0,0,1-1.118-.405A1.431,1.431,0,0,1,16.914-1.268ZM35.593-8.117q0,4.248-1.451,6.313A5.16,5.16,0,0,1,29.606.261a5.2,5.2,0,0,1-4.51-2.02A10.5,10.5,0,0,1,23.581-7.79v-3.229q0-4.2,1.451-6.235a5.2,5.2,0,0,1,4.549-2.039A5.247,5.247,0,0,1,34.1-17.326q1.451,1.967,1.49,6.072Zm-2.418-3.307a8.86,8.86,0,0,0-.863-4.477,2.969,2.969,0,0,0-2.732-1.405,2.93,2.93,0,0,0-2.706,1.4,8.652,8.652,0,0,0-.876,4.3v3.869a9,9,0,0,0,.9,4.555,2.964,2.964,0,0,0,2.712,1.471A2.923,2.923,0,0,0,32.266-3.1a8.677,8.677,0,0,0,.908-4.366ZM48.9-6.392h2.64v1.974H48.9V0H46.468V-4.418H37.8V-5.843l8.522-13.189H48.9Zm-8.353,0h5.921v-9.333l-.288.523Zm24.718-7.673a4.419,4.419,0,0,1-.752,2.536A5.114,5.114,0,0,1,62.481-9.79,5.455,5.455,0,0,1,64.84-7.921a4.7,4.7,0,0,1,.869,2.784A4.973,4.973,0,0,1,64.043-1.2,6.4,6.4,0,0,1,59.657.261a6.374,6.374,0,0,1-4.4-1.471,5,5,0,0,1-1.654-3.928,4.844,4.844,0,0,1,.843-2.784A5.247,5.247,0,0,1,56.782-9.8a4.988,4.988,0,0,1-2-1.738,4.482,4.482,0,0,1-.732-2.523,4.919,4.919,0,0,1,1.542-3.817,5.786,5.786,0,0,1,4.065-1.412,5.791,5.791,0,0,1,4.059,1.412A4.909,4.909,0,0,1,65.265-14.065ZM63.291-5.189a3.508,3.508,0,0,0-1.013-2.6A3.593,3.593,0,0,0,59.631-8.8,3.529,3.529,0,0,0,57.01-7.8a3.547,3.547,0,0,0-.987,2.614,3.378,3.378,0,0,0,.961,2.549,3.688,3.688,0,0,0,2.673.928,3.677,3.677,0,0,0,2.667-.935A3.37,3.37,0,0,0,63.291-5.189ZM59.657-17.306a3.12,3.12,0,0,0-2.307.882,3.241,3.241,0,0,0-.882,2.4,3.226,3.226,0,0,0,.869,2.346,3.085,3.085,0,0,0,2.32.9,3.085,3.085,0,0,0,2.32-.9,3.226,3.226,0,0,0,.869-2.346,3.227,3.227,0,0,0-.9-2.366A3.076,3.076,0,0,0,59.657-17.306Zm9.4,16.038a1.514,1.514,0,0,1,.373-1.046,1.42,1.42,0,0,1,1.118-.418,1.462,1.462,0,0,1,1.131.418,1.484,1.484,0,0,1,.386,1.046,1.4,1.4,0,0,1-.386,1.006,1.488,1.488,0,0,1-1.131.405,1.445,1.445,0,0,1-1.118-.405A1.431,1.431,0,0,1,69.055-1.268ZM88.27,0H75.8V-1.738l6.588-7.32a15.651,15.651,0,0,0,2.02-2.7,4.5,4.5,0,0,0,.556-2.15,3.415,3.415,0,0,0-.9-2.444,3.154,3.154,0,0,0-2.405-.954,3.735,3.735,0,0,0-2.8,1.026,3.919,3.919,0,0,0-1,2.856H75.434a5.613,5.613,0,0,1,1.693-4.248,6.275,6.275,0,0,1,4.529-1.621,6.03,6.03,0,0,1,4.2,1.392A4.749,4.749,0,0,1,87.394-14.2q0,2.81-3.582,6.692l-5.1,5.529H88.27Zm14.849-17.672L95.237,0H92.7l7.856-17.045h-10.3v-1.987h12.862Zm12.235-1.372v2.052h-.444a6.367,6.367,0,0,0-4.5,1.673,6.962,6.962,0,0,0-1.935,4.562,5.162,5.162,0,0,1,4.1-1.725,4.935,4.935,0,0,1,3.967,1.752,6.756,6.756,0,0,1,1.484,4.523,6.735,6.735,0,0,1-1.6,4.706A5.514,5.514,0,0,1,112.138.261a5.433,5.433,0,0,1-4.431-2.1,8.315,8.315,0,0,1-1.7-5.4V-8.17q0-5.255,2.242-8.032t6.673-2.843Zm-3.176,8.575a3.858,3.858,0,0,0-2.287.745,3.882,3.882,0,0,0-1.451,1.869v.889A6.243,6.243,0,0,0,109.5-3.176a3.173,3.173,0,0,0,2.64,1.438,3.074,3.074,0,0,0,2.569-1.2,4.99,4.99,0,0,0,.935-3.15,4.992,4.992,0,0,0-.948-3.17A3.038,3.038,0,0,0,112.177-10.47Z" transform="translate(-9136.73 -6433.981)" fill="#344154"/>
    <path id="Trazado_109353" data-name="Trazado 109353" d="M14.052,0H1.582V-1.738L8.17-9.058a15.651,15.651,0,0,0,2.02-2.7,4.5,4.5,0,0,0,.556-2.15,3.415,3.415,0,0,0-.9-2.444,3.154,3.154,0,0,0-2.405-.954,3.735,3.735,0,0,0-2.8,1.026,3.919,3.919,0,0,0-1,2.856H1.216a5.613,5.613,0,0,1,1.693-4.248,6.275,6.275,0,0,1,4.529-1.621,6.03,6.03,0,0,1,4.2,1.392A4.748,4.748,0,0,1,13.176-14.2q0,2.81-3.582,6.692L4.5-1.974h9.555Z" transform="translate(-9360.395 -6392.783)" fill="#d9a171"/>
    <path id="Trazado_109354" data-name="Trazado 109354" d="M6.715-11.551v1.245h-.27A3.862,3.862,0,0,0,3.718-9.292,4.223,4.223,0,0,0,2.545-6.525,3.131,3.131,0,0,1,5.034-7.571,2.993,2.993,0,0,1,7.44-6.509a4.1,4.1,0,0,1,.9,2.743A4.085,4.085,0,0,1,7.369-.912a3.344,3.344,0,0,1-2.6,1.07A3.3,3.3,0,0,1,2.077-1.114,5.043,5.043,0,0,1,1.046-4.392v-.563a7.6,7.6,0,0,1,1.36-4.872,4.994,4.994,0,0,1,4.047-1.724ZM4.789-6.35A2.34,2.34,0,0,0,3.4-5.9a2.355,2.355,0,0,0-.88,1.134v.539a3.787,3.787,0,0,0,.642,2.3,1.924,1.924,0,0,0,1.6.872,1.865,1.865,0,0,0,1.558-.729,3.026,3.026,0,0,0,.567-1.911,3.028,3.028,0,0,0-.575-1.923A1.842,1.842,0,0,0,4.789-6.35ZM17.315-4.923a6.708,6.708,0,0,1-.88,3.829A3.13,3.13,0,0,1,13.684.159a3.153,3.153,0,0,1-2.735-1.225,6.367,6.367,0,0,1-.92-3.659V-6.683a6.559,6.559,0,0,1,.88-3.782A3.154,3.154,0,0,1,13.668-11.7a3.183,3.183,0,0,1,2.743,1.193,6.33,6.33,0,0,1,.9,3.683ZM15.848-6.929a5.374,5.374,0,0,0-.523-2.715,1.8,1.8,0,0,0-1.657-.852,1.777,1.777,0,0,0-1.641.848A5.247,5.247,0,0,0,11.5-7.04v2.347a5.46,5.46,0,0,0,.543,2.763,1.8,1.8,0,0,0,1.645.892,1.773,1.773,0,0,0,1.613-.84,5.263,5.263,0,0,0,.551-2.648ZM26.432-4.923a6.708,6.708,0,0,1-.88,3.829A3.13,3.13,0,0,1,22.8.159a3.153,3.153,0,0,1-2.735-1.225,6.367,6.367,0,0,1-.92-3.659V-6.683a6.559,6.559,0,0,1,.88-3.782A3.154,3.154,0,0,1,22.785-11.7a3.183,3.183,0,0,1,2.743,1.193,6.33,6.33,0,0,1,.9,3.683ZM24.965-6.929a5.374,5.374,0,0,0-.523-2.715,1.8,1.8,0,0,0-1.657-.852,1.777,1.777,0,0,0-1.641.848,5.247,5.247,0,0,0-.531,2.608v2.347a5.46,5.46,0,0,0,.543,2.763,1.8,1.8,0,0,0,1.645.892,1.773,1.773,0,0,0,1.613-.84,5.263,5.263,0,0,0,.551-2.648Zm3.528,6.16a.918.918,0,0,1,.226-.634.861.861,0,0,1,.678-.254.887.887,0,0,1,.686.254.9.9,0,0,1,.234.634.851.851,0,0,1-.234.61A.9.9,0,0,1,29.4.087a.876.876,0,0,1-.678-.246A.868.868,0,0,1,28.493-.769ZM39.822-4.923a6.708,6.708,0,0,1-.88,3.829A3.13,3.13,0,0,1,36.191.159a3.153,3.153,0,0,1-2.735-1.225,6.367,6.367,0,0,1-.92-3.659V-6.683a6.559,6.559,0,0,1,.88-3.782A3.154,3.154,0,0,1,36.176-11.7a3.183,3.183,0,0,1,2.743,1.193,6.33,6.33,0,0,1,.9,3.683ZM38.356-6.929a5.374,5.374,0,0,0-.523-2.715,1.8,1.8,0,0,0-1.657-.852,1.777,1.777,0,0,0-1.641.848A5.247,5.247,0,0,0,34-7.04v2.347a5.46,5.46,0,0,0,.543,2.763,1.8,1.8,0,0,0,1.645.892,1.773,1.773,0,0,0,1.613-.84,5.263,5.263,0,0,0,.551-2.648ZM48.94-4.923a6.708,6.708,0,0,1-.88,3.829A3.13,3.13,0,0,1,45.309.159a3.153,3.153,0,0,1-2.735-1.225,6.367,6.367,0,0,1-.92-3.659V-6.683a6.559,6.559,0,0,1,.88-3.782A3.154,3.154,0,0,1,45.293-11.7a3.183,3.183,0,0,1,2.743,1.193,6.33,6.33,0,0,1,.9,3.683ZM47.473-6.929a5.374,5.374,0,0,0-.523-2.715,1.8,1.8,0,0,0-1.657-.852,1.777,1.777,0,0,0-1.641.848,5.247,5.247,0,0,0-.531,2.608v2.347a5.46,5.46,0,0,0,.543,2.763,1.8,1.8,0,0,0,1.645.892,1.773,1.773,0,0,0,1.613-.84,5.263,5.263,0,0,0,.551-2.648ZM58.057-4.923a6.708,6.708,0,0,1-.88,3.829A3.13,3.13,0,0,1,54.426.159a3.153,3.153,0,0,1-2.735-1.225,6.367,6.367,0,0,1-.92-3.659V-6.683a6.559,6.559,0,0,1,.88-3.782A3.154,3.154,0,0,1,54.41-11.7a3.183,3.183,0,0,1,2.743,1.193,6.33,6.33,0,0,1,.9,3.683ZM56.59-6.929a5.374,5.374,0,0,0-.523-2.715A1.8,1.8,0,0,0,54.41-10.5a1.777,1.777,0,0,0-1.641.848,5.247,5.247,0,0,0-.531,2.608v2.347a5.46,5.46,0,0,0,.543,2.763,1.8,1.8,0,0,0,1.645.892,1.773,1.773,0,0,0,1.613-.84,5.263,5.263,0,0,0,.551-2.648Z" transform="translate(-9286.996 -6401.794)" fill="#344154"/>
    <path id="Trazado_109355" data-name="Trazado 109355" d="M2.693-9.542l.967-9.49h9.751V-16.8h-7.7l-.575,5.189a6.142,6.142,0,0,1,3.176-.823,5.251,5.251,0,0,1,4.131,1.719,6.737,6.737,0,0,1,1.529,4.647,6.5,6.5,0,0,1-1.588,4.634A5.788,5.788,0,0,1,7.947.261a6.016,6.016,0,0,1-4.117-1.4A5.582,5.582,0,0,1,2.013-5.006H4.3A3.841,3.841,0,0,0,5.464-2.542a3.617,3.617,0,0,0,2.484.83,3.263,3.263,0,0,0,2.647-1.15,4.809,4.809,0,0,0,.961-3.176A4.414,4.414,0,0,0,10.516-9.1a3.535,3.535,0,0,0-2.765-1.157,3.987,3.987,0,0,0-2.484.693l-.64.523ZM25.881-8.366a5.917,5.917,0,0,1-1.81,1.451,4.912,4.912,0,0,1-2.307.549,5.071,5.071,0,0,1-2.869-.81,5.268,5.268,0,0,1-1.889-2.281,7.776,7.776,0,0,1-.667-3.248,7.923,7.923,0,0,1,.725-3.438,5.329,5.329,0,0,1,2.059-2.34,5.871,5.871,0,0,1,3.111-.81,5.315,5.315,0,0,1,4.451,2.111,9.208,9.208,0,0,1,1.627,5.758v.706q0,5.555-2.2,8.111T19.489.013h-.471V-2.039h.51A6.658,6.658,0,0,0,24.13-3.6,6.689,6.689,0,0,0,25.881-8.366Zm-3.725,0A3.734,3.734,0,0,0,24.4-9.111a4.392,4.392,0,0,0,1.5-1.843v-.967a6.654,6.654,0,0,0-1.033-3.869,3.081,3.081,0,0,0-2.614-1.49,3.105,3.105,0,0,0-2.562,1.222,5.042,5.042,0,0,0-.967,3.222,5.247,5.247,0,0,0,.935,3.209A2.959,2.959,0,0,0,22.156-8.366Zm10.6-1.176.967-9.49h9.751V-16.8h-7.7L35.2-11.607a6.142,6.142,0,0,1,3.176-.823,5.251,5.251,0,0,1,4.131,1.719,6.737,6.737,0,0,1,1.529,4.647,6.5,6.5,0,0,1-1.588,4.634A5.788,5.788,0,0,1,38.011.261a6.016,6.016,0,0,1-4.117-1.4,5.582,5.582,0,0,1-1.817-3.869h2.287a3.841,3.841,0,0,0,1.163,2.464,3.617,3.617,0,0,0,2.484.83,3.263,3.263,0,0,0,2.647-1.15,4.809,4.809,0,0,0,.961-3.176A4.414,4.414,0,0,0,40.58-9.1a3.535,3.535,0,0,0-2.765-1.157,3.987,3.987,0,0,0-2.484.693l-.64.523ZM46.978-1.268a1.514,1.514,0,0,1,.373-1.046,1.42,1.42,0,0,1,1.118-.418,1.462,1.462,0,0,1,1.131.418,1.484,1.484,0,0,1,.386,1.046A1.4,1.4,0,0,1,49.6-.261a1.488,1.488,0,0,1-1.131.405,1.445,1.445,0,0,1-1.118-.405A1.431,1.431,0,0,1,46.978-1.268Zm16.012-7.1a5.917,5.917,0,0,1-1.81,1.451,4.912,4.912,0,0,1-2.307.549A5.071,5.071,0,0,1,56-7.176a5.269,5.269,0,0,1-1.889-2.281,7.776,7.776,0,0,1-.667-3.248,7.923,7.923,0,0,1,.725-3.438,5.329,5.329,0,0,1,2.059-2.34,5.871,5.871,0,0,1,3.111-.81,5.315,5.315,0,0,1,4.451,2.111,9.208,9.208,0,0,1,1.627,5.758v.706q0,5.555-2.2,8.111T56.6.013h-.471V-2.039h.51a6.658,6.658,0,0,0,4.6-1.559A6.689,6.689,0,0,0,62.99-8.366Zm-3.725,0a3.734,3.734,0,0,0,2.242-.745A4.392,4.392,0,0,0,63-10.954v-.967a6.654,6.654,0,0,0-1.033-3.869,3.081,3.081,0,0,0-2.614-1.49,3.105,3.105,0,0,0-2.562,1.222,5.042,5.042,0,0,0-.967,3.222,5.247,5.247,0,0,0,.935,3.209A2.959,2.959,0,0,0,59.265-8.366Zm19.7,1.974H81.6v1.974h-2.64V0H76.532V-4.418H67.866V-5.843l8.522-13.189h2.575Zm-8.353,0h5.921v-9.333l-.288.523Zm24.718-7.673a4.419,4.419,0,0,1-.752,2.536A5.114,5.114,0,0,1,92.544-9.79,5.455,5.455,0,0,1,94.9-7.921a4.7,4.7,0,0,1,.869,2.784A4.973,4.973,0,0,1,94.106-1.2,6.4,6.4,0,0,1,89.721.261a6.374,6.374,0,0,1-4.4-1.471,5,5,0,0,1-1.654-3.928,4.844,4.844,0,0,1,.843-2.784A5.247,5.247,0,0,1,86.845-9.8a4.988,4.988,0,0,1-2-1.738,4.482,4.482,0,0,1-.732-2.523,4.919,4.919,0,0,1,1.542-3.817,5.786,5.786,0,0,1,4.065-1.412,5.791,5.791,0,0,1,4.059,1.412A4.909,4.909,0,0,1,95.329-14.065ZM93.355-5.189a3.508,3.508,0,0,0-1.013-2.6A3.593,3.593,0,0,0,89.695-8.8a3.529,3.529,0,0,0-2.621.993,3.547,3.547,0,0,0-.987,2.614,3.378,3.378,0,0,0,.961,2.549,3.688,3.688,0,0,0,2.673.928,3.677,3.677,0,0,0,2.667-.935A3.37,3.37,0,0,0,93.355-5.189ZM89.721-17.306a3.12,3.12,0,0,0-2.307.882,3.241,3.241,0,0,0-.882,2.4,3.226,3.226,0,0,0,.869,2.346,3.085,3.085,0,0,0,2.32.9,3.085,3.085,0,0,0,2.32-.9,3.226,3.226,0,0,0,.869-2.346,3.227,3.227,0,0,0-.9-2.366A3.076,3.076,0,0,0,89.721-17.306Z" transform="translate(-9114.332 -6392.783)" fill="#344154"/>
    <path id="Trazado_109356" data-name="Trazado 109356" d="M2.693-9.542l.967-9.49h9.751V-16.8h-7.7l-.575,5.189a6.142,6.142,0,0,1,3.176-.823,5.251,5.251,0,0,1,4.131,1.719,6.737,6.737,0,0,1,1.529,4.647,6.5,6.5,0,0,1-1.588,4.634A5.788,5.788,0,0,1,7.947.261a6.016,6.016,0,0,1-4.117-1.4A5.582,5.582,0,0,1,2.013-5.006H4.3A3.841,3.841,0,0,0,5.464-2.542a3.617,3.617,0,0,0,2.484.83,3.263,3.263,0,0,0,2.647-1.15,4.809,4.809,0,0,0,.961-3.176A4.414,4.414,0,0,0,10.516-9.1a3.535,3.535,0,0,0-2.765-1.157,3.987,3.987,0,0,0-2.484.693l-.64.523Z" transform="translate(-9360.395 -6351.585)" fill="#d9a171"/>
    <path id="Trazado_109357" data-name="Trazado 109357" d="M2.693-9.542l.967-9.49h9.751V-16.8h-7.7l-.575,5.189a6.142,6.142,0,0,1,3.176-.823,5.251,5.251,0,0,1,4.131,1.719,6.737,6.737,0,0,1,1.529,4.647,6.5,6.5,0,0,1-1.588,4.634A5.788,5.788,0,0,1,7.947.261a6.016,6.016,0,0,1-4.117-1.4A5.582,5.582,0,0,1,2.013-5.006H4.3A3.841,3.841,0,0,0,5.464-2.542a3.617,3.617,0,0,0,2.484.83,3.263,3.263,0,0,0,2.647-1.15,4.809,4.809,0,0,0,.961-3.176A4.414,4.414,0,0,0,10.516-9.1a3.535,3.535,0,0,0-2.765-1.157,3.987,3.987,0,0,0-2.484.693l-.64.523Zm15.032,0,.967-9.49h9.751V-16.8h-7.7l-.575,5.189a6.142,6.142,0,0,1,3.176-.823,5.251,5.251,0,0,1,4.131,1.719,6.737,6.737,0,0,1,1.529,4.647,6.5,6.5,0,0,1-1.588,4.634A5.788,5.788,0,0,1,22.979.261a6.016,6.016,0,0,1-4.117-1.4,5.582,5.582,0,0,1-1.817-3.869h2.287A3.841,3.841,0,0,0,20.5-2.542a3.617,3.617,0,0,0,2.484.83,3.263,3.263,0,0,0,2.647-1.15,4.809,4.809,0,0,0,.961-3.176A4.414,4.414,0,0,0,25.548-9.1a3.535,3.535,0,0,0-2.765-1.157,3.987,3.987,0,0,0-2.484.693l-.64.523ZM31.946-1.268a1.514,1.514,0,0,1,.373-1.046,1.42,1.42,0,0,1,1.118-.418,1.462,1.462,0,0,1,1.131.418,1.484,1.484,0,0,1,.386,1.046,1.4,1.4,0,0,1-.386,1.006,1.488,1.488,0,0,1-1.131.405,1.445,1.445,0,0,1-1.118-.405A1.431,1.431,0,0,1,31.946-1.268ZM46.638,0H44.207V-16.117l-4.876,1.791v-2.2l6.928-2.6h.379ZM66.01-17.672,58.128,0H55.592l7.856-17.045h-10.3v-1.987H66.01ZM81.225,0H68.755V-1.738l6.588-7.32a15.651,15.651,0,0,0,2.02-2.7,4.5,4.5,0,0,0,.556-2.15,3.415,3.415,0,0,0-.9-2.444,3.154,3.154,0,0,0-2.405-.954,3.735,3.735,0,0,0-2.8,1.026,3.919,3.919,0,0,0-1,2.856H68.389a5.613,5.613,0,0,1,1.693-4.248,6.275,6.275,0,0,1,4.529-1.621,6.03,6.03,0,0,1,4.2,1.392A4.749,4.749,0,0,1,80.349-14.2q0,2.81-3.582,6.692l-5.1,5.529h9.555Z" transform="translate(-9272.796 -6351.585)" fill="#344154"/>
    <path id="Trazado_109358" data-name="Trazado 109358" d="M11.071-19.045v2.052h-.444a6.367,6.367,0,0,0-4.5,1.673A6.962,6.962,0,0,0,4.2-10.758a5.162,5.162,0,0,1,4.1-1.725,4.935,4.935,0,0,1,3.967,1.752,6.756,6.756,0,0,1,1.484,4.523A6.735,6.735,0,0,1,12.15-1.5,5.514,5.514,0,0,1,7.856.261a5.433,5.433,0,0,1-4.431-2.1,8.315,8.315,0,0,1-1.7-5.4V-8.17q0-5.255,2.242-8.032t6.673-2.843ZM7.9-10.47a3.858,3.858,0,0,0-2.287.745A3.882,3.882,0,0,0,4.157-7.856v.889A6.243,6.243,0,0,0,5.215-3.176a3.173,3.173,0,0,0,2.64,1.438,3.074,3.074,0,0,0,2.569-1.2,4.99,4.99,0,0,0,.935-3.15,4.992,4.992,0,0,0-.948-3.17A3.038,3.038,0,0,0,7.9-10.47Z" transform="translate(-9360.395 -6310.418)" fill="#d9a171"/>
    <path id="Trazado_109359" data-name="Trazado 109359" d="M2.693-9.542l.967-9.49h9.751V-16.8h-7.7l-.575,5.189a6.142,6.142,0,0,1,3.176-.823,5.251,5.251,0,0,1,4.131,1.719,6.737,6.737,0,0,1,1.529,4.647,6.5,6.5,0,0,1-1.588,4.634A5.788,5.788,0,0,1,7.947.261a6.016,6.016,0,0,1-4.117-1.4A5.582,5.582,0,0,1,2.013-5.006H4.3A3.841,3.841,0,0,0,5.464-2.542a3.617,3.617,0,0,0,2.484.83,3.263,3.263,0,0,0,2.647-1.15,4.809,4.809,0,0,0,.961-3.176A4.414,4.414,0,0,0,10.516-9.1a3.535,3.535,0,0,0-2.765-1.157,3.987,3.987,0,0,0-2.484.693l-.64.523Zm25.463-4.523a4.419,4.419,0,0,1-.752,2.536A5.114,5.114,0,0,1,25.371-9.79a5.455,5.455,0,0,1,2.359,1.869A4.7,4.7,0,0,1,28.6-5.137,4.973,4.973,0,0,1,26.933-1.2,6.4,6.4,0,0,1,22.548.261a6.374,6.374,0,0,1-4.4-1.471A5,5,0,0,1,16.5-5.137a4.844,4.844,0,0,1,.843-2.784A5.247,5.247,0,0,1,19.672-9.8a4.988,4.988,0,0,1-2-1.738,4.482,4.482,0,0,1-.732-2.523,4.919,4.919,0,0,1,1.542-3.817,5.786,5.786,0,0,1,4.065-1.412,5.791,5.791,0,0,1,4.059,1.412A4.909,4.909,0,0,1,28.155-14.065ZM26.182-5.189a3.508,3.508,0,0,0-1.013-2.6A3.593,3.593,0,0,0,22.522-8.8,3.529,3.529,0,0,0,19.9-7.8a3.547,3.547,0,0,0-.987,2.614,3.378,3.378,0,0,0,.961,2.549,3.688,3.688,0,0,0,2.673.928,3.677,3.677,0,0,0,2.667-.935A3.37,3.37,0,0,0,26.182-5.189ZM22.548-17.306a3.12,3.12,0,0,0-2.307.882,3.241,3.241,0,0,0-.882,2.4,3.226,3.226,0,0,0,.869,2.346,3.085,3.085,0,0,0,2.32.9,3.085,3.085,0,0,0,2.32-.9,3.226,3.226,0,0,0,.869-2.346,3.227,3.227,0,0,0-.9-2.366A3.076,3.076,0,0,0,22.548-17.306ZM32.757-9.542l.967-9.49h9.751V-16.8h-7.7L35.2-11.607a6.142,6.142,0,0,1,3.176-.823,5.251,5.251,0,0,1,4.131,1.719,6.737,6.737,0,0,1,1.529,4.647,6.5,6.5,0,0,1-1.588,4.634A5.788,5.788,0,0,1,38.011.261a6.016,6.016,0,0,1-4.117-1.4,5.582,5.582,0,0,1-1.817-3.869h2.287a3.841,3.841,0,0,0,1.163,2.464,3.617,3.617,0,0,0,2.484.83,3.263,3.263,0,0,0,2.647-1.15,4.809,4.809,0,0,0,.961-3.176A4.414,4.414,0,0,0,40.58-9.1a3.535,3.535,0,0,0-2.765-1.157,3.987,3.987,0,0,0-2.484.693l-.64.523ZM46.978-1.268a1.514,1.514,0,0,1,.373-1.046,1.42,1.42,0,0,1,1.118-.418,1.462,1.462,0,0,1,1.131.418,1.484,1.484,0,0,1,.386,1.046A1.4,1.4,0,0,1,49.6-.261a1.488,1.488,0,0,1-1.131.405,1.445,1.445,0,0,1-1.118-.405A1.431,1.431,0,0,1,46.978-1.268ZM65.657-8.117q0,4.248-1.451,6.313A5.16,5.16,0,0,1,59.67.261a5.2,5.2,0,0,1-4.51-2.02A10.5,10.5,0,0,1,53.644-7.79v-3.229q0-4.2,1.451-6.235a5.2,5.2,0,0,1,4.549-2.039,5.247,5.247,0,0,1,4.523,1.967q1.451,1.967,1.49,6.072Zm-2.418-3.307a8.861,8.861,0,0,0-.863-4.477,2.969,2.969,0,0,0-2.732-1.405,2.93,2.93,0,0,0-2.706,1.4,8.652,8.652,0,0,0-.876,4.3v3.869a9,9,0,0,0,.9,4.555A2.964,2.964,0,0,0,59.67-1.712,2.923,2.923,0,0,0,62.33-3.1a8.677,8.677,0,0,0,.908-4.366Zm17.45,3.307q0,4.248-1.451,6.313A5.16,5.16,0,0,1,74.7.261a5.2,5.2,0,0,1-4.51-2.02A10.5,10.5,0,0,1,68.676-7.79v-3.229q0-4.2,1.451-6.235a5.2,5.2,0,0,1,4.549-2.039A5.247,5.247,0,0,1,79.2-17.326q1.451,1.967,1.49,6.072Zm-2.418-3.307a8.86,8.86,0,0,0-.863-4.477,2.969,2.969,0,0,0-2.732-1.405,2.93,2.93,0,0,0-2.706,1.4,8.652,8.652,0,0,0-.876,4.3v3.869a9,9,0,0,0,.9,4.555A2.964,2.964,0,0,0,74.7-1.712,2.923,2.923,0,0,0,77.362-3.1a8.677,8.677,0,0,0,.908-4.366Zm17.45,3.307q0,4.248-1.451,6.313A5.16,5.16,0,0,1,89.734.261a5.2,5.2,0,0,1-4.51-2.02A10.5,10.5,0,0,1,83.708-7.79v-3.229q0-4.2,1.451-6.235a5.2,5.2,0,0,1,4.549-2.039,5.247,5.247,0,0,1,4.523,1.967q1.451,1.967,1.49,6.072ZM93.3-11.424A8.86,8.86,0,0,0,92.44-15.9a2.969,2.969,0,0,0-2.732-1.405A2.93,2.93,0,0,0,87-15.908a8.652,8.652,0,0,0-.876,4.3v3.869a9,9,0,0,0,.9,4.555,2.964,2.964,0,0,0,2.712,1.471A2.923,2.923,0,0,0,92.394-3.1,8.677,8.677,0,0,0,93.3-7.464Z" transform="translate(-9286.996 -6310.418)" fill="#344154"/>
    <path id="Trazado_109360" data-name="Trazado 109360" d="M14.052,0H1.582V-1.738L8.17-9.058a15.651,15.651,0,0,0,2.02-2.7,4.5,4.5,0,0,0,.556-2.15,3.415,3.415,0,0,0-.9-2.444,3.154,3.154,0,0,0-2.405-.954,3.735,3.735,0,0,0-2.8,1.026,3.919,3.919,0,0,0-1,2.856H1.216a5.613,5.613,0,0,1,1.693-4.248,6.275,6.275,0,0,1,4.529-1.621,6.03,6.03,0,0,1,4.2,1.392A4.748,4.748,0,0,1,13.176-14.2q0,2.81-3.582,6.692L4.5-1.974h9.555Zm2.863-1.268a1.514,1.514,0,0,1,.373-1.046A1.42,1.42,0,0,1,18.4-2.732a1.462,1.462,0,0,1,1.131.418,1.484,1.484,0,0,1,.386,1.046,1.4,1.4,0,0,1-.386,1.006A1.488,1.488,0,0,1,18.4.144a1.445,1.445,0,0,1-1.118-.405A1.431,1.431,0,0,1,16.914-1.268Zm10.261-9.424h1.817a3.993,3.993,0,0,0,2.693-.9,3.013,3.013,0,0,0,.98-2.366q0-3.346-3.333-3.346a3.467,3.467,0,0,0-2.5.9,3.134,3.134,0,0,0-.935,2.372H23.476A4.855,4.855,0,0,1,25.129-17.8a6.024,6.024,0,0,1,4.2-1.5,5.952,5.952,0,0,1,4.222,1.425,5.147,5.147,0,0,1,1.529,3.961,4.178,4.178,0,0,1-.8,2.405A4.854,4.854,0,0,1,32.09-9.764a4.677,4.677,0,0,1,2.425,1.647,4.574,4.574,0,0,1,.856,2.81A5.192,5.192,0,0,1,33.7-1.242a6.265,6.265,0,0,1-4.353,1.5,6.431,6.431,0,0,1-4.359-1.451,4.813,4.813,0,0,1-1.68-3.83h2.431a3.111,3.111,0,0,0,.98,2.405,3.729,3.729,0,0,0,2.627.9,3.659,3.659,0,0,0,2.68-.915,3.526,3.526,0,0,0,.928-2.627A3.2,3.2,0,0,0,31.933-7.8a4.442,4.442,0,0,0-2.941-.915H27.175Zm23.45,2.575q0,4.248-1.451,6.313A5.16,5.16,0,0,1,44.638.261a5.2,5.2,0,0,1-4.51-2.02A10.5,10.5,0,0,1,38.612-7.79v-3.229q0-4.2,1.451-6.235a5.2,5.2,0,0,1,4.549-2.039,5.247,5.247,0,0,1,4.523,1.967q1.451,1.967,1.49,6.072Zm-2.418-3.307a8.861,8.861,0,0,0-.863-4.477,2.969,2.969,0,0,0-2.732-1.405,2.93,2.93,0,0,0-2.706,1.4,8.652,8.652,0,0,0-.876,4.3v3.869a9,9,0,0,0,.9,4.555,2.964,2.964,0,0,0,2.712,1.471A2.923,2.923,0,0,0,47.3-3.1a8.677,8.677,0,0,0,.908-4.366Zm17.45,3.307q0,4.248-1.451,6.313A5.16,5.16,0,0,1,59.67.261a5.2,5.2,0,0,1-4.51-2.02A10.5,10.5,0,0,1,53.644-7.79v-3.229q0-4.2,1.451-6.235a5.2,5.2,0,0,1,4.549-2.039,5.247,5.247,0,0,1,4.523,1.967q1.451,1.967,1.49,6.072Zm-2.418-3.307a8.861,8.861,0,0,0-.863-4.477,2.969,2.969,0,0,0-2.732-1.405,2.93,2.93,0,0,0-2.706,1.4,8.652,8.652,0,0,0-.876,4.3v3.869a9,9,0,0,0,.9,4.555A2.964,2.964,0,0,0,59.67-1.712,2.923,2.923,0,0,0,62.33-3.1a8.677,8.677,0,0,0,.908-4.366ZM69.055-1.268a1.514,1.514,0,0,1,.373-1.046,1.42,1.42,0,0,1,1.118-.418,1.462,1.462,0,0,1,1.131.418,1.484,1.484,0,0,1,.386,1.046,1.4,1.4,0,0,1-.386,1.006,1.488,1.488,0,0,1-1.131.405,1.445,1.445,0,0,1-1.118-.405A1.431,1.431,0,0,1,69.055-1.268ZM83.747,0H81.316V-16.117l-4.876,1.791v-2.2l6.928-2.6h.379Zm19.372-17.672L95.237,0H92.7l7.856-17.045h-10.3v-1.987h12.862ZM118.334,0h-12.47V-1.738l6.588-7.32a15.651,15.651,0,0,0,2.02-2.7,4.5,4.5,0,0,0,.556-2.15,3.415,3.415,0,0,0-.9-2.444,3.154,3.154,0,0,0-2.405-.954,3.735,3.735,0,0,0-2.8,1.026,3.919,3.919,0,0,0-1,2.856H105.5a5.613,5.613,0,0,1,1.693-4.248,6.275,6.275,0,0,1,4.529-1.621,6.03,6.03,0,0,1,4.2,1.392,4.749,4.749,0,0,1,1.542,3.706q0,2.81-3.582,6.692l-5.1,5.529h9.555Z" transform="translate(-9309.395 -6269.221)" fill="#344154"/>
    <path id="Trazado_109361" data-name="Trazado 109361" d="M9.529,0H7.1V-16.117L2.222-14.326v-2.2l6.928-2.6h.379Zm7.385-1.268a1.514,1.514,0,0,1,.373-1.046A1.42,1.42,0,0,1,18.4-2.732a1.462,1.462,0,0,1,1.131.418,1.484,1.484,0,0,1,.386,1.046,1.4,1.4,0,0,1-.386,1.006A1.488,1.488,0,0,1,18.4.144a1.445,1.445,0,0,1-1.118-.405A1.431,1.431,0,0,1,16.914-1.268Zm19.032-16.4L28.064,0H25.528l7.856-17.045h-10.3v-1.987H35.946ZM50.625-8.117q0,4.248-1.451,6.313A5.16,5.16,0,0,1,44.638.261a5.2,5.2,0,0,1-4.51-2.02A10.5,10.5,0,0,1,38.612-7.79v-3.229q0-4.2,1.451-6.235a5.2,5.2,0,0,1,4.549-2.039,5.247,5.247,0,0,1,4.523,1.967q1.451,1.967,1.49,6.072Zm-2.418-3.307a8.861,8.861,0,0,0-.863-4.477,2.969,2.969,0,0,0-2.732-1.405,2.93,2.93,0,0,0-2.706,1.4,8.652,8.652,0,0,0-.876,4.3v3.869a9,9,0,0,0,.9,4.555,2.964,2.964,0,0,0,2.712,1.471A2.923,2.923,0,0,0,47.3-3.1a8.677,8.677,0,0,0,.908-4.366ZM63.931-6.392h2.64v1.974h-2.64V0H61.5V-4.418H52.834V-5.843l8.522-13.189h2.575Zm-8.353,0H61.5v-9.333l-.288.523ZM69.055-1.268a1.514,1.514,0,0,1,.373-1.046,1.42,1.42,0,0,1,1.118-.418,1.462,1.462,0,0,1,1.131.418,1.484,1.484,0,0,1,.386,1.046,1.4,1.4,0,0,1-.386,1.006,1.488,1.488,0,0,1-1.131.405,1.445,1.445,0,0,1-1.118-.405A1.431,1.431,0,0,1,69.055-1.268ZM88.27,0H75.8V-1.738l6.588-7.32a15.651,15.651,0,0,0,2.02-2.7,4.5,4.5,0,0,0,.556-2.15,3.415,3.415,0,0,0-.9-2.444,3.154,3.154,0,0,0-2.405-.954,3.735,3.735,0,0,0-2.8,1.026,3.919,3.919,0,0,0-1,2.856H75.434a5.613,5.613,0,0,1,1.693-4.248,6.275,6.275,0,0,1,4.529-1.621,6.03,6.03,0,0,1,4.2,1.392A4.749,4.749,0,0,1,87.394-14.2q0,2.81-3.582,6.692l-5.1,5.529H88.27ZM103.3,0H90.832V-1.738l6.588-7.32a15.651,15.651,0,0,0,2.02-2.7,4.5,4.5,0,0,0,.556-2.15,3.415,3.415,0,0,0-.9-2.444,3.154,3.154,0,0,0-2.405-.954,3.735,3.735,0,0,0-2.8,1.026,3.919,3.919,0,0,0-1,2.856H90.466a5.613,5.613,0,0,1,1.693-4.248,6.275,6.275,0,0,1,4.529-1.621,6.03,6.03,0,0,1,4.2,1.392,4.749,4.749,0,0,1,1.542,3.706q0,2.81-3.582,6.692l-5.1,5.529H103.3Zm12.771-6.392h2.64v1.974h-2.64V0h-2.431V-4.418h-8.666V-5.843L113.5-19.032h2.575Zm-8.353,0h5.921v-9.333l-.288.523Z" transform="translate(-9136.73 -6269.221)" fill="#344154"/>
    <path id="Trazado_109362" data-name="Trazado 109362" d="M2.693-9.542l.967-9.49h9.751V-16.8h-7.7l-.575,5.189a6.142,6.142,0,0,1,3.176-.823,5.251,5.251,0,0,1,4.131,1.719,6.737,6.737,0,0,1,1.529,4.647,6.5,6.5,0,0,1-1.588,4.634A5.788,5.788,0,0,1,7.947.261a6.016,6.016,0,0,1-4.117-1.4A5.582,5.582,0,0,1,2.013-5.006H4.3A3.841,3.841,0,0,0,5.464-2.542a3.617,3.617,0,0,0,2.484.83,3.263,3.263,0,0,0,2.647-1.15,4.809,4.809,0,0,0,.961-3.176A4.414,4.414,0,0,0,10.516-9.1a3.535,3.535,0,0,0-2.765-1.157,3.987,3.987,0,0,0-2.484.693l-.64.523ZM25.881-8.366a5.917,5.917,0,0,1-1.81,1.451,4.912,4.912,0,0,1-2.307.549,5.071,5.071,0,0,1-2.869-.81,5.268,5.268,0,0,1-1.889-2.281,7.776,7.776,0,0,1-.667-3.248,7.923,7.923,0,0,1,.725-3.438,5.329,5.329,0,0,1,2.059-2.34,5.871,5.871,0,0,1,3.111-.81,5.315,5.315,0,0,1,4.451,2.111,9.208,9.208,0,0,1,1.627,5.758v.706q0,5.555-2.2,8.111T19.489.013h-.471V-2.039h.51A6.658,6.658,0,0,0,24.13-3.6,6.689,6.689,0,0,0,25.881-8.366Zm-3.725,0A3.734,3.734,0,0,0,24.4-9.111a4.392,4.392,0,0,0,1.5-1.843v-.967a6.654,6.654,0,0,0-1.033-3.869,3.081,3.081,0,0,0-2.614-1.49,3.105,3.105,0,0,0-2.562,1.222,5.042,5.042,0,0,0-.967,3.222,5.247,5.247,0,0,0,.935,3.209A2.959,2.959,0,0,0,22.156-8.366Zm10.6-1.176.967-9.49h9.751V-16.8h-7.7L35.2-11.607a6.142,6.142,0,0,1,3.176-.823,5.251,5.251,0,0,1,4.131,1.719,6.737,6.737,0,0,1,1.529,4.647,6.5,6.5,0,0,1-1.588,4.634A5.788,5.788,0,0,1,38.011.261a6.016,6.016,0,0,1-4.117-1.4,5.582,5.582,0,0,1-1.817-3.869h2.287a3.841,3.841,0,0,0,1.163,2.464,3.617,3.617,0,0,0,2.484.83,3.263,3.263,0,0,0,2.647-1.15,4.809,4.809,0,0,0,.961-3.176A4.414,4.414,0,0,0,40.58-9.1a3.535,3.535,0,0,0-2.765-1.157,3.987,3.987,0,0,0-2.484.693l-.64.523ZM46.978-1.268a1.514,1.514,0,0,1,.373-1.046,1.42,1.42,0,0,1,1.118-.418,1.462,1.462,0,0,1,1.131.418,1.484,1.484,0,0,1,.386,1.046A1.4,1.4,0,0,1,49.6-.261a1.488,1.488,0,0,1-1.131.405,1.445,1.445,0,0,1-1.118-.405A1.431,1.431,0,0,1,46.978-1.268Zm16.012-7.1a5.917,5.917,0,0,1-1.81,1.451,4.912,4.912,0,0,1-2.307.549A5.071,5.071,0,0,1,56-7.176a5.269,5.269,0,0,1-1.889-2.281,7.776,7.776,0,0,1-.667-3.248,7.923,7.923,0,0,1,.725-3.438,5.329,5.329,0,0,1,2.059-2.34,5.871,5.871,0,0,1,3.111-.81,5.315,5.315,0,0,1,4.451,2.111,9.208,9.208,0,0,1,1.627,5.758v.706q0,5.555-2.2,8.111T56.6.013h-.471V-2.039h.51a6.658,6.658,0,0,0,4.6-1.559A6.689,6.689,0,0,0,62.99-8.366Zm-3.725,0a3.734,3.734,0,0,0,2.242-.745A4.392,4.392,0,0,0,63-10.954v-.967a6.654,6.654,0,0,0-1.033-3.869,3.081,3.081,0,0,0-2.614-1.49,3.105,3.105,0,0,0-2.562,1.222,5.042,5.042,0,0,0-.967,3.222,5.247,5.247,0,0,0,.935,3.209A2.959,2.959,0,0,0,59.265-8.366Zm19.7,1.974H81.6v1.974h-2.64V0H76.532V-4.418H67.866V-5.843l8.522-13.189h2.575Zm-8.353,0h5.921v-9.333l-.288.523ZM93.054-8.366a5.917,5.917,0,0,1-1.81,1.451,4.912,4.912,0,0,1-2.307.549,5.071,5.071,0,0,1-2.869-.81,5.268,5.268,0,0,1-1.889-2.281,7.776,7.776,0,0,1-.667-3.248,7.923,7.923,0,0,1,.725-3.438,5.329,5.329,0,0,1,2.059-2.34,5.871,5.871,0,0,1,3.111-.81,5.315,5.315,0,0,1,4.451,2.111,9.208,9.208,0,0,1,1.627,5.758v.706q0,5.555-2.2,8.111T86.662.013h-.471V-2.039h.51A6.658,6.658,0,0,0,91.3-3.6,6.689,6.689,0,0,0,93.054-8.366Zm-3.725,0a3.734,3.734,0,0,0,2.242-.745,4.392,4.392,0,0,0,1.5-1.843v-.967a6.655,6.655,0,0,0-1.033-3.869,3.081,3.081,0,0,0-2.614-1.49,3.105,3.105,0,0,0-2.562,1.222,5.042,5.042,0,0,0-.967,3.222,5.247,5.247,0,0,0,.935,3.209A2.959,2.959,0,0,0,89.329-8.366Z" transform="translate(-9286.996 -6228.024)" fill="#344154"/>
    <g id="Grupo_62326" data-name="Grupo 62326" transform="translate(-10018.42 -12953.639)" clip-path="url(#clip-path)">
      <text id="_1435_INVE.MERCANCIAS" data-name="1435 INVE.MERCANCIAS" transform="translate(684.49 6437.324)" fill="#d9a171" font-size="26.77" font-family="Roboto-Regular, Roboto"><tspan x="0" y="0">1435 INVE.MERCANCIAS</tspan></text>
    </g>
    <path id="Trazado_109334" data-name="Trazado 109334" d="M0,0V2.059" transform="translate(-9179.41 -6547.224)" fill="none" stroke="#d4d4d4" stroke-linecap="square" stroke-width="0" opacity="0"/>
    <path id="Trazado_109212" data-name="Trazado 109212" d="M839.01,6406.415v2.059h2.034v-2.059H839.01" transform="translate(-10018.42 -12953.639)" fill="#d4d4d4" fill-rule="evenodd"/>
    <path id="Trazado_109333" data-name="Trazado 109333" d="M0,0H327.4" transform="translate(-9342.095 -6506.04)" fill="none" stroke="#000" stroke-linecap="square" stroke-width="0" opacity="0"/>
    <path id="Trazado_109213" data-name="Trazado 109213" d="M676.326,6447.6v2.059h327.4V6447.6h-327.4" transform="translate(-10018.42 -12953.639)" fill="#344154" fill-rule="evenodd"/>
    <path id="Trazado_109335" data-name="Trazado 109335" d="M0,0H327.4" transform="translate(-9342.095 -6300.117)" fill="none" stroke="#000" stroke-linecap="square" stroke-width="0" opacity="0"/>
    <path id="Trazado_109214" data-name="Trazado 109214" d="M676.326,6653.521v2.059h327.4v-2.059h-327.4" transform="translate(-10018.42 -12953.639)" fill="#344154" fill-rule="evenodd"/>
    <path id="Trazado_109336" data-name="Trazado 109336" d="M0,0H327.4" transform="translate(-9342.095 -6258.933)" fill="none" stroke="#000" stroke-linecap="square" stroke-width="0" opacity="0"/>
    <path id="Trazado_109215" data-name="Trazado 109215" d="M676.326,6694.706v2.059h327.4v-2.059h-327.4" transform="translate(-10018.42 -12953.639)" fill="#344154" fill-rule="evenodd"/>
    <path id="Trazado_109337" data-name="Trazado 109337" d="M0,0H164.718" transform="translate(-9342.095 -6217.748)" fill="none" stroke="#000" stroke-linecap="square" stroke-width="0" opacity="0"/>
    <path id="Trazado_109216" data-name="Trazado 109216" d="M676.326,6735.891v2.059H841.043v-2.059H676.326" transform="translate(-10018.42 -12953.639)" fill="#344154" fill-rule="evenodd"/>
    <path id="Trazado_109338" data-name="Trazado 109338" d="M0,0V288.291" transform="translate(-9179.41 -6503.98)" fill="none" stroke="#000" stroke-linecap="square" stroke-width="0" opacity="0"/>
    <path id="Trazado_109217" data-name="Trazado 109217" d="M839.01,6449.658V6737.95h2.034V6449.658H839.01" transform="translate(-10018.42 -12953.639)" fill="#344154" fill-rule="evenodd"/>
    <path id="Trazado_109339" data-name="Trazado 109339" d="M0,0V2.059" transform="translate(-9342.095 -6215.689)" fill="none" stroke="#d4d4d4" stroke-linecap="square" stroke-width="0" opacity="0"/>
    <path id="Trazado_109218" data-name="Trazado 109218" d="M676.326,6737.95v2.059h2.034v-2.059h-2.034" transform="translate(-10018.42 -12953.639)" fill="#d4d4d4" fill-rule="evenodd"/>
    <path id="Trazado_109340" data-name="Trazado 109340" d="M0,0V2.059" transform="translate(-9179.41 -6215.689)" fill="none" stroke="#d4d4d4" stroke-linecap="square" stroke-width="0" opacity="0"/>
    <path id="Trazado_109219" data-name="Trazado 109219" d="M839.01,6737.95v2.059h2.034v-2.059H839.01" transform="translate(-10018.42 -12953.639)" fill="#d4d4d4" fill-rule="evenodd"/>
    <path id="Trazado_109341" data-name="Trazado 109341" d="M0,0H2.034" transform="translate(-9014.692 -6506.04)" fill="none" stroke="#d4d4d4" stroke-linecap="square" stroke-width="0" opacity="0"/>
    <path id="Trazado_109220" data-name="Trazado 109220" d="M1003.727,6447.6v2.059h2.034V6447.6h-2.034" transform="translate(-10018.42 -12953.639)" fill="#d4d4d4" fill-rule="evenodd"/>
    <path id="Trazado_109342" data-name="Trazado 109342" d="M0,0H2.034" transform="translate(-9014.692 -6300.117)" fill="none" stroke="#d4d4d4" stroke-linecap="square" stroke-width="0" opacity="0"/>
    <path id="Trazado_109221" data-name="Trazado 109221" d="M1003.727,6653.521v2.059h2.034v-2.059h-2.034" transform="translate(-10018.42 -12953.639)" fill="#d4d4d4" fill-rule="evenodd"/>
    <path id="Trazado_109343" data-name="Trazado 109343" d="M0,0H2.034" transform="translate(-9014.692 -6258.933)" fill="none" stroke="#d4d4d4" stroke-linecap="square" stroke-width="0" opacity="0"/>
    <path id="Trazado_109222" data-name="Trazado 109222" d="M1003.727,6694.706v2.059h2.034v-2.059h-2.034" transform="translate(-10018.42 -12953.639)" fill="#d4d4d4" fill-rule="evenodd"/>
    <path id="Trazado_109344" data-name="Trazado 109344" d="M5.1-10.692H6.915a3.993,3.993,0,0,0,2.693-.9,3.013,3.013,0,0,0,.98-2.366q0-3.346-3.333-3.346a3.467,3.467,0,0,0-2.5.9,3.134,3.134,0,0,0-.935,2.372H1.4A4.855,4.855,0,0,1,3.052-17.8a6.024,6.024,0,0,1,4.2-1.5,5.952,5.952,0,0,1,4.222,1.425,5.147,5.147,0,0,1,1.529,3.961,4.178,4.178,0,0,1-.8,2.405,4.854,4.854,0,0,1-2.189,1.738,4.677,4.677,0,0,1,2.425,1.647,4.574,4.574,0,0,1,.856,2.81A5.192,5.192,0,0,1,11.62-1.242,6.265,6.265,0,0,1,7.268.261,6.431,6.431,0,0,1,2.908-1.189a4.813,4.813,0,0,1-1.68-3.83H3.66a3.111,3.111,0,0,0,.98,2.405,3.729,3.729,0,0,0,2.627.9,3.659,3.659,0,0,0,2.68-.915,3.526,3.526,0,0,0,.928-2.627A3.2,3.2,0,0,0,9.856-7.8a4.442,4.442,0,0,0-2.941-.915H5.1Z" transform="translate(-8997.785 -6474.879)" fill="#d9a171"/>
    <path id="Trazado_109345" data-name="Trazado 109345" d="M11.79-6.392h2.64v1.974H11.79V0H9.359V-4.418H.693V-5.843L9.215-19.032H11.79Zm-8.353,0H9.359v-9.333l-.288.523Z" transform="translate(-8997.785 -6433.983)" fill="#d9a171"/>
    <path id="Trazado_109346" data-name="Trazado 109346" d="M13.869-17.672,5.987,0H3.451l7.856-17.045H1.006v-1.987H13.869Z" transform="translate(-8997.785 -6392.786)" fill="#d9a171"/>
    <g id="Grupo_62328" data-name="Grupo 62328" transform="translate(-10018.42 -12953.639)">
      <text id="_3" data-name="3" transform="translate(653.419 6882.884)" fill="#d9a171" font-size="26.77" font-family="Roboto-Regular, Roboto"><tspan x="0" y="0">3</tspan></text>
      <text id="_60.000" data-name="60.000" transform="translate(741.049 6882.884)" fill="#344154" font-size="26.77" font-family="Roboto-Regular, Roboto"><tspan x="0" y="0">60.000</tspan></text>
      <text id="_660.000" data-name="660.000" transform="translate(899.479 6882.884)" fill="#344154" font-size="26.77" font-family="Roboto-Regular, Roboto"><tspan x="0" y="0">660.000</tspan></text>
      <text id="_1" data-name="1" transform="translate(1031.675 6882.884)" fill="#d9a171" font-size="26.77" font-family="Roboto-Regular, Roboto"><tspan x="0" y="0">1</tspan></text>
    </g>
    <g id="Grupo_62329" data-name="Grupo 62329" transform="translate(-10018.42 -12953.639)">
      <text id="_4" data-name="4" transform="translate(653.419 6924.112)" fill="#d9a171" font-size="26.77" font-family="Roboto-Regular, Roboto"><tspan x="0" y="0">4</tspan></text>
      <text id="_2.850.000" data-name="2.850.000" transform="translate(704.448 6924.112)" fill="#344154" font-size="26.77" font-family="Roboto-Regular, Roboto"><tspan x="0" y="0">2.850.000</tspan></text>
      <text id="_600.000" data-name="600.000" transform="translate(899.479 6924.112)" fill="#344154" font-size="26.77" font-family="Roboto-Regular, Roboto"><tspan x="0" y="0">600.000</tspan></text>
      <text id="_2" data-name="2" transform="translate(1031.675 6924.112)" fill="#d9a171" font-size="26.77" font-family="Roboto-Regular, Roboto"><tspan x="0" y="0">2</tspan></text>
    </g>
    <g id="Grupo_62330" data-name="Grupo 62330" transform="translate(-10018.42 -12953.639)">
      <text id="_7" data-name="7" transform="translate(653.419 6965.279)" fill="#d9a171" font-size="26.77" font-family="Roboto-Regular, Roboto"><tspan x="0" y="0">7</tspan></text>
      <text id="_1.500.000" data-name="1.500.000" transform="translate(704.448 6965.279)" fill="#344154" font-size="26.77" font-family="Roboto-Regular, Roboto"><tspan x="0" y="0">1.500.000</tspan></text>
      <text id="_150.000" data-name="150.000" transform="translate(899.479 6965.279)" fill="#344154" font-size="26.77" font-family="Roboto-Regular, Roboto"><tspan x="0" y="0">150.000</tspan></text>
      <text id="_5" data-name="5" transform="translate(1031.675 6965.279)" fill="#d9a171" font-size="26.77" font-family="Roboto-Regular, Roboto"><tspan x="0" y="0">5</tspan></text>
    </g>
    <g id="Grupo_62331" data-name="Grupo 62331" transform="translate(-10018.42 -12953.639)">
      <text id="_585.000" data-name="585.000" transform="translate(899.479 7006.446)" fill="#344154" font-size="26.77" font-family="Roboto-Regular, Roboto"><tspan x="0" y="0">585.000</tspan></text>
      <text id="_6" data-name="6" transform="translate(1031.675 7006.446)" fill="#d9a171" font-size="26.77" font-family="Roboto-Regular, Roboto"><tspan x="0" y="0">6</tspan></text>
    </g>
    <g id="Grupo_62332" data-name="Grupo 62332" transform="translate(-10018.42 -12953.639)">
      <text id="_4.410.000" data-name="4.410.000" transform="translate(704.448 7047.643)" fill="#344154" font-size="26.77" font-family="Roboto-Regular, Roboto"><tspan x="0" y="0">4.410.000</tspan></text>
      <text id="_1.995.000" data-name="1.995.000" transform="translate(877.145 7047.643)" fill="#344154" font-size="26.77" font-family="Roboto-Regular, Roboto"><tspan x="0" y="0">1.995.000</tspan></text>
    </g>
    <g id="Grupo_62333" data-name="Grupo 62333" transform="translate(-10018.42 -12953.639)">
      <text id="_2.415.000" data-name="2.415.000" transform="translate(704.448 7088.811)" fill="#344154" font-size="26.77" font-family="Roboto-Regular, Roboto"><tspan x="0" y="0">2.415.000</tspan></text>
    </g>
    <g id="Grupo_62334" data-name="Grupo 62334" transform="translate(-10018.42 -12953.639)">
      <text id="_11_EFECTIVO" data-name="11 EFECTIVO" transform="translate(751.049 6841.716)" fill="#d9a171" font-size="26.77" font-family="Roboto-Regular, Roboto"><tspan x="0" y="0">11 EFECTIVO</tspan></text>
    </g>
    <g id="Grupo_62335" data-name="Grupo 62335" transform="translate(-10018.42 -12953.639)">
      <line id="Línea_501" data-name="Línea 501" y2="2.059" transform="translate(834.422 6810.833)" fill="none" stroke="#d4d4d4" stroke-linecap="square" stroke-miterlimit="10" stroke-width="0" opacity="0"/>
      <path id="Trazado_109223" data-name="Trazado 109223" d="M834.422,6810.833v2.059h2.034v-2.059h-2.034" fill="#d4d4d4" fill-rule="evenodd"/>
      <line id="Línea_502" data-name="Línea 502" x2="327.402" transform="translate(671.738 6852.017)" fill="none" stroke="#000" stroke-linecap="square" stroke-miterlimit="10" stroke-width="0" opacity="0"/>
      <path id="Trazado_109224" data-name="Trazado 109224" d="M671.738,6852.017v2.059h327.4v-2.059h-327.4" fill="#344154" fill-rule="evenodd"/>
      <line id="Línea_503" data-name="Línea 503" x2="327.402" transform="translate(671.738 7016.755)" fill="none" stroke="#000" stroke-linecap="square" stroke-miterlimit="10" stroke-width="0" opacity="0"/>
      <path id="Trazado_109225" data-name="Trazado 109225" d="M671.738,7016.755v2.059h327.4v-2.059h-327.4" fill="#344154" fill-rule="evenodd"/>
      <line id="Línea_504" data-name="Línea 504" x2="327.402" transform="translate(671.738 7057.939)" fill="none" stroke="#000" stroke-linecap="square" stroke-miterlimit="10" stroke-width="0" opacity="0"/>
      <path id="Trazado_109226" data-name="Trazado 109226" d="M671.738,7057.939V7060h327.4v-2.059h-327.4" fill="#344154" fill-rule="evenodd"/>
      <line id="Línea_505" data-name="Línea 505" x2="164.718" transform="translate(671.738 7099.124)" fill="none" stroke="#000" stroke-linecap="square" stroke-miterlimit="10" stroke-width="0" opacity="0"/>
      <path id="Trazado_109227" data-name="Trazado 109227" d="M671.738,7099.124v2.059H836.455v-2.059H671.738" fill="#344154" fill-rule="evenodd"/>
      <line id="Línea_506" data-name="Línea 506" y2="247.107" transform="translate(834.422 6854.076)" fill="none" stroke="#000" stroke-linecap="square" stroke-miterlimit="10" stroke-width="0" opacity="0"/>
      <path id="Trazado_109228" data-name="Trazado 109228" d="M834.422,6854.076v247.107h2.034V6854.076h-2.034" fill="#344154" fill-rule="evenodd"/>
      <line id="Línea_507" data-name="Línea 507" y2="2.059" transform="translate(671.738 7101.183)" fill="none" stroke="#d4d4d4" stroke-linecap="square" stroke-miterlimit="10" stroke-width="0" opacity="0"/>
      <path id="Trazado_109229" data-name="Trazado 109229" d="M671.738,7101.183v2.059h2.034v-2.059h-2.034" fill="#d4d4d4" fill-rule="evenodd"/>
      <line id="Línea_508" data-name="Línea 508" y2="2.059" transform="translate(834.422 7101.183)" fill="none" stroke="#d4d4d4" stroke-linecap="square" stroke-miterlimit="10" stroke-width="0" opacity="0"/>
      <path id="Trazado_109230" data-name="Trazado 109230" d="M834.422,7101.183v2.059h2.034v-2.059h-2.034" fill="#d4d4d4" fill-rule="evenodd"/>
    </g>
    <g id="Grupo_62337" data-name="Grupo 62337" transform="translate(-10018.42 -12953.639)">
      <text id="_2.850.000-2" data-name="2.850.000" transform="translate(1381.421 6489.034)" fill="#344154" font-size="26.77" font-family="Roboto-Regular, Roboto"><tspan x="0" y="0">2.850.000</tspan></text>
      <text id="_4-2" data-name="4" transform="translate(1535.95 6489.034)" fill="#d9a171" font-size="26.77" font-family="Roboto-Regular, Roboto"><tspan x="0" y="0">4</tspan></text>
    </g>
    <g id="Grupo_62338" data-name="Grupo 62338" transform="translate(-10018.42 -12953.639)">
      <text id="_1.500.000-2" data-name="1.500.000" transform="translate(1381.421 6530.231)" fill="#344154" font-size="26.77" font-family="Roboto-Regular, Roboto"><tspan x="0" y="0">1.500.000</tspan></text>
      <text id="_7-2" data-name="7" transform="translate(1535.95 6530.231)" fill="#d9a171" font-size="26.77" font-family="Roboto-Regular, Roboto"><tspan x="0" y="0">7</tspan></text>
    </g>
    <g id="Grupo_62339" data-name="Grupo 62339" transform="translate(-10018.42 -12953.639)">
      <text id="_4.350.000" data-name="4.350.000" transform="translate(1381.421 6571.398)" fill="#344154" font-size="26.77" font-family="Roboto-Regular, Roboto"><tspan x="0" y="0">4.350.000</tspan></text>
    </g>
    <g id="Grupo_62340" data-name="Grupo 62340" transform="translate(-10018.42 -12953.639)">
      <text id="_4135_VENTAS" data-name="4135 VENTAS" transform="translate(1253.259 6447.836)" fill="#d9a171" font-size="26.77" font-family="Roboto-Regular, Roboto"><tspan x="0" y="0">4135 VENTAS</tspan></text>
    </g>
    <g id="Grupo_62341" data-name="Grupo 62341" transform="translate(-10018.42 -12953.639)">
      <line id="Línea_509" data-name="Línea 509" y2="2.059" transform="translate(1338.694 6416.959)" fill="none" stroke="#d4d4d4" stroke-linecap="square" stroke-miterlimit="10" stroke-width="0" opacity="0"/>
      <path id="Trazado_109231" data-name="Trazado 109231" d="M1338.694,6416.959v2.059h2.034v-2.059h-2.034" fill="#d4d4d4" fill-rule="evenodd"/>
      <line id="Línea_510" data-name="Línea 510" x2="327.402" transform="translate(1176.01 6458.143)" fill="none" stroke="#000" stroke-linecap="square" stroke-miterlimit="10" stroke-width="0" opacity="0"/>
      <path id="Trazado_109232" data-name="Trazado 109232" d="M1176.01,6458.143v2.06h327.4v-2.06h-327.4" fill="#344154" fill-rule="evenodd"/>
      <line id="Línea_511" data-name="Línea 511" x2="162.684" transform="translate(1340.728 6540.512)" fill="none" stroke="#000" stroke-linecap="square" stroke-miterlimit="10" stroke-width="0" opacity="0"/>
      <path id="Trazado_109233" data-name="Trazado 109233" d="M1340.728,6540.512v2.059h162.684v-2.059H1340.728" fill="#344154" fill-rule="evenodd"/>
      <line id="Línea_512" data-name="Línea 512" y2="123.553" transform="translate(1338.694 6460.203)" fill="none" stroke="#000" stroke-linecap="square" stroke-miterlimit="10" stroke-width="0" opacity="0"/>
      <path id="Trazado_109234" data-name="Trazado 109234" d="M1338.694,6460.2v123.553h2.034V6460.2h-2.034" fill="#344154" fill-rule="evenodd"/>
      <line id="Línea_513" data-name="Línea 513" x2="162.684" transform="translate(1340.728 6581.697)" fill="none" stroke="#000" stroke-linecap="square" stroke-miterlimit="10" stroke-width="0" opacity="0"/>
      <path id="Trazado_109235" data-name="Trazado 109235" d="M1340.728,6581.7v2.059h162.684V6581.7H1340.728" fill="#344154" fill-rule="evenodd"/>
      <line id="Línea_514" data-name="Línea 514" y2="39.125" transform="translate(1501.378 6542.571)" fill="none" stroke="#d4d4d4" stroke-linecap="square" stroke-miterlimit="10" stroke-width="0" opacity="0"/>
      <path id="Trazado_109236" data-name="Trazado 109236" d="M1501.378,6542.571V6581.7h2.034v-39.125h-2.034" fill="#d4d4d4" fill-rule="evenodd"/>
      <line id="Línea_515" data-name="Línea 515" y2="2.059" transform="translate(1338.694 6583.756)" fill="none" stroke="#d4d4d4" stroke-linecap="square" stroke-miterlimit="10" stroke-width="0" opacity="0"/>
      <path id="Trazado_109237" data-name="Trazado 109237" d="M1338.694,6583.756v2.06h2.034v-2.06h-2.034" fill="#d4d4d4" fill-rule="evenodd"/>
      <line id="Línea_516" data-name="Línea 516" y2="2.059" transform="translate(1501.378 6583.756)" fill="none" stroke="#d4d4d4" stroke-linecap="square" stroke-miterlimit="10" stroke-width="0" opacity="0"/>
      <path id="Trazado_109238" data-name="Trazado 109238" d="M1501.378,6583.756v2.06h2.034v-2.06h-2.034" fill="#d4d4d4" fill-rule="evenodd"/>
      <line id="Línea_517" data-name="Línea 517" x2="54.906" transform="translate(1503.412 6581.697)" fill="none" stroke="#d4d4d4" stroke-linecap="square" stroke-miterlimit="10" stroke-width="0" opacity="0"/>
    </g>
    <path id="Trazado_109363" data-name="Trazado 109363" d="M12.47-7.163h2.157v3.046H12.47V0H8.692V-4.117H.889L.719-6.5,8.653-19.032H12.47Zm-7.987,0H8.692v-6.719l-.248.431Z" transform="translate(-8860.107 -6235.023)" fill="#d9a171"/>
    <path id="Trazado_109364" data-name="Trazado 109364" d="M9.529,0H7.1V-16.117L2.222-14.326v-2.2l6.928-2.6h.379Zm7.385-1.268a1.514,1.514,0,0,1,.373-1.046A1.42,1.42,0,0,1,18.4-2.732a1.462,1.462,0,0,1,1.131.418,1.484,1.484,0,0,1,.386,1.046,1.4,1.4,0,0,1-.386,1.006A1.488,1.488,0,0,1,18.4.144a1.445,1.445,0,0,1-1.118-.405A1.431,1.431,0,0,1,16.914-1.268ZM35.593-8.117q0,4.248-1.451,6.313A5.16,5.16,0,0,1,29.606.261a5.2,5.2,0,0,1-4.51-2.02A10.5,10.5,0,0,1,23.581-7.79v-3.229q0-4.2,1.451-6.235a5.2,5.2,0,0,1,4.549-2.039A5.247,5.247,0,0,1,34.1-17.326q1.451,1.967,1.49,6.072Zm-2.418-3.307a8.86,8.86,0,0,0-.863-4.477,2.969,2.969,0,0,0-2.732-1.405,2.93,2.93,0,0,0-2.706,1.4,8.652,8.652,0,0,0-.876,4.3v3.869a9,9,0,0,0,.9,4.555,2.964,2.964,0,0,0,2.712,1.471A2.923,2.923,0,0,0,32.266-3.1a8.677,8.677,0,0,0,.908-4.366ZM48.9-6.392h2.64v1.974H48.9V0H46.468V-4.418H37.8V-5.843l8.522-13.189H48.9Zm-8.353,0h5.921v-9.333l-.288.523Zm24.718-7.673a4.419,4.419,0,0,1-.752,2.536A5.114,5.114,0,0,1,62.481-9.79,5.455,5.455,0,0,1,64.84-7.921a4.7,4.7,0,0,1,.869,2.784A4.973,4.973,0,0,1,64.043-1.2,6.4,6.4,0,0,1,59.657.261a6.374,6.374,0,0,1-4.4-1.471,5,5,0,0,1-1.654-3.928,4.844,4.844,0,0,1,.843-2.784A5.247,5.247,0,0,1,56.782-9.8a4.988,4.988,0,0,1-2-1.738,4.482,4.482,0,0,1-.732-2.523,4.919,4.919,0,0,1,1.542-3.817,5.786,5.786,0,0,1,4.065-1.412,5.791,5.791,0,0,1,4.059,1.412A4.909,4.909,0,0,1,65.265-14.065ZM63.291-5.189a3.508,3.508,0,0,0-1.013-2.6A3.593,3.593,0,0,0,59.631-8.8,3.529,3.529,0,0,0,57.01-7.8a3.547,3.547,0,0,0-.987,2.614,3.378,3.378,0,0,0,.961,2.549,3.688,3.688,0,0,0,2.673.928,3.677,3.677,0,0,0,2.667-.935A3.37,3.37,0,0,0,63.291-5.189ZM59.657-17.306a3.12,3.12,0,0,0-2.307.882,3.241,3.241,0,0,0-.882,2.4,3.226,3.226,0,0,0,.869,2.346,3.085,3.085,0,0,0,2.32.9,3.085,3.085,0,0,0,2.32-.9,3.226,3.226,0,0,0,.869-2.346,3.227,3.227,0,0,0-.9-2.366A3.076,3.076,0,0,0,59.657-17.306Zm9.4,16.038a1.514,1.514,0,0,1,.373-1.046,1.42,1.42,0,0,1,1.118-.418,1.462,1.462,0,0,1,1.131.418,1.484,1.484,0,0,1,.386,1.046,1.4,1.4,0,0,1-.386,1.006,1.488,1.488,0,0,1-1.131.405,1.445,1.445,0,0,1-1.118-.405A1.431,1.431,0,0,1,69.055-1.268ZM88.27,0H75.8V-1.738l6.588-7.32a15.651,15.651,0,0,0,2.02-2.7,4.5,4.5,0,0,0,.556-2.15,3.415,3.415,0,0,0-.9-2.444,3.154,3.154,0,0,0-2.405-.954,3.735,3.735,0,0,0-2.8,1.026,3.919,3.919,0,0,0-1,2.856H75.434a5.613,5.613,0,0,1,1.693-4.248,6.275,6.275,0,0,1,4.529-1.621,6.03,6.03,0,0,1,4.2,1.392A4.749,4.749,0,0,1,87.394-14.2q0,2.81-3.582,6.692l-5.1,5.529H88.27Zm14.849-17.672L95.237,0H92.7l7.856-17.045h-10.3v-1.987h12.862Zm12.235-1.372v2.052h-.444a6.367,6.367,0,0,0-4.5,1.673,6.962,6.962,0,0,0-1.935,4.562,5.162,5.162,0,0,1,4.1-1.725,4.935,4.935,0,0,1,3.967,1.752,6.756,6.756,0,0,1,1.484,4.523,6.735,6.735,0,0,1-1.6,4.706A5.514,5.514,0,0,1,112.138.261a5.433,5.433,0,0,1-4.431-2.1,8.315,8.315,0,0,1-1.7-5.4V-8.17q0-5.255,2.242-8.032t6.673-2.843Zm-3.176,8.575a3.858,3.858,0,0,0-2.287.745,3.882,3.882,0,0,0-1.451,1.869v.889A6.243,6.243,0,0,0,109.5-3.176a3.173,3.173,0,0,0,2.64,1.438,3.074,3.074,0,0,0,2.569-1.2,4.99,4.99,0,0,0,.935-3.15,4.992,4.992,0,0,0-.948-3.17A3.038,3.038,0,0,0,112.177-10.47Z" transform="translate(-8805.043 -6235.023)" fill="#344154"/>
    <path id="Trazado_109365" data-name="Trazado 109365" d="M2.693-9.542l.967-9.49h9.751V-16.8h-7.7l-.575,5.189a6.142,6.142,0,0,1,3.176-.823,5.251,5.251,0,0,1,4.131,1.719,6.737,6.737,0,0,1,1.529,4.647,6.5,6.5,0,0,1-1.588,4.634A5.788,5.788,0,0,1,7.947.261a6.016,6.016,0,0,1-4.117-1.4A5.582,5.582,0,0,1,2.013-5.006H4.3A3.841,3.841,0,0,0,5.464-2.542a3.617,3.617,0,0,0,2.484.83,3.263,3.263,0,0,0,2.647-1.15,4.809,4.809,0,0,0,.961-3.176A4.414,4.414,0,0,0,10.516-9.1a3.535,3.535,0,0,0-2.765-1.157,3.987,3.987,0,0,0-2.484.693l-.64.523Zm15.032,0,.967-9.49h9.751V-16.8h-7.7l-.575,5.189a6.142,6.142,0,0,1,3.176-.823,5.251,5.251,0,0,1,4.131,1.719,6.737,6.737,0,0,1,1.529,4.647,6.5,6.5,0,0,1-1.588,4.634A5.788,5.788,0,0,1,22.979.261a6.016,6.016,0,0,1-4.117-1.4,5.582,5.582,0,0,1-1.817-3.869h2.287A3.841,3.841,0,0,0,20.5-2.542a3.617,3.617,0,0,0,2.484.83,3.263,3.263,0,0,0,2.647-1.15,4.809,4.809,0,0,0,.961-3.176A4.414,4.414,0,0,0,25.548-9.1a3.535,3.535,0,0,0-2.765-1.157,3.987,3.987,0,0,0-2.484.693l-.64.523ZM31.946-1.268a1.514,1.514,0,0,1,.373-1.046,1.42,1.42,0,0,1,1.118-.418,1.462,1.462,0,0,1,1.131.418,1.484,1.484,0,0,1,.386,1.046,1.4,1.4,0,0,1-.386,1.006,1.488,1.488,0,0,1-1.131.405,1.445,1.445,0,0,1-1.118-.405A1.431,1.431,0,0,1,31.946-1.268ZM46.638,0H44.207V-16.117l-4.876,1.791v-2.2l6.928-2.6h.379ZM66.01-17.672,58.128,0H55.592l7.856-17.045h-10.3v-1.987H66.01ZM81.225,0H68.755V-1.738l6.588-7.32a15.651,15.651,0,0,0,2.02-2.7,4.5,4.5,0,0,0,.556-2.15,3.415,3.415,0,0,0-.9-2.444,3.154,3.154,0,0,0-2.405-.954,3.735,3.735,0,0,0-2.8,1.026,3.919,3.919,0,0,0-1,2.856H68.389a5.613,5.613,0,0,1,1.693-4.248,6.275,6.275,0,0,1,4.529-1.621,6.03,6.03,0,0,1,4.2,1.392A4.749,4.749,0,0,1,80.349-14.2q0,2.81-3.582,6.692l-5.1,5.529h9.555Z" transform="translate(-8597.779 -6235.023)" fill="#344154"/>
    <path id="Trazado_109366" data-name="Trazado 109366" d="M1.856-9.359l1.1-9.673H13.62v3.15H6.052L5.581-11.79a5.989,5.989,0,0,1,2.863-.719,5.486,5.486,0,0,1,4.261,1.686A6.735,6.735,0,0,1,14.248-6.1a6.9,6.9,0,0,1-.778,3.3A5.489,5.489,0,0,1,11.241-.542a6.957,6.957,0,0,1-3.425.8,7.388,7.388,0,0,1-3.2-.7A5.68,5.68,0,0,1,2.281-2.405a5.362,5.362,0,0,1-.908-2.889H5.111a2.792,2.792,0,0,0,.83,1.85,2.631,2.631,0,0,0,1.863.66,2.322,2.322,0,0,0,1.974-.922,4.269,4.269,0,0,0,.693-2.608,3.53,3.53,0,0,0-.8-2.484A2.926,2.926,0,0,0,7.411-9.66a3.27,3.27,0,0,0-2.183.706l-.366.34Z" transform="translate(-8492.173 -6235.023)" fill="#d9a171"/>
    <path id="Trazado_109367" data-name="Trazado 109367" d="M14.235-16.923,6.875,0H2.889l7.372-15.986H.8v-3.046H14.235Z" transform="translate(-8860.107 -6193.792)" fill="#d9a171"/>
    <path id="Trazado_109368" data-name="Trazado 109368" d="M2.693-9.542l.967-9.49h9.751V-16.8h-7.7l-.575,5.189a6.142,6.142,0,0,1,3.176-.823,5.251,5.251,0,0,1,4.131,1.719,6.737,6.737,0,0,1,1.529,4.647,6.5,6.5,0,0,1-1.588,4.634A5.788,5.788,0,0,1,7.947.261a6.016,6.016,0,0,1-4.117-1.4A5.582,5.582,0,0,1,2.013-5.006H4.3A3.841,3.841,0,0,0,5.464-2.542a3.617,3.617,0,0,0,2.484.83,3.263,3.263,0,0,0,2.647-1.15,4.809,4.809,0,0,0,.961-3.176A4.414,4.414,0,0,0,10.516-9.1a3.535,3.535,0,0,0-2.765-1.157,3.987,3.987,0,0,0-2.484.693l-.64.523ZM25.881-8.366a5.917,5.917,0,0,1-1.81,1.451,4.912,4.912,0,0,1-2.307.549,5.071,5.071,0,0,1-2.869-.81,5.268,5.268,0,0,1-1.889-2.281,7.776,7.776,0,0,1-.667-3.248,7.923,7.923,0,0,1,.725-3.438,5.329,5.329,0,0,1,2.059-2.34,5.871,5.871,0,0,1,3.111-.81,5.315,5.315,0,0,1,4.451,2.111,9.208,9.208,0,0,1,1.627,5.758v.706q0,5.555-2.2,8.111T19.489.013h-.471V-2.039h.51A6.658,6.658,0,0,0,24.13-3.6,6.689,6.689,0,0,0,25.881-8.366Zm-3.725,0A3.734,3.734,0,0,0,24.4-9.111a4.392,4.392,0,0,0,1.5-1.843v-.967a6.654,6.654,0,0,0-1.033-3.869,3.081,3.081,0,0,0-2.614-1.49,3.105,3.105,0,0,0-2.562,1.222,5.042,5.042,0,0,0-.967,3.222,5.247,5.247,0,0,0,.935,3.209A2.959,2.959,0,0,0,22.156-8.366Zm10.6-1.176.967-9.49h9.751V-16.8h-7.7L35.2-11.607a6.142,6.142,0,0,1,3.176-.823,5.251,5.251,0,0,1,4.131,1.719,6.737,6.737,0,0,1,1.529,4.647,6.5,6.5,0,0,1-1.588,4.634A5.788,5.788,0,0,1,38.011.261a6.016,6.016,0,0,1-4.117-1.4,5.582,5.582,0,0,1-1.817-3.869h2.287a3.841,3.841,0,0,0,1.163,2.464,3.617,3.617,0,0,0,2.484.83,3.263,3.263,0,0,0,2.647-1.15,4.809,4.809,0,0,0,.961-3.176A4.414,4.414,0,0,0,40.58-9.1a3.535,3.535,0,0,0-2.765-1.157,3.987,3.987,0,0,0-2.484.693l-.64.523ZM46.978-1.268a1.514,1.514,0,0,1,.373-1.046,1.42,1.42,0,0,1,1.118-.418,1.462,1.462,0,0,1,1.131.418,1.484,1.484,0,0,1,.386,1.046A1.4,1.4,0,0,1,49.6-.261a1.488,1.488,0,0,1-1.131.405,1.445,1.445,0,0,1-1.118-.405A1.431,1.431,0,0,1,46.978-1.268Zm16.012-7.1a5.917,5.917,0,0,1-1.81,1.451,4.912,4.912,0,0,1-2.307.549A5.071,5.071,0,0,1,56-7.176a5.269,5.269,0,0,1-1.889-2.281,7.776,7.776,0,0,1-.667-3.248,7.923,7.923,0,0,1,.725-3.438,5.329,5.329,0,0,1,2.059-2.34,5.871,5.871,0,0,1,3.111-.81,5.315,5.315,0,0,1,4.451,2.111,9.208,9.208,0,0,1,1.627,5.758v.706q0,5.555-2.2,8.111T56.6.013h-.471V-2.039h.51a6.658,6.658,0,0,0,4.6-1.559A6.689,6.689,0,0,0,62.99-8.366Zm-3.725,0a3.734,3.734,0,0,0,2.242-.745A4.392,4.392,0,0,0,63-10.954v-.967a6.654,6.654,0,0,0-1.033-3.869,3.081,3.081,0,0,0-2.614-1.49,3.105,3.105,0,0,0-2.562,1.222,5.042,5.042,0,0,0-.967,3.222,5.247,5.247,0,0,0,.935,3.209A2.959,2.959,0,0,0,59.265-8.366Zm19.7,1.974H81.6v1.974h-2.64V0H76.532V-4.418H67.866V-5.843l8.522-13.189h2.575Zm-8.353,0h5.921v-9.333l-.288.523Zm24.718-7.673a4.419,4.419,0,0,1-.752,2.536A5.114,5.114,0,0,1,92.544-9.79,5.455,5.455,0,0,1,94.9-7.921a4.7,4.7,0,0,1,.869,2.784A4.973,4.973,0,0,1,94.106-1.2,6.4,6.4,0,0,1,89.721.261a6.374,6.374,0,0,1-4.4-1.471,5,5,0,0,1-1.654-3.928,4.844,4.844,0,0,1,.843-2.784A5.247,5.247,0,0,1,86.845-9.8a4.988,4.988,0,0,1-2-1.738,4.482,4.482,0,0,1-.732-2.523,4.919,4.919,0,0,1,1.542-3.817,5.786,5.786,0,0,1,4.065-1.412,5.791,5.791,0,0,1,4.059,1.412A4.909,4.909,0,0,1,95.329-14.065ZM93.355-5.189a3.508,3.508,0,0,0-1.013-2.6A3.593,3.593,0,0,0,89.695-8.8a3.529,3.529,0,0,0-2.621.993,3.547,3.547,0,0,0-.987,2.614,3.378,3.378,0,0,0,.961,2.549,3.688,3.688,0,0,0,2.673.928,3.677,3.677,0,0,0,2.667-.935A3.37,3.37,0,0,0,93.355-5.189ZM89.721-17.306a3.12,3.12,0,0,0-2.307.882,3.241,3.241,0,0,0-.882,2.4,3.226,3.226,0,0,0,.869,2.346,3.085,3.085,0,0,0,2.32.9,3.085,3.085,0,0,0,2.32-.9,3.226,3.226,0,0,0,.869-2.346,3.227,3.227,0,0,0-.9-2.366A3.076,3.076,0,0,0,89.721-17.306Z" transform="translate(-8784.71 -6193.792)" fill="#344154"/>
    <path id="Trazado_109378" data-name="Trazado 109378" d="M9.529,0H7.1V-16.117L2.222-14.326v-2.2l6.928-2.6h.379Zm7.385-1.268a1.514,1.514,0,0,1,.373-1.046A1.42,1.42,0,0,1,18.4-2.732a1.462,1.462,0,0,1,1.131.418,1.484,1.484,0,0,1,.386,1.046,1.4,1.4,0,0,1-.386,1.006A1.488,1.488,0,0,1,18.4.144a1.445,1.445,0,0,1-1.118-.405A1.431,1.431,0,0,1,16.914-1.268ZM33.149-19.045v2.052H32.7a6.367,6.367,0,0,0-4.5,1.673,6.962,6.962,0,0,0-1.935,4.562,5.162,5.162,0,0,1,4.1-1.725,4.935,4.935,0,0,1,3.967,1.752,6.756,6.756,0,0,1,1.484,4.523,6.735,6.735,0,0,1-1.6,4.706A5.514,5.514,0,0,1,29.933.261a5.433,5.433,0,0,1-4.431-2.1,8.315,8.315,0,0,1-1.7-5.4V-8.17q0-5.255,2.242-8.032t6.673-2.843ZM29.972-10.47a3.858,3.858,0,0,0-2.287.745,3.882,3.882,0,0,0-1.451,1.869v.889a6.243,6.243,0,0,0,1.059,3.791,3.173,3.173,0,0,0,2.64,1.438,3.074,3.074,0,0,0,2.569-1.2,4.99,4.99,0,0,0,.935-3.15,4.992,4.992,0,0,0-.948-3.17A3.038,3.038,0,0,0,29.972-10.47ZM48.9-6.392h2.64v1.974H48.9V0H46.468V-4.418H37.8V-5.843l8.522-13.189H48.9Zm-8.353,0h5.921v-9.333l-.288.523Zm23.384,0h2.64v1.974h-2.64V0H61.5V-4.418H52.834V-5.843l8.522-13.189h2.575Zm-8.353,0H61.5v-9.333l-.288.523ZM69.055-1.268a1.514,1.514,0,0,1,.373-1.046,1.42,1.42,0,0,1,1.118-.418,1.462,1.462,0,0,1,1.131.418,1.484,1.484,0,0,1,.386,1.046,1.4,1.4,0,0,1-.386,1.006,1.488,1.488,0,0,1-1.131.405,1.445,1.445,0,0,1-1.118-.405A1.431,1.431,0,0,1,69.055-1.268ZM88.27,0H75.8V-1.738l6.588-7.32a15.651,15.651,0,0,0,2.02-2.7,4.5,4.5,0,0,0,.556-2.15,3.415,3.415,0,0,0-.9-2.444,3.154,3.154,0,0,0-2.405-.954,3.735,3.735,0,0,0-2.8,1.026,3.919,3.919,0,0,0-1,2.856H75.434a5.613,5.613,0,0,1,1.693-4.248,6.275,6.275,0,0,1,4.529-1.621,6.03,6.03,0,0,1,4.2,1.392A4.749,4.749,0,0,1,87.394-14.2q0,2.81-3.582,6.692l-5.1,5.529H88.27ZM103.3,0H90.832V-1.738l6.588-7.32a15.651,15.651,0,0,0,2.02-2.7,4.5,4.5,0,0,0,.556-2.15,3.415,3.415,0,0,0-.9-2.444,3.154,3.154,0,0,0-2.405-.954,3.735,3.735,0,0,0-2.8,1.026,3.919,3.919,0,0,0-1,2.856H90.466a5.613,5.613,0,0,1,1.693-4.248,6.275,6.275,0,0,1,4.529-1.621,6.03,6.03,0,0,1,4.2,1.392,4.749,4.749,0,0,1,1.542,3.706q0,2.81-3.582,6.692l-5.1,5.529H103.3Zm12.771-6.392h2.64v1.974h-2.64V0h-2.431V-4.418h-8.666V-5.843L113.5-19.032h2.575Zm-8.353,0h5.921v-9.333l-.288.523Z" transform="translate(-8805.043 -6152.625)" fill="#344154"/>
    <path id="Trazado_109379" data-name="Trazado 109379" d="M2.693-9.542l.967-9.49h9.751V-16.8h-7.7l-.575,5.189a6.142,6.142,0,0,1,3.176-.823,5.251,5.251,0,0,1,4.131,1.719,6.737,6.737,0,0,1,1.529,4.647,6.5,6.5,0,0,1-1.588,4.634A5.788,5.788,0,0,1,7.947.261a6.016,6.016,0,0,1-4.117-1.4A5.582,5.582,0,0,1,2.013-5.006H4.3A3.841,3.841,0,0,0,5.464-2.542a3.617,3.617,0,0,0,2.484.83,3.263,3.263,0,0,0,2.647-1.15,4.809,4.809,0,0,0,.961-3.176A4.414,4.414,0,0,0,10.516-9.1a3.535,3.535,0,0,0-2.765-1.157,3.987,3.987,0,0,0-2.484.693l-.64.523Zm15.032,0,.967-9.49h9.751V-16.8h-7.7l-.575,5.189a6.142,6.142,0,0,1,3.176-.823,5.251,5.251,0,0,1,4.131,1.719,6.737,6.737,0,0,1,1.529,4.647,6.5,6.5,0,0,1-1.588,4.634A5.788,5.788,0,0,1,22.979.261a6.016,6.016,0,0,1-4.117-1.4,5.582,5.582,0,0,1-1.817-3.869h2.287A3.841,3.841,0,0,0,20.5-2.542a3.617,3.617,0,0,0,2.484.83,3.263,3.263,0,0,0,2.647-1.15,4.809,4.809,0,0,0,.961-3.176A4.414,4.414,0,0,0,25.548-9.1a3.535,3.535,0,0,0-2.765-1.157,3.987,3.987,0,0,0-2.484.693l-.64.523ZM31.946-1.268a1.514,1.514,0,0,1,.373-1.046,1.42,1.42,0,0,1,1.118-.418,1.462,1.462,0,0,1,1.131.418,1.484,1.484,0,0,1,.386,1.046,1.4,1.4,0,0,1-.386,1.006,1.488,1.488,0,0,1-1.131.405,1.445,1.445,0,0,1-1.118-.405A1.431,1.431,0,0,1,31.946-1.268ZM46.638,0H44.207V-16.117l-4.876,1.791v-2.2l6.928-2.6h.379ZM66.01-17.672,58.128,0H55.592l7.856-17.045h-10.3v-1.987H66.01ZM81.225,0H68.755V-1.738l6.588-7.32a15.651,15.651,0,0,0,2.02-2.7,4.5,4.5,0,0,0,.556-2.15,3.415,3.415,0,0,0-.9-2.444,3.154,3.154,0,0,0-2.405-.954,3.735,3.735,0,0,0-2.8,1.026,3.919,3.919,0,0,0-1,2.856H68.389a5.613,5.613,0,0,1,1.693-4.248,6.275,6.275,0,0,1,4.529-1.621,6.03,6.03,0,0,1,4.2,1.392A4.749,4.749,0,0,1,80.349-14.2q0,2.81-3.582,6.692l-5.1,5.529h9.555Z" transform="translate(-8597.779 -6152.625)" fill="#344154"/>
    <path id="Trazado_109380" data-name="Trazado 109380" d="M9.529,0H7.1V-16.117L2.222-14.326v-2.2l6.928-2.6h.379Zm7.385-1.268a1.514,1.514,0,0,1,.373-1.046A1.42,1.42,0,0,1,18.4-2.732a1.462,1.462,0,0,1,1.131.418,1.484,1.484,0,0,1,.386,1.046,1.4,1.4,0,0,1-.386,1.006A1.488,1.488,0,0,1,18.4.144a1.445,1.445,0,0,1-1.118-.405A1.431,1.431,0,0,1,16.914-1.268ZM24.77-9.542l.967-9.49h9.751V-16.8h-7.7l-.575,5.189a6.142,6.142,0,0,1,3.176-.823,5.251,5.251,0,0,1,4.131,1.719,6.737,6.737,0,0,1,1.529,4.647,6.5,6.5,0,0,1-1.588,4.634A5.788,5.788,0,0,1,30.025.261a6.016,6.016,0,0,1-4.117-1.4A5.582,5.582,0,0,1,24.09-5.006h2.287a3.841,3.841,0,0,0,1.163,2.464,3.617,3.617,0,0,0,2.484.83,3.263,3.263,0,0,0,2.647-1.15,4.809,4.809,0,0,0,.961-3.176A4.414,4.414,0,0,0,32.593-9.1a3.535,3.535,0,0,0-2.765-1.157,3.987,3.987,0,0,0-2.484.693l-.64.523Zm25.463-4.523a4.419,4.419,0,0,1-.752,2.536A5.114,5.114,0,0,1,47.449-9.79a5.455,5.455,0,0,1,2.359,1.869,4.7,4.7,0,0,1,.869,2.784A4.973,4.973,0,0,1,49.011-1.2,6.4,6.4,0,0,1,44.625.261a6.374,6.374,0,0,1-4.4-1.471,5,5,0,0,1-1.654-3.928,4.844,4.844,0,0,1,.843-2.784A5.247,5.247,0,0,1,41.75-9.8a4.988,4.988,0,0,1-2-1.738,4.482,4.482,0,0,1-.732-2.523,4.919,4.919,0,0,1,1.542-3.817,5.786,5.786,0,0,1,4.065-1.412,5.791,5.791,0,0,1,4.059,1.412A4.909,4.909,0,0,1,50.233-14.065ZM48.259-5.189a3.508,3.508,0,0,0-1.013-2.6A3.593,3.593,0,0,0,44.6-8.8a3.529,3.529,0,0,0-2.621.993,3.547,3.547,0,0,0-.987,2.614,3.378,3.378,0,0,0,.961,2.549,3.688,3.688,0,0,0,2.673.928,3.677,3.677,0,0,0,2.667-.935A3.37,3.37,0,0,0,48.259-5.189ZM44.625-17.306a3.12,3.12,0,0,0-2.307.882,3.241,3.241,0,0,0-.882,2.4,3.226,3.226,0,0,0,.869,2.346,3.085,3.085,0,0,0,2.32.9,3.085,3.085,0,0,0,2.32-.9,3.226,3.226,0,0,0,.869-2.346,3.227,3.227,0,0,0-.9-2.366A3.076,3.076,0,0,0,44.625-17.306ZM62.99-8.366a5.917,5.917,0,0,1-1.81,1.451,4.912,4.912,0,0,1-2.307.549A5.071,5.071,0,0,1,56-7.176a5.269,5.269,0,0,1-1.889-2.281,7.776,7.776,0,0,1-.667-3.248,7.923,7.923,0,0,1,.725-3.438,5.329,5.329,0,0,1,2.059-2.34,5.871,5.871,0,0,1,3.111-.81,5.315,5.315,0,0,1,4.451,2.111,9.208,9.208,0,0,1,1.627,5.758v.706q0,5.555-2.2,8.111T56.6.013h-.471V-2.039h.51a6.658,6.658,0,0,0,4.6-1.559A6.689,6.689,0,0,0,62.99-8.366Zm-3.725,0a3.734,3.734,0,0,0,2.242-.745A4.392,4.392,0,0,0,63-10.954v-.967a6.654,6.654,0,0,0-1.033-3.869,3.081,3.081,0,0,0-2.614-1.49,3.105,3.105,0,0,0-2.562,1.222,5.042,5.042,0,0,0-.967,3.222,5.247,5.247,0,0,0,.935,3.209A2.959,2.959,0,0,0,59.265-8.366Zm9.79,7.1a1.514,1.514,0,0,1,.373-1.046,1.42,1.42,0,0,1,1.118-.418,1.462,1.462,0,0,1,1.131.418,1.484,1.484,0,0,1,.386,1.046,1.4,1.4,0,0,1-.386,1.006,1.488,1.488,0,0,1-1.131.405,1.445,1.445,0,0,1-1.118-.405A1.431,1.431,0,0,1,69.055-1.268ZM87.734-8.117q0,4.248-1.451,6.313A5.16,5.16,0,0,1,81.748.261a5.2,5.2,0,0,1-4.51-2.02A10.5,10.5,0,0,1,75.722-7.79v-3.229q0-4.2,1.451-6.235a5.2,5.2,0,0,1,4.549-2.039,5.247,5.247,0,0,1,4.523,1.967q1.451,1.967,1.49,6.072Zm-2.418-3.307a8.86,8.86,0,0,0-.863-4.477,2.969,2.969,0,0,0-2.732-1.405,2.93,2.93,0,0,0-2.706,1.4,8.652,8.652,0,0,0-.876,4.3v3.869a9,9,0,0,0,.9,4.555,2.964,2.964,0,0,0,2.712,1.471A2.923,2.923,0,0,0,84.408-3.1a8.677,8.677,0,0,0,.908-4.366Zm6.627,1.882.967-9.49h9.751V-16.8h-7.7l-.575,5.189a6.142,6.142,0,0,1,3.176-.823,5.251,5.251,0,0,1,4.131,1.719,6.737,6.737,0,0,1,1.529,4.647,6.5,6.5,0,0,1-1.588,4.634A5.788,5.788,0,0,1,97.2.261a6.016,6.016,0,0,1-4.117-1.4,5.582,5.582,0,0,1-1.817-3.869h2.287a3.841,3.841,0,0,0,1.163,2.464,3.617,3.617,0,0,0,2.484.83,3.263,3.263,0,0,0,2.647-1.15,4.809,4.809,0,0,0,.961-3.176A4.414,4.414,0,0,0,99.766-9.1,3.535,3.535,0,0,0,97-10.261a3.987,3.987,0,0,0-2.484.693l-.64.523ZM113.811,0H111.38V-16.117L106.5-14.326v-2.2l6.928-2.6h.379Z" transform="translate(-8805.043 -6111.46)" fill="#344154"/>
    <path id="Trazado_109381" data-name="Trazado 109381" d="M16.208-6.039a7,7,0,0,1-2.229,4.66A7.3,7.3,0,0,1,8.993.261a6.706,6.706,0,0,1-5.4-2.418,9.729,9.729,0,0,1-2.033-6.47v-1.83A10.844,10.844,0,0,1,2.5-15.123a7.079,7.079,0,0,1,2.686-3.091,7.479,7.479,0,0,1,4.026-1.078A6.877,6.877,0,0,1,14.078-17.6a7.086,7.086,0,0,1,2.131,4.686H13.686a5.468,5.468,0,0,0-1.418-3.3,4.291,4.291,0,0,0-3.052-1.023,4.49,4.49,0,0,0-3.771,1.779A8.168,8.168,0,0,0,4.078-10.4v1.845A8.4,8.4,0,0,0,5.372-3.622,4.181,4.181,0,0,0,8.993-1.791,4.829,4.829,0,0,0,12.2-2.738a5.259,5.259,0,0,0,1.484-3.3ZM34.273-8.9a11.773,11.773,0,0,1-.941,4.882A7.129,7.129,0,0,1,30.665-.837a7.336,7.336,0,0,1-4.026,1.1,7.274,7.274,0,0,1-3.987-1.1,7.3,7.3,0,0,1-2.7-3.15,11.3,11.3,0,0,1-.987-4.738V-10.1a11.633,11.633,0,0,1,.954-4.849,7.273,7.273,0,0,1,2.7-3.222,7.243,7.243,0,0,1,3.993-1.118,7.378,7.378,0,0,1,4.032,1.1,7.115,7.115,0,0,1,2.686,3.2,11.83,11.83,0,0,1,.941,4.882Zm-2.5-1.229a8.533,8.533,0,0,0-1.359-5.2,4.484,4.484,0,0,0-3.8-1.81,4.436,4.436,0,0,0-3.745,1.81A8.358,8.358,0,0,0,21.463-10.3v1.4a8.545,8.545,0,0,0,1.379,5.157,4.454,4.454,0,0,0,3.8,1.876A4.436,4.436,0,0,0,30.4-3.64a8.5,8.5,0,0,0,1.372-5.078ZM43.645-8.483a11.8,11.8,0,0,1-4.7-2.281,4.358,4.358,0,0,1-1.471-3.34,4.6,4.6,0,0,1,1.8-3.719,7.143,7.143,0,0,1,4.673-1.471,7.8,7.8,0,0,1,3.5.758,5.749,5.749,0,0,1,2.379,2.091,5.348,5.348,0,0,1,.843,2.915H48.141a3.48,3.48,0,0,0-1.1-2.722,4.465,4.465,0,0,0-3.1-.99,4.571,4.571,0,0,0-2.9.818,2.73,2.73,0,0,0-1.039,2.272A2.456,2.456,0,0,0,41-12.18a9.68,9.68,0,0,0,3.359,1.473A15.587,15.587,0,0,1,48.07-9.235a5.633,5.633,0,0,1,1.987,1.876A4.787,4.787,0,0,1,50.7-4.836a4.447,4.447,0,0,1-1.8,3.706A7.691,7.691,0,0,1,44.076.261a8.946,8.946,0,0,1-3.66-.752A6.159,6.159,0,0,1,37.8-2.549a5.024,5.024,0,0,1-.922-2.967H39.4a3.278,3.278,0,0,0,1.274,2.725,5.366,5.366,0,0,0,3.405,1,4.933,4.933,0,0,0,3.046-.81A2.632,2.632,0,0,0,48.181-4.81a2.584,2.584,0,0,0-.98-2.163A11.3,11.3,0,0,0,43.645-8.483Zm23.424-8.5H60.951V0h-2.5V-16.98h-6.1v-2.052H67.069ZM84.166-8.9a11.773,11.773,0,0,1-.941,4.882A7.129,7.129,0,0,1,80.558-.837a7.336,7.336,0,0,1-4.026,1.1,7.274,7.274,0,0,1-3.987-1.1,7.3,7.3,0,0,1-2.7-3.15,11.3,11.3,0,0,1-.987-4.738V-10.1a11.633,11.633,0,0,1,.954-4.849,7.273,7.273,0,0,1,2.7-3.222,7.243,7.243,0,0,1,3.993-1.118,7.378,7.378,0,0,1,4.032,1.1,7.115,7.115,0,0,1,2.686,3.2,11.83,11.83,0,0,1,.941,4.882Zm-2.5-1.229a8.533,8.533,0,0,0-1.359-5.2,4.484,4.484,0,0,0-3.8-1.81,4.436,4.436,0,0,0-3.745,1.81A8.358,8.358,0,0,0,71.356-10.3v1.4a8.545,8.545,0,0,0,1.379,5.157,4.454,4.454,0,0,0,3.8,1.876A4.436,4.436,0,0,0,80.3-3.64a8.5,8.5,0,0,0,1.372-5.078ZM94.557,0V-19.032H99.93a8.648,8.648,0,0,1,4.392,1.1,7.426,7.426,0,0,1,2.948,3.124,10.168,10.168,0,0,1,1.052,4.653v1.216a10.2,10.2,0,0,1-1.039,4.719,7.31,7.31,0,0,1-2.967,3.111A9.2,9.2,0,0,1,99.825,0Zm2.51-16.98V-2.052h2.64a5.745,5.745,0,0,0,4.516-1.805A7.459,7.459,0,0,0,105.838-9v-1.112a7.577,7.577,0,0,0-1.523-5.043A5.419,5.419,0,0,0,100-16.98ZM122.87-8.8h-8.248v6.745H124.2V0H112.112V-19.032h11.96v2.052h-9.451v6.13h8.248Zm17.385,5.464,5.438-15.7h2.745L141.379,0h-2.222l-7.045-19.032h2.732ZM161.744-8.8H153.5v6.745h9.581V0H150.986V-19.032h11.96v2.052H153.5v6.13h8.248ZM180.828,0H178.3l-9.581-14.666V0H166.2V-19.032h2.523L178.331-4.3V-19.032h2.5Zm17.228-16.98h-6.117V0h-2.5V-16.98h-6.1v-2.052h14.718Zm12.3,12h-7.973L200.591,0H198l7.268-19.032h2.2L214.748,0h-2.575ZM203.14-7.032h6.47l-3.242-8.9Z" transform="translate(-8786.908 -6276.19)" fill="#d9a171"/>
    <path id="Trazado_109369" data-name="Trazado 109369" d="M0,0V2.059" transform="translate(-8679.113 -6307.091)" fill="none" stroke="#d4d4d4" stroke-linecap="square" stroke-width="0" opacity="0"/>
    <path id="Trazado_109239" data-name="Trazado 109239" d="M1339.306,6646.548v2.059h2.034v-2.059h-2.034" transform="translate(-10018.42 -12953.639)" fill="#d4d4d4" fill-rule="evenodd"/>
    <path id="Trazado_109370" data-name="Trazado 109370" d="M0,0H327.4" transform="translate(-8841.798 -6265.906)" fill="none" stroke="#000" stroke-linecap="square" stroke-width="0" opacity="0"/>
    <path id="Trazado_109240" data-name="Trazado 109240" d="M1176.622,6687.732v2.059h327.4v-2.059h-327.4" transform="translate(-10018.42 -12953.639)" fill="#344154" fill-rule="evenodd"/>
    <path id="Trazado_109371" data-name="Trazado 109371" d="M0,0H327.4" transform="translate(-8841.798 -6183.538)" fill="none" stroke="#000" stroke-linecap="square" stroke-width="0" opacity="0"/>
    <path id="Trazado_109241" data-name="Trazado 109241" d="M1176.622,6770.1v2.06h327.4v-2.06h-327.4" transform="translate(-10018.42 -12953.639)" fill="#344154" fill-rule="evenodd"/>
    <path id="Trazado_109372" data-name="Trazado 109372" d="M0,0H327.4" transform="translate(-8841.798 -6142.353)" fill="none" stroke="#000" stroke-linecap="square" stroke-width="0" opacity="0"/>
    <path id="Trazado_109242" data-name="Trazado 109242" d="M1176.622,6811.286v2.06h327.4v-2.06h-327.4" transform="translate(-10018.42 -12953.639)" fill="#344154" fill-rule="evenodd"/>
    <path id="Trazado_109373" data-name="Trazado 109373" d="M0,0H162.684" transform="translate(-9004.482 -6101.168)" fill="none" stroke="#d4d4d4" stroke-linecap="square" stroke-width="0" opacity="0"/>
    <path id="Trazado_109374" data-name="Trazado 109374" d="M0,0H164.718" transform="translate(-8841.798 -6101.168)" fill="none" stroke="#000" stroke-linecap="square" stroke-width="0" opacity="0"/>
    <path id="Trazado_109243" data-name="Trazado 109243" d="M1176.622,6852.47v2.059H1341.34v-2.059H1176.622" transform="translate(-10018.42 -12953.639)" fill="#344154" fill-rule="evenodd"/>
    <path id="Trazado_109375" data-name="Trazado 109375" d="M0,0V164.738" transform="translate(-8679.113 -6263.847)" fill="none" stroke="#000" stroke-linecap="square" stroke-width="0" opacity="0"/>
    <path id="Trazado_109244" data-name="Trazado 109244" d="M1339.306,6689.792v164.738h2.034V6689.792h-2.034" transform="translate(-10018.42 -12953.639)" fill="#344154" fill-rule="evenodd"/>
    <path id="Trazado_109376" data-name="Trazado 109376" d="M0,0V2.059" transform="translate(-8841.798 -6099.109)" fill="none" stroke="#d4d4d4" stroke-linecap="square" stroke-width="0" opacity="0"/>
    <path id="Trazado_109245" data-name="Trazado 109245" d="M1176.622,6854.529v2.06h2.034v-2.06h-2.034" transform="translate(-10018.42 -12953.639)" fill="#d4d4d4" fill-rule="evenodd"/>
    <path id="Trazado_109377" data-name="Trazado 109377" d="M0,0V2.059" transform="translate(-8679.113 -6099.109)" fill="none" stroke="#d4d4d4" stroke-linecap="square" stroke-width="0" opacity="0"/>
    <path id="Trazado_109246" data-name="Trazado 109246" d="M1339.306,6854.529v2.06h2.034v-2.06h-2.034" transform="translate(-10018.42 -12953.639)" fill="#d4d4d4" fill-rule="evenodd"/>
    <g id="Grupo_62350" data-name="Grupo 62350" transform="translate(-10018.42 -12953.639)">
      <text id="_5-2" data-name="5" transform="translate(1157.647 6963.202)" fill="#d9a171" font-size="26.77" font-family="Roboto-Bold, Roboto" font-weight="700"><tspan x="0" y="0">5</tspan></text>
      <text id="_150.000-2" data-name="150.000" transform="translate(1233.047 6963.202)" fill="#344154" font-size="26.77" font-family="Roboto-Regular, Roboto"><tspan x="0" y="0">150.000</tspan></text>
    </g>
    <g id="Grupo_62351" data-name="Grupo 62351" transform="translate(-10018.42 -12953.639)">
      <text id="_4175_DEVOL.VENTAS" data-name="4175 DEVOL.VENTAS" transform="translate(1212.579 6922.038)" fill="#d9a171" font-size="26.77" font-family="Roboto-Regular, Roboto"><tspan x="0" y="0">4175 DEVOL.VENTAS</tspan></text>
    </g>
    <g id="Grupo_62352" data-name="Grupo 62352" transform="translate(-10018.42 -12953.639)">
      <line id="Línea_527" data-name="Línea 527" y2="2.059" transform="translate(1338.631 6891.142)" fill="none" stroke="#d4d4d4" stroke-linecap="square" stroke-miterlimit="10" stroke-width="0" opacity="0"/>
      <path id="Trazado_109247" data-name="Trazado 109247" d="M1338.631,6891.142v2.059h2.034v-2.059h-2.034" fill="#d4d4d4" fill-rule="evenodd"/>
      <line id="Línea_528" data-name="Línea 528" x2="327.402" transform="translate(1175.947 6932.327)" fill="none" stroke="#000" stroke-linecap="square" stroke-miterlimit="10" stroke-width="0" opacity="0"/>
      <path id="Trazado_109248" data-name="Trazado 109248" d="M1175.947,6932.327v2.059h327.4v-2.059h-327.4" fill="#344154" fill-rule="evenodd"/>
      <line id="Línea_529" data-name="Línea 529" x2="164.718" transform="translate(1175.947 6973.511)" fill="none" stroke="#000" stroke-linecap="square" stroke-miterlimit="10" stroke-width="0" opacity="0"/>
      <path id="Trazado_109249" data-name="Trazado 109249" d="M1175.947,6973.511v2.059h164.718v-2.059H1175.947" fill="#344154" fill-rule="evenodd"/>
      <line id="Línea_530" data-name="Línea 530" y2="41.185" transform="translate(1338.631 6934.386)" fill="none" stroke="#000" stroke-linecap="square" stroke-miterlimit="10" stroke-width="0" opacity="0"/>
      <path id="Trazado_109250" data-name="Trazado 109250" d="M1338.631,6934.386v41.185h2.034v-41.185h-2.034" fill="#344154" fill-rule="evenodd"/>
      <line id="Línea_531" data-name="Línea 531" y2="2.059" transform="translate(1175.947 6975.57)" fill="none" stroke="#d4d4d4" stroke-linecap="square" stroke-miterlimit="10" stroke-width="0" opacity="0"/>
      <path id="Trazado_109251" data-name="Trazado 109251" d="M1175.947,6975.57v2.059h2.034v-2.059h-2.034" fill="#d4d4d4" fill-rule="evenodd"/>
      <line id="Línea_532" data-name="Línea 532" y2="2.059" transform="translate(1338.631 6975.57)" fill="none" stroke="#d4d4d4" stroke-linecap="square" stroke-miterlimit="10" stroke-width="0" opacity="0"/>
      <path id="Trazado_109252" data-name="Trazado 109252" d="M1338.631,6975.57v2.059h2.034v-2.059h-2.034" fill="#d4d4d4" fill-rule="evenodd"/>
      <line id="Línea_533" data-name="Línea 533" x2="2.034" transform="translate(1503.349 6932.327)" fill="none" stroke="#d4d4d4" stroke-linecap="square" stroke-miterlimit="10" stroke-width="0" opacity="0"/>
      <path id="Trazado_109253" data-name="Trazado 109253" d="M1503.349,6932.327v2.059h2.034v-2.059h-2.034" fill="#d4d4d4" fill-rule="evenodd"/>
      <line id="Línea_534" data-name="Línea 534" x2="164.718" transform="translate(1340.665 6973.511)" fill="none" stroke="#d4d4d4" stroke-linecap="square" stroke-miterlimit="10" stroke-width="0" opacity="0"/>
    </g>
  </g>
</svg>
