<svg xmlns="http://www.w3.org/2000/svg" width="549.792" height="204.796" viewBox="0 0 549.792 204.796">
  <g id="Grupo_62402" data-name="Grupo 62402" transform="translate(-465.208 -4111)">
    <path id="Trazado_105685" data-name="Trazado 105685" d="M21,0H453.391a21,21,0,0,1,21,21V183.8a21,21,0,0,1-21,21H21a21,21,0,0,1-21-21V21A21,21,0,0,1,21,0Z" transform="translate(540.609 4111)" fill="#6595bf" opacity="0.2"/>
    <g id="Grupo_59892" data-name="Grupo 59892" transform="translate(704.529 4184)">
      <path id="Trazado_109334" data-name="Trazado 109334" d="M9.688,13.391a4.185,4.185,0,0,1-1.332,2.785,4.365,4.365,0,0,1-2.98.98,4.008,4.008,0,0,1-3.23-1.445A5.815,5.815,0,0,1,.93,11.844V10.75A6.481,6.481,0,0,1,1.5,7.961,4.231,4.231,0,0,1,3.1,6.113a4.47,4.47,0,0,1,2.406-.645A4.11,4.11,0,0,1,8.414,6.48a4.235,4.235,0,0,1,1.273,2.8H8.18a3.268,3.268,0,0,0-.848-1.975A2.565,2.565,0,0,0,5.508,6.7,2.684,2.684,0,0,0,3.254,7.759a4.882,4.882,0,0,0-.816,3.026v1.1a5.018,5.018,0,0,0,.773,2.948A2.5,2.5,0,0,0,5.375,15.93a2.887,2.887,0,0,0,1.918-.566,3.143,3.143,0,0,0,.887-1.973Zm10.8-1.711a7.037,7.037,0,0,1-.562,2.918,4.261,4.261,0,0,1-1.594,1.9,4.385,4.385,0,0,1-2.406.656,4.244,4.244,0,0,1-4-2.543,6.752,6.752,0,0,1-.59-2.832v-.82a6.953,6.953,0,0,1,.57-2.9,4.218,4.218,0,0,1,4-2.594,4.41,4.41,0,0,1,2.41.66,4.253,4.253,0,0,1,1.605,1.914,7.071,7.071,0,0,1,.563,2.918Zm-1.492-.734A5.1,5.1,0,0,0,18.18,7.84a2.68,2.68,0,0,0-2.273-1.082A2.651,2.651,0,0,0,13.668,7.84a5,5,0,0,0-.84,3v.836a5.107,5.107,0,0,0,.824,3.082,2.662,2.662,0,0,0,2.27,1.121,2.652,2.652,0,0,0,2.25-1.059,5.079,5.079,0,0,0,.82-3.035Zm7.094.984a7.053,7.053,0,0,1-2.809-1.363,2.6,2.6,0,0,1-.879-2,2.751,2.751,0,0,1,1.074-2.223,4.269,4.269,0,0,1,2.793-.879,4.66,4.66,0,0,1,2.09.453,3.436,3.436,0,0,1,1.422,1.25,3.2,3.2,0,0,1,.5,1.742H28.773a2.08,2.08,0,0,0-.656-1.627A2.669,2.669,0,0,0,26.266,6.7a2.732,2.732,0,0,0-1.73.489,1.632,1.632,0,0,0-.621,1.358A1.468,1.468,0,0,0,24.5,9.72a5.785,5.785,0,0,0,2.008.88,9.316,9.316,0,0,1,2.219.88A3.367,3.367,0,0,1,29.918,12.6a2.861,2.861,0,0,1,.387,1.508,2.658,2.658,0,0,1-1.078,2.215,4.6,4.6,0,0,1-2.883.832,5.347,5.347,0,0,1-2.187-.449,3.681,3.681,0,0,1-1.566-1.23,3,3,0,0,1-.551-1.773h1.508a1.959,1.959,0,0,0,.762,1.629,3.207,3.207,0,0,0,2.035.6,2.948,2.948,0,0,0,1.82-.484,1.573,1.573,0,0,0,.633-1.32,1.545,1.545,0,0,0-.586-1.293A6.755,6.755,0,0,0,26.086,11.93Zm5.945,4.313a.905.905,0,0,1,.223-.625.848.848,0,0,1,.668-.25.874.874,0,0,1,.676.25.887.887,0,0,1,.23.625.839.839,0,0,1-.23.6.89.89,0,0,1-.676.242.8.8,0,0,1-.891-.844ZM44.445,5.625v7.734a3.628,3.628,0,0,1-1.012,2.633,4.077,4.077,0,0,1-2.723,1.148l-.4.016a4.258,4.258,0,0,1-2.977-1.008,3.6,3.6,0,0,1-1.125-2.773V5.625H37.7v7.7a2.6,2.6,0,0,0,.68,1.918,3.111,3.111,0,0,0,3.887,0,2.6,2.6,0,0,0,.676-1.914V5.625ZM55.555,17H54.047L48.32,8.234V17H46.813V5.625H48.32l5.742,8.8v-8.8h1.492Zm2.664,0V5.625H61.43a5.169,5.169,0,0,1,2.625.656,4.438,4.438,0,0,1,1.762,1.867,6.078,6.078,0,0,1,.629,2.781v.727a6.1,6.1,0,0,1-.621,2.82,4.369,4.369,0,0,1-1.773,1.859A5.5,5.5,0,0,1,61.367,17Zm1.5-10.148v8.922H61.3A3.434,3.434,0,0,0,64,14.694a4.458,4.458,0,0,0,.965-3.073v-.665a4.529,4.529,0,0,0-.91-3.014,3.239,3.239,0,0,0-2.582-1.091Zm19.336,3.789H72.539V9.383h6.516Zm0,3.242H72.539v-1.25h6.516Z" transform="translate(0.471 19)" fill="#12263f"/>
      <path id="Trazado_109333" data-name="Trazado 109333" d="M9.688,13.391a4.185,4.185,0,0,1-1.332,2.785,4.365,4.365,0,0,1-2.98.98,4.008,4.008,0,0,1-3.23-1.445A5.815,5.815,0,0,1,.93,11.844V10.75A6.481,6.481,0,0,1,1.5,7.961,4.231,4.231,0,0,1,3.1,6.113a4.47,4.47,0,0,1,2.406-.645A4.11,4.11,0,0,1,8.414,6.48a4.235,4.235,0,0,1,1.273,2.8H8.18a3.268,3.268,0,0,0-.848-1.975A2.565,2.565,0,0,0,5.508,6.7,2.684,2.684,0,0,0,3.254,7.759a4.882,4.882,0,0,0-.816,3.026v1.1a5.018,5.018,0,0,0,.773,2.948A2.5,2.5,0,0,0,5.375,15.93a2.887,2.887,0,0,0,1.918-.566,3.143,3.143,0,0,0,.887-1.973Zm10.8-1.711a7.037,7.037,0,0,1-.562,2.918,4.261,4.261,0,0,1-1.594,1.9,4.385,4.385,0,0,1-2.406.656,4.244,4.244,0,0,1-4-2.543,6.752,6.752,0,0,1-.59-2.832v-.82a6.953,6.953,0,0,1,.57-2.9,4.218,4.218,0,0,1,4-2.594,4.41,4.41,0,0,1,2.41.66,4.253,4.253,0,0,1,1.605,1.914,7.071,7.071,0,0,1,.563,2.918Zm-1.492-.734A5.1,5.1,0,0,0,18.18,7.84a2.68,2.68,0,0,0-2.273-1.082A2.651,2.651,0,0,0,13.668,7.84a5,5,0,0,0-.84,3v.836a5.107,5.107,0,0,0,.824,3.082,2.662,2.662,0,0,0,2.27,1.121,2.652,2.652,0,0,0,2.25-1.059,5.079,5.079,0,0,0,.82-3.035Zm7.094.984a7.053,7.053,0,0,1-2.809-1.363,2.6,2.6,0,0,1-.879-2,2.751,2.751,0,0,1,1.074-2.223,4.269,4.269,0,0,1,2.793-.879,4.66,4.66,0,0,1,2.09.453,3.436,3.436,0,0,1,1.422,1.25,3.2,3.2,0,0,1,.5,1.742H28.773a2.08,2.08,0,0,0-.656-1.627A2.669,2.669,0,0,0,26.266,6.7a2.732,2.732,0,0,0-1.73.489,1.632,1.632,0,0,0-.621,1.358A1.468,1.468,0,0,0,24.5,9.72a5.785,5.785,0,0,0,2.008.88,9.316,9.316,0,0,1,2.219.88A3.367,3.367,0,0,1,29.918,12.6a2.861,2.861,0,0,1,.387,1.508,2.658,2.658,0,0,1-1.078,2.215,4.6,4.6,0,0,1-2.883.832,5.347,5.347,0,0,1-2.187-.449,3.681,3.681,0,0,1-1.566-1.23,3,3,0,0,1-.551-1.773h1.508a1.959,1.959,0,0,0,.762,1.629,3.207,3.207,0,0,0,2.035.6,2.948,2.948,0,0,0,1.82-.484,1.573,1.573,0,0,0,.633-1.32,1.545,1.545,0,0,0-.586-1.293A6.755,6.755,0,0,0,26.086,11.93Zm5.945,4.313a.905.905,0,0,1,.223-.625.848.848,0,0,1,.668-.25.874.874,0,0,1,.676.25.887.887,0,0,1,.23.625.839.839,0,0,1-.23.6.89.89,0,0,1-.676.242.8.8,0,0,1-.891-.844ZM44.3,6.852H40.641V17H39.148V6.852H35.5V5.625h8.8Zm7.352,7.172H46.883L45.813,17H44.266L48.609,5.625h1.313L54.273,17H52.734ZM47.336,12.8H51.2l-1.937-5.32Zm9.977,2.977H62.7V17H55.8V5.625h1.508Z" transform="translate(105.471)" fill="#12263f"/>
      <path id="Trazado_109335" data-name="Trazado 109335" d="M9.328,5.625v7.734a3.628,3.628,0,0,1-1.012,2.633,4.077,4.077,0,0,1-2.723,1.148l-.4.016a4.258,4.258,0,0,1-2.977-1.008,3.6,3.6,0,0,1-1.125-2.773V5.625H2.578v7.7a2.6,2.6,0,0,0,.68,1.918A2.612,2.612,0,0,0,5.2,15.93a2.63,2.63,0,0,0,1.949-.68,2.6,2.6,0,0,0,.676-1.914V5.625ZM20.438,17H18.93L13.2,8.234V17H11.7V5.625H13.2l5.742,8.8v-8.8h1.492ZM23.1,17V5.625h3.211a5.169,5.169,0,0,1,2.625.656A4.438,4.438,0,0,1,30.7,8.148a6.078,6.078,0,0,1,.629,2.781v.727a6.1,6.1,0,0,1-.621,2.82,4.369,4.369,0,0,1-1.773,1.859A5.5,5.5,0,0,1,26.25,17ZM24.6,6.852v8.922H26.18a3.434,3.434,0,0,0,2.7-1.079,4.458,4.458,0,0,0,.965-3.073v-.665a4.529,4.529,0,0,0-.91-3.014,3.239,3.239,0,0,0-2.582-1.091Z" transform="translate(123.471 38)" fill="#12263f"/>
      <line id="Línea_137" data-name="Línea 137" x2="95" transform="translate(87 29.5)" fill="none" stroke="#6595bf" stroke-width="1"/>
    </g>
    <g id="Grupo_60070" data-name="Grupo 60070" transform="translate(264.493 -1323.344)">
      <g id="Grupo_59894" data-name="Grupo 59894" transform="translate(200.715 5461.443)">
        <rect id="Rectángulo_6259" data-name="Rectángulo 6259" width="150.802" height="150.802" fill="#d9a171" opacity="0"/>
        <g id="Grupo_59893" data-name="Grupo 59893" transform="translate(12.818 12.818)">
          <circle id="Elipse_4075" data-name="Elipse 4075" cx="62.583" cy="62.583" r="62.583" fill="#d9a171"/>
        </g>
      </g>
      <g id="Grupo_59907" data-name="Grupo 59907" transform="translate(212.177 5485.744)">
        <g id="Grupo_59902" data-name="Grupo 59902">
          <g id="Grupo_59896" data-name="Grupo 59896">
            <g id="Grupo_59895" data-name="Grupo 59895">
              <path id="Trazado_105686" data-name="Trazado 105686" d="M279.943,5520.987a32.194,32.194,0,1,1-36.622-26.962A32.158,32.158,0,0,1,279.943,5520.987Z" transform="translate(-215.911 -5493.66)" fill="#aed3f2"/>
            </g>
          </g>
          <g id="Grupo_59898" data-name="Grupo 59898" transform="translate(7.661 7.644)">
            <g id="Grupo_59897" data-name="Grupo 59897">
              <path id="Trazado_105687" data-name="Trazado 105687" d="M274.865,5524.619a24.534,24.534,0,1,1-27.908-20.547A24.506,24.506,0,0,1,274.865,5524.619Z" transform="translate(-226.068 -5503.794)" fill="#aed3f2"/>
            </g>
          </g>
          <g id="Grupo_59901" data-name="Grupo 59901" transform="translate(7.211 6.712)">
            <g id="Grupo_59900" data-name="Grupo 59900">
              <g id="Grupo_59899" data-name="Grupo 59899">
                <path id="Trazado_105688" data-name="Trazado 105688" d="M274.6,5523.557c-.146.027-.41-1.022-1.081-2.821a26.04,26.04,0,0,0-3.919-7.014,25.111,25.111,0,0,0-3.876-3.924,24.563,24.563,0,0,0-5.378-3.286,24.028,24.028,0,0,0-6.68-1.885,23.938,23.938,0,0,0-3.671-.195,23.977,23.977,0,0,0-7.426,1.358,23.927,23.927,0,0,0-3.365,1.482,24.026,24.026,0,0,0-5.58,4.129,24.561,24.561,0,0,0-3.866,4.977,25.205,25.205,0,0,0-2.235,5.043,26.065,26.065,0,0,0-1.179,7.946c.011,1.919.137,2.994-.011,3.02-.108.022-.479-1.011-.719-2.977a22.685,22.685,0,0,1,.631-8.354,24.584,24.584,0,0,1,6.144-10.868,23.774,23.774,0,0,1,2.732-2.438,24.014,24.014,0,0,1,3.2-2.092,24.949,24.949,0,0,1,3.619-1.626,25.177,25.177,0,0,1,8.01-1.466,25.027,25.027,0,0,1,3.961.24,25.044,25.044,0,0,1,7.155,2.135,24.6,24.6,0,0,1,9.6,7.987,22.73,22.73,0,0,1,3.552,7.589C274.688,5522.44,274.706,5523.538,274.6,5523.557Z" transform="translate(-225.471 -5502.56)" fill="#839eb6"/>
              </g>
            </g>
          </g>
        </g>
        <g id="Grupo_59906" data-name="Grupo 59906" transform="translate(21.276 15.012)">
          <g id="Grupo_59905" data-name="Grupo 59905">
            <g id="Grupo_59904" data-name="Grupo 59904">
              <g id="Grupo_59903" data-name="Grupo 59903">
                <path id="Trazado_105689" data-name="Trazado 105689" d="M259.965,5544.733l.7,4.216-3.764.622-.68-4.1c-3.764.391-7.533-.183-9.871-1.459l1.309-4.937a15.425,15.425,0,0,0,7.746,1.465l-1.041-6.288c-4.347-.323-9.245-.944-10.136-6.328-.66-3.989,1.671-7.895,7.506-9.557l-.691-4.179,3.765-.623.679,4.1a17.261,17.261,0,0,1,8.021,1.03l-1.115,4.942a15.673,15.673,0,0,0-6.084-1l1.06,6.4c4.34.285,9.164.92,10.042,6.227C268.057,5539.179,265.757,5543.039,259.965,5544.733Zm-6.518-16.017-.886-5.345c-1.92.782-2.53,2-2.325,3.247C250.455,5527.936,251.7,5528.465,253.447,5528.717Zm7.977,8c-.219-1.318-1.429-1.852-3.141-2.149l.86,5.2C260.957,5539.038,261.623,5537.923,261.424,5536.718Z" transform="translate(-244.118 -5513.563)" fill="#839eb6"/>
              </g>
            </g>
          </g>
        </g>
      </g>
      <g id="Grupo_60069" data-name="Grupo 60069" transform="translate(251.661 5478.007)">
        <g id="Grupo_59908" data-name="Grupo 59908" transform="translate(4.9 0.96)">
          <path id="Trazado_105690" data-name="Trazado 105690" d="M333.625,5597.467l-56.293-10.775a3.173,3.173,0,0,1-2.521-3.714l18.115-94.641a4.509,4.509,0,0,1,5.276-3.581l53.672,10.273a4.51,4.51,0,0,1,3.581,5.276l-18.115,94.641A3.174,3.174,0,0,1,333.625,5597.467Z" transform="translate(-274.754 -5484.676)" fill="#5e6178"/>
        </g>
        <g id="Grupo_59909" data-name="Grupo 59909" transform="translate(4.855 0.945)" opacity="0.4">
          <path id="Trazado_105691" data-name="Trazado 105691" d="M333.567,5597.448l-56.293-10.774a3.175,3.175,0,0,1-2.522-3.715l18.115-94.641a4.508,4.508,0,0,1,5.275-3.581l53.672,10.273a4.508,4.508,0,0,1,3.581,5.275l-18.115,94.642A3.174,3.174,0,0,1,333.567,5597.448Z" transform="translate(-274.695 -5484.656)" fill="#d9a171"/>
        </g>
        <g id="Grupo_60068" data-name="Grupo 60068">
          <g id="Grupo_59911" data-name="Grupo 59911">
            <g id="Grupo_59910" data-name="Grupo 59910">
              <path id="Trazado_105692" data-name="Trazado 105692" d="M327.129,5596.2l-56.293-10.775a3.174,3.174,0,0,1-2.521-3.714l18.115-94.642a4.509,4.509,0,0,1,5.276-3.58l53.672,10.273a4.509,4.509,0,0,1,3.581,5.276l-18.115,94.641A3.174,3.174,0,0,1,327.129,5596.2Z" transform="translate(-268.258 -5483.403)" fill="#5e6178"/>
            </g>
          </g>
          <g id="Grupo_59913" data-name="Grupo 59913" transform="translate(10.628 80.094)">
            <g id="Grupo_59912" data-name="Grupo 59912">
              <rect id="Rectángulo_6260" data-name="Rectángulo 6260" width="21.473" height="9.487" rx="2.42" transform="translate(1.783 0) rotate(10.836)" fill="#5e6178"/>
            </g>
          </g>
          <g id="Grupo_59915" data-name="Grupo 59915" transform="translate(10.628 80.094)" opacity="0.2">
            <g id="Grupo_59914" data-name="Grupo 59914">
              <rect id="Rectángulo_6261" data-name="Rectángulo 6261" width="21.473" height="9.487" rx="2.42" transform="translate(1.783 0) rotate(10.836)" fill="#d9a171"/>
            </g>
          </g>
          <g id="Grupo_59921" data-name="Grupo 59921" transform="translate(17.855 10.239)">
            <g id="Grupo_59917" data-name="Grupo 59917" transform="translate(0.103 0.107)">
              <g id="Grupo_59916" data-name="Grupo 59916">
                <rect id="Rectángulo_6262" data-name="Rectángulo 6262" width="21.351" height="54.429" transform="translate(0 20.97) rotate(-79.164)" fill="#fafafa"/>
              </g>
            </g>
            <g id="Grupo_59920" data-name="Grupo 59920">
              <g id="Grupo_59919" data-name="Grupo 59919">
                <g id="Grupo_59918" data-name="Grupo 59918">
                  <path id="Trazado_105693" data-name="Trazado 105693" d="M345.492,5528.287s.02-.129.065-.375.113-.611.2-1.086c.18-.955.443-2.358.781-4.168l2.9-15.353.051.075-53.46-10.2h0l.108-.073c-1.405,7.334-2.763,14.419-4.017,20.969l-.07-.1,38.305,7.374,11.123,2.154,2.978.582.771.153c.173.035.265.056.265.056s-.085-.012-.256-.043l-.763-.14-2.964-.556-11.113-2.1-38.38-7.3-.087-.017.017-.087c1.252-6.55,2.608-13.636,4.01-20.971l.017-.09.091.017h0l53.45,10.26.063.012-.012.063c-1.261,6.51-2.277,11.755-2.979,15.378l-.81,4.148-.212,1.072C345.519,5528.168,345.492,5528.287,345.492,5528.287Z" transform="translate(-291.93 -5496.978)" fill="#344154"/>
                </g>
              </g>
            </g>
          </g>
          <g id="Grupo_59930" data-name="Grupo 59930" transform="translate(16.203 39.981)">
            <g id="Grupo_59923" data-name="Grupo 59923" transform="translate(1.403 0.269)">
              <g id="Grupo_59922" data-name="Grupo 59922">
                <rect id="Rectángulo_6263" data-name="Rectángulo 6263" width="9.252" height="9.252" rx="2.082" transform="translate(1.739) rotate(10.835)" fill="#5e6178"/>
              </g>
            </g>
            <g id="Grupo_59925" data-name="Grupo 59925" transform="translate(1.403 0.269)" opacity="0.2">
              <g id="Grupo_59924" data-name="Grupo 59924">
                <rect id="Rectángulo_6264" data-name="Rectángulo 6264" width="9.252" height="9.252" rx="2.082" transform="translate(1.739) rotate(10.835)" fill="#d9a171"/>
              </g>
            </g>
            <g id="Grupo_59927" data-name="Grupo 59927">
              <g id="Grupo_59926" data-name="Grupo 59926">
                <rect id="Rectángulo_6265" data-name="Rectángulo 6265" width="9.252" height="9.252" rx="2.082" transform="translate(1.739 0) rotate(10.836)" fill="#344154"/>
              </g>
            </g>
            <g id="Grupo_59929" data-name="Grupo 59929" transform="translate(4.656 3.288)">
              <g id="Grupo_59928" data-name="Grupo 59928">
                <path id="Trazado_105694" data-name="Trazado 105694" d="M297.681,5541.081l-.725,3.787-.876-.168.591-3.083-.757-.146.134-.7Z" transform="translate(-295.913 -5540.769)" fill="#fff"/>
              </g>
            </g>
          </g>
          <g id="Grupo_59939" data-name="Grupo 59939" transform="translate(28.874 42.407)">
            <g id="Grupo_59932" data-name="Grupo 59932" transform="translate(1.403 0.269)">
              <g id="Grupo_59931" data-name="Grupo 59931">
                <rect id="Rectángulo_6266" data-name="Rectángulo 6266" width="9.252" height="9.252" rx="2.082" transform="translate(1.739 0) rotate(10.836)" fill="#5e6178"/>
              </g>
            </g>
            <g id="Grupo_59934" data-name="Grupo 59934" transform="translate(1.403 0.269)" opacity="0.2">
              <g id="Grupo_59933" data-name="Grupo 59933">
                <rect id="Rectángulo_6267" data-name="Rectángulo 6267" width="9.252" height="9.252" rx="2.082" transform="translate(1.739 0) rotate(10.836)" fill="#d9a171"/>
              </g>
            </g>
            <g id="Grupo_59936" data-name="Grupo 59936">
              <g id="Grupo_59935" data-name="Grupo 59935">
                <rect id="Rectángulo_6268" data-name="Rectángulo 6268" width="9.252" height="9.252" rx="2.082" transform="translate(1.739 0) rotate(10.836)" fill="#344154"/>
              </g>
            </g>
            <g id="Grupo_59938" data-name="Grupo 59938" transform="translate(4.206 3.462)">
              <g id="Grupo_59937" data-name="Grupo 59937">
                <path id="Trazado_105695" data-name="Trazado 105695" d="M315.114,5547.688l-.137.714-2.862-.548.109-.568,1.726-1.1c.4-.255.493-.438.528-.622.057-.3-.115-.51-.516-.587a.945.945,0,0,0-.857.229l-.56-.533a1.793,1.793,0,0,1,1.638-.416c.844.162,1.324.7,1.193,1.39a1.537,1.537,0,0,1-.861,1.074l-1.029.655Z" transform="translate(-312.115 -5544.214)" fill="#fff"/>
              </g>
            </g>
          </g>
          <g id="Grupo_59948" data-name="Grupo 59948" transform="translate(42.01 44.921)">
            <g id="Grupo_59941" data-name="Grupo 59941" transform="translate(1.403 0.268)">
              <g id="Grupo_59940" data-name="Grupo 59940">
                <rect id="Rectángulo_6269" data-name="Rectángulo 6269" width="9.252" height="9.252" rx="2.082" transform="translate(1.739) rotate(10.836)" fill="#5e6178"/>
              </g>
            </g>
            <g id="Grupo_59943" data-name="Grupo 59943" transform="translate(1.403 0.268)" opacity="0.2">
              <g id="Grupo_59942" data-name="Grupo 59942">
                <rect id="Rectángulo_6270" data-name="Rectángulo 6270" width="9.252" height="9.252" rx="2.082" transform="translate(1.739) rotate(10.836)" fill="#d9a171"/>
              </g>
            </g>
            <g id="Grupo_59945" data-name="Grupo 59945">
              <g id="Grupo_59944" data-name="Grupo 59944">
                <rect id="Rectángulo_6271" data-name="Rectángulo 6271" width="9.252" height="9.252" rx="2.082" transform="translate(1.739) rotate(10.836)" fill="#344154"/>
              </g>
            </g>
            <g id="Grupo_59947" data-name="Grupo 59947" transform="translate(4.088 3.315)">
              <g id="Grupo_59946" data-name="Grupo 59946">
                <path id="Trazado_105696" data-name="Trazado 105696" d="M332.542,5550.524c-.122.638-.726,1.129-1.8.922a2.651,2.651,0,0,1-1.367-.682l.469-.606a1.867,1.867,0,0,0,1.017.548c.438.085.743-.042.8-.351.055-.287-.122-.506-.62-.6l-.4-.076.111-.579.948-.732-1.612-.309.134-.7,2.651.507-.109.568-1.042.811A1.1,1.1,0,0,1,332.542,5550.524Z" transform="translate(-329.373 -5547.354)" fill="#fff"/>
              </g>
            </g>
          </g>
          <g id="Grupo_59962" data-name="Grupo 59962" transform="translate(55.177 47.438)">
            <g id="Grupo_59950" data-name="Grupo 59950" transform="translate(1.371 0.266)">
              <g id="Grupo_59949" data-name="Grupo 59949">
                <rect id="Rectángulo_6272" data-name="Rectángulo 6272" width="9.252" height="9.252" rx="2.082" transform="translate(1.739) rotate(10.836)" fill="#5e6178"/>
              </g>
            </g>
            <g id="Grupo_59952" data-name="Grupo 59952" transform="translate(1.371 0.266)" opacity="0.2">
              <g id="Grupo_59951" data-name="Grupo 59951">
                <rect id="Rectángulo_6273" data-name="Rectángulo 6273" width="9.252" height="9.252" rx="2.082" transform="translate(1.739) rotate(10.836)" fill="#d9a171"/>
              </g>
            </g>
            <g id="Grupo_59954" data-name="Grupo 59954">
              <g id="Grupo_59953" data-name="Grupo 59953">
                <rect id="Rectángulo_6274" data-name="Rectángulo 6274" width="9.252" height="9.252" rx="2.082" transform="translate(1.739) rotate(10.836)" fill="#344154"/>
              </g>
            </g>
            <g id="Grupo_59961" data-name="Grupo 59961" transform="translate(3.324 2.819)">
              <g id="Grupo_59956" data-name="Grupo 59956" transform="translate(0 1.877)">
                <g id="Grupo_59955" data-name="Grupo 59955">
                  <rect id="Rectángulo_6275" data-name="Rectángulo 6275" width="0.353" height="4.131" transform="translate(0 0.347) rotate(-79.163)" fill="#fff"/>
                </g>
              </g>
              <g id="Grupo_59958" data-name="Grupo 59958" transform="translate(1.731)">
                <g id="Grupo_59957" data-name="Grupo 59957">
                  <path id="Trazado_105697" data-name="Trazado 105697" d="M349.44,5550.829a.67.67,0,1,1-.532-.784A.67.67,0,0,1,349.44,5550.829Z" transform="translate(-348.112 -5550.033)" fill="#fff"/>
                </g>
              </g>
              <g id="Grupo_59960" data-name="Grupo 59960" transform="translate(1.053 3.538)">
                <g id="Grupo_59959" data-name="Grupo 59959">
                  <path id="Trazado_105698" data-name="Trazado 105698" d="M348.542,5555.52a.67.67,0,1,1-.532-.783A.669.669,0,0,1,348.542,5555.52Z" transform="translate(-347.214 -5554.724)" fill="#fff"/>
                </g>
              </g>
            </g>
          </g>
          <g id="Grupo_59969" data-name="Grupo 59969" transform="translate(13.655 53.293)">
            <g id="Grupo_59964" data-name="Grupo 59964" transform="translate(1.567 0.432)" opacity="0.2">
              <g id="Grupo_59963" data-name="Grupo 59963">
                <path id="Trazado_105699" data-name="Trazado 105699" d="M296.416,5565.111l-7.2-1.377a.964.964,0,0,1-.765-1.127l1.377-7.2a.964.964,0,0,1,1.127-.765l7.2,1.377a.949.949,0,0,1,.765,1.127l-1.377,7.195A.963.963,0,0,1,296.416,5565.111Z" transform="translate(-288.439 -5554.63)" fill="#d9a171"/>
              </g>
            </g>
            <g id="Grupo_59966" data-name="Grupo 59966">
              <g id="Grupo_59965" data-name="Grupo 59965">
                <rect id="Rectángulo_6276" data-name="Rectángulo 6276" width="9.252" height="9.252" rx="2.082" transform="translate(1.739 0) rotate(10.836)" fill="#344154"/>
              </g>
            </g>
            <g id="Grupo_59968" data-name="Grupo 59968" transform="translate(3.446 3.482)">
              <g id="Grupo_59967" data-name="Grupo 59967">
                <path id="Trazado_105700" data-name="Trazado 105700" d="M294.442,5562l-.617-.118-.152.795-.855-.163.152-.795-2.04-.391.112-.591,2.245-2.06.919.177-2.091,1.96,1.017.2.136-.709.827.158-.136.709.617.117Z" transform="translate(-290.931 -5558.673)" fill="#fff"/>
              </g>
            </g>
          </g>
          <g id="Grupo_59978" data-name="Grupo 59978" transform="translate(26.326 55.718)">
            <g id="Grupo_59971" data-name="Grupo 59971" transform="translate(1.403 0.268)">
              <g id="Grupo_59970" data-name="Grupo 59970">
                <rect id="Rectángulo_6277" data-name="Rectángulo 6277" width="9.252" height="9.252" rx="2.082" transform="translate(1.739) rotate(10.836)" fill="#5e6178"/>
              </g>
            </g>
            <g id="Grupo_59973" data-name="Grupo 59973" transform="translate(1.403 0.268)" opacity="0.2">
              <g id="Grupo_59972" data-name="Grupo 59972">
                <rect id="Rectángulo_6278" data-name="Rectángulo 6278" width="9.252" height="9.252" rx="2.082" transform="translate(1.739) rotate(10.836)" fill="#d9a171"/>
              </g>
            </g>
            <g id="Grupo_59975" data-name="Grupo 59975">
              <g id="Grupo_59974" data-name="Grupo 59974">
                <rect id="Rectángulo_6279" data-name="Rectángulo 6279" width="9.252" height="9.252" rx="2.082" transform="translate(1.739 0) rotate(10.836)" fill="#344154"/>
              </g>
            </g>
            <g id="Grupo_59977" data-name="Grupo 59977" transform="translate(3.697 3.296)">
              <g id="Grupo_59976" data-name="Grupo 59976">
                <path id="Trazado_105701" data-name="Trazado 105701" d="M311.243,5564.726c-.128.671-.732,1.161-1.815.954a2.666,2.666,0,0,1-1.366-.682l.474-.6a1.857,1.857,0,0,0,1.011.547c.438.084.744-.048.8-.357s-.1-.53-.787-.661l-.968-.186.6-2.094,2.31.442-.135.7-1.579-.3-.2.708.309.059C311.024,5563.467,311.371,5564.054,311.243,5564.726Z" transform="translate(-308.062 -5561.642)" fill="#fff"/>
              </g>
            </g>
          </g>
          <g id="Grupo_59987" data-name="Grupo 59987" transform="translate(39.462 58.232)">
            <g id="Grupo_59980" data-name="Grupo 59980" transform="translate(1.403 0.268)">
              <g id="Grupo_59979" data-name="Grupo 59979">
                <rect id="Rectángulo_6280" data-name="Rectángulo 6280" width="9.252" height="9.252" rx="2.082" transform="translate(1.739 0) rotate(10.836)" fill="#5e6178"/>
              </g>
            </g>
            <g id="Grupo_59982" data-name="Grupo 59982" transform="translate(1.403 0.268)" opacity="0.2">
              <g id="Grupo_59981" data-name="Grupo 59981">
                <rect id="Rectángulo_6281" data-name="Rectángulo 6281" width="9.252" height="9.252" rx="2.082" transform="translate(1.739 0) rotate(10.836)" fill="#d9a171"/>
              </g>
            </g>
            <g id="Grupo_59984" data-name="Grupo 59984">
              <g id="Grupo_59983" data-name="Grupo 59983">
                <rect id="Rectángulo_6282" data-name="Rectángulo 6282" width="9.252" height="9.252" rx="2.082" transform="translate(1.739) rotate(10.835)" fill="#344154"/>
              </g>
            </g>
            <g id="Grupo_59986" data-name="Grupo 59986" transform="translate(4.08 3.494)">
              <g id="Grupo_59985" data-name="Grupo 59985">
                <path id="Trazado_105702" data-name="Trazado 105702" d="M329.049,5568.168a1.326,1.326,0,0,1-1.675.986,1.662,1.662,0,0,1-1.334-2.2,1.876,1.876,0,0,1,2.322-1.67,2.089,2.089,0,0,1,1,.461l-.447.582a1.275,1.275,0,0,0-.673-.325,1.024,1.024,0,0,0-1.276.9,1.3,1.3,0,0,1,1-.157A1.224,1.224,0,0,1,329.049,5568.168Zm-.858-.12a.582.582,0,0,0-.536-.691.6.6,0,0,0-.763.442c-.062.325.137.61.558.69A.576.576,0,0,0,328.191,5568.049Z" transform="translate(-325.985 -5565.238)" fill="#fff"/>
              </g>
            </g>
          </g>
          <g id="Grupo_59999" data-name="Grupo 59999" transform="translate(52.597 60.746)">
            <g id="Grupo_59989" data-name="Grupo 59989" transform="translate(1.403 0.269)">
              <g id="Grupo_59988" data-name="Grupo 59988">
                <rect id="Rectángulo_6283" data-name="Rectángulo 6283" width="9.252" height="9.252" rx="2.082" transform="translate(1.739 0) rotate(10.835)" fill="#5e6178"/>
              </g>
            </g>
            <g id="Grupo_59991" data-name="Grupo 59991" transform="translate(1.403 0.269)" opacity="0.2">
              <g id="Grupo_59990" data-name="Grupo 59990">
                <rect id="Rectángulo_6284" data-name="Rectángulo 6284" width="9.252" height="9.252" rx="2.082" transform="translate(1.739 0) rotate(10.835)" fill="#d9a171"/>
              </g>
            </g>
            <g id="Grupo_59993" data-name="Grupo 59993">
              <g id="Grupo_59992" data-name="Grupo 59992">
                <rect id="Rectángulo_6285" data-name="Rectángulo 6285" width="9.252" height="9.252" rx="2.082" transform="translate(1.739 0) rotate(10.835)" fill="#344154"/>
              </g>
            </g>
            <g id="Grupo_59998" data-name="Grupo 59998" transform="translate(3.59 3.605)">
              <g id="Grupo_59995" data-name="Grupo 59995" transform="translate(0 0.527)">
                <g id="Grupo_59994" data-name="Grupo 59994">
                  <rect id="Rectángulo_6286" data-name="Rectángulo 6286" width="4.131" height="0.353" transform="matrix(0.836, -0.549, 0.549, 0.836, 0, 2.268)" fill="#fff"/>
                </g>
              </g>
              <g id="Grupo_59997" data-name="Grupo 59997" transform="translate(0.517)">
                <g id="Grupo_59996" data-name="Grupo 59996">
                  <rect id="Rectángulo_6287" data-name="Rectángulo 6287" width="0.353" height="4.131" transform="translate(0 0.198) rotate(-34.17)" fill="#fff"/>
                </g>
              </g>
            </g>
          </g>
          <g id="Grupo_60008" data-name="Grupo 60008" transform="translate(11.128 66.495)">
            <g id="Grupo_60001" data-name="Grupo 60001" transform="translate(1.403 0.268)">
              <g id="Grupo_60000" data-name="Grupo 60000">
                <rect id="Rectángulo_6288" data-name="Rectángulo 6288" width="9.252" height="9.252" rx="2.082" transform="translate(1.739 0) rotate(10.835)" fill="#5e6178"/>
              </g>
            </g>
            <g id="Grupo_60003" data-name="Grupo 60003" transform="translate(1.403 0.268)" opacity="0.2">
              <g id="Grupo_60002" data-name="Grupo 60002">
                <rect id="Rectángulo_6289" data-name="Rectángulo 6289" width="9.252" height="9.252" rx="2.082" transform="translate(1.739 0) rotate(10.835)" fill="#d9a171"/>
              </g>
            </g>
            <g id="Grupo_60005" data-name="Grupo 60005">
              <g id="Grupo_60004" data-name="Grupo 60004">
                <rect id="Rectángulo_6290" data-name="Rectángulo 6290" width="9.252" height="9.252" rx="2.082" transform="translate(1.739) rotate(10.835)" fill="#344154"/>
              </g>
            </g>
            <g id="Grupo_60007" data-name="Grupo 60007" transform="translate(3.737 3.135)">
              <g id="Grupo_60006" data-name="Grupo 60006">
                <path id="Trazado_105703" data-name="Trazado 105703" d="M291.256,5576.3l-.109.568-2.023,2.949-.953-.182,1.946-2.812-1.254-.241-.118.617-.779-.149.255-1.331Z" transform="translate(-287.966 -5575.717)" fill="#fff"/>
              </g>
            </g>
          </g>
          <g id="Grupo_60017" data-name="Grupo 60017" transform="translate(23.799 68.921)">
            <g id="Grupo_60010" data-name="Grupo 60010" transform="translate(1.403 0.268)">
              <g id="Grupo_60009" data-name="Grupo 60009">
                <rect id="Rectángulo_6291" data-name="Rectángulo 6291" width="9.252" height="9.252" rx="2.082" transform="translate(1.739) rotate(10.836)" fill="#5e6178"/>
              </g>
            </g>
            <g id="Grupo_60012" data-name="Grupo 60012" transform="translate(1.403 0.268)" opacity="0.2">
              <g id="Grupo_60011" data-name="Grupo 60011">
                <rect id="Rectángulo_6292" data-name="Rectángulo 6292" width="9.252" height="9.252" rx="2.082" transform="translate(1.739) rotate(10.836)" fill="#d9a171"/>
              </g>
            </g>
            <g id="Grupo_60014" data-name="Grupo 60014">
              <g id="Grupo_60013" data-name="Grupo 60013">
                <rect id="Rectángulo_6293" data-name="Rectángulo 6293" width="9.252" height="9.252" rx="2.082" transform="translate(1.739 0) rotate(10.836)" fill="#344154"/>
              </g>
            </g>
            <g id="Grupo_60016" data-name="Grupo 60016" transform="translate(3.956 3.426)">
              <g id="Grupo_60015" data-name="Grupo 60015">
                <path id="Trazado_105704" data-name="Trazado 105704" d="M308.268,5582.422c-.137.714-.861,1.041-1.824.857s-1.5-.754-1.367-1.467a.978.978,0,0,1,.744-.783.892.892,0,0,1-.29-.864c.127-.665.8-.967,1.662-.8s1.386.7,1.259,1.363a.9.9,0,0,1-.593.694A.976.976,0,0,1,308.268,5582.422Zm-.882-.2c.064-.335-.173-.594-.611-.677s-.742.071-.806.406.165.6.6.681S307.322,5582.561,307.386,5582.225Zm-.991-1.855c-.055.287.139.509.5.577s.629-.065.684-.351-.147-.522-.5-.59S306.451,5580.072,306.395,5580.37Z" transform="translate(-305.055 -5579.318)" fill="#fff"/>
              </g>
            </g>
          </g>
          <g id="Grupo_60026" data-name="Grupo 60026" transform="translate(36.935 71.435)">
            <g id="Grupo_60019" data-name="Grupo 60019" transform="translate(1.403 0.269)">
              <g id="Grupo_60018" data-name="Grupo 60018">
                <rect id="Rectángulo_6294" data-name="Rectángulo 6294" width="9.252" height="9.252" rx="2.082" transform="translate(1.739) rotate(10.836)" fill="#5e6178"/>
              </g>
            </g>
            <g id="Grupo_60021" data-name="Grupo 60021" transform="translate(1.403 0.269)" opacity="0.2">
              <g id="Grupo_60020" data-name="Grupo 60020">
                <rect id="Rectángulo_6295" data-name="Rectángulo 6295" width="9.252" height="9.252" rx="2.082" transform="translate(1.739) rotate(10.836)" fill="#d9a171"/>
              </g>
            </g>
            <g id="Grupo_60023" data-name="Grupo 60023">
              <g id="Grupo_60022" data-name="Grupo 60022">
                <rect id="Rectángulo_6296" data-name="Rectángulo 6296" width="9.252" height="9.252" rx="2.082" transform="translate(1.739 0) rotate(10.836)" fill="#344154"/>
              </g>
            </g>
            <g id="Grupo_60025" data-name="Grupo 60025" transform="translate(3.869 3.39)">
              <g id="Grupo_60024" data-name="Grupo 60024">
                <path id="Trazado_105705" data-name="Trazado 105705" d="M325.676,5584.84a1.873,1.873,0,0,1-2.322,1.669,2.06,2.06,0,0,1-1-.46l.447-.582a1.252,1.252,0,0,0,.673.325,1.028,1.028,0,0,0,1.276-.9,1.312,1.312,0,0,1-1.006.16,1.223,1.223,0,0,1-1.078-1.428,1.325,1.325,0,0,1,1.674-.987A1.66,1.66,0,0,1,325.676,5584.84Zm-.853-.848c.063-.324-.136-.608-.552-.689a.58.58,0,1,0-.205,1.134A.6.6,0,0,0,324.823,5583.992Z" transform="translate(-322.355 -5582.604)" fill="#fff"/>
              </g>
            </g>
          </g>
          <g id="Grupo_60036" data-name="Grupo 60036" transform="translate(50.07 73.949)">
            <g id="Grupo_60028" data-name="Grupo 60028" transform="translate(1.403 0.268)">
              <g id="Grupo_60027" data-name="Grupo 60027">
                <rect id="Rectángulo_6297" data-name="Rectángulo 6297" width="9.252" height="9.252" rx="2.082" transform="translate(1.739) rotate(10.836)" fill="#5e6178"/>
              </g>
            </g>
            <g id="Grupo_60030" data-name="Grupo 60030" transform="translate(1.403 0.268)" opacity="0.2">
              <g id="Grupo_60029" data-name="Grupo 60029">
                <rect id="Rectángulo_6298" data-name="Rectángulo 6298" width="9.252" height="9.252" rx="2.082" transform="translate(1.739) rotate(10.836)" fill="#d9a171"/>
              </g>
            </g>
            <g id="Grupo_60032" data-name="Grupo 60032">
              <g id="Grupo_60031" data-name="Grupo 60031">
                <rect id="Rectángulo_6299" data-name="Rectángulo 6299" width="9.252" height="9.252" rx="2.082" transform="translate(1.739 0) rotate(10.836)" fill="#344154"/>
              </g>
            </g>
            <g id="Grupo_60035" data-name="Grupo 60035" transform="translate(3.351 4.851)">
              <g id="Grupo_60034" data-name="Grupo 60034">
                <g id="Grupo_60033" data-name="Grupo 60033">
                  <rect id="Rectángulo_6300" data-name="Rectángulo 6300" width="0.353" height="4.131" transform="translate(0 0.347) rotate(-79.169)" fill="#fff"/>
                </g>
              </g>
            </g>
          </g>
          <g id="Grupo_60043" data-name="Grupo 60043" transform="translate(34.385 84.753)">
            <g id="Grupo_60038" data-name="Grupo 60038" transform="translate(1.403 0.268)">
              <g id="Grupo_60037" data-name="Grupo 60037">
                <rect id="Rectángulo_6301" data-name="Rectángulo 6301" width="9.252" height="9.252" rx="2.082" transform="translate(1.739 0) rotate(10.836)" fill="#5e6178"/>
              </g>
            </g>
            <g id="Grupo_60040" data-name="Grupo 60040" transform="translate(1.403 0.268)" opacity="0.2">
              <g id="Grupo_60039" data-name="Grupo 60039">
                <rect id="Rectángulo_6302" data-name="Rectángulo 6302" width="9.252" height="9.252" rx="2.082" transform="translate(1.739 0) rotate(10.836)" fill="#d9a171"/>
              </g>
            </g>
            <g id="Grupo_60042" data-name="Grupo 60042">
              <g id="Grupo_60041" data-name="Grupo 60041">
                <rect id="Rectángulo_6303" data-name="Rectángulo 6303" width="9.252" height="9.252" rx="2.082" transform="translate(1.739) rotate(10.836)" fill="#344154"/>
              </g>
            </g>
          </g>
          <g id="Grupo_60057" data-name="Grupo 60057" transform="translate(47.521 87.267)">
            <g id="Grupo_60045" data-name="Grupo 60045" transform="translate(1.403 0.268)">
              <g id="Grupo_60044" data-name="Grupo 60044">
                <rect id="Rectángulo_6304" data-name="Rectángulo 6304" width="9.252" height="9.252" rx="2.082" transform="translate(1.739 0) rotate(10.836)" fill="#d9a171"/>
              </g>
            </g>
            <g id="Grupo_60047" data-name="Grupo 60047" transform="translate(1.403 0.268)" opacity="0.4">
              <g id="Grupo_60046" data-name="Grupo 60046">
                <rect id="Rectángulo_6305" data-name="Rectángulo 6305" width="9.252" height="9.252" rx="2.082" transform="translate(1.739 0) rotate(10.836)" fill="#d9a171"/>
              </g>
            </g>
            <g id="Grupo_60049" data-name="Grupo 60049">
              <g id="Grupo_60048" data-name="Grupo 60048">
                <rect id="Rectángulo_6306" data-name="Rectángulo 6306" width="9.252" height="9.252" rx="2.082" transform="translate(1.739 0) rotate(10.836)" fill="#d9a171"/>
              </g>
            </g>
            <g id="Grupo_60056" data-name="Grupo 60056" transform="translate(3.151 4.351)">
              <g id="Grupo_60052" data-name="Grupo 60052" transform="translate(0.295)">
                <g id="Grupo_60051" data-name="Grupo 60051">
                  <g id="Grupo_60050" data-name="Grupo 60050">
                    <rect id="Rectángulo_6307" data-name="Rectángulo 6307" width="0.353" height="4.131" transform="translate(0 0.347) rotate(-79.17)" fill="#fff"/>
                  </g>
                </g>
              </g>
              <g id="Grupo_60055" data-name="Grupo 60055" transform="translate(0 1.545)">
                <g id="Grupo_60054" data-name="Grupo 60054">
                  <g id="Grupo_60053" data-name="Grupo 60053">
                    <rect id="Rectángulo_6308" data-name="Rectángulo 6308" width="0.353" height="4.131" transform="translate(0 0.347) rotate(-79.17)" fill="#fff"/>
                  </g>
                </g>
              </g>
            </g>
          </g>
          <g id="Grupo_60059" data-name="Grupo 60059" transform="translate(8.08 79.606)">
            <g id="Grupo_60058" data-name="Grupo 60058">
              <path id="Rectángulo_6309" data-name="Rectángulo 6309" d="M2.5,0h17.33a2.5,2.5,0,0,1,2.5,2.5V6.986a2.5,2.5,0,0,1-2.5,2.5H2.5A2.5,2.5,0,0,1,0,6.986V2.5A2.5,2.5,0,0,1,2.5,0Z" transform="translate(1.783) rotate(10.836)" fill="#344154"/>
            </g>
          </g>
          <g id="Grupo_60061" data-name="Grupo 60061" transform="translate(19.084 84.345)">
            <g id="Grupo_60060" data-name="Grupo 60060">
              <path id="Trazado_105706" data-name="Trazado 105706" d="M293.615,5596.9c.239-1.25,1.067-1.826,2-1.647s1.487,1.019,1.248,2.269-1.061,1.827-2,1.647S293.376,5598.155,293.615,5596.9Zm2.364.453c.165-.86-.069-1.276-.508-1.359s-.8.217-.968,1.076.069,1.276.5,1.358S295.814,5598.217,295.979,5597.357Z" transform="translate(-293.56 -5595.226)" fill="#fff"/>
            </g>
          </g>
          <g id="Grupo_60066" data-name="Grupo 60066" transform="translate(37.736 88.108)">
            <g id="Grupo_60063" data-name="Grupo 60063" transform="translate(1.471)">
              <g id="Grupo_60062" data-name="Grupo 60062">
                <rect id="Rectángulo_6310" data-name="Rectángulo 6310" width="4.131" height="0.353" transform="translate(0 4.045) rotate(-78.31)" fill="#fff"/>
              </g>
            </g>
            <g id="Grupo_60065" data-name="Grupo 60065" transform="translate(0 1.497)">
              <g id="Grupo_60064" data-name="Grupo 60064">
                <rect id="Rectángulo_6311" data-name="Rectángulo 6311" width="0.353" height="4.131" transform="translate(0 0.347) rotate(-79.167)" fill="#fff"/>
              </g>
            </g>
          </g>
          <g id="Grupo_60067" data-name="Grupo 60067" transform="translate(24.388 15.951)">
            <path id="Trazado_105707" data-name="Trazado 105707" d="M303.529,5506.349l-.045-.009-2.8.884-.093-1.577,3.514-1.1,1.684.322L303,5519.467l-1.908-.365Z" transform="translate(-300.591 -5504.551)" fill="#344154"/>
            <path id="Trazado_105708" data-name="Trazado 105708" d="M311.331,5523.783a1.351,1.351,0,0,1,1.618-1.156,1.442,1.442,0,0,1-.564,2.824A1.347,1.347,0,0,1,311.331,5523.783Z" transform="translate(-303.222 -5508.986)" fill="#344154"/>
            <path id="Trazado_105709" data-name="Trazado 105709" d="M324.963,5510.451l-.045-.009-2.8.885-.094-1.577,3.515-1.1,1.684.322-2.794,14.594-1.908-.365Z" transform="translate(-305.858 -5505.559)" fill="#344154"/>
            <path id="Trazado_105710" data-name="Trazado 105710" d="M332.272,5525.186l.232-1.213,1.837-1.208c4.406-2.834,6.451-4.4,6.895-6.594a2.651,2.651,0,0,0-2.351-3.406,5.053,5.053,0,0,0-3.334.642l-.362-1.512a6.511,6.511,0,0,1,4.415-.691,4.18,4.18,0,0,1,3.655,5.1c-.516,2.695-2.885,4.5-6.529,6.874l-1.374.854-.008.044,6.556,1.255-.314,1.639Z" transform="translate(-308.376 -5506.157)" fill="#344154"/>
            <path id="Trazado_105711" data-name="Trazado 105711" d="M358.748,5516.791l-5.568-1.065-1.279,3.642a7.941,7.941,0,0,1,1.207.138,6.265,6.265,0,0,1,2.993,1.388,4.234,4.234,0,0,1,1.371,4.149c-.546,2.851-3.222,4.549-6.388,3.943a7.266,7.266,0,0,1-3.465-1.594l.782-1.41a6.644,6.644,0,0,0,2.967,1.406,3.278,3.278,0,0,0,4.063-2.5c.339-1.89-.661-3.478-3.579-4.037a15.51,15.51,0,0,0-2.051-.229l2.283-6.825,6.982,1.336Z" transform="translate(-312.147 -5506.822)" fill="#344154"/>
          </g>
        </g>
      </g>
    </g>
  </g>
</svg>
