<svg xmlns="http://www.w3.org/2000/svg" width="650" height="417.863" viewBox="0 0 650 417.863">
  <g id="Grupo_59810" data-name="Grupo 59810" transform="translate(-290.315 -4435.283)">
    <g id="Grupo_59602" data-name="Grupo 59602" transform="translate(417.81 4444.15)">
      <g id="Grupo_59601" data-name="Grupo 59601" transform="translate(0 0)">
        <path id="Trazado_103854" data-name="Trazado 103854" d="M471.278,4651.893c4.158-42.156-2.031-94.436,61.9-155.459,51.885-49.523,278.609-90.787,321.522,31.683,25.145,71.76,54.887,79.484,85.046,69.938,23.849-7.549,48.593,8.7,50.616,33.63,6.271,77.3-3.7,206.228-137.811,215.329C633.473,4861.884,447.654,4891.362,471.278,4651.893Z" transform="translate(-469.246 -4447.728)" fill="#aed3f2"/>
      </g>
    </g>
    <g id="Grupo_59628" data-name="Grupo 59628" transform="translate(687.019 4544.561)">
      <g id="Grupo_59605" data-name="Grupo 59605" transform="translate(102.988 56.833)">
        <g id="Grupo_59603" data-name="Grupo 59603">
          <rect id="Rectángulo_6080" data-name="Rectángulo 6080" width="49.089" height="49.089" transform="translate(0.359 0.359)" fill="#d9a171"/>
          <path id="Trazado_103855" data-name="Trazado 103855" d="M1041.408,4718.218H991.6V4668.41h49.807Zm-49.089-.717h48.371v-48.372H992.319Z" transform="translate(-991.601 -4668.41)" fill="#cc6436"/>
        </g>
        <g id="Grupo_59604" data-name="Grupo 59604" transform="translate(21.57 8.925)">
          <rect id="Rectángulo_6081" data-name="Rectángulo 6081" width="27.52" height="13.388" transform="translate(0.359 0.36)" fill="#ffecd2"/>
          <path id="Trazado_103856" data-name="Trazado 103856" d="M1050.11,4695.043h-28.237v-14.106h28.237Zm-27.519-.719h26.8v-12.669h-26.8Z" transform="translate(-1021.873 -4680.937)" fill="#cc6436"/>
        </g>
      </g>
      <g id="Grupo_59627" data-name="Grupo 59627">
        <g id="Grupo_59608" data-name="Grupo 59608" transform="translate(44.51)">
          <g id="Grupo_59606" data-name="Grupo 59606">
            <rect id="Rectángulo_6082" data-name="Rectángulo 6082" width="42.622" height="33.18" transform="translate(0.312 0.243)" fill="#d9a171"/>
            <path id="Trazado_103857" data-name="Trazado 103857" d="M952.776,4622.314H909.531v-33.666h43.245Zm-42.621-.485h42v-32.695h-42Z" transform="translate(-909.531 -4588.648)" fill="#cc6436"/>
          </g>
          <g id="Grupo_59607" data-name="Grupo 59607" transform="translate(18.728 6.033)">
            <rect id="Rectángulo_6083" data-name="Rectángulo 6083" width="23.894" height="9.049" transform="translate(0.312 0.242)" fill="#ffecd2"/>
            <path id="Trazado_103858" data-name="Trazado 103858" d="M960.332,4606.649H935.815v-9.534h24.517Zm-23.894-.485h23.27V4597.6h-23.27Z" transform="translate(-935.815 -4597.115)" fill="#cc6436"/>
          </g>
        </g>
        <g id="Grupo_59626" data-name="Grupo 59626" transform="translate(0 33.77)">
          <g id="Grupo_59624" data-name="Grupo 59624">
            <g id="Grupo_59612" data-name="Grupo 59612">
              <g id="Grupo_59609" data-name="Grupo 59609">
                <rect id="Rectángulo_6084" data-name="Rectángulo 6084" width="84.302" height="71.647" transform="translate(0.36 0.391)" fill="#d9a171"/>
                <path id="Trazado_103859" data-name="Trazado 103859" d="M932.085,4708.471H847.064v-72.429h85.021Zm-84.3-.782h83.582v-70.865H847.784Z" transform="translate(-847.064 -4636.042)" fill="#cc6436"/>
              </g>
              <g id="Grupo_59611" data-name="Grupo 59611" transform="translate(61.862 0.729)">
                <g id="Grupo_59610" data-name="Grupo 59610" style="mix-blend-mode: darken;isolation: isolate">
                  <rect id="Rectángulo_6085" data-name="Rectángulo 6085" width="22.429" height="70.883" fill="#a6753a"/>
                </g>
              </g>
            </g>
            <g id="Grupo_59623" data-name="Grupo 59623" transform="translate(6.791 9.36)">
              <g id="Grupo_59613" data-name="Grupo 59613" transform="translate(0 0.755)">
                <rect id="Rectángulo_6086" data-name="Rectángulo 6086" width="39.587" height="22.575" fill="#cc9d5e"/>
              </g>
              <g id="Grupo_59614" data-name="Grupo 59614">
                <rect id="Rectángulo_6087" data-name="Rectángulo 6087" width="39.587" height="21.628" fill="#fff5eb"/>
              </g>
              <g id="Grupo_59622" data-name="Grupo 59622" transform="translate(4.378 2.778)">
                <g id="Grupo_59615" data-name="Grupo 59615">
                  <rect id="Rectángulo_6088" data-name="Rectángulo 6088" width="6.567" height="15.874" fill="#513414"/>
                </g>
                <g id="Grupo_59616" data-name="Grupo 59616" transform="translate(10.26)">
                  <rect id="Rectángulo_6089" data-name="Rectángulo 6089" width="3.284" height="15.874" fill="#513414"/>
                </g>
                <g id="Grupo_59617" data-name="Grupo 59617" transform="translate(28.958)">
                  <rect id="Rectángulo_6090" data-name="Rectángulo 6090" width="3.284" height="15.874" fill="#513414"/>
                </g>
                <g id="Grupo_59618" data-name="Grupo 59618" transform="translate(15.415)">
                  <rect id="Rectángulo_6091" data-name="Rectángulo 6091" width="1.277" height="15.874" fill="#513414"/>
                </g>
                <g id="Grupo_59619" data-name="Grupo 59619" transform="translate(18.06)">
                  <rect id="Rectángulo_6092" data-name="Rectángulo 6092" width="1.277" height="15.874" fill="#513414"/>
                </g>
                <g id="Grupo_59620" data-name="Grupo 59620" transform="translate(20.705)">
                  <rect id="Rectángulo_6093" data-name="Rectángulo 6093" width="1.277" height="15.874" fill="#513414"/>
                </g>
                <g id="Grupo_59621" data-name="Grupo 59621" transform="translate(25.905)">
                  <rect id="Rectángulo_6094" data-name="Rectángulo 6094" width="1.277" height="15.874" fill="#513414"/>
                </g>
              </g>
            </g>
          </g>
          <g id="Grupo_59625" data-name="Grupo 59625" transform="translate(16.335 5.42)" opacity="0.54" style="mix-blend-mode: multiply;isolation: isolate">
            <circle id="Elipse_4052" data-name="Elipse 4052" cx="10.905" cy="10.905" r="10.905" transform="matrix(0.925, -0.38, 0.38, 0.925, 0, 8.278)" fill="#ff4545"/>
          </g>
        </g>
      </g>
    </g>
    <g id="Grupo_59636" data-name="Grupo 59636" transform="translate(478.448 4435.283)">
      <g id="Grupo_59629" data-name="Grupo 59629">
        <ellipse id="Elipse_4053" data-name="Elipse 4053" cx="35.21" cy="35.181" rx="35.21" ry="35.181" transform="translate(0 49.756) rotate(-44.956)" fill="#d6dbde"/>
      </g>
      <g id="Grupo_59630" data-name="Grupo 59630" transform="translate(11.79 11.789)">
        <ellipse id="Elipse_4054" data-name="Elipse 4054" cx="26.878" cy="26.84" rx="26.878" ry="26.84" transform="matrix(0.705, -0.709, 0.709, 0.705, 0, 38.098)" fill="#fff"/>
        <path id="Trazado_103860" data-name="Trazado 103860" d="M613.18,4521.438a27.323,27.323,0,0,1-.016-54.646h.016A27.354,27.354,0,0,1,640.5,4494.1h0a27.354,27.354,0,0,1-27.307,27.339Zm0-53.72h-.016a26.4,26.4,0,0,0,.015,52.794h.016a26.427,26.427,0,0,0,26.382-26.411h0A26.428,26.428,0,0,0,613.18,4467.717Z" transform="translate(-575.196 -4456.13)" fill="#cc6436"/>
      </g>
      <g id="Grupo_59631" data-name="Grupo 59631" transform="translate(47.91 28.472)">
        <path id="Trazado_103861" data-name="Trazado 103861" d="M622.991,4500.711h0a1.393,1.393,0,0,1-1.39-1.389l-.014-22.691a1.393,1.393,0,0,1,1.389-1.39h0a1.394,1.394,0,0,1,1.39,1.388l.013,22.692A1.393,1.393,0,0,1,622.991,4500.711Z" transform="translate(-621.587 -4475.241)" fill="#d3e3ea"/>
      </g>
      <g id="Grupo_59632" data-name="Grupo 59632" transform="translate(17.823 18.749)">
        <path id="Trazado_103862" data-name="Trazado 103862" d="M580.283,4489.4a.869.869,0,0,1-.132-.01.962.962,0,0,1-.782-1.084c2.844-21.659,24.563-26.638,24.782-26.686a.926.926,0,0,1,.4,1.81c-.207.044-20.7,4.775-23.346,25.163A.927.927,0,0,1,580.283,4489.4Z" transform="translate(-579.361 -4461.596)" fill="#fff"/>
      </g>
      <g id="Grupo_59633" data-name="Grupo 59633" transform="translate(29.19 51.163)">
        <path id="Trazado_103863" data-name="Trazado 103863" d="M595.315,4508.489h0a1.393,1.393,0,0,1,1.389-1.391l18.733-.011a1.392,1.392,0,0,1,1.39,1.388h0a1.393,1.393,0,0,1-1.388,1.39l-18.733.011A1.392,1.392,0,0,1,595.315,4508.489Z" transform="translate(-595.315 -4507.088)" fill="#d3e3ea"/>
      </g>
      <g id="Grupo_59634" data-name="Grupo 59634" transform="translate(48.398 70.613)">
        <path id="Trazado_103864" data-name="Trazado 103864" d="M625.008,4535.428a1.391,1.391,0,1,1-1-1A1.393,1.393,0,0,1,625.008,4535.428Z" transform="translate(-622.271 -4534.385)" fill="#d3e3ea"/>
      </g>
      <g id="Grupo_59635" data-name="Grupo 59635" transform="translate(14.115 49.753)">
        <path id="Trazado_103865" data-name="Trazado 103865" d="M609.816,4540.789a35.659,35.659,0,0,1-35.658-35.638h.926a34.734,34.734,0,0,0,34.732,34.713h.021a34.772,34.772,0,0,0,34.713-34.753h.926a35.7,35.7,0,0,1-35.638,35.68Z" transform="translate(-574.158 -4505.108)" fill="#cc6436"/>
      </g>
    </g>
    <g id="Grupo_59650" data-name="Grupo 59650" transform="translate(833.405 4498.529)">
      <g id="Grupo_59648" data-name="Grupo 59648" transform="translate(0 0)">
        <g id="Grupo_59639" data-name="Grupo 59639" transform="translate(20.027 53.177)">
          <g id="Grupo_59637" data-name="Grupo 59637" transform="translate(0 2.58)">
            <path id="Trazado_103866" data-name="Trazado 103866" d="M1096.508,4610.451a7.741,7.741,0,1,1-7.74-7.741A7.741,7.741,0,0,1,1096.508,4610.451Z" transform="translate(-1080.733 -4602.415)" fill="#ff9b57"/>
            <path id="Trazado_103867" data-name="Trazado 103867" d="M1088.649,4618.367a8.035,8.035,0,1,1,8.035-8.035A8.045,8.045,0,0,1,1088.649,4618.367Zm0-15.481a7.446,7.446,0,1,0,7.446,7.446A7.454,7.454,0,0,0,1088.649,4602.886Z" transform="translate(-1080.614 -4602.296)" fill="#cc6436"/>
          </g>
          <g id="Grupo_59638" data-name="Grupo 59638" transform="translate(4.863)">
            <rect id="Rectángulo_6095" data-name="Rectángulo 6095" width="4.973" height="10.222" transform="translate(0.295 0.295)" fill="#ffecd2"/>
            <path id="Trazado_103868" data-name="Trazado 103868" d="M1093,4609.486h-5.563v-10.811H1093Zm-4.974-.589h4.383v-9.633h-4.383Z" transform="translate(-1087.439 -4598.675)" fill="#cc6436"/>
          </g>
        </g>
        <g id="Grupo_59640" data-name="Grupo 59640" transform="translate(26.784)">
          <path id="Trazado_103869" data-name="Trazado 103869" d="M1090.393,4565.881a.3.3,0,0,1-.3-.294v-41.248a.295.295,0,0,1,.59,0v41.248A.294.294,0,0,1,1090.393,4565.881Z" transform="translate(-1090.098 -4524.045)" fill="#cc6436"/>
        </g>
        <g id="Grupo_59641" data-name="Grupo 59641" transform="translate(23.838 34.765)">
          <path id="Trazado_103870" data-name="Trazado 103870" d="M1089.618,4587.981h0a3.251,3.251,0,0,1-3.241-3.241v-8.249a3.25,3.25,0,0,1,3.241-3.241h0a3.25,3.25,0,0,1,3.241,3.241v8.249A3.251,3.251,0,0,1,1089.618,4587.981Z" transform="translate(-1086.082 -4572.955)" fill="#ffe876"/>
          <path id="Trazado_103871" data-name="Trazado 103871" d="M1089.5,4588.156a3.539,3.539,0,0,1-3.536-3.536v-8.249a3.536,3.536,0,1,1,7.071,0v8.249A3.539,3.539,0,0,1,1089.5,4588.156Zm0-14.731a2.95,2.95,0,0,0-2.946,2.946v8.249a2.946,2.946,0,0,0,5.893,0v-8.249A2.95,2.95,0,0,0,1089.5,4573.425Z" transform="translate(-1085.963 -4572.836)" fill="#cc6436"/>
        </g>
        <g id="Grupo_59642" data-name="Grupo 59642" transform="translate(0 42.702)">
          <path id="Trazado_103872" data-name="Trazado 103872" d="M1072.783,4589.534l-19.071,14.846h53.032l-19.072-14.846A12.119,12.119,0,0,0,1072.783,4589.534Z" transform="translate(-1052.854 -4584.838)" fill="#ffe876"/>
          <path id="Trazado_103873" data-name="Trazado 103873" d="M1107.255,4603.811h-54.747l23.985-18.671a5.514,5.514,0,0,1,6.778,0Zm-53.031-.589h51.315l-22.631-17.617a4.921,4.921,0,0,0-6.053,0Z" transform="translate(-1052.508 -4583.975)" fill="#cc6436"/>
        </g>
        <g id="Grupo_59643" data-name="Grupo 59643" transform="translate(42.694 67.762)">
          <path id="Trazado_103874" data-name="Trazado 103874" d="M1119.792,4622.682a.291.291,0,0,1-.113-.023l-7.07-2.947a.294.294,0,1,1,.226-.543l7.071,2.946a.294.294,0,0,1-.113.566Z" transform="translate(-1112.426 -4619.146)" fill="#cc6436"/>
        </g>
        <g id="Grupo_59644" data-name="Grupo 59644" transform="translate(4.393 67.763)">
          <path id="Trazado_103875" data-name="Trazado 103875" d="M1058.968,4623.86a.3.3,0,0,1-.14-.555l7.661-4.124a.294.294,0,1,1,.279.519l-7.66,4.124A.287.287,0,0,1,1058.968,4623.86Z" transform="translate(-1058.674 -4619.146)" fill="#cc6436"/>
        </g>
        <g id="Grupo_59645" data-name="Grupo 59645" transform="translate(16.178 74.245)">
          <path id="Trazado_103876" data-name="Trazado 103876" d="M1075.507,4635.313a.294.294,0,0,1-.248-.453l4.125-6.481a.294.294,0,0,1,.5.316l-4.125,6.482A.293.293,0,0,1,1075.507,4635.313Z" transform="translate(-1075.213 -4628.244)" fill="#cc6436"/>
        </g>
        <g id="Grupo_59646" data-name="Grupo 59646" transform="translate(34.307 75.148)">
          <path id="Trazado_103877" data-name="Trazado 103877" d="M1104.486,4637.17a.3.3,0,0,1-.264-.162l-3.536-7.072a.295.295,0,0,1,.527-.263l3.536,7.071a.3.3,0,0,1-.132.4A.3.3,0,0,1,1104.486,4637.17Z" transform="translate(-1100.655 -4629.51)" fill="#cc6436"/>
        </g>
        <g id="Grupo_59647" data-name="Grupo 59647" transform="translate(9.715 48.395)">
          <path id="Trazado_103878" data-name="Trazado 103878" d="M1066.266,4601.6h0a.59.59,0,0,1,.1-.826l11.159-8.687a.591.591,0,0,1,.827.1h0a.59.59,0,0,1-.1.826l-11.159,8.687A.591.591,0,0,1,1066.266,4601.6Z" transform="translate(-1066.143 -4591.964)" fill="#fff"/>
        </g>
      </g>
      <g id="Grupo_59649" data-name="Grupo 59649" transform="translate(14.989 55.604)">
        <path id="Trazado_103879" data-name="Trazado 103879" d="M1105.29,4607.941c-1.13-1.418-7.556-8.683-17.67-4.66a11.827,11.827,0,0,1-4.161.824c-3.833.071-7.608,1.153-9.916,3.835Z" transform="translate(-1073.544 -4602.082)" fill="#ffda3e"/>
      </g>
    </g>
    <g id="Grupo_59770" data-name="Grupo 59770" transform="translate(484.689 4636.954)">
      <g id="Grupo_59698" data-name="Grupo 59698" transform="translate(0.049 103.274)">
        <g id="Grupo_59665" data-name="Grupo 59665">
          <g id="Grupo_59651" data-name="Grupo 59651">
            <rect id="Rectángulo_6096" data-name="Rectángulo 6096" width="376.041" height="64.835" transform="translate(0.414 0.415)" fill="#5e6178"/>
            <path id="Trazado_103880" data-name="Trazado 103880" d="M940.046,4928.918H563.176v-65.664h376.87ZM564,4928.089H939.216v-64.006H564Z" transform="translate(-563.176 -4863.254)" fill="#cc6436"/>
          </g>
          <g id="Grupo_59664" data-name="Grupo 59664" transform="translate(3.568 46.757)">
            <g id="Grupo_59652" data-name="Grupo 59652" transform="translate(311.245 13.999)">
              <path id="Trazado_103881" data-name="Trazado 103881" d="M1005.276,4953.064a.28.28,0,0,1-.28-.28V4948.8a.28.28,0,0,1,.56,0v3.982A.28.28,0,0,1,1005.276,4953.064Z" transform="translate(-1004.996 -4948.522)" fill="#cc6436"/>
            </g>
            <g id="Grupo_59653" data-name="Grupo 59653" transform="translate(308.466 13.999)">
              <path id="Trazado_103882" data-name="Trazado 103882" d="M1001.376,4953.064a.28.28,0,0,1-.28-.28V4948.8a.28.28,0,0,1,.56,0v3.982A.28.28,0,0,1,1001.376,4953.064Z" transform="translate(-1001.096 -4948.522)" fill="#cc6436"/>
            </g>
            <g id="Grupo_59654" data-name="Grupo 59654" transform="translate(305.689 13.999)">
              <path id="Trazado_103883" data-name="Trazado 103883" d="M997.477,4953.064a.28.28,0,0,1-.279-.28V4948.8a.28.28,0,1,1,.559,0v3.982A.28.28,0,0,1,997.477,4953.064Z" transform="translate(-997.198 -4948.522)" fill="#cc6436"/>
            </g>
            <g id="Grupo_59657" data-name="Grupo 59657">
              <g id="Grupo_59656" data-name="Grupo 59656">
                <g id="Grupo_59655" data-name="Grupo 59655">
                  <path id="Trazado_103884" data-name="Trazado 103884" d="M568.964,4929.12l.225,17.789c0,.138-.172.252-.388.255s-.392-.107-.394-.245l-.224-17.789c0-.138.172-.252.387-.255S568.963,4928.982,568.964,4929.12Z" transform="translate(-568.183 -4928.875)" fill="#cc6436"/>
                </g>
              </g>
            </g>
            <g id="Grupo_59660" data-name="Grupo 59660" transform="translate(5.51 3.897)">
              <g id="Grupo_59659" data-name="Grupo 59659">
                <g id="Grupo_59658" data-name="Grupo 59658">
                  <path id="Trazado_103885" data-name="Trazado 103885" d="M576.7,4934.536l.177,14c0,.108-.172.2-.388.2s-.392-.083-.393-.191l-.177-14c0-.108.172-.2.388-.2S576.7,4934.428,576.7,4934.536Z" transform="translate(-575.916 -4934.344)" fill="#cc6436"/>
                </g>
              </g>
            </g>
            <g id="Grupo_59663" data-name="Grupo 59663" transform="translate(22.372 9.911)">
              <g id="Grupo_59662" data-name="Grupo 59662">
                <g id="Grupo_59661" data-name="Grupo 59661">
                  <path id="Trazado_103886" data-name="Trazado 103886" d="M600.362,4942.9l.1,8.148c0,.063-.174.117-.389.12s-.391-.046-.393-.11l-.1-8.148c0-.063.173-.117.389-.12S600.361,4942.832,600.362,4942.9Z" transform="translate(-599.581 -4942.785)" fill="#cc6436"/>
                </g>
              </g>
            </g>
          </g>
        </g>
        <g id="Grupo_59697" data-name="Grupo 59697" transform="translate(17.668 16.209)">
          <g id="Grupo_59670" data-name="Grupo 59670" transform="translate(71.662)">
            <g id="Grupo_59666" data-name="Grupo 59666" transform="translate(0 5.509)" opacity="0.43" style="mix-blend-mode: darken;isolation: isolate">
              <path id="Trazado_103887" data-name="Trazado 103887" d="M688.545,4893.734v20.957a10.534,10.534,0,0,0,10.534,10.533h37.283a10.534,10.534,0,0,0,10.534-10.533v-20.957Z" transform="translate(-688.545 -4893.734)" fill="#1d67b2"/>
            </g>
            <g id="Grupo_59669" data-name="Grupo 59669" transform="translate(0.049)">
              <g id="Grupo_59667" data-name="Grupo 59667">
                <path id="Rectángulo_6097" data-name="Rectángulo 6097" d="M0,0H58.351a0,0,0,0,1,0,0V2.636A28.855,28.855,0,0,1,29.5,31.491h-.641A28.855,28.855,0,0,1,0,2.636V0A0,0,0,0,1,0,0Z" transform="translate(0.414 0.415)" fill="#344154"/>
                <path id="Trazado_103888" data-name="Trazado 103888" d="M738.52,4918.323H697.887a9.284,9.284,0,0,1-9.273-9.273V4886h59.179v23.047A9.284,9.284,0,0,1,738.52,4918.323Zm-49.078-31.491v22.218a8.455,8.455,0,0,0,8.445,8.444H738.52a8.455,8.455,0,0,0,8.445-8.444v-22.218Z" transform="translate(-688.614 -4886.002)" fill="#cc6436"/>
              </g>
              <g id="Grupo_59668" data-name="Grupo 59668" transform="translate(22.329 3.342)">
                <circle id="Elipse_4055" data-name="Elipse 4055" cx="5.557" cy="5.557" r="5.557" transform="translate(0 4.253) rotate(-22.5)" fill="#b0c7d1"/>
                <path id="Trazado_103889" data-name="Trazado 103889" d="M727.732,4904.446a5.972,5.972,0,1,1,5.972-5.972A5.979,5.979,0,0,1,727.732,4904.446Zm0-11.114a5.143,5.143,0,1,0,5.143,5.142A5.148,5.148,0,0,0,727.732,4893.332Z" transform="translate(-720.471 -4891.213)" fill="#cc6436"/>
              </g>
            </g>
          </g>
          <g id="Grupo_59681" data-name="Grupo 59681">
            <g id="Grupo_59671" data-name="Grupo 59671" transform="translate(0 5.509)" opacity="0.43" style="mix-blend-mode: darken;isolation: isolate">
              <path id="Trazado_103890" data-name="Trazado 103890" d="M587.972,4893.734v20.957a10.534,10.534,0,0,0,10.534,10.533H635.79a10.533,10.533,0,0,0,10.533-10.533v-20.957Z" transform="translate(-587.972 -4893.734)" fill="#1d67b2"/>
            </g>
            <g id="Grupo_59680" data-name="Grupo 59680" transform="translate(0.049)">
              <g id="Grupo_59672" data-name="Grupo 59672">
                <path id="Rectángulo_6098" data-name="Rectángulo 6098" d="M0,0H58.351a0,0,0,0,1,0,0V2.636A28.855,28.855,0,0,1,29.5,31.491h-.641A28.855,28.855,0,0,1,0,2.636V0A0,0,0,0,1,0,0Z" transform="translate(0.414 0.415)" fill="#344154"/>
                <path id="Trazado_103891" data-name="Trazado 103891" d="M637.947,4918.323H597.314a9.284,9.284,0,0,1-9.273-9.273V4886h59.18v23.047A9.284,9.284,0,0,1,637.947,4918.323Zm-49.078-31.491v22.218a8.455,8.455,0,0,0,8.445,8.444h40.633a8.454,8.454,0,0,0,8.445-8.444v-22.218Z" transform="translate(-588.041 -4886.002)" fill="#cc6436"/>
              </g>
              <g id="Grupo_59673" data-name="Grupo 59673" transform="translate(23.593 4.606)">
                <circle id="Elipse_4056" data-name="Elipse 4056" cx="5.557" cy="5.557" r="5.557" transform="translate(0 11.077) rotate(-85.269)" fill="#b0c7d1"/>
                <path id="Trazado_103892" data-name="Trazado 103892" d="M627.159,4904.446a5.972,5.972,0,1,1,5.972-5.972A5.978,5.978,0,0,1,627.159,4904.446Zm0-11.114a5.143,5.143,0,1,0,5.143,5.142A5.149,5.149,0,0,0,627.159,4893.332Z" transform="translate(-621.162 -4892.477)" fill="#cc6436"/>
              </g>
              <g id="Grupo_59676" data-name="Grupo 59676" transform="translate(51.944 0.443)">
                <g id="Grupo_59675" data-name="Grupo 59675">
                  <g id="Grupo_59674" data-name="Grupo 59674">
                    <path id="Trazado_103893" data-name="Trazado 103893" d="M661.773,4890.775l-.051-4.041c0-.063-.176-.112-.392-.11s-.39.057-.389.12l.051,4.031Z" transform="translate(-660.941 -4886.624)" fill="#cc6436"/>
                  </g>
                </g>
              </g>
              <g id="Grupo_59679" data-name="Grupo 59679" transform="translate(49.469 0.829)">
                <g id="Grupo_59678" data-name="Grupo 59678">
                  <g id="Grupo_59677" data-name="Grupo 59677">
                    <path id="Trazado_103894" data-name="Trazado 103894" d="M658.249,4887.276l.1,8.147c0,.063-.173.117-.389.12s-.391-.046-.393-.109l-.1-8.148c0-.062.173-.116.389-.119S658.248,4887.212,658.249,4887.276Z" transform="translate(-657.468 -4887.166)" fill="#cc6436"/>
                  </g>
                </g>
              </g>
            </g>
          </g>
          <g id="Grupo_59686" data-name="Grupo 59686" transform="translate(285.664)">
            <g id="Grupo_59682" data-name="Grupo 59682" transform="translate(0.878 5.509)" opacity="0.43" style="mix-blend-mode: darken;isolation: isolate">
              <path id="Trazado_103895" data-name="Trazado 103895" d="M990.116,4893.734v20.957a10.534,10.534,0,0,0,10.534,10.533h37.283a10.534,10.534,0,0,0,10.534-10.533v-20.957Z" transform="translate(-990.116 -4893.734)" fill="#1d67b2"/>
            </g>
            <g id="Grupo_59685" data-name="Grupo 59685">
              <g id="Grupo_59683" data-name="Grupo 59683">
                <path id="Rectángulo_6099" data-name="Rectángulo 6099" d="M0,0H58.351a0,0,0,0,1,0,0V2.636A28.855,28.855,0,0,1,29.5,31.491h-.641A28.855,28.855,0,0,1,0,2.636V0A0,0,0,0,1,0,0Z" transform="translate(0.415 0.415)" fill="#344154"/>
                <path id="Trazado_103896" data-name="Trazado 103896" d="M1038.792,4918.323H998.158a9.285,9.285,0,0,1-9.274-9.273V4886h59.181v23.047A9.285,9.285,0,0,1,1038.792,4918.323Zm-49.078-31.491v22.218a8.454,8.454,0,0,0,8.444,8.444h40.634a8.454,8.454,0,0,0,8.444-8.444v-22.218Z" transform="translate(-988.884 -4886.002)" fill="#cc6436"/>
              </g>
              <g id="Grupo_59684" data-name="Grupo 59684" transform="translate(22.314 3.326)">
                <circle id="Elipse_4057" data-name="Elipse 4057" cx="5.557" cy="5.557" r="5.557" transform="translate(0 4.307) rotate(-22.801)" fill="#b0c7d1"/>
                <path id="Trazado_103897" data-name="Trazado 103897" d="M1028,4904.446a5.972,5.972,0,1,1,5.972-5.972A5.979,5.979,0,0,1,1028,4904.446Zm0-11.114a5.143,5.143,0,1,0,5.142,5.142A5.148,5.148,0,0,0,1028,4893.332Z" transform="translate(-1020.727 -4891.197)" fill="#cc6436"/>
              </g>
            </g>
          </g>
          <g id="Grupo_59691" data-name="Grupo 59691" transform="translate(214.347)">
            <g id="Grupo_59687" data-name="Grupo 59687" transform="translate(0.878 5.509)" opacity="0.43" style="mix-blend-mode: darken;isolation: isolate">
              <path id="Trazado_103898" data-name="Trazado 103898" d="M890.026,4893.734v20.957a10.534,10.534,0,0,0,10.534,10.533h37.283a10.534,10.534,0,0,0,10.534-10.533v-20.957Z" transform="translate(-890.026 -4893.734)" fill="#1d67b2"/>
            </g>
            <g id="Grupo_59690" data-name="Grupo 59690">
              <g id="Grupo_59688" data-name="Grupo 59688">
                <path id="Rectángulo_6100" data-name="Rectángulo 6100" d="M0,0H58.351a0,0,0,0,1,0,0V2.636A28.855,28.855,0,0,1,29.5,31.491h-.641A28.855,28.855,0,0,1,0,2.636V0A0,0,0,0,1,0,0Z" transform="translate(0.415 0.415)" fill="#344154"/>
                <path id="Trazado_103899" data-name="Trazado 103899" d="M938.7,4918.323H898.068a9.285,9.285,0,0,1-9.274-9.273V4886h59.18v23.047A9.285,9.285,0,0,1,938.7,4918.323Zm-49.077-31.491v22.218a8.454,8.454,0,0,0,8.444,8.444H938.7a8.455,8.455,0,0,0,8.445-8.444v-22.218Z" transform="translate(-888.794 -4886.002)" fill="#cc6436"/>
              </g>
              <g id="Grupo_59689" data-name="Grupo 59689" transform="translate(22.491 3.504)">
                <circle id="Elipse_4058" data-name="Elipse 4058" cx="5.557" cy="5.557" r="5.557" transform="matrix(0.942, -0.335, 0.335, 0.942, 0, 3.727)" fill="#b0c7d1"/>
                <path id="Trazado_103900" data-name="Trazado 103900" d="M927.913,4904.446a5.972,5.972,0,1,1,5.972-5.972A5.979,5.979,0,0,1,927.913,4904.446Zm0-11.114a5.143,5.143,0,1,0,5.142,5.142A5.147,5.147,0,0,0,927.913,4893.332Z" transform="translate(-920.814 -4891.375)" fill="#cc6436"/>
              </g>
            </g>
          </g>
          <g id="Grupo_59696" data-name="Grupo 59696" transform="translate(143.029)">
            <g id="Grupo_59692" data-name="Grupo 59692" transform="translate(0.877 5.509)" opacity="0.43" style="mix-blend-mode: darken;isolation: isolate">
              <path id="Trazado_103901" data-name="Trazado 103901" d="M789.935,4893.734v20.957a10.534,10.534,0,0,0,10.534,10.533h37.284a10.534,10.534,0,0,0,10.534-10.533v-20.957Z" transform="translate(-789.935 -4893.734)" fill="#1d67b2"/>
            </g>
            <g id="Grupo_59695" data-name="Grupo 59695">
              <g id="Grupo_59693" data-name="Grupo 59693">
                <path id="Rectángulo_6101" data-name="Rectángulo 6101" d="M0,0H58.351a0,0,0,0,1,0,0V2.636A28.855,28.855,0,0,1,29.5,31.491h-.641A28.855,28.855,0,0,1,0,2.636V0A0,0,0,0,1,0,0Z" transform="translate(0.414 0.415)" fill="#344154"/>
                <path id="Trazado_103902" data-name="Trazado 103902" d="M838.611,4918.323H797.978a9.284,9.284,0,0,1-9.274-9.273V4886h59.18v23.047A9.284,9.284,0,0,1,838.611,4918.323Zm-49.078-31.491v22.218a8.455,8.455,0,0,0,8.445,8.444h40.633a8.455,8.455,0,0,0,8.445-8.444v-22.218Z" transform="translate(-788.704 -4886.002)" fill="#cc6436"/>
              </g>
              <g id="Grupo_59694" data-name="Grupo 59694" transform="translate(23.618 4.631)">
                <path id="Trazado_103903" data-name="Trazado 103903" d="M833.547,4898.641a5.557,5.557,0,1,1-5.558-5.557A5.558,5.558,0,0,1,833.547,4898.641Z" transform="translate(-822.018 -4892.669)" fill="#b0c7d1"/>
                <path id="Trazado_103904" data-name="Trazado 103904" d="M827.822,4904.446a5.972,5.972,0,1,1,5.972-5.972A5.979,5.979,0,0,1,827.822,4904.446Zm0-11.114a5.143,5.143,0,1,0,5.143,5.142A5.148,5.148,0,0,0,827.822,4893.332Z" transform="translate(-821.851 -4892.502)" fill="#cc6436"/>
              </g>
            </g>
          </g>
        </g>
      </g>
      <g id="Grupo_59769" data-name="Grupo 59769">
        <g id="Grupo_59728" data-name="Grupo 59728" transform="translate(15.344 33.219)">
          <g id="Grupo_59724" data-name="Grupo 59724">
            <g id="Grupo_59711" data-name="Grupo 59711">
              <g id="Grupo_59699" data-name="Grupo 59699" transform="translate(38.118 8.201)">
                <path id="Trazado_103905" data-name="Trazado 103905" d="M638.608,4782.6a.47.47,0,0,1-.413-.7l2.852-5.209a.47.47,0,1,1,.825.452l-2.164,3.953,4.921-2.29a.47.47,0,0,1,.4.853l-6.22,2.894A.472.472,0,0,1,638.608,4782.6Z" transform="translate(-638.138 -4776.447)" fill="#cc6436"/>
              </g>
              <g id="Grupo_59700" data-name="Grupo 59700" transform="translate(30.655 1.672)">
                <path id="Trazado_103906" data-name="Trazado 103906" d="M628.133,4774.2a.464.464,0,0,1-.157-.027.471.471,0,0,1-.313-.458l.2-5.98a.465.465,0,0,1,.486-.454.47.47,0,0,1,.455.485l-.148,4.51,3.328-4.36a.47.47,0,0,1,.747.57l-4.22,5.529A.471.471,0,0,1,628.133,4774.2Z" transform="translate(-627.663 -4767.284)" fill="#cc6436"/>
              </g>
              <g id="Grupo_59701" data-name="Grupo 59701" transform="translate(22.242)">
                <path id="Trazado_103907" data-name="Trazado 103907" d="M618.54,4772.711a.469.469,0,0,1-.437-.295l-2.212-5.53a.47.47,0,1,1,.873-.35l1.662,4.156,1.29-5.394a.47.47,0,0,1,.915.219L619,4772.351a.472.472,0,0,1-.423.36Z" transform="translate(-615.856 -4764.937)" fill="#cc6436"/>
              </g>
              <g id="Grupo_59702" data-name="Grupo 59702" transform="translate(42.609 16.306)">
                <path id="Trazado_103908" data-name="Trazado 103908" d="M644.91,4793.972a.47.47,0,0,1-.413-.7l2.852-5.21a.471.471,0,0,1,.825.453l-2.164,3.953,4.921-2.291a.471.471,0,0,1,.4.854l-6.219,2.894A.478.478,0,0,1,644.91,4793.972Z" transform="translate(-644.44 -4787.821)" fill="#cc6436"/>
              </g>
              <g id="Grupo_59703" data-name="Grupo 59703" transform="translate(3.712 9.359)">
                <path id="Trazado_103909" data-name="Trazado 103909" d="M596.54,4784.223a.477.477,0,0,1-.2-.043l-6.219-2.894a.471.471,0,0,1,.4-.854l4.921,2.291-2.164-3.953a.47.47,0,1,1,.825-.452l2.852,5.209a.47.47,0,0,1-.413.7Z" transform="translate(-589.85 -4778.072)" fill="#cc6436"/>
              </g>
              <g id="Grupo_59704" data-name="Grupo 59704" transform="translate(13.174 2.83)">
                <path id="Trazado_103910" data-name="Trazado 103910" d="M607.82,4775.829a.472.472,0,0,1-.374-.185l-4.22-5.529a.47.47,0,0,1,.747-.571l3.328,4.361-.147-4.51a.47.47,0,0,1,.455-.485.478.478,0,0,1,.485.455l.2,5.979a.47.47,0,0,1-.313.458A.451.451,0,0,1,607.82,4775.829Z" transform="translate(-603.13 -4768.909)" fill="#cc6436"/>
              </g>
              <g id="Grupo_59705" data-name="Grupo 59705" transform="translate(5.613 4.729)">
                <ellipse id="Elipse_4059" data-name="Elipse 4059" cx="20.207" cy="23.734" rx="20.207" ry="23.734" transform="translate(0.47 0.469)" fill="#344154"/>
                <path id="Trazado_103911" data-name="Trazado 103911" d="M613.2,4819.981c-11.4,0-20.678-10.857-20.678-24.2s9.276-24.2,20.678-24.2,20.677,10.857,20.677,24.2S624.6,4819.981,613.2,4819.981Zm0-47.467c-10.883,0-19.737,10.436-19.737,23.263s8.854,23.264,19.737,23.264,19.737-10.436,19.737-23.264S624.079,4772.514,613.2,4772.514Z" transform="translate(-592.519 -4771.574)" fill="#cc6436"/>
              </g>
              <g id="Grupo_59706" data-name="Grupo 59706" transform="translate(2.107 31.991)">
                <path id="Trazado_103912" data-name="Trazado 103912" d="M622.738,4830.618h-23a5.075,5.075,0,0,1-4.657-3.059l-7.42-17.143h47.151l-7.42,17.143A5.075,5.075,0,0,1,622.738,4830.618Z" transform="translate(-587.617 -4810.001)" fill="#d9a171"/>
                <path id="Trazado_103913" data-name="Trazado 103913" d="M624.325,4830.865H598.382a3.446,3.446,0,0,1-3.163-2.078l-7.527-17.391a1.118,1.118,0,0,1,1.026-1.562h45.007a1.118,1.118,0,0,1,1.026,1.563l-7.632,17.634A3.043,3.043,0,0,1,624.325,4830.865Zm-25.968-.829h25.821a2.44,2.44,0,0,0,2.239-1.47l7.072-16.34a1.118,1.118,0,0,0-1.026-1.563H589.979a1.118,1.118,0,0,0-1.026,1.563l7.035,16.253A2.582,2.582,0,0,0,598.357,4830.036Z" transform="translate(-587.598 -4809.834)" fill="#cc6436"/>
              </g>
              <g id="Grupo_59707" data-name="Grupo 59707" transform="translate(25.82 4.729)">
                <path id="Trazado_103914" data-name="Trazado 103914" d="M623.594,4795.669a.525.525,0,0,1-.082-.008.47.47,0,0,1-.381-.544,44.418,44.418,0,0,0-2.215-22.887.471.471,0,0,1,.864-.373,45.481,45.481,0,0,1,2.277,23.421A.471.471,0,0,1,623.594,4795.669Z" transform="translate(-620.878 -4771.574)" fill="#cc6436"/>
              </g>
              <g id="Grupo_59708" data-name="Grupo 59708" transform="translate(26.943 4.729)">
                <path id="Trazado_103915" data-name="Trazado 103915" d="M634.151,4792.2h-.039a.47.47,0,0,1-.43-.507c1.084-13.412-10.836-19.161-10.957-19.217a.471.471,0,0,1,.4-.853c.126.06,12.631,6.09,11.495,20.146A.47.47,0,0,1,634.151,4792.2Z" transform="translate(-622.454 -4771.573)" fill="#cc6436"/>
              </g>
              <g id="Grupo_59709" data-name="Grupo 59709" transform="translate(0 17.463)">
                <path id="Trazado_103916" data-name="Trazado 103916" d="M591.331,4795.6a.473.473,0,0,1-.2-.043l-6.22-2.895a.471.471,0,0,1,.4-.854l4.921,2.291-2.165-3.954a.471.471,0,0,1,.826-.452l2.852,5.209a.47.47,0,0,1-.413.7Z" transform="translate(-584.641 -4789.446)" fill="#cc6436"/>
              </g>
              <path id="Trazado_103917" data-name="Trazado 103917" d="M613.731,4772.025a.472.472,0,0,0-.661-.071,31.5,31.5,0,0,0-6.245,6.834l-.6-1.1a.47.47,0,1,0-.827.449l.844,1.549q-.421.678-.819,1.407l-2.782-1.292a.47.47,0,0,0-.4.854l2.74,1.273a28.573,28.573,0,0,0-3.011,11,.471.471,0,0,0,.436.5h.033a.47.47,0,0,0,.469-.437,28.657,28.657,0,0,1,10.75-20.309A.47.47,0,0,0,613.731,4772.025Z" transform="translate(-589.623 -4766.924)" fill="#cc6436"/>
              <g id="Grupo_59710" data-name="Grupo 59710" transform="translate(3.528 32.743)">
                <path id="Trazado_103918" data-name="Trazado 103918" d="M589.593,4810.889c1.589,1.994,10.625,12.21,24.845,6.552a16.642,16.642,0,0,1,5.85-1.159c5.39-.1,10.7-1.622,13.944-5.393Z" transform="translate(-589.593 -4810.889)" fill="#ba8e52"/>
              </g>
            </g>
            <g id="Grupo_59714" data-name="Grupo 59714" transform="translate(15.261 26.241)">
              <g id="Grupo_59713" data-name="Grupo 59713">
                <g id="Grupo_59712" data-name="Grupo 59712" transform="translate(0.463 0.477)">
                  <path id="Trazado_103919" data-name="Trazado 103919" d="M608.294,4805.7a1.636,1.636,0,1,1,1.586-1.635A1.612,1.612,0,0,1,608.294,4805.7Z" transform="translate(-606.709 -4802.435)" fill="#7ba1b2"/>
                </g>
                <path id="Trazado_103920" data-name="Trazado 103920" d="M608.108,4801.765a2.114,2.114,0,1,0,2.049,2.112A2.083,2.083,0,0,0,608.108,4801.765Zm0,3.27a1.158,1.158,0,1,1,1.123-1.158A1.14,1.14,0,0,1,608.108,4805.035Z" transform="translate(-606.059 -4801.765)" fill="#cc6436"/>
              </g>
            </g>
            <g id="Grupo_59717" data-name="Grupo 59717" transform="translate(16.945 17.558)">
              <g id="Grupo_59716" data-name="Grupo 59716">
                <g id="Grupo_59715" data-name="Grupo 59715" transform="translate(0.463 0.477)">
                  <path id="Trazado_103921" data-name="Trazado 103921" d="M610.658,4793.519a1.636,1.636,0,1,1,1.585-1.635A1.612,1.612,0,0,1,610.658,4793.519Z" transform="translate(-609.072 -4790.248)" fill="#7ba1b2"/>
                </g>
                <path id="Trazado_103922" data-name="Trazado 103922" d="M610.471,4789.578a2.114,2.114,0,1,0,2.049,2.113A2.084,2.084,0,0,0,610.471,4789.578Zm0,3.271a1.159,1.159,0,1,1,1.122-1.158A1.141,1.141,0,0,1,610.471,4792.849Z" transform="translate(-608.422 -4789.578)" fill="#cc6436"/>
              </g>
            </g>
            <g id="Grupo_59720" data-name="Grupo 59720" transform="translate(21.436 9.453)">
              <g id="Grupo_59719" data-name="Grupo 59719">
                <g id="Grupo_59718" data-name="Grupo 59718" transform="translate(0.463 0.478)">
                  <path id="Trazado_103923" data-name="Trazado 103923" d="M616.96,4782.145a1.636,1.636,0,1,1,1.585-1.635A1.612,1.612,0,0,1,616.96,4782.145Z" transform="translate(-615.375 -4778.875)" fill="#7ba1b2"/>
                </g>
                <path id="Trazado_103924" data-name="Trazado 103924" d="M616.774,4778.2a2.114,2.114,0,1,0,2.049,2.112A2.083,2.083,0,0,0,616.774,4778.2Zm0,3.271a1.158,1.158,0,1,1,1.122-1.158A1.141,1.141,0,0,1,616.774,4781.475Z" transform="translate(-614.725 -4778.204)" fill="#cc6436"/>
              </g>
            </g>
            <g id="Grupo_59723" data-name="Grupo 59723" transform="translate(32.662 21.031)">
              <g id="Grupo_59722" data-name="Grupo 59722">
                <g id="Grupo_59721" data-name="Grupo 59721" transform="translate(0.463 0.478)">
                  <path id="Trazado_103925" data-name="Trazado 103925" d="M632.715,4798.394a1.636,1.636,0,1,1,1.586-1.635A1.612,1.612,0,0,1,632.715,4798.394Z" transform="translate(-631.13 -4795.123)" fill="#7ba1b2"/>
                </g>
                <path id="Trazado_103926" data-name="Trazado 103926" d="M632.529,4794.452a2.114,2.114,0,1,0,2.049,2.113A2.084,2.084,0,0,0,632.529,4794.452Zm0,3.271a1.158,1.158,0,1,1,1.123-1.157A1.14,1.14,0,0,1,632.529,4797.723Z" transform="translate(-630.48 -4794.452)" fill="#cc6436"/>
              </g>
            </g>
          </g>
          <g id="Grupo_59725" data-name="Grupo 59725" transform="translate(28.189 11.674)">
            <path id="Trazado_103927" data-name="Trazado 103927" d="M624.673,4784.463a.453.453,0,0,1-.227-.06.468.468,0,0,1-.185-.638l1.213-2.2a.47.47,0,0,1,.824.453l-1.213,2.2A.469.469,0,0,1,624.673,4784.463Z" transform="translate(-624.203 -4781.321)" fill="#cc6436"/>
          </g>
          <g id="Grupo_59726" data-name="Grupo 59726" transform="translate(28.459 13.99)">
            <path id="Trazado_103928" data-name="Trazado 103928" d="M625.052,4787.516a.471.471,0,0,1-.2-.9l4.311-2a.471.471,0,0,1,.4.854l-4.312,2A.474.474,0,0,1,625.052,4787.516Z" transform="translate(-624.581 -4784.571)" fill="#cc6436"/>
          </g>
          <g id="Grupo_59727" data-name="Grupo 59727" transform="translate(7.055 11.513)">
            <path id="Trazado_103929" data-name="Trazado 103929" d="M596.529,4787.584a3.271,3.271,0,0,1,3.426-5.572h0a8.777,8.777,0,0,1-3.339,5.506Z" transform="translate(-594.666 -4781.219)" fill="#344154"/>
            <path id="Trazado_103930" data-name="Trazado 103930" d="M596.246,4787.722a3.578,3.578,0,1,1,3.747-6.1l-.322.524a2.963,2.963,0,0,0-3.1,5.049Z" transform="translate(-594.542 -4781.095)" fill="#cc6436"/>
          </g>
        </g>
        <g id="Grupo_59734" data-name="Grupo 59734" transform="translate(0 13.384)">
          <g id="Grupo_59733" data-name="Grupo 59733">
            <g id="Grupo_59732" data-name="Grupo 59732">
              <g id="Grupo_59731" data-name="Grupo 59731">
                <g id="Grupo_59730" data-name="Grupo 59730">
                  <g id="Grupo_59729" data-name="Grupo 59729">
                    <path id="Trazado_103931" data-name="Trazado 103931" d="M940.074,4737.1H563.107v82.432H940.074Zm-367.705,73.17v-62.982h62.982v62.982Zm73.17,0v-62.982h62.982v62.982Zm73.17,0v-62.982h62.982v62.982Zm73.171,0v-62.982h62.982v62.982Zm73.17,0v-62.982h62.982v62.982Zm63.309.326H864.724v-63.635H928.36Zm-62.982-.653h62.328v-62.329H865.378Z" transform="translate(-563.107 -4737.099)" fill="#6595bf"/>
                  </g>
                </g>
              </g>
            </g>
          </g>
        </g>
        <g id="Grupo_59737" data-name="Grupo 59737" transform="translate(89.799 35.013)">
          <g id="Grupo_59735" data-name="Grupo 59735">
            <rect id="Rectángulo_6102" data-name="Rectángulo 6102" width="49.089" height="50.624" transform="translate(0.359 0.359)" fill="#d9a171"/>
            <path id="Trazado_103932" data-name="Trazado 103932" d="M738.942,4818.8H689.134v-51.342h49.808Zm-49.089-.718h48.37v-49.906h-48.37Z" transform="translate(-689.134 -4767.455)" fill="#cc6436"/>
          </g>
          <g id="Grupo_59736" data-name="Grupo 59736" transform="translate(26.776 22.244)">
            <rect id="Rectángulo_6103" data-name="Rectángulo 6103" width="13.388" height="28.38" transform="translate(0.359 0.359)" fill="#ffecd2"/>
            <path id="Trazado_103933" data-name="Trazado 103933" d="M740.819,4827.771H726.712v-29.1h14.107Zm-13.388-.718H740.1v-27.662H727.431Z" transform="translate(-726.712 -4798.673)" fill="#cc6436"/>
          </g>
        </g>
        <g id="Grupo_59740" data-name="Grupo 59740" transform="translate(162.079 33.563)">
          <g id="Grupo_59738" data-name="Grupo 59738">
            <rect id="Rectángulo_6104" data-name="Rectángulo 6104" width="49.089" height="50.624" transform="translate(0.47 0.47)" fill="#d8b280"/>
            <path id="Trazado_103934" data-name="Trazado 103934" d="M840.6,4816.983H790.575v-51.564H840.6Zm-49.089-.941h48.148v-49.684H791.516Z" transform="translate(-790.575 -4765.419)" fill="#cc6436"/>
          </g>
          <g id="Grupo_59739" data-name="Grupo 59739" transform="translate(21.57 9.204)">
            <rect id="Rectángulo_6105" data-name="Rectángulo 6105" width="27.52" height="13.806" transform="translate(0.47 0.47)" fill="#ffecd2"/>
            <path id="Trazado_103935" data-name="Trazado 103935" d="M849.306,4793.083H820.847v-14.747h28.459Zm-27.519-.94h26.578v-12.867H821.788Z" transform="translate(-820.847 -4778.336)" fill="#cc6436"/>
          </g>
        </g>
        <g id="Grupo_59756" data-name="Grupo 59756" transform="translate(300.964)">
          <g id="Grupo_59746" data-name="Grupo 59746" transform="translate(0 5.814)">
            <g id="Grupo_59741" data-name="Grupo 59741">
              <path id="Trazado_103936" data-name="Trazado 103936" d="M992.312,4782l33.628,7.521,4.958-53.184-44.663-9.049Z" transform="translate(-985.705 -4726.709)" fill="#ffecd2"/>
              <path id="Trazado_103937" data-name="Trazado 103937" d="M1026.138,4789.854l-34.463-7.708-6.184-55.671.622.125,45.071,9.132Zm-33.616-8.468,32.792,7.335,4.87-52.247-43.633-8.84Z" transform="translate(-985.491 -4726.476)" fill="#cc6436"/>
            </g>
            <g id="Grupo_59742" data-name="Grupo 59742" transform="translate(5.588 5.547)">
              <path id="Trazado_103938" data-name="Trazado 103938" d="M1026.233,4746.528l-31.978-7.072-.923-5.2,33.434,6.642Z" transform="translate(-993.333 -4734.26)" fill="#e8d0b3"/>
            </g>
            <g id="Grupo_59743" data-name="Grupo 59743" transform="translate(6.662 15.219)">
              <path id="Trazado_103939" data-name="Trazado 103939" d="M1025.787,4759.667l-30.024-6.636-.923-5.2,31.478,6.25Z" transform="translate(-994.841 -4747.833)" fill="#e8d0b3"/>
            </g>
            <g id="Grupo_59744" data-name="Grupo 59744" transform="translate(8.055 25.477)">
              <path id="Trazado_103940" data-name="Trazado 103940" d="M1025.417,4773.552l-27.7-6.125-.923-5.2,29.152,5.792Z" transform="translate(-996.795 -4762.231)" fill="#e8d0b3"/>
            </g>
            <g id="Grupo_59745" data-name="Grupo 59745" transform="translate(8.727 36.507)">
              <path id="Trazado_103941" data-name="Trazado 103941" d="M1024.674,4788.66l-26.012-5.753-.923-5.2,27.46,5.454Z" transform="translate(-997.739 -4777.71)" fill="#e8d0b3"/>
            </g>
          </g>
          <g id="Grupo_59752" data-name="Grupo 59752" transform="translate(9.452)">
            <g id="Grupo_59747" data-name="Grupo 59747">
              <path id="Trazado_103942" data-name="Trazado 103942" d="M999.479,4773.458l30.045,16.872,20.04-49.513-40.175-21.508Z" transform="translate(-998.964 -4718.602)" fill="#e8d0b3"/>
              <path id="Trazado_103943" data-name="Trazado 103943" d="M1029.548,4790.706l-30.792-17.291.059-.325,10.024-54.773,41.1,22-.157.385Zm-29.762-17.774,29.3,16.453,19.685-48.64-39.248-21.012Z" transform="translate(-998.756 -4718.316)" fill="#cc6436"/>
            </g>
            <g id="Grupo_59748" data-name="Grupo 59748" transform="translate(13.23 6.919)">
              <path id="Trazado_103944" data-name="Trazado 103944" d="M1045.917,4749.236l-28.594-15.967.61-5.242L1048.046,4744Z" transform="translate(-1017.323 -4728.027)" fill="#ffecd2"/>
            </g>
            <g id="Grupo_59749" data-name="Grupo 59749" transform="translate(11.478 16.492)">
              <path id="Trazado_103945" data-name="Trazado 103945" d="M1041.713,4761.691l-26.848-14.988.61-5.242,28.352,15.036Z" transform="translate(-1014.865 -4741.461)" fill="#ffecd2"/>
            </g>
            <g id="Grupo_59750" data-name="Grupo 59750" transform="translate(9.863 26.717)">
              <path id="Trazado_103946" data-name="Trazado 103946" d="M1037.367,4774.885l-24.769-13.831.61-5.242,26.255,13.929Z" transform="translate(-1012.598 -4755.812)" fill="#ffecd2"/>
            </g>
            <g id="Grupo_59751" data-name="Grupo 59751" transform="translate(7.336 37.475)">
              <path id="Trazado_103947" data-name="Trazado 103947" d="M1032.311,4789.141l-23.26-12.989.61-5.242,24.733,13.118Z" transform="translate(-1009.051 -4770.909)" fill="#ffecd2"/>
            </g>
          </g>
          <g id="Grupo_59755" data-name="Grupo 59755" transform="translate(4.27 51.822)">
            <g id="Grupo_59753" data-name="Grupo 59753">
              <path id="Rectángulo_6106" data-name="Rectángulo 6106" d="M0,0H55.573a0,0,0,0,1,0,0V4.689A27.786,27.786,0,0,1,27.786,32.476h0A27.786,27.786,0,0,1,0,4.689V0A0,0,0,0,1,0,0Z" transform="translate(0.415 0.414)" fill="#344154"/>
              <path id="Trazado_103948" data-name="Trazado 103948" d="M1038.613,4824.35h-37.854a9.285,9.285,0,0,1-9.274-9.273v-24.031h56.4v24.031A9.284,9.284,0,0,1,1038.613,4824.35Zm-46.3-32.476v23.2a8.454,8.454,0,0,0,8.445,8.444h37.854a8.454,8.454,0,0,0,8.444-8.444v-23.2Z" transform="translate(-991.484 -4791.045)" fill="#cc6436"/>
            </g>
            <g id="Grupo_59754" data-name="Grupo 59754" transform="translate(1.843 0.959)" opacity="0.25" style="mix-blend-mode: darken;isolation: isolate">
              <path id="Trazado_103949" data-name="Trazado 103949" d="M994.07,4792.391c1.9,1.994,12.732,12.21,29.773,6.552a23.436,23.436,0,0,1,7.011-1.159c6.458-.1,12.821-1.622,16.71-5.393Z" transform="translate(-994.07 -4792.391)" fill="#1d67b2"/>
            </g>
          </g>
        </g>
        <g id="Grupo_59768" data-name="Grupo 59768" transform="translate(232.99 33.685)">
          <g id="Grupo_59760" data-name="Grupo 59760" transform="translate(20.229)">
            <g id="Grupo_59757" data-name="Grupo 59757" transform="translate(0 8.666)">
              <rect id="Rectángulo_6107" data-name="Rectángulo 6107" width="8.336" height="38.901" transform="translate(19.592 0.319) rotate(29.285)" fill="#ff9b57"/>
              <path id="Trazado_103950" data-name="Trazado 103950" d="M926.477,4816.642l-7.993-4.482,19.1-34.061a.678.678,0,0,1,.923-.259l6.811,3.819a.677.677,0,0,1,.259.922Zm-6.866-4.8,6.548,3.672,18.624-33.206-6.548-3.672Z" transform="translate(-918.484 -4777.753)" fill="#cc6436"/>
            </g>
            <g id="Grupo_59758" data-name="Grupo 59758" transform="translate(19.249 0.434)">
              <path id="Trazado_103951" data-name="Trazado 103951" d="M955.052,4767.457l-9.072,7.656,7.271,4.077Z" transform="translate(-945.637 -4766.561)" fill="#ffecd2"/>
              <path id="Trazado_103952" data-name="Trazado 103952" d="M952.906,4779.125l-7.21-4.043a.384.384,0,0,1-.06-.629l9.78-8.253-1.942,12.649A.384.384,0,0,1,952.906,4779.125Zm-6.433-4.435,6.362,3.568,1.087-7.073a1.212,1.212,0,0,0-1.979-1.11Z" transform="translate(-945.499 -4766.199)" fill="#cc6436"/>
            </g>
            <g id="Grupo_59759" data-name="Grupo 59759" transform="translate(26.605)">
              <path id="Trazado_103953" data-name="Trazado 103953" d="M956.3,4769.748h0a.929.929,0,0,1-.355-1.261l1.36-2.423a.929.929,0,0,1,1.26-.355h0a.929.929,0,0,1,.355,1.261l-1.359,2.423A.929.929,0,0,1,956.3,4769.748Z" transform="translate(-955.823 -4765.591)" fill="#ff9b57"/>
            </g>
          </g>
          <g id="Grupo_59764" data-name="Grupo 59764" transform="translate(7.261)">
            <g id="Grupo_59761" data-name="Grupo 59761" transform="translate(0 8.68)">
              <rect id="Rectángulo_6108" data-name="Rectángulo 6108" width="8.336" height="38.901" transform="translate(19.592 0.305) rotate(29.284)" fill="#2a2f76"/>
              <path id="Trazado_103954" data-name="Trazado 103954" d="M908.278,4816.647l-7.993-4.481,19.082-34.026a.716.716,0,0,1,.976-.275l6.743,3.781a.717.717,0,0,1,.274.976Zm-6.865-4.8,6.547,3.672,18.624-33.207-6.547-3.672Z" transform="translate(-900.285 -4777.773)" fill="#cc6436"/>
            </g>
            <g id="Grupo_59762" data-name="Grupo 59762" transform="translate(19.38 0.434)">
              <path id="Trazado_103955" data-name="Trazado 103955" d="M936.853,4767.457l-9.072,7.656,7.271,4.077Z" transform="translate(-927.569 -4766.561)" fill="#ffecd2"/>
              <path id="Trazado_103956" data-name="Trazado 103956" d="M934.54,4779l-6.771-3.8a.559.559,0,0,1-.087-.915l9.588-8.092-1.9,12.4A.559.559,0,0,1,934.54,4779Zm-6.213-4.312,6.362,3.568,1.022-6.654a1.371,1.371,0,0,0-2.239-1.256Z" transform="translate(-927.483 -4766.199)" fill="#cc6436"/>
            </g>
            <g id="Grupo_59763" data-name="Grupo 59763" transform="translate(26.606)">
              <path id="Trazado_103957" data-name="Trazado 103957" d="M938.1,4769.748h0a.929.929,0,0,1-.355-1.261l1.359-2.423a.93.93,0,0,1,1.261-.355h0a.929.929,0,0,1,.355,1.261l-1.359,2.423A.93.93,0,0,1,938.1,4769.748Z" transform="translate(-937.625 -4765.591)" fill="#2a2f76"/>
            </g>
          </g>
          <g id="Grupo_59767" data-name="Grupo 59767" transform="translate(0 18.137)">
            <g id="Grupo_59765" data-name="Grupo 59765">
              <path id="Rectángulo_6109" data-name="Rectángulo 6109" d="M0,0H54.646a0,0,0,0,1,0,0V5.153A27.323,27.323,0,0,1,27.323,32.476h0A27.323,27.323,0,0,1,0,5.152V0A0,0,0,0,1,0,0Z" transform="translate(0.415 0.414)" fill="#344154"/>
              <path id="Trazado_103958" data-name="Trazado 103958" d="M936.3,4824.35H899.368a9.285,9.285,0,0,1-9.274-9.273v-24.031H945.57v24.031A9.285,9.285,0,0,1,936.3,4824.35Zm-45.373-32.476v23.2a8.454,8.454,0,0,0,8.444,8.444H936.3a8.454,8.454,0,0,0,8.444-8.444v-23.2Z" transform="translate(-890.094 -4791.045)" fill="#cc6436"/>
            </g>
            <g id="Grupo_59766" data-name="Grupo 59766" transform="translate(0.867 0.784)" opacity="0.25" style="mix-blend-mode: darken;isolation: isolate">
              <path id="Trazado_103959" data-name="Trazado 103959" d="M891.311,4792.146c1.9,1.993,12.732,12.209,29.773,6.551a23.436,23.436,0,0,1,7.011-1.159c6.458-.1,12.821-1.622,16.71-5.392Z" transform="translate(-891.311 -4792.146)" fill="#1d67b2"/>
            </g>
          </g>
        </g>
      </g>
    </g>
    <g id="Grupo_59786" data-name="Grupo 59786" transform="translate(836.094 4745.987)">
      <g id="Grupo_59774" data-name="Grupo 59774">
        <g id="Grupo_59771" data-name="Grupo 59771">
          <rect id="Rectángulo_6110" data-name="Rectángulo 6110" width="80.271" height="62.722" transform="translate(0.342 0.343)" fill="#d9a171"/>
          <path id="Trazado_103960" data-name="Trazado 103960" d="M1137.237,4934.745h-80.956v-63.408h80.956Zm-80.271-.686h79.586v-62.037h-79.586Z" transform="translate(-1056.281 -4871.337)" fill="#cc6436"/>
        </g>
        <g id="Grupo_59773" data-name="Grupo 59773" transform="translate(58.904 0.639)">
          <g id="Grupo_59772" data-name="Grupo 59772" style="mix-blend-mode: darken;isolation: isolate">
            <rect id="Rectángulo_6111" data-name="Rectángulo 6111" width="21.357" height="62.053" fill="#a6753a"/>
          </g>
        </g>
      </g>
      <g id="Grupo_59785" data-name="Grupo 59785" transform="translate(6.466 8.195)">
        <g id="Grupo_59775" data-name="Grupo 59775" transform="translate(0 0.661)">
          <rect id="Rectángulo_6112" data-name="Rectángulo 6112" width="37.694" height="19.763" fill="#cc9d5e"/>
        </g>
        <g id="Grupo_59776" data-name="Grupo 59776">
          <rect id="Rectángulo_6113" data-name="Rectángulo 6113" width="37.694" height="18.934" fill="#fff5eb"/>
        </g>
        <g id="Grupo_59784" data-name="Grupo 59784" transform="translate(4.169 2.432)">
          <g id="Grupo_59777" data-name="Grupo 59777">
            <rect id="Rectángulo_6114" data-name="Rectángulo 6114" width="6.253" height="13.896" fill="#513414"/>
          </g>
          <g id="Grupo_59778" data-name="Grupo 59778" transform="translate(9.769)">
            <rect id="Rectángulo_6115" data-name="Rectángulo 6115" width="3.127" height="13.896" fill="#513414"/>
          </g>
          <g id="Grupo_59779" data-name="Grupo 59779" transform="translate(27.574)">
            <rect id="Rectángulo_6116" data-name="Rectángulo 6116" width="3.127" height="13.896" fill="#513414"/>
          </g>
          <g id="Grupo_59780" data-name="Grupo 59780" transform="translate(14.678)">
            <rect id="Rectángulo_6117" data-name="Rectángulo 6117" width="1.216" height="13.896" fill="#513414"/>
          </g>
          <g id="Grupo_59781" data-name="Grupo 59781" transform="translate(17.197)">
            <rect id="Rectángulo_6118" data-name="Rectángulo 6118" width="1.216" height="13.896" fill="#513414"/>
          </g>
          <g id="Grupo_59782" data-name="Grupo 59782" transform="translate(19.715)">
            <rect id="Rectángulo_6119" data-name="Rectángulo 6119" width="1.216" height="13.896" fill="#513414"/>
          </g>
          <g id="Grupo_59783" data-name="Grupo 59783" transform="translate(24.666)">
            <rect id="Rectángulo_6120" data-name="Rectángulo 6120" width="1.216" height="13.896" fill="#513414"/>
          </g>
        </g>
      </g>
    </g>
    <g id="Grupo_59808" data-name="Grupo 59808" transform="translate(475.279 4537.901)">
      <g id="Grupo_59791" data-name="Grupo 59791" transform="translate(16.731)">
        <g id="Grupo_59790" data-name="Grupo 59790">
          <g id="Grupo_59789" data-name="Grupo 59789">
            <g id="Grupo_59787" data-name="Grupo 59787">
              <rect id="Rectángulo_6121" data-name="Rectángulo 6121" width="49.089" height="49.089" transform="translate(0.36 0.36)" fill="#d9a171"/>
              <path id="Trazado_103961" data-name="Trazado 103961" d="M573.381,4629.109V4579.3h49.808v49.809Zm.719-49.089v48.371h48.371V4580.02Z" transform="translate(-573.381 -4579.301)" fill="#cc6436"/>
            </g>
            <g id="Grupo_59788" data-name="Grupo 59788" transform="translate(0 26.776)">
              <rect id="Rectángulo_6122" data-name="Rectángulo 6122" width="27.52" height="13.388" transform="translate(0.36 0.359)" fill="#ffecd2"/>
              <path id="Trazado_103962" data-name="Trazado 103962" d="M573.381,4630.987V4616.88H601.62v14.107Zm.719-13.388v12.668h26.8V4617.6Z" transform="translate(-573.381 -4616.88)" fill="#cc6436"/>
            </g>
          </g>
        </g>
      </g>
      <g id="Grupo_59807" data-name="Grupo 59807" transform="translate(0 49.452)">
        <g id="Grupo_59795" data-name="Grupo 59795">
          <g id="Grupo_59792" data-name="Grupo 59792">
            <rect id="Rectángulo_6123" data-name="Rectángulo 6123" width="80.271" height="62.722" transform="translate(0.343 0.342)" fill="#d9a171"/>
            <path id="Trazado_103963" data-name="Trazado 103963" d="M630.856,4712.111H549.9V4648.7h80.956Zm-80.271-.685h79.585V4649.39H550.585Z" transform="translate(-549.9 -4648.704)" fill="#cc6436"/>
          </g>
          <g id="Grupo_59794" data-name="Grupo 59794" transform="translate(58.905 0.638)">
            <g id="Grupo_59793" data-name="Grupo 59793" style="mix-blend-mode: darken;isolation: isolate">
              <rect id="Rectángulo_6124" data-name="Rectángulo 6124" width="21.357" height="62.053" fill="#a6753a"/>
            </g>
          </g>
        </g>
        <g id="Grupo_59806" data-name="Grupo 59806" transform="translate(6.466 8.195)">
          <g id="Grupo_59796" data-name="Grupo 59796" transform="translate(0 0.661)">
            <rect id="Rectángulo_6125" data-name="Rectángulo 6125" width="37.694" height="19.763" fill="#cc9d5e"/>
          </g>
          <g id="Grupo_59797" data-name="Grupo 59797">
            <rect id="Rectángulo_6126" data-name="Rectángulo 6126" width="37.694" height="18.934" fill="#fff5eb"/>
          </g>
          <g id="Grupo_59805" data-name="Grupo 59805" transform="translate(4.169 2.432)">
            <g id="Grupo_59798" data-name="Grupo 59798">
              <rect id="Rectángulo_6127" data-name="Rectángulo 6127" width="6.253" height="13.896" fill="#513414"/>
            </g>
            <g id="Grupo_59799" data-name="Grupo 59799" transform="translate(9.769)">
              <rect id="Rectángulo_6128" data-name="Rectángulo 6128" width="3.127" height="13.896" fill="#513414"/>
            </g>
            <g id="Grupo_59800" data-name="Grupo 59800" transform="translate(27.574)">
              <rect id="Rectángulo_6129" data-name="Rectángulo 6129" width="3.127" height="13.896" fill="#513414"/>
            </g>
            <g id="Grupo_59801" data-name="Grupo 59801" transform="translate(14.678)">
              <rect id="Rectángulo_6130" data-name="Rectángulo 6130" width="1.216" height="13.896" fill="#513414"/>
            </g>
            <g id="Grupo_59802" data-name="Grupo 59802" transform="translate(17.197)">
              <rect id="Rectángulo_6131" data-name="Rectángulo 6131" width="1.216" height="13.896" fill="#513414"/>
            </g>
            <g id="Grupo_59803" data-name="Grupo 59803" transform="translate(19.715)">
              <rect id="Rectángulo_6132" data-name="Rectángulo 6132" width="1.216" height="13.896" fill="#513414"/>
            </g>
            <g id="Grupo_59804" data-name="Grupo 59804" transform="translate(24.666)">
              <rect id="Rectángulo_6133" data-name="Rectángulo 6133" width="1.216" height="13.896" fill="#513414"/>
            </g>
          </g>
        </g>
      </g>
    </g>
    <g id="freepik--Character--inject-1" transform="translate(290.315 4457.63)">
      <path id="Trazado_103964" data-name="Trazado 103964" d="M461.619,4960.672l-9.5,1.069-3.5-21.547,9.5-1.069Z" transform="translate(-335.821 -4602.466)" fill="#ffc3bd"/>
      <path id="Trazado_103965" data-name="Trazado 103965" d="M521.768,4963.407H512.28l-2.355-21.968h9.488Z" transform="translate(-353.445 -4603.132)" fill="#ffc3bd"/>
      <path id="Trazado_103966" data-name="Trazado 103966" d="M505.052,4970.721h11.559a.832.832,0,0,1,.808.648l1.877,8.43a1.388,1.388,0,0,1-1.06,1.652,1.353,1.353,0,0,1-.328.032c-3.72-.057-6.439-.273-11.126-.273-2.878,0-11.569.3-15.551.3s-4.551-3.936-2.867-4.289c7.3-1.6,12.81-3.812,15.154-5.916A2.275,2.275,0,0,1,505.052,4970.721Z" transform="translate(-346.99 -4611.549)" fill="#344154"/>
      <path id="Trazado_103967" data-name="Trazado 103967" d="M446.145,4968.121l10.238-1.138a.82.82,0,0,1,.876.558l2.81,8.157a1.379,1.379,0,0,1-1.138,1.833c-3.72.364-9.1.75-13.776,1.285-5.461.614-6.371,2.082-12.8,1.922-3.9-.091-4.892-4.05-3.254-4.369,7.463-1.445,8.9-2.571,14.789-7.224A4.345,4.345,0,0,1,446.145,4968.121Z" transform="translate(-329.993 -4610.473)" fill="#344154"/>
      <path id="Trazado_103968" data-name="Trazado 103968" d="M428.732,4576.62c-3.186,2.628-6.326,4.915-9.568,7.258s-6.552,4.551-9.966,6.632-6.905,4.118-10.58,5.95a76.5,76.5,0,0,1-11.672,4.9c-1.057.33-2.093.614-3.288.9a31.729,31.729,0,0,1-3.538.569c-2.139.239-4.141.33-6.143.433-3.993.182-7.963.17-11.832.147-7.827-.091-15.585-.467-23.39-1.138l-.113-7.122c7.656-.978,15.347-1.832,22.957-2.685,3.8-.421,7.6-.876,11.3-1.365,1.855-.25,3.686-.547,5.37-.865a21.7,21.7,0,0,0,2.162-.5c.66-.228,1.478-.49,2.275-.8a77.554,77.554,0,0,0,9.454-4.619c3.151-1.808,6.291-3.754,9.386-5.813s6.177-4.2,9.237-6.371,6.1-4.482,8.964-6.667Z" transform="translate(-304.207 -4495.055)" fill="#ffc3bd"/>
      <path id="Trazado_103969" data-name="Trazado 103969" d="M464.458,4564.234c-1.365,8.965-20.239,22.674-20.239,22.674l-13.549-16.8a224.783,224.783,0,0,1,18.851-17.929C455.607,4547.193,465.936,4554.474,464.458,4564.234Z" transform="translate(-330.662 -4490.77)" fill="#d9a171"/>
      <path id="Trazado_103970" data-name="Trazado 103970" d="M339.9,4606.6l-5.381-3.834-.591,12.115s2.981,0,4.129-2.185Z" transform="translate(-302.853 -4505.777)" fill="#ffc3bd"/>
      <path id="Trazado_103971" data-name="Trazado 103971" d="M327.483,4597.818l-1.1,11.866,5.381,3.776.592-12.115Z" transform="translate(-300.682 -4504.354)" fill="#ffc3bd"/>
      <path id="Trazado_103972" data-name="Trazado 103972" d="M448.632,4940.21l1.8,11.1,9.5-1.07-1.8-11.1Z" transform="translate(-335.825 -4602.471)" opacity="0.2" style="isolation: isolate"/>
      <path id="Trazado_103973" data-name="Trazado 103973" d="M519.413,4941.439h-9.488l1.217,11.331h9.488Z" transform="translate(-353.445 -4603.132)" opacity="0.2" style="isolation: isolate"/>
      <path id="Trazado_103974" data-name="Trazado 103974" d="M500.9,4551.826a5.416,5.416,0,0,1,4.108,6.464c-.011.049-.023.1-.035.146a222.813,222.813,0,0,0-4.642,25.927c-.9,7.349-1.434,14.368-1.764,20.728-.8,14.9-.466,26.269-.91,30.125l-50.614-3.5c-5.142-40.273.876-65.983,4.267-76.415a9.031,9.031,0,0,1,7.394-6.188c1.946-.251,4.267-.5,6.724-.649.854,0,1.729-.079,2.606-.1a188.348,188.348,0,0,1,21.535,1.444c1.354.16,2.719.364,4.05.569C496.269,4550.836,498.806,4551.359,500.9,4551.826Z" transform="translate(-334.795 -4490.135)" fill="#344154"/>
      <path id="Trazado_103975" data-name="Trazado 103975" d="M498.046,4516.232c-1.843,6.826-4.084,19.408.432,24.368-11.729,7.9-19.214,19-21.376,16.587-1.138-1.263-1.615-15.928-.136-18.088,7.849-1.309,8.054-7.042,7.087-12.514Z" transform="translate(-343.704 -4480.901)" fill="#ffc3bd"/>
      <path id="Trazado_103976" data-name="Trazado 103976" d="M497.533,4546.456s-19.124,8.464-21.615,27.372c5.256-6.1,16.894-12.73,16.894-12.73l-5.131-1.468a52.46,52.46,0,0,1,10.08-2.718c-.569-2.617,2.469-7.827,2.469-7.827Z" transform="translate(-343.669 -4489.588)" fill="#d9a171"/>
      <path id="Trazado_103977" data-name="Trazado 103977" d="M478.005,4546.025s2.537,10.807-4.4,27.679c-1.081-6.439-5.62-17.213-5.62-17.213l4.687,1.263s-.239-2.173-4.027-5.074c1.411-2.708,5.825-5.9,5.825-5.9Z" transform="translate(-341.388 -4489.464)" fill="#d9a171"/>
      <path id="Trazado_103978" data-name="Trazado 103978" d="M495.6,4522.156l-8.283,6.12a21.623,21.623,0,0,1,.4,3.868c2.981-.217,7.258-3.174,7.782-6.246A10.342,10.342,0,0,0,495.6,4522.156Z" transform="translate(-346.946 -4482.604)" opacity="0.2" style="isolation: isolate"/>
      <path id="Trazado_103979" data-name="Trazado 103979" d="M470.81,4488.482c-4.63.193-7.178,8.168-2.491,14.789S477.033,4488.221,470.81,4488.482Z" transform="translate(-340.768 -4472.923)" fill="#344154"/>
      <path id="Trazado_103980" data-name="Trazado 103980" d="M494.2,4493.394c.546,9.4,1.342,14.869-2.787,20.216-6.223,8.055-18.259,5.176-21.615-3.868-3-8.145-3.413-22.15,5.29-26.95a12.844,12.844,0,0,1,19.112,10.6Z" transform="translate(-341.352 -4470.814)" fill="#ffc3bd"/>
      <path id="Trazado_103981" data-name="Trazado 103981" d="M493.705,4496.438c-7.122-4.551-9.636-10.546-10.182-13.561-2.764.648-16.485,6.962-20.7,0s1.138-11.058,8.987-6.77c-3.492-6.165-.319-9.18,10.66-9.453s9.5,6.1,9.5,6.1,8.3-3.617,11.252,2.753C506.617,4482.831,500.338,4495.334,493.705,4496.438Z" transform="translate(-339.477 -4466.646)" fill="#344154"/>
      <path id="Trazado_103982" data-name="Trazado 103982" d="M501.687,4471.352c.1,0,4.152.979,8.828-3.72-.83,4-8.088,6.678-8.088,6.678Z" transform="translate(-351.077 -4466.929)" fill="#344154"/>
      <path id="Trazado_103983" data-name="Trazado 103983" d="M506.053,4492.066c-4.368-1.513-9.67,4.971-7.713,12.8S511.958,4494.1,506.053,4492.066Z" transform="translate(-349.994 -4473.89)" fill="#344154"/>
      <path id="Trazado_103984" data-name="Trazado 103984" d="M509.309,4507.3a8.9,8.9,0,0,1-3.64,5.779c-2.571,1.8-4.892-.251-5.04-3.22-.137-2.674,1.047-6.826,4.039-7.44S509.776,4504.43,509.309,4507.3Z" transform="translate(-350.769 -4476.903)" fill="#ffc3bd"/>
      <path id="Trazado_103985" data-name="Trazado 103985" d="M456.53,4772.175c2.275-27.735,19-104.538,19-104.538l-33.276-2.3s-12.832,76.222-13.811,105.164c-1.023,30.09,11.081,96.949,11.081,96.949l15.927-1.82S454.232,4800.036,456.53,4772.175Z" transform="translate(-330.004 -4523.763)" fill="#d9a171"/>
      <path id="Trazado_103986" data-name="Trazado 103986" d="M456.53,4772.175c2.275-27.735,19-104.538,19-104.538l-33.276-2.3s-12.832,76.222-13.811,105.164c-1.023,30.09,11.081,96.949,11.081,96.949l15.927-1.82S454.232,4800.036,456.53,4772.175Z" transform="translate(-330.004 -4523.763)" fill="#fff" opacity="0.5" style="isolation: isolate"/>
      <path id="Trazado_103987" data-name="Trazado 103987" d="M474.614,4705.063c-6.712,8.578-6.825,38.68-4.232,60.954,2.469-16.063,6.359-36.4,9.784-53.469Z" transform="translate(-341.626 -4535.183)" opacity="0.2" style="isolation: isolate"/>
      <path id="Trazado_103988" data-name="Trazado 103988" d="M473.044,4667.063s3.595,81.2,7.6,108.7c4.38,30.113,15.518,95.982,15.518,95.982h17.372s-2.856-61.99-5.154-91.58c-2.6-33.7-2.673-110.784-2.673-110.784Z" transform="translate(-342.843 -4524.259)" fill="#d9a171"/>
      <path id="Trazado_103989" data-name="Trazado 103989" d="M473.044,4667.063s3.595,81.2,7.6,108.7c4.38,30.113,15.518,95.982,15.518,95.982h17.372s-2.856-61.99-5.154-91.58c-2.6-33.7-2.673-110.784-2.673-110.784Z" transform="translate(-342.843 -4524.259)" fill="#fff" opacity="0.5" style="isolation: isolate"/>
      <path id="Trazado_103990" data-name="Trazado 103990" d="M501.592,4952.162h20.455v-6.109l-22.867-.4Z" transform="translate(-350.356 -4604.343)" fill="#d9a171"/>
      <path id="Trazado_103991" data-name="Trazado 103991" d="M441.83,4948.132l19.021-2.161-.694-6.144-21.3,2.082Z" transform="translate(-333.016 -4602.668)" fill="#d9a171"/>
      <path id="Trazado_103992" data-name="Trazado 103992" d="M484.68,4503.858c.091.762-.239,1.434-.739,1.49s-.968-.512-1.07-1.274.239-1.422.74-1.479S484.59,4503.108,484.68,4503.858Z" transform="translate(-345.663 -4476.979)" fill="#344154"/>
      <path id="Trazado_103993" data-name="Trazado 103993" d="M472.664,4505.311c.091.763-.239,1.422-.74,1.491s-.967-.513-1.058-1.274.239-1.422.728-1.479S472.55,4504.549,472.664,4505.311Z" transform="translate(-342.212 -4477.396)" fill="#344154"/>
      <path id="Trazado_103994" data-name="Trazado 103994" d="M476.107,4505.9a27.414,27.414,0,0,1-2.856,6.928,4.427,4.427,0,0,0,3.72.239Z" transform="translate(-342.902 -4477.931)" fill="#ed847e"/>
      <path id="Trazado_103995" data-name="Trazado 103995" d="M487.043,4499.13a.443.443,0,0,1-.455-.113,3.6,3.6,0,0,0-3.038-1.138.455.455,0,0,1-.564-.312.414.414,0,0,1-.016-.1.432.432,0,0,1,.326-.517l.037-.007a4.427,4.427,0,0,1,3.846,1.4.444.444,0,0,1,.01.627l-.01.01A.518.518,0,0,1,487.043,4499.13Z" transform="translate(-345.693 -4475.345)" fill="#344154"/>
      <path id="Trazado_103996" data-name="Trazado 103996" d="M483.948,4518.465h0a6.9,6.9,0,0,0,4.915-4.039.239.239,0,0,0-.137-.307.249.249,0,0,0-.319.147,6.517,6.517,0,0,1-4.551,3.72.244.244,0,0,0,.091.478Z" transform="translate(-345.898 -4480.289)" fill="#344154"/>
      <path id="Trazado_103997" data-name="Trazado 103997" d="M467.461,4500.888a.376.376,0,0,1-.273,0,.455.455,0,0,1-.284-.569,4.482,4.482,0,0,1,2.9-2.9.444.444,0,0,1,.542.316l0,.014a.432.432,0,0,1-.3.531l-.016,0h0a3.571,3.571,0,0,0-2.275,2.275A.411.411,0,0,1,467.461,4500.888Z" transform="translate(-341.072 -4475.488)" fill="#344154"/>
      <path id="Trazado_103998" data-name="Trazado 103998" d="M506.813,4972.1a2.856,2.856,0,0,1-1.821-.489,1.342,1.342,0,0,1-.466-1.138.693.693,0,0,1,.387-.637c1.046-.546,4.106,1.342,4.448,1.558a.206.206,0,0,1,.1.228.218.218,0,0,1-.171.182A11.012,11.012,0,0,1,506.813,4972.1Zm-1.411-1.968a.654.654,0,0,0-.284.057.273.273,0,0,0-.148.262.923.923,0,0,0,.307.819c.524.432,1.764.5,3.413.17A9.178,9.178,0,0,0,505.4,4970.131Z" transform="translate(-351.892 -4611.266)" fill="#d9a171"/>
      <path id="Trazado_103999" data-name="Trazado 103999" d="M510.024,4970.852a.206.206,0,0,1-.114,0c-.978-.534-2.879-2.617-2.673-3.663a.739.739,0,0,1,.717-.591,1.206,1.206,0,0,1,.956.284c1.137.9,1.331,3.64,1.331,3.754a.193.193,0,0,1-.1.2A.188.188,0,0,1,510.024,4970.852Zm-1.878-3.845h-.091c-.3,0-.318.171-.33.228-.125.626,1.138,2.2,2.059,2.935a5.323,5.323,0,0,0-1.137-2.969A.786.786,0,0,0,508.147,4967.007Z" transform="translate(-352.668 -4610.361)" fill="#d9a171"/>
      <path id="Trazado_104000" data-name="Trazado 104000" d="M449.894,4969.928h0c-1.479.478-4.141,1.137-5.278.353a1.23,1.23,0,0,1-.535-1.036.719.719,0,0,1,.3-.638c1.07-.75,5.085.728,5.529.9a.238.238,0,0,1,.147.216A.216.216,0,0,1,449.894,4969.928Zm-5.244-.978h0a.294.294,0,0,0-.114.262.81.81,0,0,0,.353.683c.637.454,2.2.363,4.243-.217-1.65-.512-3.822-1.07-4.482-.729Z" transform="translate(-334.516 -4610.881)" fill="#d9a171"/>
      <path id="Trazado_104001" data-name="Trazado 104001" d="M450.707,4968.931a.245.245,0,0,1-.182,0c-1.194-.375-3.675-2.161-3.618-3.242,0-.262.148-.592.751-.717a1.615,1.615,0,0,1,1.285.239c1.308.853,1.855,3.412,1.878,3.412a.253.253,0,0,1-.068.217Zm-3.2-3.413c-.147.08-.159.171-.159.216,0,.649,1.684,2.071,2.924,2.639a5.25,5.25,0,0,0-1.581-2.764,1.135,1.135,0,0,0-.933-.183.77.77,0,0,0-.251.08Z" transform="translate(-335.329 -4609.884)" fill="#d9a171"/>
      <path id="Trazado_104002" data-name="Trazado 104002" d="M513.552,4572.009c-.239,3.708-.671,7.155-1.138,10.717s-1.058,7.053-1.729,10.58a124.658,124.658,0,0,1-5.836,21.137l-1.138,2.65-.284.66-.068.17-.114.251-.341.705a11.47,11.47,0,0,1-1.57,2.275,13.843,13.843,0,0,1-3.413,2.821,20.372,20.372,0,0,1-3.265,1.582A42.689,42.689,0,0,1,482.983,4628a97.864,97.864,0,0,1-21.706-.808l.262-7.122,5.017-.568c1.684-.193,3.356-.455,5.017-.683,3.322-.489,6.609-1.035,9.75-1.764a37.15,37.15,0,0,0,8.384-2.776,4.64,4.64,0,0,0,1.831-1.4c0-.171-.33.546.091-.592l.751-2.2a143.337,143.337,0,0,0,4.209-19.181c.547-3.3,1-6.633,1.456-9.977s.807-6.747,1.137-9.943Z" transform="translate(-339.46 -4496.643)" fill="#ffc3bd"/>
      <path id="Trazado_104003" data-name="Trazado 104003" d="M526.206,4560.147c4.641,7.782.683,32.264.683,32.264l-24.345-4.551s-1.32-14.016,3.322-24.778C510.9,4551.41,520.586,4550.7,526.206,4560.147Z" transform="translate(-351.273 -4491.653)" fill="#d9a171"/>
      <path id="Trazado_104004" data-name="Trazado 104004" d="M422.405,4642.625l-12.912-60.067a12.15,12.15,0,0,0-11.3-9.294H348.732a12.172,12.172,0,0,1,11.3,9.294l12.9,60.067a12.173,12.173,0,0,0,11.3,9.294H433.7A12.161,12.161,0,0,1,422.405,4642.625Z" transform="translate(-307.108 -4497.294)" fill="#344154"/>
      <path id="Trazado_104005" data-name="Trazado 104005" d="M422.405,4642.625l-12.912-60.067a12.15,12.15,0,0,0-11.3-9.294H348.732a12.172,12.172,0,0,1,11.3,9.294l12.9,60.067a12.173,12.173,0,0,0,11.3,9.294H433.7A12.161,12.161,0,0,1,422.405,4642.625Z" transform="translate(-307.108 -4497.294)" fill="#d9a171" opacity="0.7" style="isolation: isolate"/>
      <rect id="Rectángulo_6134" data-name="Rectángulo 6134" width="14.152" height="1.142" transform="translate(21.058 162.428) rotate(-84.857)" fill="#d9a171"/>
      <rect id="Rectángulo_6135" data-name="Rectángulo 6135" width="5.927" height="1.138" transform="matrix(0.092, -0.996, 0.996, 0.092, 19.228, 175.141)" fill="#d9a171"/>
      <path id="Trazado_104006" data-name="Trazado 104006" d="M339.439,4573.263H388.9a10.386,10.386,0,0,0-10.136,9.294l-12.833,139.565a10.4,10.4,0,0,1-10.148,9.295H324.911a8.348,8.348,0,0,1-8.452-9.295l12.832-139.565A10.4,10.4,0,0,1,339.439,4573.263Z" transform="translate(-297.815 -4497.294)" fill="#d9a171"/>
      <path id="Trazado_104007" data-name="Trazado 104007" d="M339.835,4782.178a8.353,8.353,0,0,0,8.452,9.295H298.811a8.34,8.34,0,0,1-8.441-9.295Z" transform="translate(-290.315 -4557.35)" fill="#344154"/>
      <path id="Trazado_104008" data-name="Trazado 104008" d="M339.835,4782.178a8.353,8.353,0,0,0,8.452,9.295H298.811a8.34,8.34,0,0,1-8.441-9.295Z" transform="translate(-290.315 -4557.35)" fill="#d9a171" opacity="0.7" style="isolation: isolate"/>
      <g id="Grupo_59809" data-name="Grupo 59809" transform="translate(26.096 87.561)" opacity="0.5">
        <path id="Trazado_104009" data-name="Trazado 104009" d="M377.694,4593.582H344.157a1.819,1.819,0,0,1-1.843-1.8,1.746,1.746,0,0,1,.011-.228h0a2.275,2.275,0,0,1,2.207-2.025h33.481a1.821,1.821,0,0,1,1.843,1.8,1.865,1.865,0,0,1-.011.228h0A2.275,2.275,0,0,1,377.694,4593.582Z" transform="translate(-331.358 -4589.532)" fill="#fff"/>
        <path id="Trazado_104010" data-name="Trazado 104010" d="M376.244,4608.941H342.763a1.821,1.821,0,0,1-1.854-1.786,1.8,1.8,0,0,1,.011-.239h0a2.276,2.276,0,0,1,2.207-2.025h33.481a1.82,1.82,0,0,1,1.854,1.786,1.787,1.787,0,0,1-.011.239h0A2.276,2.276,0,0,1,376.244,4608.941Z" transform="translate(-330.954 -4593.947)" fill="#fff"/>
        <path id="Trazado_104011" data-name="Trazado 104011" d="M366.653,4624.317h-25.29a1.821,1.821,0,0,1-1.843-1.8,1.741,1.741,0,0,1,.011-.228h0a2.275,2.275,0,0,1,2.207-2.025h25.267a1.82,1.82,0,0,1,1.854,1.786,1.8,1.8,0,0,1-.011.239h0A2.276,2.276,0,0,1,366.653,4624.317Z" transform="translate(-330.555 -4598.367)" fill="#fff"/>
        <path id="Trazado_104012" data-name="Trazado 104012" d="M348.536,4639.761h-8.567a1.82,1.82,0,0,1-1.853-1.787,1.715,1.715,0,0,1,.01-.227h0a2.274,2.274,0,0,1,2.207-2.024h8.578a1.819,1.819,0,0,1,1.843,1.8,1.859,1.859,0,0,1-.011.228h0A2.275,2.275,0,0,1,348.536,4639.761Z" transform="translate(-330.152 -4602.811)" fill="#fff"/>
        <path id="Trazado_104013" data-name="Trazado 104013" d="M372.04,4655.051h-33.5a1.818,1.818,0,0,1-1.843-1.8,1.749,1.749,0,0,1,.011-.228h0a2.275,2.275,0,0,1,2.207-2.025h33.469a1.82,1.82,0,0,1,1.854,1.785,1.787,1.787,0,0,1-.011.24h0A2.275,2.275,0,0,1,372.04,4655.051Z" transform="translate(-329.743 -4607.202)" fill="#fff"/>
        <path id="Trazado_104014" data-name="Trazado 104014" d="M357.481,4670.427H337.175a1.821,1.821,0,0,1-1.854-1.786,1.778,1.778,0,0,1,.011-.239h0a2.275,2.275,0,0,1,2.207-2.025h20.3a1.832,1.832,0,0,1,1.853,1.81,1.81,1.81,0,0,1-.01.215h0A2.276,2.276,0,0,1,357.481,4670.427Z" transform="translate(-329.348 -4611.622)" fill="#fff"/>
        <path id="Trazado_104015" data-name="Trazado 104015" d="M369.255,4685.786H335.775a1.82,1.82,0,0,1-1.843-1.8,1.741,1.741,0,0,1,.011-.228h0a2.275,2.275,0,0,1,2.207-2.025H369.6a1.832,1.832,0,0,1,1.853,1.81,1.965,1.965,0,0,1-.01.215h0A2.276,2.276,0,0,1,369.255,4685.786Z" transform="translate(-328.949 -4616.038)" fill="#fff"/>
        <path id="Trazado_104016" data-name="Trazado 104016" d="M359.648,4701.161H334.381a1.819,1.819,0,0,1-1.854-1.786,1.786,1.786,0,0,1,.011-.239h0a2.275,2.275,0,0,1,2.207-2.025h25.267a1.82,1.82,0,0,1,1.843,2.025h0A2.275,2.275,0,0,1,359.648,4701.161Z" transform="translate(-328.545 -4620.457)" fill="#fff"/>
        <path id="Trazado_104017" data-name="Trazado 104017" d="M341.554,4716.536h-8.578a1.831,1.831,0,0,1-1.853-1.81,1.8,1.8,0,0,1,.011-.214h0a2.275,2.275,0,0,1,2.218-2.025h8.566a1.821,1.821,0,0,1,1.855,1.785,1.938,1.938,0,0,1-.011.24h0A2.275,2.275,0,0,1,341.554,4716.536Z" transform="translate(-328.141 -4624.877)" fill="#fff"/>
        <path id="Trazado_104018" data-name="Trazado 104018" d="M365.056,4731.9H331.587a1.82,1.82,0,0,1-1.854-1.785,1.794,1.794,0,0,1,.011-.24h0a2.275,2.275,0,0,1,2.207-2.025h33.481a1.82,1.82,0,0,1,1.843,1.8,1.724,1.724,0,0,1-.012.228h0A2.275,2.275,0,0,1,365.056,4731.9Z" transform="translate(-327.742 -4629.292)" fill="#fff"/>
        <path id="Trazado_104019" data-name="Trazado 104019" d="M350.477,4747.271h-20.3a1.819,1.819,0,0,1-1.854-1.786,1.789,1.789,0,0,1,.011-.239h0a2.275,2.275,0,0,1,2.207-2.025h20.3a1.821,1.821,0,0,1,1.855,1.786,1.922,1.922,0,0,1-.011.239h0A2.276,2.276,0,0,1,350.477,4747.271Z" transform="translate(-327.338 -4633.712)" fill="#fff"/>
        <path id="Trazado_104020" data-name="Trazado 104020" d="M362.262,4762.7H328.793a1.82,1.82,0,0,1-1.854-1.786,1.92,1.92,0,0,1,.011-.239h0a2.276,2.276,0,0,1,2.207-2.014h33.481a1.821,1.821,0,0,1,1.842,1.8,1.8,1.8,0,0,1-.011.215h0A2.275,2.275,0,0,1,362.262,4762.7Z" transform="translate(-326.939 -4638.15)" fill="#fff"/>
      </g>
      <path id="Trazado_104021" data-name="Trazado 104021" d="M461.469,4638.236l-7.269-6.314-3.413,11.626s7.383,4,9.931.33Z" transform="translate(-336.445 -4514.157)" fill="#ffc3bd"/>
      <path id="Trazado_104022" data-name="Trazado 104022" d="M443.526,4631.283l-2.366,9.75,6.871,2.332,3.4-11.627Z" transform="translate(-333.677 -4513.973)" fill="#ffc3bd"/>
    </g>
  </g>
</svg>
