<svg id="Capa_2" data-name="Capa 2" xmlns="http://www.w3.org/2000/svg" xmlns:xlink="http://www.w3.org/1999/xlink" width="500" height="500" viewBox="0 0 500 500">
  <defs>
    <clipPath id="clip-path">
      <path id="Trazado_105948" data-name="Trazado 105948" d="M225.26,264.5,205.37,276l-12.22,7.05a11.894,11.894,0,0,0-1.15.67,16.21,16.21,0,0,0-7.77,13.94V354.8A16.452,16.452,0,0,1,159.64,369,49.28,49.28,0,0,1,135,326.37V267.08a49.23,49.23,0,0,0-24.62-42.66l90.3-52.09h0A49.33,49.33,0,0,1,225.3,215v25.8C225.27,248.19,225.26,264.5,225.26,264.5Z" fill="none"/>
    </clipPath>
  </defs>
  <g id="Capa_1" data-name="Capa 1">
    <rect id="Rectángulo_6347" data-name="Rectángulo 6347" width="500" height="500" fill="#344154" opacity="0"/>
    <g id="freepik--Floor--inject-46">
      <ellipse id="freepik--floor--inject-46-2" data-name="freepik--floor--inject-46" cx="230.04" cy="132.81" rx="230.04" ry="132.81" transform="translate(23.4 207.07)" fill="#f0f0f0"/>
    </g>
    <g id="freepik--Shadows--inject-46">
      <ellipse id="freepik--Shadow--inject-46" cx="41.82" cy="24.15" rx="41.82" ry="24.15" transform="translate(349.06 313.46)" fill="#e0e0e0"/>
      <path id="freepik--shadow--inject-46-2" data-name="freepik--shadow--inject-46" d="M123.91,354.73,310.99,462.74l85.75-49.5L209.61,305.2Z" fill="#e0e0e0"/>
      <path id="freepik--shadow--inject-46-3" data-name="freepik--shadow--inject-46" d="M90.66,376,52,353.67a1.26,1.26,0,0,1-.79-1.6,1.28,1.28,0,0,1,.79-.8l136.15-78.6a4.54,4.54,0,0,1,4.15,0L231,295a1.27,1.27,0,0,1,0,2.4L94.81,376a4.6,4.6,0,0,1-4.15,0Z" fill="#e0e0e0"/>
    </g>
    <g id="freepik--Device--inject-46">
      <g id="freepik--device--inject-46-2" data-name="freepik--device--inject-46">
        <g id="freepik--device--inject-46-3" data-name="freepik--device--inject-46">
          <path id="Trazado_105855" data-name="Trazado 105855" d="M213.06,35.08,98.13,101.42A9.27,9.27,0,0,0,94,108.66V367.83c0,2.65,1.92,3.74,4.17,2.4L213.06,303.9a9.29,9.29,0,0,0,4.17-7.25V37.5C217.23,34.83,215.35,33.75,213.06,35.08Zm-1.84,237.69c0,2.28-1.6,3.73-3.59,4.88L103.14,338c-1.92,1.14-3.58.22-3.58-2.08v-203a8,8,0,0,1,3.58-6.22L207.63,66.36c2-1.14,3.58-.21,3.58,2.06Z" fill="#37474f"/>
          <path id="Trazado_105856" data-name="Trazado 105856" d="M97.61,370.49a9.31,9.31,0,0,1-7.84-.26L85,367.47a9.2,9.2,0,0,1-4.2-7.23V101.09A8,8,0,0,1,81.5,98c.15-.33.32-.65.5-1h0l13.16,7.59h0a10.729,10.729,0,0,0-.73,1.53,7.59,7.59,0,0,0-.51,2.58V367.83C94,370.26,95.56,371.39,97.61,370.49Z" fill="#344154"/>
          <path id="Trazado_105857" data-name="Trazado 105857" d="M156.58,314.29c3.65-2.1,6.6-.4,6.6,3.84a14.56,14.56,0,0,1-6.6,11.42c-3.63,2.11-6.59.41-6.59-3.84a14.58,14.58,0,0,1,6.59-11.42Z" fill="#d9a171"/>
          <path id="Trazado_105858" data-name="Trazado 105858" d="M155.57,73.84c1.55-.89,2.81-.17,2.81,1.62a6.19,6.19,0,0,1-2.81,4.85c-1.54.89-2.8.17-2.8-1.61a6.23,6.23,0,0,1,2.8-4.86Z"/>
          <path id="Trazado_105859" data-name="Trazado 105859" d="M144.78,90.88l21.63-12.47c1.29-.74,2.34-.21,2.34,1.19a5,5,0,0,1-2.34,3.84L144.78,95.91c-1.3.74-2.34.21-2.34-1.19a5,5,0,0,1,2.34-3.84Z"/>
          <path id="Trazado_105860" data-name="Trazado 105860" d="M211.22,272.56c0,2.28-1.6,3.73-3.59,4.87L103.14,337.76c-1.92,1.14-3.58.22-3.58-2.08v-203a8,8,0,0,1,3.58-6.22L207.63,66.11c2-1.15,3.58-.22,3.58,2.06Z" fill="#d9a171"/>
          <path id="Trazado_105861" data-name="Trazado 105861" d="M101.55,338.72a2.3,2.3,0,0,1-1.18-.3,3,3,0,0,1-1.29-2.7v-203a8.4,8.4,0,0,1,3.84-6.63L207.39,65.74a2.64,2.64,0,0,1,4.3,2.47V272.58c0,2.77-2.18,4.35-3.83,5.29l-104.48,60.3a3.59,3.59,0,0,1-1.83.55ZM209.23,66.11a2.85,2.85,0,0,0-1.36.42L103.38,126.88a7.43,7.43,0,0,0-3.34,5.76V335.72a1.72,1.72,0,0,0,1.2,2.11,1.74,1.74,0,0,0,1.68-.45L207.39,277c2.31-1.32,3.34-2.69,3.34-4.45V68.19a2.05,2.05,0,0,0-.81-1.92A1.38,1.38,0,0,0,209.23,66.11Z" fill="#fff"/>
          <path id="Trazado_105862" data-name="Trazado 105862" d="M217.18,36.83c-.3-2.17-2-3-4.12-1.75L98.13,101.42a8.41,8.41,0,0,0-2.94,3.13L82,97a8.44,8.44,0,0,1,3-3.11L199.89,27.5a9.28,9.28,0,0,1,8.37,0l4.8,2.76a9.32,9.32,0,0,1,4.12,6.57Z" fill="#455a64"/>
        </g>
      </g>
    </g>
    <g id="freepik--Character--inject-46">
      <g id="freepik--character--inject-46-2" data-name="freepik--character--inject-46">
        <path id="Trazado_105867" data-name="Trazado 105867" d="M385.26,133.71c-6.09.28-8.17,1.44-11.37,5.21s-18.14,31.51-18.14,31.51,2.82,7.91,9,7.24l11.51-18.61Z" fill="#ffa8a7"/>
        <path id="Trazado_105868" data-name="Trazado 105868" d="M386.08,133.71s-4.39-.56-7.51.57-4.68,3.39-6.83,6.67c-1.66,2.54-7.49,13.09-7.49,13.09s2.88,7.89,10.91,7.89Z" fill="#e0e0e0"/>
        <g id="freepik--character--inject-46-3" data-name="freepik--character--inject-46">
          <path id="Trazado_105869" data-name="Trazado 105869" d="M407,331.8v-1.33c-.53,1.56-2.94,8.23-6.61,11.57-2.87,2.65-6.88,5.75-7.89,8.68s5.52,4.11,8.25,3.63c3.16-.55,7.25-2.35,9.48-5.08,1.56-1.92,2.56-4.2,3.67-5.76s3.7-3.2,4.3-4.95c.34-1-.06-3.07-.53-4.85-.42-1.63-.89-3.43-1.44-3.27v1a7.44,7.44,0,0,1-4.62,1.57C410.22,333.09,407,332.84,407,331.8Z" fill="#344154"/>
          <path id="Trazado_105870" data-name="Trazado 105870" d="M397.72,344.36c.9-.82,1.81-1.61,2.63-2.35,2.57-2.34,4.51-6.3,5.64-9a12.84,12.84,0,0,0,1-4.86v-5.27h9.23v8.57h0v.23h-.05c-.44,1.92-4.68,7-7.09,10.35-1.61,2.23-4.68,5.07-8.34,5.56C397.24,348.1,395.44,347,397.72,344.36Z" fill="#ffa8a7"/>
          <path id="Trazado_105871" data-name="Trazado 105871" d="M374.33,322.69v-1.36c-.51,1.55-2.93,8.22-6.6,11.51-2.88,2.66-6.88,5.76-7.89,8.7s5.53,4.11,8.25,3.62c3.16-.55,7.25-2.35,9.48-5.08,1.56-1.92,2.56-4.2,3.68-5.76s3.69-3.2,4.3-4.95c.34-1-.07-3.07-.53-4.85s-.89-3.43-1.45-3.28v1a7.27,7.27,0,0,1-4.61,1.57C377.62,324,374.33,323.72,374.33,322.69Z" fill="#344154"/>
          <path id="Trazado_105872" data-name="Trazado 105872" d="M365.12,335.27c.9-.81,1.81-1.59,2.63-2.35,2.56-2.33,4.52-6.29,5.63-9a12.45,12.45,0,0,0,1-4.85V313.8h9.24v8.57h0v.23h0c-.44,1.92-4.68,7-7.09,10.35-1.61,2.22-4.68,5.06-8.35,5.55C364.63,339,362.82,337.9,365.12,335.27Z" fill="#ffa8a7"/>
          <path id="Trazado_105873" data-name="Trazado 105873" d="M414.35,188.28c7.16,15.64-.26,70.71-.26,70.71.21,2.55,3.12,7.53,4.2,18.7,1.27,13.21-2,46.34-2,46.34a10,10,0,0,1-9.32.37s-8.81-49.89-10.46-63c-1.45-11.44-4.22-36.62-4.22-36.62l-4.46,36.56a67.269,67.269,0,0,1,2.5,11.3c.75,7.67-6.72,43.65-6.72,43.65s-3.18,1.17-9.24.28c0,0-2.64-47.68-3.34-57-1.17-15.61-.45-64.29,2.42-73.57Z" fill="#455a64"/>
          <path id="Trazado_105874" data-name="Trazado 105874" d="M392.28,224.75,390,210.22s-9.83-2-14.29-6.22c0,0,4.68,5.81,11.63,7.67l2.62,11.18-1.79,36Z" fill="#37474f"/>
          <path id="Trazado_105875" data-name="Trazado 105875" d="M401.72,134h0c2.72.19,3.63.13,5.61.33,3.94.4,4.89,6.18,6.51,9.6a15.73,15.73,0,0,1,.44,11.83l-6.37,18.48s3,7.25,6.48,14.09c-16.05,8.95-36.09,4.25-40.92-2.29-.21-1.38,1-12.23,1.79-19.31-2.82-7.09-3.57-11.59-2.38-16.31,2.22-8.7,10.16-16.71,12.42-16.7Z" fill="#f0f0f0"/>
          <path id="Trazado_105876" data-name="Trazado 105876" d="M415.44,98.83l-3.32-.29a2.6,2.6,0,0,0,1-1A2.89,2.89,0,0,0,412,93.8l-2.14,3.9a19.35,19.35,0,0,0-17.76-9.6l-1.72.09a19.37,19.37,0,0,0-18.31,20.37h0c.58,11,1.24,23.38,1.24,23.38l19.93-1.07a20.51,20.51,0,0,0,19.47-21.49v-.1l-.15-2.88a19,19,0,0,0-1.06-5.32,2.72,2.72,0,0,0,1,.28,2.82,2.82,0,0,0,2.94-2.53Z" fill="#455a64"/>
          <path id="Trazado_105877" data-name="Trazado 105877" d="M375.69,109.82a39.6,39.6,0,0,0,.16,6.35c.76,9.94,4.12,12.22,5.76,12.84s4.79,0,7.76-.64v5.86s-3.62,5.19-3.21,7.91,6.24,3.06,10,.18a17.54,17.54,0,0,0,5.32-7.78V120.8s2.19,2.63,5.43.22,3.06-7.91,1-9.79-6.3-1.08-6.93,1.69c0,0-7-.58-7.89-12.11C386.62,109.29,376.1,103.19,375.69,109.82Z" fill="#ffa8a7"/>
          <path id="Trazado_105878" data-name="Trazado 105878" d="M401,112.17l.27,4.92h0a3.35,3.35,0,0,1-3.53-3.18l-.29-5.49Z" fill="#455a64"/>
          <path id="Trazado_105879" data-name="Trazado 105879" d="M388.13,112.77a1.26,1.26,0,1,0,1.25-1.31A1.3,1.3,0,0,0,388.13,112.77Z" fill="#344154"/>
          <path id="Trazado_105880" data-name="Trazado 105880" d="M388,121.59l-3.34,1.26a1.75,1.75,0,0,0,2.21,1.13h.07A1.91,1.91,0,0,0,388,121.59Z" fill="#f28f8f"/>
          <path id="Trazado_105881" data-name="Trazado 105881" d="M389.5,107.16l2.93,1a1.49,1.49,0,0,0-.9-1.9h-.06a1.62,1.62,0,0,0-1.97.9Z" fill="#455a64"/>
          <path id="Trazado_105882" data-name="Trazado 105882" d="M377.38,113.32a1.26,1.26,0,0,0,1.24,1.29h0a1.29,1.29,0,0,0,1.26-1.31,1.26,1.26,0,1,0-2.51-.22v.24Z" fill="#344154"/>
          <path id="Trazado_105883" data-name="Trazado 105883" d="M384.69,112.25l.2,7.54-4.03-1.01Z" fill="#f28f8f"/>
          <path id="Trazado_105884" data-name="Trazado 105884" d="M389.38,128.37c3.17-.59,9.66-2.88,10.55-5.49a6.72,6.72,0,0,1-2.13,3.45c-1.87,1.78-8.41,4-8.41,4Z" fill="#f28f8f"/>
          <path id="Trazado_105885" data-name="Trazado 105885" d="M397.62,190c5.27-1.25,6.27-3.24,4.87-8.48a2.91,2.91,0,0,0-.16-.5c-1-2.48-5.15-1-5.15-1s1.69-2.1,3.58-4.8,2.74-7.1,3-10.21.76-9.33.76-9.33,4.11-2.46,2.5-6.95l6.34-3.84,1.18.83a16.13,16.13,0,0,1-.25,10l-6.37,18.46a104.307,104.307,0,0,1,6.48,14.09,41.57,41.57,0,0,1-34.3,2.27A46.78,46.78,0,0,0,397.62,190Z" fill="#e6e6e6"/>
          <path id="Trazado_105886" data-name="Trazado 105886" d="M402.1,111.21l-7.25.38a4,4,0,0,0-4.13-3h-.62a4,4,0,0,0-3.6,2.7,3.4,3.4,0,0,0-2.41-.9,3,3,0,0,0-2.08.81,4,4,0,0,0-3.64-1.92h-.62a4.051,4.051,0,1,0,.43,8.09h.62a4,4,0,0,0,3.84-4.25h0a4.061,4.061,0,0,0-.3-1.27,2.21,2.21,0,0,1,1.73-.69,2.65,2.65,0,0,1,2.19,1h0a3.749,3.749,0,0,0,0,.82,4,4,0,0,0,4.25,3.84h.62a4,4,0,0,0,3.84-4.23v-.17l6.49-.35a3.18,3.18,0,0,1,.64-.86Zm-23.31,5.44h-.62a3.37,3.37,0,1,1-.72-6.7h.99a3.365,3.365,0,1,1,.35,6.72Zm12.33-.65h-.63a3.36,3.36,0,1,1-.35-6.71h.62a3.36,3.36,0,1,1,.36,6.71Z" fill="#344154"/>
        </g>
        <path id="Trazado_105887" data-name="Trazado 105887" d="M342.46,164.55l32.41,8.54,8.92,36.67-30.81-8.95Z" fill="#d9a171"/>
        <path id="Trazado_105888" data-name="Trazado 105888" d="M342.46,164.55l32.41,8.54,8.92,36.67-30.81-8.95Z" opacity="0.25"/>
        <path id="Trazado_105889" data-name="Trazado 105889" d="M364.3,194.84c.21,2,1.6,4.28,5.65,6.22s11.93.85,11.93.85l-1.09-4.52Z" opacity="0.2"/>
        <g id="Grupo_60076" data-name="Grupo 60076" opacity="0.2">
          <path id="Trazado_105890" data-name="Trazado 105890" d="M357.06,190.53c-.29.81-1.74,3.59-6,3.93l-.32-1.12Z"/>
        </g>
        <g id="Grupo_60077" data-name="Grupo 60077" opacity="0.1">
          <path id="Trazado_105891" data-name="Trazado 105891" d="M352.27,170.38l-.26-1.24c-.16-.68,1.75-.71,4.24-.07l4.79,1.24c2.5.65,4.64,1.73,4.8,2.41l.27,1.24Z"/>
        </g>
        <path id="Trazado_105892" data-name="Trazado 105892" d="M349.73,165.72c-.09-.42.68-.53,1.72-.25l1.92.53s-.57-2.68,3.63-1.74,5.11,4,5.11,4l2,.57a4,4,0,0,1,2.26,1.35l.24.76-16.7-4.39S349.83,166.15,349.73,165.72Z" fill="#37474f"/>
        <path id="Trazado_105893" data-name="Trazado 105893" d="M352,167.05c1.52.36,2.15.57,2.38,1.62.26,1.21.38,2.08.38,2.08l7.39,1.92s-.36-1.53-.47-2.11.13-1,1.31-.64l.1-.47-11.58-3Z" fill="#37474f"/>
        <path id="Trazado_105894" data-name="Trazado 105894" d="M351.78,170.49l-.27-1.24c-.16-.68,1.75-.71,4.25-.06l4.8,1.23c2.49.66,4.63,1.73,4.79,2.41l.26,1.24Z" fill="#37474f"/>
        <path id="Trazado_105895" data-name="Trazado 105895" d="M345.88,176.32s1.2,4.15,1.48,5.14,3.91,2.76,6.3,3.41,5,1.44,3.83,4.8c-1,3.07-5,3.77-6.95,3.69s-4.73-2-5.81-5.07c-1.37-3.92-.63-8.12-1.18-10.41S344.68,175,345.88,176.32Z" fill="#ffa8a7"/>
        <path id="Trazado_105896" data-name="Trazado 105896" d="M406.59,134.23c4.2.26,8.55,2.55,9.21,7.59s4.75,31.66,3.15,34.62c-3.71,6.92-28.18,20.07-30.62,21.19a27.3,27.3,0,0,1-11.28,3c-3.84,0-8.9-.09-11.47-3.53-2.27-3.06-3.56-8.72,1.59-7.75a56,56,0,0,0,11.79.52l-.6-2.46a12,12,0,0,1,3.93.64c2.57.77,4.9-1.44,9.44-4.24,5.84-3.62,14.74-11.26,14.74-11.26l-3.63-22.18S402.72,140.8,406.59,134.23Z" fill="#ffa8a7"/>
        <path id="Trazado_105897" data-name="Trazado 105897" d="M405.83,134.23a8.92,8.92,0,0,1,4.72.43c2.47,1,4.67,2.18,5.69,7.16s3.05,23.12,3.05,23.12-5.38,3.89-14.14,2L402,150.54S399.55,139,405.83,134.23Z" fill="#e0e0e0"/>
      </g>
    </g>
    <g id="freepik--Analysis--inject-46">
      <g id="freepik--analysis--inject-46-2" data-name="freepik--analysis--inject-46">
        <path id="Trazado_105898" data-name="Trazado 105898" d="M106.28,222.08l102.56-59.22v14.21L106.28,236.29Z" fill="#455a64"/>
        <path id="Trazado_105899" data-name="Trazado 105899" d="M110.37,224.45v4.73l94.38-54.48v-4.74Z" fill="#344154"/>
        <path id="Trazado_105900" data-name="Trazado 105900" d="M106.28,222.08l-4.11-2.37,102.58-59.22,4.09,2.37Z" fill="#37474f"/>
        <path id="Trazado_105901" data-name="Trazado 105901" d="M102.17,219.71l4.11,2.37v14.21l-4.11-2.37Z" fill="#344154"/>
        <path id="Trazado_105902" data-name="Trazado 105902" d="M401.69,406.88l-90.28,52.08v-2.32l90.27-52.08Z" fill="#37474f"/>
        <path id="Trazado_105903" data-name="Trazado 105903" d="M225.26,264.5,205.37,276l-12.22,7.05a11.894,11.894,0,0,0-1.15.67,16.21,16.21,0,0,0-7.77,13.94V354.8A16.452,16.452,0,0,1,159.64,369,49.28,49.28,0,0,1,135,326.37V267.08a49.23,49.23,0,0,0-24.62-42.66l90.3-52.09h0A49.33,49.33,0,0,1,225.3,215v25.8C225.27,248.19,225.26,264.5,225.26,264.5Z" fill="#f5f5f5"/>
        <path id="Trazado_105904" data-name="Trazado 105904" d="M258.08,425.84a49.21,49.21,0,0,1-24.62-42.61V326.05a49,49,0,0,0-24.59-42.63h0a16.4,16.4,0,0,0-24.6,14.23v57.1A16.43,16.43,0,0,1,159.65,369,49.24,49.24,0,0,1,135,326.35V267.08a49.25,49.25,0,0,0-24.67-42.66v2.36a47.32,47.32,0,0,1,22.6,40.3v59.27a51.39,51.39,0,0,0,25.63,44.38,18.2,18.2,0,0,0,18.43,0,9,9,0,0,0,1-.64h0a18.23,18.23,0,0,0,8.21-15.31V297.64a14.39,14.39,0,0,1,21.59-12.47A47.27,47.27,0,0,1,231.47,326v57.18a51.36,51.36,0,0,0,25.63,44.37L311.43,459v-2.34Z" fill="#455a64"/>
        <path id="Trazado_105905" data-name="Trazado 105905" d="M401.68,404.56l-90.27,52.05-53.33-30.79a49.24,49.24,0,0,1-24.62-42.62V326.05a49,49,0,0,0-3.83-19.12,53.153,53.153,0,0,0-2.74-5.5,49.18,49.18,0,0,0-18-18,16.24,16.24,0,0,0-15.69-.39l12.22-7L230,261.79l52.64-30.39.12-.08a16.24,16.24,0,0,1,16.39,0A49.21,49.21,0,0,1,323.75,274v57.17a49.256,49.256,0,0,0,24.6,42.636Z" fill="#fafafa"/>
        <path id="Trazado_105906" data-name="Trazado 105906" d="M231.44,326.05a47.27,47.27,0,0,0-23.6-40.87,14.39,14.39,0,0,0-21.59,12.47v57.14a18.25,18.25,0,0,1-8.14,15.28h0c-.34.23-.69.44-1,.64l54.41-31.42Z" fill="#e0e0e0"/>
        <path id="Trazado_105907" data-name="Trazado 105907" d="M231.44,326.05a47.27,47.27,0,0,0-23.6-40.87,14.39,14.39,0,0,0-21.59,12.47v57.14a18.25,18.25,0,0,1-8.14,15.28h0c-.34.23-.69.44-1,.64l54.41-31.42Z" opacity="0.15"/>
        <g id="Grupo_60080" data-name="Grupo 60080" clip-path="url(#clip-path)">
          <path id="Trazado_105908" data-name="Trazado 105908" d="M126.41,224.73a7,7,0,0,0,7.67.58l64.41-37.18c2.42-1.4,3-4,1.09-5.65s-5.5-1.65-7.92-.25l-64.45,37.2C124.79,220.83,124.51,223.11,126.41,224.73Z" fill="#d9a171"/>
          <path id="Trazado_105909" data-name="Trazado 105909" d="M178.34,210.66a.72.72,0,0,1-.71-.73.75.75,0,0,1,.35-.6L208.1,192a.7.7,0,0,1,1,.25.72.72,0,0,1-.25,1l-30.1,17.41a.74.74,0,0,1-.41,0Z" opacity="0.4"/>
          <path id="Trazado_105910" data-name="Trazado 105910" d="M180.66,214.54a.7.7,0,0,1-.36-1.31l30.12-17.39a.72.72,0,0,1,1,.36.73.73,0,0,1-.23.88L181,214.44a.65.65,0,0,1-.34.1Z" opacity="0.4"/>
          <path id="Trazado_105911" data-name="Trazado 105911" d="M182.61,218.58a.72.72,0,0,1-.35-1.33l30.11-17.39a.7.7,0,1,1,.7,1.22L183,218.46a.73.73,0,0,1-.39.12Z" opacity="0.4"/>
          <path id="Trazado_105912" data-name="Trazado 105912" d="M184.19,222.78a.7.7,0,0,1-.37-1.31l30.12-17.39a.71.71,0,0,1,1,.26.72.72,0,0,1-.26,1l-30.12,17.39A.66.66,0,0,1,184.19,222.78Z" opacity="0.4"/>
          <path id="Trazado_105913" data-name="Trazado 105913" d="M185.32,226.9a.71.71,0,0,1-.36-1.32l30.1-17.4a.71.71,0,0,1,1,.25h0a.71.71,0,0,1-.26,1l-30.11,17.38a.66.66,0,0,1-.37.09Z" opacity="0.4"/>
          <path id="Trazado_105914" data-name="Trazado 105914" d="M186.1,231.32a.71.71,0,0,1-.35-1.33l30.11-17.39a.72.72,0,0,1,.95.36.73.73,0,0,1-.23.88l-30.12,17.39a.74.74,0,0,1-.36.09Z" opacity="0.4"/>
          <path id="Trazado_105915" data-name="Trazado 105915" d="M186.53,236a.71.71,0,0,1-.36-1.33l30.11-17.39a.72.72,0,0,1,.72,1.24L186.88,235.9a.71.71,0,0,1-.35.1Z" opacity="0.4"/>
          <path id="Trazado_105916" data-name="Trazado 105916" d="M143.59,269.71a.51.51,0,0,1-.25-.95l73.06-42.22a.53.53,0,0,1,.7.19.5.5,0,0,1-.18.68h0l-73.07,42.21a.44.44,0,0,1-.26.09Z" opacity="0.4"/>
          <path id="Trazado_105917" data-name="Trazado 105917" d="M143.59,274.22a.515.515,0,0,1-.25-1L216.4,231a.52.52,0,0,1,.7.2.5.5,0,0,1-.17.67h0l-73.07,42.21A.57.57,0,0,1,143.59,274.22Z" opacity="0.4"/>
          <path id="Trazado_105918" data-name="Trazado 105918" d="M143.59,278.73a.515.515,0,0,1-.25-1l73.06-42.22a.513.513,0,0,1,.51.89h0l-73.07,42.21A.55.55,0,0,1,143.59,278.73Z" opacity="0.4"/>
          <path id="Trazado_105919" data-name="Trazado 105919" d="M143.59,283.24a.51.51,0,0,1-.44-.26.49.49,0,0,1,.17-.67h0l73.06-42.22a.51.51,0,0,1,.67.26.5.5,0,0,1-.16.61l-73.07,42.22a.45.45,0,0,1-.23.06Z" opacity="0.4"/>
          <path id="Trazado_105920" data-name="Trazado 105920" d="M143.59,263.15a.49.49,0,0,1-.56-.43.47.47,0,0,1,.31-.53L182,239.85a.51.51,0,0,1,.71.1.52.52,0,0,1-.1.72l-.1.05-38.69,22.34a.54.54,0,0,1-.23.09Z" opacity="0.4"/>
          <path id="Trazado_105921" data-name="Trazado 105921" d="M142.5,237.25a48,48,0,0,1,5.25,19.19.72.72,0,0,0,1.19.62l2.15-1.23a2.2,2.2,0,0,0,1-1.92,52.211,52.211,0,0,0-1.75-10.3,56.911,56.911,0,0,0-3.47-8.84,1.21,1.21,0,0,0-1.65-.5h0L143,235.51a1.36,1.36,0,0,0-.5,1.74Z" fill="#d9a171"/>
          <path id="Trazado_105922" data-name="Trazado 105922" d="M148.86,228.32a51.17,51.17,0,0,1,5.18,11,48.25,48.25,0,0,1,2.31,12.08.73.73,0,0,0,1.17.64l2.15-1.25a2.23,2.23,0,0,0,1-1.92,51.6,51.6,0,0,0-2.33-12,49.27,49.27,0,0,0-5.15-11,1.36,1.36,0,0,0-1.79-.44l-2.14,1.19a1.15,1.15,0,0,0-.47,1.56Z" fill="#d9a171"/>
          <path id="Trazado_105923" data-name="Trazado 105923" d="M165.86,232.54l-2.11,1.22a1.64,1.64,0,0,0-.71,1.83A49,49,0,0,1,165,246.47a.71.71,0,0,0,.65.78.74.74,0,0,0,.52-.15l2.15-1.24a2.22,2.22,0,0,0,1-1.92,51.18,51.18,0,0,0-2-10.85.954.954,0,0,0-1.46-.55Z" fill="#d9a171"/>
          <path id="Trazado_105924" data-name="Trazado 105924" d="M174.46,224a1.07,1.07,0,0,0-1.39-.61l-.23.11-2.13,1.21a1.51,1.51,0,0,0-.61,1.8c.38,1,.75,1.92,1.11,3a47.73,47.73,0,0,1,2.31,12.07.73.73,0,0,0,.66.79.75.75,0,0,0,.52-.16l2.15-1.23a2.25,2.25,0,0,0,1-1.92A51.42,51.42,0,0,0,175.51,227a30.643,30.643,0,0,0-1.05-3Z" fill="#d9a171"/>
          <path id="Trazado_105925" data-name="Trazado 105925" d="M145.08,254.48a.36.36,0,0,0-.49-.13l-.9.52c-.21-1.24-.44-2.47-.71-3.68l1.21-.7a.361.361,0,0,0-.36-.62l-1,.6c-.3-1.22-.64-2.42-1-3.6l1.16-.67a.36.36,0,1,0-.36-.62l-1,.6c-.41-1.15-.83-2.29-1.32-3.4a.14.14,0,0,0,0-.09l1.15-.66a.34.34,0,0,0,.14-.48h0a.36.36,0,0,0-.49-.13l-1.08.62c-.5-1.12-1.06-2.24-1.66-3.35l1.14-.66a.36.36,0,0,0,.14-.48h0a.36.36,0,0,0-.49-.13l-1.13.66c-.61-1.08-1.27-2.14-2-3.2l1.3-.74a.35.35,0,0,0,.14-.47h0a.35.35,0,0,0-.48-.13h0l-1.32.78c-.77-1.11-1.56-2.2-2.43-3.28a.35.35,0,0,0-.51,0,.36.36,0,0,0,0,.45c.84,1,1.63,2.11,2.37,3.18l-1.23.71a.36.36,0,0,0-.13.49.34.34,0,0,0,.3.17.28.28,0,0,0,.18,0l1.28-.73c.7,1.06,1.36,2.12,2,3.19l-1.43.83a.354.354,0,0,0,.18.66.25.25,0,0,0,.17,0l1.42-.82c.61,1.11,1.16,2.24,1.66,3.36l-1.48.85a.36.36,0,0,0,.19.67.34.34,0,0,0,.17,0l1.41-.82h0a35.811,35.811,0,0,1,1.33,3.49l-1.5.87a.35.35,0,0,0,.17.66.28.28,0,0,0,.18,0l1.39-.81a34.609,34.609,0,0,1,1,3.62l-1.5.87a.35.35,0,0,0-.13.48h0a.35.35,0,0,0,.31.18.28.28,0,0,0,.18,0l1.32-.76c.28,1.21.5,2.45.69,3.68l-1.62,1a.36.36,0,0,0-.13.49.38.38,0,0,0,.31.18.37.37,0,0,0,.18-.05l1.38-.8c.21,1.51.35,3,.44,4.6a.35.35,0,0,0,.35.33h0a.35.35,0,0,0,.34-.37h0c-.09-1.67-.25-3.32-.48-4.94l1.13-.66a.34.34,0,0,0,.34-.36.37.37,0,0,0-.39-.45Z" opacity="0.4"/>
          <g id="Grupo_60078" data-name="Grupo 60078" opacity="0.15">
            <path id="Trazado_105926" data-name="Trazado 105926" d="M148.74,324.61a56.718,56.718,0,0,1-.32-8.14c.28-1,4.64-16,12.66-20.65a5.1,5.1,0,0,1,1.58-.66,2.481,2.481,0,0,1,.66-.08c2.13,0,3.08,2.95,4,5.81a30.122,30.122,0,0,0,1.26,3.44c.55,1.15,1.48,2.67,3.25,2.67a4.46,4.46,0,0,0,2.19-.67c3.84-2.19,5-8.14,6.15-14.44a71.934,71.934,0,0,1,1.91-8.34c1.17-3.68,2.69-5.95,4.8-7.16a3.8,3.8,0,0,1,1.79-.59c2.23,0,3.08,4,3.89,7.83a31.648,31.648,0,0,0,1.63,5.9c.82,1.85,1.92,2.76,3.27,2.76a4.72,4.72,0,0,0,2.25-.7c4.73-2.73,6.16-7.36,7.54-11.83,1.18-3.84,2.28-7.39,5.4-9.21a4.68,4.68,0,0,1,2.32-.72,2.79,2.79,0,0,1,1,.17,19.255,19.255,0,0,1,.15,2.15v9.05c.08,1.74.2,3.1.36,4.27Z" fill="#d9a171"/>
            <path id="Trazado_105927" data-name="Trazado 105927" d="M217.11,285.71c-.2-1.35-.31-2.87-.4-4.53l-.05-9.06a19,19,0,0,0-.19-2.5,3.31,3.31,0,0,0-1.49-.33h0a5.1,5.1,0,0,0-2.57.79c-7,4.05-4.3,16.06-12.95,21.05a4.27,4.27,0,0,1-2.05.65c-1.3,0-2.16-1-2.81-2.46-2-4.58-2-14-6-14a4.14,4.14,0,0,0-2,.66c-2.47,1.43-4,4.16-5,7.44-2.59,8.08-2.43,19.43-7.8,22.49a4.11,4.11,0,0,1-1.92.62c-1.28,0-2.12-1-2.8-2.39-1.66-3.5-2.24-9.55-5.75-9.55a3.22,3.22,0,0,0-.76.09,5.82,5.82,0,0,0-1.73.72c-8.55,5-12.92,21-12.92,21a58,58,0,0,0,.41,9l1-.57a10,10,0,0,1-.16-1.08,58.172,58.172,0,0,1-.24-7.23c.4-1.42,4.69-15.8,12.42-20.3a5.08,5.08,0,0,1,1.44-.61,2.48,2.48,0,0,1,.54-.06c1.75,0,2.66,2.78,3.52,5.47a27.727,27.727,0,0,0,1.29,3.5c.35.73,1.41,3,3.7,3a4.76,4.76,0,0,0,2.45-.75c4.05-2.3,5.19-8.36,6.38-14.78a69,69,0,0,1,1.92-8.28c1.13-3.54,2.57-5.76,4.54-6.87a3.22,3.22,0,0,1,1.53-.52c1.82,0,2.67,3.94,3.41,7.43a31.292,31.292,0,0,0,1.65,6c.89,2,2.14,3.07,3.74,3.07A5.18,5.18,0,0,0,200,292c4.9-2.83,6.43-7.77,7.77-12.13,1.15-3.7,2.23-7.2,5.18-8.91a4.11,4.11,0,0,1,2.06-.66h0a2.091,2.091,0,0,1,.56.06c.11,1,.12,1.75.12,1.76v9.1c.07,1.57.18,2.88.31,4a7.48,7.48,0,0,0,.2,1.05l.9-.52"/>
          </g>
          <g id="Grupo_60079" data-name="Grupo 60079" opacity="0.4">
            <path id="Trazado_105928" data-name="Trazado 105928" d="M147.9,311.82v4.58a58,58,0,0,0,.41,9l68.79-39.72c-.2-1.35-.32-2.87-.4-4.54v-9.05s0-13.54-8.63-8.57c-9,5.22-6.49,21.78-12.9,25.48s-4.3-11-12.89-6.08-4.3,16-12.9,21-4.3-20.07-12.89-15.11S147.9,306.11,147.9,311.82Z" fill="#d9a171"/>
          </g>
          <path id="Trazado_105929" data-name="Trazado 105929" d="M144.76,332.41a.37.37,0,0,1-.31-.18.36.36,0,0,1,.13-.49h0l73.17-41.9a.36.36,0,0,1,.36.62h0l-73.17,41.9a.37.37,0,0,1-.18.05Z" opacity="0.4"/>
          <path id="Trazado_105930" data-name="Trazado 105930" d="M156.53,291.23a.36.36,0,0,1-.36-.35v-.72a.35.35,0,0,1,.33-.36h0a.36.36,0,0,1,.36.36v.72A.37.37,0,0,1,156.53,291.23Z" fill="#fff"/>
          <path id="Trazado_105931" data-name="Trazado 105931" d="M156.69,318.75a.37.37,0,0,1-.36-.33c0-.46-.07-1-.1-1.38a.35.35,0,0,1,.33-.37h0a.31.31,0,0,1,.37.27.11.11,0,0,1,0,.05c0,.46.06.91.1,1.37a.36.36,0,0,1-.31.39h0Zm-.17-2.75a.36.36,0,0,1-.36-.35v-1.38a.36.36,0,1,1,.72,0v1.37a.35.35,0,0,1-.35.36Zm0-2.75a.35.35,0,0,1-.35-.35v-1.39a.35.35,0,0,1,.35-.35h0a.36.36,0,0,1,.36.35v1.39a.37.37,0,0,1-.37.35Zm0-2.75a.36.36,0,0,1-.35-.36v-1.38a.36.36,0,0,1,.36-.35h0a.36.36,0,0,1,.36.35v1.38a.36.36,0,0,1-.36.36Zm0-2.76a.35.35,0,0,1-.35-.35V306a.36.36,0,0,1,.72,0v1.38a.37.37,0,0,1-.34.39h0Zm0-2.75a.36.36,0,0,1-.35-.36v-1.37a.36.36,0,0,1,.71,0h0v1.37a.36.36,0,0,1-.32.39h-.08Zm0-2.75a.35.35,0,0,1-.35-.34v-1.39a.36.36,0,1,1,.71,0v1.37a.35.35,0,0,1-.33.36h0Zm0-2.76h0a.33.33,0,0,1-.35-.33v-1.39a.37.37,0,0,1,.35-.37.36.36,0,0,1,.36.36h0v1.37a.35.35,0,0,1-.33.36h0Zm0-2.74h0a.37.37,0,0,1-.35-.37V295a.36.36,0,0,1,.42-.3.39.39,0,0,1,.3.3v1.38a.38.38,0,0,1-.39.36h0Zm0-2.76a.35.35,0,0,1-.35-.35v-1.37a.37.37,0,0,1,.36-.37h0a.36.36,0,0,1,.36.36v1.38a.37.37,0,0,1-.37.36h0Z" fill="#fff"/>
          <path id="Trazado_105932" data-name="Trazado 105932" d="M156.92,320.82a.37.37,0,0,1-.36-.31l-.08-.72a.35.35,0,0,1,.31-.39.37.37,0,0,1,.4.32l.08.7a.35.35,0,0,1-.3.4h-.05Z" fill="#fff"/>
          <path id="Trazado_105933" data-name="Trazado 105933" d="M208.08,264.63a.37.37,0,0,1-.37-.37h0v-.71a.36.36,0,0,1,.37-.36h0a.36.36,0,0,1,.35.36v.71a.37.37,0,0,1-.35.37Z" fill="#fff"/>
          <path id="Trazado_105934" data-name="Trazado 105934" d="M208.28,292.14a.36.36,0,0,1-.36-.32c0-.46-.07-1-.1-1.39a.37.37,0,0,1,.33-.38.36.36,0,0,1,.38.32h0c0,.46.06.91.1,1.36a.36.36,0,0,1-.31.39h0Zm-.17-2.74a.37.37,0,0,1-.36-.36v-1.38a.36.36,0,0,1,.36-.35h0a.35.35,0,0,1,.35.35V289a.36.36,0,0,1-.35.37Zm0-2.76a.35.35,0,0,1-.35-.35v-1.42a.36.36,0,0,1,.35-.36h0a.37.37,0,0,1,.37.36v1.37a.37.37,0,0,1-.35.37h0Zm0-2.75a.37.37,0,0,1-.36-.35v-1.39a.36.36,0,0,1,.36-.35h0a.37.37,0,0,1,.36.35v1.39A.36.36,0,0,1,208.11,283.89Zm0-2.75a.36.36,0,0,1-.35-.36V279.4a.36.36,0,0,1,.71,0v1.38a.36.36,0,0,1-.35.36h0Zm0-2.76a.36.36,0,0,1-.36-.35v-1.38a.36.36,0,0,1,.72,0V278a.37.37,0,0,1-.37.36h0Zm0-2.75a.36.36,0,0,1-.36-.35h0V273.9a.364.364,0,0,1,.72-.11.2.2,0,0,1,0,.11v1.38a.35.35,0,0,1-.35.35h0Zm0-2.75h0a.36.36,0,0,1-.36-.35h0v-1.37a.36.36,0,0,1,.35-.37h0a.37.37,0,0,1,.35.37v1.37a.36.36,0,0,1-.35.36h0Zm0-2.75h0a.35.35,0,0,1-.35-.35h0V268.4a.36.36,0,1,1,.71,0v1.37a.36.36,0,0,1-.36.36h0Zm0-2.75h0a.37.37,0,0,1-.35-.37v-1.33a.36.36,0,0,1,.42-.3.37.37,0,0,1,.3.3v1.38a.38.38,0,0,1-.41.32h0Z" fill="#fff"/>
          <path id="Trazado_105935" data-name="Trazado 105935" d="M208.51,294.22a.38.38,0,0,1-.36-.31l-.08-.72a.34.34,0,0,1,.29-.39h0a.35.35,0,0,1,.41.3h0l.08.71a.34.34,0,0,1-.3.4h-.05Z" fill="#fff"/>
          <path id="Trazado_105936" data-name="Trazado 105936" d="M182.28,285.26a.37.37,0,0,1-.37-.35v-.72a.36.36,0,0,1,.42-.3.35.35,0,0,1,.3.3v.68a.35.35,0,0,1-.33.39Z" fill="#fff"/>
          <path id="Trazado_105937" data-name="Trazado 105937" d="M182.44,304.06a.36.36,0,0,1-.36-.33c0-.44-.07-.89-.1-1.34a.36.36,0,0,1,.33-.38.35.35,0,0,1,.39.3h0c0,.44.06.88.09,1.33a.34.34,0,0,1-.31.39h0Zm-.16-2.68a.37.37,0,0,1-.37-.35v-1.35a.36.36,0,0,1,.35-.36h0a.35.35,0,0,1,.35.35V301a.36.36,0,0,1-.35.36Zm0-2.68a.36.36,0,0,1-.36-.34V297a.37.37,0,0,1,.36-.37h0a.36.36,0,0,1,.35.36h0v1.3a.36.36,0,0,1-.35.36Zm0-2.69a.37.37,0,0,1-.37-.36v-1.34a.35.35,0,0,1,.36-.35h0a.35.35,0,0,1,.36.34h0v1.34a.36.36,0,0,1-.35.36Zm0-2.69a.36.36,0,0,1-.36-.35v-1.38a.36.36,0,0,1,.42-.3.35.35,0,0,1,.3.3v1.34a.35.35,0,0,1-.32.38h0Zm0-2.67h0a.37.37,0,0,1-.36-.37v-1.34a.36.36,0,0,1,.42-.3.35.35,0,0,1,.3.3v1.34a.37.37,0,0,1-.37.35Zm0-2.69h0a.37.37,0,0,1-.36-.37v-1.33a.365.365,0,0,1,.72-.12.24.24,0,0,1,0,.12v1.34a.36.36,0,0,1-.36.35Z" fill="#fff"/>
          <path id="Trazado_105938" data-name="Trazado 105938" d="M182.71,306.09a.37.37,0,0,1-.36-.3l-.08-.72a.34.34,0,0,1,.29-.39h0a.37.37,0,0,1,.4.31l.08.71a.35.35,0,0,1-.3.4h0Z" fill="#fff"/>
          <path id="Trazado_105939" data-name="Trazado 105939" d="M156.48,287.4c.68-.39,1.23-.13,1.23.59a2.64,2.64,0,0,1-1.23,2c-.69.4-1.24.13-1.24-.58A2.64,2.64,0,0,1,156.48,287.4Z" opacity="0.4"/>
          <path id="Trazado_105940" data-name="Trazado 105940" d="M182.28,281.43c.68-.39,1.23-.13,1.23.59a2.64,2.64,0,0,1-1.23,2c-.69.4-1.24.13-1.24-.58a2.64,2.64,0,0,1,1.24-2.01Z" opacity="0.4"/>
          <path id="Trazado_105941" data-name="Trazado 105941" d="M208.07,262.25c.68-.4,1.23-.13,1.23.58a2.6,2.6,0,0,1-1.23,2c-.69.39-1.24.13-1.24-.59A2.61,2.61,0,0,1,208.07,262.25Z" opacity="0.4"/>
          <path id="Trazado_105942" data-name="Trazado 105942" d="M145.24,295.73a.36.36,0,0,0,.14-.48h0a.35.35,0,0,0-.48-.13h0l-1,.53V292l1.29-.75a.36.36,0,0,0,.14-.48h0a.36.36,0,0,0-.49-.13l-1,.55v-3.9a.38.38,0,0,0-.36-.36.36.36,0,0,0-.35.36v4.35l-1.31.74a.36.36,0,0,0-.12.49h0a.35.35,0,0,0,.3.18.41.41,0,0,0,.19-.05l1-.54v3.7l-1.31.74a.36.36,0,0,0-.13.49.38.38,0,0,0,.31.18.41.41,0,0,0,.19,0l1-.54v3.69l-1.31.75a.35.35,0,0,0-.14.47h0a.3.3,0,0,0,.3.18.391.391,0,0,0,.18,0l1-.55v3.69l-1.3.75a.36.36,0,0,0-.14.48h0a.35.35,0,0,0,.31.18.391.391,0,0,0,.18,0l.95-.55v3.69l-1.3.75a.36.36,0,0,0-.14.48h0a.35.35,0,0,0,.31.18.25.25,0,0,0,.17,0l1-.54v3.69L142,315a.37.37,0,0,0-.14.49.38.38,0,0,0,.32.18.34.34,0,0,0,.17,0l1-.55v3.7l-1.3.75a.356.356,0,0,0,.17.67.35.35,0,0,0,.18-.05l1-.55v3.68L142,324a.34.34,0,0,0-.16.47.36.36,0,0,0,.33.2.35.35,0,0,0,.18-.05l1-.59c.08,1.34.19,2.68.36,4a.35.35,0,0,0,.35.3h0a.35.35,0,0,0,.31-.39h0c-.17-1.41-.3-2.88-.38-4.3l1.23-.71a.37.37,0,0,0,.14-.49.36.36,0,0,0-.49-.13l-.9.52c0-1.22-.06-2.45,0-3.68l1.28-.75a.352.352,0,0,0-.35-.61h0l-1,.54v-3.7l1.28-.75a.34.34,0,0,0,.15-.47.35.35,0,0,0-.48-.16h0l-1,.54v-3.7l1.29-.75a.35.35,0,0,0,.13-.48h0a.36.36,0,0,0-.49-.13l-1,.54v-3.7l1.29-.74a.36.36,0,0,0-.36-.62l-1,.54v-3.7l1.3-.74a.36.36,0,0,0,.13-.47h0a.33.33,0,0,0-.45-.14h0l-1,.54v-3.78Z" opacity="0.4"/>
          <path id="Trazado_105943" data-name="Trazado 105943" d="M234.88,317.89l-68.75,39.68c-2.42,1.39-5.92,1.23-7.68-.55s-1-4.5,1.39-5.89l68.7-39.66a6.28,6.28,0,0,1,7.37.82C237.71,314.08,237.3,316.53,234.88,317.89Z" fill="#d9a171"/>
          <path id="Trazado_105944" data-name="Trazado 105944" d="M146,337.19a.5.5,0,0,1-.57-.42.51.51,0,0,1,.32-.54l77.4-44.64a.5.5,0,0,1,.67.26.51.51,0,0,1-.16.61l-77.41,44.69a.44.44,0,0,1-.25.04Z" opacity="0.4"/>
          <path id="Trazado_105945" data-name="Trazado 105945" d="M147.62,341.38a.51.51,0,0,1-.26-.95l77.42-44.69a.51.51,0,0,1,.69.17h0a.51.51,0,0,1-.18.69L147.9,341.3a.45.45,0,0,1-.28.08Z" opacity="0.4"/>
          <path id="Trazado_105946" data-name="Trazado 105946" d="M149.57,345.39a.51.51,0,0,1-.53-.49.53.53,0,0,1,.28-.47l77.43-44.71a.52.52,0,0,1,.67.26.53.53,0,0,1-.16.62l-77.44,44.72A.721.721,0,0,1,149.57,345.39Z" opacity="0.4"/>
          <path id="Trazado_105947" data-name="Trazado 105947" d="M151.88,349.21a.51.51,0,0,1-.44-.26.49.49,0,0,1,.16-.67h0l77.44-44.71a.51.51,0,0,1,.51.87l-77.44,44.72a.37.37,0,0,1-.23.05Z" opacity="0.4"/>
        </g>
        <path id="Trazado_105949" data-name="Trazado 105949" d="M219.46,275.18l63.72-36.78c2.42-1.39,6.27-2.21,8.43-1.34s1.75,3.14-.66,4.53l-64.47,37.2c-2.42,1.4-5.85,1.54-7.77.51S217,276.57,219.46,275.18Z" fill="#d9a171"/>
        <path id="Trazado_105950" data-name="Trazado 105950" d="M226.84,285.29a.51.51,0,0,1-.44-.26.52.52,0,0,1,.19-.69L300,242a.51.51,0,0,1,.52.87h0L227.1,285.25A.52.52,0,0,1,226.84,285.29Z" opacity="0.4"/>
        <path id="Trazado_105951" data-name="Trazado 105951" d="M229.89,288.57a.51.51,0,0,1-.25-.95l73.53-42.43a.49.49,0,0,1,.67.16h0a.51.51,0,0,1-.18.69l-73.54,42.45a.5.5,0,0,1-.23.08Z" opacity="0.4"/>
        <path id="Trazado_105952" data-name="Trazado 105952" d="M242.06,326.13h0a.35.35,0,0,1-.35-.36h0v-3.89c0-2.93,0-2.93-.08-4.92v-.32a47.51,47.51,0,0,0-2.58-13.3,37,37,0,0,0-6.62-11.56.36.36,0,0,1,0-.51.35.35,0,0,1,.5.06,37.61,37.61,0,0,1,6.72,11.78,48.14,48.14,0,0,1,2.65,13.43v.34c.08,2,.08,2,.08,4.95v3.89A.37.37,0,0,1,242.06,326.13Z" opacity="0.4"/>
        <path id="Trazado_105953" data-name="Trazado 105953" d="M241.32,295.42c-.32-.57-.68-1.13-1-1.68a1.14,1.14,0,0,1,.24-1.59l.12-.07,28.06-16.2a1.32,1.32,0,0,1,1.78.42q.51.82,1,1.74a1.35,1.35,0,0,1-.53,1.76L243,295.9a1.2,1.2,0,0,1-1.66-.45Z" fill="#d9a171"/>
        <path id="Trazado_105954" data-name="Trazado 105954" d="M244.06,301.93c.2.64.4,1.28.57,1.92a1,1,0,0,0,1.17.69.72.72,0,0,0,.24-.1L312.6,266a1.74,1.74,0,0,0,.78-1.86c-.18-.66-.38-1.3-.57-1.91a1,1,0,0,0-1.15-.73.89.89,0,0,0-.34.16l-66.58,38.43A1.6,1.6,0,0,0,244.06,301.93Z" fill="#d9a171"/>
        <path id="Trazado_105955" data-name="Trazado 105955" d="M244.06,301.93c.2.64.4,1.28.57,1.92a1,1,0,0,0,1.17.69.72.72,0,0,0,.24-.1L312.6,266a1.74,1.74,0,0,0,.78-1.86c-.18-.66-.38-1.3-.57-1.91a1,1,0,0,0-1.15-.73.89.89,0,0,0-.34.16l-66.58,38.43A1.6,1.6,0,0,0,244.06,301.93Z" fill="#fff" opacity="0.7"/>
        <path id="Trazado_105956" data-name="Trazado 105956" d="M246,310.78c.09.71.16,1.4.22,2.06a.71.71,0,0,0,.64.79.73.73,0,0,0,.53-.16l45.09-26a2.17,2.17,0,0,0,1-1.92c-.06-.69-.14-1.37-.21-2.06a.79.79,0,0,0-.8-.78.75.75,0,0,0-.47.17l-45.09,26a2.05,2.05,0,0,0-.91,1.9Z" fill="#d9a171"/>
        <path id="Trazado_105957" data-name="Trazado 105957" d="M246,310.78c.09.71.16,1.4.22,2.06a.71.71,0,0,0,.64.79.73.73,0,0,0,.53-.16l45.09-26a2.17,2.17,0,0,0,1-1.92c-.06-.69-.14-1.37-.21-2.06a.79.79,0,0,0-.8-.78.75.75,0,0,0-.47.17l-45.09,26a2.05,2.05,0,0,0-.91,1.9Z" opacity="0.15"/>
        <path id="Trazado_105958" data-name="Trazado 105958" d="M246.36,320v2c0,.69.49,1,1.09.62l19.31-11.13a2.43,2.43,0,0,0,1.09-1.92v-2c0-.7-.49-1-1.09-.63l-19.31,11.15a2.4,2.4,0,0,0-1.09,1.91Z" fill="#d9a171"/>
        <path id="Trazado_105959" data-name="Trazado 105959" d="M246.36,320v2c0,.69.49,1,1.09.62l19.31-11.13a2.43,2.43,0,0,0,1.09-1.92v-2c0-.7-.49-1-1.09-.63l-19.31,11.15a2.4,2.4,0,0,0-1.09,1.91Z" fill="#fff" opacity="0.5"/>
        <path id="Trazado_105960" data-name="Trazado 105960" d="M315.13,287.92a.36.36,0,0,0-.36.37h0V290l-5.14,3v-1.3a.37.37,0,0,0-.42-.3.36.36,0,0,0-.3.3v1.71l-5.15,3V295.1a.36.36,0,0,0-.3-.42.37.37,0,0,0-.42.3v1.81l-5.14,3V298.5a.355.355,0,0,0-.71-.01h0v1.66l-5.15,3v-1.23a.355.355,0,0,0-.71,0v1.64l-5.15,3v-1.21a.36.36,0,0,0-.34-.36h0a.36.36,0,0,0-.35.36v1.62l-5.16,3v-1.18a.37.37,0,0,0-.42-.3.36.36,0,0,0-.3.3v1.59l-5.15,3v-1.16a.36.36,0,0,0-.72,0v1.57l-5.14,3v-1.1a.36.36,0,0,0-.42-.3.39.39,0,0,0-.3.3v1.55l-5.14,3V319a.36.36,0,0,0-.42-.3.34.34,0,0,0-.3.3v1.52l-5.14,3v-1.09a.38.38,0,0,0-.42-.31.36.36,0,0,0-.3.31v1.5l-5.15,3v-1.07a.36.36,0,0,0-.42-.3.39.39,0,0,0-.3.3v1.48l-4.46,2.58a.36.36,0,0,0-.14.48h0a.35.35,0,0,0,.31.18.28.28,0,0,0,.18-.06l4.1-2.37v1.46a.36.36,0,0,0,.42.3.34.34,0,0,0,.3-.3v-1.87l5.15-3v1.41a.36.36,0,0,0,.41.3.38.38,0,0,0,.31-.3V324.3l5.14-3v1.41a.36.36,0,1,0,.72,0V320.9l5.14-3v1.38a.36.36,0,0,0,.72,0v-1.82l5.14-3v1.36a.37.37,0,0,0,.42.3.35.35,0,0,0,.3-.3v-1.78l5.15-3v1.34a.35.35,0,0,0,.41.3.36.36,0,0,0,.31-.3v-1.7l5.14-3V309a.36.36,0,0,0,.71,0v-1.6l5.15-3v1.3a.355.355,0,0,0,.71,0V304l5.15-3v1.28a.355.355,0,0,0,.71,0v-1.69l5.15-3v1.25a.36.36,0,0,0,.71,0V297.2l5.15-3v1.2a.36.36,0,0,0,.72,0v-1.64l5.14-3V292a.36.36,0,0,0,.42.3.39.39,0,0,0,.3-.3v-3.76a.37.37,0,0,0-.35-.32Z" opacity="0.4"/>
        <path id="Trazado_105961" data-name="Trazado 105961" d="M258.71,335.12a12.67,12.67,0,0,0-3.74,1.51c-7.12,4.19-12.89,14.65-12.89,23.38v.68L255,354.8Z" fill="#d9a171"/>
        <path id="Trazado_105962" data-name="Trazado 105962" d="M258.71,335.12,255,354.8l12.75-7.4a21.145,21.145,0,0,0,.14-2.39C267.83,337.83,264,334,258.71,335.12Z" fill="#d9a171"/>
        <path id="Trazado_105963" data-name="Trazado 105963" d="M266.1,354a27.558,27.558,0,0,0,1.61-6.63L255,354.8Z" fill="#d9a171"/>
        <path id="Trazado_105964" data-name="Trazado 105964" d="M242.09,360.67c.29,8.25,5.95,11.69,12.88,7.67,4.79-2.74,8.9-8.31,11.13-14.39l-11.14.77Z" fill="#d9a171"/>
        <path id="Trazado_105965" data-name="Trazado 105965" d="M258.71,335.12,255,354.8l12.75-7.4a21.145,21.145,0,0,0,.14-2.39C267.83,337.83,264,334,258.71,335.12Z" fill="#fff" opacity="0.7"/>
        <path id="Trazado_105966" data-name="Trazado 105966" d="M266.1,354a27.558,27.558,0,0,0,1.61-6.63L255,354.8Z" opacity="0.15"/>
        <path id="Trazado_105967" data-name="Trazado 105967" d="M242.09,360.67c.29,8.25,5.95,11.69,12.88,7.67,4.79-2.74,8.9-8.31,11.13-14.39l-11.14.77Z" fill="#fff" opacity="0.5"/>
        <path id="Trazado_105968" data-name="Trazado 105968" d="M242.09,361.2a.61.61,0,0,1-.27-.08.52.52,0,0,1-.24-.41V360c0-8.88,5.89-19.56,13.14-23.81a13,13,0,0,1,3.89-1.57.49.49,0,0,1,.46.13.51.51,0,0,1,.15.45l-3.77,19.7a.53.53,0,0,1-.28.37l-12.87,5.89Zm16-25.39a12.649,12.649,0,0,0-2.87,1.26c-6.95,4.08-12.6,14.3-12.65,22.83l11.93-5.45Z" fill="#fff"/>
        <path id="Trazado_105969" data-name="Trazado 105969" d="M255,355.3a.45.45,0,0,1-.3-.09.51.51,0,0,1-.2-.51l3.72-19.7a.49.49,0,0,1,.39-.4,7.33,7.33,0,0,1,6.33,1.34c2.2,1.79,3.42,5,3.42,9a22.369,22.369,0,0,1-.14,2.45.53.53,0,0,1-.25.37l-12.76,7.41a.57.57,0,0,1-.21.13Zm4.24-19.74-3.5,18.23,11.59-6.72a20.5,20.5,0,0,0,.11-2.07c0-3.73-1.08-6.67-3-8.26a6.23,6.23,0,0,0-5.24-1.18Z" fill="#fff"/>
        <path id="Trazado_105970" data-name="Trazado 105970" d="M255,355.3a.48.48,0,0,1-.48-.35.49.49,0,0,1,.22-.59l12.76-7.4a.5.5,0,0,1,.76.48,28.15,28.15,0,0,1-1.65,6.71.54.54,0,0,1-.44.33l-11.15.77Zm12.12-6.95-10,5.76,8.63-.6a27.047,27.047,0,0,0,1.33-5.16Z" fill="#fff"/>
        <path id="Trazado_105971" data-name="Trazado 105971" d="M249.48,370.56a7.26,7.26,0,0,1-3.5-.87c-2.68-1.5-4.25-4.69-4.4-9a.49.49,0,0,1,.3-.48l12.86-5.89h.18l11.14-.77a.48.48,0,0,1,.44.2.49.49,0,0,1,.07.47c-2.33,6.32-6.72,11.92-11.35,14.62A11.67,11.67,0,0,1,249.48,370.56ZM242.61,361c.2,3.76,1.57,6.52,3.84,7.79s5.15,1,8.24-.86c4.3-2.47,8.32-7.55,10.62-13.35l-10.26.71Z" fill="#fff"/>
        <path id="Trazado_105972" data-name="Trazado 105972" d="M296.41,314.31c-4.2,5-7.07,12.1-7.07,18.29a13.2,13.2,0,0,0,1.63,6.83l11.27-14.26Z" fill="#d9a171"/>
        <path id="Trazado_105973" data-name="Trazado 105973" d="M308.05,307.55a10.77,10.77,0,0,0-5.81,1.65,21.93,21.93,0,0,0-5.83,5.11l5.83,10.84Z" fill="#d9a171"/>
        <path id="Trazado_105974" data-name="Trazado 105974" d="M313.93,311.67a6.72,6.72,0,0,0-5.88-4.12l-5.81,17.62Z" fill="#d9a171"/>
        <path id="Trazado_105975" data-name="Trazado 105975" d="M313.93,311.67l-11.69,13.5L291,339.45c2.21,3.6,6.42,4.47,11.27,1.67,7.12-4.11,12.89-14.58,12.89-23.4a13.84,13.84,0,0,0-1.23-6.05Z" fill="#d9a171"/>
        <path id="Trazado_105976" data-name="Trazado 105976" d="M308.05,307.55a10.77,10.77,0,0,0-5.81,1.65,21.93,21.93,0,0,0-5.83,5.11l5.83,10.84Z" fill="#fff" opacity="0.7"/>
        <path id="Trazado_105977" data-name="Trazado 105977" d="M313.93,311.67a6.72,6.72,0,0,0-5.88-4.12l-5.81,17.62Z" opacity="0.15"/>
        <path id="Trazado_105978" data-name="Trazado 105978" d="M313.93,311.67l-11.69,13.5L291,339.45c2.21,3.6,6.42,4.47,11.27,1.67,7.12-4.11,12.89-14.58,12.89-23.4a13.84,13.84,0,0,0-1.23-6.05Z" fill="#fff" opacity="0.5"/>
        <path id="Trazado_105979" data-name="Trazado 105979" d="M291,339.94h0a.5.5,0,0,1-.4-.25,13.78,13.78,0,0,1-1.7-7.09c0-6.15,2.75-13.29,7.18-18.62a.55.55,0,0,1,.43-.18.52.52,0,0,1,.4.27l5.83,10.85a.5.5,0,0,1,0,.54l-11.29,14.29A.51.51,0,0,1,291,339.94Zm5.35-24.72c-4,5.08-6.47,11.68-6.47,17.38a13.54,13.54,0,0,0,1.2,5.92l10.56-13.43Z" fill="#fff"/>
        <path id="Trazado_105980" data-name="Trazado 105980" d="M302.24,325.66a.49.49,0,0,1-.45-.27L296,314.55a.53.53,0,0,1,0-.55,22.159,22.159,0,0,1,6-5.21,11.22,11.22,0,0,1,6.09-1.73.53.53,0,0,1,.4.22.51.51,0,0,1,.06.45l-5.81,17.6a.53.53,0,0,1-.44.35ZM297,314.36l5.11,9.52,5.23-15.83a11,11,0,0,0-4.86,1.59A21.2,21.2,0,0,0,297,314.36Z" fill="#fff"/>
        <path id="Trazado_105981" data-name="Trazado 105981" d="M302.24,325.66a.43.43,0,0,1-.25-.07.5.5,0,0,1-.23-.6l5.81-17.6a.5.5,0,0,1,.5-.35,7.26,7.26,0,0,1,6.32,4.41.53.53,0,0,1-.08.55l-11.7,13.48a.49.49,0,0,1-.37.18Zm6.17-17.58-4.9,14.83,9.82-11.32a6.21,6.21,0,0,0-4.92-3.51Z" fill="#fff"/>
        <path id="Trazado_105982" data-name="Trazado 105982" d="M296.77,343.26a7.06,7.06,0,0,1-6.23-3.56.51.51,0,0,1,0-.58l11.26-14.28,11.71-13.5a.48.48,0,0,1,.45-.17.52.52,0,0,1,.39.28,14.3,14.3,0,0,1,1.25,6.25c0,8.95-5.9,19.65-13.15,23.84a11.54,11.54,0,0,1-5.68,1.72Zm-5.17-3.83c2.2,3.25,6,3.7,10.38,1.19,7-4,12.65-14.32,12.65-23a14.24,14.24,0,0,0-.84-5.09l-11.18,12.88Z" fill="#fff"/>
        <path id="Trazado_105983" data-name="Trazado 105983" d="M273.24,326l2.11-1.21c.61-.35,1.1-.06,1.1.63v2a2.41,2.41,0,0,1-1.1,1.92l-2.11,1.22c-.6.35-1.09.07-1.09-.63v-2A2.43,2.43,0,0,1,273.24,326Z" fill="#d9a171"/>
        <path id="Trazado_105984" data-name="Trazado 105984" d="M273.24,335.08l2.11-1.22c.61-.35,1.1-.07,1.1.63v2a2.4,2.4,0,0,1-1.1,1.92l-2.11,1.22c-.6.35-1.09.06-1.09-.64v-2a2.41,2.41,0,0,1,1.09-1.91Z" fill="#d9a171"/>
        <path id="Trazado_105985" data-name="Trazado 105985" d="M273.24,335.08l2.11-1.22c.61-.35,1.1-.07,1.1.63v2a2.4,2.4,0,0,1-1.1,1.92l-2.11,1.22c-.6.35-1.09.06-1.09-.64v-2a2.41,2.41,0,0,1,1.09-1.91Z" fill="#fff" opacity="0.7"/>
        <path id="Trazado_105986" data-name="Trazado 105986" d="M273.24,344.17l2.11-1.21c.61-.35,1.1-.07,1.1.63v2a2.41,2.41,0,0,1-1.1,1.92l-2.11,1.22c-.6.35-1.09.06-1.09-.63v-2a2.44,2.44,0,0,1,1.09-1.93Z" fill="#d9a171"/>
        <path id="Trazado_105987" data-name="Trazado 105987" d="M273.24,344.17l2.11-1.21c.61-.35,1.1-.07,1.1.63v2a2.41,2.41,0,0,1-1.1,1.92l-2.11,1.22c-.6.35-1.09.06-1.09-.63v-2a2.44,2.44,0,0,1,1.09-1.93Z" opacity="0.15"/>
        <path id="Trazado_105988" data-name="Trazado 105988" d="M273.24,353.27l2.11-1.22c.61-.34,1.1-.06,1.1.64v2a2.43,2.43,0,0,1-1.1,1.92l-2.11,1.22c-.6.34-1.09.06-1.09-.64v-2a2.43,2.43,0,0,1,1.09-1.92Z" fill="#d9a171"/>
        <path id="Trazado_105989" data-name="Trazado 105989" d="M273.24,353.27l2.11-1.22c.61-.34,1.1-.06,1.1.64v2a2.43,2.43,0,0,1-1.1,1.92l-2.11,1.22c-.6.34-1.09.06-1.09-.64v-2a2.43,2.43,0,0,1,1.09-1.92Z" fill="#fff" opacity="0.5"/>
        <path id="Trazado_105990" data-name="Trazado 105990" d="M278.62,325.77a.72.72,0,0,1-.62-.36.71.71,0,0,1,.26-1l6.42-3.71a.72.72,0,0,1,.72,1.24L279,325.7A.71.71,0,0,1,278.62,325.77Z" opacity="0.4"/>
        <path id="Trazado_105991" data-name="Trazado 105991" d="M278.52,335a.7.7,0,0,1-.35-1.33l6.41-3.7a.72.72,0,1,1,.85,1.16l-.13.07-6.42,3.71A.64.64,0,0,1,278.52,335Z" opacity="0.4"/>
        <path id="Trazado_105992" data-name="Trazado 105992" d="M278.39,344.15a.73.73,0,0,1-.37-1.34l6.43-3.7a.7.7,0,0,1,1,.26.73.73,0,0,1-.26,1l-6.43,3.7a.66.66,0,0,1-.37.08Z" opacity="0.4"/>
        <path id="Trazado_105993" data-name="Trazado 105993" d="M278.32,353.34a.7.7,0,0,1-.62-.36.73.73,0,0,1,.26-1l6.43-3.71a.72.72,0,0,1,1,.2.71.71,0,0,1-.19,1l-.1.06-6.43,3.7a.6.6,0,0,1-.35.11Z" opacity="0.4"/>
        <path id="Trazado_105994" data-name="Trazado 105994" d="M242.89,385.67a.71.71,0,0,1-.36-1.32L272.63,367a.71.71,0,0,1,1,.26.73.73,0,0,1-.27,1l-30.09,17.42a.68.68,0,0,1-.38-.01Z" opacity="0.4"/>
        <path id="Trazado_105995" data-name="Trazado 105995" d="M243.85,390.12a.71.71,0,0,1-.36-1.33l30.1-17.37a.72.72,0,0,1,1,.27.7.7,0,0,1-.26,1L244.21,390a.67.67,0,0,1-.36.12Z" opacity="0.4"/>
        <path id="Trazado_105996" data-name="Trazado 105996" d="M245.24,394.43a.71.71,0,0,1-.71-.73.7.7,0,0,1,.34-.6L275,375.73a.723.723,0,1,1,.85,1.17l-.13.07-30.09,17.37a.73.73,0,0,1-.39.09Z" opacity="0.4"/>
        <path id="Trazado_105997" data-name="Trazado 105997" d="M290.1,358.41a.69.69,0,0,1-.61-.35.7.7,0,0,1,.26-1l30.09-17.37a.72.72,0,0,1,1,.26.71.71,0,0,1-.26,1L290.5,358.32a.73.73,0,0,1-.4.09Z" opacity="0.4"/>
        <path id="Trazado_105998" data-name="Trazado 105998" d="M291.07,362.87a.71.71,0,0,1-.35-1.32l30.08-17.37a.74.74,0,0,1,1,.26.71.71,0,0,1-.26,1l-30.08,17.37a.881.881,0,0,1-.39.06Z" opacity="0.4"/>
        <path id="Trazado_105999" data-name="Trazado 105999" d="M292.46,367.17a.7.7,0,0,1-.36-1.31l30.09-17.37a.721.721,0,0,1,.72,1.25l-30.13,17.34A.73.73,0,0,1,292.46,367.17Z" opacity="0.4"/>
        <path id="Trazado_106000" data-name="Trazado 106000" d="M253.49,399.32l68.6-39.61A5.27,5.27,0,0,1,329,361c1.47,2,.87,4.63-1.54,6l-68.63,39.6c-2.41,1.39-5.75,1-7.2-1S251.08,400.71,253.49,399.32Z" fill="#d9a171"/>
        <path id="Trazado_106001" data-name="Trazado 106001" d="M264.81,418.72a.74.74,0,0,1-.62-.36.71.71,0,0,1,.26-1L294.53,400a.72.72,0,0,1,1,.26.7.7,0,0,1-.26,1l-30.08,17.37a.71.71,0,0,1-.38.09Z" opacity="0.4"/>
        <path id="Trazado_106002" data-name="Trazado 106002" d="M261.05,416.06a.73.73,0,0,1-.37-1.34l30.09-17.36a.71.71,0,0,1,1,.27.73.73,0,0,1-.26,1L261.4,416a.71.71,0,0,1-.35.06Z" opacity="0.4"/>
        <path id="Trazado_106003" data-name="Trazado 106003" d="M268.79,421.06a.73.73,0,0,1-.61-.37.71.71,0,0,1,.26-1l30.1-17.37a.7.7,0,0,1,.69,1.22L269.15,420.9A.77.77,0,0,1,268.79,421.06Z" opacity="0.4"/>
        <path id="Trazado_106004" data-name="Trazado 106004" d="M307.77,393.92a.71.71,0,0,1-.36-1.33l30.08-17.37a.721.721,0,1,1,.72,1.25l-30.08,17.36a.67.67,0,0,1-.36.09Z" opacity="0.4"/>
        <path id="Trazado_106005" data-name="Trazado 106005" d="M304,391.27a.74.74,0,0,1-.71-.73.75.75,0,0,1,.35-.61l30.09-17.35a.71.71,0,0,1,1,.25.72.72,0,0,1-.27,1L304.38,391.2A.8.8,0,0,1,304,391.27Z" opacity="0.4"/>
        <path id="Trazado_106006" data-name="Trazado 106006" d="M311.72,396.26a.69.69,0,0,1-.62-.35.71.71,0,0,1,.26-1l30.09-17.37a.724.724,0,0,1,.81,1.2l-.1.05-30.08,17.34a.64.64,0,0,1-.36.13Z" opacity="0.4"/>
        <path id="Trazado_106007" data-name="Trazado 106007" d="M312.17,417.91c-6.53-3.77-17.6-3.49-24.72.61s-7.6,10.5-1.06,14.27,17.59,3.5,24.71-.6S318.68,421.69,312.17,417.91Zm-4.44,12.32c-5.09,2.94-13,3.14-17.66.44s-4.32-7.26.76-10.2,13-3.13,17.66-.43S312.81,427.29,307.73,430.23Z" fill="#d9a171"/>
        <path id="Trazado_106008" data-name="Trazado 106008" d="M294.21,422.43c3.05-1.77,7.8-1.92,10.6-.27s2.59,4.36-.46,6.12-7.8,1.92-10.55.26S291.16,424.18,294.21,422.43Z" fill="#d9a171"/>
        <path id="Trazado_106009" data-name="Trazado 106009" d="M294.21,422.43c3.05-1.77,7.8-1.92,10.6-.27s2.59,4.36-.46,6.12-7.8,1.92-10.55.26S291.16,424.18,294.21,422.43Z" opacity="0.5"/>
        <path id="Trazado_106010" data-name="Trazado 106010" d="M312.17,417.91c-6.53-3.77-17.6-3.49-24.72.61s-7.6,10.5-1.06,14.27,17.59,3.5,24.71-.6S318.68,421.69,312.17,417.91Zm-4.44,12.32c-5.09,2.94-13,3.14-17.66.44s-4.32-7.26.76-10.2,13-3.13,17.66-.43S312.81,427.29,307.73,430.23Z" opacity="0.15"/>
        <path id="Trazado_106011" data-name="Trazado 106011" d="M294,416l1.49,2.67a21.371,21.371,0,0,1,8.76-.17l2-2.73A30,30,0,0,0,294,416Z" fill="#d9a171"/>
        <path id="Trazado_106012" data-name="Trazado 106012" d="M294,416l1.49,2.67a21.371,21.371,0,0,1,8.76-.17l2-2.73A30,30,0,0,0,294,416Z" fill="#fff" opacity="0.7"/>
        <path id="Trazado_106013" data-name="Trazado 106013" d="M300.18,414.7h0a.73.73,0,0,1-.68-.76l.21-3.28L312.93,403a.72.72,0,0,1,1,.26.73.73,0,0,1-.26,1L301,411.52l-.15,2.51a.72.72,0,0,1-.67.67Z" opacity="0.4"/>
        <path id="Trazado_106014" data-name="Trazado 106014" d="M350.85,395.6c-6.54-3.77-17.6-3.49-24.73.62s-7.6,10.49-1.07,14.26,17.61,3.51,24.73-.6S357.38,399.37,350.85,395.6Zm-4.45,12.32c-5.08,2.94-13,3.14-17.66.44s-4.32-7.26.77-10.2,13-3.12,17.65-.43,4.33,7.26-.76,10.19Z" fill="#d9a171"/>
        <path id="Trazado_106015" data-name="Trazado 106015" d="M332.88,400.12c3.06-1.76,7.8-1.92,10.56-.27s2.6,4.36-.46,6.12-7.79,1.92-10.56.26S329.83,401.93,332.88,400.12Z" fill="#d9a171"/>
        <path id="Trazado_106016" data-name="Trazado 106016" d="M332.88,400.12c3.06-1.76,7.8-1.92,10.56-.27s2.6,4.36-.46,6.12-7.79,1.92-10.56.26S329.83,401.93,332.88,400.12Z" opacity="0.5"/>
        <path id="Trazado_106017" data-name="Trazado 106017" d="M350.85,395.6c-6.54-3.77-17.6-3.49-24.73.62s-7.6,10.49-1.07,14.26,17.61,3.51,24.73-.6S357.38,399.37,350.85,395.6Zm-4.45,12.32c-5.08,2.94-13,3.14-17.66.44s-4.32-7.26.77-10.2,13-3.12,17.65-.43,4.33,7.26-.76,10.19Z" opacity="0.15"/>
        <path id="Trazado_106018" data-name="Trazado 106018" d="M350.85,395.6c-5.52-3.18-14.27-3.47-21.11-1l2.36,2.4c4.91-1.75,11.16-1.54,15.1.73a8.589,8.589,0,0,1,1.8,1.37l4.41-1.57A12.311,12.311,0,0,0,350.85,395.6Z" fill="#d9a171"/>
        <path id="Trazado_106019" data-name="Trazado 106019" d="M350.85,395.6c-5.52-3.18-14.27-3.47-21.11-1l2.36,2.4c4.91-1.75,11.16-1.54,15.1.73a8.589,8.589,0,0,1,1.8,1.37l4.41-1.57A12.311,12.311,0,0,0,350.85,395.6Z" fill="#fff" opacity="0.7"/>
        <path id="Trazado_106020" data-name="Trazado 106020" d="M339,392.33h0a.72.72,0,0,1-.67-.76l.2-3.29,13.22-7.63a.72.72,0,0,1,.72,1.24l-12.59,7.24-.15,2.52a.71.71,0,0,1-.73.68Z" opacity="0.4"/>
        <path id="Trazado_106021" data-name="Trazado 106021" d="M304.29,441.55a.71.71,0,0,1-.72-.71.69.69,0,0,1,.36-.63l73-42.12a.72.72,0,0,1,1,.26.73.73,0,0,1-.27,1L304.6,441.48a.9.9,0,0,1-.31.07Z" opacity="0.4"/>
        <path id="Trazado_106022" data-name="Trazado 106022" d="M308.2,443.82a.73.73,0,0,1-.7-.74.7.7,0,0,1,.34-.6l73.07-42.16a.72.72,0,0,1,1,.16.73.73,0,0,1-.16,1l-.12.07-73.07,42.16a.78.78,0,0,1-.36.11Z" opacity="0.4"/>
        <path id="Trazado_106023" data-name="Trazado 106023" d="M312.14,446.06a.71.71,0,0,1-.35-1.32l73.1-42.14a.71.71,0,0,1,.71,1.23L312.53,446a.86.86,0,0,1-.39.06Z" opacity="0.4"/>
      </g>
    </g>
  </g>
</svg>
