<svg id="Capa_2" data-name="Capa 2" xmlns="http://www.w3.org/2000/svg" width="500" height="500" viewBox="0 0 500 500">
  <g id="Capa_1" data-name="Capa 1">
    <rect id="Rectángulo_6648" data-name="Rectángulo 6648" width="500" height="500" fill="#344154" opacity="0"/>
    <rect id="Rectángulo_6649" data-name="Rectángulo 6649" width="462.65" height="0.23" transform="translate(19.05 371.17)" fill="#ececec"/>
    <rect id="Rectángulo_6650" data-name="Rectángulo 6650" width="30.65" height="0.23" transform="translate(404.69 386.06)" fill="#ececec"/>
    <rect id="Rectángulo_6651" data-name="Rectángulo 6651" width="8.04" height="0.23" transform="translate(317.48 388.58)" fill="#ececec"/>
    <rect id="Rectángulo_6652" data-name="Rectángulo 6652" width="17.76" height="0.23" transform="translate(386.01 377.47)" fill="#ececec"/>
    <rect id="Rectángulo_6653" data-name="Rectángulo 6653" width="39.97" height="0.23" transform="translate(67.59 379.03)" fill="#ececec"/>
    <rect id="Rectángulo_6654" data-name="Rectángulo 6654" width="5.86" height="0.23" transform="translate(115.79 379.03)" fill="#ececec"/>
    <rect id="Rectángulo_6655" data-name="Rectángulo 6655" width="86.68" height="0.23" transform="translate(140.7 382.93)" fill="#ececec"/>
    <path id="Trazado_106845" data-name="Trazado 106845" d="M238.35,329.9H59.68a5.29,5.29,0,0,1-5.28-5.28V73.47a5.29,5.29,0,0,1,5.28-5.29H238.35a5.29,5.29,0,0,1,5.29,5.29V324.62A5.29,5.29,0,0,1,238.35,329.9ZM59.68,68.42a5.06,5.06,0,0,0-5,5v251.2a5.06,5.06,0,0,0,5,5.05H238.35a5,5,0,0,0,5.05-5.05V73.47a5,5,0,0,0-5.05-5Z" fill="#ececec"/>
    <path id="Trazado_106846" data-name="Trazado 106846" d="M438.49,329.9H259.82a5.29,5.29,0,0,1-5.28-5.28V73.47a5.29,5.29,0,0,1,5.28-5.29H438.49a5.29,5.29,0,0,1,5.29,5.29V324.62A5.29,5.29,0,0,1,438.49,329.9ZM259.82,68.42a5.06,5.06,0,0,0-5,5v251.2a5.06,5.06,0,0,0,5,5.05H438.49a5.06,5.06,0,0,0,5.06-5.05V73.47a5.06,5.06,0,0,0-5.06-5Z" fill="#ececec"/>
    <path id="Trazado_106847" data-name="Trazado 106847" d="M109.46,135.5l34.05-19.8h26.23l34.6,18.86V262.93H109.46Z" fill="#e1e1e1"/>
    <path id="Trazado_106848" data-name="Trazado 106848" d="M205.32,262.93H109.46V135.5l1-.93a67.41,67.41,0,0,1,46.95-18.87h0a67.44,67.44,0,0,1,47,18.86l1,.94Zm-89.5-6.36H199V138.23a61.52,61.52,0,0,0-83.14,0Z" fill="#fafafa"/>
    <path id="Trazado_106849" data-name="Trazado 106849" d="M155.01,257.33h4.77v-42.6h40.39v-4.77H159.78V166.39h40.39v-4.77H159.78V121.23h-4.77v40.39H114.62v4.77h40.39v43.57H114.62v4.77h40.39Z" fill="#f0f0f0"/>
    <path id="Trazado_106850" data-name="Trazado 106850" d="M208.5,266.1H106.28V134.21l.93-.94a71.06,71.06,0,0,1,100.36,0l.93.94Zm-95.86-6.35h89.5V136.86a64.67,64.67,0,0,0-89.5,0Z" fill="#f0f0f0"/>
    <path id="Trazado_106851" data-name="Trazado 106851" d="M337.78,262.15c0-.2-.68-20-3.91-23.2s-6.75-.11-6.9,0l-.32-.39s4.11-3.36,7.57,0,4,22.72,4.06,23.55Z" fill="#e1e1e1"/>
    <path id="Trazado_106852" data-name="Trazado 106852" d="M338.06,266.05c0-.23-2.21-23.83,6.41-33.73l.38.34c-8.48,9.72-6.31,33.11-6.29,33.34Z" fill="#e1e1e1"/>
    <path id="Trazado_106853" data-name="Trazado 106853" d="M337.74,263.56h-.51c0-.26,1.69-26.83-4.63-32.64l.34-.37C339.44,236.48,337.81,262.45,337.74,263.56Z" fill="#e1e1e1"/>
    <path id="Trazado_106854" data-name="Trazado 106854" d="M338.56,263.54h-.51c0-.73.21-17.94,5.1-20.74a3.45,3.45,0,0,1,3.17-.31c2.95,1.22,4.42,6.48,4.48,6.7l-.49.14c0-.06-1.46-5.25-4.19-6.38a3,3,0,0,0-2.72.28C338.76,245.89,338.56,263.37,338.56,263.54Z" fill="#e1e1e1"/>
    <path id="Trazado_106855" data-name="Trazado 106855" d="M336.66,263.56h-.51c0-.14.74-13.6-2.89-18.35a3.36,3.36,0,0,0-2.85-1.62c-2.38.16-4.38,3.65-4.4,3.68l-.44-.25c.09-.15,2.15-3.75,4.8-3.94a3.84,3.84,0,0,1,3.29,1.83C337.4,249.77,336.69,263,336.66,263.56Z" fill="#e1e1e1"/>
    <path id="Trazado_106856" data-name="Trazado 106856" d="M337.45,265.39c-.1-1.31-2.37-32,1.63-37.47l.41.3c-3.9,5.27-1.56,36.81-1.53,37.13Z" fill="#e1e1e1"/>
    <path id="Trazado_106857" data-name="Trazado 106857" d="M347.4,245.6s-2.4.89-1.68,3,8.31,5.53,8.31,5.53,3.18-2.91.26-7.66S347.47,244.11,347.4,245.6Z" fill="#ececec"/>
    <path id="Trazado_106858" data-name="Trazado 106858" d="M337,241.62s2.56-.11,2.7,2.1-5.54,8.31-5.54,8.31-4.06-1.47-3.19-7S336.32,240.27,337,241.62Z" fill="#ececec"/>
    <path id="Trazado_106859" data-name="Trazado 106859" d="M334.79,231.07s1.71-.19,1.57-1.23-6.63-3.71-10.46.61c0,0,2.45,4.22,6,4.27S334.79,231.07,334.79,231.07Z" fill="#ececec"/>
    <path id="Trazado_106860" data-name="Trazado 106860" d="M338,228.54s-1.54.75-2-.21,3.67-6.66,9.21-5c0,0,.14,4.87-2.84,6.8S338,228.54,338,228.54Z" fill="#ececec"/>
    <path id="Trazado_106861" data-name="Trazado 106861" d="M329.89,244.76s1.18-.95-.09-1.41-7.51-.33-7.57,5.84c0,0,7.26,1.21,8.16-1.14S329.89,244.76,329.89,244.76Z" fill="#ececec"/>
    <path id="Trazado_106862" data-name="Trazado 106862" d="M344.7,230.91s-1.18-.95.09-1.41,7.51-.34,7.57,5.84c0,0-7.26,1.21-8.16-1.15S344.7,230.91,344.7,230.91Z" fill="#ececec"/>
    <path id="Trazado_106863" data-name="Trazado 106863" d="M340.86,235.89s-.1-1.16.83-.71,4.18,4,.82,7.29c0,0-4.54-3.36-3.72-5.11S340.86,235.89,340.86,235.89Z" fill="#ececec"/>
    <path id="Trazado_106864" data-name="Trazado 106864" d="M328.84,237.53s.7-.92-.33-1-5.65,1.11-4.57,5.73c0,0,5.63-.43,5.87-2.34S328.84,237.53,328.84,237.53Z" fill="#ececec"/>
    <path id="Trazado_106865" data-name="Trazado 106865" d="M347.85,280.66H328.54l-2.08-21.14h23.48Z" fill="#f0f0f0"/>
    <rect id="Rectángulo_6656" data-name="Rectángulo 6656" width="25.54" height="4.67" transform="translate(325.43 257.19)" fill="#e7e7e7"/>
    <rect id="Rectángulo_6657" data-name="Rectángulo 6657" width="70.14" height="75.5" transform="translate(336.77 285.18)" fill="#e7e7e7"/>
    <rect id="Rectángulo_6658" data-name="Rectángulo 6658" width="8.82" height="90.91" transform="translate(408.81 279.56)" fill="#e7e7e7"/>
    <rect id="Rectángulo_6659" data-name="Rectángulo 6659" width="5.75" height="28.21" transform="translate(347.94 291.12)" fill="#fafafa"/>
    <rect id="Rectángulo_6660" data-name="Rectángulo 6660" width="5.75" height="28.21" transform="translate(371.77 291.12)" fill="#f5f5f5"/>
    <rect id="Rectángulo_6661" data-name="Rectángulo 6661" width="5.75" height="26.23" transform="translate(353.68 293.1)" fill="#f5f5f5"/>
    <rect id="Rectángulo_6662" data-name="Rectángulo 6662" width="5.75" height="26.23" transform="translate(366.02 293.1)" fill="#fafafa"/>
    <rect id="Rectángulo_6663" data-name="Rectángulo 6663" width="3.71" height="28.21" transform="translate(362.3 291.12)" fill="#ececec"/>
    <rect id="Rectángulo_6664" data-name="Rectángulo 6664" width="2.87" height="26.23" transform="translate(359.43 293.1)" fill="#fafafa"/>
    <rect id="Rectángulo_6665" data-name="Rectángulo 6665" width="5.75" height="28.21" transform="translate(377.51 291.12)" fill="#ececec"/>
    <rect id="Rectángulo_6666" data-name="Rectángulo 6666" width="5.75" height="26.23" transform="translate(383.26 293.1)" fill="#e7e7e7"/>
    <rect id="Rectángulo_6667" data-name="Rectángulo 6667" width="5.75" height="26.23" transform="translate(395.6 293.1)" fill="#e7e7e7"/>
    <rect id="Rectángulo_6668" data-name="Rectángulo 6668" width="3.71" height="28.21" transform="translate(391.88 291.12)" fill="#fafafa"/>
    <rect id="Rectángulo_6669" data-name="Rectángulo 6669" width="2.87" height="26.23" transform="translate(389.01 293.1)" fill="#ececec"/>
    <rect id="Rectángulo_6670" data-name="Rectángulo 6670" width="2.87" height="27.55" transform="translate(401.34 291.79)" fill="#fafafa"/>
    <rect id="Rectángulo_6671" data-name="Rectángulo 6671" width="5.75" height="28.21" transform="translate(404.22 357.15) rotate(180)" fill="#fafafa"/>
    <rect id="Rectángulo_6672" data-name="Rectángulo 6672" width="5.75" height="28.21" transform="translate(380.39 357.15) rotate(180)" fill="#fafafa"/>
    <rect id="Rectángulo_6673" data-name="Rectángulo 6673" width="5.75" height="26.23" transform="translate(398.47 357.15) rotate(180)" fill="#f0f0f0"/>
    <rect id="Rectángulo_6674" data-name="Rectángulo 6674" width="5.75" height="26.23" transform="translate(386.13 357.15) rotate(180)" fill="#ececec"/>
    <rect id="Rectángulo_6675" data-name="Rectángulo 6675" width="3.71" height="28.21" transform="translate(389.85 357.15) rotate(180)" fill="#fafafa"/>
    <rect id="Rectángulo_6676" data-name="Rectángulo 6676" width="2.87" height="26.23" transform="translate(392.72 357.15) rotate(180)" fill="#f5f5f5"/>
    <rect id="Rectángulo_6677" data-name="Rectángulo 6677" width="5.75" height="28.21" transform="translate(374.64 357.15) rotate(180)" fill="#ececec"/>
    <rect id="Rectángulo_6678" data-name="Rectángulo 6678" width="5.75" height="26.23" transform="translate(368.89 357.15) rotate(180)" fill="#f5f5f5"/>
    <rect id="Rectángulo_6679" data-name="Rectángulo 6679" width="5.75" height="26.23" transform="translate(356.56 357.15) rotate(180)" fill="#e7e7e7"/>
    <rect id="Rectángulo_6680" data-name="Rectángulo 6680" width="3.71" height="28.21" transform="translate(360.27 357.15) rotate(180)" fill="#fafafa"/>
    <rect id="Rectángulo_6681" data-name="Rectángulo 6681" width="3.71" height="28.21" transform="translate(347.94 357.15) rotate(180)" fill="#fafafa"/>
    <rect id="Rectángulo_6682" data-name="Rectángulo 6682" width="2.87" height="26.23" transform="translate(363.15 357.15) rotate(180)" fill="#ececec"/>
    <rect id="Rectángulo_6683" data-name="Rectángulo 6683" width="2.87" height="27.55" transform="translate(350.81 357.16) rotate(180)" fill="#f0f0f0"/>
    <path id="Trazado_106866" data-name="Trazado 106866" d="M406.56,279.56h-72v85.82h69.66v5.09h4.7V279.56Zm-2.35,77.59H339V324.07h65.23Zm0-37.78H339V287.79h65.23Z" fill="#f0f0f0"/>
    <rect id="Rectángulo_6684" data-name="Rectángulo 6684" width="70.14" height="75.5" transform="translate(336.66 360.68) rotate(180)" fill="#e7e7e7"/>
    <rect id="Rectángulo_6685" data-name="Rectángulo 6685" width="8.82" height="6.02" transform="translate(278.02 370.47) rotate(180)" fill="#e7e7e7"/>
    <rect id="Rectángulo_6686" data-name="Rectángulo 6686" width="5.75" height="28.21" transform="translate(334.29 319.34) rotate(180)" fill="#fafafa"/>
    <rect id="Rectángulo_6687" data-name="Rectángulo 6687" width="5.75" height="28.21" transform="translate(310.46 319.34) rotate(180)" fill="#f5f5f5"/>
    <rect id="Rectángulo_6688" data-name="Rectángulo 6688" width="5.75" height="26.23" transform="translate(328.54 319.34) rotate(180)" fill="#f5f5f5"/>
    <rect id="Rectángulo_6689" data-name="Rectángulo 6689" width="5.75" height="26.23" transform="translate(316.21 319.34) rotate(180)" fill="#fafafa"/>
    <rect id="Rectángulo_6690" data-name="Rectángulo 6690" width="3.71" height="28.21" transform="translate(319.92 319.34) rotate(180)" fill="#ececec"/>
    <rect id="Rectángulo_6691" data-name="Rectángulo 6691" width="2.87" height="26.23" transform="translate(322.8 319.34) rotate(180)" fill="#fafafa"/>
    <rect id="Rectángulo_6692" data-name="Rectángulo 6692" width="5.75" height="28.21" transform="translate(308.5 319.34) rotate(180)" fill="#ececec"/>
    <rect id="Rectángulo_6693" data-name="Rectángulo 6693" width="5.75" height="26.23" transform="translate(302.76 319.34) rotate(180)" fill="#e7e7e7"/>
    <rect id="Rectángulo_6694" data-name="Rectángulo 6694" width="5.75" height="26.23" transform="translate(290.43 319.34) rotate(180)" fill="#e7e7e7"/>
    <rect id="Rectángulo_6695" data-name="Rectángulo 6695" width="3.71" height="28.21" transform="translate(294.14 319.34) rotate(180)" fill="#fafafa"/>
    <rect id="Rectángulo_6696" data-name="Rectángulo 6696" width="2.87" height="26.23" transform="translate(297.01 319.34) rotate(180)" fill="#ececec"/>
    <rect id="Rectángulo_6697" data-name="Rectángulo 6697" width="2.87" height="27.55" transform="translate(284.68 319.33) rotate(180)" fill="#f5f5f5"/>
    <rect id="Rectángulo_6698" data-name="Rectángulo 6698" width="5.75" height="28.21" transform="translate(279.1 328.94)" fill="#fafafa"/>
    <rect id="Rectángulo_6699" data-name="Rectángulo 6699" width="5.75" height="28.21" transform="translate(302.93 328.94)" fill="#fafafa"/>
    <rect id="Rectángulo_6700" data-name="Rectángulo 6700" width="5.75" height="26.23" transform="translate(284.85 330.92)" fill="#f5f5f5"/>
    <rect id="Rectángulo_6701" data-name="Rectángulo 6701" width="5.75" height="26.23" transform="translate(297.18 330.92)" fill="#ececec"/>
    <rect id="Rectángulo_6702" data-name="Rectángulo 6702" width="3.71" height="28.21" transform="translate(293.47 328.94)" fill="#fafafa"/>
    <rect id="Rectángulo_6703" data-name="Rectángulo 6703" width="2.87" height="26.23" transform="translate(290.6 330.92)" fill="#f5f5f5"/>
    <rect id="Rectángulo_6704" data-name="Rectángulo 6704" width="5.75" height="28.21" transform="translate(304.89 328.94)" fill="#ececec"/>
    <rect id="Rectángulo_6705" data-name="Rectángulo 6705" width="5.75" height="26.23" transform="translate(310.64 330.92)" fill="#f5f5f5"/>
    <rect id="Rectángulo_6706" data-name="Rectángulo 6706" width="5.75" height="26.23" transform="translate(322.97 330.92)" fill="#e7e7e7"/>
    <rect id="Rectángulo_6707" data-name="Rectángulo 6707" width="3.71" height="28.21" transform="translate(319.26 328.94)" fill="#fafafa"/>
    <rect id="Rectángulo_6708" data-name="Rectángulo 6708" width="3.71" height="28.21" transform="translate(330.84 328.94)" fill="#fafafa"/>
    <rect id="Rectángulo_6709" data-name="Rectángulo 6709" width="2.87" height="26.23" transform="translate(316.38 330.92)" fill="#ececec"/>
    <rect id="Rectángulo_6710" data-name="Rectángulo 6710" width="2.87" height="27.55" transform="translate(328.72 329.6)" fill="#ececec"/>
    <path id="Trazado_106867" data-name="Trazado 106867" d="M264.51,279.56v90.91h4.71v-5.09h69.66V279.56Zm4.71,44.51h65.22v33.08H269.22Zm0-36.28h65.22v31.58H269.22Z" fill="#f0f0f0"/>
    <ellipse id="_Path_" data-name="&lt;Path&gt;" cx="179.41" cy="10.48" rx="179.41" ry="10.48" transform="translate(70.96 392)" fill="#f5f5f5"/>
    <path id="Trazado_106868" data-name="Trazado 106868" d="M381,312.75H255.88a4.31,4.31,0,0,1-4.34-4.62l10.51-184.65a4.94,4.94,0,0,1,4.86-4.61H392a4.3,4.3,0,0,1,4.33,4.61L385.84,308.13A4.94,4.94,0,0,1,381,312.75Z" fill="#344154"/>
    <path id="Trazado_106869" data-name="Trazado 106869" d="M381,312.75H255.88a4.31,4.31,0,0,1-4.34-4.62l10.51-184.65a4.94,4.94,0,0,1,4.86-4.61H392a4.3,4.3,0,0,1,4.33,4.61L385.84,308.13A4.94,4.94,0,0,1,381,312.75Z" opacity="0.3"/>
    <path id="Trazado_106870" data-name="Trazado 106870" d="M393.57,123.49,383.06,308.13a4.92,4.92,0,0,1-4.86,4.62H253.1a4.3,4.3,0,0,1-4.33-4.62l2.66-46.71,7.85-137.93a4.92,4.92,0,0,1,4.86-4.62h125.1a4.3,4.3,0,0,1,4.33,4.62Z" fill="#344154"/>
    <path id="Trazado_106871" data-name="Trazado 106871" d="M390.32,180.58l-7.26,127.56a4.93,4.93,0,0,1-4.85,4.6H253.1a4.3,4.3,0,0,1-4.33-4.6L256,180.58Z" fill="#fff" opacity="0.3"/>
    <path id="Trazado_106872" data-name="Trazado 106872" d="M378.1,172.86H269.13l1.64-28.69H379.73Z" fill="#fff" opacity="0.4"/>
    <path id="Trazado_106873" data-name="Trazado 106873" d="M374.8,130.99h5.68l-.52,9.05h-5.67Z" fill="#fff" opacity="0.2"/>
    <path id="Trazado_106874" data-name="Trazado 106874" d="M368.16,130.99h5.68l-.52,9.05h-5.68Z" fill="#fff" opacity="0.2"/>
    <path id="Trazado_106875" data-name="Trazado 106875" d="M361.51,130.99h5.68l-.51,9.05H361Z" fill="#fff" opacity="0.2"/>
    <path id="Trazado_106876" data-name="Trazado 106876" d="M354.87,130.99h5.68l-.52,9.05h-5.67Z" fill="#fff" opacity="0.2"/>
    <path id="Trazado_106877" data-name="Trazado 106877" d="M348.23,130.99h5.68l-.52,9.05h-5.68Z" fill="#fff" opacity="0.2"/>
    <path id="Trazado_106878" data-name="Trazado 106878" d="M341.58,130.99h5.68l-.51,9.05h-5.68Z" fill="#fff" opacity="0.2"/>
    <path id="Trazado_106879" data-name="Trazado 106879" d="M289.58,136.86h-18.4l.22-3.84h18.4Z" fill="#fff" opacity="0.3"/>
    <path id="Trazado_106880" data-name="Trazado 106880" d="M321.25,165.69l-.07,1.21h-7.05l.06-.94,4.22-3.83c1.09-1,1.33-1.61,1.36-2.22.06-1-.61-1.62-2-1.62a3.3,3.3,0,0,0-2.57,1.06l-.9-.82a4.82,4.82,0,0,1,3.67-1.48c2,0,3.3,1,3.2,2.72-.05.94-.39,1.79-1.79,3.06l-3.17,2.86Z" fill="#344154"/>
    <path id="Trazado_106881" data-name="Trazado 106881" d="M322.49,166a1,1,0,0,1,1-.95.86.86,0,0,1,.87.95,1,1,0,0,1-1,1,.89.89,0,0,1-.87-1Z" fill="#344154"/>
    <path id="Trazado_106882" data-name="Trazado 106882" d="M334.19,164.51h-1.86l-.14,2.39h-1.36l.14-2.39h-5.45l.06-1,5.4-6.37h1.51l-5.17,6.14h3.77l.12-2.11h1.32l-.13,2.11h1.87Z" fill="#344154"/>
    <path id="Trazado_106883" data-name="Trazado 106883" d="M335.19,162c.19-3.17,2-5,4.3-5s3.88,1.81,3.69,5-2,5-4.29,5S335,165.21,335.19,162Zm6.59,0c.15-2.49-.84-3.74-2.36-3.74s-2.68,1.25-2.83,3.74.84,3.75,2.38,3.75S341.63,164.52,341.78,162Z" fill="#344154"/>
    <path id="Trazado_106884" data-name="Trazado 106884" d="M344.53,162c.19-3.17,2-5,4.31-5s3.88,1.81,3.69,5-2,5-4.29,5S344.34,165.21,344.53,162Zm6.6,0c.15-2.49-.84-3.74-2.37-3.74s-2.68,1.25-2.83,3.74.84,3.75,2.38,3.75S351,164.52,351.13,162Z" fill="#344154"/>
    <path id="Trazado_106885" data-name="Trazado 106885" d="M353.44,166a1,1,0,0,1,1-.95.86.86,0,0,1,.87.95,1,1,0,0,1-1,1,.89.89,0,0,1-.87-1Z" fill="#344154"/>
    <path id="Trazado_106886" data-name="Trazado 106886" d="M364.63,164.15c-.1,1.77-1.68,2.86-4.07,2.86s-3.82-1.09-3.71-2.86a2.6,2.6,0,0,1,1.86-2.35,2.07,2.07,0,0,1-1.25-2.1c.1-1.63,1.58-2.65,3.69-2.65s3.5,1,3.4,2.65a2.39,2.39,0,0,1-1.51,2.1,2.25,2.25,0,0,1,1.59,2.35Zm-1.39,0c.06-1.07-.85-1.74-2.41-1.74s-2.52.67-2.58,1.74.82,1.78,2.37,1.78,2.55-.72,2.62-1.82Zm-4.39-4.36c-.06,1,.7,1.56,2,1.56s2.22-.6,2.27-1.56-.77-1.57-2.09-1.57-2.12.56-2.18,1.53Z" fill="#344154"/>
    <path id="Trazado_106887" data-name="Trazado 106887" d="M373.36,161.91c-.2,3.32-2.2,5.1-4.94,5.1a4.58,4.58,0,0,1-2.41-.57l.6-1.08a3.36,3.36,0,0,0,1.86.46c2,0,3.33-1.24,3.47-3.67v-.35a3.47,3.47,0,0,1-2.9,1.28c-1.95,0-3.28-1.16-3.17-3a3.38,3.38,0,0,1,3.64-3.08C372.16,157.05,373.54,158.81,373.36,161.91Zm-1.61-1.85c.06-1-.7-1.88-2.23-1.88a2.06,2.06,0,0,0-2.27,1.89c-.07,1.14.74,1.88,2.11,1.88A2.19,2.19,0,0,0,371.75,160.06Z" fill="#344154"/>
    <path id="Trazado_106888" data-name="Trazado 106888" d="M328.82,149l-.24,3.92H328l.21-3.44h-.9V149Z" fill="#344154"/>
    <path id="Trazado_106889" data-name="Trazado 106889" d="M329.46,152.54a.41.41,0,0,1,.41-.38.35.35,0,0,1,.35.38.42.42,0,0,1-.4.39.35.35,0,0,1-.36-.39Z" fill="#344154"/>
    <path id="Trazado_106890" data-name="Trazado 106890" d="M332.12,149l-.23,3.92h-.56l.2-3.44h-.89V149Z" fill="#344154"/>
    <path id="Trazado_106891" data-name="Trazado 106891" d="M332.87,150.93c.08-1.28.81-2,1.74-2s1.57.73,1.49,2-.81,2-1.73,2S332.79,152.21,332.87,150.93Zm2.67,0c.06-1-.34-1.51-1-1.51s-1.08.51-1.14,1.51.34,1.51,1,1.51S335.48,151.93,335.54,150.93Z" fill="#344154"/>
    <path id="Trazado_106892" data-name="Trazado 106892" d="M336.64,150.93c.08-1.28.81-2,1.74-2s1.57.73,1.5,2-.82,2-1.74,2S336.57,152.21,336.64,150.93Zm2.67,0c.06-1-.34-1.51-1-1.51s-1.08.51-1.14,1.51.34,1.51,1,1.51,1.08-.51,1.14-1.51Z" fill="#344154"/>
    <path id="Trazado_106893" data-name="Trazado 106893" d="M340.24,152.54a.41.41,0,0,1,.41-.38.35.35,0,0,1,.35.38.41.41,0,0,1-.4.39.36.36,0,0,1-.36-.39Z" fill="#344154"/>
    <path id="Trazado_106894" data-name="Trazado 106894" d="M344.76,151.78c0,.72-.68,1.16-1.65,1.16s-1.54-.44-1.5-1.16a1.06,1.06,0,0,1,.76-.95.81.81,0,0,1-.51-.84c0-.66.64-1.07,1.49-1.07s1.42.41,1.38,1.07a1,1,0,0,1-.61.84A.91.91,0,0,1,344.76,151.78Zm-.56,0c0-.44-.35-.71-1-.71s-1,.27-1.05.71.33.71,1,.71,1.02-.28,1.05-.72ZM342.42,150c0,.39.29.63.83.63s.9-.24.92-.63-.31-.63-.84-.63S342.45,149.62,342.42,150Z" fill="#344154"/>
    <path id="Trazado_106895" data-name="Trazado 106895" d="M345.33,150.93c.08-1.28.81-2,1.74-2s1.57.73,1.49,2-.81,2-1.73,2S345.25,152.21,345.33,150.93Zm2.67,0c.06-1-.34-1.51-1-1.51s-1.08.51-1.14,1.51.34,1.51,1,1.51S347.94,151.93,348,150.93Z" fill="#344154"/>
    <path id="Trazado_106896" data-name="Trazado 106896" d="M351.77,151.15h-1l-.06,1h-.47l.06-1h-1v-.44h1l.07-1h.47l-.06,1h1Z" fill="#344154"/>
    <path id="Trazado_106897" data-name="Trazado 106897" d="M353.68,149l-.23,3.92h-.56l.2-3.44h-.89V149Z" fill="#344154"/>
    <path id="Trazado_106898" data-name="Trazado 106898" d="M354.32,152.54a.41.41,0,0,1,.41-.38.35.35,0,0,1,.35.38.41.41,0,0,1-.4.39.36.36,0,0,1-.36-.39Z" fill="#344154"/>
    <path id="Trazado_106899" data-name="Trazado 106899" d="M358.43,151.74c0,.66-.56,1.2-1.57,1.2a2.14,2.14,0,0,1-1.43-.48l.29-.44a1.68,1.68,0,0,0,1.17.42c.59,0,.95-.27,1-.7s-.26-.68-.94-.68h-.32v-.39l1.07-1.22h-1.91v-.48h2.62v.38l-1.12,1.27C358.09,150.69,358.47,151.13,358.43,151.74Z" fill="#344154"/>
    <path id="Trazado_106900" data-name="Trazado 106900" d="M359,150.93c.08-1.28.81-2,1.74-2s1.57.73,1.5,2-.81,2-1.74,2S358.93,152.21,359,150.93Zm2.67,0c.06-1-.34-1.51-1-1.51s-1.08.51-1.14,1.51.34,1.51,1,1.51S361.61,151.93,361.67,150.93Z" fill="#344154"/>
    <path id="Trazado_106901" data-name="Trazado 106901" d="M362.78,150.93c.07-1.28.81-2,1.74-2s1.57.73,1.49,2-.81,2-1.73,2S362.7,152.21,362.78,150.93Zm2.66,0c.06-1-.34-1.51-.95-1.51s-1.09.51-1.15,1.51.34,1.51,1,1.51S365.38,151.93,365.44,150.93Z" fill="#344154"/>
    <path id="Trazado_106902" data-name="Trazado 106902" d="M366.37,152.54a.41.41,0,0,1,.41-.38.34.34,0,0,1,.35.38.4.4,0,0,1-.39.39.37.37,0,0,1-.37-.39Z" fill="#344154"/>
    <path id="Trazado_106903" data-name="Trazado 106903" d="M367.7,150.93c.07-1.28.81-2,1.74-2s1.57.73,1.49,2-.81,2-1.73,2S367.62,152.21,367.7,150.93Zm2.66,0c.07-1-.34-1.51-.95-1.51s-1.09.51-1.15,1.51.34,1.51,1,1.51,1.05-.51,1.1-1.51Z" fill="#344154"/>
    <path id="Trazado_106904" data-name="Trazado 106904" d="M374.42,150.88a1.94,1.94,0,0,1-2,2.06,1.79,1.79,0,0,1-1-.23l.24-.44a1.29,1.29,0,0,0,.75.19c.8,0,1.34-.5,1.4-1.49v-.14a1.39,1.39,0,0,1-1.17.52c-.79,0-1.33-.46-1.29-1.19a1.37,1.37,0,0,1,1.48-1.24C373.94,148.92,374.5,149.63,374.42,150.88Zm-.65-.75c0-.4-.28-.75-.9-.75a.83.83,0,0,0-.92.76c0,.46.3.76.86.76a.88.88,0,0,0,.96-.77Z" fill="#344154"/>
    <path id="Trazado_106905" data-name="Trazado 106905" d="M384.34,118.87c-11.84,29.44-48.27,101.62-132.91,142.55l7.85-137.93a4.92,4.92,0,0,1,4.86-4.62Z" fill="#fff" opacity="0.1"/>
    <g id="Grupo_60136" data-name="Grupo 60136">
      <path id="Trazado_106906" data-name="Trazado 106906" d="M376,188.87H362.27a2,2,0,0,0-1.95,1.85l-.27,4.75a1.73,1.73,0,0,0,1.74,1.85h13.68a2,2,0,0,0,1.95-1.85l.27-4.75a1.73,1.73,0,0,0-1.69-1.85Z" fill="#344154"/>
      <path id="Trazado_106907" data-name="Trazado 106907" d="M352.75,188.78H339.07a2,2,0,0,0-1.95,1.85l-.27,4.75a1.74,1.74,0,0,0,1.74,1.85h13.68a2,2,0,0,0,2-1.85l.27-4.75a1.73,1.73,0,0,0-1.79-1.85Z" fill="#344154"/>
      <path id="Trazado_106908" data-name="Trazado 106908" d="M375.2,202.06H361.52a2,2,0,0,0-1.95,1.85l-.27,4.75a1.73,1.73,0,0,0,1.74,1.85h13.68a2,2,0,0,0,1.95-1.85l.27-4.75a1.73,1.73,0,0,0-1.74-1.85Z" fill="#344154"/>
      <path id="Trazado_106909" data-name="Trazado 106909" d="M352,202H338.32a2,2,0,0,0-1.95,1.85l-.27,4.74a1.73,1.73,0,0,0,1.74,1.85h13.68a2,2,0,0,0,2-1.85l.27-4.74A1.72,1.72,0,0,0,352,202Z" fill="#344154"/>
      <path id="Trazado_106910" data-name="Trazado 106910" d="M328.79,202.06H315.11a2,2,0,0,0-1.95,1.85l-.27,4.75a1.73,1.73,0,0,0,1.74,1.85h13.68a2,2,0,0,0,1.95-1.85l.27-4.75a1.73,1.73,0,0,0-1.74-1.85Z" fill="#344154"/>
      <path id="Trazado_106911" data-name="Trazado 106911" d="M305.58,202.15H291.9A2,2,0,0,0,290,204l-.27,4.75a1.73,1.73,0,0,0,1.74,1.85H305.1a2,2,0,0,0,1.95-1.85l.27-4.75a1.73,1.73,0,0,0-1.74-1.85Z" fill="#344154"/>
      <path id="Trazado_106912" data-name="Trazado 106912" d="M282.37,202.23H268.69a2,2,0,0,0-1.94,1.85l-.28,4.75a1.74,1.74,0,0,0,1.74,1.85h13.68a2,2,0,0,0,1.95-1.85l.27-4.75a1.73,1.73,0,0,0-1.74-1.85Z" fill="#344154"/>
      <path id="Trazado_106913" data-name="Trazado 106913" d="M373.85,219.77h-13a2.34,2.34,0,0,0-2.31,2.19l-.39,6.7a2.05,2.05,0,0,0,2.07,2.19h13a2.34,2.34,0,0,0,2.31-2.19l.38-6.7a2,2,0,0,0-2.06-2.19Z" fill="#344154"/>
      <path id="Trazado_106914" data-name="Trazado 106914" d="M350.65,219.65h-13a2.35,2.35,0,0,0-2.31,2.2l-.38,6.7a2,2,0,0,0,2.06,2.19h13a2.34,2.34,0,0,0,2.31-2.19l.39-6.7a2.06,2.06,0,0,0-2.07-2.2Z" fill="#344154"/>
      <path id="Trazado_106915" data-name="Trazado 106915" d="M327.44,219.77h-13a2.34,2.34,0,0,0-2.31,2.19l-.38,6.7a2,2,0,0,0,2.06,2.19h13a2.34,2.34,0,0,0,2.31-2.19l.38-6.7a2,2,0,0,0-2.06-2.19Z" fill="#344154"/>
      <path id="Trazado_106916" data-name="Trazado 106916" d="M304.23,219.88h-13a2.34,2.34,0,0,0-2.31,2.2l-.39,6.69a2.06,2.06,0,0,0,2.07,2.2h13a2.35,2.35,0,0,0,2.31-2.2l.38-6.69a2,2,0,0,0-2.06-2.2Z" fill="#344154"/>
      <path id="Trazado_106917" data-name="Trazado 106917" d="M281,220H268a2.36,2.36,0,0,0-2.32,2.2l-.38,6.7a2,2,0,0,0,2.07,2.19h13a2.34,2.34,0,0,0,2.31-2.19l.38-6.7A2,2,0,0,0,281,220Z" fill="#344154"/>
      <path id="Trazado_106918" data-name="Trazado 106918" d="M346.79,287.51h-13a2.34,2.34,0,0,0-2.31,2.2l-.39,6.69a2.05,2.05,0,0,0,2.07,2.2h13a2.34,2.34,0,0,0,2.31-2.2l.38-6.69a2,2,0,0,0-2.06-2.2Z" fill="#344154"/>
      <path id="Trazado_106919" data-name="Trazado 106919" d="M323.58,287.62h-13a2.36,2.36,0,0,0-2.32,2.2l-.38,6.7a2,2,0,0,0,2.07,2.19h13a2.34,2.34,0,0,0,2.31-2.19l.38-6.7a2,2,0,0,0-2.06-2.2Z" fill="#344154"/>
      <path id="Trazado_106920" data-name="Trazado 106920" d="M300.37,287.74h-13a2.35,2.35,0,0,0-2.32,2.19l-.38,6.7a2.06,2.06,0,0,0,2.06,2.2h13a2.36,2.36,0,0,0,2.31-2.2l.38-6.7a2,2,0,0,0-2.05-2.19Z" fill="#344154"/>
      <path id="Trazado_106921" data-name="Trazado 106921" d="M277.16,287.85h-13a2.35,2.35,0,0,0-2.31,2.2l-.38,6.69a2,2,0,0,0,2.06,2.2h13a2.35,2.35,0,0,0,2.32-2.2l.38-6.69a2,2,0,0,0-2.07-2.2Z" fill="#344154"/>
      <path id="Trazado_106922" data-name="Trazado 106922" d="M371,270.66H358a2.34,2.34,0,0,0-2.31,2.2l-.33,5.82-.05.87-1,17a2,2,0,0,0,2.07,2.19h13a2.35,2.35,0,0,0,2.31-2.19l1-17v-.87l.34-5.82a2.05,2.05,0,0,0-2.03-2.2Z" fill="#344154"/>
      <path id="Trazado_106923" data-name="Trazado 106923" d="M347.75,270.55h-13a2.35,2.35,0,0,0-2.31,2.19l-.38,6.7a2,2,0,0,0,2.06,2.19h13a2.35,2.35,0,0,0,2.32-2.19l.38-6.7a2,2,0,0,0-2.07-2.19Z" fill="#344154"/>
      <path id="Trazado_106924" data-name="Trazado 106924" d="M324.54,270.66h-13a2.34,2.34,0,0,0-2.31,2.2l-.38,6.69a2,2,0,0,0,2.06,2.2h13a2.36,2.36,0,0,0,2.32-2.2l.38-6.69a2.05,2.05,0,0,0-2.07-2.2Z" fill="#344154"/>
      <path id="Trazado_106925" data-name="Trazado 106925" d="M301.33,270.77h-13A2.35,2.35,0,0,0,286,273l-.38,6.7a2,2,0,0,0,2.06,2.19h13a2.34,2.34,0,0,0,2.31-2.19l.39-6.7a2.06,2.06,0,0,0-2.05-2.23Z" fill="#344154"/>
      <path id="Trazado_106926" data-name="Trazado 106926" d="M278.12,270.89h-13a2.34,2.34,0,0,0-2.31,2.19l-.38,6.7A2,2,0,0,0,264.5,282h13a2.34,2.34,0,0,0,2.31-2.19l.38-6.7a2,2,0,0,0-2.07-2.22Z" fill="#344154"/>
      <path id="Trazado_106927" data-name="Trazado 106927" d="M371.92,253.7h-13a2.35,2.35,0,0,0-2.32,2.19l-.38,6.7a2,2,0,0,0,2.07,2.19h13a2.34,2.34,0,0,0,2.31-2.19l.38-6.7a2,2,0,0,0-2.06-2.19Z" fill="#344154"/>
      <path id="Trazado_106928" data-name="Trazado 106928" d="M348.72,253.58h-13a2.35,2.35,0,0,0-2.31,2.2l-.38,6.69a2,2,0,0,0,2.06,2.2h13a2.34,2.34,0,0,0,2.31-2.2l.38-6.69a2,2,0,0,0-2.06-2.2Z" fill="#344154"/>
      <path id="Trazado_106929" data-name="Trazado 106929" d="M325.51,253.7h-13a2.34,2.34,0,0,0-2.31,2.19l-.39,6.7a2,2,0,0,0,2.07,2.19h13a2.34,2.34,0,0,0,2.31-2.19l.38-6.7a2,2,0,0,0-2.06-2.19Z" fill="#344154"/>
      <path id="Trazado_106930" data-name="Trazado 106930" d="M302.3,253.81h-13A2.35,2.35,0,0,0,287,256l-.38,6.7a2.06,2.06,0,0,0,2.07,2.2h13a2.35,2.35,0,0,0,2.31-2.2l.38-6.7a2,2,0,0,0-2.08-2.19Z" fill="#344154"/>
      <path id="Trazado_106931" data-name="Trazado 106931" d="M279.09,253.92h-13a2.35,2.35,0,0,0-2.32,2.2l-.38,6.69a2,2,0,0,0,2.06,2.2h13a2.35,2.35,0,0,0,2.31-2.2l.38-6.69a2,2,0,0,0-2.05-2.2Z" fill="#344154"/>
      <path id="Trazado_106932" data-name="Trazado 106932" d="M372.88,236.73h-13a2.35,2.35,0,0,0-2.31,2.2l-.38,6.69a2,2,0,0,0,2.06,2.2h13a2.35,2.35,0,0,0,2.32-2.2l.38-6.69a2.05,2.05,0,0,0-2.07-2.2Z" fill="#344154"/>
      <path id="Trazado_106933" data-name="Trazado 106933" d="M349.69,236.62h-13a2.35,2.35,0,0,0-2.32,2.19l-.38,6.7a2.06,2.06,0,0,0,2.06,2.2h13a2.36,2.36,0,0,0,2.31-2.2l.38-6.7a2,2,0,0,0-2.05-2.19Z" fill="#344154"/>
      <path id="Trazado_106934" data-name="Trazado 106934" d="M326.48,236.73h-13a2.35,2.35,0,0,0-2.31,2.2l-.38,6.69a2,2,0,0,0,2.06,2.2h13a2.35,2.35,0,0,0,2.32-2.2l.38-6.69a2,2,0,0,0-2.07-2.2Z" fill="#344154"/>
      <path id="Trazado_106935" data-name="Trazado 106935" d="M303.26,236.84h-13A2.35,2.35,0,0,0,288,239l-.38,6.7a2,2,0,0,0,2.06,2.19h13A2.35,2.35,0,0,0,305,245.7l.38-6.7a2.06,2.06,0,0,0-2.12-2.16Z" fill="#344154"/>
      <path id="Trazado_106936" data-name="Trazado 106936" d="M280.05,237h-13a2.34,2.34,0,0,0-2.31,2.19l-.38,6.7a2,2,0,0,0,2.06,2.2h13a2.34,2.34,0,0,0,2.31-2.2l.39-6.7a2,2,0,0,0-2.07-2.19Z" fill="#344154"/>
    </g>
    <path id="Trazado_106937" data-name="Trazado 106937" d="M375,188.87H361.35a2,2,0,0,0-2,1.85l-.27,4.75a1.73,1.73,0,0,0,1.74,1.85H374.5a2,2,0,0,0,1.95-1.85l.27-4.75a1.73,1.73,0,0,0-1.72-1.85Z" fill="#344154"/>
    <path id="Trazado_106938" data-name="Trazado 106938" d="M351.83,188.78H338.15a2,2,0,0,0-1.95,1.85l-.27,4.75a1.73,1.73,0,0,0,1.74,1.85h13.68a2,2,0,0,0,1.95-1.85l.27-4.75a1.73,1.73,0,0,0-1.74-1.85Z" fill="#344154"/>
    <path id="Trazado_106939" data-name="Trazado 106939" d="M374.28,202.06H360.6a2,2,0,0,0-2,1.85l-.27,4.75a1.73,1.73,0,0,0,1.74,1.85H373.8a2,2,0,0,0,1.95-1.85l.27-4.75a1.73,1.73,0,0,0-1.74-1.85Z" fill="#344154"/>
    <path id="Trazado_106940" data-name="Trazado 106940" d="M351.08,202H337.4a2,2,0,0,0-1.95,1.85l-.27,4.74a1.72,1.72,0,0,0,1.74,1.85H350.6a2,2,0,0,0,1.95-1.85l.27-4.74a1.73,1.73,0,0,0-1.74-1.85Z" fill="#344154"/>
    <path id="Trazado_106941" data-name="Trazado 106941" d="M327.87,202.06H314.19a2,2,0,0,0-1.95,1.85l-.27,4.75a1.73,1.73,0,0,0,1.74,1.85h13.68a2,2,0,0,0,1.95-1.85l.27-4.75a1.73,1.73,0,0,0-1.74-1.85Z" fill="#344154"/>
    <path id="Trazado_106942" data-name="Trazado 106942" d="M304.66,202.15H291a2,2,0,0,0-2,1.85l-.27,4.75a1.73,1.73,0,0,0,1.74,1.85h13.68a2,2,0,0,0,1.95-1.85l.27-4.75a1.73,1.73,0,0,0-1.71-1.85Z" fill="#344154"/>
    <path id="Trazado_106943" data-name="Trazado 106943" d="M281.45,202.23H267.77a2,2,0,0,0-1.95,1.85l-.27,4.75a1.73,1.73,0,0,0,1.74,1.85H281a2,2,0,0,0,1.95-1.85l.27-4.75a1.73,1.73,0,0,0-1.77-1.85Z" fill="#344154"/>
    <path id="Trazado_106944" data-name="Trazado 106944" d="M372.93,219.77h-13a2.35,2.35,0,0,0-2.31,2.19l-.38,6.7a2,2,0,0,0,2.06,2.19h13a2.35,2.35,0,0,0,2.32-2.19L375,222a2,2,0,0,0-2.07-2.23Z" fill="#344154"/>
    <path id="Trazado_106945" data-name="Trazado 106945" d="M349.73,219.65h-13a2.36,2.36,0,0,0-2.32,2.2l-.38,6.7a2,2,0,0,0,2.06,2.19h13a2.35,2.35,0,0,0,2.31-2.19l.38-6.7a2,2,0,0,0-2.05-2.2Z" fill="#344154"/>
    <path id="Trazado_106946" data-name="Trazado 106946" d="M326.52,219.77h-13a2.35,2.35,0,0,0-2.31,2.19l-.38,6.7a2,2,0,0,0,2.06,2.19h13a2.35,2.35,0,0,0,2.32-2.19l.38-6.7a2,2,0,0,0-2.07-2.19Z" fill="#344154"/>
    <path id="Trazado_106947" data-name="Trazado 106947" d="M303.3,219.88h-13a2.34,2.34,0,0,0-2.31,2.2l-.38,6.69a2,2,0,0,0,2.06,2.2h13a2.36,2.36,0,0,0,2.32-2.2l.38-6.69a2.05,2.05,0,0,0-2.07-2.2Z" fill="#344154"/>
    <path id="Trazado_106948" data-name="Trazado 106948" d="M280.09,220h-13a2.35,2.35,0,0,0-2.31,2.2l-.38,6.7a2,2,0,0,0,2.06,2.19h13a2.35,2.35,0,0,0,2.32-2.19l.38-6.7a2.06,2.06,0,0,0-2.07-2.2Z" fill="#344154"/>
    <path id="Trazado_106949" data-name="Trazado 106949" d="M345.86,287.51h-13a2.34,2.34,0,0,0-2.31,2.2l-.38,6.69a2,2,0,0,0,2.06,2.2h13a2.35,2.35,0,0,0,2.32-2.2l.38-6.69a2.05,2.05,0,0,0-2.07-2.2Z" fill="#344154"/>
    <path id="Trazado_106950" data-name="Trazado 106950" d="M322.65,287.62h-13a2.35,2.35,0,0,0-2.31,2.2l-.38,6.7a2,2,0,0,0,2.06,2.19h13a2.34,2.34,0,0,0,2.31-2.19l.39-6.7a2.06,2.06,0,0,0-2.07-2.2Z" fill="#344154"/>
    <path id="Trazado_106951" data-name="Trazado 106951" d="M299.44,287.74h-13a2.34,2.34,0,0,0-2.31,2.19l-.38,6.7a2,2,0,0,0,2.06,2.2h13a2.35,2.35,0,0,0,2.31-2.2l.38-6.7a2,2,0,0,0-2.06-2.19Z" fill="#344154"/>
    <path id="Trazado_106952" data-name="Trazado 106952" d="M276.23,287.85h-13a2.34,2.34,0,0,0-2.31,2.2l-.39,6.69a2.06,2.06,0,0,0,2.07,2.2h13a2.34,2.34,0,0,0,2.31-2.2l.38-6.69a2,2,0,0,0-2.06-2.2Z" fill="#344154"/>
    <path id="Trazado_106953" data-name="Trazado 106953" d="M370,270.66H357a2.35,2.35,0,0,0-2.32,2.2l-.33,5.82-.05.87-1,17a2,2,0,0,0,2.06,2.19h13a2.34,2.34,0,0,0,2.31-2.19l1-17,.05-.87.33-5.82a2,2,0,0,0-2.05-2.2Z" fill="#344154"/>
    <path id="Trazado_106954" data-name="Trazado 106954" d="M346.83,270.55h-13a2.34,2.34,0,0,0-2.31,2.19l-.39,6.7a2.05,2.05,0,0,0,2.07,2.19h13a2.34,2.34,0,0,0,2.31-2.19l.38-6.7a2,2,0,0,0-2.06-2.19Z" fill="#344154"/>
    <path id="Trazado_106955" data-name="Trazado 106955" d="M323.62,270.66h-13a2.35,2.35,0,0,0-2.32,2.2l-.38,6.69a2.06,2.06,0,0,0,2.07,2.2h13a2.35,2.35,0,0,0,2.31-2.2l.38-6.69a2,2,0,0,0-2.06-2.2Z" fill="#344154"/>
    <path id="Trazado_106956" data-name="Trazado 106956" d="M300.41,270.77h-13a2.36,2.36,0,0,0-2.32,2.2l-.38,6.7a2,2,0,0,0,2.07,2.19h13a2.35,2.35,0,0,0,2.31-2.19l.38-6.7a2,2,0,0,0-2.06-2.2Z" fill="#344154"/>
    <path id="Trazado_106957" data-name="Trazado 106957" d="M277.2,270.89h-13a2.35,2.35,0,0,0-2.32,2.19l-.38,6.7a2,2,0,0,0,2.06,2.19h13a2.35,2.35,0,0,0,2.31-2.19l.38-6.7a2,2,0,0,0-2.05-2.19Z" fill="#344154"/>
    <path id="Trazado_106958" data-name="Trazado 106958" d="M371,253.7H358a2.34,2.34,0,0,0-2.31,2.19l-.38,6.7a2,2,0,0,0,2.06,2.19h13a2.35,2.35,0,0,0,2.32-2.19l.38-6.7A2,2,0,0,0,371,253.7Z" fill="#344154"/>
    <path id="Trazado_106959" data-name="Trazado 106959" d="M347.8,253.58h-13a2.36,2.36,0,0,0-2.31,2.2l-.38,6.69a2,2,0,0,0,2.06,2.2h13a2.35,2.35,0,0,0,2.32-2.2l.38-6.69a2.06,2.06,0,0,0-2.07-2.2Z" fill="#344154"/>
    <path id="Trazado_106960" data-name="Trazado 106960" d="M324.58,253.7h-13a2.34,2.34,0,0,0-2.31,2.19l-.38,6.7a2,2,0,0,0,2.06,2.19h13a2.35,2.35,0,0,0,2.32-2.19l.38-6.7a2,2,0,0,0-2.07-2.19Z" fill="#344154"/>
    <path id="Trazado_106961" data-name="Trazado 106961" d="M301.37,253.81h-13a2.34,2.34,0,0,0-2.31,2.19l-.38,6.7a2,2,0,0,0,2.06,2.2h13a2.36,2.36,0,0,0,2.32-2.2l.38-6.7a2,2,0,0,0-2.07-2.19Z" fill="#344154"/>
    <path id="Trazado_106962" data-name="Trazado 106962" d="M278.16,253.92h-13a2.34,2.34,0,0,0-2.31,2.2l-.38,6.69a2,2,0,0,0,2.06,2.2h13a2.34,2.34,0,0,0,2.31-2.2l.39-6.69a2.06,2.06,0,0,0-2.07-2.2Z" fill="#344154"/>
    <path id="Trazado_106963" data-name="Trazado 106963" d="M372,236.73H359a2.34,2.34,0,0,0-2.31,2.2l-.39,6.69a2.05,2.05,0,0,0,2.07,2.2h13a2.34,2.34,0,0,0,2.31-2.2l.38-6.69a2,2,0,0,0-2.06-2.2Z" fill="#344154"/>
    <path id="Trazado_106964" data-name="Trazado 106964" d="M348.76,236.62h-13a2.34,2.34,0,0,0-2.31,2.19l-.38,6.7a2,2,0,0,0,2.06,2.2h13a2.35,2.35,0,0,0,2.31-2.2l.38-6.7a2,2,0,0,0-2.06-2.19Z" fill="#344154"/>
    <path id="Trazado_106965" data-name="Trazado 106965" d="M325.55,236.73h-13a2.34,2.34,0,0,0-2.31,2.2l-.39,6.69a2.06,2.06,0,0,0,2.07,2.2h13a2.34,2.34,0,0,0,2.31-2.2l.38-6.69a2,2,0,0,0-2.06-2.2Z" fill="#344154"/>
    <path id="Trazado_106966" data-name="Trazado 106966" d="M302.34,236.84h-13A2.36,2.36,0,0,0,287,239l-.38,6.7a2,2,0,0,0,2.07,2.19h13A2.34,2.34,0,0,0,304,245.7l.38-6.7a2,2,0,0,0-2.04-2.16Z" fill="#344154"/>
    <path id="Trazado_106967" data-name="Trazado 106967" d="M279.13,237h-13a2.35,2.35,0,0,0-2.32,2.19l-.38,6.7a2.06,2.06,0,0,0,2.07,2.2h13a2.36,2.36,0,0,0,2.31-2.2l.38-6.7a2,2,0,0,0-2.06-2.19Z" fill="#344154"/>
    <g id="Grupo_60137" data-name="Grupo 60137" opacity="0.3">
      <path id="Trazado_106968" data-name="Trazado 106968" d="M375,188.87H361.35a2,2,0,0,0-2,1.85l-.27,4.75a1.73,1.73,0,0,0,1.74,1.85H374.5a2,2,0,0,0,1.95-1.85l.27-4.75a1.73,1.73,0,0,0-1.72-1.85Z" fill="#fff"/>
      <path id="Trazado_106969" data-name="Trazado 106969" d="M351.83,188.78H338.15a2,2,0,0,0-1.95,1.85l-.27,4.75a1.73,1.73,0,0,0,1.74,1.85h13.68a2,2,0,0,0,1.95-1.85l.27-4.75a1.73,1.73,0,0,0-1.74-1.85Z" fill="#fff"/>
      <path id="Trazado_106970" data-name="Trazado 106970" d="M374.28,202.06H360.6a2,2,0,0,0-2,1.85l-.27,4.75a1.73,1.73,0,0,0,1.74,1.85H373.8a2,2,0,0,0,1.95-1.85l.27-4.75a1.73,1.73,0,0,0-1.74-1.85Z" fill="#fff"/>
      <path id="Trazado_106971" data-name="Trazado 106971" d="M351.08,202H337.4a2,2,0,0,0-1.95,1.85l-.27,4.74a1.72,1.72,0,0,0,1.74,1.85H350.6a2,2,0,0,0,1.95-1.85l.27-4.74a1.73,1.73,0,0,0-1.74-1.85Z" fill="#fff"/>
      <path id="Trazado_106972" data-name="Trazado 106972" d="M327.87,202.06H314.19a2,2,0,0,0-1.95,1.85l-.27,4.75a1.73,1.73,0,0,0,1.74,1.85h13.68a2,2,0,0,0,1.95-1.85l.27-4.75a1.73,1.73,0,0,0-1.74-1.85Z" fill="#fff"/>
      <path id="Trazado_106973" data-name="Trazado 106973" d="M304.66,202.15H291a2,2,0,0,0-2,1.85l-.27,4.75a1.73,1.73,0,0,0,1.74,1.85h13.68a2,2,0,0,0,1.95-1.85l.27-4.75a1.73,1.73,0,0,0-1.71-1.85Z" fill="#fff"/>
      <path id="Trazado_106974" data-name="Trazado 106974" d="M281.45,202.23H267.77a2,2,0,0,0-1.95,1.85l-.27,4.75a1.73,1.73,0,0,0,1.74,1.85H281a2,2,0,0,0,1.95-1.85l.27-4.75a1.73,1.73,0,0,0-1.77-1.85Z" fill="#fff"/>
      <path id="Trazado_106975" data-name="Trazado 106975" d="M372.93,219.77h-13a2.35,2.35,0,0,0-2.31,2.19l-.38,6.7a2,2,0,0,0,2.06,2.19h13a2.35,2.35,0,0,0,2.32-2.19L375,222a2,2,0,0,0-2.07-2.23Z" fill="#fff"/>
      <path id="Trazado_106976" data-name="Trazado 106976" d="M349.73,219.65h-13a2.36,2.36,0,0,0-2.32,2.2l-.38,6.7a2,2,0,0,0,2.06,2.19h13a2.35,2.35,0,0,0,2.31-2.19l.38-6.7a2,2,0,0,0-2.05-2.2Z" fill="#fff"/>
      <path id="Trazado_106977" data-name="Trazado 106977" d="M326.52,219.77h-13a2.35,2.35,0,0,0-2.31,2.19l-.38,6.7a2,2,0,0,0,2.06,2.19h13a2.35,2.35,0,0,0,2.32-2.19l.38-6.7a2,2,0,0,0-2.07-2.19Z" fill="#fff"/>
      <path id="Trazado_106978" data-name="Trazado 106978" d="M303.3,219.88h-13a2.34,2.34,0,0,0-2.31,2.2l-.38,6.69a2,2,0,0,0,2.06,2.2h13a2.36,2.36,0,0,0,2.32-2.2l.38-6.69a2.05,2.05,0,0,0-2.07-2.2Z" fill="#fff"/>
      <path id="Trazado_106979" data-name="Trazado 106979" d="M280.09,220h-13a2.35,2.35,0,0,0-2.31,2.2l-.38,6.7a2,2,0,0,0,2.06,2.19h13a2.35,2.35,0,0,0,2.32-2.19l.38-6.7a2.06,2.06,0,0,0-2.07-2.2Z" fill="#fff"/>
      <path id="Trazado_106980" data-name="Trazado 106980" d="M345.86,287.51h-13a2.34,2.34,0,0,0-2.31,2.2l-.38,6.69a2,2,0,0,0,2.06,2.2h13a2.35,2.35,0,0,0,2.32-2.2l.38-6.69a2.05,2.05,0,0,0-2.07-2.2Z" fill="#fff"/>
      <path id="Trazado_106981" data-name="Trazado 106981" d="M322.65,287.62h-13a2.35,2.35,0,0,0-2.31,2.2l-.38,6.7a2,2,0,0,0,2.06,2.19h13a2.34,2.34,0,0,0,2.31-2.19l.39-6.7a2.06,2.06,0,0,0-2.07-2.2Z" fill="#fff"/>
      <path id="Trazado_106982" data-name="Trazado 106982" d="M299.44,287.74h-13a2.34,2.34,0,0,0-2.31,2.19l-.38,6.7a2,2,0,0,0,2.06,2.2h13a2.35,2.35,0,0,0,2.31-2.2l.38-6.7a2,2,0,0,0-2.06-2.19Z" fill="#fff"/>
      <path id="Trazado_106983" data-name="Trazado 106983" d="M276.23,287.85h-13a2.34,2.34,0,0,0-2.31,2.2l-.39,6.69a2.06,2.06,0,0,0,2.07,2.2h13a2.34,2.34,0,0,0,2.31-2.2l.38-6.69a2,2,0,0,0-2.06-2.2Z" fill="#fff"/>
      <path id="Trazado_106984" data-name="Trazado 106984" d="M370,270.66H357a2.35,2.35,0,0,0-2.32,2.2l-.33,5.82-.05.87-1,17a2,2,0,0,0,2.06,2.19h13a2.34,2.34,0,0,0,2.31-2.19l1-17,.05-.87.33-5.82a2,2,0,0,0-2.05-2.2Z" fill="#fff"/>
      <path id="Trazado_106985" data-name="Trazado 106985" d="M346.83,270.55h-13a2.34,2.34,0,0,0-2.31,2.19l-.39,6.7a2.05,2.05,0,0,0,2.07,2.19h13a2.34,2.34,0,0,0,2.31-2.19l.38-6.7a2,2,0,0,0-2.06-2.19Z" fill="#fff"/>
      <path id="Trazado_106986" data-name="Trazado 106986" d="M323.62,270.66h-13a2.35,2.35,0,0,0-2.32,2.2l-.38,6.69a2.06,2.06,0,0,0,2.07,2.2h13a2.35,2.35,0,0,0,2.31-2.2l.38-6.69a2,2,0,0,0-2.06-2.2Z" fill="#fff"/>
      <path id="Trazado_106987" data-name="Trazado 106987" d="M300.41,270.77h-13a2.36,2.36,0,0,0-2.32,2.2l-.38,6.7a2,2,0,0,0,2.07,2.19h13a2.35,2.35,0,0,0,2.31-2.19l.38-6.7a2,2,0,0,0-2.06-2.2Z" fill="#fff"/>
      <path id="Trazado_106988" data-name="Trazado 106988" d="M277.2,270.89h-13a2.35,2.35,0,0,0-2.32,2.19l-.38,6.7a2,2,0,0,0,2.06,2.19h13a2.35,2.35,0,0,0,2.31-2.19l.38-6.7a2,2,0,0,0-2.05-2.19Z" fill="#fff"/>
      <path id="Trazado_106989" data-name="Trazado 106989" d="M371,253.7H358a2.34,2.34,0,0,0-2.31,2.19l-.38,6.7a2,2,0,0,0,2.06,2.19h13a2.35,2.35,0,0,0,2.32-2.19l.38-6.7A2,2,0,0,0,371,253.7Z" fill="#fff"/>
      <path id="Trazado_106990" data-name="Trazado 106990" d="M347.8,253.58h-13a2.36,2.36,0,0,0-2.31,2.2l-.38,6.69a2,2,0,0,0,2.06,2.2h13a2.35,2.35,0,0,0,2.32-2.2l.38-6.69a2.06,2.06,0,0,0-2.07-2.2Z" fill="#fff"/>
      <path id="Trazado_106991" data-name="Trazado 106991" d="M324.58,253.7h-13a2.34,2.34,0,0,0-2.31,2.19l-.38,6.7a2,2,0,0,0,2.06,2.19h13a2.35,2.35,0,0,0,2.32-2.19l.38-6.7a2,2,0,0,0-2.07-2.19Z" fill="#fff"/>
      <path id="Trazado_106992" data-name="Trazado 106992" d="M301.37,253.81h-13a2.34,2.34,0,0,0-2.31,2.19l-.38,6.7a2,2,0,0,0,2.06,2.2h13a2.36,2.36,0,0,0,2.32-2.2l.38-6.7a2,2,0,0,0-2.07-2.19Z" fill="#fff"/>
      <path id="Trazado_106993" data-name="Trazado 106993" d="M278.16,253.92h-13a2.34,2.34,0,0,0-2.31,2.2l-.38,6.69a2,2,0,0,0,2.06,2.2h13a2.34,2.34,0,0,0,2.31-2.2l.39-6.69a2.06,2.06,0,0,0-2.07-2.2Z" fill="#fff"/>
      <path id="Trazado_106994" data-name="Trazado 106994" d="M372,236.73H359a2.34,2.34,0,0,0-2.31,2.2l-.39,6.69a2.05,2.05,0,0,0,2.07,2.2h13a2.34,2.34,0,0,0,2.31-2.2l.38-6.69a2,2,0,0,0-2.06-2.2Z" fill="#fff"/>
      <path id="Trazado_106995" data-name="Trazado 106995" d="M348.76,236.62h-13a2.34,2.34,0,0,0-2.31,2.19l-.38,6.7a2,2,0,0,0,2.06,2.2h13a2.35,2.35,0,0,0,2.31-2.2l.38-6.7a2,2,0,0,0-2.06-2.19Z" fill="#fff"/>
      <path id="Trazado_106996" data-name="Trazado 106996" d="M325.55,236.73h-13a2.34,2.34,0,0,0-2.31,2.2l-.39,6.69a2.06,2.06,0,0,0,2.07,2.2h13a2.34,2.34,0,0,0,2.31-2.2l.38-6.69a2,2,0,0,0-2.06-2.2Z" fill="#fff"/>
      <path id="Trazado_106997" data-name="Trazado 106997" d="M302.34,236.84h-13A2.36,2.36,0,0,0,287,239l-.38,6.7a2,2,0,0,0,2.07,2.19h13A2.34,2.34,0,0,0,304,245.7l.38-6.7a2,2,0,0,0-2.04-2.16Z" fill="#fff"/>
      <path id="Trazado_106998" data-name="Trazado 106998" d="M279.13,237h-13a2.35,2.35,0,0,0-2.32,2.19l-.38,6.7a2.06,2.06,0,0,0,2.07,2.2h13a2.36,2.36,0,0,0,2.31-2.2l.38-6.7a2,2,0,0,0-2.06-2.19Z" fill="#fff"/>
    </g>
    <g id="Grupo_60138" data-name="Grupo 60138" opacity="0.4">
      <path id="Trazado_106999" data-name="Trazado 106999" d="M374.55,197.32H360.87a1.73,1.73,0,0,1-1.74-1.85l.27-4.75a2,2,0,0,1,2-1.85H375a1.73,1.73,0,0,1,1.74,1.85l-.27,4.75A2,2,0,0,1,374.55,197.32Z"/>
      <path id="Trazado_107000" data-name="Trazado 107000" d="M351.35,197.23H337.67a1.73,1.73,0,0,1-1.74-1.85l.27-4.75a2,2,0,0,1,1.95-1.85h13.68a1.73,1.73,0,0,1,1.74,1.85l-.27,4.75A2,2,0,0,1,351.35,197.23Z"/>
    </g>
    <g id="Grupo_60139" data-name="Grupo 60139" opacity="0.4">
      <path id="Trazado_107001" data-name="Trazado 107001" d="M373.8,210.51H360.12a1.73,1.73,0,0,1-1.74-1.85l.27-4.75a2,2,0,0,1,2-1.85h13.68a1.73,1.73,0,0,1,1.74,1.85l-.27,4.75A2,2,0,0,1,373.8,210.51Z"/>
      <path id="Trazado_107002" data-name="Trazado 107002" d="M350.6,210.42H336.92a1.72,1.72,0,0,1-1.74-1.85l.27-4.74A2,2,0,0,1,337.4,202h13.68a1.73,1.73,0,0,1,1.74,1.85l-.27,4.74A2,2,0,0,1,350.6,210.42Z"/>
      <path id="Trazado_107003" data-name="Trazado 107003" d="M327.39,210.51H313.71a1.73,1.73,0,0,1-1.74-1.85l.27-4.75a2,2,0,0,1,1.95-1.85h13.68a1.73,1.73,0,0,1,1.74,1.85l-.27,4.75A2,2,0,0,1,327.39,210.51Z"/>
      <path id="Trazado_107004" data-name="Trazado 107004" d="M304.18,210.6H290.5a1.73,1.73,0,0,1-1.74-1.85L289,204a2,2,0,0,1,2-1.85h13.68A1.73,1.73,0,0,1,306.4,204l-.27,4.75A2,2,0,0,1,304.18,210.6Z"/>
      <path id="Trazado_107005" data-name="Trazado 107005" d="M281,210.68H267.29a1.73,1.73,0,0,1-1.74-1.85l.27-4.75a2,2,0,0,1,1.95-1.85h13.68a1.73,1.73,0,0,1,1.74,1.85l-.27,4.75A2,2,0,0,1,281,210.68Z"/>
    </g>
    <path id="Trazado_107006" data-name="Trazado 107006" d="M302.52,193.09h26.7a1.08,1.08,0,0,0,1.06-1h0a1,1,0,0,0-.95-1H302.64a1.08,1.08,0,0,0-1.06,1h0a.93.93,0,0,0,.94,1Z" opacity="0.2"/>
    <path id="Trazado_107007" data-name="Trazado 107007" d="M267.45,193.09h26.69a1.08,1.08,0,0,0,1.07-1h0a1,1,0,0,0-.95-1H267.57a1.09,1.09,0,0,0-1.07,1h0A1,1,0,0,0,267.45,193.09Z" opacity="0.2"/>
    <path id="Trazado_107008" data-name="Trazado 107008" d="M274.32,193.89h-3.53a1.65,1.65,0,0,1-1.67-1.77h0a1.89,1.89,0,0,1,1.87-1.78h3.54a1.65,1.65,0,0,1,1.66,1.78h0A1.89,1.89,0,0,1,274.32,193.89Z" fill="#344154"/>
    <path id="Trazado_107009" data-name="Trazado 107009" d="M324.11,193.86h-3.54a1.66,1.66,0,0,1-1.67-1.78h0a1.9,1.9,0,0,1,1.87-1.77h3.54a1.65,1.65,0,0,1,1.67,1.77h0a1.9,1.9,0,0,1-1.87,1.78Z" fill="#344154"/>
    <path id="Trazado_107010" data-name="Trazado 107010" d="M372.93,219.77h-13a2.35,2.35,0,0,0-2.31,2.19l-.38,6.7a2,2,0,0,0,2.06,2.19h13a2.35,2.35,0,0,0,2.32-2.19L375,222a2,2,0,0,0-2.07-2.23Z" opacity="0.5"/>
    <path id="Trazado_107011" data-name="Trazado 107011" d="M349.73,219.65h-13a2.36,2.36,0,0,0-2.32,2.2l-.38,6.7a2,2,0,0,0,2.06,2.19h13a2.35,2.35,0,0,0,2.31-2.19l.38-6.7a2,2,0,0,0-2.05-2.2Z" opacity="0.5"/>
    <path id="Trazado_107012" data-name="Trazado 107012" d="M326.52,219.77h-13a2.35,2.35,0,0,0-2.31,2.19l-.38,6.7a2,2,0,0,0,2.06,2.19h13a2.35,2.35,0,0,0,2.32-2.19l.38-6.7a2,2,0,0,0-2.07-2.19Z" opacity="0.5"/>
    <path id="Trazado_107013" data-name="Trazado 107013" d="M303.3,219.88h-13a2.34,2.34,0,0,0-2.31,2.2l-.38,6.69a2,2,0,0,0,2.06,2.2h13a2.36,2.36,0,0,0,2.32-2.2l.38-6.69a2.05,2.05,0,0,0-2.07-2.2Z" opacity="0.5"/>
    <path id="Trazado_107014" data-name="Trazado 107014" d="M280.09,220h-13a2.35,2.35,0,0,0-2.31,2.2l-.38,6.7a2,2,0,0,0,2.06,2.19h13a2.35,2.35,0,0,0,2.32-2.19l.38-6.7a2.06,2.06,0,0,0-2.07-2.2Z" opacity="0.5"/>
    <path id="Trazado_107015" data-name="Trazado 107015" d="M345.86,287.51h-13a2.34,2.34,0,0,0-2.31,2.2l-.38,6.69a2,2,0,0,0,2.06,2.2h13a2.35,2.35,0,0,0,2.32-2.2l.38-6.69a2.05,2.05,0,0,0-2.07-2.2Z" opacity="0.5"/>
    <path id="Trazado_107016" data-name="Trazado 107016" d="M322.65,287.62h-13a2.35,2.35,0,0,0-2.31,2.2l-.38,6.7a2,2,0,0,0,2.06,2.19h13a2.34,2.34,0,0,0,2.31-2.19l.39-6.7a2.06,2.06,0,0,0-2.07-2.2Z" opacity="0.5"/>
    <path id="Trazado_107017" data-name="Trazado 107017" d="M299.44,287.74h-13a2.34,2.34,0,0,0-2.31,2.19l-.38,6.7a2,2,0,0,0,2.06,2.2h13a2.35,2.35,0,0,0,2.31-2.2l.38-6.7a2,2,0,0,0-2.06-2.19Z" opacity="0.5"/>
    <path id="Trazado_107018" data-name="Trazado 107018" d="M276.23,287.85h-13a2.34,2.34,0,0,0-2.31,2.2l-.39,6.69a2.06,2.06,0,0,0,2.07,2.2h13a2.34,2.34,0,0,0,2.31-2.2l.38-6.69a2,2,0,0,0-2.06-2.2Z" opacity="0.5"/>
    <path id="Trazado_107019" data-name="Trazado 107019" d="M370,270.66H357a2.35,2.35,0,0,0-2.32,2.2l-.33,5.82-.05.87-1,17a2,2,0,0,0,2.06,2.19h13a2.34,2.34,0,0,0,2.31-2.19l1-17,.05-.87.33-5.82a2,2,0,0,0-2.05-2.2Z" opacity="0.3"/>
    <path id="Trazado_107020" data-name="Trazado 107020" d="M346.83,270.55h-13a2.34,2.34,0,0,0-2.31,2.19l-.39,6.7a2.05,2.05,0,0,0,2.07,2.19h13a2.34,2.34,0,0,0,2.31-2.19l.38-6.7a2,2,0,0,0-2.06-2.19Z" opacity="0.5"/>
    <path id="Trazado_107021" data-name="Trazado 107021" d="M323.62,270.66h-13a2.35,2.35,0,0,0-2.32,2.2l-.38,6.69a2.06,2.06,0,0,0,2.07,2.2h13a2.35,2.35,0,0,0,2.31-2.2l.38-6.69a2,2,0,0,0-2.06-2.2Z" opacity="0.5"/>
    <path id="Trazado_107022" data-name="Trazado 107022" d="M300.41,270.77h-13a2.36,2.36,0,0,0-2.32,2.2l-.38,6.7a2,2,0,0,0,2.07,2.19h13a2.35,2.35,0,0,0,2.31-2.19l.38-6.7a2,2,0,0,0-2.06-2.2Z" opacity="0.5"/>
    <path id="Trazado_107023" data-name="Trazado 107023" d="M277.2,270.89h-13a2.35,2.35,0,0,0-2.31,2.19l-.38,6.7a2,2,0,0,0,2.06,2.19h13a2.35,2.35,0,0,0,2.31-2.19l.38-6.7a2,2,0,0,0-2.06-2.19Z" opacity="0.3"/>
    <path id="Trazado_107024" data-name="Trazado 107024" d="M371,253.7H358a2.34,2.34,0,0,0-2.31,2.19l-.38,6.7a2,2,0,0,0,2.06,2.19h13a2.35,2.35,0,0,0,2.32-2.19l.38-6.7A2,2,0,0,0,371,253.7Z" opacity="0.5"/>
    <path id="Trazado_107025" data-name="Trazado 107025" d="M347.8,253.58h-13a2.36,2.36,0,0,0-2.31,2.2l-.38,6.69a2,2,0,0,0,2.06,2.2h13a2.35,2.35,0,0,0,2.32-2.2l.38-6.69a2.06,2.06,0,0,0-2.07-2.2Z" opacity="0.5"/>
    <path id="Trazado_107026" data-name="Trazado 107026" d="M324.58,253.7h-13a2.34,2.34,0,0,0-2.31,2.19l-.38,6.7a2,2,0,0,0,2.06,2.19h13a2.35,2.35,0,0,0,2.32-2.19l.38-6.7a2,2,0,0,0-2.07-2.19Z" opacity="0.5"/>
    <path id="Trazado_107027" data-name="Trazado 107027" d="M301.37,253.81h-13a2.34,2.34,0,0,0-2.31,2.19l-.38,6.7a2,2,0,0,0,2.06,2.2h13a2.34,2.34,0,0,0,2.31-2.2l.39-6.7a2,2,0,0,0-2.07-2.19Z" opacity="0.5"/>
    <path id="Trazado_107028" data-name="Trazado 107028" d="M278.16,253.92h-13a2.34,2.34,0,0,0-2.31,2.2l-.38,6.69a2,2,0,0,0,2.06,2.2h13a2.34,2.34,0,0,0,2.31-2.2l.39-6.69a2.06,2.06,0,0,0-2.07-2.2Z" opacity="0.3"/>
    <path id="Trazado_107029" data-name="Trazado 107029" d="M372,236.73H359a2.34,2.34,0,0,0-2.31,2.2l-.39,6.69a2.05,2.05,0,0,0,2.07,2.2h13a2.34,2.34,0,0,0,2.31-2.2l.38-6.69a2,2,0,0,0-2.06-2.2Z" opacity="0.5"/>
    <path id="Trazado_107030" data-name="Trazado 107030" d="M348.76,236.62h-13a2.34,2.34,0,0,0-2.31,2.19l-.38,6.7a2,2,0,0,0,2.06,2.2h13a2.35,2.35,0,0,0,2.31-2.2l.38-6.7a2,2,0,0,0-2.06-2.19Z" opacity="0.5"/>
    <path id="Trazado_107031" data-name="Trazado 107031" d="M325.55,236.73h-13a2.34,2.34,0,0,0-2.31,2.2l-.39,6.69a2.06,2.06,0,0,0,2.07,2.2h13a2.34,2.34,0,0,0,2.31-2.2l.38-6.69a2,2,0,0,0-2.06-2.2Z" opacity="0.5"/>
    <path id="Trazado_107032" data-name="Trazado 107032" d="M302.34,236.84h-13A2.36,2.36,0,0,0,287,239l-.38,6.7a2,2,0,0,0,2.07,2.19h13A2.34,2.34,0,0,0,304,245.7l.38-6.7a2,2,0,0,0-2.04-2.16Z" opacity="0.5"/>
    <path id="Trazado_107033" data-name="Trazado 107033" d="M279.13,237h-13a2.35,2.35,0,0,0-2.32,2.19l-.38,6.7a2.06,2.06,0,0,0,2.07,2.2h13a2.36,2.36,0,0,0,2.31-2.2l.38-6.7a2,2,0,0,0-2.06-2.19Z" opacity="0.5"/>
    <path id="Trazado_107034" data-name="Trazado 107034" d="M109.19,350.68s-5.72,1.25-8.16,0-1.53-19.41-4-19.78c-5.74-.87-4.77,23.26-2.33,28.34s15,2.92,15,2.92Z" fill="#d9a171"/>
    <path id="Trazado_107035" data-name="Trazado 107035" d="M109.19,350.68s-5.72,1.25-8.16,0-1.53-19.41-4-19.78c-5.74-.87-4.77,23.26-2.33,28.34s15,2.92,15,2.92Z" fill="#fff" opacity="0.2"/>
    <path id="Trazado_107036" data-name="Trazado 107036" d="M109.66,393.47s-8.47-123.19,1.64-124.61,12.55,42,8.64,123Z" fill="#d9a171"/>
    <path id="Trazado_107037" data-name="Trazado 107037" d="M109.66,393.47s-8.47-123.19,1.64-124.61,12.55,42,8.64,123Z" fill="#fff" opacity="0.3"/>
    <path id="Trazado_107038" data-name="Trazado 107038" d="M97.79,384.36h33.24l-2.77,21.27H100.57Z" fill="#344154"/>
    <path id="Trazado_107039" data-name="Trazado 107039" d="M119.7,309.24s9.21.81,9.49,0,.27-18.24,4.17-17.21,2.2,22,0,24.46-13.66,3.76-13.66,3.76S118.16,312.51,119.7,309.24Z" fill="#d9a171"/>
    <path id="Trazado_107040" data-name="Trazado 107040" d="M119.7,309.24s9.21.81,9.49,0,.27-18.24,4.17-17.21,2.2,22,0,24.46-13.66,3.76-13.66,3.76S118.16,312.51,119.7,309.24Z" fill="#fff" opacity="0.4"/>
    <path id="Trazado_107041" data-name="Trazado 107041" d="M113.86,382.22q-1-14.06-1.8-28.12T110.67,326q-.6-14.08-.79-28.18c0-4.7,0-9.4.08-14.1.07-2.36.16-4.71.37-7.06.1-1.18.24-2.36.46-3.54a9.821,9.821,0,0,1,.46-1.79l.2-.46a4.71,4.71,0,0,1,.34-.48,1.12,1.12,0,0,1,.35-.24.83.83,0,0,1,.56,0,1.15,1.15,0,0,1,.57.5,6.68,6.68,0,0,1,.64,1.81c.14.59.24,1.17.34,1.76.19,1.17.33,2.34.46,3.52.25,2.34.44,4.69.6,7,.31,4.7.53,9.39.71,14.09q.53,14.08.71,28.17t.23,28.18q0,14.08-.13,28.17-.12-14.08-.36-28.17c-.13-9.39-.28-18.78-.51-28.17s-.45-18.77-.85-28.15c-.19-4.69-.43-9.37-.76-14.05-.16-2.34-.35-4.67-.61-7-.13-1.16-.28-2.32-.47-3.46-.09-.57-.2-1.14-.33-1.69a5.81,5.81,0,0,0-.52-1.51c0-.09-.12-.12-.06-.1s.21-.05.13,0l-.16.24-.15.35a10,10,0,0,0-.42,1.61c-.21,1.13-.35,2.28-.45,3.44-.22,2.32-.32,4.67-.4,7-.14,4.68-.15,9.37-.12,14.06.07,9.39.36,18.77.65,28.16s.68,18.76,1.1,28.15S113.37,372.84,113.86,382.22Z" fill="#007cff"/>
    <path id="Trazado_107042" data-name="Trazado 107042" d="M120.86,313.38c1.19-.12,2.38-.2,3.56-.34s2.36-.24,3.52-.45c.57-.1,1.15-.22,1.69-.37s1.12-.5.93-.51a25.78,25.78,0,0,1,.13-3.67c.22-2.39.5-4.76.87-7.11a67.145,67.145,0,0,1,1.38-7l-1.26,14.22a32.362,32.362,0,0,0-.18,3.46v.12a2,2,0,0,1,0,.25.83.83,0,0,1-.19.4,1.38,1.38,0,0,1-.51.38,4.728,4.728,0,0,1-.93.33,11.667,11.667,0,0,1-1.82.29A42,42,0,0,1,120.86,313.38Z" fill="#007cff"/>
    <path id="Trazado_107043" data-name="Trazado 107043" d="M120.86,317.41l7.84-1.77a28.409,28.409,0,0,0,3.75-1.08.77.77,0,0,0,.22-.13,1.751,1.751,0,0,0,.15-.33c.09-.28.16-.6.23-.91.12-.64.2-1.29.27-1.95.31-2.64.46-5.31.67-8l.27-4,.33-4c.17,2.69.2,5.37.17,8.06s-.15,5.36-.44,8.06c-.09.67-.18,1.34-.32,2a7.259,7.259,0,0,1-.27,1,2.86,2.86,0,0,1-.27.57,1.49,1.49,0,0,1-.61.43,22.159,22.159,0,0,1-4,1A76.938,76.938,0,0,1,120.86,317.41Z" fill="#007cff"/>
    <path id="Trazado_107044" data-name="Trazado 107044" d="M106.34,354.05a21.479,21.479,0,0,1-7-.79,4.811,4.811,0,0,1-.87-.4,1.39,1.39,0,0,1-.44-.41,2,2,0,0,1-.24-.46,9.529,9.529,0,0,1-.5-1.78c-.22-1.18-.34-2.36-.45-3.53q-.27-3.53-.23-7.05c0-2.34.1-4.69.32-7,.11,1.17.16,2.34.25,3.51l.2,3.5c.15,2.34.25,4.67.45,7,.09,1.16.21,2.31.39,3.44a8.621,8.621,0,0,0,.38,1.61,1.61,1.61,0,0,0,.14.32.49.49,0,0,0,.19.19,4.239,4.239,0,0,0,.7.39,16.068,16.068,0,0,0,3.3.92C104,353.72,105.18,353.88,106.34,354.05Z" fill="#007cff"/>
    <path id="Trazado_107045" data-name="Trazado 107045" d="M95.18,334.8c.14,1.36.22,2.73.35,4.1l.29,4.1.58,8.18c.1,1.36.21,2.73.39,4.06a9.41,9.41,0,0,0,.37,1.9c.14.52.67.82,1.24,1.12a17.618,17.618,0,0,0,3.88,1.06c1.34.26,2.7.42,4.06.59a23.8,23.8,0,0,1-8.23-.94,4.77,4.77,0,0,1-1-.52,1.94,1.94,0,0,1-.76-1,11.058,11.058,0,0,1-.5-2.11c-.21-1.38-.33-2.75-.45-4.12-.2-2.74-.32-5.49-.35-8.23S95,337.54,95.18,334.8Z" fill="#007cff"/>
    <path id="Trazado_107046" data-name="Trazado 107046" d="M151.86,388.43l24.58-2.15V349.67h8.64v36.61l24.66,2.15a4.24,4.24,0,0,1,3.83,4.22v3.27H148v-3.27a4.24,4.24,0,0,1,3.86-4.22Z" fill="#344154"/>
    <path id="Trazado_107047" data-name="Trazado 107047" d="M151.86,388.43l24.58-2.15V349.67h8.64v36.61l24.66,2.15a4.24,4.24,0,0,1,3.83,4.22v3.27H148v-3.27a4.24,4.24,0,0,1,3.86-4.22Z" fill="#fff" opacity="0.1"/>
    <path id="Trazado_107048" data-name="Trazado 107048" d="M205.62,400a5.65,5.65,0,1,0,5.65-5.64A5.65,5.65,0,0,0,205.62,400Z" fill="#344154"/>
    <path id="Trazado_107049" data-name="Trazado 107049" d="M156,400a5.65,5.65,0,1,1-5.65-5.64A5.65,5.65,0,0,1,156,400Z" fill="#344154"/>
    <path id="Trazado_107050" data-name="Trazado 107050" d="M179.08,322.71h3.35a4.13,4.13,0,0,1,4.13,4.13v29.41H175V326.84a4.13,4.13,0,0,1,4.08-4.13Z" transform="translate(361.52 678.97) rotate(180)" fill="#344154"/>
    <path id="Trazado_107051" data-name="Trazado 107051" d="M179.08,322.71h3.35a4.13,4.13,0,0,1,4.13,4.13v29.41H175V326.84a4.13,4.13,0,0,1,4.08-4.13Z" transform="translate(361.52 678.97) rotate(180)" fill="#fff" opacity="0.2"/>
    <path id="Trazado_107052" data-name="Trazado 107052" d="M155.27,258.86s2.66,53.37,14.16,62.56h-12.3s-11-18.18-11.77-62.56Z" fill="#344154"/>
    <path id="Trazado_107053" data-name="Trazado 107053" d="M155.27,258.86s2.66,53.37,14.16,62.56h-12.3s-11-18.18-11.77-62.56Z" fill="#fff" opacity="0.1"/>
    <path id="Trazado_107054" data-name="Trazado 107054" d="M154.65,317H208.4a5,5,0,0,1,5,5v3.84H149.65V322A5,5,0,0,1,154.65,317Z" fill="#d9a171"/>
    <rect id="Rectángulo_6711" data-name="Rectángulo 6711" width="68.6" height="4.42" rx="2.01" transform="translate(147.22 321.42)" fill="#344154"/>
    <rect id="Rectángulo_6712" data-name="Rectángulo 6712" width="68.6" height="4.42" rx="2.01" transform="translate(147.22 321.42)" fill="#fff" opacity="0.6"/>
    <path id="Trazado_107055" data-name="Trazado 107055" d="M143.2,270.55h19.69c5.77,0,9.94-5.19,9.31-11.58l-.84-8.54c-.63-6.39-5.82-11.57-11.59-11.57H140.08c-5.77,0-9.94,5.18-9.31,11.57l.84,8.54C132.24,265.36,137.43,270.55,143.2,270.55Z" fill="#d9a171"/>
    <path id="Trazado_107056" data-name="Trazado 107056" d="M246,259l5.57.64s3.64-1.61,3.67-1.75,4.85,1.75,4.85,1.75l.92,3.48s-6.85.73-8.15,0l-7.32.32Z" fill="#fcb373"/>
    <path id="Trazado_107057" data-name="Trazado 107057" d="M249,264.23H227.54c-2.19,0-5.17-5.34-7.52-10.47-2.15-4.7-3.77-9.2-3.77-9.2l2.3-5.7,2.28-5.63c4.36,3,9.73,23.41,9.73,23.41L249,259.06S249.54,264.23,249,264.23Z" fill="#d9a171"/>
    <path id="Trazado_107058" data-name="Trazado 107058" d="M248.07,258.97l-1,5.9h2.74v-5.9Z" fill="#d9a171"/>
    <path id="Trazado_107059" data-name="Trazado 107059" d="M248.07,258.97l-1,5.9h2.74v-5.9Z" fill="#fff" opacity="0.6"/>
    <path id="Trazado_107060" data-name="Trazado 107060" d="M220,253.76c-2.15-4.7-3.77-9.2-3.77-9.2l2.3-5.7C219.55,241.44,221.67,248,220,253.76Z" opacity="0.2"/>
    <path id="Trazado_107061" data-name="Trazado 107061" d="M224.23,214.55s-2.16,8.32.53,12c0,0-24.21.28-31-4.11s.84-25.87,10.81-29.16S231,198.23,224.23,214.55Z" fill="#344154"/>
    <path id="Trazado_107062" data-name="Trazado 107062" d="M272,372.46l-5.32,1s-29-69.64-33.67-69.83-51.74,21.45-63.54,9.44,5.26-40.93,5.26-40.93,28.4-4,30.54,2.36a47.429,47.429,0,0,1,1.2,5.75c.32,2,.54,3.61.54,3.61h0c.88-.22,29.39-7.58,40.62,0C259,291.59,272,372.46,272,372.46Z" fill="#fcb373"/>
    <path id="Trazado_107063" data-name="Trazado 107063" d="M189.82,316s1.92,0,31.71-1.34c0,0-5.53,51.16-8,79l6.22.34s25.05-72.44,24.82-81.93-11.11-12.26-11.11-12.26S212.28,312.08,189.82,316Z" fill="#fcb373"/>
    <path id="Trazado_107064" data-name="Trazado 107064" d="M189.85,316c.3,0,3.33,0,26.57-1.1l-.45-6.69A129.4,129.4,0,0,1,189.85,316Z" fill="#344154"/>
    <path id="Trazado_107065" data-name="Trazado 107065" d="M221.53,314.63s-5.53,51.16-8,79l6.22.35s25.05-72.44,24.82-81.92-11.11-12.26-11.11-12.26A158.668,158.668,0,0,1,216,308.18,129.4,129.4,0,0,1,189.85,316c.3,0,3.33,0,26.57-1.1Z" opacity="0.3"/>
    <path id="Trazado_107066" data-name="Trazado 107066" d="M169.43,313.08c7.08,7.21,32,5.31,49.19,5.31l10.32-38.13L208.16,282s-.74-1.85-1.49-3.75c-.62-1.59-1.26-3.22-1.44-3.78-2.14-6.42-30.54-2.36-30.54-2.36S157.62,301.08,169.43,313.08Z" fill="#344154"/>
    <path id="Trazado_107067" data-name="Trazado 107067" d="M190.37,287.33,208.16,282s-.74-1.85-1.49-3.75C199.74,281.11,190.37,287.33,190.37,287.33Z" opacity="0.3"/>
    <path id="Trazado_107068" data-name="Trazado 107068" d="M175.38,267.73l-.69,4.42,30.54,2.36.8-5.23Z" fill="#344154"/>
    <path id="Trazado_107069" data-name="Trazado 107069" d="M175.38,267.73l-.69,4.42,30.54,2.36.8-5.23Z" opacity="0.2"/>
    <rect id="Rectángulo_6713" data-name="Rectángulo 6713" width="1.52" height="7.72" transform="translate(184.285 267.296) rotate(5.87)" fill="#344154"/>
    <rect id="Rectángulo_6714" data-name="Rectángulo 6714" width="6.7" height="5.08" transform="translate(192.186 268.86) rotate(3.68)" fill="#fff"/>
    <rect id="Rectángulo_6715" data-name="Rectángulo 6715" width="1.52" height="7.72" transform="translate(203.052 268.098) rotate(5.87)" fill="#344154"/>
    <path id="Trazado_107070" data-name="Trazado 107070" d="M287,379.75a10.589,10.589,0,0,0-3.88-.34h0s-4.9-1.9-11-11.39l-5,.78a4.16,4.16,0,0,0-3.38,3.36,2.43,2.43,0,0,0,0,.71,26.662,26.662,0,0,0,1,3.53c1.06,3.65,4.82,11.23,4.82,11.23l.81-.35-2.74-7.17c-.93-2.45,2.12-.44,3.77,1.9s3.95,4.6,9.24,2.45C286.72,381.92,289.15,380.57,287,379.75Z" fill="#263237"/>
    <path id="Trazado_107071" data-name="Trazado 107071" d="M269.73,364.7s3,4.23,6.75,8.76,6.59,6,6.59,6-3.63,2.4-6.48.49-9-9.92-12.87-7.74a10.273,10.273,0,0,1,.34-2.35C264.4,368.61,269.73,364.7,269.73,364.7Z" fill="#fcb373"/>
    <path id="Trazado_107072" data-name="Trazado 107072" d="M232.46,403.47a10.78,10.78,0,0,0-3.52-1.68h0s-3.91-3.51-6.27-14.53l-4.93-1a4.17,4.17,0,0,0-4.35,2,2.21,2.21,0,0,0-.28.65,27.821,27.821,0,0,0-.33,3.64c-.3,3.79.54,12.22.54,12.22l.89-.05v-7.68c0-2.61,2.14.34,2.85,3.11s2.08,5.7,7.79,5.55C231.47,405.42,234.22,405,232.46,403.47Z" fill="#263237"/>
    <path id="Trazado_107073" data-name="Trazado 107073" d="M221.64,383.33s1.34,5,3.23,10.57,4.07,7.89,4.07,7.89-4.24,1-6.23-1.82-5-12.47-9.32-11.78a9.741,9.741,0,0,1,1.15-2.09C215.27,385.1,221.64,383.33,221.64,383.33Z" fill="#fcb373"/>
    <path id="Trazado_107074" data-name="Trazado 107074" d="M221.64,383.33s1.34,5,3.23,10.57,4.07,7.89,4.07,7.89-4.24,1-6.23-1.82-5-12.47-9.32-11.78a9.741,9.741,0,0,1,1.15-2.09C215.27,385.1,221.64,383.33,221.64,383.33Z" opacity="0.3"/>
    <path id="Trazado_107075" data-name="Trazado 107075" d="M220.83,233.23s-3,17.68-6.35,22.53a6,6,0,0,1-.46.57c-2.64,2.79-5.87,8.76-7.42,11.75-.56,1.11-.9,1.81-.9,1.81l-30.45-1.33s.94-5.92,1.92-11.92c.69-4.28,1.61-9.33,2.71-14.07.44-1.87.9-3.68,1.39-5.37a39,39,0,0,1,3.2-8.37,6.48,6.48,0,0,1,2.14-2.43s1.29-.12,3.53-.11h.17a74.62,74.62,0,0,1,23,3.87,64.249,64.249,0,0,1,7.52,3.07Z" fill="#d9a171"/>
    <path id="Trazado_107076" data-name="Trazado 107076" d="M193.74,226.62s4.42,10.44,12.37,10.44,8.21-5.86,8.21-5.86S206.37,226,193.74,226.62Z" fill="#d9a171"/>
    <path id="Trazado_107077" data-name="Trazado 107077" d="M203.83,225.75c-5.28-1.42-8,.53-11,5.31l6.85,2.75,5.66,16.38,6.29-14.52,4.71.15S215.7,229,203.83,225.75Z" fill="#d9a171"/>
    <path id="Trazado_107078" data-name="Trazado 107078" d="M203.83,225.75c-5.28-1.42-8,.53-11,5.31l6.85,2.75,5.66,16.38,6.29-14.52,4.71.15S215.7,229,203.83,225.75Z" fill="#fff" opacity="0.6"/>
    <path id="Trazado_107079" data-name="Trazado 107079" d="M214.48,255.76a6,6,0,0,1-.46.57c-2.64,2.79-5.87,8.76-7.42,11.75-7.13-.88-21-3.05-22.86-6.57-1.67-3.22-3.11-13-3.86-18.94.44-1.87.9-3.68,1.39-5.37l10.34-2.9s1.7,10.79,2,15.89C193.79,254.39,209.13,255.5,214.48,255.76Z" opacity="0.2"/>
    <path id="Trazado_107080" data-name="Trazado 107080" d="M209.33,229.44c.06,1.88,1.12,2.32,1.12,2.32.38,3.45-4.42,12.05-4.42,12.05l-7.46-15.37c4.29-1.7,5.26-6.43,5.44-9.25a16.171,16.171,0,0,0,0-2.2l8,5a29.3,29.3,0,0,0-1.79,3.5,10,10,0,0,0-.89,3.95Z" fill="#fcb373"/>
    <path id="Trazado_107081" data-name="Trazado 107081" d="M211.53,221.41a27.4,27.4,0,0,0-1.42,3.67,9.751,9.751,0,0,0-.5,4c-4.51.35-6.3-9.6-6.3-9.6v-.06a16,16,0,0,0-.22-2.19Z" opacity="0.2"/>
    <path id="Trazado_107082" data-name="Trazado 107082" d="M216.89,200.19c7.75,2.36,9,7.27,7.11,15.43-2.33,10.2-6.71,16.62-15.75,11.53C196,220.24,204,196.26,216.89,200.19Z" fill="#fcb373"/>
    <path id="Trazado_107083" data-name="Trazado 107083" d="M219.12,213.66a17.181,17.181,0,0,0,1.28,3.91,2.23,2.23,0,0,1-2.31.25Z" fill="#ec873e"/>
    <path id="Trazado_107084" data-name="Trazado 107084" d="M214.57,211.58c-.18.64-.67,1.07-1.1.95s-.62-.74-.44-1.38.67-1.06,1.09-.94S214.75,210.94,214.57,211.58Z" fill="#344154"/>
    <path id="Trazado_107085" data-name="Trazado 107085" d="M213.94,210.19l1.54-.16S214.46,211,213.94,210.19Z" fill="#344154"/>
    <path id="Trazado_107086" data-name="Trazado 107086" d="M222.58,213.68c-.18.64-.67,1.06-1.1.94s-.63-.73-.45-1.37.68-1.07,1.1-.95S222.76,213,222.58,213.68Z" fill="#344154"/>
    <path id="Trazado_107087" data-name="Trazado 107087" d="M222,212.28l1.54-.16S222.47,213.1,222,212.28Z" fill="#344154"/>
    <path id="Trazado_107088" data-name="Trazado 107088" d="M216.13,206.21a4.22,4.22,0,0,0-3.72.14" fill="none" stroke="#1a2e35" stroke-linecap="round" stroke-linejoin="round" stroke-width="0.72"/>
    <path id="Trazado_107089" data-name="Trazado 107089" d="M221.86,207.6a3.8,3.8,0,0,1,2.9,1.58" fill="none" stroke="#1a2e35" stroke-linecap="round" stroke-linejoin="round" stroke-width="0.72"/>
    <path id="Trazado_107090" data-name="Trazado 107090" d="M204.44,210.67s5.56-5.26,6.51-10.35c0,0,17.28-1.59,13.28,14.23,0,0,5.72-13.38-7.51-17.75s-19.12,15.13-14,23C202.71,219.84,201,214,204.44,210.67Z" fill="#344154"/>
    <path id="Trazado_107091" data-name="Trazado 107091" d="M212.35,217.63a3.93,3.93,0,0,0,4,3.35" fill="none" stroke="#1a2e35" stroke-linecap="round" stroke-linejoin="round" stroke-width="0.72"/>
    <path id="Trazado_107092" data-name="Trazado 107092" d="M203.09,209.12a.23.23,0,0,0,.13.25h.05l7.89,1.84a3.43,3.43,0,0,0,2,3.66,4.14,4.14,0,0,0,5.3-1.44,2.42,2.42,0,0,0,.23-.52,1.3,1.3,0,0,1,1-.28.71.71,0,0,1,.41.46,3.43,3.43,0,0,0,2,3.64,4.14,4.14,0,0,0,5.29-1.44,3.37,3.37,0,0,0-1.59-4.78,4.13,4.13,0,0,0-5.29,1.44,2,2,0,0,0-.24.52,1,1,0,0,0-.4-.26,1.46,1.46,0,0,0-1,.1,3.43,3.43,0,0,0-2-3.66,4.14,4.14,0,0,0-5.3,1.44,3.759,3.759,0,0,0-.31.68L203.4,209a.26.26,0,0,0-.31.12ZM221,212.18a3.61,3.61,0,0,1,4.63-1.26A3,3,0,0,1,227,215.1a3.61,3.61,0,0,1-4.63,1.25,2.94,2.94,0,0,1-1.37-4.17Zm-9-1.86a3.63,3.63,0,0,1,4.63-1.26,3,3,0,0,1,1.39,4.18,3.62,3.62,0,0,1-4.63,1.26,3,3,0,0,1-1.39-4.18Z" fill="#344154"/>
    <g id="Grupo_60140" data-name="Grupo 60140" opacity="0.3">
      <path id="Trazado_107093" data-name="Trazado 107093" d="M203.09,209.12a.23.23,0,0,0,.13.25h.05l7.89,1.84a3.43,3.43,0,0,0,2,3.66,4.14,4.14,0,0,0,5.3-1.44,2.42,2.42,0,0,0,.23-.52,1.3,1.3,0,0,1,1-.28.71.71,0,0,1,.41.46,3.43,3.43,0,0,0,2,3.64,4.14,4.14,0,0,0,5.29-1.44,3.37,3.37,0,0,0-1.59-4.78,4.13,4.13,0,0,0-5.29,1.44,2,2,0,0,0-.24.52,1,1,0,0,0-.4-.26,1.46,1.46,0,0,0-1,.1,3.43,3.43,0,0,0-2-3.66,4.14,4.14,0,0,0-5.3,1.44,3.759,3.759,0,0,0-.31.68L203.4,209a.26.26,0,0,0-.31.12ZM221,212.18a3.61,3.61,0,0,1,4.63-1.26A3,3,0,0,1,227,215.1a3.61,3.61,0,0,1-4.63,1.25,2.94,2.94,0,0,1-1.37-4.17Zm-9-1.86a3.63,3.63,0,0,1,4.63-1.26,3,3,0,0,1,1.39,4.18,3.62,3.62,0,0,1-4.63,1.26,3,3,0,0,1-1.39-4.18Z" fill="#fff"/>
    </g>
    <path id="Trazado_107094" data-name="Trazado 107094" d="M205.2,212.69a3.55,3.55,0,0,0-2.71-4.22c-2.48-.47-5.13,4.11.48,7.12C203.78,216,204.52,215.33,205.2,212.69Z" fill="#fcb373"/>
    <path id="Trazado_107095" data-name="Trazado 107095" d="M216.3,263.41a103.7,103.7,0,0,1,13.1-1.9c5.31-.25,11.26-.35,9.8,2.52l-21.6.2Z" fill="#d9a171"/>
    <path id="Trazado_107096" data-name="Trazado 107096" d="M216.3,263.41a103.7,103.7,0,0,1,13.1-1.9c5.31-.25,11.26-.35,9.8,2.52l-21.6.2Z" fill="#fff" opacity="0.7"/>
    <rect id="Rectángulo_6716" data-name="Rectángulo 6716" width="24.98" height="0.85" transform="translate(215.31 263.42)" fill="#344154"/>
    <rect id="Rectángulo_6717" data-name="Rectángulo 6717" width="1.1" height="12.43" transform="translate(215.531 249.268) rotate(-24.58)" fill="#344154"/>
    <path id="Trazado_107097" data-name="Trazado 107097" d="M206,258.58l7.14,1.7a8,8,0,0,1,3-2.42,70.856,70.856,0,0,1,7.83-1.6l1.5,7.16s-10,1-10.82.81l-8.61-.82Z" fill="#fcb373"/>
    <path id="Trazado_107098" data-name="Trazado 107098" d="M186.61,226.4c-5,1.43-5.34,27.54-3.39,31s25.46,6.87,25.46,6.87l1.51-5.26s-19.51-6.76-19.82-7.3,1.27-15.48,1.27-18.44S186.61,226.4,186.61,226.4Z" fill="#d9a171"/>
    <path id="Trazado_107099" data-name="Trazado 107099" d="M209.21,257.86l-1.05,7.3,2.03-.29,1.34-6.54Z" fill="#d9a171"/>
    <path id="Trazado_107100" data-name="Trazado 107100" d="M209.21,257.86l-1.05,7.3,2.03-.29,1.34-6.54Z" fill="#fff" opacity="0.6"/>
    <path id="Trazado_107101" data-name="Trazado 107101" d="M248.15,405.63h-5.29L242,270.47h7.02Z" fill="#344154"/>
    <path id="Trazado_107102" data-name="Trazado 107102" d="M249.02,270.68l-.14,21.36-.72,113.59h-5.3l-.72-113.59L242,270.68Z" fill="#fff" opacity="0.4"/>
    <path id="Trazado_107103" data-name="Trazado 107103" d="M249.02,270.68l-.14,21.6h-6.74l-.14-21.6Z" opacity="0.2"/>
    <path id="Trazado_107104" data-name="Trazado 107104" d="M304.34,405.63h-5.29l-9.51-135.16h7.02Z" fill="#344154"/>
    <path id="Trazado_107105" data-name="Trazado 107105" d="M304.35,405.63h-5.3L290,277.05l-.46-6.37h7.02l.38,6.37Z" fill="#fff" opacity="0.5"/>
    <path id="Trazado_107106" data-name="Trazado 107106" d="M296.94,276.73H290l-.46-6.05h7.02Z" opacity="0.2"/>
    <path id="Trazado_107107" data-name="Trazado 107107" d="M191.97,405.63h-5.3l7.78-135.16h7.02Z" fill="#344154"/>
    <path id="Trazado_107108" data-name="Trazado 107108" d="M201.47,270.68l-.46,6.37-9.05,128.58h-5.28l7.39-128.58.38-6.37Z" fill="#fff" opacity="0.5"/>
    <path id="Trazado_107109" data-name="Trazado 107109" d="M194.45,270.68h7.02l-.46,6.05h-6.94Z" opacity="0.2"/>
    <path id="Trazado_107110" data-name="Trazado 107110" d="M188.89,267.15H302.13v4.47a2.16,2.16,0,0,1-2.16,2.16H191.05a2.16,2.16,0,0,1-2.16-2.16Z" fill="#344154"/>
    <path id="Trazado_107111" data-name="Trazado 107111" d="M188.89,267.15H302.13v4.47a2.16,2.16,0,0,1-2.16,2.16H191.05a2.16,2.16,0,0,1-2.16-2.16Z" fill="#fff" opacity="0.6"/>
    <rect id="Rectángulo_6718" data-name="Rectángulo 6718" width="113.24" height="3.32" transform="translate(188.89 267.15)" opacity="0.2"/>
    <path id="Trazado_107112" data-name="Trazado 107112" d="M305.41,268H185.61a1.87,1.87,0,0,1-1.87-1.87h0a1.87,1.87,0,0,1,1.87-1.87h119.8a1.87,1.87,0,0,1,1.87,1.87h0a1.87,1.87,0,0,1-1.87,1.87Z" fill="#344154"/>
    <path id="Trazado_107113" data-name="Trazado 107113" d="M305.41,268H185.61a1.87,1.87,0,0,1-1.87-1.87h0a1.87,1.87,0,0,1,1.87-1.87h119.8a1.87,1.87,0,0,1,1.87,1.87h0a1.87,1.87,0,0,1-1.87,1.87Z" fill="#fff" opacity="0.6"/>
    <path id="Trazado_107114" data-name="Trazado 107114" d="M288.41,261v2.17c0,.65-1.12,1.11-1.76,1.11H236c-.65,0-1.69-.46-1.69-1.11V261Z" fill="#344154"/>
    <path id="Trazado_107115" data-name="Trazado 107115" d="M288.41,261v2.17c0,.65-1.12,1.11-1.76,1.11H236c-.65,0-1.69-.46-1.69-1.11V261Z" fill="#fff" opacity="0.6"/>
    <path id="Trazado_107116" data-name="Trazado 107116" d="M288.41,261v2.17c0,.65-1.12,1.11-1.76,1.11h-33.4c-.64,0-1.71-.46-1.71-1.11V261Z" opacity="0.2"/>
    <path id="Trazado_107117" data-name="Trazado 107117" d="M296.53,234.33l-6,27.44a2.12,2.12,0,0,1-2,1.64H255.62a1.42,1.42,0,0,1-1.24-1.83l6-27.14a1.89,1.89,0,0,1,2-1.35h32.93C296.17,233.09,296.73,233.44,296.53,234.33Z" fill="#344154"/>
    <path id="Trazado_107118" data-name="Trazado 107118" d="M296.53,234.33l-6,27.44a2.12,2.12,0,0,1-2,1.64H255.62a1.42,1.42,0,0,1-1.24-1.83l6-27.14a1.89,1.89,0,0,1,2-1.35h32.93C296.17,233.09,296.73,233.44,296.53,234.33Z" fill="#fff" opacity="0.6"/>
    <path id="Trazado_107119" data-name="Trazado 107119" d="M296.53,234.33l-6,27.44a2.12,2.12,0,0,1-2,1.64h-31.8a1.43,1.43,0,0,1-1.25-1.83l6-27.14a1.88,1.88,0,0,1,2-1.35h31.81C296.17,233.09,296.73,233.44,296.53,234.33Z" fill="#fff" opacity="0.4"/>
    <path id="Trazado_107120" data-name="Trazado 107120" d="M277.16,251.91c1.53,0,3.11-1.64,3.51-3.67s-.53-3.68-2.07-3.68a2.57,2.57,0,0,0-.85.17,4.69,4.69,0,0,1-2.61,3.35.531.531,0,0,0,0,.16C274.69,250.27,275.62,251.92,277.16,251.91Z" opacity="0.2"/>
  </g>
</svg>
