<?xml version="1.0" encoding="utf-8"?>
<!-- Generator: Adobe Illustrator 25.3.1, SVG Export Plug-In . SVG Version: 6.00 Build 0)  -->
<svg version="1.1" id="Capa_2" xmlns="http://www.w3.org/2000/svg" xmlns:xlink="http://www.w3.org/1999/xlink" x="0px" y="0px"
	 viewBox="0 0 500 500" style="enable-background:new 0 0 500 500;" xml:space="preserve">
<style type="text/css">
	.st0{fill:#ECECEC;}
	.st1{fill:#E1E1E1;}
	.st2{fill:#FAFAFA;}
	.st3{fill:#F0F0F0;}
	.st4{fill:#E7E7E7;}
	.st5{fill:#F5F5F5;}
	.st6{fill:#344154;}
	.st7{opacity:0.3;enable-background:new    ;}
	.st8{opacity:0.3;fill:#FFFFFF;enable-background:new    ;}
	.st9{opacity:0.4;fill:#FFFFFF;enable-background:new    ;}
	.st10{opacity:0.2;fill:#FFFFFF;enable-background:new    ;}
	.st11{opacity:0.1;fill:#FFFFFF;enable-background:new    ;}
	.st12{opacity:0.3;}
	.st13{fill:#FFFFFF;}
	.st14{opacity:0.4;}
	.st15{opacity:0.2;enable-background:new    ;}
	.st16{opacity:0.5;enable-background:new    ;}
	.st17{fill:#D9A171;}
	.st18{fill:#007CFF;}
	.st19{opacity:0.6;fill:#FFFFFF;enable-background:new    ;}
	.st20{fill:#FCB373;}
	.st21{fill:#263237;}
	.st22{fill:#EC873E;}
	.st23{fill:none;stroke:#1A2E35;stroke-width:0.72;stroke-linecap:round;stroke-linejoin:round;}
	.st24{opacity:0.7;fill:#FFFFFF;enable-background:new    ;}
	.st25{opacity:0.5;fill:#FFFFFF;enable-background:new    ;}
</style>
<g>
	<rect id="Rectángulo_6649" x="0.7" y="381.5" class="st0" width="499.2" height="0.2"/>
	<rect id="Rectángulo_6650" x="416.9" y="397.6" class="st0" width="33.1" height="0.2"/>
	<rect id="Rectángulo_6651" x="322.8" y="400.3" class="st0" width="8.7" height="0.2"/>
	<rect id="Rectángulo_6652" x="396.7" y="388.3" class="st0" width="19.2" height="0.2"/>
	<rect id="Rectángulo_6653" x="53.1" y="390" class="st0" width="43.1" height="0.2"/>
	<rect id="Rectángulo_6654" x="105.1" y="390" class="st0" width="6.3" height="0.2"/>
	<rect id="Rectángulo_6655" x="132" y="394.2" class="st0" width="93.5" height="0.2"/>
	<path id="Trazado_106845" class="st0" d="M237.4,337H44.6c-3.1,0-5.7-2.6-5.7-5.7v-271c0-3.1,2.5-5.7,5.7-5.7h192.8
		c3.2,0,5.7,2.6,5.7,5.7v271C243.1,334.4,240.5,337,237.4,337z M44.6,54.8c-3,0-5.4,2.4-5.4,5.4v271.1c0,3,2.4,5.4,5.4,5.4h192.8
		c3,0,5.4-2.4,5.4-5.3c0,0,0-0.1,0-0.1v-271c0-3-2.4-5.4-5.4-5.4c0,0,0,0-0.1,0L44.6,54.8z"/>
	<path id="Trazado_106846" class="st0" d="M453.4,337H260.6c-3.1,0-5.7-2.6-5.7-5.7v-271c0-3.1,2.5-5.7,5.7-5.7h192.8
		c3.2,0,5.7,2.6,5.7,5.7v0v271C459.1,334.4,456.5,337,453.4,337z M260.6,54.8c-3,0-5.4,2.4-5.4,5.4v271.1c0,3,2.4,5.4,5.4,5.4h192.8
		c3,0,5.5-2.4,5.5-5.4v-271c0-3-2.5-5.4-5.5-5.4L260.6,54.8z"/>
	<path id="Trazado_106847" class="st1" d="M98.3,127.2l36.7-21.4h28.3l37.3,20.4v138.5H98.3V127.2z"/>
	<path id="Trazado_106848" class="st2" d="M201.8,264.7H98.3V127.2l1.1-1c13.6-13.1,31.8-20.4,50.7-20.4l0,0
		c18.9-0.1,37.1,7.2,50.7,20.4l1.1,1L201.8,264.7z M105.2,257.8h89.8V130.1c-25.4-23.3-64.3-23.3-89.7,0L105.2,257.8z"/>
	<path id="Trazado_106849" class="st3" d="M147.5,258.7h5.1v-46h43.6v-5.1h-43.6v-47h43.6v-5.1h-43.6v-43.6h-5.1v43.6h-43.6v5.1
		h43.6v47h-43.6v5.1h43.6L147.5,258.7z"/>
	<path id="Trazado_106850" class="st3" d="M205.2,268.1H94.9V125.8l1-1c29.9-29.8,78.4-29.8,108.3,0l1,1V268.1z M101.7,261.3h96.6
		V128.7c-27-25.9-69.6-25.9-96.6,0V261.3z"/>
	<path id="Trazado_106851" class="st1" d="M344.7,263.9c0-0.2-0.7-21.6-4.2-25c-3.5-3.5-7.3-0.1-7.4,0l-0.3-0.4c0,0,4.4-3.6,8.2,0
		s4.3,24.5,4.4,25.4L344.7,263.9z"/>
	<path id="Trazado_106852" class="st1" d="M345,268.1c0-0.2-2.4-25.7,6.9-36.4l0.4,0.4c-9.2,10.5-6.8,35.7-6.8,36L345,268.1z"/>
	<path id="Trazado_106853" class="st1" d="M344.7,265.4h-0.6c0-0.3,1.8-29-5-35.2l0.4-0.4C346.5,236.2,344.7,264.2,344.7,265.4z"/>
	<path id="Trazado_106854" class="st1" d="M345.5,265.4H345c0-0.8,0.2-19.4,5.5-22.4c1-0.7,2.3-0.8,3.4-0.3c3.2,1.3,4.8,7,4.8,7.2
		l-0.5,0.2c0-0.1-1.6-5.7-4.5-6.9c-1-0.4-2.1-0.3-2.9,0.3C345.8,246.3,345.5,265.2,345.5,265.4z"/>
	<path id="Trazado_106855" class="st1" d="M343.5,265.4h-0.6c0-0.2,0.8-14.7-3.1-19.8c-0.7-1.1-1.8-1.7-3.1-1.7
		c-2.6,0.2-4.7,3.9-4.7,4l-0.5-0.3c0.1-0.2,2.3-4,5.2-4.3c1.4,0,2.8,0.7,3.6,2C344.3,250.5,343.5,264.8,343.5,265.4z"/>
	<path id="Trazado_106856" class="st1" d="M344.3,267.4c-0.1-1.4-2.6-34.5,1.8-40.4l0.4,0.3c-4.2,5.7-1.7,39.7-1.7,40.1L344.3,267.4
		z"/>
	<path id="Trazado_106857" class="st0" d="M355.1,246c0,0-2.6,1-1.8,3.2c0.8,2.3,9,6,9,6s3.4-3.1,0.3-8.3
		C359.4,241.8,355.2,244.4,355.1,246z"/>
	<path id="Trazado_106858" class="st0" d="M343.9,241.7c0,0,2.8-0.1,2.9,2.3s-6,9-6,9s-4.4-1.6-3.4-7.6S343.1,240.2,343.9,241.7z"/>
	<path id="Trazado_106859" class="st0" d="M341.5,230.3c0,0,1.8-0.2,1.7-1.3c-0.2-1.1-7.2-4-11.3,0.7c0,0,2.6,4.6,6.5,4.6
		C342.2,234.3,341.5,230.3,341.5,230.3z"/>
	<path id="Trazado_106860" class="st0" d="M344.9,227.6c0,0-1.7,0.8-2.2-0.2c-0.5-1,4-7.2,9.9-5.4c0,0,0.2,5.3-3.1,7.3
		C346.4,231.4,344.9,227.6,344.9,227.6z"/>
	<path id="Trazado_106861" class="st0" d="M336.2,245.1c0,0,1.3-1-0.1-1.5s-8.1-0.4-8.2,6.3c0,0,7.8,1.3,8.8-1.2
		S336.2,245.1,336.2,245.1z"/>
	<path id="Trazado_106862" class="st0" d="M352.2,230.1c0,0-1.3-1,0.1-1.5s8.1-0.4,8.2,6.3c0,0-7.8,1.3-8.8-1.2
		C350.7,231.1,352.2,230.1,352.2,230.1z"/>
	<path id="Trazado_106863" class="st0" d="M348,235.5c0,0-0.1-1.3,0.9-0.8s4.5,4.3,0.9,7.9c0,0-4.9-3.6-4-5.5
		C346.7,235.2,348,235.5,348,235.5z"/>
	<path id="Trazado_106864" class="st0" d="M335,237.3c0,0,0.8-1-0.4-1.1c-1.1-0.1-6.1,1.2-4.9,6.2c0,0,6.1-0.5,6.3-2.5
		C336.4,237.8,335,237.3,335,237.3z"/>
	<path id="Trazado_106865" class="st3" d="M355.6,283.8h-20.8l-2.2-22.8h25.3L355.6,283.8z"/>
	<rect id="Rectángulo_6656" x="331.4" y="258.5" class="st4" width="27.6" height="5"/>
	<rect id="Rectángulo_6657" x="343.6" y="288.7" class="st4" width="75.7" height="81.5"/>
	<rect id="Rectángulo_6658" x="421.3" y="282.6" class="st4" width="9.5" height="98.1"/>
	<rect id="Rectángulo_6659" x="355.7" y="295.1" class="st2" width="6.2" height="30.4"/>
	<rect id="Rectángulo_6660" x="381.4" y="295.1" class="st5" width="6.2" height="30.4"/>
	<rect id="Rectángulo_6661" x="361.9" y="297.3" class="st5" width="6.2" height="28.3"/>
	<rect id="Rectángulo_6662" x="375.2" y="297.3" class="st2" width="6.2" height="28.3"/>
	<rect id="Rectángulo_6663" x="371.2" y="295.1" class="st0" width="4" height="30.4"/>
	<rect id="Rectángulo_6664" x="368.1" y="297.3" class="st2" width="3.1" height="28.3"/>
	<rect id="Rectángulo_6665" x="387.6" y="295.1" class="st0" width="6.2" height="30.4"/>
	<rect id="Rectángulo_6666" x="393.8" y="297.3" class="st4" width="6.2" height="28.3"/>
	<rect id="Rectángulo_6667" x="407.1" y="297.3" class="st4" width="6.2" height="28.3"/>
	<rect id="Rectángulo_6668" x="403.1" y="295.1" class="st2" width="4" height="30.4"/>
	<rect id="Rectángulo_6669" x="400" y="297.3" class="st0" width="3.1" height="28.3"/>
	<rect id="Rectángulo_6670" x="413.3" y="295.8" class="st2" width="3.1" height="29.7"/>
	<rect id="Rectángulo_6671" x="410.2" y="335.9" class="st2" width="6.2" height="30.4"/>
	<rect id="Rectángulo_6672" x="384.5" y="335.9" class="st2" width="6.2" height="30.4"/>
	<rect id="Rectángulo_6673" x="404" y="338.1" class="st3" width="6.2" height="28.3"/>
	<rect id="Rectángulo_6674" x="390.7" y="338.1" class="st0" width="6.2" height="28.3"/>
	<rect id="Rectángulo_6675" x="396.9" y="335.9" class="st2" width="4" height="30.4"/>
	<rect id="Rectángulo_6676" x="400.9" y="338.1" class="st5" width="3.1" height="28.3"/>
	<rect id="Rectángulo_6677" x="378.3" y="335.9" class="st0" width="6.2" height="30.4"/>
	<rect id="Rectángulo_6678" x="372.1" y="338.1" class="st5" width="6.2" height="28.3"/>
	<rect id="Rectángulo_6679" x="358.8" y="338.1" class="st4" width="6.2" height="28.3"/>
	<rect id="Rectángulo_6680" x="365" y="335.9" class="st2" width="4" height="30.4"/>
	<rect id="Rectángulo_6681" x="351.7" y="335.9" class="st2" width="4" height="30.4"/>
	<rect id="Rectángulo_6682" x="369" y="338.1" class="st0" width="3.1" height="28.3"/>
	<rect id="Rectángulo_6683" x="355.7" y="336.7" class="st3" width="3.1" height="29.7"/>
	<path id="Trazado_106866" class="st3" d="M418.9,282.6h-77.7v92.6h75.2v5.5h5.1v-98.1H418.9z M416.4,366.4H346v-35.7h70.4
		L416.4,366.4z M416.4,325.6H346v-34.1h70.4L416.4,325.6z"/>
	<rect id="Rectángulo_6684" x="267.8" y="288.7" class="st4" width="75.7" height="81.5"/>
	<rect id="Rectángulo_6685" x="270.7" y="374.3" class="st4" width="9.5" height="6.5"/>
	<rect id="Rectángulo_6686" x="334.7" y="295.1" class="st2" width="6.2" height="30.4"/>
	<rect id="Rectángulo_6687" x="309" y="295.1" class="st5" width="6.2" height="30.4"/>
	<rect id="Rectángulo_6688" x="328.5" y="297.3" class="st5" width="6.2" height="28.3"/>
	<rect id="Rectángulo_6689" x="315.2" y="297.3" class="st2" width="6.2" height="28.3"/>
	<rect id="Rectángulo_6690" x="321.4" y="295.1" class="st0" width="4" height="30.4"/>
	<rect id="Rectángulo_6691" x="325.4" y="297.3" class="st2" width="3.1" height="28.3"/>
	<rect id="Rectángulo_6692" x="306.9" y="295.1" class="st0" width="6.2" height="30.4"/>
	<rect id="Rectángulo_6693" x="300.7" y="297.3" class="st4" width="6.2" height="28.3"/>
	<rect id="Rectángulo_6694" x="287.4" y="297.3" class="st4" width="6.2" height="28.3"/>
	<rect id="Rectángulo_6695" x="293.6" y="295.1" class="st2" width="4" height="30.4"/>
	<rect id="Rectángulo_6696" x="297.6" y="297.3" class="st0" width="3.1" height="28.3"/>
	<rect id="Rectángulo_6697" x="284.3" y="295.8" class="st5" width="3.1" height="29.7"/>
	<rect id="Rectángulo_6698" x="281.4" y="335.9" class="st2" width="6.2" height="30.4"/>
	<rect id="Rectángulo_6699" x="307.1" y="335.9" class="st2" width="6.2" height="30.4"/>
	<rect id="Rectángulo_6700" x="287.6" y="338.1" class="st5" width="6.2" height="28.3"/>
	<rect id="Rectángulo_6701" x="300.9" y="338.1" class="st0" width="6.2" height="28.3"/>
	<rect id="Rectángulo_6702" x="296.9" y="335.9" class="st2" width="4" height="30.4"/>
	<rect id="Rectángulo_6703" x="293.8" y="338.1" class="st5" width="3.1" height="28.3"/>
	<rect id="Rectángulo_6704" x="309.2" y="335.9" class="st0" width="6.2" height="30.4"/>
	<rect id="Rectángulo_6705" x="315.4" y="338.1" class="st5" width="6.2" height="28.3"/>
	<rect id="Rectángulo_6706" x="328.7" y="338.1" class="st4" width="6.2" height="28.3"/>
	<rect id="Rectángulo_6707" x="324.7" y="335.9" class="st2" width="4" height="30.4"/>
	<rect id="Rectángulo_6708" x="337.2" y="335.9" class="st2" width="4" height="30.4"/>
	<rect id="Rectángulo_6709" x="321.6" y="338.1" class="st0" width="3.1" height="28.3"/>
	<rect id="Rectángulo_6710" x="334.9" y="336.6" class="st0" width="3.1" height="29.7"/>
	<path id="Trazado_106867" class="st3" d="M265.6,282.6v98.1h5.1v-5.5h75.2v-92.6H265.6z M270.7,330.7h70.4v35.7h-70.4V330.7z
		 M270.7,291.5h70.4v34.1h-70.4V291.5z"/>
	<ellipse id="_Path_" class="st5" cx="250.4" cy="415.3" rx="193.6" ry="11.3"/>
	<path id="Trazado_106868" class="st6" d="M391.3,318.5h-135c-2.6,0-4.7-2-4.7-4.6c0-0.1,0-0.3,0-0.4L263,114.2
		c0.2-2.8,2.5-4.9,5.2-5h135c2.6,0,4.7,2,4.7,4.6c0,0.1,0,0.3,0,0.4l-11.3,199.3C396.4,316.2,394.1,318.4,391.3,318.5z"/>
	<path id="Trazado_106869" class="st7" d="M391.3,318.5h-135c-2.6,0-4.7-2-4.7-4.6c0-0.1,0-0.3,0-0.4L263,114.2
		c0.2-2.8,2.5-4.9,5.2-5h135c2.6,0,4.7,2,4.7,4.6c0,0.1,0,0.3,0,0.4l-11.3,199.3C396.4,316.2,394.1,318.4,391.3,318.5z"/>
	<path id="Trazado_106870" class="st6" d="M404.9,114.2l-11.3,199.2c-0.2,2.8-2.5,5-5.2,5h-135c-2.6,0-4.7-2-4.7-4.6
		c0-0.1,0-0.3,0-0.4l2.9-50.4l8.5-148.8c0.2-2.8,2.5-5,5.2-5h135c2.6,0,4.7,2,4.7,4.6C404.9,114,404.9,114.1,404.9,114.2
		L404.9,114.2z"/>
	<path id="Trazado_106871" class="st8" d="M401.4,175.8l-7.8,137.7c-0.2,2.8-2.5,4.9-5.2,5h-135c-2.6,0-4.7-2-4.7-4.6
		c0-0.1,0-0.2,0-0.4l7.8-137.7H401.4z"/>
	<path id="Trazado_106872" class="st9" d="M388.2,167.5H270.6l1.8-31H390L388.2,167.5z"/>
	<path id="Trazado_106873" class="st10" d="M384.6,122.3h6.1l-0.6,9.8h-6.1L384.6,122.3z"/>
	<path id="Trazado_106874" class="st10" d="M377.5,122.3h6.1l-0.6,9.8h-6.1L377.5,122.3z"/>
	<path id="Trazado_106875" class="st10" d="M370.3,122.3h6.1l-0.6,9.8h-6.1L370.3,122.3z"/>
	<path id="Trazado_106876" class="st10" d="M363.1,122.3h6.1l-0.6,9.8h-6.1L363.1,122.3z"/>
	<path id="Trazado_106877" class="st10" d="M356,122.3h6.1l-0.6,9.8h-6.1L356,122.3z"/>
	<path id="Trazado_106878" class="st10" d="M348.8,122.3h6.1l-0.6,9.8h-6.1L348.8,122.3z"/>
	<path id="Trazado_106879" class="st8" d="M292.7,128.7h-19.9l0.2-4.1h19.9L292.7,128.7z"/>
	<path id="Trazado_106880" class="st6" d="M326.9,159.8l-0.1,1.3h-7.6l0.1-1l4.6-4.1c1.2-1.1,1.4-1.7,1.5-2.4
		c0.1-1.1-0.7-1.7-2.2-1.7c-1,0-2.1,0.4-2.8,1.1l-1-0.9c1-1.1,2.5-1.7,4-1.6c2.2,0,3.6,1.1,3.5,2.9c-0.1,1-0.4,1.9-1.9,3.3l-3.4,3.1
		H326.9z"/>
	<path id="Trazado_106881" class="st6" d="M328.2,160.1c0-0.6,0.5-1,1.1-1c0.5,0,0.9,0.4,0.9,0.9c0,0,0,0.1,0,0.1
		c0,0.6-0.5,1.1-1.1,1.1c-0.5,0-1-0.4-0.9-1C328.2,160.2,328.2,160.1,328.2,160.1z"/>
	<path id="Trazado_106882" class="st6" d="M340.8,158.5h-2l-0.2,2.6h-1.5l0.2-2.6h-5.9l0.1-1.1l5.8-6.9h1.6l-5.6,6.6h4.1l0.1-2.3
		h1.4l-0.1,2.3h2L340.8,158.5z"/>
	<path id="Trazado_106883" class="st6" d="M341.9,155.8c0.2-3.4,2.2-5.4,4.6-5.4s4.2,2,4,5.4c-0.2,3.4-2.2,5.4-4.6,5.4
		S341.7,159.2,341.9,155.8z M349,155.8c0.2-2.7-0.9-4-2.5-4s-2.9,1.3-3.1,4c-0.2,2.7,0.9,4,2.6,4C347.6,159.8,348.8,158.5,349,155.8
		z"/>
	<path id="Trazado_106884" class="st6" d="M352,155.8c0.2-3.4,2.2-5.4,4.7-5.4s4.2,2,4,5.4c-0.2,3.4-2.2,5.4-4.6,5.4
		C353.5,161.2,351.8,159.2,352,155.8z M359.1,155.8c0.2-2.7-0.9-4-2.6-4c-1.7,0-2.9,1.3-3.1,4c-0.2,2.7,0.9,4,2.6,4
		S359,158.5,359.1,155.8z"/>
	<path id="Trazado_106885" class="st6" d="M361.6,160.1c0-0.6,0.5-1,1.1-1c0.5,0,0.9,0.4,0.9,0.9c0,0,0,0.1,0,0.1
		c0,0.6-0.5,1.1-1.1,1.1c-0.5,0-1-0.4-0.9-1C361.6,160.2,361.6,160.1,361.6,160.1z"/>
	<path id="Trazado_106886" class="st6" d="M373.7,158.1c-0.1,1.9-1.8,3.1-4.4,3.1c-2.6,0-4.1-1.2-4-3.1c0.1-1.2,0.9-2.2,2-2.5
		c-0.9-0.4-1.4-1.3-1.3-2.3c0.1-1.8,1.7-2.9,4-2.9c2.3,0,3.8,1.1,3.7,2.9c-0.1,1-0.7,1.9-1.6,2.3C373.1,155.9,373.8,157,373.7,158.1
		L373.7,158.1z M372.2,158.1c0.1-1.2-0.9-1.9-2.6-1.9s-2.7,0.7-2.8,1.9c-0.1,1.2,0.9,1.9,2.6,1.9S372.1,159.2,372.2,158.1
		L372.2,158.1z M367.4,153.4c-0.1,1.1,0.8,1.7,2.2,1.7s2.4-0.6,2.4-1.7c0.1-1-0.8-1.7-2.3-1.7C368.4,151.7,367.5,152.3,367.4,153.4
		L367.4,153.4z"/>
	<path id="Trazado_106887" class="st6" d="M383.1,155.7c-0.2,3.6-2.4,5.5-5.3,5.5c-0.9,0-1.8-0.2-2.6-0.6l0.6-1.2
		c0.6,0.4,1.3,0.5,2,0.5c2.2,0,3.6-1.3,3.7-4v-0.4c-0.8,0.9-1.9,1.5-3.1,1.4c-2.1,0-3.5-1.3-3.4-3.2c0.2-2,1.9-3.5,3.9-3.3
		C381.8,150.4,383.3,152.3,383.1,155.7z M381.4,153.7c0.1-1.1-0.8-2-2.4-2c-1.2-0.1-2.3,0.8-2.4,2c0,0,0,0,0,0.1
		c-0.1,1.2,0.8,2,2.3,2C380,155.9,381.2,155,381.4,153.7z"/>
	<path id="Trazado_106888" class="st6" d="M335,141.8l-0.3,4.2h-0.6l0.2-3.7h-1v-0.5H335z"/>
	<path id="Trazado_106889" class="st6" d="M335.7,145.6c0-0.2,0.2-0.4,0.4-0.4c0.2,0,0.4,0.2,0.4,0.4c0,0,0,0,0,0
		c0,0.2-0.2,0.4-0.4,0.4C335.9,146,335.7,145.8,335.7,145.6C335.7,145.6,335.7,145.6,335.7,145.6L335.7,145.6z"/>
	<path id="Trazado_106890" class="st6" d="M338.6,141.8l-0.2,4.2h-0.6l0.2-3.7h-1v-0.5H338.6z"/>
	<path id="Trazado_106891" class="st6" d="M339.4,143.8c0.1-1.4,0.9-2.2,1.9-2.2s1.7,0.8,1.6,2.2c-0.1,1.4-0.9,2.2-1.9,2.2
		S339.3,145.2,339.4,143.8z M342.3,143.8c0.1-1.1-0.4-1.6-1.1-1.6s-1.2,0.6-1.2,1.6c-0.1,1.1,0.4,1.6,1.1,1.6
		S342.2,144.9,342.3,143.8z"/>
	<path id="Trazado_106892" class="st6" d="M343.5,143.8c0.1-1.4,0.9-2.2,1.9-2.2s1.7,0.8,1.6,2.2c-0.1,1.4-0.9,2.2-1.9,2.2
		S343.4,145.2,343.5,143.8z M346.3,143.8c0.1-1.1-0.4-1.6-1.1-1.6c-0.7,0-1.2,0.6-1.2,1.6c-0.1,1.1,0.4,1.6,1.1,1.6
		C345.8,145.5,346.3,144.9,346.3,143.8z"/>
	<path id="Trazado_106893" class="st6" d="M347.3,145.6c0-0.2,0.2-0.4,0.4-0.4c0.2,0,0.4,0.2,0.4,0.4c0,0,0,0,0,0
		c0,0.2-0.2,0.4-0.4,0.4C347.5,146,347.3,145.8,347.3,145.6C347.3,145.6,347.3,145.6,347.3,145.6L347.3,145.6z"/>
	<path id="Trazado_106894" class="st6" d="M352.2,144.8c0,0.8-0.7,1.3-1.8,1.3c-1,0-1.7-0.5-1.6-1.3c0-0.5,0.4-0.9,0.8-1
		c-0.4-0.1-0.6-0.5-0.6-0.9c0-0.7,0.7-1.2,1.6-1.2c0.9,0,1.5,0.4,1.5,1.2c0,0.4-0.3,0.8-0.7,0.9C352,143.9,352.3,144.3,352.2,144.8z
		 M351.6,144.8c0-0.5-0.4-0.8-1.1-0.8s-1.1,0.3-1.1,0.8c-0.1,0.5,0.4,0.8,1.1,0.8S351.6,145.2,351.6,144.8L351.6,144.8z
		 M349.7,142.8c0,0.4,0.3,0.7,0.9,0.7s1-0.3,1-0.7s-0.3-0.7-0.9-0.7S349.7,142.4,349.7,142.8z"/>
	<path id="Trazado_106895" class="st6" d="M352.8,143.8c0.1-1.4,0.9-2.2,1.9-2.2c1,0,1.7,0.8,1.6,2.2c-0.1,1.4-0.9,2.2-1.9,2.2
		S352.8,145.2,352.8,143.8z M355.7,143.8c0.1-1.1-0.4-1.6-1.1-1.6s-1.2,0.6-1.2,1.6c-0.1,1.1,0.4,1.6,1.1,1.6
		S355.7,144.9,355.7,143.8z"/>
	<path id="Trazado_106896" class="st6" d="M359.8,144.1h-1.1l-0.1,1.1h-0.5l0.1-1.1h-1.1v-0.5h1.1l0.1-1.1h0.5l-0.1,1.1h1.1
		L359.8,144.1z"/>
	<path id="Trazado_106897" class="st6" d="M361.9,141.8l-0.2,4.2H361l0.2-3.7h-1v-0.5H361.9z"/>
	<path id="Trazado_106898" class="st6" d="M362.5,145.6c0-0.2,0.2-0.4,0.4-0.4c0.2,0,0.4,0.2,0.4,0.4c0,0,0,0,0,0
		c0,0.2-0.2,0.4-0.4,0.4C362.7,146,362.5,145.8,362.5,145.6C362.5,145.6,362.5,145.6,362.5,145.6L362.5,145.6z"/>
	<path id="Trazado_106899" class="st6" d="M367,144.7c0,0.7-0.6,1.3-1.7,1.3c-0.6,0-1.1-0.2-1.5-0.5l0.3-0.5
		c0.3,0.3,0.8,0.5,1.3,0.5c0.6,0,1-0.3,1.1-0.8s-0.3-0.7-1-0.7H365v-0.4l1.2-1.3h-2.1v-0.5h2.8v0.4l-1.2,1.4
		C366.6,143.6,367,144.1,367,144.7z"/>
	<path id="Trazado_106900" class="st6" d="M367.6,143.8c0.1-1.4,0.9-2.2,1.9-2.2s1.7,0.8,1.6,2.2c-0.1,1.4-0.9,2.2-1.9,2.2
		C368.2,146,367.5,145.2,367.6,143.8z M370.5,143.8c0.1-1.1-0.4-1.6-1.1-1.6c-0.7,0-1.2,0.6-1.2,1.6c-0.1,1.1,0.4,1.6,1.1,1.6
		C370,145.5,370.4,144.9,370.5,143.8z"/>
	<path id="Trazado_106901" class="st6" d="M371.7,143.8c0.1-1.4,0.9-2.2,1.9-2.2c1,0,1.7,0.8,1.6,2.2c-0.1,1.4-0.9,2.2-1.9,2.2
		S371.6,145.2,371.7,143.8z M374.5,143.8c0.1-1.1-0.4-1.6-1-1.6c-0.7,0-1.2,0.6-1.2,1.6c-0.1,1.1,0.4,1.6,1.1,1.6
		S374.5,144.9,374.5,143.8z"/>
	<path id="Trazado_106902" class="st6" d="M375.5,145.6c0-0.2,0.2-0.4,0.4-0.4c0.2,0,0.4,0.2,0.4,0.4c0,0,0,0,0,0.1
		c0,0.2-0.2,0.4-0.4,0.4C375.7,146,375.5,145.8,375.5,145.6C375.5,145.6,375.5,145.6,375.5,145.6z"/>
	<path id="Trazado_106903" class="st6" d="M377,143.8c0.1-1.4,0.9-2.2,1.9-2.2c1,0,1.7,0.8,1.6,2.2c-0.1,1.4-0.9,2.2-1.9,2.2
		S376.9,145.2,377,143.8z M379.9,143.8c0.1-1.1-0.4-1.6-1-1.6c-0.7,0-1.2,0.6-1.2,1.6c-0.1,1.1,0.4,1.6,1.1,1.6
		S379.8,144.9,379.9,143.8z"/>
	<path id="Trazado_106904" class="st6" d="M384.2,143.8c0.1,1.2-0.8,2.1-2,2.2c-0.1,0-0.1,0-0.2,0c-0.4,0-0.8-0.1-1.1-0.2l0.3-0.5
		c0.2,0.1,0.5,0.2,0.8,0.2c0.9,0,1.4-0.5,1.5-1.6v-0.2c-0.3,0.4-0.8,0.6-1.3,0.6c-0.9,0-1.4-0.5-1.4-1.3c0.1-0.8,0.8-1.4,1.6-1.3
		C383.7,141.7,384.3,142.4,384.2,143.8z M383.5,143c0-0.4-0.3-0.8-1-0.8c-0.5-0.1-0.9,0.3-1,0.8c0,0,0,0,0,0c0,0.5,0.3,0.8,0.9,0.8
		C383,143.9,383.5,143.5,383.5,143L383.5,143z"/>
	<path id="Trazado_106905" class="st11" d="M394.9,109.2c-12.8,31.8-52.1,109.7-143.4,153.8l8.5-148.8c0.2-2.8,2.5-5,5.2-5
		L394.9,109.2z"/>
	<g id="Grupo_60136">
		<path id="Trazado_106906" class="st6" d="M385.9,184.8h-14.8c-1.1,0-2,0.9-2.1,2l-0.3,5.1c-0.1,1,0.7,1.9,1.7,2c0,0,0.1,0,0.1,0
			h14.8c1.1,0,2-0.9,2.1-2l0.3-5.1C387.8,185.7,387.1,184.9,385.9,184.8C386,184.8,386,184.8,385.9,184.8L385.9,184.8z"/>
		<path id="Trazado_106907" class="st6" d="M360.8,184.7h-14.8c-1.1,0-2,0.9-2.1,2l-0.3,5.1c-0.1,1,0.7,1.9,1.8,2c0,0,0.1,0,0.1,0
			h14.8c1.1,0,2.1-0.9,2.2-2l0.3-5.1c0.1-1-0.7-1.9-1.7-2C361,184.7,360.9,184.7,360.8,184.7L360.8,184.7z"/>
		<path id="Trazado_106908" class="st6" d="M385.1,199h-14.8c-1.1,0-2,0.9-2.1,2l-0.3,5.1c-0.1,1,0.7,1.9,1.7,2c0,0,0.1,0,0.1,0
			h14.8c1.1,0,2-0.9,2.1-2l0.3-5.1c0.1-1-0.7-1.9-1.7-2C385.2,199,385.1,199,385.1,199L385.1,199z"/>
		<path id="Trazado_106909" class="st6" d="M360,198.9h-14.8c-1.1,0-2,0.9-2.1,2l-0.3,5.1c-0.1,1,0.7,1.9,1.7,2c0,0,0.1,0,0.1,0
			h14.8c1.1,0,2.1-0.9,2.2-2l0.3-5.1c0.1-1-0.7-1.9-1.7-2C360.2,198.9,360.1,198.9,360,198.9z"/>
		<path id="Trazado_106910" class="st6" d="M335,199h-14.8c-1.1,0-2,0.9-2.1,2l-0.3,5.1c-0.1,1,0.7,1.9,1.7,2c0,0,0.1,0,0.1,0h14.8
			c1.1,0,2-0.9,2.1-2l0.3-5.1c0.1-1-0.7-1.9-1.7-2C335.1,199,335,199,335,199L335,199z"/>
		<path id="Trazado_106911" class="st6" d="M309.9,199.1h-14.8c-1.1,0.1-2,0.9-2.1,2l-0.3,5.1c-0.1,1,0.7,1.9,1.7,2c0,0,0.1,0,0.1,0
			h14.7c1.1,0,2-0.9,2.1-2l0.3-5.1c0.1-1-0.7-1.9-1.7-2C310,199.1,310,199.1,309.9,199.1L309.9,199.1z"/>
		<path id="Trazado_106912" class="st6" d="M284.9,199.2h-14.8c-1.1,0-2,0.9-2.1,2l-0.3,5.1c-0.1,1,0.7,1.9,1.8,2c0,0,0.1,0,0.1,0
			h14.8c1.1,0,2-0.9,2.1-2l0.3-5.1c0.1-1-0.7-1.9-1.7-2C285,199.2,284.9,199.2,284.9,199.2z"/>
		<path id="Trazado_106913" class="st6" d="M383.6,218.1h-14c-1.3,0-2.4,1-2.5,2.4l-0.4,7.2c-0.1,1.2,0.8,2.3,2.1,2.4
			c0.1,0,0.1,0,0.2,0h14c1.3,0,2.4-1,2.5-2.4l0.4-7.2c0.1-1.2-0.8-2.2-1.9-2.4C383.8,218.1,383.7,218.1,383.6,218.1z"/>
		<path id="Trazado_106914" class="st6" d="M358.6,218h-14c-1.3,0-2.4,1.1-2.5,2.4l-0.4,7.2c-0.1,1.2,0.8,2.2,1.9,2.4
			c0.1,0,0.2,0,0.3,0h14c1.3,0,2.4-1,2.5-2.4l0.4-7.2c0.1-1.2-0.8-2.3-2.1-2.4C358.7,218,358.6,218,358.6,218z"/>
		<path id="Trazado_106915" class="st6" d="M333.5,218.1h-14c-1.3,0-2.4,1-2.5,2.4l-0.4,7.2c-0.1,1.2,0.8,2.2,1.9,2.4
			c0.1,0,0.2,0,0.3,0h14c1.3,0,2.4-1,2.5-2.4l0.4-7.2c0.1-1.2-0.8-2.2-1.9-2.4C333.7,218.1,333.6,218.1,333.5,218.1z"/>
		<path id="Trazado_106916" class="st6" d="M308.5,218.2h-14c-1.3,0-2.4,1.1-2.5,2.4l-0.4,7.2c-0.1,1.2,0.8,2.3,2.1,2.4
			c0.1,0,0.1,0,0.2,0h14c1.3,0,2.4-1.1,2.5-2.4l0.4-7.2c0.1-1.2-0.7-2.2-1.9-2.4C308.7,218.2,308.6,218.2,308.5,218.2z"/>
		<path id="Trazado_106917" class="st6" d="M283.4,218.4h-14c-1.3,0-2.4,1.1-2.5,2.4l-0.4,7.2c-0.1,1.2,0.8,2.2,1.9,2.4
			c0.1,0,0.2,0,0.3,0h14c1.3,0,2.4-1,2.5-2.4l0.4-7.2c0.1-1.2-0.7-2.2-1.9-2.4C283.6,218.4,283.5,218.4,283.4,218.4z"/>
		<path id="Trazado_106918" class="st6" d="M354.4,291.2h-14c-1.3,0-2.4,1.1-2.5,2.4l-0.4,7.2c-0.1,1.2,0.8,2.3,2,2.4
			c0.1,0,0.1,0,0.2,0h14c1.3,0,2.4-1.1,2.5-2.4l0.4-7.2c0.1-1.2-0.7-2.2-1.9-2.4C354.6,291.2,354.5,291.2,354.4,291.2z"/>
		<path id="Trazado_106919" class="st6" d="M329.4,291.3h-14c-1.3,0-2.4,1.1-2.5,2.4l-0.4,7.2c-0.1,1.2,0.8,2.2,1.9,2.4
			c0.1,0,0.2,0,0.3,0h14c1.3,0,2.4-1,2.5-2.4l0.4-7.2c0.1-1.2-0.7-2.2-1.9-2.4C329.6,291.3,329.5,291.3,329.4,291.3z"/>
		<path id="Trazado_106920" class="st6" d="M304.3,291.5h-14c-1.3,0-2.4,1-2.5,2.4l-0.4,7.2c-0.1,1.2,0.8,2.3,2.1,2.4
			c0.1,0,0.1,0,0.2,0h14c1.3,0,2.4-1.1,2.5-2.4l0.4-7.2c0.1-1.2-0.8-2.2-1.9-2.4C304.5,291.5,304.4,291.5,304.3,291.5z"/>
		<path id="Trazado_106921" class="st6" d="M279.3,291.6h-14c-1.3,0-2.4,1.1-2.5,2.4l-0.4,7.2c-0.1,1.2,0.7,2.2,1.9,2.4
			c0.1,0,0.2,0,0.3,0h14c1.3,0,2.4-1,2.5-2.4l0.4-7.2c0.1-1.2-0.7-2.2-1.9-2.4C279.5,291.6,279.4,291.6,279.3,291.6z"/>
		<path id="Trazado_106922" class="st6" d="M380.5,273h-14c-1.3,0-2.4,1.1-2.5,2.4l-0.4,6.3l-0.1,0.9l-1.1,18.3
			c-0.1,1.2,0.8,2.2,1.9,2.4c0.1,0,0.2,0,0.3,0h14c1.3,0,2.4-1,2.5-2.4l1.1-18.3v-0.9l0.4-6.3c0.1-1.2-0.8-2.3-2-2.4
			C380.6,273,380.6,273,380.5,273L380.5,273z"/>
		<path id="Trazado_106923" class="st6" d="M355.5,272.9h-14c-1.3,0-2.4,1-2.5,2.4l-0.4,7.2c-0.1,1.2,0.8,2.2,1.9,2.4
			c0.1,0,0.2,0,0.3,0h14c1.3,0,2.4-1,2.5-2.4l0.4-7.2c0.1-1.2-0.8-2.2-1.9-2.4C355.6,272.9,355.6,272.9,355.5,272.9z"/>
		<path id="Trazado_106924" class="st6" d="M330.4,273h-14c-1.3,0-2.4,1.1-2.5,2.4l-0.4,7.2c-0.1,1.2,0.7,2.2,1.9,2.4
			c0.1,0,0.2,0,0.3,0h14c1.3,0,2.4-1.1,2.5-2.4l0.4-7.2c0.1-1.2-0.8-2.3-2-2.4C330.5,273,330.5,273,330.4,273z"/>
		<path id="Trazado_106925" class="st6" d="M305.4,273.2h-14c-1.3,0-2.4,1.1-2.5,2.4l-0.4,7.2c-0.1,1.2,0.8,2.2,1.9,2.4
			c0.1,0,0.2,0,0.3,0h14c1.3,0,2.4-1,2.5-2.4l0.4-7.2c0.1-1.2-0.8-2.3-2-2.4C305.5,273.2,305.4,273.2,305.4,273.2L305.4,273.2z"/>
		<path id="Trazado_106926" class="st6" d="M280.3,273.3h-14c-1.3,0-2.4,1-2.5,2.4l-0.4,7.2c-0.1,1.2,0.7,2.3,1.9,2.4
			c0.1,0,0.2,0,0.3,0h14c1.3,0,2.4-1,2.5-2.4l0.4-7.2c0.1-1.2-0.7-2.3-1.9-2.4C280.5,273.3,280.4,273.3,280.3,273.3L280.3,273.3z"/>
		<path id="Trazado_106927" class="st6" d="M381.5,254.7h-14c-1.3,0-2.4,1-2.5,2.4l-0.4,7.2c-0.1,1.2,0.8,2.2,1.9,2.4
			c0.1,0,0.2,0,0.3,0h14c1.3,0,2.4-1,2.5-2.4l0.4-7.2c0.1-1.2-0.8-2.2-1.9-2.4C381.7,254.7,381.6,254.7,381.5,254.7z"/>
		<path id="Trazado_106928" class="st6" d="M356.5,254.6h-14c-1.3,0-2.4,1.1-2.5,2.4l-0.4,7.2c-0.1,1.2,0.7,2.2,1.9,2.4
			c0.1,0,0.2,0,0.3,0h14c1.3,0,2.4-1.1,2.5-2.4l0.4-7.2c0.1-1.2-0.7-2.2-1.9-2.4C356.7,254.6,356.6,254.6,356.5,254.6z"/>
		<path id="Trazado_106929" class="st6" d="M331.5,254.7h-14c-1.3,0-2.4,1-2.5,2.4l-0.4,7.2c-0.1,1.2,0.8,2.2,1.9,2.4
			c0.1,0,0.2,0,0.3,0h14c1.3,0,2.4-1,2.5-2.4l0.4-7.2c0.1-1.2-0.8-2.2-1.9-2.4C331.6,254.7,331.5,254.7,331.5,254.7z"/>
		<path id="Trazado_106930" class="st6" d="M306.4,254.9h-14c-1.3,0-2.4,1.1-2.5,2.4l-0.4,7.2c-0.1,1.2,0.8,2.3,2.1,2.4
			c0.1,0,0.1,0,0.2,0h14c1.3,0,2.4-1.1,2.5-2.4l0.4-7.2c0.1-1.2-0.8-2.2-1.9-2.4C306.6,254.9,306.5,254.9,306.4,254.9L306.4,254.9z"
			/>
		<path id="Trazado_106931" class="st6" d="M281.4,255h-14c-1.3,0-2.4,1-2.5,2.4l-0.4,7.2c-0.1,1.2,0.7,2.2,1.9,2.4
			c0.1,0,0.2,0,0.3,0h14c1.3,0,2.4-1.1,2.5-2.4l0.4-7.2c0.1-1.2-0.7-2.2-1.9-2.4C281.5,255,281.5,255,281.4,255z"/>
		<path id="Trazado_106932" class="st6" d="M382.6,236.4h-14c-1.3,0-2.4,1.1-2.5,2.4l-0.4,7.2c-0.1,1.2,0.7,2.2,1.9,2.4
			c0.1,0,0.2,0,0.3,0h14c1.3,0,2.4-1,2.5-2.4l0.4-7.2c0.1-1.2-0.8-2.3-2-2.4C382.7,236.4,382.6,236.4,382.6,236.4z"/>
		<path id="Trazado_106933" class="st6" d="M357.5,236.3h-14c-1.3,0-2.4,1-2.5,2.4l-0.4,7.2c-0.1,1.2,0.8,2.3,2.1,2.4
			c0.1,0,0.1,0,0.2,0h14c1.3,0,2.4-1.1,2.5-2.4l0.4-7.2c0.1-1.2-0.8-2.2-1.9-2.4C357.7,236.3,357.6,236.3,357.5,236.3z"/>
		<path id="Trazado_106934" class="st6" d="M332.5,236.4h-14c-1.3,0-2.4,1.1-2.5,2.4l-0.4,7.2c-0.1,1.2,0.7,2.2,1.9,2.4
			c0.1,0,0.2,0,0.3,0h14c1.3,0,2.4-1,2.5-2.4l0.4-7.2c0.1-1.2-0.7-2.2-1.9-2.4C332.7,236.4,332.6,236.4,332.5,236.4z"/>
		<path id="Trazado_106935" class="st6" d="M307.4,236.5h-14c-1.3,0-2.3,1-2.4,2.3l-0.4,7.2c-0.1,1.2,0.8,2.2,1.9,2.4
			c0.1,0,0.2,0,0.3,0h14c1.3,0,2.4-1,2.5-2.4l0.4-7.2c0.1-1.2-0.9-2.3-2.1-2.3C307.6,236.5,307.5,236.5,307.4,236.5z"/>
		<path id="Trazado_106936" class="st6" d="M282.4,236.7h-14c-1.3,0-2.4,1-2.5,2.4l-0.4,7.2c-0.1,1.2,0.7,2.2,1.9,2.4
			c0.1,0,0.2,0,0.3,0h14c1.3,0,2.4-1.1,2.5-2.4l0.4-7.2c0.1-1.2-0.8-2.2-1.9-2.4C282.6,236.7,282.5,236.7,282.4,236.7z"/>
	</g>
	<path id="Trazado_106937" class="st6" d="M384.9,184.8h-14.7c-1.1,0-2.1,0.9-2.2,2l-0.3,5.1c-0.1,1,0.7,1.9,1.7,2c0,0,0.1,0,0.1,0
		h14.8c1.1,0,2-0.9,2.1-2l0.3-5.1c0.1-1-0.7-1.9-1.7-2C384.9,184.8,384.9,184.8,384.9,184.8z"/>
	<path id="Trazado_106938" class="st6" d="M359.9,184.7h-14.8c-1.1,0-2,0.9-2.1,2l-0.3,5.1c-0.1,1,0.7,1.9,1.7,2c0,0,0.1,0,0.1,0
		h14.8c1.1,0,2-0.9,2.1-2l0.3-5.1c0.1-1-0.7-1.9-1.7-2C360,184.7,359.9,184.7,359.9,184.7z"/>
	<path id="Trazado_106939" class="st6" d="M384.1,199h-14.8c-1.1,0-2.1,0.9-2.2,2l-0.3,5.1c-0.1,1,0.7,1.9,1.7,2c0,0,0.1,0,0.1,0
		h14.8c1.1,0,2-0.9,2.1-2l0.3-5.1c0.1-1-0.7-1.9-1.7-2C384.2,199,384.1,199,384.1,199z"/>
	<path id="Trazado_106940" class="st6" d="M359,198.9h-14.8c-1.1,0-2,0.9-2.1,2l-0.3,5.1c-0.1,1,0.7,1.9,1.7,2c0.1,0,0.1,0,0.2,0
		h14.8c1.1,0,2-0.9,2.1-2l0.3-5.1c0.1-1-0.7-1.9-1.7-2C359.1,198.9,359.1,198.9,359,198.9L359,198.9z"/>
	<path id="Trazado_106941" class="st6" d="M334,199h-14.8c-1.1,0-2,0.9-2.1,2l-0.3,5.1c-0.1,1,0.7,1.9,1.7,2c0,0,0.1,0,0.1,0h14.8
		c1.1,0,2-0.9,2.1-2l0.3-5.1c0.1-1-0.7-1.9-1.7-2C334.1,199,334,199,334,199z"/>
	<path id="Trazado_106942" class="st6" d="M309,199.1h-14.7c-1.1,0-2.1,0.9-2.2,2l-0.3,5.1c-0.1,1,0.7,1.9,1.7,2c0,0,0.1,0,0.1,0
		h14.8c1.1,0,2-0.9,2.1-2l0.3-5.1c0.1-1-0.7-1.9-1.7-2C309,199.1,309,199.1,309,199.1z"/>
	<path id="Trazado_106943" class="st6" d="M283.9,199.2h-14.8c-1.1,0-2,0.9-2.1,2l-0.3,5.1c-0.1,1,0.7,1.9,1.7,2c0,0,0.1,0,0.1,0
		h14.8c1.1,0,2-0.9,2.1-2l0.3-5.1c0.1-1-0.7-1.9-1.7-2C284,199.2,284,199.2,283.9,199.2z"/>
	<path id="Trazado_106944" class="st6" d="M382.6,218.1h-14c-1.3,0-2.4,1-2.5,2.4l-0.4,7.2c-0.1,1.2,0.8,2.2,1.9,2.4
		c0.1,0,0.2,0,0.3,0h14c1.3,0,2.4-1,2.5-2.4l0.4-7.2c0.1-1.2-0.7-2.3-1.9-2.4C382.9,218.1,382.7,218.1,382.6,218.1z"/>
	<path id="Trazado_106945" class="st6" d="M357.6,218h-14c-1.3,0-2.4,1.1-2.5,2.4l-0.4,7.2c-0.1,1.2,0.8,2.2,1.9,2.4
		c0.1,0,0.2,0,0.3,0h14c1.3,0,2.4-1,2.5-2.4l0.4-7.2c0.1-1.2-0.7-2.2-1.9-2.4C357.8,218,357.7,218,357.6,218z"/>
	<path id="Trazado_106946" class="st6" d="M332.5,218.1h-14c-1.3,0-2.4,1-2.5,2.4l-0.4,7.2c-0.1,1.2,0.8,2.2,1.9,2.4
		c0.1,0,0.2,0,0.3,0h14c1.3,0,2.4-1,2.5-2.4l0.4-7.2c0.1-1.2-0.8-2.2-1.9-2.4C332.7,218.1,332.6,218.1,332.5,218.1z"/>
	<path id="Trazado_106947" class="st6" d="M307.5,218.2h-14c-1.3,0-2.4,1.1-2.5,2.4l-0.4,7.2c-0.1,1.2,0.7,2.2,1.9,2.4
		c0.1,0,0.2,0,0.3,0h14c1.3,0,2.4-1.1,2.5-2.4l0.4-7.2c0.1-1.2-0.8-2.3-2-2.4C307.6,218.2,307.6,218.2,307.5,218.2z"/>
	<path id="Trazado_106948" class="st6" d="M282.4,218.4h-14c-1.3,0-2.4,1.1-2.5,2.4l-0.4,7.2c-0.1,1.2,0.8,2.2,1.9,2.4
		c0.1,0,0.2,0,0.3,0h14c1.3,0,2.4-1,2.5-2.4l0.4-7.2c0.1-1.2-0.8-2.3-2.1-2.4C282.6,218.4,282.5,218.4,282.4,218.4z"/>
	<path id="Trazado_106949" class="st6" d="M353.4,291.2h-14c-1.3,0-2.4,1.1-2.5,2.4l-0.4,7.2c-0.1,1.2,0.7,2.2,1.9,2.4
		c0.1,0,0.2,0,0.3,0h14c1.3,0,2.4-1,2.5-2.4l0.4-7.2c0.1-1.2-0.8-2.3-2-2.4C353.5,291.2,353.5,291.2,353.4,291.2z"/>
	<path id="Trazado_106950" class="st6" d="M328.4,291.3h-14c-1.3,0-2.4,1.1-2.5,2.4l-0.4,7.2c-0.1,1.2,0.8,2.2,1.9,2.4
		c0.1,0,0.2,0,0.3,0h14c1.3,0,2.4-1,2.5-2.4l0.4-7.2c0.1-1.2-0.8-2.3-2.1-2.4C328.5,291.3,328.4,291.3,328.4,291.3z"/>
	<path id="Trazado_106951" class="st6" d="M303.3,291.5h-14c-1.3,0-2.4,1-2.5,2.4l-0.4,7.2c-0.1,1.2,0.7,2.2,1.9,2.4
		c0.1,0,0.2,0,0.3,0h14c1.3,0,2.4-1.1,2.5-2.4l0.4-7.2c0.1-1.2-0.8-2.2-1.9-2.4C303.5,291.5,303.4,291.5,303.3,291.5z"/>
	<path id="Trazado_106952" class="st6" d="M278.3,291.6h-14c-1.3,0-2.4,1.1-2.5,2.4l-0.4,7.2c-0.1,1.2,0.8,2.3,2.1,2.4
		c0.1,0,0.1,0,0.2,0h14c1.3,0,2.4-1.1,2.5-2.4l0.4-7.2c0.1-1.2-0.7-2.2-1.9-2.4C278.5,291.6,278.4,291.6,278.3,291.6z"/>
	<path id="Trazado_106953" class="st6" d="M379.5,273h-14c-1.3,0-2.4,1-2.5,2.4l-0.4,6.3l-0.1,0.9l-1.1,18.3
		c-0.1,1.2,0.8,2.2,1.9,2.4c0.1,0,0.2,0,0.3,0h14c1.3,0,2.4-1,2.5-2.4l1.1-18.3l0.1-0.9l0.4-6.3c0.1-1.2-0.7-2.2-1.9-2.4
		C379.7,273,379.6,273,379.5,273z"/>
	<path id="Trazado_106954" class="st6" d="M354.5,272.9h-14c-1.3,0-2.4,1-2.5,2.4l-0.4,7.2c-0.1,1.2,0.8,2.3,2.1,2.4
		c0.1,0,0.1,0,0.2,0h14c1.3,0,2.4-1,2.5-2.4l0.4-7.2c0.1-1.2-0.8-2.2-1.9-2.4C354.6,272.9,354.6,272.9,354.5,272.9z"/>
	<path id="Trazado_106955" class="st6" d="M329.4,273h-14c-1.3,0-2.4,1-2.5,2.4l-0.4,7.2c-0.1,1.2,0.8,2.3,2.1,2.4
		c0.1,0,0.1,0,0.2,0h14c1.3,0,2.4-1.1,2.5-2.4l0.4-7.2c0.1-1.2-0.7-2.2-1.9-2.4C329.6,273,329.5,273,329.4,273z"/>
	<path id="Trazado_106956" class="st6" d="M304.4,273.2h-14c-1.3,0-2.4,1.1-2.5,2.4l-0.4,7.2c-0.1,1.2,0.8,2.2,1.9,2.4
		c0.1,0,0.2,0,0.3,0h14c1.3,0,2.4-1,2.5-2.4l0.4-7.2c0.1-1.2-0.7-2.2-1.9-2.4C304.6,273.2,304.5,273.2,304.4,273.2z"/>
	<path id="Trazado_106957" class="st6" d="M279.3,273.3h-14c-1.3,0-2.4,1-2.5,2.4l-0.4,7.2c-0.1,1.2,0.8,2.2,1.9,2.4
		c0.1,0,0.2,0,0.3,0h14c1.3,0,2.4-1,2.5-2.4l0.4-7.2c0.1-1.2-0.8-2.2-1.9-2.4C279.5,273.3,279.4,273.3,279.3,273.3z"/>
	<path id="Trazado_106958" class="st6" d="M380.5,254.7h-14c-1.3,0-2.4,1-2.5,2.4l-0.4,7.2c-0.1,1.2,0.8,2.2,1.9,2.4
		c0.1,0,0.2,0,0.3,0h14c1.3,0,2.4-1,2.5-2.4l0.4-7.2c0.1-1.2-0.8-2.2-1.9-2.4C380.7,254.7,380.6,254.7,380.5,254.7z"/>
	<path id="Trazado_106959" class="st6" d="M355.5,254.6h-14c-1.3,0-2.4,1.1-2.5,2.4l-0.4,7.2c-0.1,1.2,0.7,2.2,1.9,2.4
		c0.1,0,0.2,0,0.3,0h14c1.3,0,2.4-1,2.5-2.4l0.4-7.2c0.1-1.2-0.8-2.3-2.1-2.4C355.6,254.6,355.6,254.6,355.5,254.6z"/>
	<path id="Trazado_106960" class="st6" d="M330.5,254.7h-14c-1.3,0-2.4,1-2.5,2.4l-0.4,7.2c-0.1,1.2,0.8,2.2,1.9,2.4
		c0.1,0,0.2,0,0.3,0h14c1.3,0,2.4-1,2.5-2.4l0.4-7.2c0.1-1.2-0.8-2.2-1.9-2.4C330.6,254.7,330.5,254.7,330.5,254.7z"/>
	<path id="Trazado_106961" class="st6" d="M305.4,254.9h-14c-1.3,0-2.4,1-2.5,2.4l-0.4,7.2c-0.1,1.2,0.7,2.2,1.9,2.4
		c0.1,0,0.2,0,0.3,0h14c1.3,0,2.4-1.1,2.5-2.4l0.4-7.2c0.1-1.2-0.8-2.2-1.9-2.4C305.6,254.9,305.5,254.9,305.4,254.9z"/>
	<path id="Trazado_106962" class="st6" d="M280.4,255h-14c-1.3,0-2.4,1.1-2.5,2.4l-0.4,7.2c-0.1,1.2,0.7,2.2,1.9,2.4
		c0.1,0,0.2,0,0.3,0h14c1.3,0,2.4-1.1,2.5-2.4l0.4-7.2c0.1-1.2-0.8-2.3-2.1-2.4C280.5,255,280.4,255,280.4,255z"/>
	<path id="Trazado_106963" class="st6" d="M381.6,236.4h-14c-1.3,0-2.4,1.1-2.5,2.4l-0.4,7.2c-0.1,1.2,0.8,2.3,2,2.4
		c0.1,0,0.1,0,0.2,0h14c1.3,0,2.4-1.1,2.5-2.4l0.4-7.2c0.1-1.2-0.7-2.2-1.9-2.4C381.8,236.4,381.7,236.4,381.6,236.4z"/>
	<path id="Trazado_106964" class="st6" d="M356.5,236.3h-14c-1.3,0-2.4,1-2.5,2.4l-0.4,7.2c-0.1,1.2,0.7,2.2,1.9,2.4
		c0.1,0,0.2,0,0.3,0h14c1.3,0,2.4-1.1,2.5-2.4l0.4-7.2c0.1-1.2-0.8-2.2-1.9-2.4C356.7,236.3,356.6,236.3,356.5,236.3z"/>
	<path id="Trazado_106965" class="st6" d="M331.5,236.4h-14c-1.3,0-2.4,1.1-2.5,2.4l-0.4,7.2c-0.1,1.2,0.8,2.3,2.1,2.4
		c0.1,0,0.1,0,0.2,0h14c1.3,0,2.4-1.1,2.5-2.4l0.4-7.2c0.1-1.2-0.7-2.2-1.9-2.4C331.7,236.4,331.6,236.4,331.5,236.4z"/>
	<path id="Trazado_106966" class="st6" d="M306.5,236.5h-14c-1.3,0-2.4,1-2.5,2.3l-0.4,7.2c-0.1,1.2,0.8,2.2,1.9,2.4
		c0.1,0,0.2,0,0.3,0h14c1.3,0,2.4-1,2.5-2.4l0.4-7.2c0.1-1.2-0.8-2.2-2-2.3C306.6,236.5,306.5,236.5,306.5,236.5z"/>
	<path id="Trazado_106967" class="st6" d="M281.4,236.7h-14c-1.3,0-2.4,1-2.5,2.4l-0.4,7.2c-0.1,1.2,0.8,2.3,2.1,2.4
		c0.1,0,0.1,0,0.2,0h14c1.3,0,2.4-1.1,2.5-2.4l0.4-7.2c0.1-1.2-0.8-2.2-1.9-2.4C281.6,236.7,281.5,236.7,281.4,236.7z"/>
	<g id="Grupo_60137" class="st12">
		<path id="Trazado_106968" class="st13" d="M384.9,184.8h-14.7c-1.1,0-2.1,0.9-2.2,2l-0.3,5.1c-0.1,1,0.7,1.9,1.7,2
			c0,0,0.1,0,0.1,0h14.8c1.1,0,2-0.9,2.1-2l0.3-5.1c0.1-1-0.7-1.9-1.7-2C384.9,184.8,384.9,184.8,384.9,184.8z"/>
		<path id="Trazado_106969" class="st13" d="M359.9,184.7h-14.8c-1.1,0-2,0.9-2.1,2l-0.3,5.1c-0.1,1,0.7,1.9,1.7,2c0,0,0.1,0,0.1,0
			h14.8c1.1,0,2-0.9,2.1-2l0.3-5.1c0.1-1-0.7-1.9-1.7-2C360,184.7,359.9,184.7,359.9,184.7z"/>
		<path id="Trazado_106970" class="st13" d="M384.1,199h-14.8c-1.1,0-2.1,0.9-2.2,2l-0.3,5.1c-0.1,1,0.7,1.9,1.7,2c0,0,0.1,0,0.1,0
			h14.8c1.1,0,2-0.9,2.1-2l0.3-5.1c0.1-1-0.7-1.9-1.7-2C384.2,199,384.1,199,384.1,199z"/>
		<path id="Trazado_106971" class="st13" d="M359,198.9h-14.8c-1.1,0-2,0.9-2.1,2l-0.3,5.1c-0.1,1,0.7,1.9,1.7,2c0.1,0,0.1,0,0.2,0
			h14.8c1.1,0,2-0.9,2.1-2l0.3-5.1c0.1-1-0.7-1.9-1.7-2C359.1,198.9,359.1,198.9,359,198.9L359,198.9z"/>
		<path id="Trazado_106972" class="st13" d="M334,199h-14.8c-1.1,0-2,0.9-2.1,2l-0.3,5.1c-0.1,1,0.7,1.9,1.7,2c0,0,0.1,0,0.1,0h14.8
			c1.1,0,2-0.9,2.1-2l0.3-5.1c0.1-1-0.7-1.9-1.7-2C334.1,199,334,199,334,199z"/>
		<path id="Trazado_106973" class="st13" d="M309,199.1h-14.7c-1.1,0-2.1,0.9-2.2,2l-0.3,5.1c-0.1,1,0.7,1.9,1.7,2c0,0,0.1,0,0.1,0
			h14.8c1.1,0,2-0.9,2.1-2l0.3-5.1c0.1-1-0.7-1.9-1.7-2C309,199.1,309,199.1,309,199.1z"/>
		<path id="Trazado_106974" class="st13" d="M283.9,199.2h-14.8c-1.1,0-2,0.9-2.1,2l-0.3,5.1c-0.1,1,0.7,1.9,1.7,2c0,0,0.1,0,0.1,0
			h14.8c1.1,0,2-0.9,2.1-2l0.3-5.1c0.1-1-0.7-1.9-1.7-2C284,199.2,284,199.2,283.9,199.2z"/>
		<path id="Trazado_106975" class="st13" d="M382.6,218.1h-14c-1.3,0-2.4,1-2.5,2.4l-0.4,7.2c-0.1,1.2,0.8,2.2,1.9,2.4
			c0.1,0,0.2,0,0.3,0h14c1.3,0,2.4-1,2.5-2.4l0.4-7.2c0.1-1.2-0.7-2.3-1.9-2.4C382.9,218.1,382.7,218.1,382.6,218.1z"/>
		<path id="Trazado_106976" class="st13" d="M357.6,218h-14c-1.3,0-2.4,1.1-2.5,2.4l-0.4,7.2c-0.1,1.2,0.8,2.2,1.9,2.4
			c0.1,0,0.2,0,0.3,0h14c1.3,0,2.4-1,2.5-2.4l0.4-7.2c0.1-1.2-0.7-2.2-1.9-2.4C357.8,218,357.7,218,357.6,218z"/>
		<path id="Trazado_106977" class="st13" d="M332.5,218.1h-14c-1.3,0-2.4,1-2.5,2.4l-0.4,7.2c-0.1,1.2,0.8,2.2,1.9,2.4
			c0.1,0,0.2,0,0.3,0h14c1.3,0,2.4-1,2.5-2.4l0.4-7.2c0.1-1.2-0.8-2.2-1.9-2.4C332.7,218.1,332.6,218.1,332.5,218.1z"/>
		<path id="Trazado_106978" class="st13" d="M307.5,218.2h-14c-1.3,0-2.4,1.1-2.5,2.4l-0.4,7.2c-0.1,1.2,0.7,2.2,1.9,2.4
			c0.1,0,0.2,0,0.3,0h14c1.3,0,2.4-1.1,2.5-2.4l0.4-7.2c0.1-1.2-0.8-2.3-2-2.4C307.6,218.2,307.6,218.2,307.5,218.2z"/>
		<path id="Trazado_106979" class="st13" d="M282.4,218.4h-14c-1.3,0-2.4,1.1-2.5,2.4l-0.4,7.2c-0.1,1.2,0.8,2.2,1.9,2.4
			c0.1,0,0.2,0,0.3,0h14c1.3,0,2.4-1,2.5-2.4l0.4-7.2c0.1-1.2-0.8-2.3-2.1-2.4C282.6,218.4,282.5,218.4,282.4,218.4z"/>
		<path id="Trazado_106980" class="st13" d="M353.4,291.2h-14c-1.3,0-2.4,1.1-2.5,2.4l-0.4,7.2c-0.1,1.2,0.7,2.2,1.9,2.4
			c0.1,0,0.2,0,0.3,0h14c1.3,0,2.4-1,2.5-2.4l0.4-7.2c0.1-1.2-0.8-2.3-2-2.4C353.5,291.2,353.5,291.2,353.4,291.2z"/>
		<path id="Trazado_106981" class="st13" d="M328.4,291.3h-14c-1.3,0-2.4,1.1-2.5,2.4l-0.4,7.2c-0.1,1.2,0.8,2.2,1.9,2.4
			c0.1,0,0.2,0,0.3,0h14c1.3,0,2.4-1,2.5-2.4l0.4-7.2c0.1-1.2-0.8-2.3-2.1-2.4C328.5,291.3,328.4,291.3,328.4,291.3z"/>
		<path id="Trazado_106982" class="st13" d="M303.3,291.5h-14c-1.3,0-2.4,1-2.5,2.4l-0.4,7.2c-0.1,1.2,0.7,2.2,1.9,2.4
			c0.1,0,0.2,0,0.3,0h14c1.3,0,2.4-1.1,2.5-2.4l0.4-7.2c0.1-1.2-0.8-2.2-1.9-2.4C303.5,291.5,303.4,291.5,303.3,291.5z"/>
		<path id="Trazado_106983" class="st13" d="M278.3,291.6h-14c-1.3,0-2.4,1.1-2.5,2.4l-0.4,7.2c-0.1,1.2,0.8,2.3,2.1,2.4
			c0.1,0,0.1,0,0.2,0h14c1.3,0,2.4-1.1,2.5-2.4l0.4-7.2c0.1-1.2-0.7-2.2-1.9-2.4C278.5,291.6,278.4,291.6,278.3,291.6z"/>
		<path id="Trazado_106984" class="st13" d="M379.5,273h-14c-1.3,0-2.4,1-2.5,2.4l-0.4,6.3l-0.1,0.9l-1.1,18.3
			c-0.1,1.2,0.8,2.2,1.9,2.4c0.1,0,0.2,0,0.3,0h14c1.3,0,2.4-1,2.5-2.4l1.1-18.3l0.1-0.9l0.4-6.3c0.1-1.2-0.7-2.2-1.9-2.4
			C379.7,273,379.6,273,379.5,273z"/>
		<path id="Trazado_106985" class="st13" d="M354.5,272.9h-14c-1.3,0-2.4,1-2.5,2.4l-0.4,7.2c-0.1,1.2,0.8,2.3,2.1,2.4
			c0.1,0,0.1,0,0.2,0h14c1.3,0,2.4-1,2.5-2.4l0.4-7.2c0.1-1.2-0.8-2.2-1.9-2.4C354.6,272.9,354.6,272.9,354.5,272.9z"/>
		<path id="Trazado_106986" class="st13" d="M329.4,273h-14c-1.3,0-2.4,1-2.5,2.4l-0.4,7.2c-0.1,1.2,0.8,2.3,2.1,2.4
			c0.1,0,0.1,0,0.2,0h14c1.3,0,2.4-1.1,2.5-2.4l0.4-7.2c0.1-1.2-0.7-2.2-1.9-2.4C329.6,273,329.5,273,329.4,273z"/>
		<path id="Trazado_106987" class="st13" d="M304.4,273.2h-14c-1.3,0-2.4,1.1-2.5,2.4l-0.4,7.2c-0.1,1.2,0.8,2.2,1.9,2.4
			c0.1,0,0.2,0,0.3,0h14c1.3,0,2.4-1,2.5-2.4l0.4-7.2c0.1-1.2-0.7-2.2-1.9-2.4C304.6,273.2,304.5,273.2,304.4,273.2z"/>
		<path id="Trazado_106988" class="st13" d="M279.3,273.3h-14c-1.3,0-2.4,1-2.5,2.4l-0.4,7.2c-0.1,1.2,0.8,2.2,1.9,2.4
			c0.1,0,0.2,0,0.3,0h14c1.3,0,2.4-1,2.5-2.4l0.4-7.2c0.1-1.2-0.8-2.2-1.9-2.4C279.5,273.3,279.4,273.3,279.3,273.3z"/>
		<path id="Trazado_106989" class="st13" d="M380.5,254.7h-14c-1.3,0-2.4,1-2.5,2.4l-0.4,7.2c-0.1,1.2,0.8,2.2,1.9,2.4
			c0.1,0,0.2,0,0.3,0h14c1.3,0,2.4-1,2.5-2.4l0.4-7.2c0.1-1.2-0.8-2.2-1.9-2.4C380.7,254.7,380.6,254.7,380.5,254.7z"/>
		<path id="Trazado_106990" class="st13" d="M355.5,254.6h-14c-1.3,0-2.4,1.1-2.5,2.4l-0.4,7.2c-0.1,1.2,0.7,2.2,1.9,2.4
			c0.1,0,0.2,0,0.3,0h14c1.3,0,2.4-1,2.5-2.4l0.4-7.2c0.1-1.2-0.8-2.3-2.1-2.4C355.6,254.6,355.6,254.6,355.5,254.6z"/>
		<path id="Trazado_106991" class="st13" d="M330.5,254.7h-14c-1.3,0-2.4,1-2.5,2.4l-0.4,7.2c-0.1,1.2,0.8,2.2,1.9,2.4
			c0.1,0,0.2,0,0.3,0h14c1.3,0,2.4-1,2.5-2.4l0.4-7.2c0.1-1.2-0.8-2.2-1.9-2.4C330.6,254.7,330.5,254.7,330.5,254.7z"/>
		<path id="Trazado_106992" class="st13" d="M305.4,254.9h-14c-1.3,0-2.4,1-2.5,2.4l-0.4,7.2c-0.1,1.2,0.7,2.2,1.9,2.4
			c0.1,0,0.2,0,0.3,0h14c1.3,0,2.4-1.1,2.5-2.4l0.4-7.2c0.1-1.2-0.8-2.2-1.9-2.4C305.6,254.9,305.5,254.9,305.4,254.9z"/>
		<path id="Trazado_106993" class="st13" d="M280.4,255h-14c-1.3,0-2.4,1.1-2.5,2.4l-0.4,7.2c-0.1,1.2,0.7,2.2,1.9,2.4
			c0.1,0,0.2,0,0.3,0h14c1.3,0,2.4-1.1,2.5-2.4l0.4-7.2c0.1-1.2-0.8-2.3-2.1-2.4C280.5,255,280.4,255,280.4,255z"/>
		<path id="Trazado_106994" class="st13" d="M381.6,236.4h-14c-1.3,0-2.4,1.1-2.5,2.4l-0.4,7.2c-0.1,1.2,0.8,2.3,2,2.4
			c0.1,0,0.1,0,0.2,0h14c1.3,0,2.4-1.1,2.5-2.4l0.4-7.2c0.1-1.2-0.7-2.2-1.9-2.4C381.8,236.4,381.7,236.4,381.6,236.4z"/>
		<path id="Trazado_106995" class="st13" d="M356.5,236.3h-14c-1.3,0-2.4,1-2.5,2.4l-0.4,7.2c-0.1,1.2,0.7,2.2,1.9,2.4
			c0.1,0,0.2,0,0.3,0h14c1.3,0,2.4-1.1,2.5-2.4l0.4-7.2c0.1-1.2-0.8-2.2-1.9-2.4C356.7,236.3,356.6,236.3,356.5,236.3z"/>
		<path id="Trazado_106996" class="st13" d="M331.5,236.4h-14c-1.3,0-2.4,1.1-2.5,2.4l-0.4,7.2c-0.1,1.2,0.8,2.3,2.1,2.4
			c0.1,0,0.1,0,0.2,0h14c1.3,0,2.4-1.1,2.5-2.4l0.4-7.2c0.1-1.2-0.7-2.2-1.9-2.4C331.7,236.4,331.6,236.4,331.5,236.4z"/>
		<path id="Trazado_106997" class="st13" d="M306.5,236.5h-14c-1.3,0-2.4,1-2.5,2.3l-0.4,7.2c-0.1,1.2,0.8,2.2,1.9,2.4
			c0.1,0,0.2,0,0.3,0h14c1.3,0,2.4-1,2.5-2.4l0.4-7.2c0.1-1.2-0.8-2.2-2-2.3C306.6,236.5,306.5,236.5,306.5,236.5z"/>
		<path id="Trazado_106998" class="st13" d="M281.4,236.7h-14c-1.3,0-2.4,1-2.5,2.4l-0.4,7.2c-0.1,1.2,0.8,2.3,2.1,2.4
			c0.1,0,0.1,0,0.2,0h14c1.3,0,2.4-1.1,2.5-2.4l0.4-7.2c0.1-1.2-0.8-2.2-1.9-2.4C281.6,236.7,281.5,236.7,281.4,236.7z"/>
	</g>
	<g id="Grupo_60138" class="st14">
		<path id="Trazado_106999" d="M384.4,193.9h-14.8c-1,0-1.9-0.8-1.9-1.9c0,0,0-0.1,0-0.1l0.3-5.1c0.1-1.1,1-2,2.2-2h14.7
			c1,0,1.9,0.8,1.9,1.9c0,0,0,0.1,0,0.1l-0.3,5.1C386.4,193,385.5,193.9,384.4,193.9z"/>
		<path id="Trazado_107000" d="M359.3,193.8h-14.8c-1,0-1.9-0.8-1.9-1.9c0,0,0-0.1,0-0.1l0.3-5.1c0.1-1.1,1-2,2.1-2h14.8
			c1,0,1.9,0.8,1.9,1.9c0,0,0,0.1,0,0.1l-0.3,5.1C361.4,192.9,360.4,193.8,359.3,193.8z"/>
	</g>
	<g id="Grupo_60139" class="st14">
		<path id="Trazado_107001" d="M383.6,208.1h-14.8c-1,0-1.9-0.8-1.9-1.9c0,0,0-0.1,0-0.1l0.3-5.1c0.1-1.1,1-2,2.2-2h14.8
			c1,0,1.9,0.8,1.9,1.9c0,0,0,0.1,0,0.1l-0.3,5.1C385.6,207.3,384.7,208.1,383.6,208.1z"/>
		<path id="Trazado_107002" d="M358.5,208h-14.8c-1,0-1.9-0.8-1.9-1.8c0-0.1,0-0.1,0-0.2l0.3-5.1c0.1-1.1,1-2,2.1-2H359
			c1,0,1.9,0.8,1.9,1.9c0,0,0,0.1,0,0.1l-0.3,5.1C360.5,207.2,359.6,208,358.5,208z"/>
		<path id="Trazado_107003" d="M333.5,208.1h-14.8c-1,0-1.9-0.8-1.9-1.9c0,0,0-0.1,0-0.1l0.3-5.1c0.1-1.1,1-2,2.1-2H334
			c1,0,1.9,0.8,1.9,1.9c0,0,0,0.1,0,0.1l-0.3,5.1C335.5,207.2,334.6,208.1,333.5,208.1z"/>
		<path id="Trazado_107004" d="M308.4,208.2h-14.8c-1,0-1.9-0.8-1.9-1.9c0,0,0-0.1,0-0.1l0.3-5.1c0.1-1.1,1-2,2.2-2H309
			c1,0,1.9,0.8,1.9,1.9c0,0,0,0.1,0,0.1l-0.3,5.1C310.5,207.3,309.5,208.2,308.4,208.2z"/>
		<path id="Trazado_107005" d="M283.4,208.3h-14.8c-1,0-1.9-0.8-1.9-1.9c0,0,0-0.1,0-0.1l0.3-5.1c0.1-1.1,1-2,2.1-2h14.8
			c1,0,1.9,0.8,1.9,1.9c0,0,0,0.1,0,0.1l-0.3,5.1C285.4,207.4,284.5,208.3,283.4,208.3z"/>
	</g>
	<path id="Trazado_107006" class="st15" d="M306.6,189.3h28.8c0.6,0,1.1-0.5,1.1-1.1l0,0c0-0.6-0.5-1.1-1-1.1h-28.8
		c-0.6,0-1.1,0.5-1.1,1.1l0,0C305.6,188.8,306,189.3,306.6,189.3C306.6,189.3,306.6,189.3,306.6,189.3L306.6,189.3z"/>
	<path id="Trazado_107007" class="st15" d="M268.8,189.3h28.8c0.6,0,1.1-0.5,1.2-1.1l0,0c0-0.6-0.5-1.1-1-1.1h-28.8
		c-0.6,0-1.1,0.5-1.2,1.1l0,0C267.8,188.8,268.2,189.3,268.8,189.3z"/>
	<path id="Trazado_107008" class="st6" d="M276.2,190.2h-3.8c-1,0-1.8-0.8-1.8-1.8c0-0.1,0-0.1,0-0.2l0,0c0.1-1.1,0.9-1.9,2-1.9h3.8
		c1,0,1.8,0.8,1.8,1.8c0,0.1,0,0.1,0,0.2l0,0C278.2,189.4,277.3,190.2,276.2,190.2z"/>
	<path id="Trazado_107009" class="st6" d="M329.9,190.2h-3.8c-1,0-1.8-0.8-1.8-1.8c0,0,0-0.1,0-0.1l0,0c0.1-1.1,1-1.9,2-1.9h3.8
		c1,0,1.8,0.8,1.8,1.8c0,0.1,0,0.1,0,0.2l0,0C331.9,189.3,331,190.2,329.9,190.2z"/>
	<path id="Trazado_107010" class="st16" d="M382.6,218.1h-14c-1.3,0-2.4,1-2.5,2.4l-0.4,7.2c-0.1,1.2,0.8,2.2,1.9,2.4
		c0.1,0,0.2,0,0.3,0h14c1.3,0,2.4-1,2.5-2.4l0.4-7.2c0.1-1.2-0.7-2.3-1.9-2.4C382.9,218.1,382.7,218.1,382.6,218.1z"/>
	<path id="Trazado_107011" class="st16" d="M357.6,218h-14c-1.3,0-2.4,1.1-2.5,2.4l-0.4,7.2c-0.1,1.2,0.8,2.2,1.9,2.4
		c0.1,0,0.2,0,0.3,0h14c1.3,0,2.4-1,2.5-2.4l0.4-7.2c0.1-1.2-0.7-2.2-1.9-2.4C357.8,218,357.7,218,357.6,218z"/>
	<path id="Trazado_107012" class="st16" d="M332.5,218.1h-14c-1.3,0-2.4,1-2.5,2.4l-0.4,7.2c-0.1,1.2,0.8,2.2,1.9,2.4
		c0.1,0,0.2,0,0.3,0h14c1.3,0,2.4-1,2.5-2.4l0.4-7.2c0.1-1.2-0.8-2.2-1.9-2.4C332.7,218.1,332.6,218.1,332.5,218.1z"/>
	<path id="Trazado_107013" class="st16" d="M307.5,218.2h-14c-1.3,0-2.4,1.1-2.5,2.4l-0.4,7.2c-0.1,1.2,0.7,2.2,1.9,2.4
		c0.1,0,0.2,0,0.3,0h14c1.3,0,2.4-1.1,2.5-2.4l0.4-7.2c0.1-1.2-0.8-2.3-2-2.4C307.6,218.2,307.6,218.2,307.5,218.2z"/>
	<path id="Trazado_107014" class="st16" d="M282.4,218.4h-14c-1.3,0-2.4,1.1-2.5,2.4l-0.4,7.2c-0.1,1.2,0.8,2.2,1.9,2.4
		c0.1,0,0.2,0,0.3,0h14c1.3,0,2.4-1,2.5-2.4l0.4-7.2c0.1-1.2-0.8-2.3-2.1-2.4C282.6,218.4,282.5,218.4,282.4,218.4z"/>
	<path id="Trazado_107015" class="st16" d="M353.4,291.2h-14c-1.3,0-2.4,1.1-2.5,2.4l-0.4,7.2c-0.1,1.2,0.7,2.2,1.9,2.4
		c0.1,0,0.2,0,0.3,0h14c1.3,0,2.4-1,2.5-2.4l0.4-7.2c0.1-1.2-0.8-2.3-2-2.4C353.5,291.2,353.5,291.2,353.4,291.2z"/>
	<path id="Trazado_107016" class="st16" d="M328.4,291.3h-14c-1.3,0-2.4,1.1-2.5,2.4l-0.4,7.2c-0.1,1.2,0.8,2.2,1.9,2.4
		c0.1,0,0.2,0,0.3,0h14c1.3,0,2.4-1,2.5-2.4l0.4-7.2c0.1-1.2-0.8-2.3-2.1-2.4C328.5,291.3,328.4,291.3,328.4,291.3z"/>
	<path id="Trazado_107017" class="st16" d="M303.3,291.5h-14c-1.3,0-2.4,1-2.5,2.4l-0.4,7.2c-0.1,1.2,0.7,2.2,1.9,2.4
		c0.1,0,0.2,0,0.3,0h14c1.3,0,2.4-1.1,2.5-2.4l0.4-7.2c0.1-1.2-0.8-2.2-1.9-2.4C303.5,291.5,303.4,291.5,303.3,291.5z"/>
	<path id="Trazado_107018" class="st16" d="M278.3,291.6h-14c-1.3,0-2.4,1.1-2.5,2.4l-0.4,7.2c-0.1,1.2,0.8,2.3,2.1,2.4
		c0.1,0,0.1,0,0.2,0h14c1.3,0,2.4-1.1,2.5-2.4l0.4-7.2c0.1-1.2-0.7-2.2-1.9-2.4C278.5,291.6,278.4,291.6,278.3,291.6z"/>
	<path id="Trazado_107019" class="st7" d="M379.5,273h-14c-1.3,0-2.4,1-2.5,2.4l-0.4,6.3l-0.1,0.9l-1.1,18.3
		c-0.1,1.2,0.8,2.2,1.9,2.4c0.1,0,0.2,0,0.3,0h14c1.3,0,2.4-1,2.5-2.4l1.1-18.3l0.1-0.9l0.4-6.3c0.1-1.2-0.7-2.2-1.9-2.4
		C379.7,273,379.6,273,379.5,273z"/>
	<path id="Trazado_107020" class="st16" d="M354.5,272.9h-14c-1.3,0-2.4,1-2.5,2.4l-0.4,7.2c-0.1,1.2,0.8,2.3,2.1,2.4
		c0.1,0,0.1,0,0.2,0h14c1.3,0,2.4-1,2.5-2.4l0.4-7.2c0.1-1.2-0.8-2.2-1.9-2.4C354.6,272.9,354.6,272.9,354.5,272.9z"/>
	<path id="Trazado_107021" class="st16" d="M329.4,273h-14c-1.3,0-2.4,1-2.5,2.4l-0.4,7.2c-0.1,1.2,0.8,2.3,2.1,2.4
		c0.1,0,0.1,0,0.2,0h14c1.3,0,2.4-1.1,2.5-2.4l0.4-7.2c0.1-1.2-0.7-2.2-1.9-2.4C329.6,273,329.5,273,329.4,273z"/>
	<path id="Trazado_107022" class="st16" d="M304.4,273.2h-14c-1.3,0-2.4,1.1-2.5,2.4l-0.4,7.2c-0.1,1.2,0.8,2.2,1.9,2.4
		c0.1,0,0.2,0,0.3,0h14c1.3,0,2.4-1,2.5-2.4l0.4-7.2c0.1-1.2-0.7-2.2-1.9-2.4C304.6,273.2,304.5,273.2,304.4,273.2z"/>
	<path id="Trazado_107023" class="st7" d="M279.3,273.3h-14c-1.3,0-2.4,1-2.5,2.4l-0.4,7.2c-0.1,1.2,0.8,2.2,1.9,2.4
		c0.1,0,0.2,0,0.3,0h14c1.3,0,2.4-1,2.5-2.4l0.4-7.2c0.1-1.2-0.8-2.2-1.9-2.4C279.5,273.3,279.4,273.3,279.3,273.3z"/>
	<path id="Trazado_107024" class="st16" d="M380.5,254.7h-14c-1.3,0-2.4,1-2.5,2.4l-0.4,7.2c-0.1,1.2,0.8,2.2,1.9,2.4
		c0.1,0,0.2,0,0.3,0h14c1.3,0,2.4-1,2.5-2.4l0.4-7.2c0.1-1.2-0.8-2.2-1.9-2.4C380.7,254.7,380.6,254.7,380.5,254.7z"/>
	<path id="Trazado_107025" class="st16" d="M355.5,254.6h-14c-1.3,0-2.4,1.1-2.5,2.4l-0.4,7.2c-0.1,1.2,0.7,2.2,1.9,2.4
		c0.1,0,0.2,0,0.3,0h14c1.3,0,2.4-1,2.5-2.4l0.4-7.2c0.1-1.2-0.8-2.3-2.1-2.4C355.6,254.6,355.6,254.6,355.5,254.6z"/>
	<path id="Trazado_107026" class="st16" d="M330.5,254.7h-14c-1.3,0-2.4,1-2.5,2.4l-0.4,7.2c-0.1,1.2,0.8,2.2,1.9,2.4
		c0.1,0,0.2,0,0.3,0h14c1.3,0,2.4-1,2.5-2.4l0.4-7.2c0.1-1.2-0.8-2.2-1.9-2.4C330.6,254.7,330.5,254.7,330.5,254.7z"/>
	<path id="Trazado_107027" class="st16" d="M305.4,254.9h-14c-1.3,0-2.4,1-2.5,2.4l-0.4,7.2c-0.1,1.2,0.7,2.2,1.9,2.4
		c0.1,0,0.2,0,0.3,0h14c1.3,0,2.4-1.1,2.5-2.4l0.4-7.2c0.1-1.2-0.8-2.2-1.9-2.4C305.6,254.9,305.5,254.9,305.4,254.9z"/>
	<path id="Trazado_107028" class="st7" d="M280.4,255h-14c-1.3,0-2.4,1.1-2.5,2.4l-0.4,7.2c-0.1,1.2,0.7,2.2,1.9,2.4
		c0.1,0,0.2,0,0.3,0h14c1.3,0,2.4-1.1,2.5-2.4l0.4-7.2c0.1-1.2-0.8-2.3-2.1-2.4C280.5,255,280.4,255,280.4,255z"/>
	<path id="Trazado_107029" class="st16" d="M381.6,236.4h-14c-1.3,0-2.4,1.1-2.5,2.4l-0.4,7.2c-0.1,1.2,0.8,2.3,2,2.4
		c0.1,0,0.1,0,0.2,0h14c1.3,0,2.4-1.1,2.5-2.4l0.4-7.2c0.1-1.2-0.7-2.2-1.9-2.4C381.8,236.4,381.7,236.4,381.6,236.4z"/>
	<path id="Trazado_107030" class="st16" d="M356.5,236.3h-14c-1.3,0-2.4,1-2.5,2.4l-0.4,7.2c-0.1,1.2,0.7,2.2,1.9,2.4
		c0.1,0,0.2,0,0.3,0h14c1.3,0,2.4-1.1,2.5-2.4l0.4-7.2c0.1-1.2-0.8-2.2-1.9-2.4C356.7,236.3,356.6,236.3,356.5,236.3z"/>
	<path id="Trazado_107031" class="st16" d="M331.5,236.4h-14c-1.3,0-2.4,1.1-2.5,2.4l-0.4,7.2c-0.1,1.2,0.8,2.3,2.1,2.4
		c0.1,0,0.1,0,0.2,0h14c1.3,0,2.4-1.1,2.5-2.4l0.4-7.2c0.1-1.2-0.7-2.2-1.9-2.4C331.7,236.4,331.6,236.4,331.5,236.4z"/>
	<path id="Trazado_107032" class="st16" d="M306.5,236.5h-14c-1.3,0-2.4,1-2.5,2.3l-0.4,7.2c-0.1,1.2,0.8,2.2,1.9,2.4
		c0.1,0,0.2,0,0.3,0h14c1.3,0,2.4-1,2.5-2.4l0.4-7.2c0.1-1.2-0.8-2.2-2-2.3C306.6,236.5,306.5,236.5,306.5,236.5z"/>
	<path id="Trazado_107033" class="st16" d="M281.4,236.7h-14c-1.3,0-2.4,1-2.5,2.4l-0.4,7.2c-0.1,1.2,0.8,2.3,2.1,2.4
		c0.1,0,0.1,0,0.2,0h14c1.3,0,2.4-1.1,2.5-2.4l0.4-7.2c0.1-1.2-0.8-2.2-1.9-2.4C281.6,236.7,281.5,236.7,281.4,236.7z"/>
	<path id="Trazado_107034" class="st17" d="M98,359.4c0,0-6.2,1.3-8.8,0c-2.6-1.3-1.7-20.9-4.3-21.3c-6.2-0.9-5.1,25.1-2.5,30.6
		c2.6,5.5,16.2,3.2,16.2,3.2L98,359.4z"/>
	<path id="Trazado_107035" class="st10" d="M98,359.4c0,0-6.2,1.3-8.8,0c-2.6-1.3-1.7-20.9-4.3-21.3c-6.2-0.9-5.1,25.1-2.5,30.6
		c2.6,5.5,16.2,3.2,16.2,3.2L98,359.4z"/>
	<path id="Trazado_107036" class="st17" d="M98.5,405.6c0,0-9.1-132.9,1.8-134.5s13.5,45.3,9.3,132.7L98.5,405.6z"/>
	<path id="Trazado_107037" class="st8" d="M98.5,405.6c0,0-9.1-132.9,1.8-134.5s13.5,45.3,9.3,132.7L98.5,405.6z"/>
	<path id="Trazado_107038" class="st6" d="M85.7,395.7h35.9l-3,23H88.7L85.7,395.7z"/>
	<path id="Trazado_107039" class="st17" d="M109.4,314.7c0,0,9.9,0.9,10.2,0c0.3-0.9,0.3-19.7,4.5-18.6c4.2,1.1,2.4,23.7,0,26.4
		s-14.7,4.1-14.7,4.1S107.7,318.2,109.4,314.7z"/>
	<path id="Trazado_107040" class="st9" d="M109.4,314.7c0,0,9.9,0.9,10.2,0c0.3-0.9,0.3-19.7,4.5-18.6c4.2,1.1,2.4,23.7,0,26.4
		s-14.7,4.1-14.7,4.1S107.7,318.2,109.4,314.7z"/>
	<path id="Trazado_107041" class="st18" d="M103.1,393.4c-0.7-10.1-1.4-20.2-1.9-30.3c-0.6-10.1-1.1-20.2-1.5-30.3
		c-0.4-10.1-0.7-20.3-0.9-30.4c0-5.1,0-10.1,0.1-15.2c0.1-2.5,0.2-5.1,0.4-7.6c0.1-1.3,0.3-2.5,0.5-3.8c0.1-0.7,0.3-1.3,0.5-1.9
		l0.2-0.5c0.1-0.2,0.2-0.4,0.4-0.5c0.1-0.1,0.2-0.2,0.4-0.3c0.2-0.1,0.4-0.1,0.6,0c0.3,0.1,0.5,0.3,0.6,0.5c0.3,0.6,0.6,1.3,0.7,2
		c0.2,0.6,0.3,1.3,0.4,1.9c0.2,1.3,0.4,2.5,0.5,3.8c0.3,2.5,0.5,5.1,0.6,7.6c0.3,5.1,0.6,10.1,0.8,15.2c0.4,10.1,0.6,20.3,0.8,30.4
		c0.1,10.1,0.2,20.3,0.2,30.4c0,10.1,0,20.3-0.1,30.4c-0.1-10.1-0.2-20.3-0.4-30.4c-0.1-10.1-0.3-20.3-0.6-30.4s-0.5-20.3-0.9-30.4
		c-0.2-5.1-0.5-10.1-0.8-15.2c-0.2-2.5-0.4-5-0.7-7.6c-0.1-1.3-0.3-2.5-0.5-3.7c-0.1-0.6-0.2-1.2-0.4-1.8c-0.1-0.6-0.3-1.1-0.6-1.6
		c0-0.1-0.1-0.1-0.1-0.1c0.1,0,0.2-0.1,0.1,0l-0.2,0.3l-0.2,0.4c-0.2,0.6-0.4,1.1-0.5,1.7c-0.2,1.2-0.4,2.5-0.5,3.7
		c-0.2,2.5-0.3,5-0.4,7.6c-0.2,5.1-0.2,10.1-0.1,15.2c0.1,10.1,0.4,20.3,0.7,30.4c0.3,10.1,0.7,20.2,1.2,30.4
		C102.1,373.2,102.5,383.3,103.1,393.4z"/>
	<path id="Trazado_107042" class="st18" d="M110.6,319.1c1.3-0.1,2.6-0.2,3.8-0.4c1.3-0.2,2.5-0.3,3.8-0.5c0.6-0.1,1.2-0.2,1.8-0.4
		c0.6-0.2,1.2-0.5,1-0.6c0-1.3,0-2.6,0.1-4c0.2-2.6,0.5-5.1,0.9-7.7c0.4-2.5,0.9-5.1,1.5-7.6l-1.4,15.3c-0.1,1.2-0.2,2.5-0.2,3.7
		v0.1c0,0.1,0,0.2,0,0.3c0,0.2-0.1,0.3-0.2,0.4c-0.1,0.2-0.3,0.3-0.6,0.4c-0.3,0.2-0.7,0.3-1,0.4c-0.6,0.2-1.3,0.3-2,0.3
		C115.8,319.4,113.2,319.4,110.6,319.1z"/>
	<path id="Trazado_107043" class="st18" d="M110.6,323.5l8.5-1.9c1.4-0.3,2.7-0.7,4-1.2c0.1,0,0.2-0.1,0.2-0.1
		c0.1-0.1,0.1-0.2,0.2-0.4c0.1-0.3,0.2-0.6,0.2-1c0.1-0.7,0.2-1.4,0.3-2.1c0.3-2.8,0.5-5.7,0.7-8.6l0.3-4.3l0.4-4.3
		c0.2,2.9,0.2,5.8,0.2,8.7c0,2.9-0.2,5.8-0.5,8.7c-0.1,0.7-0.2,1.4-0.3,2.2c-0.1,0.4-0.2,0.7-0.3,1.1c-0.1,0.2-0.2,0.4-0.3,0.6
		c-0.2,0.2-0.4,0.4-0.7,0.5c-1.4,0.5-2.8,0.9-4.3,1.1C116.4,322.9,113.5,323.3,110.6,323.5z"/>
	<path id="Trazado_107044" class="st18" d="M94.9,363c-2.5,0.1-5.1-0.2-7.6-0.9c-0.3-0.1-0.6-0.3-0.9-0.4c-0.2-0.1-0.4-0.3-0.5-0.4
		c-0.1-0.2-0.2-0.3-0.3-0.5c-0.2-0.6-0.4-1.3-0.5-1.9c-0.2-1.3-0.4-2.5-0.5-3.8c-0.2-2.5-0.3-5.1-0.2-7.6c0-2.5,0.1-5.1,0.3-7.6
		c0.1,1.3,0.2,2.5,0.3,3.8l0.2,3.8c0.2,2.5,0.3,5,0.5,7.6c0.1,1.3,0.2,2.5,0.4,3.7c0.1,0.6,0.2,1.2,0.4,1.7c0,0.1,0.1,0.2,0.2,0.3
		c0,0.1,0.1,0.2,0.2,0.2c0.2,0.2,0.5,0.3,0.8,0.4c1.1,0.5,2.3,0.8,3.6,1C92.4,362.7,93.7,362.8,94.9,363z"/>
	<path id="Trazado_107045" class="st18" d="M82.9,342.3c0.2,1.5,0.2,2.9,0.4,4.4l0.3,4.4l0.6,8.8c0.1,1.5,0.2,2.9,0.4,4.4
		c0.1,0.7,0.2,1.4,0.4,2.1c0.2,0.6,0.7,0.9,1.3,1.2c1.3,0.5,2.8,0.9,4.2,1.1c1.4,0.3,2.9,0.5,4.4,0.6c-3,0.2-6-0.2-8.9-1
		c-0.4-0.1-0.7-0.3-1.1-0.6c-0.4-0.3-0.7-0.6-0.8-1.1c-0.3-0.7-0.4-1.5-0.5-2.3c-0.2-1.5-0.4-3-0.5-4.4c-0.2-3-0.3-5.9-0.4-8.9
		S82.7,345.2,82.9,342.3z"/>
	<path id="Trazado_107046" class="st6" d="M144.1,400.1l26.5-2.3v-39.5h9.3v39.5l26.6,2.3c2.3,0.2,4.1,2.2,4.1,4.6v3.5h-70.8v-3.5
		C139.9,402.3,141.7,400.3,144.1,400.1L144.1,400.1z"/>
	<path id="Trazado_107047" class="st11" d="M144.1,400.1l26.5-2.3v-39.5h9.3v39.5l26.6,2.3c2.3,0.2,4.1,2.2,4.1,4.6v3.5h-70.8v-3.5
		C139.9,402.3,141.7,400.3,144.1,400.1L144.1,400.1z"/>
	<path id="Trazado_107048" class="st6" d="M202.1,412.6c0,3.4,2.7,6.1,6.1,6.1c3.4,0,6.1-2.7,6.1-6.1c0-3.4-2.7-6.1-6.1-6.1
		c0,0,0,0,0,0C204.8,406.5,202.1,409.2,202.1,412.6z"/>
	<path id="Trazado_107049" class="st6" d="M148.5,412.6c0,3.4-2.7,6.1-6.1,6.1c-3.4,0-6.1-2.7-6.1-6.1c0-3.4,2.7-6.1,6.1-6.1
		c0,0,0,0,0,0C145.8,406.5,148.5,409.2,148.5,412.6z"/>
	<path id="Trazado_107050" class="st6" d="M177.1,365.4h-3.6c-2.5,0-4.5-2-4.5-4.5l0,0v-31.7h12.5V361
		C181.5,363.4,179.5,365.4,177.1,365.4z"/>
	<path id="Trazado_107051" class="st10" d="M177.1,365.4h-3.6c-2.5,0-4.5-2-4.5-4.5l0,0v-31.7h12.5V361
		C181.5,363.4,179.5,365.4,177.1,365.4z"/>
	<path id="Trazado_107052" class="st6" d="M147.7,260.3c0,0,2.9,57.6,15.3,67.5h-13.3c0,0-11.9-19.6-12.7-67.5H147.7z"/>
	<path id="Trazado_107053" class="st11" d="M147.7,260.3c0,0,2.9,57.6,15.3,67.5h-13.3c0,0-11.9-19.6-12.7-67.5H147.7z"/>
	<path id="Trazado_107054" class="st17" d="M147.1,323h58c3,0,5.4,2.4,5.4,5.4v4.1h-68.8v-4.1C141.7,325.5,144.1,323,147.1,323z"/>
	<path id="Rectángulo_6711" class="st6" d="M141.2,327.8h69.7c1.2,0,2.2,1,2.2,2.2v0.4c0,1.2-1,2.2-2.2,2.2h-69.7
		c-1.2,0-2.2-1-2.2-2.2V330C139.1,328.8,140,327.8,141.2,327.8z"/>
	<path id="Rectángulo_6712" class="st19" d="M141.2,327.8h69.7c1.2,0,2.2,1,2.2,2.2v0.4c0,1.2-1,2.2-2.2,2.2h-69.7
		c-1.2,0-2.2-1-2.2-2.2V330C139.1,328.8,140,327.8,141.2,327.8z"/>
	<path id="Trazado_107055" class="st17" d="M134.7,272.9H156c6.2,0,10.7-5.6,10-12.5l-0.9-9.2c-0.7-6.9-6.3-12.5-12.5-12.5h-21.2
		c-6.2,0-10.7,5.6-10,12.5l0.9,9.2C122.9,267.3,128.5,272.9,134.7,272.9z"/>
	<path id="Trazado_107056" class="st20" d="M245.7,260.5l6,0.7c0,0,3.9-1.7,4-1.9c0-0.2,5.2,1.9,5.2,1.9l1,3.8c0,0-7.4,0.8-8.8,0
		l-7.9,0.3L245.7,260.5z"/>
	<path id="Trazado_107057" class="st17" d="M248.9,266.1h-23.2c-2.4,0-5.6-5.8-8.1-11.3c-2.3-5.1-4.1-9.9-4.1-9.9l2.5-6.2l2.5-6.1
		c4.7,3.2,10.5,25.3,10.5,25.3l19.9,2.6C248.9,260.5,249.5,266.1,248.9,266.1z"/>
	<path id="Trazado_107058" class="st17" d="M247.9,260.4l-1.1,6.4h3v-6.4H247.9z"/>
	<path id="Trazado_107059" class="st19" d="M247.9,260.4l-1.1,6.4h3v-6.4H247.9z"/>
	<path id="Trazado_107060" class="st15" d="M217.6,254.8c-2.3-5.1-4.1-9.9-4.1-9.9l2.5-6.2C217.1,241.5,219.4,248.6,217.6,254.8z"/>
	<path id="Trazado_107061" class="st6" d="M222.2,212.5c0,0-2.3,9,0.6,12.9c0,0-26.1,0.3-33.5-4.4s0.9-27.9,11.7-31.5
		S229.5,194.9,222.2,212.5z"/>
	<path id="Trazado_107062" class="st20" d="M273.7,382.9L268,384c0,0-31.3-75.1-36.3-75.4c-5-0.2-55.8,23.1-68.6,10.2
		c-12.7-13,5.7-44.2,5.7-44.2s30.6-4.3,33,2.5c0.6,2,1,4.1,1.3,6.2c0.3,2.2,0.6,3.9,0.6,3.9l0,0c0.9-0.2,31.7-8.2,43.8,0
		C259.7,295.6,273.7,382.9,273.7,382.9z"/>
	<path id="Trazado_107063" class="st20" d="M185,322c0,0,2.1,0,34.2-1.4c0,0-6,55.2-8.6,85.2l6.7,0.4c0,0,27-78.2,26.8-88.4
		c-0.2-10.2-12-13.2-12-13.2S209.3,317.7,185,322z"/>
	<path id="Trazado_107064" class="st6" d="M185.1,322c0.3,0,3.6,0,28.7-1.2l-0.5-7.2C204.2,317.3,194.7,320.2,185.1,322z"/>
	<path id="Trazado_107065" class="st7" d="M219.2,320.5c0,0-6,55.2-8.6,85.2l6.7,0.4c0,0,27-78.2,26.8-88.4
		c-0.2-10.2-12-13.2-12-13.2c-6.1,3.4-12.4,6.4-18.8,9c-9.1,3.8-18.5,6.6-28.2,8.4c0.3,0,3.6,0,28.7-1.2L219.2,320.5z"/>
	<path id="Trazado_107066" class="st6" d="M163,318.8c7.6,7.8,34.5,5.7,53.1,5.7l11.1-41.1l-22.4,1.9c0,0-0.8-2-1.6-4
		c-0.7-1.7-1.4-3.5-1.6-4.1c-2.3-6.9-33-2.5-33-2.5S150.3,305.9,163,318.8z"/>
	<path id="Trazado_107067" class="st7" d="M185.6,291l19.2-5.8c0,0-0.8-2-1.6-4C195.7,284.3,185.6,291,185.6,291z"/>
	<path id="Trazado_107068" class="st6" d="M169.4,269.9l-0.7,4.8l33,2.5l0.9-5.6L169.4,269.9z"/>
	<path id="Trazado_107069" class="st15" d="M169.4,269.9l-0.7,4.8l33,2.5l0.9-5.6L169.4,269.9z"/>
	
		<rect id="Rectángulo_6713" x="175.3" y="272.8" transform="matrix(0.1023 -0.9948 0.9948 0.1023 -111.1087 424.1578)" class="st6" width="8.3" height="1.6"/>
	
		<rect id="Rectángulo_6714" x="188.3" y="270.5" transform="matrix(6.418397e-02 -0.9979 0.9979 6.418397e-02 -94.7459 447.0952)" class="st13" width="5.5" height="7.2"/>
	
		<rect id="Rectángulo_6715" x="195.5" y="273.7" transform="matrix(0.1023 -0.9948 0.9948 0.1023 -93.7891 445.0802)" class="st6" width="8.3" height="1.6"/>
	<path id="Trazado_107070" class="st21" d="M289.9,390.8c-1.4-0.4-2.8-0.5-4.2-0.4l0,0c0,0-5.3-2.1-11.9-12.3l-5.4,0.8
		c-1.9,0.3-3.3,1.8-3.6,3.6c0,0.3,0,0.5,0,0.8c0.3,1.3,0.6,2.6,1.1,3.8c1.1,3.9,5.2,12.1,5.2,12.1l0.9-0.4l-3-7.7
		c-1-2.6,2.3-0.5,4.1,2.1s4.3,5,10,2.6C289.6,393.1,292.2,391.6,289.9,390.8z"/>
	<path id="Trazado_107071" class="st20" d="M271.3,374.5c0,0,3.2,4.6,7.3,9.5c4,4.9,7.1,6.5,7.1,6.5s-3.9,2.6-7,0.5
		c-3.1-2.1-9.7-10.7-13.9-8.4c0-0.9,0.1-1.7,0.4-2.5C265.5,378.7,271.3,374.5,271.3,374.5z"/>
	<path id="Trazado_107072" class="st21" d="M231,416.4c-1.1-0.8-2.4-1.4-3.8-1.8l0,0c0,0-4.2-3.8-6.8-15.7l-5.3-1.1
		c-1.9-0.3-3.7,0.5-4.7,2.2c-0.1,0.2-0.2,0.5-0.3,0.7c-0.2,1.3-0.3,2.6-0.4,3.9c-0.3,4.1,0.6,13.2,0.6,13.2l1-0.1v-8.3
		c0-2.8,2.3,0.4,3.1,3.4s2.2,6.2,8.4,6C230,418.5,232.9,418,231,416.4z"/>
	<path id="Trazado_107073" class="st20" d="M219.4,394.6c0,0,1.4,5.4,3.5,11.4s4.4,8.5,4.4,8.5s-4.6,1.1-6.7-2
		c-2.1-3-5.4-13.5-10.1-12.7c0.3-0.8,0.7-1.6,1.2-2.3C212.5,396.5,219.4,394.6,219.4,394.6z"/>
	<path id="Trazado_107074" class="st7" d="M219.4,394.6c0,0,1.4,5.4,3.5,11.4s4.4,8.5,4.4,8.5s-4.6,1.1-6.7-2
		c-2.1-3-5.4-13.5-10.1-12.7c0.3-0.8,0.7-1.6,1.2-2.3C212.5,396.5,219.4,394.6,219.4,394.6z"/>
	<path id="Trazado_107075" class="st17" d="M218.5,232.6c0,0-3.2,19.1-6.9,24.3c-0.2,0.2-0.3,0.4-0.5,0.6c-2.8,3-6.3,9.5-8,12.7
		c-0.6,1.2-1,2-1,2l-32.9-1.4c0,0,1-6.4,2.1-12.9c0.7-4.6,1.7-10.1,2.9-15.2c0.5-2,1-4,1.5-5.8c0.8-3.1,2-6.2,3.5-9
		c0.5-1.1,1.3-2,2.3-2.6c0,0,1.4-0.1,3.8-0.1h0.2c8.4,0.1,16.8,1.5,24.8,4.2C213.1,230.3,215.9,231.4,218.5,232.6z"/>
	<path id="Trazado_107076" class="st17" d="M189.3,225.5c0,0,4.8,11.3,13.3,11.3s8.9-6.3,8.9-6.3S202.9,224.8,189.3,225.5z"/>
	<path id="Trazado_107077" class="st17" d="M200.1,224.6c-5.7-1.5-8.6,0.6-11.9,5.7l7.4,3l6.1,17.7l6.8-15.7l5.1,0.2
		C213.6,235.4,213,228.1,200.1,224.6z"/>
	<path id="Trazado_107078" class="st19" d="M200.1,224.6c-5.7-1.5-8.6,0.6-11.9,5.7l7.4,3l6.1,17.7l6.8-15.7l5.1,0.2
		C213.6,235.4,213,228.1,200.1,224.6z"/>
	<path id="Trazado_107079" class="st15" d="M211.6,257c-0.2,0.2-0.3,0.4-0.5,0.6c-2.8,3-6.3,9.5-8,12.7c-7.7-0.9-22.7-3.3-24.7-7.1
		c-1.8-3.5-3.4-14-4.2-20.4c0.5-2,1-4,1.5-5.8l11.2-3.1c0,0,1.8,11.6,2.2,17.1C189.3,255.5,205.9,256.7,211.6,257z"/>
	<path id="Trazado_107080" class="st20" d="M206.1,228.6c0.1,2,1.2,2.5,1.2,2.5c0.4,3.7-4.8,13-4.8,13l-8.1-16.6
		c4.6-1.8,5.7-6.9,5.9-10c0.1-0.8,0.1-1.6,0-2.4l8.6,5.4c-0.7,1.2-1.4,2.5-1.9,3.8C206.4,225.6,206.1,227.1,206.1,228.6L206.1,228.6
		z"/>
	<path id="Trazado_107081" class="st15" d="M208.5,219.9c-0.6,1.3-1.1,2.6-1.5,4c-0.5,1.4-0.7,2.9-0.5,4.3
		c-4.9,0.4-6.8-10.4-6.8-10.4v-0.1c0-0.8-0.1-1.6-0.2-2.4L208.5,219.9z"/>
	<path id="Trazado_107082" class="st20" d="M214.2,197c8.4,2.5,9.7,7.8,7.7,16.7c-2.5,11-7.2,17.9-17,12.4
		C191.7,218.6,200.3,192.8,214.2,197z"/>
	<path id="Trazado_107083" class="st22" d="M216.6,211.5c0.3,1.5,0.8,2.9,1.4,4.2c-0.7,0.5-1.7,0.7-2.5,0.3L216.6,211.5z"/>
	<path id="Trazado_107084" class="st6" d="M211.7,209.3c-0.2,0.7-0.7,1.2-1.2,1c-0.5-0.1-0.7-0.8-0.5-1.5s0.7-1.1,1.2-1
		C211.7,207.9,211.9,208.6,211.7,209.3z"/>
	<path id="Trazado_107085" class="st6" d="M211.1,207.8l1.7-0.2C212.7,207.6,211.6,208.7,211.1,207.8z"/>
	<path id="Trazado_107086" class="st6" d="M220.4,211.6c-0.2,0.7-0.7,1.1-1.2,1c-0.5-0.1-0.7-0.8-0.5-1.5c0.2-0.7,0.7-1.2,1.2-1
		C220.3,210.2,220.6,210.8,220.4,211.6z"/>
	<path id="Trazado_107087" class="st6" d="M219.8,210l1.7-0.2C221.4,209.9,220.3,210.9,219.8,210z"/>
	<path id="Trazado_107088" class="st23" d="M213.4,203.5c-1.3-0.6-2.8-0.5-4,0.2"/>
	<path id="Trazado_107089" class="st23" d="M219.6,205c1.2,0.1,2.4,0.7,3.1,1.7"/>
	<path id="Trazado_107090" class="st6" d="M200.8,208.3c0,0,6-5.7,7-11.2c0,0,18.6-1.7,14.3,15.4c0,0,6.2-14.4-8.1-19.2
		c-14.3-4.7-20.6,16.3-15.1,24.8C198.9,218.2,197.1,211.9,200.8,208.3z"/>
	<path id="Trazado_107091" class="st23" d="M209.3,215.8c0.3,2.1,2.2,3.7,4.3,3.6"/>
	<path id="Trazado_107092" class="st6" d="M199.3,206.6c0,0.1,0,0.2,0.1,0.3h0.1l8.5,2c-0.3,1.7,0.6,3.3,2.2,3.9
		c2,1,4.5,0.3,5.7-1.6c0.1-0.2,0.2-0.4,0.2-0.6c0.3-0.2,0.7-0.4,1.1-0.3c0.2,0.1,0.4,0.3,0.4,0.5c-0.2,1.6,0.6,3.3,2.2,3.9
		c2,1,4.5,0.3,5.7-1.6c1-1.7,0.4-4-1.3-5c-0.1-0.1-0.3-0.1-0.4-0.2c-2-1-4.5-0.3-5.7,1.6c-0.1,0.2-0.2,0.4-0.3,0.6
		c-0.1-0.1-0.3-0.2-0.4-0.3c-0.4-0.1-0.7-0.1-1.1,0.1c0.3-1.7-0.6-3.3-2.2-3.9c-2-1-4.5-0.3-5.7,1.6c-0.1,0.2-0.2,0.5-0.3,0.7
		l-8.5-1.9C199.6,206.5,199.4,206.5,199.3,206.6z M218.7,209.9c1.1-1.7,3.2-2.2,5-1.4c1.6,0.7,2.3,2.7,1.6,4.3
		c0,0.1-0.1,0.1-0.1,0.2c-1.1,1.7-3.2,2.2-5,1.3c-1.6-0.7-2.3-2.6-1.6-4.2C218.6,210.1,218.6,210,218.7,209.9L218.7,209.9z
		 M209,207.9c1.1-1.6,3.2-2.2,5-1.4c1.6,0.7,2.4,2.7,1.6,4.3c0,0.1-0.1,0.2-0.1,0.2c-1.1,1.7-3.2,2.2-5,1.4
		c-1.6-0.7-2.4-2.7-1.6-4.3C208.9,208.1,208.9,208,209,207.9z"/>
	<g id="Grupo_60140" class="st12">
		<path id="Trazado_107093" class="st13" d="M199.3,206.6c0,0.1,0,0.2,0.1,0.3h0.1l8.5,2c-0.3,1.7,0.6,3.3,2.2,3.9
			c2,1,4.5,0.3,5.7-1.6c0.1-0.2,0.2-0.4,0.2-0.6c0.3-0.2,0.7-0.4,1.1-0.3c0.2,0.1,0.4,0.3,0.4,0.5c-0.2,1.6,0.6,3.3,2.2,3.9
			c2,1,4.5,0.3,5.7-1.6c1-1.7,0.4-4-1.3-5c-0.1-0.1-0.3-0.1-0.4-0.2c-2-1-4.5-0.3-5.7,1.6c-0.1,0.2-0.2,0.4-0.3,0.6
			c-0.1-0.1-0.3-0.2-0.4-0.3c-0.4-0.1-0.7-0.1-1.1,0.1c0.3-1.7-0.6-3.3-2.2-3.9c-2-1-4.5-0.3-5.7,1.6c-0.1,0.2-0.2,0.5-0.3,0.7
			l-8.5-1.9C199.6,206.5,199.4,206.5,199.3,206.6z M218.7,209.9c1.1-1.7,3.2-2.2,5-1.4c1.6,0.7,2.3,2.7,1.6,4.3
			c0,0.1-0.1,0.1-0.1,0.2c-1.1,1.7-3.2,2.2-5,1.3c-1.6-0.7-2.3-2.6-1.6-4.2C218.6,210.1,218.6,210,218.7,209.9L218.7,209.9z
			 M209,207.9c1.1-1.6,3.2-2.2,5-1.4c1.6,0.7,2.4,2.7,1.6,4.3c0,0.1-0.1,0.2-0.1,0.2c-1.1,1.7-3.2,2.2-5,1.4
			c-1.6-0.7-2.4-2.7-1.6-4.3C208.9,208.1,208.9,208,209,207.9z"/>
	</g>
	<path id="Trazado_107094" class="st20" d="M201.6,210.5c0.4-2.1-0.9-4.1-2.9-4.6c-2.7-0.5-5.5,4.4,0.5,7.7
		C200.1,214.1,200.9,213.3,201.6,210.5z"/>
	<path id="Trazado_107095" class="st17" d="M213.6,265.2c4.7-1,9.4-1.7,14.1-2.1c5.7-0.3,12.2-0.4,10.6,2.7l-23.3,0.2L213.6,265.2z"
		/>
	<path id="Trazado_107096" class="st24" d="M213.6,265.2c4.7-1,9.4-1.7,14.1-2.1c5.7-0.3,12.2-0.4,10.6,2.7l-23.3,0.2L213.6,265.2z"
		/>
	<rect id="Rectángulo_6716" x="212.5" y="265.2" class="st6" width="27" height="0.9"/>
	
		<rect id="Rectángulo_6717" x="215.5" y="249.1" transform="matrix(0.9094 -0.416 0.416 0.9094 -86.8238 113.0723)" class="st6" width="1.2" height="13.4"/>
	<path id="Trazado_107097" class="st20" d="M202.5,260l7.7,1.8c0.9-1.1,2-2,3.2-2.6c2.8-0.7,5.6-1.3,8.4-1.7l1.6,7.7
		c0,0-10.8,1.1-11.7,0.9l-9.3-0.9L202.5,260z"/>
	<path id="Trazado_107098" class="st17" d="M181.6,225.3c-5.4,1.5-5.8,29.7-3.7,33.5c2.1,3.7,27.5,7.4,27.5,7.4l1.6-5.7
		c0,0-21.1-7.3-21.4-7.9c-0.3-0.6,1.4-16.7,1.4-19.9S181.6,225.3,181.6,225.3z"/>
	<path id="Trazado_107099" class="st17" d="M206,259.2l-1.1,7.9l2.2-0.3l1.4-7.1L206,259.2z"/>
	<path id="Trazado_107100" class="st19" d="M206,259.2l-1.1,7.9l2.2-0.3l1.4-7.1L206,259.2z"/>
	<path id="Trazado_107101" class="st6" d="M248,418.7h-5.7l-0.9-145.9h7.6L248,418.7z"/>
	<path id="Trazado_107102" class="st9" d="M248.9,273.1l-0.2,23L248,418.7h-5.7l-0.8-122.6l-0.2-23H248.9z"/>
	<path id="Trazado_107103" class="st15" d="M248.9,273.1l-0.2,23.3h-7.3l-0.2-23.3H248.9z"/>
	<path id="Trazado_107104" class="st6" d="M308.6,418.7h-5.7l-10.3-145.9h7.6L308.6,418.7z"/>
	<path id="Trazado_107105" class="st25" d="M308.6,418.7h-5.7l-9.8-138.8l-0.5-6.9h7.6l0.4,6.9L308.6,418.7z"/>
	<path id="Trazado_107106" class="st15" d="M300.6,279.6h-7.5l-0.5-6.5h7.6L300.6,279.6z"/>
	<path id="Trazado_107107" class="st6" d="M187.3,418.7h-5.7l8.4-145.9h7.6L187.3,418.7z"/>
	<path id="Trazado_107108" class="st25" d="M197.6,273.1l-0.5,6.9l-9.8,138.8h-5.7l8-138.8l0.4-6.9H197.6z"/>
	<path id="Trazado_107109" class="st15" d="M190,273.1h7.6l-0.5,6.5h-7.5L190,273.1z"/>
	<path id="Trazado_107110" class="st6" d="M184,269.3h122.2v4.8c0,1.3-1,2.3-2.3,2.3l0,0H186.4c-1.3,0-2.3-1-2.3-2.3l0,0V269.3z"/>
	<path id="Trazado_107111" class="st19" d="M184,269.3h122.2v4.8c0,1.3-1,2.3-2.3,2.3l0,0H186.4c-1.3,0-2.3-1-2.3-2.3l0,0V269.3z"/>
	<rect id="Rectángulo_6718" x="184" y="269.3" class="st15" width="122.2" height="3.6"/>
	<path id="Trazado_107112" class="st6" d="M309.8,270.2H180.5c-1.1,0-2-0.9-2-2l0,0c0-1.1,0.9-2,2-2h129.3c1.1,0,2,0.9,2,2l0,0
		C311.8,269.3,310.9,270.2,309.8,270.2z"/>
	<path id="Trazado_107113" class="st19" d="M309.8,270.2H180.5c-1.1,0-2-0.9-2-2l0,0c0-1.1,0.9-2,2-2h129.3c1.1,0,2,0.9,2,2l0,0
		C311.8,269.3,310.9,270.2,309.8,270.2z"/>
	<path id="Trazado_107114" class="st6" d="M291.4,262.6v2.3c0,0.7-1.2,1.2-1.9,1.2h-54.7c-0.7,0-1.8-0.5-1.8-1.2v-2.3H291.4z"/>
	<path id="Trazado_107115" class="st19" d="M291.4,262.6v2.3c0,0.7-1.2,1.2-1.9,1.2h-54.7c-0.7,0-1.8-0.5-1.8-1.2v-2.3H291.4z"/>
	<path id="Trazado_107116" class="st15" d="M291.4,262.6v2.3c0,0.7-1.2,1.2-1.9,1.2h-36c-0.7,0-1.8-0.5-1.8-1.2v-2.3H291.4z"/>
	<path id="Trazado_107117" class="st6" d="M300.2,233.8l-6.5,29.6c-0.2,1-1.1,1.7-2.2,1.8H256c-0.8-0.1-1.5-0.8-1.4-1.7
		c0-0.1,0-0.2,0.1-0.3l6.5-29.3c0.3-0.9,1.2-1.6,2.2-1.5h35.5C299.8,232.5,300.4,232.9,300.2,233.8z"/>
	<path id="Trazado_107118" class="st19" d="M300.2,233.8l-6.5,29.6c-0.2,1-1.1,1.7-2.2,1.8H256c-0.8-0.1-1.5-0.8-1.4-1.7
		c0-0.1,0-0.2,0.1-0.3l6.5-29.3c0.3-0.9,1.2-1.6,2.2-1.5h35.5C299.8,232.5,300.4,232.9,300.2,233.8z"/>
	<path id="Trazado_107119" class="st9" d="M300.2,233.8l-6.5,29.6c-0.2,1-1.1,1.7-2.2,1.8h-34.3c-0.8-0.1-1.5-0.8-1.4-1.7
		c0-0.1,0-0.2,0.1-0.3l6.5-29.3c0.3-0.9,1.2-1.6,2.2-1.5h34.3C299.8,232.5,300.4,232.9,300.2,233.8z"/>
	<path id="Trazado_107120" class="st15" d="M279.3,252.8c1.7,0,3.4-1.8,3.8-4c0.4-2.2-0.6-4-2.2-4c-0.3,0-0.6,0.1-0.9,0.2
		c-0.3,1.6-1.4,2.9-2.8,3.6c0,0.1,0,0.1,0,0.2C276.6,251,277.6,252.8,279.3,252.8z"/>
</g>
</svg>
