<svg id="Capa_2" data-name="Capa 2" xmlns="http://www.w3.org/2000/svg" width="500" height="500" viewBox="0 0 500 500">
  <g id="Capa_1" data-name="Capa 1">
    <rect id="Rectángulo_6348" data-name="Rectángulo 6348" width="500" height="500" fill="#344154" opacity="0"/>
    <g id="freepik--background-complete--inject-49">
      <path id="Trazado_106024" data-name="Trazado 106024" d="M145.67,346.66c-1.77-1.86-4.38-2.57-6.8-3.46a36.53,36.53,0,0,1-16.73-56l-.36-1.87c-.82-8.74-11.37-15-19.43-11.52s-10.8,15.39-5,22c-9.45.78-15.71,11.52-14.37,21s8.2,17.1,15.86,22.71a75.11,75.11,0,0,0,43.61,14.41,6,6,0,0,0,3.1-.55C147.73,352.06,147.44,348.53,145.67,346.66Z" fill="#aed3f2"/>
      <path id="Trazado_106025" data-name="Trazado 106025" d="M409.19,308.43a11.41,11.41,0,0,0,.27-11.79c-2.21-3.51-7-5.27-10.81-3.55a7.92,7.92,0,0,0-13.44-8.37c-2.51,3.89-1.18,9.11,1,13.21s5.13,8,5.84,12.53-1.07,9.46-3.87,13.29-6.53,6.82-10.22,9.75l-.7.67a25.41,25.41,0,0,0,20.38-1.77c3.47-1.93,6.69-5.11,6.92-9.07.13-2.21-.7-4.43-.36-6.63C404.63,313.57,407.47,311.23,409.19,308.43Z" fill="#aed3f2"/>
      <path id="Trazado_106026" data-name="Trazado 106026" d="M218.61,453.31c-3.45-.42-6.91-1.93-8.94-4.75-1.29-1.77-1.92-4-3-5.92s-3.09-3.64-5.32-3.43c-3.42.34-5.74,5.07-9.08,4.24-2-.51-3-2.86-3-4.93s.59-4.13.33-6.2c-.72-5.77-8.12-8.61-13.65-6.8s-13.92,8.46-17.52,13c3.79,6.3,11.56,8.74,18.69,10.53q17.94,4.5,36.2,7.64a26.941,26.941,0,0,0,8.62.5c2.85-.45,5.7-2,7-4.54a36.709,36.709,0,0,1-10.33.66Z" fill="#aed3f2"/>
      <path id="Trazado_106027" data-name="Trazado 106027" d="M355.84,408.88c-.89-4.93-5.8-9.27-10.64-8.14,4-3.33,4.07-10,.89-14.18s-8.76-5.94-14-5.78-10.26,2-15.11,3.94c2.38-3-1.11-7.76-5-8s-7.29,2.19-10.42,4.43-6.73,4.58-10.54,4l3.55,1.44c8.55,1.29,17.17,3.29,24.57,7.75s13.51,11.75,14.78,20.31-3.22,18.12-11.33,21.12a34.4,34.4,0,0,0,28.77-13C354.45,418.8,356.72,413.8,355.84,408.88Z" fill="#aed3f2"/>
      <path id="Trazado_106028" data-name="Trazado 106028" d="M74.85,281.09a73.328,73.328,0,0,1-.23-8.25,73.366,73.366,0,0,1,.23-8.26,73.369,73.369,0,0,1,.23,8.26,73.331,73.331,0,0,1-.23,8.25Z" fill="#e0e0e0"/>
      <path id="Trazado_106029" data-name="Trazado 106029" d="M83.38,272.8a78.378,78.378,0,0,1-8.53.23,78.309,78.309,0,0,1-8.53-.23,78.317,78.317,0,0,1,8.53-.23,78.386,78.386,0,0,1,8.53.23Z" fill="#e0e0e0"/>
      <path id="Trazado_106030" data-name="Trazado 106030" d="M404.06,365.93a73.265,73.265,0,0,1-.23-8.25,73.509,73.509,0,0,1,.23-8.26,73.509,73.509,0,0,1,.23,8.26,73.258,73.258,0,0,1-.23,8.25Z" fill="#e0e0e0"/>
      <path id="Trazado_106031" data-name="Trazado 106031" d="M412.6,357.67a76.045,76.045,0,0,1-8.54.24,75.939,75.939,0,0,1-8.53-.24,80.993,80.993,0,0,1,8.53-.23A81.108,81.108,0,0,1,412.6,357.67Z" fill="#e0e0e0"/>
      <path id="Trazado_106032" data-name="Trazado 106032" d="M354,82.66a73.266,73.266,0,0,1-.23-8.25,73.422,73.422,0,0,1,.23-8.26,73.443,73.443,0,0,1,.23,8.26,73.266,73.266,0,0,1-.23,8.25Z" fill="#e0e0e0"/>
      <path id="Trazado_106033" data-name="Trazado 106033" d="M362.52,74.41a78.5,78.5,0,0,1-8.54.23,78.383,78.383,0,0,1-8.53-.23,78.383,78.383,0,0,1,8.53-.23A78.5,78.5,0,0,1,362.52,74.41Z" fill="#e0e0e0"/>
      <circle id="Elipse_4077" data-name="Elipse 4077" cx="5.04" cy="5.04" r="5.04" transform="translate(79.31 198.5)" fill="#e0e0e0"/>
      <path id="Trazado_106034" data-name="Trazado 106034" d="M285.61,418.35a5.05,5.05,0,1,1-5.06-5h0a5,5,0,0,1,5.05,5Z" fill="#e0e0e0"/>
      <path id="Trazado_106035" data-name="Trazado 106035" d="M332.55,323a5,5,0,1,1-1.489-3.561A5,5,0,0,1,332.55,323Z" fill="#e0e0e0"/>
      <path id="Trazado_106036" data-name="Trazado 106036" d="M182.68,71.86a5,5,0,1,1-5-5A5,5,0,0,1,182.68,71.86Z" fill="#e0e0e0"/>
      <circle id="Elipse_4078" data-name="Elipse 4078" cx="2.53" cy="2.53" r="2.53" transform="translate(201.53 367.73)" fill="#e0e0e0"/>
      <path id="Trazado_106037" data-name="Trazado 106037" d="M145.73,357.67a2.53,2.53,0,1,1-2.54-2.51h0a2.51,2.51,0,0,1,2.53,2.5Z" fill="#e0e0e0"/>
      <path id="Trazado_106038" data-name="Trazado 106038" d="M207.9,77a2.52,2.52,0,1,1-.734-1.788A2.53,2.53,0,0,1,207.9,77Z" fill="#e0e0e0"/>
      <path id="Trazado_106039" data-name="Trazado 106039" d="M319,213.37a2.53,2.53,0,1,1-2.53-2.52,2.53,2.53,0,0,1,2.53,2.52Z" fill="#e0e0e0"/>
      <path id="Trazado_106040" data-name="Trazado 106040" d="M76.8,69.42s-5.62,2.89,2.25,14.66a164.075,164.075,0,0,0,13,17.44s1.48,2.78-.88,3.55-7.88.52-8.62,3.64,1.84,5.9,6.72,8,15.36,6.78,16.32,7.23,2,1.67.4,2.44-13.51,3.47-11.89,9.08,16.14,9,17.73,9.43,2,1,2,1.84-4.14,1.37-7.51,2.28-7.09,2.55-5.92,5.71,10.26,9,30.51,8.59l9.36-.8,4.15-8.49c7.77-18.69,5.63-29.24,3.13-31.54s-5.4.62-7.47,3.43-4.07,6.45-4.87,6.21-1.18-.89-1-2.54,2.31-16.37-2.31-19.93-11.52,6.6-12.79,7.77-2.07-.25-2.13-1.28-.73-12.66-.84-17.9-1.64-8.71-4.93-9.18-5,4.75-6.54,6.69-3.6-.43-3.6-.43a163,163,0,0,0-11.5-18.51c-8.11-11.62-12.89-7.32-12.89-7.32" fill="#5e6178"/>
      <path id="Trazado_106041" data-name="Trazado 106041" d="M141,164.62c-5.9-8.55-16.13-23.93-25-37.1S99.19,102.45,93.3,93.84l-7-10.14c-.82-1.19-1.45-2.12-1.89-2.75-.2-.32-.37-.56-.49-.73a2.169,2.169,0,0,1-.15-.26l.18.24.51.71,1.92,2.73c1.67,2.37,4.07,5.83,7,10.11,5.92,8.55,14,20.42,22.83,33.61s19.06,28.56,24.92,37.15" fill="#e0e0e0"/>
      <path id="Trazado_106042" data-name="Trazado 106042" d="M90.2,109.3a3.1,3.1,0,0,1,.68.1c.42.08,1,.22,1.77.41,1.52.35,3.61.89,5.89,1.56l5.87,1.69,1.77.51a2.36,2.36,0,0,1,.65.21,3,3,0,0,1-.67-.11c-.43-.08-1-.22-1.78-.4-1.51-.39-3.59-1-5.89-1.62L92.63,110l-1.77-.49a3.63,3.63,0,0,1-.66-.21Z" fill="#e0e0e0"/>
      <path id="Trazado_106043" data-name="Trazado 106043" d="M107.43,113.11c-.07,0,.89-4.37,2.13-9.75s2.34-9.68,2.41-9.66-.89,4.38-2.13,9.75S107.51,113.12,107.43,113.11Z" fill="#e0e0e0"/>
      <path id="Trazado_106044" data-name="Trazado 106044" d="M120.1,133.93a2.77,2.77,0,0,1,.31-.62l.89-1.65c.78-1.39,1.85-3.31,3-5.47s2-4.16,2.66-5.6l.79-1.72a2.731,2.731,0,0,1,.32-.61,3.11,3.11,0,0,1-.22.65c-.15.43-.39,1-.7,1.77-.62,1.47-1.53,3.49-2.66,5.66s-2.21,4.08-3,5.45c-.42.68-.77,1.22-1,1.59a3.7,3.7,0,0,1-.39.55Z" fill="#e0e0e0"/>
      <path id="Trazado_106045" data-name="Trazado 106045" d="M103.78,133.91a3.389,3.389,0,0,1,.64-.06l1.77-.07c1.48,0,3.55-.08,5.76-.1s4.28,0,5.75,0h1.78a2.22,2.22,0,0,1,.63,0,3.36,3.36,0,0,1-.63.06l-1.78.07c-1.48,0-3.54.09-5.76.11s-4.28,0-5.75,0h-1.77A2.739,2.739,0,0,1,103.78,133.91Z" fill="#e0e0e0"/>
      <path id="Trazado_106046" data-name="Trazado 106046" d="M112.64,153.72a4.471,4.471,0,0,1,.82-.07l2.23-.1c1.89-.07,4.49-.14,7.37-.2s5.49-.1,7.38-.12h2.24a5.61,5.61,0,0,1,.82,0,3.26,3.26,0,0,1-.82.08l-2.23.09c-1.89.07-4.5.14-7.38.21s-5.48.1-7.38.11h-2.23a3.75,3.75,0,0,1-.82,0Z" fill="#e0e0e0"/>
      <path id="Trazado_106047" data-name="Trazado 106047" d="M133,153.16a4.731,4.731,0,0,1,.37-.79l1.1-2.13c.93-1.77,2.2-4.28,3.55-7.09s2.46-5.32,3.27-7.18l1-2.2a6.348,6.348,0,0,1,.38-.79,5.879,5.879,0,0,1-.27.84c-.21.53-.5,1.29-.89,2.23-.76,1.87-1.87,4.43-3.21,7.23s-2.66,5.27-3.59,7c-.5.88-.89,1.59-1.19,2.08A5.409,5.409,0,0,1,133,153.16Z" fill="#e0e0e0"/>
      <path id="Trazado_106048" data-name="Trazado 106048" d="M381.09,238.24c-10-8.71-10.93-23-9.14-35.53.29-2.1.3-4.34,1.5-6.08s3.67-2.75,5.45-1.66c1.48.89,2,2.8,2.66,4.43a12.4,12.4,0,0,0,4.43,5.24c1.27.84,2.88,1.45,4.28.89,1.93-.8,2.41-3.28,2.62-5.38q.6-5.85,1.19-11.7a19.591,19.591,0,0,1,1.3-6.14,6.5,6.5,0,0,1,4.54-3.94c2.05-.35,4.39,1.07,4.59,3.16a19.165,19.165,0,0,1-.23,2.61,2.2,2.2,0,0,0,1.07,2.2,2.5,2.5,0,0,0,2.4-.71,27.7,27.7,0,0,0,5.8-7,38.542,38.542,0,0,1,5.5-7.26,11.37,11.37,0,0,1,8.13-3.48c3,.15,6,2.35,6.44,5.32s-1.61,5.84-3.73,8a46.78,46.78,0,0,1-10.72,8.21,4,4,0,0,0-1.81,1.58c-.61,1.35.56,2.87,1.89,3.48,1.5.69,3.21.7,4.82,1.08s3.3,1.27,3.75,2.88c.63,2.23-1.4,4.28-3.32,5.55a40.26,40.26,0,0,1-12.57,5.56,13.359,13.359,0,0,0-4.62,1.67c-1.36.94-2.32,2.73-1.72,4.29s2.46,2.24,4.11,2.11a28.53,28.53,0,0,0,4.78-1.26c3-.78,6.67-.17,8.25,2.5a6.68,6.68,0,0,1,.07,5.93,15.41,15.41,0,0,1-3.72,4.83,40.47,40.47,0,0,1-18.47,10.21c-6.92,1.6-13.16,1.55-19.5-1.58" fill="#f5f5f5"/>
      <path id="Trazado_106049" data-name="Trazado 106049" d="M385.2,230.68a185.673,185.673,0,0,1,9.63-19.37l2.78-4.95c.89-1.62,1.83-3.22,2.81-4.75a95.665,95.665,0,0,1,6.2-8.4c2.1-2.57,4.17-4.94,6.13-7.14s3.84-4.21,5.62-6a76,76,0,0,1,9-7.69c1.13-.81,2-1.42,2.66-1.82l.7-.46.27-.1a1,1,0,0,1-.23.18l-.68.49c-.6.42-1.49,1.05-2.6,1.89a79.229,79.229,0,0,0-8.92,7.76c-1.77,1.77-3.61,3.79-5.56,6s-4,4.58-6.09,7.16a94.619,94.619,0,0,0-6.13,8.38c-1,1.51-1.87,3.11-2.79,4.74l-2.78,4.94a196.3,196.3,0,0,0-9.62,19.32" fill="#e0e0e0"/>
      <path id="Trazado_106050" data-name="Trazado 106050" d="M400.51,201.61a4.41,4.41,0,0,1-.11-.88c0-.6-.09-1.45-.12-2.51-.07-2.11-.07-5-.06-8.25s0-6.14-.13-8.25c0-1.06-.09-1.91-.14-2.49a4.407,4.407,0,0,1,0-.89,3.892,3.892,0,0,1,.17.89c.09.58.18,1.43.26,2.49.17,2.11.26,5,.24,8.26s0,6.06-.05,8.26v2.49A4.289,4.289,0,0,1,400.51,201.61Z" fill="#e0e0e0"/>
      <path id="Trazado_106051" data-name="Trazado 106051" d="M427.93,199.48a4.88,4.88,0,0,1-1.08,0h-3c-2.49,0-5.93.13-9.75.43s-7.22.73-9.68,1.11c-1.23.18-2.22.35-2.91.47a5.712,5.712,0,0,1-1.08.14,5.448,5.448,0,0,1,1-.29c.68-.16,1.67-.38,2.91-.6,2.45-.45,5.88-.88,9.68-1.22a96.133,96.133,0,0,1,9.75-.31c1.25,0,2.26.09,3,.15a5.788,5.788,0,0,1,1.16.12Z" fill="#e0e0e0"/>
      <path id="Trazado_106052" data-name="Trazado 106052" d="M385.58,230.26a1.14,1.14,0,0,1-.15-.34c-.09-.28-.22-.61-.36-1-.3-.89-.71-2.19-1.19-3.8-1-3.22-2.16-7.71-3.41-12.68s-2.4-9.47-3.29-12.7c-.44-1.57-.8-2.87-1.08-3.83-.11-.42-.2-.77-.28-1a1.529,1.529,0,0,1-.08-.37,1.189,1.189,0,0,1,.15.35l.36,1c.31.89.71,2.19,1.19,3.8,1,3.22,2.15,7.71,3.4,12.68s2.41,9.46,3.3,12.71c.44,1.56.81,2.86,1.07,3.82l.3,1a1.21,1.21,0,0,1,.07.36Z" fill="#e0e0e0"/>
      <path id="Trazado_106053" data-name="Trazado 106053" d="M422.54,222.56a2.26,2.26,0,0,1-.37.11l-1.07.23-4,.83c-3.34.7-8,1.72-13,2.85s-9.71,2.11-13.06,2.74c-1.69.31-3,.56-4,.7l-1.09.17a.81.81,0,0,1-.38,0l.37-.1,1.07-.23,4-.84c3.34-.7,8-1.72,13-2.85s9.7-2.11,13.06-2.74c1.69-.32,3-.56,4-.7l1.09-.17a1.21,1.21,0,0,1,.38,0Z" fill="#e0e0e0"/>
      <path id="Trazado_106054" data-name="Trazado 106054" d="M304.11,88.47c1.6-9.23,6-22.73,11.28-30.48s13.4-13.83,22.72-15.16,19.5,3.1,23.66,11.46c2.25,4.49,2.66,9.67,4.29,14.41s5.21,9.5,10.22,9.88c4.43.35,8.71-2.85,13.07-2,5.69,1.1,7.88,8.11,7.92,13.89s-.8,12.22,2.76,16.79c2.91,3.74,7.9,5,11.91,7.53,8.7,5.42,12.41,16.62,11.52,26.83s-5.58,19.65-10.57,28.59a224.172,224.172,0,0,0-16.84-42.43c-4-7.73-11.39-14.29-17.91-20.08-10-8.86-32-13.12-45.24-14.76s-15.62-2-28.77-4.43" fill="#aed3f2"/>
    </g>
    <g id="freepik--back-screens--inject-49">
      <path id="Trazado_106055" data-name="Trazado 106055" d="M215.56,99.37c-32.85,2.38-68.73,6.74-95,16.84l8.31,56.21s51-18.25,92.46-17Z" fill="#d9a171"/>
      <g id="Grupo_60081" data-name="Grupo 60081" opacity="0.8">
        <path id="Trazado_106056" data-name="Trazado 106056" d="M215.56,99.37c-32.85,2.38-68.73,6.74-95,16.84l8.31,56.21s51-18.25,92.46-17Z" fill="#fff"/>
      </g>
      <path id="Trazado_106057" data-name="Trazado 106057" d="M213.16,148l-.32.06-.93.13-3.55.44c-1.56.19-3.46.42-5.67.74s-4.72.64-7.49,1.1a436.08,436.08,0,0,0-42.92,8.86c-5.76,1.49-11.31,3-16.39,4.62l-.26.07v-.26c-1.77-12.89-3.49-24-4.81-31.9-.67-3.92-1.22-7.09-1.59-9.23-.18-1.05-.33-1.88-.43-2.46a3,3,0,0,0-.1-.64.81.81,0,0,1,0-.22.83.83,0,0,1,.06.21,3.708,3.708,0,0,0,.14.63l.51,2.45c.43,2.14,1,5.27,1.71,9.2,1.4,7.87,3.17,19,5,31.91l-.29-.18c5.09-1.61,10.63-3.16,16.42-4.64a418.811,418.811,0,0,1,43-8.71c2.77-.43,5.32-.72,7.51-1s4.12-.5,5.68-.66l3.6-.36.93-.08A1,1,0,0,1,213.16,148Z" fill="#d9a171"/>
      <path id="Trazado_106058" data-name="Trazado 106058" d="M214.31,134.36l-.38-1.13a12.06,12.06,0,0,0-1.7-2.9,14.82,14.82,0,0,0-4-3.5c-.43-.28-.93-.49-1.42-.75a12.851,12.851,0,0,0-1.61-.58,8.87,8.87,0,0,0-3.66-.35,7.68,7.68,0,0,0-3.72,1.46,12.56,12.56,0,0,0-3,3.24c-1.78,2.56-2.85,5.68-4.18,8.91a11.09,11.09,0,0,1-3.09,4.43,5.76,5.76,0,0,1-2.56,1.23,5.19,5.19,0,0,1-2.89-.33c-3.74-1.48-5.41-5.8-9.19-7.09a7.39,7.39,0,0,0-5.61.46,7.06,7.06,0,0,0-2.23,1.72,12.08,12.08,0,0,0-1.48,2.37c-.84,1.67-1.48,3.55-2.9,4.83a4.31,4.31,0,0,1-2.55,1.15,5.08,5.08,0,0,1-2.66-.57,9.57,9.57,0,0,1-3.67-3.61,30.639,30.639,0,0,1-1.94-4.43,21.06,21.06,0,0,0-1.93-4,8,8,0,0,0-2.93-2.72,7.62,7.62,0,0,0-6.73-.2,11.55,11.55,0,0,0-4.29,3.08,8.43,8.43,0,0,0-1.6,2.94c-.23.73-.26,1.15-.29,1.14a5.12,5.12,0,0,1,.2-1.17,8.11,8.11,0,0,1,1.55-3,11.49,11.49,0,0,1,4.32-3.21,7.88,7.88,0,0,1,7,.15,8.37,8.37,0,0,1,3.09,2.82,21.141,21.141,0,0,1,2,4.06,33.137,33.137,0,0,0,1.94,4.35,9.17,9.17,0,0,0,3.55,3.44,4.67,4.67,0,0,0,2.43.52,4,4,0,0,0,2.3-1c1.31-1.2,1.95-3,2.79-4.7a12,12,0,0,1,1.54-2.48,7.7,7.7,0,0,1,2.37-1.83,7.86,7.86,0,0,1,6-.49,12.4,12.4,0,0,1,4.8,3.62,13.38,13.38,0,0,0,4.43,3.54A4.67,4.67,0,0,0,185,144a5.24,5.24,0,0,0,2.36-1.13,10.67,10.67,0,0,0,3-4.25,50.87,50.87,0,0,1,4.25-9,12.53,12.53,0,0,1,3.09-3.32,8.06,8.06,0,0,1,3.89-1.5,9.25,9.25,0,0,1,3.77.4,12,12,0,0,1,1.64.62,15.28,15.28,0,0,1,5.44,4.43,11.54,11.54,0,0,1,1.64,3,8.938,8.938,0,0,1,.23.89A.786.786,0,0,1,214.31,134.36Z" fill="#d9a171"/>
      <path id="Trazado_106059" data-name="Trazado 106059" d="M127.24,127c0,.12-.41.31-1,.41s-1,.09-1,0,.4-.31,1-.41S127.19,126.85,127.24,127Z" fill="#d9a171"/>
      <path id="Trazado_106060" data-name="Trazado 106060" d="M128.69,137.21c.06.13-.26.38-.72.59s-.88.29-.88.17.27-.37.72-.58S128.64,137.12,128.69,137.21Z" fill="#d9a171"/>
      <path id="Trazado_106061" data-name="Trazado 106061" d="M130.51,148.46c0,.12-.29.34-.75.5s-.88.19-.88.07.29-.34.74-.5S130.46,148.34,130.51,148.46Z" fill="#d9a171"/>
      <path id="Trazado_106062" data-name="Trazado 106062" d="M132.69,159.48c0,.13-.35.36-.89.51s-.94.19-1,.07.33-.35.83-.51S132.64,159.37,132.69,159.48Z" fill="#d9a171"/>
      <path id="Trazado_106063" data-name="Trazado 106063" d="M194.64,106.51a5,5,0,0,1,1.08-.25l3.05-.46c2.66-.37,6.39-.88,10.87-1.41h.21v.22c.35,3.77.75,8.12,1.18,12.72v.42h-.22l-14.69,1.77h-.2v-.19c-.41-3.86-.75-7.09-1-9.39-.11-1.08-.19-1.94-.26-2.59a8.852,8.852,0,0,1,0-.89c.07.31.12.62.16.94.1.65.21,1.53.36,2.66.29,2.28.69,5.46,1.18,9.27l-.22-.18,14.68-1.87-.2.25v-.19c-.41-4.61-.79-9-1.13-12.73l.23.18Z" fill="#d9a171"/>
      <path id="Trazado_106064" data-name="Trazado 106064" d="M208.29,108.75c0,.14-2.52.13-5.61.47s-5.56.88-5.59.71a27.25,27.25,0,0,1,11.2-1.18Z" fill="#d9a171"/>
      <path id="Trazado_106065" data-name="Trazado 106065" d="M208.45,112c0,.14-2.36.22-5.24.51a52.44,52.44,0,0,1-5.24.5,30.57,30.57,0,0,1,10.48-1Z" fill="#d9a171"/>
      <path id="Trazado_106066" data-name="Trazado 106066" d="M204.93,114.91a9.9,9.9,0,0,1-3,.62,10.7,10.7,0,0,1-3,.16,9.84,9.84,0,0,1,3-.62,10.77,10.77,0,0,1,3-.16Z" fill="#d9a171"/>
      <path id="Trazado_106067" data-name="Trazado 106067" d="M375.71,115.94C343.54,106.14,316.4,97.77,280,98l-5.56,57.27c37.85,3.35,50.51,5.83,85.45,18.48Z" fill="#d9a171"/>
      <g id="Grupo_60082" data-name="Grupo 60082" opacity="0.8">
        <path id="Trazado_106068" data-name="Trazado 106068" d="M375.71,115.94C343.54,106.14,316.4,97.77,280,98l-5.56,57.27c37.85,3.35,50.51,5.83,85.45,18.48Z" fill="#fff"/>
      </g>
      <path id="Trazado_106069" data-name="Trazado 106069" d="M302.88,125.75l1.42-12.15a14.23,14.23,0,0,0-9.91,2.75,14.9,14.9,0,0,0-6.1,12,17.435,17.435,0,0,0,0,1.77h0l14.18-1.59Z" fill="#d9a171"/>
      <path id="Trazado_106070" data-name="Trazado 106070" d="M317.55,123.77a13.76,13.76,0,0,0-10.11-9.6l-.43-.09-.27-.06-.83-.13h-.07l-1.4,12.1-.34,2.86,13.4,4.89h0a15.179,15.179,0,0,0,.69-3.11,16.58,16.58,0,0,0-.64-6.86Z" fill="#d9a171"/>
      <g id="Grupo_60083" data-name="Grupo 60083" opacity="0.3">
        <path id="Trazado_106071" data-name="Trazado 106071" d="M317.55,123.77a13.76,13.76,0,0,0-10.11-9.6l-.43-.09-.27-.06-.83-.13h-.07l-1.4,12.1-.34,2.86,13.4,4.89h0a15.179,15.179,0,0,0,.69-3.11,16.58,16.58,0,0,0-.64-6.86Z"/>
      </g>
      <path id="Trazado_106072" data-name="Trazado 106072" d="M303.09,130.21l-14.18,1.6c.59,6.87,5.61,12.57,12.34,13.4s13.06-3.54,15.27-10.1l-13.4-4.89" fill="#d9a171"/>
      <path id="Trazado_106073" data-name="Trazado 106073" d="M363.28,126.82a8,8,0,0,1-1.25-.5c-.79-.36-1.94-.89-3.38-1.46a102.174,102.174,0,0,0-11.41-4,106.23,106.23,0,0,0-11.82-2.66c-1.53-.25-2.78-.42-3.64-.54a6.74,6.74,0,0,1-1.33-.23,7.7,7.7,0,0,1,1.36.06c.89.06,2.12.19,3.66.39a85.731,85.731,0,0,1,23.32,6.65c1.41.64,2.55,1.19,3.32,1.6a8.621,8.621,0,0,1,1.17.69Z" fill="#d9a171"/>
      <path id="Trazado_106074" data-name="Trazado 106074" d="M362.31,132.78a9.1,9.1,0,0,1-1.25-.51c-.79-.36-1.95-.89-3.38-1.46a100.879,100.879,0,0,0-23.24-6.63c-1.52-.24-2.77-.42-3.63-.54a8.6,8.6,0,0,1-1.33-.23,6.2,6.2,0,0,1,1.36.06,32.144,32.144,0,0,1,3.66.39,85.111,85.111,0,0,1,23.31,6.65c1.42.64,2.55,1.19,3.33,1.6A6.8,6.8,0,0,1,362.31,132.78Z" fill="#d9a171"/>
      <path id="Trazado_106075" data-name="Trazado 106075" d="M361.33,138.78a7.13,7.13,0,0,1-1.25-.51c-.79-.35-1.94-.88-3.38-1.46a104.342,104.342,0,0,0-11.41-4,106.24,106.24,0,0,0-11.82-2.66c-1.53-.24-2.77-.42-3.64-.54a6.52,6.52,0,0,1-1.32-.23,8.71,8.71,0,0,1,1.35.05c.89.07,2.12.2,3.66.4a86,86,0,0,1,11.89,2.5,84.38,84.38,0,0,1,11.43,4.16c1.42.64,2.55,1.19,3.32,1.59a7.4,7.4,0,0,1,1.17.7Z" fill="#d9a171"/>
      <path id="Trazado_106076" data-name="Trazado 106076" d="M359.38,144.76a8.549,8.549,0,0,1-1.21-.5c-.77-.37-1.88-.89-3.26-1.46a95.439,95.439,0,0,0-22.55-6.63c-1.49-.25-2.66-.43-3.54-.55a6.32,6.32,0,0,1-1.3-.23,7.3,7.3,0,0,1,1.32.06c.84.05,2.06.18,3.55.4a80.161,80.161,0,0,1,11.56,2.5A81.424,81.424,0,0,1,355,142.53c1.37.64,2.47,1.19,3.21,1.59a7.442,7.442,0,0,1,1.17.64Z" fill="#d9a171"/>
      <path id="Trazado_106077" data-name="Trazado 106077" d="M355.14,149.53a6.379,6.379,0,0,1-1.09-.44l-2.93-1.3A71.59,71.59,0,0,0,330.9,142l-3.18-.44a7.4,7.4,0,0,1-1.16-.2,4.58,4.58,0,0,1,1.17,0c.77,0,1.86.14,3.2.29a61.83,61.83,0,0,1,20.32,5.79c1.24.59,2.21,1.09,2.88,1.45a5.469,5.469,0,0,1,1.01.64Z" fill="#d9a171"/>
      <path id="Trazado_106078" data-name="Trazado 106078" d="M340.85,150.2a13.891,13.891,0,0,1-2.29-.47c-1.4-.32-3.34-.75-5.5-1.11s-4.14-.65-5.57-.89a14,14,0,0,1-2.3-.4,10.76,10.76,0,0,1,2.34.07c1.44.13,3.43.34,5.61.72a51.536,51.536,0,0,1,5.5,1.26,10.12,10.12,0,0,1,2.21.82Z" fill="#d9a171"/>
      <path id="Trazado_106079" data-name="Trazado 106079" d="M285.54,104.75h.75l2.21-.07c1.95,0,4.79,0,8.4.19a134.351,134.351,0,0,1,29.51,5.32h.16v.17c-2.21,12.7-4.85,27.79-7.67,43.94-.12.65-.23,1.31-.35,1.95v.24l-.25-.06a191.127,191.127,0,0,0-19.7-4.06c-6.35-1-12.4-1.67-18.06-2h-.22v-.21c1.55-13.55,2.86-24.89,3.77-32.88.46-4,.83-7.09,1.08-9.21.12-1.05.23-1.86.29-2.42a3.941,3.941,0,0,1,.08-.62c0-.16,0-.21,0-.2a.81.81,0,0,1,0,.22,2.7,2.7,0,0,1-.06.64c-.05.58-.14,1.4-.25,2.47-.22,2.16-.56,5.31-1,9.27-.89,8-2.09,19.27-3.55,32.79l-.19-.23c5.66.34,11.74,1,18.1,2A192.792,192.792,0,0,1,318.38,156l-.29.18c.12-.63.23-1.29.35-1.95,2.84-16.14,5.5-31.23,7.73-43.92l.14.23a137.489,137.489,0,0,0-29.41-5.44c-3.6-.24-6.45-.3-8.36-.29h-3Z" fill="#d9a171"/>
    </g>
    <g id="freepik--Character--inject-49">
      <path id="Trazado_106080" data-name="Trazado 106080" d="M250.41,221.79l31.37,6.95,4.8-6.95-.77-8.94-4.77-4.36H264.61l-15.35,13.82" fill="#d9a171"/>
      <g id="Grupo_60084" data-name="Grupo 60084" opacity="0.3">
        <path id="Trazado_106081" data-name="Trazado 106081" d="M250.41,221.79l31.37,6.95,4.8-6.95-.77-8.94-4.77-4.36H264.61l-15.35,13.82"/>
      </g>
      <path id="Trazado_106082" data-name="Trazado 106082" d="M298.23,157.19l39.61-5.32,6.2-1.77s14.28-3.14,15.61-3.62c1.54-.55,2.18.06,2.34.64.25.88-.62,1.92-1.93,2.44-.44.17-7.68,2.65-7.68,2.65a19,19,0,0,1,2.45.71c1.72.59,3.38,2.82,4.21,5.43s.85,3.4-.16,3.77a1.38,1.38,0,0,1-1.15-.16,2.75,2.75,0,0,1-1.19-1.49c-1.39-4.15-4-4.48-4-4.48l-.82.23s2.66,1.87,2.66,4.14a2.63,2.63,0,0,1-.21,1,3.44,3.44,0,0,1-3.82,4.52c-.57-.11-1.19-.45-1.27-1a1.71,1.71,0,0,1,.19-.89,2.266,2.266,0,0,1,.14-.47l-2.38.33s-5.38.44-7.69.88L302.26,175.9a9.6,9.6,0,0,1-12-6.4.74.74,0,0,1,0-.14h0a9.6,9.6,0,0,1,6.62-11.85,10.75,10.75,0,0,1,1.35-.32Z" fill="#ffbe9d"/>
      <path id="Trazado_106083" data-name="Trazado 106083" d="M338.77,152.86a2,2,0,0,0,1.71,1.58c.81.17,1.66.06,2.49.17,2.46.33,4.38,2.58,6.86,2.79.34,0,.79,0,.88-.37s-.16-.6-.4-.81l-6.21-5.47" fill="#ffbe9d"/>
      <path id="Trazado_106084" data-name="Trazado 106084" d="M344.13,150.75a4.681,4.681,0,0,1,.73.53c.44.36,1.09.88,1.87,1.55l2.73,2.35.78.69c.24.23.65.44.72,1a.69.69,0,0,1-.42.65,1.4,1.4,0,0,1-.67.11,4.93,4.93,0,0,1-1.19-.24,32.643,32.643,0,0,1-4-2,5.771,5.771,0,0,0-1.77-.59c-.58-.09-1.14-.07-1.66-.11a2.91,2.91,0,0,1-2.26-1,1.09,1.09,0,0,1-.27-.89,2.25,2.25,0,0,0,2.54,1.51c.57,0,1.14,0,1.7.05a6.641,6.641,0,0,1,1.9.58,35,35,0,0,0,3.92,2,4.939,4.939,0,0,0,1.07.21c.34,0,.64-.1.6-.27a1.72,1.72,0,0,0-.55-.7l-.78-.69-2.66-2.42-1.77-1.67C344.32,151,344.1,150.78,344.13,150.75Z" fill="#eb996e"/>
      <path id="Trazado_106085" data-name="Trazado 106085" d="M351.71,156.17a3.17,3.17,0,0,1,1.56,0,2.55,2.55,0,0,1,1.36.88,6.759,6.759,0,0,1,1,1.86,10.13,10.13,0,0,0,.88,2,3.39,3.39,0,0,0,1.3,1.25,1.3,1.3,0,0,0,1.21,0,.81.81,0,0,0,.35-.27s-.15.07-.39.17a1.36,1.36,0,0,1-1.08-.11,3.51,3.51,0,0,1-1.15-1.21,11,11,0,0,1-.89-1.94,6.34,6.34,0,0,0-1-1.91,2.84,2.84,0,0,0-1.52-1,2.48,2.48,0,0,0-1.21,0,2.88,2.88,0,0,0-.42.28Z" fill="#eb996e"/>
      <path id="Trazado_106086" data-name="Trazado 106086" d="M360.61,149.35a8.151,8.151,0,0,0-1.44.49l-3.44,1.27-3.44,1.21a7.409,7.409,0,0,0-1.42.54,6.859,6.859,0,0,0,1.49-.34c.89-.25,2.15-.64,3.49-1.13s2.56-1,3.42-1.35A6.79,6.79,0,0,0,360.61,149.35Z" fill="#eb996e"/>
      <path id="Trazado_106087" data-name="Trazado 106087" d="M350.67,158.37s.11.15.31.37a1.39,1.39,0,0,1,.45,1.09.75.75,0,0,1-.47.58,4,4,0,0,1-1,.27,1.73,1.73,0,0,0-1.07.56,1.49,1.49,0,0,0-.17,1.31,1.65,1.65,0,0,0,.88.95,2,2,0,0,0,1.19.18,6.62,6.62,0,0,0,1.83-.68,4,4,0,0,0,1.07-.79,1,1,0,0,0,.24-.42,2.69,2.69,0,0,1-.33.33,4.31,4.31,0,0,1-1.07.68,7.07,7.07,0,0,1-1.78.61,1.63,1.63,0,0,1-1.77-.95,1.19,1.19,0,0,1,.12-1,1.47,1.47,0,0,1,.9-.46,4,4,0,0,0,1-.32,1,1,0,0,0,.57-.78,1.52,1.52,0,0,0-.58-1.2A2.231,2.231,0,0,0,350.67,158.37Z" fill="#eb996e"/>
      <path id="Trazado_106088" data-name="Trazado 106088" d="M349.82,163.31a.67.67,0,0,0-.39.19,1.29,1.29,0,0,0-.44,1.09A1.74,1.74,0,0,0,350,166a2.83,2.83,0,0,0,2.14,0,3.36,3.36,0,0,0,1.71-1.3,3.28,3.28,0,0,0,.58-1.65,3.1,3.1,0,0,0-.13-1.17,1,1,0,0,0-.18-.39,6.112,6.112,0,0,1,.1,1.54,3.28,3.28,0,0,1-2.17,2.65,2.58,2.58,0,0,1-1.93,0,1.51,1.51,0,0,1-1-1.17,1.24,1.24,0,0,1,.31-1C349.69,163.39,349.84,163.34,349.82,163.31Z" fill="#eb996e"/>
      <path id="Trazado_106089" data-name="Trazado 106089" d="M343.23,160.06a1.44,1.44,0,0,0-.25-.69,2.9,2.9,0,0,0-1.45-1.18v.26a7,7,0,0,0,.89-.49,6.56,6.56,0,0,0,2.48-2.56,16.71,16.71,0,0,1-2.66,2.3c-.3.19-.59.35-.88.5l-.31.16.32.1a3.06,3.06,0,0,1,1.39,1C343.09,159.82,343.19,160.07,343.23,160.06Z" fill="#eb996e"/>
      <path id="Trazado_106090" data-name="Trazado 106090" d="M355.56,155.82A1.41,1.41,0,0,0,355,157c-.05.74.3,1.25.37,1.2s-.11-.54-.06-1.18S355.64,155.87,355.56,155.82Z" fill="#eb996e"/>
      <path id="Trazado_106091" data-name="Trazado 106091" d="M170.78,169.6S165,160.23,164,159.44s-10.18-4.15-11-3.9-11.88,2.13-10.63,3.45,9-.11,9-.11l1,.52s-6.69,1.07-8.1,1.88-.88,2.33.38,2.21,7-1.25,7.38-1-6.32,1.57-7,2c-1,.58-1.06,2.29.16,2.21.72,0,7-1.68,7-1.68a56.9,56.9,0,0,0-5.44,2.36.91.91,0,0,0,.89,1.56c.74-.16,4.26-1.84,5.25-2.06,0,0,.89.25,1.77,2.13.39.89,2.18,6.34,5.45,6.27,2.9-.07,5.75,2.32,5.75,2.32Z" fill="#ffbe9d"/>
      <path id="Trazado_106092" data-name="Trazado 106092" d="M142.43,159a4.93,4.93,0,0,0,2,.56,11.679,11.679,0,0,0,2.29.1c.88-.1,1.77-.23,2.74-.37l2.08-.3h-.13a28.609,28.609,0,0,0,4.79,1.5,30.841,30.841,0,0,0-4.62-2h-.12l-2.06.28-2.72.4a16.451,16.451,0,0,1-2.22,0C143.23,159.13,142.45,158.94,142.43,159Z" fill="#eb996e"/>
      <path id="Trazado_106093" data-name="Trazado 106093" d="M166.44,168.49a2.21,2.21,0,0,1-2.57,0,27,27,0,0,1-2.16-1.77c-2.25-1.59-5.5-1.21-7.68-2.91-.3-.23-.6-.62-.44-1s.59-.35.95-.35l9.14.22" fill="#ffbe9d"/>
      <path id="Trazado_106094" data-name="Trazado 106094" d="M163.68,162.74a4,4,0,0,0-1-.12c-.64,0-1.56-.1-2.66-.14l-4-.16h-1.16a1.76,1.76,0,0,0-1.34.28.79.79,0,0,0-.15.89,1.55,1.55,0,0,0,.46.59,6.131,6.131,0,0,0,1.14.7,35.73,35.73,0,0,0,4.75,1.36,7.27,7.27,0,0,1,1.87.88,18.118,18.118,0,0,1,1.42,1.17,3.23,3.23,0,0,0,2.57.89,1.24,1.24,0,0,0,.89-.5,2.84,2.84,0,0,1-.89.3,3.18,3.18,0,0,1-2.3-1c-.42-.36-.89-.82-1.42-1.24a7.119,7.119,0,0,0-2-1,39.876,39.876,0,0,1-4.65-1.36,5.24,5.24,0,0,1-1-.63c-.3-.24-.44-.57-.28-.69a1.85,1.85,0,0,1,1-.14h7.81a3.54,3.54,0,0,0,.94-.08Z" fill="#eb996e"/>
      <path id="Trazado_106095" data-name="Trazado 106095" d="M215.82,377.18l-2.11,23.23-7,17.91a2.4,2.4,0,0,0,1.37,3.1l.15.05h0a2.39,2.39,0,0,0,2.16-.37c3.92-3,18.31-14.07,18.37-15.78.07-2,3.86-24.4,3.86-24.4Z" fill="#d9a171"/>
      <g id="Grupo_60085" data-name="Grupo 60085" opacity="0.6">
        <path id="Trazado_106096" data-name="Trazado 106096" d="M208.26,421.48,229,403.76l-.11,1a3.58,3.58,0,0,1-1.12,2.22c-1.66,1.56-6.37,5.78-17.25,14.18a2.39,2.39,0,0,1-2.23.37Z" fill="#fff"/>
      </g>
      <g id="Grupo_60086" data-name="Grupo 60086" opacity="0.6">
        <path id="Trazado_106097" data-name="Trazado 106097" d="M225.06,395.74a1.45,1.45,0,0,0-.6,1.84,1.38,1.38,0,0,0,1.77.61,1.53,1.53,0,0,0,.64-1.94,1.45,1.45,0,0,0-2-.44" fill="#fff"/>
      </g>
      <path id="Trazado_106098" data-name="Trazado 106098" d="M214.72,411.94c-.15.05-.53-1.23-1.84-2a7.25,7.25,0,0,0-2.6-.82c0-.05.3-.2.88-.22a3.67,3.67,0,0,1,2,.61,3.6,3.6,0,0,1,1.39,1.6C214.78,411.6,214.77,411.94,214.72,411.94Z" fill="#344154"/>
      <path id="Trazado_106099" data-name="Trazado 106099" d="M212.7,414.87c-.11.09-.78-.75-1.94-1.23a18.932,18.932,0,0,0-2.22-.55,2.64,2.64,0,0,1,2.43.08C212.27,413.71,212.84,414.82,212.7,414.87Z" fill="#344154"/>
      <path id="Trazado_106100" data-name="Trazado 106100" d="M218.24,408.32a23.713,23.713,0,0,0-2.87-2.1A25.879,25.879,0,0,0,212,405a5.32,5.32,0,0,1,3.59.75,5.25,5.25,0,0,1,2.65,2.57Z" fill="#344154"/>
      <path id="Trazado_106101" data-name="Trazado 106101" d="M219.48,401.3c-.08.13-1.3-.55-3-.8s-3,0-3.06-.15A6,6,0,0,1,219.48,401.3Z" fill="#344154"/>
      <path id="Trazado_106102" data-name="Trazado 106102" d="M220.25,394.5A7.86,7.86,0,0,0,214,394a2.191,2.191,0,0,1,.83-.55,4.94,4.94,0,0,1,2.37-.38,5.33,5.33,0,0,1,2.3.74C220.07,394.15,220.31,394.45,220.25,394.5Z" fill="#344154"/>
      <path id="Trazado_106103" data-name="Trazado 106103" d="M217.4,392.3a2.06,2.06,0,0,1,.07-.89,6.27,6.27,0,0,1,1-2.22,2.82,2.82,0,0,1,1.3-1.16,1,1,0,0,1,1.06.34,1.55,1.55,0,0,1,.24,1.09,3.36,3.36,0,0,1-3.29,2.77,3.92,3.92,0,0,1-3.6-2.47,1.39,1.39,0,0,1,.06-1.13,1,1,0,0,1,1-.38,3.19,3.19,0,0,1,1.43,1,6.86,6.86,0,0,1,1.39,2,2.23,2.23,0,0,1,.26.84,11.07,11.07,0,0,0-1.89-2.57,3.14,3.14,0,0,0-1.28-.81.52.52,0,0,0-.57.21,1,1,0,0,0,0,.74,3.48,3.48,0,0,0,3.14,2.11,2.93,2.93,0,0,0,2.84-2.31,1.11,1.11,0,0,0-.15-.76.49.49,0,0,0-.57-.2,2.4,2.4,0,0,0-1.13,1,9.22,9.22,0,0,0-1.31,2.8Z" fill="#344154"/>
      <path id="Trazado_106104" data-name="Trazado 106104" d="M237.21,390.82,254.6,253.06,249,221l-32.79,1.77-4.1,165.47a2.5,2.5,0,0,0,2,2.55l19.11,2.95a3.44,3.44,0,0,0,3.91-2.88.17.17,0,0,1,.08-.04Z" fill="#344154"/>
      <path id="Trazado_106105" data-name="Trazado 106105" d="M254.1,257.67,285.75,289l-45.53,11.07,3.24,23,61.62-8.38a19.42,19.42,0,0,0,13.12-7.88h0a19.4,19.4,0,0,0,.3-22.26l-48-70.47L249,221Z" fill="#344154"/>
      <path id="Trazado_106106" data-name="Trazado 106106" d="M252.35,249.71a36.141,36.141,0,0,1,1.75,8,18.35,18.35,0,0,1-1.1-3.93,19,19,0,0,1-.65-4.07Z" fill="#455a64"/>
      <path id="Trazado_106107" data-name="Trazado 106107" d="M247.72,302.93l.75-.25,2.22-.69,8.49-2.58,30.89-9.28-.08.29L252,250l.4-.12c-.76,6.35-1.55,13-2.34,19.76-3.92,32.79-7.61,62.5-10.45,84C238.2,364.29,237,373,236.07,379c-.5,3-.88,5.32-1.18,6.87-.16.77-.3,1.35-.38,1.77a3.858,3.858,0,0,1-.15.6,2.829,2.829,0,0,1,.1-.61c.1-.4.2-1,.34-1.77.32-1.56.62-3.89,1.1-6.88.88-6,2-14.67,3.42-25.41,2.77-21.47,6.4-51.17,10.31-84,.81-6.77,1.6-13.41,2.35-19.77l.05-.48.34.35,37.89,40.53.19.21-.27.08-30.94,9.15-8.53,2.49-2.22.63A2.44,2.44,0,0,1,247.72,302.93Z" fill="#455a64"/>
      <path id="Trazado_106108" data-name="Trazado 106108" d="M237.5,388.22c-.12,0,3.49-29.24,8.07-65.3s8.41-65.26,8.53-65.25S250.62,286.92,246,323,237.63,388.23,237.5,388.22Z" fill="#455a64"/>
      <path id="Trazado_106109" data-name="Trazado 106109" d="M249,235.13a10.09,10.09,0,0,1,.72,2.13c.39,1.33.89,3.2,1.33,5.28s.79,4,1,5.31a10.6,10.6,0,0,1,.22,2.25,11.878,11.878,0,0,1-.54-2.19c-.33-1.52-.71-3.32-1.13-5.32s-.88-3.78-1.19-5.32a10.371,10.371,0,0,1-.41-2.14Z" fill="#455a64"/>
      <path id="Trazado_106110" data-name="Trazado 106110" d="M251,232.43a1.23,1.23,0,0,1,1.28-.15,1.53,1.53,0,0,1,1,1.14,1.63,1.63,0,0,1-.72,1.68,1.59,1.59,0,0,1-1.77-.18,1.36,1.36,0,0,1-.41-1.43,1.32,1.32,0,0,1,.6-.79c.2-.12.33-.12.34-.09a1.8,1.8,0,0,0-.62.95,1,1,0,0,0,.36,1,1.22,1.22,0,0,0,1.32.11,1.27,1.27,0,0,0,.53-1.21,1.22,1.22,0,0,0-.68-.89,2.31,2.31,0,0,0-1.23-.14Z" fill="#455a64"/>
      <path id="Trazado_106111" data-name="Trazado 106111" d="M295.07,294.35c-.1.1-1.88-1.54-4.43-3s-4.86-2.23-4.81-2.37a17.46,17.46,0,0,1,9.24,5.38Z" fill="#455a64"/>
      <path id="Trazado_106112" data-name="Trazado 106112" d="M226.67,127.12l-18.17,8.77,7.84,54.66-3.08,24.53a9.57,9.57,0,0,0,3.2,8.41h0l29.34-.57,20.53-11.27,9.44-1.59-3.87-18.68,1.78-26.48,21.47,11.45a7.45,7.45,0,0,0,5.4.65l39.33-10.22-2-15.17-35.65,4-27.14-24-20.21-4.54-3.58-6H230.59l-1.48,1.08a4.4,4.4,0,0,0-1.5,2Z" fill="#d9a171"/>
      <path id="Trazado_106113" data-name="Trazado 106113" d="M208.5,135.89a21.91,21.91,0,0,0-8.18,10.64c-2.07,6.45-6.76,32.53-6.76,32.53l-20.64-12.78L161,178.78l27.47,24.27a14,14,0,0,0,15.32,2.12h0a14,14,0,0,0,7.79-10.72L215,169.72Z" fill="#d9a171"/>
      <path id="Trazado_106114" data-name="Trazado 106114" d="M270.49,214.04l-1.28-1.88-13.59,2.5-2.5,5.79Z" fill="#ffbe9d"/>
      <path id="Trazado_106115" data-name="Trazado 106115" d="M216.46,223.49c12.14,4.89,25.11,3.09,36.66-3,3.5-1.85,6.73-4.15,10.24-6a21.5,21.5,0,0,1,11.33-2.89c3.94.27,7.92,2.45,9.5,6.07s0,8.55-3.72,9.91l1.31,1.17a11.77,11.77,0,0,0,5.38-15.27c-2-4.13-6.32-6.6-9.46-10-4.62-5-5.1-14.57-5.13-22.05" fill="#d9a171"/>
      <path id="Trazado_106116" data-name="Trazado 106116" d="M243.09,137.69a6.46,6.46,0,0,1-.88,0,3.44,3.44,0,0,0-2.16,1,5.11,5.11,0,0,0-1.07,3.47,11.82,11.82,0,0,0,1,4.65l.35.76-.66-.49a36.839,36.839,0,0,1-4.59-4,33.82,33.82,0,0,1-7-10.78,25.649,25.649,0,0,1-1.15-3.74,9.842,9.842,0,0,1-.2-1.43,40.805,40.805,0,0,0,1.65,5.05,35.48,35.48,0,0,0,7.09,10.58,37.26,37.26,0,0,0,4.5,4l-.33.28a11,11,0,0,1-.75-2.49,11.611,11.611,0,0,1-.21-2.35,5.28,5.28,0,0,1,1.25-3.65,3.41,3.41,0,0,1,2.34-.95,3.669,3.669,0,0,1,.82.09Z" fill="#344154"/>
      <path id="Trazado_106117" data-name="Trazado 106117" d="M244.17,137.69c1.5-.65,3.72.3,4.79,1.52.71.82,1.11,1.94,2,2.47s3.89.95,4.75.29c0,0,.52-2.53.8-3.54a79.139,79.139,0,0,0,2-12.13c-2.86-1.39-2.07-3.22-7.22-2.86a13,13,0,0,1,.19,7.25" fill="#d9a171"/>
      <path id="Trazado_106118" data-name="Trazado 106118" d="M251.55,130.66c-.06,0,.18-.68.29-1.94a14.121,14.121,0,0,0-.64-5.25l-.06-.22h.21a8.83,8.83,0,0,1,3.79.34,5.91,5.91,0,0,1,1.78,1.27,7,7,0,0,0,1.77,1.22l.14.07v.15c-.23,2.16-.49,4.5-.88,6.93a44.546,44.546,0,0,1-1,4.58c-.41,1.46-.67,2.87-1,4.2v.14a2.78,2.78,0,0,1-1.52.36,8.4,8.4,0,0,1-1.42-.09,8.519,8.519,0,0,1-1.33-.29,2.86,2.86,0,0,1-1.16-.63,11.439,11.439,0,0,1-1.37-1.88,4.86,4.86,0,0,0-1.4-1.27,5,5,0,0,0-2.55-.79,4.541,4.541,0,0,0-1,.14,2,2,0,0,1,1-.28,4.88,4.88,0,0,1,2.66.71,5,5,0,0,1,1.51,1.31,11.8,11.8,0,0,0,1.36,1.78,4.36,4.36,0,0,0,2.3.79,8.87,8.87,0,0,0,1.36.08,2.62,2.62,0,0,0,1.28-.3l-.08.13c.3-1.34.58-2.78,1-4.23a38.316,38.316,0,0,0,.93-4.56c.41-2.41.68-4.75.89-6.89l.12.22a7.51,7.51,0,0,1-1.91-1.3A5.5,5.5,0,0,0,255,124a8.88,8.88,0,0,0-3.62-.37l.15-.22a13.779,13.779,0,0,1,.51,5.38,11.493,11.493,0,0,1-.3,1.44,1.917,1.917,0,0,1-.19.43Z" fill="#344154"/>
      <path id="Trazado_106119" data-name="Trazado 106119" d="M281.82,214.31v-1a6.2,6.2,0,0,0-.89-2.74,9.17,9.17,0,0,0-3.26-3.14,13.73,13.73,0,0,0-5.81-1.6c-2.25-.2-4.75-.08-7.44-.26a28,28,0,0,1-8.38-1.78,17.22,17.22,0,0,1-7.56-5.65,13.09,13.09,0,0,1-2.17-4.55,17.609,17.609,0,0,1-.5-5.16,87.62,87.62,0,0,1,1.43-10.06,75.9,75.9,0,0,0-2.9-35.66c-.37-1.22-.72-2.14-.94-2.77-.1-.3-.18-.54-.25-.73a1.685,1.685,0,0,1-.07-.24,1.4,1.4,0,0,1,.12.23c.07.16.17.41.29.71.25.62.62,1.53,1,2.74a74.584,74.584,0,0,1,3.15,35.8,90.842,90.842,0,0,0-1.41,10,14.39,14.39,0,0,0,2.57,9.43,16.81,16.81,0,0,0,7.35,5.52,27.87,27.87,0,0,0,8.25,1.78c2.66.19,5.16.09,7.45.32a14,14,0,0,1,6,1.73,9.37,9.37,0,0,1,3.28,3.28,6,6,0,0,1,.81,2.82,3.322,3.322,0,0,1,0,.77A1.367,1.367,0,0,1,281.82,214.31Z" fill="#344154"/>
      <path id="Trazado_106120" data-name="Trazado 106120" d="M268.56,198.17a7.35,7.35,0,0,1-1,1.07c-.33.32-.76.72-1.27,1.16s-1.08.95-1.78,1.46a47.415,47.415,0,0,1-4.9,3.39,50,50,0,0,1-13.43,5.63A48.792,48.792,0,0,1,240.3,212c-.84.13-1.6.18-2.28.23s-1.25.09-1.72.1a9.143,9.143,0,0,1-1.48,0,10.508,10.508,0,0,1,1.47-.17A14,14,0,0,0,238,212c.66-.09,1.42-.14,2.26-.29a54.6,54.6,0,0,0,5.79-1.21,56.941,56.941,0,0,0,6.85-2.33,55.094,55.094,0,0,0,6.47-3.25,54.068,54.068,0,0,0,4.93-3.28c.68-.49,1.27-1,1.77-1.4s1-.79,1.32-1.1a11.844,11.844,0,0,1,1.17-.97Z" fill="#344154"/>
      <path id="Trazado_106121" data-name="Trazado 106121" d="M262.85,169.11a1.609,1.609,0,0,1-.07.49l-.31,1.38a19.838,19.838,0,0,1-.59,2.17c-.27.83-.52,1.77-.94,2.81-.2.52-.41,1.06-.62,1.62s-.5,1.11-.76,1.71c-.52,1.19-1.19,2.4-1.87,3.68a51.25,51.25,0,0,1-12.12,14.46c-1.16.88-2.23,1.77-3.32,2.48-.53.36-1,.74-1.55,1.05l-1.48.89a28.081,28.081,0,0,1-2.61,1.43,22.008,22.008,0,0,1-2,.95l-1.31.55a2.568,2.568,0,0,1-.47.15,2.34,2.34,0,0,1,.44-.24l1.27-.62c.55-.26,1.23-.59,2-1s1.65-.89,2.56-1.47l1.45-.89c.51-.32,1-.7,1.54-1.06,1.06-.72,2.12-1.6,3.25-2.5A59.57,59.57,0,0,0,252,190.5a60.259,60.259,0,0,0,5.37-7.7c.69-1.28,1.37-2.47,1.88-3.64.28-.59.56-1.15.79-1.7l.64-1.59c.44-1,.72-2,1-2.78s.51-1.54.67-2.13l.39-1.36a2.159,2.159,0,0,1,.11-.49Z" fill="#344154"/>
      <path id="Trazado_106122" data-name="Trazado 106122" d="M225.48,227.94a5.3,5.3,0,0,1-1.62-1.2,12.26,12.26,0,0,1-3.69-8.8,5.41,5.41,0,0,1,.26-2,18.387,18.387,0,0,1,.06,2,13.91,13.91,0,0,0,3.61,8.58C224.93,227.41,225.56,227.88,225.48,227.94Z" fill="#344154"/>
      <path id="Trazado_106123" data-name="Trazado 106123" d="M224.84,221c.13,0-.12,1.18,0,2.57s.55,2.48.42,2.54a5.32,5.32,0,0,1-.43-5.11Z" fill="#344154"/>
      <path id="Trazado_106124" data-name="Trazado 106124" d="M216.09,189.31a1.439,1.439,0,0,1-.11-.42c-.06-.32-.13-.72-.22-1.2-.18-1.12-.44-2.66-.74-4.43-.62-3.75-1.51-8.93-2.57-14.62s-2.1-10.86-2.84-14.59c-.37-1.77-.68-3.3-.88-4.43-.1-.48-.17-.89-.23-1.2a1.28,1.28,0,0,1-.06-.43,1.47,1.47,0,0,1,.14.4c.09.33.19.72.31,1.19.27,1,.63,2.53,1.06,4.38.88,3.7,1.94,8.86,3,14.55s1.89,10.9,2.43,14.66c.27,1.89.48,3.41.6,4.43.06.49.1.89.14,1.22a1.6,1.6,0,0,1-.03.49Z" fill="#344154"/>
      <path id="Trazado_106125" data-name="Trazado 106125" d="M272.81,189.31a2.1,2.1,0,0,1-.05-.43V183c0-3.9.22-9.3.67-15.25s1-11.31,1.5-15.2c.24-1.88.44-3.43.59-4.59l.18-1.25a3.152,3.152,0,0,1,.09-.42,1.09,1.09,0,0,1,0,.44c0,.34-.06.75-.09,1.25-.11,1.16-.26,2.71-.44,4.61-.38,3.88-.88,9.25-1.37,15.2s-.68,11.32-.8,15.22c0,1.9-.1,3.46-.13,4.63v1.26a1.281,1.281,0,0,1-.15.41Z" fill="#344154"/>
      <path id="Trazado_106126" data-name="Trazado 106126" d="M202,191.6c-.15.06-1.32-3.17-3.55-6.68a45.61,45.61,0,0,0-4.8-5.83,8.319,8.319,0,0,1,1.77,1.41,24.73,24.73,0,0,1,3.46,4.17,29.859,29.859,0,0,1,2.48,4.8,9.189,9.189,0,0,1,.64,2.13Z" fill="#344154"/>
      <path id="Trazado_106127" data-name="Trazado 106127" d="M203.47,187.72a15.358,15.358,0,0,1-1-1.77,13.52,13.52,0,0,0-3.07-3.54,18.85,18.85,0,0,0-4-2.47,12.738,12.738,0,0,1-1.77-.89,6.53,6.53,0,0,1,1.92.57,15.279,15.279,0,0,1,4.22,2.42,11.81,11.81,0,0,1,3.06,3.78,5.62,5.62,0,0,1,.64,1.9Z" fill="#344154"/>
      <path id="Trazado_106128" data-name="Trazado 106128" d="M212.6,166.46a2.9,2.9,0,0,1-.19.39,4,4,0,0,1-.8.94,5.36,5.36,0,0,1-4.35,1.17,8.41,8.41,0,0,1-5.46-3.85,19.6,19.6,0,0,1-1.77-3.55c-.25-.64-.49-1.3-.71-2a5.62,5.62,0,0,1-.25-2.23,3,3,0,0,1,1.09-2,2.53,2.53,0,0,1,2.18-.39,4.3,4.3,0,0,1,2.92,2.76,4.16,4.16,0,0,1-.36,3.62,4.52,4.52,0,0,1-2.53,2,4.05,4.05,0,0,1-2.66-.13,4.37,4.37,0,0,1-1.64-1.12,3.58,3.58,0,0,1-.69-1c-.11-.27-.15-.41-.13-.42a5.46,5.46,0,0,0,.95,1.33,4.37,4.37,0,0,0,1.6,1,3.92,3.92,0,0,0,2.44.06,4.24,4.24,0,0,0,2.29-1.83,3.76,3.76,0,0,0,.3-3.28,3.88,3.88,0,0,0-2.66-2.47,2.07,2.07,0,0,0-1.77.32,2.57,2.57,0,0,0-.89,1.7,9.51,9.51,0,0,0,.89,4,17.479,17.479,0,0,0,1.77,3.54,8.17,8.17,0,0,0,5.16,3.78,5.29,5.29,0,0,0,4.17-1A6.59,6.59,0,0,0,212.6,166.46Z" fill="#fafafa"/>
      <path id="Trazado_106129" data-name="Trazado 106129" d="M247.44,180l-.24.21c-.18.15-.43.33-.74.57a20.571,20.571,0,0,1-3.05,1.92,9.481,9.481,0,0,1-2.49.83,6.56,6.56,0,0,1-3.11-.21,11,11,0,0,1-5.61-4.94,18.07,18.07,0,0,1,.16-18.83,9.75,9.75,0,0,1,4.17-3.9,5.38,5.38,0,0,1,3-.38,4.08,4.08,0,0,1,2.66,1.51,4.36,4.36,0,0,1,.83,3,6.86,6.86,0,0,1-.95,3,9.83,9.83,0,0,1-4.93,4,12.64,12.64,0,0,1-6.33.66,13,13,0,0,1-5.7-2.37,19.5,19.5,0,0,1-6.71-9.39,11.38,11.38,0,0,1-.81-5.38,5.22,5.22,0,0,1,1-2.44,3.64,3.64,0,0,1,2.16-1.41,4.73,4.73,0,0,1,4.43,1.54,5,5,0,0,1,1.07,4.24,6.71,6.71,0,0,1-1.82,3.55,8.77,8.77,0,0,1-3,2,13.51,13.51,0,0,1-5.63.88,29.891,29.891,0,0,1-3.54-.36l-.93-.15-.31-.06h.32l.93.1c.81.08,2,.24,3.54.28a13.71,13.71,0,0,0,5.53-.89,8.27,8.27,0,0,0,2.88-1.92,6.4,6.4,0,0,0,1.71-3.43,4.73,4.73,0,0,0-1-4,4.39,4.39,0,0,0-4.11-1.4,4.08,4.08,0,0,0-2.88,3.54,10.69,10.69,0,0,0,.82,5.18,19.16,19.16,0,0,0,6.55,9.17,12.74,12.74,0,0,0,5.52,2.27,12.11,12.11,0,0,0,6.08-.63,9.3,9.3,0,0,0,4.7-3.79,6.57,6.57,0,0,0,.89-2.82,3.83,3.83,0,0,0-.74-2.7,3.63,3.63,0,0,0-2.39-1.36,5,5,0,0,0-2.75.34,9.37,9.37,0,0,0-4,3.73,17.34,17.34,0,0,0-2.7,9.83,17.61,17.61,0,0,0,2.45,8.6,10.82,10.82,0,0,0,5.42,4.87,7.35,7.35,0,0,0,5.44-.55,20.729,20.729,0,0,0,3.07-1.83l.77-.53a1.739,1.739,0,0,1,.37-.15Z" fill="#fafafa"/>
      <path id="Trazado_106130" data-name="Trazado 106130" d="M223,130.32a2.871,2.871,0,0,1-.28.79,13.111,13.111,0,0,1-1.14,2,14.56,14.56,0,0,1-13.14,6.26,11.57,11.57,0,0,1-2.26-.36,2.65,2.65,0,0,1-.79-.28c0-.08,1.17.25,3.07.33a15.26,15.26,0,0,0,12.86-6.14C222.45,131.39,222.9,130.27,223,130.32Z" fill="#fafafa"/>
      <path id="Trazado_106131" data-name="Trazado 106131" d="M236.08,134.08a5.7,5.7,0,0,0-4.12,3.5c-.05,0-.07-.35.11-.88a4.14,4.14,0,0,1,3.14-2.66C235.75,134,236.08,134,236.08,134.08Z" fill="#fafafa"/>
      <path id="Trazado_106132" data-name="Trazado 106132" d="M254.81,139.29a1.8,1.8,0,0,1-.76-.34,6.25,6.25,0,0,1-1.66-1.54,6,6,0,0,1-1.23-3.13,3,3,0,0,1,.55-2,2,2,0,0,1,2-.88,2.25,2.25,0,0,1,1.62,1.55,2.13,2.13,0,0,1-.41,2,2.86,2.86,0,0,1-3.21.88,3.65,3.65,0,0,1-1.77-1.45,1.84,1.84,0,0,1-.33-.76s.16.25.48.65a3.62,3.62,0,0,0,1.71,1.25,2.54,2.54,0,0,0,2.77-.8,1.71,1.71,0,0,0,.31-1.64,1.85,1.85,0,0,0-1.28-1.24,1.61,1.61,0,0,0-1.6.7,2.74,2.74,0,0,0-.48,1.69,6.05,6.05,0,0,0,1.08,3,9.16,9.16,0,0,0,2.21,2.06Z" fill="#fafafa"/>
      <path id="Trazado_106133" data-name="Trazado 106133" d="M258.35,129a11.53,11.53,0,0,0-2.93-2,11.85,11.85,0,0,0-3.55-.6,2.05,2.05,0,0,1,1.07-.26,5.9,5.9,0,0,1,2.66.44,6.16,6.16,0,0,1,2.18,1.53C258.24,128.53,258.41,128.92,258.35,129Z" fill="#fafafa"/>
      <path id="Trazado_106134" data-name="Trazado 106134" d="M282.72,139.27l-.16.1-.54.29a19,19,0,0,1-2.13.88,25.89,25.89,0,0,1-8.35,1.57,12.371,12.371,0,0,1-2.84-.27,6.15,6.15,0,0,1-2.79-1.37,4.12,4.12,0,0,1-1.37-3,5.14,5.14,0,0,1,1.18-3.33,6.83,6.83,0,0,1,7.09-1.77,8.23,8.23,0,0,1,5.65,5.47,8.12,8.12,0,0,1-1.69,7.69,12.42,12.42,0,0,1-6.56,3.54,37.1,37.1,0,0,1-6.73.68,37.729,37.729,0,0,0-5.8.57,11.77,11.77,0,0,0-7.13,4.07,8.4,8.4,0,0,0-1.37,2.76.74.74,0,0,1,0-.21,2.24,2.24,0,0,1,.14-.58,7.4,7.4,0,0,1,1.05-2.08,11.8,11.8,0,0,1,7.22-4.28,36,36,0,0,1,5.85-.63,37.161,37.161,0,0,0,6.65-.71,12,12,0,0,0,6.32-3.42A7.65,7.65,0,0,0,278,138a7.76,7.76,0,0,0-5.32-5.17,6.43,6.43,0,0,0-6.61,1.65,4.78,4.78,0,0,0-1.1,3.05,3.77,3.77,0,0,0,1.23,2.76,5.88,5.88,0,0,0,2.66,1.3,11.51,11.51,0,0,0,2.74.3,27.28,27.28,0,0,0,8.3-1.41c.94-.33,1.66-.62,2.14-.83a4.9,4.9,0,0,1,.68-.38Z" fill="#fafafa"/>
      <path id="Trazado_106135" data-name="Trazado 106135" d="M260.62,174.07c-.08,0-.38-.75-1.19-1.77a9.11,9.11,0,0,0-9.05-3.42c-1.29.25-2,.62-2.07.55a4.87,4.87,0,0,1,2-.88,8.74,8.74,0,0,1,9.39,3.54A4.74,4.74,0,0,1,260.62,174.07Z" fill="#fafafa"/>
      <path id="Trazado_106136" data-name="Trazado 106136" d="M271,180.77a4.32,4.32,0,0,1-1.21,1.77,7.43,7.43,0,0,1-9.75.77,4.4,4.4,0,0,1-1.48-1.58c.06-.06.57.61,1.67,1.31a7.55,7.55,0,0,0,9.3-.74C270.5,181.45,270.9,180.71,271,180.77Z" fill="#fafafa"/>
      <path id="Trazado_106137" data-name="Trazado 106137" d="M273.67,163.13c0,.07-.58-.25-1.52-.5a6.51,6.51,0,0,0-6.79,2.17c-.62.75-.88,1.32-.94,1.29a3.19,3.19,0,0,1,.69-1.49,6.2,6.2,0,0,1,7.14-2.28A3.22,3.22,0,0,1,273.67,163.13Z" fill="#fafafa"/>
      <path id="Trazado_106138" data-name="Trazado 106138" d="M306.69,155a4.543,4.543,0,0,1,.16.66,4.38,4.38,0,0,1,.1.81,5.338,5.338,0,0,1,0,1.13,11.19,11.19,0,0,1-2.54,6.6,11.64,11.64,0,0,1-3.78,3.16,11.84,11.84,0,0,1-5.53,1.27A14.88,14.88,0,0,1,283.71,163a9,9,0,0,1-1.61-3.07,5.89,5.89,0,0,1,.06-3.38,4.34,4.34,0,0,1,2.07-2.53,4.68,4.68,0,0,1,3.12-.37A5.23,5.23,0,0,1,290,155a6.13,6.13,0,0,1,1.45,2.41,8.09,8.09,0,0,1,0,4.94,9.54,9.54,0,0,1-2.09,3.55,9.66,9.66,0,0,1-2.44,1.87,9,9,0,0,1-1.77.73,3.872,3.872,0,0,1-.68.12,12.549,12.549,0,0,0,2.4-1,9.55,9.55,0,0,0,4.3-5.31,7.79,7.79,0,0,0,0-4.73,5.56,5.56,0,0,0-1.37-2.23,4.81,4.81,0,0,0-2.43-1.27,4.32,4.32,0,0,0-2.83.34,3.84,3.84,0,0,0-1.85,2.29,5.32,5.32,0,0,0,0,3.11,8.45,8.45,0,0,0,1.52,2.91,14.57,14.57,0,0,0,11,5.49,11.57,11.57,0,0,0,11.71-10.61A18.07,18.07,0,0,0,306.69,155Z" fill="#fafafa"/>
      <path id="Trazado_106139" data-name="Trazado 106139" d="M313.52,173.33a2.419,2.419,0,0,1-.54-.61,6.19,6.19,0,0,1-1-2,8.339,8.339,0,0,1-.13-3.3,29.6,29.6,0,0,1,.89-3.92,28.232,28.232,0,0,1,3.17-6.54c.5-.78.88-1.4,1.22-1.82a3.121,3.121,0,0,1,.51-.64,20.751,20.751,0,0,1-1.45,2.66,32.489,32.489,0,0,0-3,6.5,36.38,36.38,0,0,0-.89,3.85,8.4,8.4,0,0,0,0,3.16,11.788,11.788,0,0,0,1.22,2.66Z" fill="#fafafa"/>
      <path id="Trazado_106140" data-name="Trazado 106140" d="M330.3,152.94a1.9,1.9,0,0,1,.27.64,10.279,10.279,0,0,1,.44,1.82,16.23,16.23,0,0,1-2.65,11.84,10.942,10.942,0,0,1-1.17,1.47c-.31.32-.48.48-.51.47s.59-.79,1.41-2.11a18.658,18.658,0,0,0,2.28-5.59,18.24,18.24,0,0,0,.29-6C330.51,153.9,330.22,153,330.3,152.94Z" fill="#fafafa"/>
      <path id="Trazado_106141" data-name="Trazado 106141" d="M272.31,194.39a2,2,0,0,1-.38-.2,11.3,11.3,0,0,0-1.08-.59,12.55,12.55,0,0,0-4.33-1.21,13.17,13.17,0,0,0-6.5,1,11,11,0,0,0-3.25,2.16,6.249,6.249,0,0,0-1.28,1.57,3.18,3.18,0,0,0-.44,2,2.33,2.33,0,0,0,.94,1.67,1.88,1.88,0,0,0,1.77.08,3.17,3.17,0,0,0,1.65-3.11,6.32,6.32,0,0,0-3.29-5.32,6.46,6.46,0,0,0-4.34-.57,14.535,14.535,0,0,0-1.58.51,1.47,1.47,0,0,1,.37-.24,5.43,5.43,0,0,1,1.16-.44,6.43,6.43,0,0,1,4.54.46,6.62,6.62,0,0,1,3.55,5.61,4.61,4.61,0,0,1-.39,2,3,3,0,0,1-1.5,1.53,2.34,2.34,0,0,1-2.24-.11,2.8,2.8,0,0,1-1.16-2A3.54,3.54,0,0,1,255,197a6.69,6.69,0,0,1,1.36-1.68,11.29,11.29,0,0,1,3.4-2.22,13.28,13.28,0,0,1,6.71-1,11.88,11.88,0,0,1,4.37,1.38,7.688,7.688,0,0,1,1.05.66C272.2,194.27,272.33,194.37,272.31,194.39Z" fill="#fafafa"/>
      <path id="Trazado_106142" data-name="Trazado 106142" d="M275.52,201.72a5.829,5.829,0,0,1-1.07,2c-.7,1.05-1.35,1.85-1.46,1.77a5.85,5.85,0,0,1,1.08-2C274.77,202.44,275.41,201.65,275.52,201.72Z" fill="#fafafa"/>
      <path id="Trazado_106143" data-name="Trazado 106143" d="M286.77,214.4c-.07,0-.19-.31-.5-.77a4.58,4.58,0,0,0-3.61-2,5,5,0,0,1-.88,0,1.908,1.908,0,0,1,.88-.31,4,4,0,0,1,3.9,2.18C286.81,214,286.83,214.39,286.77,214.4Z" fill="#fafafa"/>
      <path id="Trazado_106144" data-name="Trazado 106144" d="M250.16,209.88c0,.06-1.06.6-2.77,1.59a24.13,24.13,0,0,0-6,4.65,12.89,12.89,0,0,0-3.19,6.77,15.9,15.9,0,0,0,.05,3.16,2.66,2.66,0,0,1-.25-.83,7.791,7.791,0,0,1-.12-2.36,12.4,12.4,0,0,1,3.17-7,21.75,21.75,0,0,1,6.2-4.65c.89-.45,1.62-.78,2.12-1a3.061,3.061,0,0,1,.79-.33Z" fill="#fafafa"/>
      <path id="Trazado_106145" data-name="Trazado 106145" d="M263.18,214.21a3.22,3.22,0,0,1-1-1.06,5.9,5.9,0,0,1,.56-6.62,2.58,2.58,0,0,1,1.12-.89c.05.07-.38.4-.89,1.09a6.39,6.39,0,0,0-.52,6.27A10.763,10.763,0,0,1,263.18,214.21Z" fill="#fafafa"/>
      <path id="Trazado_106146" data-name="Trazado 106146" d="M242.84,198.16a4.849,4.849,0,0,0-.52-.52,3.57,3.57,0,0,0-1.84-.81,4.58,4.58,0,0,0-3.09.63,9.4,9.4,0,0,0-2.94,3.11c-.88,1.34-1.61,3-2.74,4.54a9.67,9.67,0,0,1-4.88,3.65,9,9,0,0,1-6.71-.39,9.56,9.56,0,0,1-4.93-5.26,5.68,5.68,0,0,1-.15-3.73,5.18,5.18,0,0,1,2.3-2.82,5.34,5.34,0,0,1,3.42-.79,5.62,5.62,0,0,1,3,1.45,7.41,7.41,0,0,1,2.4,5.57,9.19,9.19,0,0,1-1.65,5.06,10.33,10.33,0,0,1-3.2,3,12.819,12.819,0,0,1-3,1.33,14.65,14.65,0,0,1-2.05.43l-.54.06h-.2a4.611,4.611,0,0,1,.72-.15,17.4,17.4,0,0,0,2-.51,13.309,13.309,0,0,0,3-1.38,10.11,10.11,0,0,0,3.07-3,9,9,0,0,0,1.54-4.88,7.06,7.06,0,0,0-2.3-5.25,5.23,5.23,0,0,0-2.81-1.33,4.94,4.94,0,0,0-3.14.73,4.86,4.86,0,0,0-2.1,2.58,5.34,5.34,0,0,0,.15,3.44,9.22,9.22,0,0,0,4.7,5,8.64,8.64,0,0,0,6.38.39,9.24,9.24,0,0,0,4.7-3.48c1.11-1.51,1.87-3.14,2.78-4.49a9.66,9.66,0,0,1,3.08-3.15,4.72,4.72,0,0,1,3.24-.59,3.51,3.51,0,0,1,1.88.89A2,2,0,0,1,242.84,198.16Z" fill="#fafafa"/>
      <path id="Trazado_106147" data-name="Trazado 106147" d="M243.13,212a4.12,4.12,0,0,1-1.43-1.12,9.77,9.77,0,0,1-2.45-8.23,4.15,4.15,0,0,1,.57-1.77c.08,0-.13.68-.25,1.77a10.86,10.86,0,0,0,2.37,8C242.64,211.47,243.18,211.9,243.13,212Z" fill="#fafafa"/>
      <path id="Trazado_106148" data-name="Trazado 106148" d="M246.39,191.54s-.62-.31-1.77-.76a21.27,21.27,0,0,0-12.76-.95,17,17,0,0,0-4.26,1.59,2.9,2.9,0,0,0-1.41,1.68,1.62,1.62,0,0,0,.89,1.78.94.94,0,0,0,.89-.29,2.23,2.23,0,0,0,.53-1,8.139,8.139,0,0,0,.2-2.36,10.64,10.64,0,0,0-1.13-4.35,10.32,10.32,0,0,0-2.5-3.22,10.061,10.061,0,0,0-3.1-1.77,10.77,10.77,0,0,0-5.13-.51c-1.22.19-1.87.47-1.88.42a1.921,1.921,0,0,1,.46-.21,9.8,9.8,0,0,1,6.67,0,10.4,10.4,0,0,1,3.23,1.77A10.55,10.55,0,0,1,228,186.7a10.84,10.84,0,0,1,1.21,4.53,8.69,8.69,0,0,1-.21,2.49,2.83,2.83,0,0,1-.65,1.19,1.39,1.39,0,0,1-1.38.4,1.78,1.78,0,0,1-1.06-.95,2.28,2.28,0,0,1-.19-1.36,3.3,3.3,0,0,1,1.63-2,17.21,17.21,0,0,1,4.38-1.61,21,21,0,0,1,7.86-.29,19.07,19.07,0,0,1,5.07,1.49,11.692,11.692,0,0,1,1.32.67C246.25,191.43,246.4,191.52,246.39,191.54Z" fill="#fafafa"/>
      <path id="Trazado_106149" data-name="Trazado 106149" d="M177.33,194.08a16.853,16.853,0,0,0,1.42-1.31,12.25,12.25,0,0,0,2.79-4.43,9.66,9.66,0,0,0-.22-7.5,9.5,9.5,0,0,0-2.83-3.49,8,8,0,0,0-4.43-1.68,5.1,5.1,0,0,0-2.34.49,3,3,0,0,0-1.56,1.59,2.27,2.27,0,0,0,.32,2.05,3.31,3.31,0,0,0,1.67,1.25,4.63,4.63,0,0,0,3.84-.65,6.51,6.51,0,0,0,2.33-2.66,13.54,13.54,0,0,0,1.11-5.09,10,10,0,0,1,.06-1.44,1.67,1.67,0,0,1,0-.5,1.4,1.4,0,0,1,0,.5v1.44a12.81,12.81,0,0,1-.94,5.33,6.7,6.7,0,0,1-2.41,2.81,5,5,0,0,1-4.17.74,3.68,3.68,0,0,1-1.91-1.4,2.72,2.72,0,0,1-.39-2.45,3.4,3.4,0,0,1,1.78-1.85,5.64,5.64,0,0,1,2.56-.54,8.35,8.35,0,0,1,4.72,1.77,10,10,0,0,1,2.94,3.68,9.2,9.2,0,0,1,.89,4.16,10.53,10.53,0,0,1-.73,3.63,12,12,0,0,1-3,4.43,7.339,7.339,0,0,1-1.11.89A2.129,2.129,0,0,1,177.33,194.08Z" fill="#fafafa"/>
      <path id="Trazado_106150" data-name="Trazado 106150" d="M195.7,207.27a3.23,3.23,0,0,1-.69-.74,15.32,15.32,0,0,1-1.53-2.3,16.37,16.37,0,0,1,1.15-17.35,14,14,0,0,1,1.77-2.08,4,4,0,0,1,.8-.62c.07.07-1,1-2.32,2.92a16.81,16.81,0,0,0-1.12,17A35.342,35.342,0,0,0,195.7,207.27Z" fill="#fafafa"/>
      <path id="Trazado_106151" data-name="Trazado 106151" d="M213,188c-.08,0-.45-1.33-1.55-3.29a18.22,18.22,0,0,0-14-9.26c-2.23-.25-3.63-.05-3.63-.14a3.53,3.53,0,0,1,1-.17,16.869,16.869,0,0,1,2.66,0,17.55,17.55,0,0,1,14.27,9.44,14.611,14.611,0,0,1,1,2.48,3.42,3.42,0,0,1,.25.94Z" fill="#fafafa"/>
      <g id="Grupo_60087" data-name="Grupo 60087" opacity="0.3">
        <path id="Trazado_106152" data-name="Trazado 106152" d="M237.23,212.8c-.88.36-.77,1.71-.06,2.29a3.85,3.85,0,0,0,2.66.57,34.24,34.24,0,0,0,26.26-14.75c-8,6.57-18.52,9.06-28.63,11.34"/>
      </g>
      <g id="Grupo_60088" data-name="Grupo 60088" opacity="0.3">
        <path id="Trazado_106153" data-name="Trazado 106153" d="M235.65,203.76c-.89-1.34-.29-3.22.88-4.36a14.91,14.91,0,0,1,4.1-2.43,25.83,25.83,0,0,0,11.94-12.26c1.62-3.49,2.83-7.77,6.4-9.21a34.61,34.61,0,0,1-22.78,27.18"/>
      </g>
      <g id="Grupo_60089" data-name="Grupo 60089" opacity="0.3">
        <path id="Trazado_106154" data-name="Trazado 106154" d="M210.5,157.81a90.129,90.129,0,0,1-2,29,23.77,23.77,0,0,0-1,6.1,8.1,8.1,0,0,0,2.94,5.74c1.47-3.4,1.5-6.67,2.12-10.32.55-3.29,1.49-11,1.49-11.08.14-6.72-1.45-12.48-4-18.54"/>
      </g>
      <g id="Grupo_60090" data-name="Grupo 60090" opacity="0.3">
        <path id="Trazado_106155" data-name="Trazado 106155" d="M227.19,128.71a35.44,35.44,0,0,0,10,18.83c2,1.9,4.43,3.66,7.13,3.54A16.71,16.71,0,0,1,243,140.64a42.27,42.27,0,0,0,7.3,4,14.48,14.48,0,0,0,8.15.89l1.69-14.65a2.75,2.75,0,0,0-.16-1.65.94.94,0,0,0-1.27-.42.571.571,0,0,0-.13.08,1.4,1.4,0,0,0-.28.65c-1,4.3-1.55,8.15-2.55,12.46-.72.71-2.93.42-4.38-.12-1.27-.47-1.77-1.52-2.59-2.57s-.69-.89-1.93-1.4c-2.29-1-6.67-.2-7.63,1.85s-.23,4.75.41,6.77a30.7,30.7,0,0,1-12.93-17.94"/>
      </g>
      <g id="Grupo_60091" data-name="Grupo 60091" opacity="0.3">
        <path id="Trazado_106156" data-name="Trazado 106156" d="M275.52,149.5c-.18.36,5.52,19.57,5.52,19.57l-7.38-4.21Z"/>
      </g>
      <path id="Trazado_106157" data-name="Trazado 106157" d="M229.65,93.79v30.58a7.43,7.43,0,0,0,1.77,4.78h0a22.3,22.3,0,0,0,6.15,5.08l6.2,3.49,5.11-4.57a7.42,7.42,0,0,0,2.47-5.24c.09-2.23.08-4.43.08-4.43s8.65-.62,9.47-9.14c.38-4,.5-12.25.52-19.83a16.58,16.58,0,0,0-15.3-16.67h-.24A15.84,15.84,0,0,0,229.65,93.3Z" fill="#ffbe9d"/>
      <path id="Trazado_106158" data-name="Trazado 106158" d="M251.36,123.41a20.73,20.73,0,0,1-10.84-4.21s2.24,6.47,10.82,6.41Z" fill="#eb996e"/>
      <path id="Trazado_106159" data-name="Trazado 106159" d="M258.82,99.93a1.21,1.21,0,0,1-1.27,1.13,1.16,1.16,0,0,1-1.16-1.18h0a1.22,1.22,0,0,1,1.27-1.14,1.16,1.16,0,0,1,1.16,1.16Z" fill="#344154"/>
      <path id="Trazado_106160" data-name="Trazado 106160" d="M259.17,97.89c-.16.14-1-.62-2.34-.73s-2.33.48-2.46.3.11-.34.56-.62a3.41,3.41,0,0,1,2-.43,3.19,3.19,0,0,1,1.85.77C259.14,97.53,259.24,97.82,259.17,97.89Z" fill="#344154"/>
      <path id="Trazado_106161" data-name="Trazado 106161" d="M246.45,99.31a1.22,1.22,0,0,1-1.27,1.13A1.16,1.16,0,0,1,244,99.26h0a1.23,1.23,0,0,1,1.27-1.14,1.17,1.17,0,0,1,1.17,1.17Z" fill="#344154"/>
      <path id="Trazado_106162" data-name="Trazado 106162" d="M246.26,97.07c-.17.14-1-.62-2.35-.72s-2.32.47-2.46.29.12-.35.56-.62a3.45,3.45,0,0,1,2-.46,3.32,3.32,0,0,1,1.85.77C246.22,96.7,246.34,97,246.26,97.07Z" fill="#344154"/>
      <path id="Trazado_106163" data-name="Trazado 106163" d="M250.21,107.19a8.26,8.26,0,0,1,2.16-.22c.34,0,.67,0,.74-.26a1.74,1.74,0,0,0-.15-1c-.24-.89-.5-1.72-.77-2.66a49.528,49.528,0,0,1-1.67-6.86,50.419,50.419,0,0,1,2.21,6.71c.26.88.51,1.77.74,2.66a1.9,1.9,0,0,1,.07,1.33.88.88,0,0,1-.59.44,2.809,2.809,0,0,1-.58,0,9.2,9.2,0,0,1-2.16-.14Z" fill="#344154"/>
      <path id="Trazado_106164" data-name="Trazado 106164" d="M246.27,107.77c.22,0,.1,1.44,1.24,2.54s2.65,1.09,2.65,1.28-.35.26-1,.22a3.57,3.57,0,0,1-2.22-1,3.06,3.06,0,0,1-.94-2.13C246,108.1,246.18,107.75,246.27,107.77Z" fill="#344154"/>
      <path id="Trazado_106165" data-name="Trazado 106165" d="M247,92c-.16.35-1.45.07-3,.13s-2.83.37-3,0c-.08-.16.16-.48.69-.78a5.21,5.21,0,0,1,4.59-.13C246.83,91.48,247.09,91.78,247,92Z" fill="#344154"/>
      <path id="Trazado_106166" data-name="Trazado 106166" d="M259,94.05c-.26.28-1.13-.1-2.22-.21s-2,0-2.2-.29.09-.45.51-.7a3.23,3.23,0,0,1,3.55.41C259,93.59,259.12,93.91,259,94.05Z" fill="#344154"/>
      <path id="Trazado_106167" data-name="Trazado 106167" d="M239.69,85.16h-.05a6.78,6.78,0,0,0-2.86,4.2v.17c-.54,2.4-.68,4.89-1.24,7.29s-.45,4.23-2.86,4.77a3.18,3.18,0,0,1-3.35-1.35,2.22,2.22,0,0,1-.22-1.14c0-5.92-1.15-8.21-.64-14.35a5.17,5.17,0,0,1,2.5-4c1.36-.82,3-1.65,4.43-.89s3,3.62,4,4.86" fill="#344154"/>
      <path id="Trazado_106168" data-name="Trazado 106168" d="M232.2,97.85c-.13-.07-5.71-2.21-6,3.64s5.65,4.94,5.67,4.77S232.2,97.85,232.2,97.85Z" fill="#ffbe9d"/>
      <path id="Trazado_106169" data-name="Trazado 106169" d="M230.17,104a1.44,1.44,0,0,1-.28.14,1,1,0,0,1-.76,0,2.51,2.51,0,0,1-1.06-2.33,3.3,3.3,0,0,1,.36-1.44,1.19,1.19,0,0,1,.81-.75.53.53,0,0,1,.59.31.378.378,0,0,1,0,.3c0,.01.13-.09.1-.33a.62.62,0,0,0-.22-.38.74.74,0,0,0-.55-.18,1.43,1.43,0,0,0-1.11.89,3.59,3.59,0,0,0-.44,1.61,2.66,2.66,0,0,0,1.36,2.6,1.11,1.11,0,0,0,.94-.1C230.15,104.09,230.19,104,230.17,104Z" fill="#eb996e"/>
      <path id="Trazado_106170" data-name="Trazado 106170" d="M235.06,80.71c-1.25-2.46,3-5.48,5.92-6.15s6.64,1,9.43,2.24c1.78.74,3.49,1.77,5.4,1.77a12.73,12.73,0,0,0,3.77-.63,9.64,9.64,0,0,1,3.81-.43,3.53,3.53,0,0,1,2.94,2.24,2.2,2.2,0,0,1-1.43,2.77,1.4,1.4,0,0,1-.34.08,2.88,2.88,0,1,1,.32,5.38c.88-.56,2.07.58,1.87,1.61a3,3,0,0,1-2.17,2c-2.52.89-5.31.3-7.78-.76s-4.68-2.57-7.09-3.69-6.47-3.1-9.05-2.41c-1.9.49-3.36,2.61-4.36,2A3.55,3.55,0,0,1,234.67,84a10.35,10.35,0,0,1,.39-3.32" fill="#344154"/>
      <path id="Trazado_106171" data-name="Trazado 106171" d="M265.29,82.51a12.1,12.1,0,0,1-1,1,8,8,0,0,1-3.42,1.83,7.46,7.46,0,0,1-5.55-.69c-1.9-1-3.45-3-5.27-4.81a12.08,12.08,0,0,0-6.3-3.69A6.76,6.76,0,0,0,238,77.64a5.09,5.09,0,0,0-1.63,3.66,3.64,3.64,0,0,0,.16,1.09,1,1,0,0,0,.16.35,8.52,8.52,0,0,1-.1-1.43,5,5,0,0,1,1.68-3.37,6.46,6.46,0,0,1,5.38-1.25,11.89,11.89,0,0,1,6,3.55C251.38,82,253,84,255,85.1a8,8,0,0,0,9.38-1.43,7.537,7.537,0,0,0,.69-.89C265.25,82.63,265.31,82.51,265.29,82.51Z" fill="#455a64"/>
      <path id="Trazado_106172" data-name="Trazado 106172" d="M230.74,97.48a1.58,1.58,0,0,0,.52-.58,3.92,3.92,0,0,0,.47-2.09c0-1.9-1.47-4-1.47-6.67a5.87,5.87,0,0,1,.94-3.43A4.43,4.43,0,0,1,233.54,83a3.87,3.87,0,0,1,2-.11,5.109,5.109,0,0,0,.73.21c0-.05-.19-.23-.66-.42a3.67,3.67,0,0,0-2.15-.08,4.8,4.8,0,0,0-2.66,1.77,6.25,6.25,0,0,0-1.08,3.75,10.86,10.86,0,0,0,.83,3.77,11.27,11.27,0,0,1,.81,2.9,4.53,4.53,0,0,1-.62,2.69Z" fill="#455a64"/>
    </g>
    <g id="freepik--Lines--inject-49">
      <path id="Trazado_106173" data-name="Trazado 106173" d="M254.81,266.49h-1.32l-3.87.05c-3.4.06-8.42.19-14.87.5s-14.34.89-23.45,1.95c-4.55.55-9.42,1.17-14.56,2s-10.53,1.84-16.16,3.13-11.52,2.81-17.48,4.77a115.316,115.316,0,0,0-18.1,7.49,58.36,58.36,0,0,0-8.68,5.55,27.7,27.7,0,0,0-7.09,7.78c-.23.39-.46.78-.66,1.17l-.5,1.25-.25.63c-.07.22-.11.44-.17.66l-.31,1.31a13.22,13.22,0,0,0,.26,5.42c.89,3.58,3.24,6.68,6,9.28,5.55,5.22,12.63,8.86,20,11.9a166.146,166.146,0,0,0,23.29,7.36,306.67,306.67,0,0,0,50.8,7.48,404.4,404.4,0,0,0,51.4.2,322.922,322.922,0,0,0,47.47-6.2,200.178,200.178,0,0,0,21.51-5.8A106.77,106.77,0,0,0,367.22,326a52.529,52.529,0,0,0,8.11-5.77,23.239,23.239,0,0,0,5.87-7.48l.44-1.08a5.93,5.93,0,0,0,.37-1.1l.27-1.11a5.066,5.066,0,0,1,.13-.56v-.58a11.049,11.049,0,0,0-.33-4.43,16.4,16.4,0,0,0-1.87-4,25.44,25.44,0,0,0-2.75-3.37,41.4,41.4,0,0,0-6.49-5.32,66.146,66.146,0,0,0-6.87-4.09,119.72,119.72,0,0,0-13.4-6,205.469,205.469,0,0,0-22.48-6.93C322,272.62,317,271.63,313.7,271c-1.67-.33-2.95-.54-3.81-.71l-1.3-.24s1.77.25,5.12.88,8.27,1.57,14.56,3.11a198.631,198.631,0,0,1,22.51,6.86,117.824,117.824,0,0,1,13.46,5.95,68.628,68.628,0,0,1,6.91,4.1,42.228,42.228,0,0,1,6.55,5.38,23.928,23.928,0,0,1,2.78,3.41,16,16,0,0,1,1.94,4.09,11.561,11.561,0,0,1,.36,4.61v.58a3,3,0,0,1-.13.58l-.28,1.14a5.778,5.778,0,0,1-.38,1.13l-.44,1.1a23.841,23.841,0,0,1-5.95,7.61,53.41,53.41,0,0,1-8.17,5.83,107.341,107.341,0,0,1-19.28,8.44,203,203,0,0,1-21.56,5.84,325.072,325.072,0,0,1-47.53,6.2,403.476,403.476,0,0,1-51.46-.2,306.709,306.709,0,0,1-50.89-7.5,164.717,164.717,0,0,1-23.34-7.39c-7.36-3.07-14.48-6.71-20.1-12-2.76-2.66-5.17-5.8-6.07-9.5a13.81,13.81,0,0,1-.27-5.58l.33-1.35c.06-.23.1-.46.17-.68l.26-.64.52-1.28c.2-.41.44-.81.67-1.21a28.13,28.13,0,0,1,7.22-7.88,59.8,59.8,0,0,1,8.75-5.59A117.045,117.045,0,0,1,163,278.62c6-1.95,11.87-3.47,17.51-4.75s11.06-2.28,16.2-3.09,10-1.46,14.57-2c9.13-1,17-1.56,23.47-1.87s11.48-.39,14.88-.42h5.19Z" fill="#d9a171"/>
      <path id="Trazado_106174" data-name="Trazado 106174" d="M182.39,199.34s-.51.12-1.49.31-2.46.48-4.38.89c-3.85.8-9.51,2-16.7,4a171.828,171.828,0,0,0-25.54,9c-2.4,1.1-4.86,2.32-7.32,3.71a71.451,71.451,0,0,0-7.34,4.71,40.759,40.759,0,0,0-6.78,6.21,21.35,21.35,0,0,0-4.6,8.43,15.43,15.43,0,0,0,.73,9.92,25.69,25.69,0,0,0,6.14,8.59c5.24,5,11.9,8.86,19,12.11,14.28,6.49,30.57,10.84,47.85,14.08a400.884,400.884,0,0,0,54.95,6.07,474.331,474.331,0,0,0,59.37-1.06,344.251,344.251,0,0,0,58.54-9.54,175.483,175.483,0,0,0,26.66-9.15,91.913,91.913,0,0,0,12-6.38,46,46,0,0,0,10.15-8.56c2.83-3.31,4.91-7.36,5-11.63a20.72,20.72,0,0,0-.22-3.15l-.41-1.5a10.857,10.857,0,0,0-.5-1.49,22.7,22.7,0,0,0-3-5.44,41.76,41.76,0,0,0-9-8.3,83.183,83.183,0,0,0-10.28-6,147.248,147.248,0,0,0-21.08-8.27c-6.95-2.17-13.72-3.89-20.22-5.31a388.867,388.867,0,0,0-62.58-8c-7.44-.38-13.24-.4-17.16-.49l-4.43-.1-1.52-.06h1.52l4.43.06c3.92.07,9.75.05,17.17.41A385,385,0,0,1,344,201.26c6.51,1.43,13.29,3.14,20.26,5.31a145.13,145.13,0,0,1,21.13,8.28,81.852,81.852,0,0,1,10.36,6,42.53,42.53,0,0,1,9.08,8.38,22.671,22.671,0,0,1,3.1,5.54,10.05,10.05,0,0,1,.51,1.52l.37,1.58a12.386,12.386,0,0,1,.17,1.61,11,11,0,0,1,.06,1.62,16.6,16.6,0,0,1-1.54,6.35,23.609,23.609,0,0,1-3.55,5.55,46.369,46.369,0,0,1-10.24,8.65,92.43,92.43,0,0,1-12.1,6.47,177.444,177.444,0,0,1-26.72,9.19,344.566,344.566,0,0,1-58.61,9.56,472.532,472.532,0,0,1-59.38,1,400.588,400.588,0,0,1-54.94-6.08c-17.33-3.27-33.68-7.64-48-14.18-7.09-3.31-13.79-7.14-19.08-12.22a25.941,25.941,0,0,1-6.2-8.71,15.82,15.82,0,0,1-.73-10.14,21.79,21.79,0,0,1,4.67-8.54,41.139,41.139,0,0,1,6.85-6.27,69.542,69.542,0,0,1,7.39-4.72c2.46-1.39,4.93-2.6,7.34-3.7a171.24,171.24,0,0,1,25.64-9c7.21-1.94,12.88-3.14,16.73-3.92S182.39,199.34,182.39,199.34Z" fill="#d9a171"/>
      <path id="Trazado_106175" data-name="Trazado 106175" d="M213.46,333.06l-4.43.7c-2.9.46-7.16,1.2-12.61,2.39a160.828,160.828,0,0,0-19.5,5.5,92.6,92.6,0,0,0-11.61,5.05,49.715,49.715,0,0,0-5.88,3.6,30.279,30.279,0,0,0-5.42,4.82,17.661,17.661,0,0,0-2.14,3.08,12.27,12.27,0,0,0-1.32,3.55,9.571,9.571,0,0,0-.15,1l-.07,1c0,.65.09,1.3.15,2a16,16,0,0,0,.51,1.92l.37.93.19.47.25.44a21.88,21.88,0,0,0,5.31,6.26,43.582,43.582,0,0,0,7.15,4.8,95,95,0,0,0,16.7,7,172.623,172.623,0,0,0,18.61,4.76,276.913,276.913,0,0,0,41,4.9,332.638,332.638,0,0,0,44.31-.77,236.8,236.8,0,0,0,43.66-7.52,110.571,110.571,0,0,0,19.67-7.5,49.41,49.41,0,0,0,8.56-5.52c.67-.51,1.25-1.13,1.87-1.69s1.12-1.22,1.69-1.82a16.229,16.229,0,0,0,2.52-4.21,11.35,11.35,0,0,0-.39-9.35,22.48,22.48,0,0,0-6.1-7.09A62.159,62.159,0,0,0,340.51,343a133.752,133.752,0,0,0-16.12-5.16c-5.26-1.36-10.37-2.43-15.28-3.29a303,303,0,0,0-47-4.3l-17.31-.09s6.16-.08,17.31,0a300.483,300.483,0,0,1,47,4.21c4.92.89,10,1.92,15.31,3.28a133.381,133.381,0,0,1,16.2,5.2,62.63,62.63,0,0,1,15.91,8.69,22.9,22.9,0,0,1,6.2,7.19,11.54,11.54,0,0,1,.4,9.55,16.731,16.731,0,0,1-2.55,4.28c-.58.61-1.1,1.27-1.72,1.85a23.135,23.135,0,0,1-1.88,1.69,49.7,49.7,0,0,1-8.61,5.57,110.264,110.264,0,0,1-19.71,7.52A236.55,236.55,0,0,1,285,396.68a331.855,331.855,0,0,1-44.37.77,277.529,277.529,0,0,1-41-4.91A173.372,173.372,0,0,1,181,387.75a94.42,94.42,0,0,1-16.75-7,44.363,44.363,0,0,1-7.17-4.83,22,22,0,0,1-5.37-6.34l-.25-.44-.19-.48-.38-.94a20.16,20.16,0,0,1-.52-2,7.839,7.839,0,0,1-.14-2l.06-1a6.671,6.671,0,0,1,.16-1,12.861,12.861,0,0,1,1.34-3.64,18.05,18.05,0,0,1,2.17-3.11,30.629,30.629,0,0,1,5.45-4.85,51,51,0,0,1,5.92-3.6,88.9,88.9,0,0,1,11.54-5.06,158.043,158.043,0,0,1,19.56-5.47c5.45-1.17,9.75-1.89,12.62-2.33S213.46,333.06,213.46,333.06Z" fill="#d9a171"/>
      <path id="Trazado_106176" data-name="Trazado 106176" d="M329.18,414.12a9.22,9.22,0,0,0-.74-3.23c-.82-2-3-4.56-6.49-6.84-7-4.58-18.61-8.43-33.25-10.79a201.689,201.689,0,0,0-24.14-2.36,231.384,231.384,0,0,0-27.87.51c-4.91.38-9.91.95-15,1.77a142.239,142.239,0,0,0-15.39,3.26c-2.57.69-5.15,1.49-7.7,2.42a62.661,62.661,0,0,0-7.52,3.28,30.291,30.291,0,0,0-6.81,4.73,10.47,10.47,0,0,0-3.7,7.26c0,2.84,1.67,5.39,3.69,7.28a30.24,30.24,0,0,0,6.73,4.7,59.122,59.122,0,0,0,7.53,3.28,77.989,77.989,0,0,0,7.7,2.44,141.183,141.183,0,0,0,15.39,3.25c5.08.81,10.08,1.38,15,1.78a231.544,231.544,0,0,0,27.88.51A202.684,202.684,0,0,0,288.7,435c14.65-2.36,26.29-6.21,33.26-10.79,3.46-2.29,5.66-4.81,6.48-6.84a9.221,9.221,0,0,0,.74-3.23,6.217,6.217,0,0,1-.06.85,4.471,4.471,0,0,1-.19,1,6.688,6.688,0,0,1-.46,1.37c-.82,2.05-3,4.59-6.48,6.89-7,4.61-18.61,8.48-33.28,10.86a202.177,202.177,0,0,1-24.19,2.39,234,234,0,0,1-27.9-.49c-4.9-.39-9.9-.95-15-1.78a139.169,139.169,0,0,1-15.4-3.23c-2.59-.69-5.17-1.5-7.72-2.44a64,64,0,0,1-7.55-3.28,30.939,30.939,0,0,1-6.86-4.76,13.58,13.58,0,0,1-2.61-3.32,8,8,0,0,1,0-8.17,13.93,13.93,0,0,1,2.66-3.31A30.57,30.57,0,0,1,191,402a63,63,0,0,1,7.54-3.29c2.56-.94,5.14-1.77,7.73-2.44a141.812,141.812,0,0,1,15.4-3.24c5.09-.81,10.1-1.38,15-1.77a229.831,229.831,0,0,1,27.9-.5,202.357,202.357,0,0,1,24.19,2.38c14.66,2.38,26.31,6.25,33.28,10.86,3.46,2.3,5.66,4.85,6.47,6.89a6.141,6.141,0,0,1,.46,1.37,4,4,0,0,1,.19,1,7.851,7.851,0,0,0,.02.86Z" fill="#d9a171"/>
      <path id="Trazado_106177" data-name="Trazado 106177" d="M133.4,276.67a2.83,2.83,0,1,1-2.83-2.83A2.83,2.83,0,0,1,133.4,276.67Z" fill="#d9a171"/>
      <circle id="Elipse_4079" data-name="Elipse 4079" cx="2.83" cy="2.83" r="2.83" transform="translate(383.6 275.76)" fill="#d9a171"/>
      <path id="Trazado_106178" data-name="Trazado 106178" d="M273.86,382.84A2.84,2.84,0,1,1,271,380h0a2.83,2.83,0,0,1,2.83,2.83Z" fill="#d9a171"/>
      <path id="Trazado_106179" data-name="Trazado 106179" d="M187.94,310.14a1.41,1.41,0,1,1-.409-1A1.42,1.42,0,0,1,187.94,310.14Z" fill="#d9a171"/>
      <path id="Trazado_106180" data-name="Trazado 106180" d="M363.86,344.41a1.42,1.42,0,1,1-1.41-1.41h0A1.41,1.41,0,0,1,363.86,344.41Z" fill="#d9a171"/>
      <path id="Trazado_106181" data-name="Trazado 106181" d="M252.15,409.84a1.42,1.42,0,1,1-1.42-1.41h0a1.41,1.41,0,0,1,1.42,1.41Z" fill="#d9a171"/>
      <circle id="Elipse_4080" data-name="Elipse 4080" cx="0.71" cy="0.71" r="0.71" transform="translate(177.64 161.47)" fill="#d9a171"/>
    </g>
    <g id="freepik--front-screens--inject-49">
      <path id="Trazado_106182" data-name="Trazado 106182" d="M305.9,271c-34.36,9.09-67.48,8.4-103.57,0l-4.24-66c37.3,7.26,74.74,6.34,107.79-1.56Z" fill="#d9a171"/>
      <g id="Grupo_60092" data-name="Grupo 60092" opacity="0.8">
        <path id="Trazado_106183" data-name="Trazado 106183" d="M305.9,271c-34.36,9.09-67.48,8.4-103.57,0l-4.24-66c37.3,7.26,74.74,6.34,107.79-1.56Z" fill="#fff"/>
      </g>
      <path id="Trazado_106184" data-name="Trazado 106184" d="M300.57,261a.909.909,0,0,1-.22.11l-.65.27c-.57.23-1.41.6-2.51,1a96.082,96.082,0,0,1-9.51,3,124,124,0,0,1-32.6,3.72,190.462,190.462,0,0,1-32.66-3.49c-4.14-.79-7.46-1.52-9.75-2.05-1.14-.25-2-.48-2.66-.63l-.68-.17c-.15,0-.23-.07-.22-.08h.24l.69.13,2.66.54c2.29.48,5.63,1.16,9.74,1.9a201.694,201.694,0,0,0,32.62,3.36A128.931,128.931,0,0,0,287.57,265c4.07-1,7.31-2.06,9.53-2.84,1.11-.37,2-.71,2.54-.89l.67-.23a.61.61,0,0,1,.26-.04Z" fill="#d9a171"/>
      <path id="Trazado_106185" data-name="Trazado 106185" d="M250.08,263.65a22.411,22.411,0,0,1-13.22-.44V239.73a33.06,33.06,0,0,1,13.22,0Z" fill="#d9a171"/>
      <path id="Trazado_106186" data-name="Trazado 106186" d="M271.44,262.26v-.69c0-.48,0-1.13-.06-2,0-1.72-.08-4.2-.14-7.29-.09-6.2-.22-14.95-.37-25.06l.17.21a35.83,35.83,0,0,0-13.69,0l.19-.22v.46c.14,13.88.27,26.42.36,35.37l-.13-.16a32,32,0,0,0,5.77.71,21.9,21.9,0,0,0,4.35-.36,22.147,22.147,0,0,0,2.66-.7l.66-.23a1,1,0,0,1,.25-.08l-.21.1-.68.29a17.529,17.529,0,0,1-2.65.79,21,21,0,0,1-4.39.44,30.88,30.88,0,0,1-5.83-.64h-.13v-.18c-.13-9-.31-21.48-.5-35.36V227h.19a35.52,35.52,0,0,1,13.86,0h.18v.18c.08,10.16.14,18.92.2,25.18v9.67C271.5,262.24,271.45,262.26,271.44,262.26Z" fill="#d9a171"/>
      <path id="Trazado_106187" data-name="Trazado 106187" d="M291.77,259.51c-3.54,1.91-8.2,2.17-13.23,1.88v-38.8a28.18,28.18,0,0,1,13.23,0Z" fill="#d9a171"/>
      <path id="Trazado_106188" data-name="Trazado 106188" d="M229.11,261.74s0-.36-.05-1,0-1.59-.05-2.71c0-2.36-.06-5.63-.1-9.52l.13.19a29.54,29.54,0,0,0-12.74-2.12h0l.22-.23v13.23l-.12-.18a24.522,24.522,0,0,0,5.1,1.45c1.57.29,2.95.45,4.09.56l2.66.22a6.023,6.023,0,0,1,.94.11,7.375,7.375,0,0,1-.94,0,26.149,26.149,0,0,1-2.66-.11c-1.14-.12-2.53-.22-4.11-.47a23.891,23.891,0,0,1-5.21-1.41l-.12-.06V246.12h.23a29.3,29.3,0,0,1,12.92,2.2l.14.05v.14c0,3.94-.08,7.26-.11,9.65,0,1.11,0,2-.05,2.66a5.726,5.726,0,0,1-.17.92Z" fill="#d9a171"/>
      <path id="Trazado_106189" data-name="Trazado 106189" d="M235.31,227.42a13.172,13.172,0,0,1-2.59.16c-1.6,0-3.82,0-6.25-.15s-4.64-.38-6.21-.59a13,13,0,0,1-2.55-.46,17.1,17.1,0,0,1,2.58.14c1.6.13,3.79.3,6.2.45s4.64.23,6.21.28A17.517,17.517,0,0,1,235.31,227.42Z" fill="#d9a171"/>
      <path id="Trazado_106190" data-name="Trazado 106190" d="M233.34,230.31a12.287,12.287,0,0,1-2.27,0c-1.4-.07-3.34-.2-5.47-.36s-4.07-.33-5.46-.48a11.231,11.231,0,0,1-2.24-.34,10.769,10.769,0,0,1,2.27,0c1.41.07,3.33.19,5.46.35s4.06.34,5.45.49a11.539,11.539,0,0,1,2.26.34Z" fill="#d9a171"/>
      <path id="Trazado_106191" data-name="Trazado 106191" d="M238.17,234.09v-.82c0-.53.05-1.33.09-2.29.09-2,.22-4.82.39-8.29l.17.19a188.929,188.929,0,0,1-24.48-1.36l.25-.22h0v1.44c0,.5-.06,1-.09,1.48-.05,1-.11,1.95-.17,2.9-.11,1.91-.22,3.75-.33,5.51l-.18-.23c7.09.89,13.19,1.24,17.53,1.41l5.07.15h1.82a3.232,3.232,0,0,1-.44,0h-6.5c-4.35-.09-10.48-.41-17.58-1.25h-.2v-.21c.1-1.77.2-3.61.31-5.51,0-1,.11-1.92.17-2.9l.08-1.48v-1.47h0l.26-.21a207.005,207.005,0,0,0,24.52,1.49H239v.18c-.24,3.49-.43,6.35-.57,8.37-.07.94-.14,1.69-.18,2.24a3.871,3.871,0,0,1-.08.88Z" fill="#d9a171"/>
      <path id="Trazado_106192" data-name="Trazado 106192" d="M241.2,239.06a10.159,10.159,0,0,1-1.71-2.36,8.56,8.56,0,0,1-1.32-2.61,10.221,10.221,0,0,1,1.71,2.37,8.4,8.4,0,0,1,1.32,2.6Z" fill="#d9a171"/>
      <path id="Trazado_106193" data-name="Trazado 106193" d="M97.63,153.16l11.23,68s17.15,32.1,62.7,39.33l-7.35-60.66S122.08,186.75,97.63,153.16Z" fill="#d9a171"/>
      <g id="Grupo_60093" data-name="Grupo 60093" opacity="0.8">
        <path id="Trazado_106194" data-name="Trazado 106194" d="M97.63,153.16l11.23,68s17.15,32.1,62.7,39.33l-7.35-60.66S122.08,186.75,97.63,153.16Z" fill="#fff"/>
      </g>
      <path id="Trazado_106195" data-name="Trazado 106195" d="M165.68,255.59l-.28-.07-.89-.24-3.21-1c-1.39-.45-3.11-.89-5-1.69l-3.09-1.18c-1.11-.41-2.27-.88-3.45-1.41-2.36-1.08-5-2.2-7.67-3.71s-5.53-3.13-8.44-5a84.33,84.33,0,0,1-16.93-14.67,50.191,50.191,0,0,1-6.1-8.51h0l-5.14-33.23c-.62-4.15-1.13-7.48-1.47-9.81l-.38-2.65-.08-.69a1,1,0,0,1,0-.24v.23l.13.69.45,2.66c.39,2.32.89,5.64,1.61,9.74,1.33,8.35,3.19,20,5.32,33.21V218a50.94,50.94,0,0,0,6,8.42A85,85,0,0,0,134,241c2.89,1.86,5.64,3.61,8.37,5s5.27,2.66,7.63,3.74c1.17.57,2.33,1,3.42,1.44l3.07,1.21c1.9.8,3.62,1.28,5,1.77l3.18,1.06.82.29A1,1,0,0,1,165.68,255.59Z" fill="#d9a171"/>
      <path id="Trazado_106196" data-name="Trazado 106196" d="M161.68,235.86s0,.06-.15.15l-.49.39-1.89,1.47L152,243.35l-.11.09-.09-.12c-2.41-3.33-5.38-7.44-8.74-12.11h.26l-6.7,4.79-.22.16-.1-.27c-2.65-7.09-5.55-15.06-8.64-23.45l-1.25-3.38h.42L121.37,220l-.24.47-.17-.5L109.55,187h.24c-.72,3-1.29,5.41-1.68,7.09-.19.79-.35,1.41-.46,1.86l-.12.48a.47.47,0,0,1-.06.15v-.16a2.79,2.79,0,0,1,.09-.48l.39-1.88c.37-1.68.89-4.07,1.56-7.09l.1-.43.15.42c2.66,7.54,6.76,19.16,11.59,32.83H121L126.4,209l.24-.48.18.49,1.24,3.38,8.61,23.48-.32-.1,6.73-4.75.15-.11.12.15,8.65,12.1h-.21l7.24-5.38,1.94-1.42.5-.35Z" fill="#d9a171"/>
      <path id="Trazado_106197" data-name="Trazado 106197" d="M160.11,203.28a4.46,4.46,0,0,1-1-.22c-.6-.16-1.48-.43-2.54-.78a85.071,85.071,0,0,1-8.15-3.21q-4-1.81-7.82-4a19.931,19.931,0,0,1-2.27-1.39,4.069,4.069,0,0,1-.79-.57,3.81,3.81,0,0,1,.89.42l2.34,1.26c2,1,4.73,2.47,7.85,3.88s6,2.54,8.1,3.32c1,.36,1.77.67,2.49.89a3.61,3.61,0,0,1,.9.4Z" fill="#d9a171"/>
      <path id="Trazado_106198" data-name="Trazado 106198" d="M161.92,206.1a9.58,9.58,0,0,1-2.2-.39,52,52,0,0,1-5.17-1.55,50.149,50.149,0,0,1-5-2.08,9,9,0,0,1-1.94-1.09,11.91,11.91,0,0,1,2.08.8c1.27.52,3,1.23,5,1.94s3.78,1.27,5.1,1.67A11.35,11.35,0,0,1,161.92,206.1Z" fill="#d9a171"/>
      <path id="Trazado_106199" data-name="Trazado 106199" d="M144,231.23a.92.92,0,0,1-.77,1c-.43,0-.76-.45-.76-1a.793.793,0,1,1,1.53,0Z" fill="#d9a171"/>
      <ellipse id="Elipse_4081" data-name="Elipse 4081" cx="0.76" cy="1.02" rx="0.76" ry="1.02" transform="translate(125.78 208.73)" fill="#d9a171"/>
      <path id="Trazado_106200" data-name="Trazado 106200" d="M110.47,187.33c0,.56-.34,1-.76,1s-.76-.46-.76-1,.33-1,.76-1S110.47,186.78,110.47,187.33Z" fill="#d9a171"/>
      <path id="Trazado_106201" data-name="Trazado 106201" d="M394.83,165.25l-5.63,69s-16.46,29.52-61.72,30.64l5.59-69.5S372.57,193.82,394.83,165.25Z" fill="#d9a171"/>
      <path id="Trazado_106202" data-name="Trazado 106202" d="M393.94,161.65c-1.47-4.77-5.05-11.59-13.56-13l-10,92.86s18.89-3.77,19.39-14.12c.05-.88,3.82-47,4.77-58.49a18.65,18.65,0,0,0-.6-7.25Z" fill="#d9a171"/>
      <g id="Grupo_60094" data-name="Grupo 60094" opacity="0.8">
        <path id="Trazado_106203" data-name="Trazado 106203" d="M394.83,165.25l-5.63,69s-16.46,29.52-61.72,30.64l5.59-69.5S372.57,193.82,394.83,165.25Z" fill="#fff"/>
      </g>
      <path id="Trazado_106204" data-name="Trazado 106204" d="M393.46,182.85a40.83,40.83,0,0,0-7.21,22.32c0,2.3.09,4.67-.79,6.78s-3.14,3.89-5.32,3.29-3.34-3.37-5.36-4.64a6,6,0,0,0-6.07.13,10.25,10.25,0,0,0-4,4.85c-1.64,3.78-1.77,8-3,12s-4.18,7.92-8.31,8.1c-1.5.06-3-.39-4.5-.35-3.18.1-5.95,2.47-7.43,5.32s-1.93,6-2.35,9.21c0,0,24.12,2.3,51.19-29.67Z" fill="#d9a171"/>
      <path id="Trazado_106205" data-name="Trazado 106205" d="M355.11,224.72c0,.89-.43,1.55-.95,1.55s-.94-.69-.94-1.55.42-1.55.94-1.55S355.11,223.87,355.11,224.72Z" fill="#d9a171"/>
      <path id="Trazado_106206" data-name="Trazado 106206" d="M366.47,196c0,.88-.43,1.55-1,1.55s-.94-.7-.94-1.55.42-1.55.94-1.55S366.47,195.17,366.47,196Z" fill="#d9a171"/>
      <path id="Trazado_106207" data-name="Trazado 106207" d="M392.91,186.18a1.319,1.319,0,0,1-.15.39l-.51,1.13c-.48,1-1.14,2.42-2,4.21l-7.19,15-.1.21-.19-.13L365.71,196.2l.33-.11c-.22.55-.47,1.15-.71,1.78l-11,26.94-.08.19-.17-.1c-4.25-2.39-7.73-4.31-10.14-5.62-1.21-.66-2.15-1.16-2.8-1.49l-.73-.36-.26-.11a20.569,20.569,0,0,1,3.88,1.77c2.45,1.26,5.94,3.14,10.22,5.49l-.25.09,10.92-27c.24-.59.49-1.18.71-1.77l.1-.26.24.15,17,10.85-.29.08,7.34-14.91,2.12-4.13.57-1.09C392.79,186.42,392.85,186.3,392.91,186.18Z" fill="#d9a171"/>
    </g>
  </g>
</svg>
