<svg xmlns="http://www.w3.org/2000/svg" width="150" height="150" viewBox="0 0 150 150">
  <g id="Grupo_60215" data-name="Grupo 60215" transform="translate(0 -0.061)">
    <rect id="Rectángulo_6875" data-name="Rectángulo 6875" width="150" height="150" transform="translate(0 0.061)" fill="#5e6178" opacity="0"/>
    <g id="surface1" transform="translate(7.864 7.863)">
      <path id="Trazado_108090" data-name="Trazado 108090" d="M549.29,6418.562a67.163,67.163,0,1,1-67.163-67.163A67.163,67.163,0,0,1,549.29,6418.562Z" transform="translate(-414.964 -6351.398)" fill="#aed3f2"/>
      <g id="Grupo_60200" data-name="Grupo 60200" transform="translate(19.396 3.116)">
        <path id="Trazado_108091" data-name="Trazado 108091" d="M440.99,6355.579h95.533v128.095H440.99Z" transform="translate(-440.99 -6355.579)" fill="#fff"/>
      </g>
      <g id="Grupo_60201" data-name="Grupo 60201" transform="translate(67.662 3.116)">
        <path id="Trazado_108092" data-name="Trazado 108092" d="M504.412,6355.579h47.266v128.095H504.412Z" transform="translate(-504.412 -6355.579)" fill="#e9edf5"/>
      </g>
      <g id="Grupo_60204" data-name="Grupo 60204" transform="translate(34.862 88.327)">
        <g id="Grupo_60202" data-name="Grupo 60202">
          <path id="Trazado_108093" data-name="Trazado 108093" d="M461.071,6468.836h24.52v24.52h-24.52Z" transform="translate(-461.071 -6468.836)" fill="#e9edf5"/>
        </g>
        <g id="Grupo_60203" data-name="Grupo 60203" transform="translate(40.081)">
          <path id="Trazado_108094" data-name="Trazado 108094" d="M514.852,6468.836h24.52v24.52h-24.52Z" transform="translate(-514.852 -6468.836)" fill="#cdd2e1"/>
        </g>
      </g>
      <g id="Grupo_60205" data-name="Grupo 60205" transform="translate(69.759 79.205)">
        <path id="Trazado_108095" data-name="Trazado 108095" d="M522.411,6491.955l-14.869-14.869,7.531-7.531,7.338,7.337,20.558-20.559,7.531,7.531Z" transform="translate(-507.542 -6456.334)" fill="#00c8c8"/>
      </g>
      <g id="Grupo_60206" data-name="Grupo 60206" transform="translate(34.863 20.835)">
        <path id="Trazado_108096" data-name="Trazado 108096" d="M461.072,6379.128h64.6v10.65h-64.6Z" transform="translate(-461.072 -6379.128)" fill="#bec3d2"/>
      </g>
      <g id="Grupo_60207" data-name="Grupo 60207" transform="translate(67.322 20.835)">
        <path id="Trazado_108097" data-name="Trazado 108097" d="M504.412,6379.128h32.3v10.65h-32.3Z" transform="translate(-504.412 -6379.128)" fill="#afb4c8"/>
      </g>
      <g id="Grupo_60208" data-name="Grupo 60208" transform="translate(34.863 41.336)">
        <path id="Trazado_108098" data-name="Trazado 108098" d="M461.072,6406.414h64.6v10.65h-64.6Z" transform="translate(-461.072 -6406.414)" fill="#bec3d2"/>
      </g>
      <g id="Grupo_60209" data-name="Grupo 60209" transform="translate(67.322 41.336)">
        <path id="Trazado_108099" data-name="Trazado 108099" d="M504.412,6406.414h32.3v10.65h-32.3Z" transform="translate(-504.412 -6406.414)" fill="#afb4c8"/>
      </g>
      <g id="Grupo_60210" data-name="Grupo 60210" transform="translate(34.863 61.838)">
        <path id="Trazado_108100" data-name="Trazado 108100" d="M461.072,6433.7h64.6v10.651h-64.6Z" transform="translate(-461.072 -6433.701)" fill="#bec3d2"/>
      </g>
      <g id="Grupo_60211" data-name="Grupo 60211" transform="translate(67.322 61.838)">
        <path id="Trazado_108101" data-name="Trazado 108101" d="M504.412,6433.7h32.3v10.651h-32.3Z" transform="translate(-504.412 -6433.701)" fill="#afb4c8"/>
      </g>
    </g>
  </g>
</svg>
