<svg xmlns="http://www.w3.org/2000/svg" width="116" height="116" viewBox="0 0 116 116">
  <g id="Grupo_62244" data-name="Grupo 62244" transform="translate(-266.727 -7223.556)">
    <g id="Grupo_62240" data-name="Grupo 62240" transform="translate(266.727 7223.487)">
      <rect id="Rectángulo_7025" data-name="Rectángulo 7025" width="116" height="116" transform="translate(0 0.069)" fill="#5e6178" opacity="0"/>
      <g id="surface1" transform="translate(6.123 6.124)">
        <path id="Trazado_109133" data-name="Trazado 109133" d="M378.463,7283.312a51.911,51.911,0,1,1-51.911-51.911A51.911,51.911,0,0,1,378.463,7283.312Z" transform="translate(-274.64 -7231.401)" fill="#aed3f2"/>
      </g>
    </g>
    <g id="Page-1" transform="translate(278.735 7233.336)">
      <g id="_040---Accounting" data-name="040---Accounting">
        <path id="Path" d="M294.942,7242.834v18.776H285.42a3.184,3.184,0,0,1-3.174-3.175v-15.87a6.357,6.357,0,0,1,6.348-6.35c.207,0,.412.017.619.032A6.532,6.532,0,0,1,294.942,7242.834Z" transform="translate(-282.246 -7236.216)" fill="#d9a171" fill-rule="evenodd"/>
        <path id="Path-2" data-name="Path" d="M352.347,7242.565v31.741l-17.458,47.613H299.972a3.184,3.184,0,0,1-3.174-3.174v-75.912a6.532,6.532,0,0,0-5.729-6.586c-.207-.016-.412-.032-.619-.032H346a6.349,6.349,0,0,1,6.348,6.35Z" transform="translate(-284.102 -7236.216)" fill="#f2e9e4" fill-rule="evenodd"/>
        <rect id="Rectangle" width="41.265" height="53.961" rx="6.153" transform="translate(50.787 38.091)" fill="#344154"/>
        <rect id="Rectangle-2" data-name="Rectangle" width="28.568" height="12.697" rx="4.102" transform="translate(57.136 44.439)" fill="#65ddb9"/>
        <g id="Grupo_62241" data-name="Grupo 62241" transform="translate(57.136 63.485)">
          <path id="Path-3" data-name="Path" d="M360.845,7321.433h-3.174a1.587,1.587,0,0,1,0-3.174h3.174a1.587,1.587,0,0,1,0,3.174Z" transform="translate(-356.084 -7318.259)" fill="#7f8c8d" fill-rule="evenodd"/>
          <path id="Path-4" data-name="Path" d="M375.2,7321.433h-3.175a1.587,1.587,0,0,1,0-3.174H375.2a1.587,1.587,0,0,1,0,3.174Z" transform="translate(-359.332 -7318.259)" fill="#7f8c8d" fill-rule="evenodd"/>
          <path id="Path-5" data-name="Path" d="M389.56,7321.433h-3.174a1.587,1.587,0,0,1,0-3.174h3.174a1.587,1.587,0,0,1,0,3.174Z" transform="translate(-362.579 -7318.259)" fill="#7f8c8d" fill-rule="evenodd"/>
          <path id="Path-6" data-name="Path" d="M360.845,7329.637h-3.174a1.587,1.587,0,0,1,0-3.174h3.174a1.587,1.587,0,0,1,0,3.174Z" transform="translate(-356.084 -7320.115)" fill="#7f8c8d" fill-rule="evenodd"/>
          <path id="Path-7" data-name="Path" d="M375.2,7329.637h-3.175a1.587,1.587,0,0,1,0-3.174H375.2a1.587,1.587,0,0,1,0,3.174Z" transform="translate(-359.332 -7320.115)" fill="#7f8c8d" fill-rule="evenodd"/>
          <path id="Path-8" data-name="Path" d="M389.56,7329.637h-3.174a1.587,1.587,0,0,1,0-3.174h3.174a1.587,1.587,0,0,1,0,3.174Z" transform="translate(-362.579 -7320.115)" fill="#7f8c8d" fill-rule="evenodd"/>
          <path id="Path-9" data-name="Path" d="M360.845,7337.841h-3.174a1.587,1.587,0,1,1,0-3.174h3.174a1.587,1.587,0,1,1,0,3.174Z" transform="translate(-356.084 -7321.97)" fill="#7f8c8d" fill-rule="evenodd"/>
          <path id="Path-10" data-name="Path" d="M375.2,7337.841h-3.175a1.587,1.587,0,1,1,0-3.174H375.2a1.587,1.587,0,1,1,0,3.174Z" transform="translate(-359.332 -7321.97)" fill="#7f8c8d" fill-rule="evenodd"/>
          <path id="Path-11" data-name="Path" d="M389.56,7337.841h-3.174a1.587,1.587,0,1,1,0-3.174h3.174a1.587,1.587,0,1,1,0,3.174Z" transform="translate(-362.579 -7321.97)" fill="#7f8c8d" fill-rule="evenodd"/>
          <path id="Path-12" data-name="Path" d="M360.845,7346.046h-3.174a1.587,1.587,0,1,1,0-3.174h3.174a1.587,1.587,0,1,1,0,3.174Z" transform="translate(-356.084 -7323.827)" fill="#7f8c8d" fill-rule="evenodd"/>
          <path id="Path-13" data-name="Path" d="M375.2,7346.046h-3.175a1.587,1.587,0,1,1,0-3.174H375.2a1.587,1.587,0,1,1,0,3.174Z" transform="translate(-359.332 -7323.827)" fill="#7f8c8d" fill-rule="evenodd"/>
          <path id="Path-14" data-name="Path" d="M389.56,7346.046h-3.174a1.587,1.587,0,1,1,0-3.174h3.174a1.587,1.587,0,1,1,0,3.174Z" transform="translate(-362.579 -7323.827)" fill="#7f8c8d" fill-rule="evenodd"/>
        </g>
        <path id="Shape" d="M310.031,7266.177a1.587,1.587,0,1,0-3.174,0,7.95,7.95,0,0,0,6.348,7.776v1.746a1.587,1.587,0,0,0,3.174,0v-1.746a7.936,7.936,0,0,0,0-15.554v-9.39a4.761,4.761,0,0,1,3.174,4.47,1.587,1.587,0,0,0,3.174,0,7.949,7.949,0,0,0-6.348-7.776v-1.746a1.587,1.587,0,0,0-3.174,0v1.746a7.935,7.935,0,0,0,0,15.553v9.392A4.761,4.761,0,0,1,310.031,7266.177Zm9.522,0a4.761,4.761,0,0,1-3.174,4.469v-8.938A4.761,4.761,0,0,1,319.553,7266.177Zm-9.522-12.7a4.76,4.76,0,0,1,3.174-4.47v8.939A4.76,4.76,0,0,1,310.031,7253.479Z" transform="translate(-287.811 -7237.608)" fill="#d9a171"/>
        <path id="Path-15" data-name="Path" d="M335.109,7253.748h19.045a1.587,1.587,0,1,0,0-3.174H335.109a1.587,1.587,0,1,0,0,3.174Z" transform="translate(-293.845 -7239.464)" fill="#35495e" fill-rule="evenodd"/>
        <path id="Path-16" data-name="Path" d="M354.155,7262.88H335.109a1.587,1.587,0,0,0,0,3.174h19.045a1.587,1.587,0,0,0,0-3.174Z" transform="translate(-293.845 -7242.248)" fill="#35495e" fill-rule="evenodd"/>
        <path id="Path-17" data-name="Path" d="M354.155,7275.188H335.109a1.587,1.587,0,1,0,0,3.174h19.045a1.587,1.587,0,1,0,0-3.174Z" transform="translate(-293.845 -7245.032)" fill="#35495e" fill-rule="evenodd"/>
        <path id="Path-18" data-name="Path" d="M332.252,7293.646H308.446a1.587,1.587,0,0,0,0,3.174h23.806a1.587,1.587,0,1,0,0-3.174Z" transform="translate(-287.814 -7249.207)" fill="#35495e" fill-rule="evenodd"/>
        <path id="Path-19" data-name="Path" d="M332.252,7305.953H308.446a1.587,1.587,0,0,0,0,3.175h23.806a1.587,1.587,0,1,0,0-3.175Z" transform="translate(-287.814 -7251.991)" fill="#35495e" fill-rule="evenodd"/>
        <path id="Path-20" data-name="Path" d="M332.252,7318.259H308.446a1.587,1.587,0,0,0,0,3.174h23.806a1.587,1.587,0,1,0,0-3.174Z" transform="translate(-287.814 -7254.774)" fill="#35495e" fill-rule="evenodd"/>
        <path id="Path-21" data-name="Path" d="M332.252,7330.565H308.446a1.587,1.587,0,0,0,0,3.174h23.806a1.587,1.587,0,1,0,0-3.174Z" transform="translate(-287.814 -7257.558)" fill="#35495e" fill-rule="evenodd"/>
      </g>
    </g>
  </g>
</svg>
