<svg xmlns="http://www.w3.org/2000/svg" width="281" height="281" viewBox="0 0 281 281">
  <g id="Grupo_61933" data-name="Grupo 61933" transform="translate(-6772.443 -1041.148)">
    <rect id="Rectángulo_6938" data-name="Rectángulo 6938" width="281" height="281" transform="translate(6772.443 1041.148)" fill="#fff" opacity="0"/>
    <g id="Grupo_61932" data-name="Grupo 61932" transform="translate(6789.997 1060.048)">
      <g id="freepik--background-complete--inject-11" transform="translate(10.036)">
        <rect id="Rectángulo_6939" data-name="Rectángulo 6939" width="99.307" height="117.568" transform="translate(0 0.006)" fill="#aed3f2"/>
        <rect id="Rectángulo_6940" data-name="Rectángulo 6940" width="41.935" height="52.293" transform="translate(5.413 4.715)" fill="#ffbf9d"/>
        <rect id="Rectángulo_6941" data-name="Rectángulo 6941" width="41.935" height="52.293" transform="translate(51.959 4.715)" fill="#ffbf9d"/>
        <rect id="Rectángulo_6942" data-name="Rectángulo 6942" width="41.935" height="52.293" transform="translate(5.413 60.571)" fill="#ffbf9d"/>
        <rect id="Rectángulo_6943" data-name="Rectángulo 6943" width="41.935" height="52.293" transform="translate(51.959 60.571)" fill="#ffbf9d"/>
        <rect id="Rectángulo_6944" data-name="Rectángulo 6944" width="23.524" height="168.201" transform="translate(0 0.006)" fill="#f2e9e4"/>
        <path id="Trazado_108542" data-name="Trazado 108542" d="M6855.162,1089.014l.178,18.186.069,18.186.121,36.373-.121,36.373-.063,18.186-.184,18.186-.185-18.186-.063-18.186-.127-36.373.127-36.373.063-18.186Z" transform="translate(-6836.1 -1081.013)" fill="#aed3f2"/>
        <path id="Trazado_108543" data-name="Trazado 108543" d="M6835.94,1096.521l.185,16.238.1,16.238.087,32.476-.087,32.482-.1,16.238-.185,16.238-.185-16.238-.1-16.238-.087-32.482.087-32.476.109-16.238Z" transform="translate(-6827.68 -1084.301)" fill="#aed3f2"/>
        <path id="Trazado_108544" data-name="Trazado 108544" d="M6845.551,1103.342l.184,19.016.063,19.01.127,38.033-.127,38.027-.063,19.016-.184,19.01-.184-19.01-.063-19.016-.127-38.027.127-38.033.063-19.01Z" transform="translate(-6831.89 -1087.289)" fill="#aed3f2"/>
        <path id="Trazado_108545" data-name="Trazado 108545" d="M6828.8,1090.716l.185,19.9.063,19.9.127,39.8-.127,39.8-.063,19.9-.185,19.9-.179-19.9-.069-19.9-.121-39.8.121-39.8.069-19.9Z" transform="translate(-6824.553 -1081.759)" fill="#aed3f2"/>
        <rect id="Rectángulo_6945" data-name="Rectángulo 6945" width="23.524" height="168.201" transform="translate(75.783)" fill="#f2e9e4"/>
        <path id="Trazado_108546" data-name="Trazado 108546" d="M6964.031,1089.014l.184,18.186.063,18.186.126,36.373-.126,36.373-.063,18.186-.184,18.186-.179-18.186-.069-18.186-.121-36.373.121-36.373.069-18.186Z" transform="translate(-6883.787 -1081.013)" fill="#aed3f2"/>
        <path id="Trazado_108547" data-name="Trazado 108547" d="M6983.247,1096.521l.185,16.238.1,16.238.086,32.476-.086,32.482-.1,16.238-.185,16.238-.184-16.238-.1-16.238-.086-32.482.086-32.476.109-16.238Z" transform="translate(-6892.201 -1084.301)" fill="#aed3f2"/>
        <path id="Trazado_108548" data-name="Trazado 108548" d="M6973.642,1103.342l.185,19.016.063,19.01.126,38.033-.126,38.027-.063,19.016-.185,19.01-.185-19.01-.063-19.016-.121-38.027.121-38.033.069-19.01Z" transform="translate(-6887.996 -1087.289)" fill="#aed3f2"/>
        <path id="Trazado_108549" data-name="Trazado 108549" d="M6990.4,1090.716l.179,19.9.069,19.9.127,39.8-.127,39.8-.063,19.9-.185,19.9-.185-19.9-.063-19.9-.127-39.8.127-39.8.063-19.9Z" transform="translate(-6895.332 -1081.759)" fill="#aed3f2"/>
        <path id="Trazado_108550" data-name="Trazado 108550" d="M7209.479,1288.794a1.436,1.436,0,0,1,1.447,1.424v.766a12.312,12.312,0,0,1,5.216,1.851,1.8,1.8,0,0,1,1.009,1.62,1.851,1.851,0,0,1-1.85,1.851h-.035a1.946,1.946,0,0,1-1.008-.305,12.352,12.352,0,0,0-3.458-1.481v6.468c5.119,1.28,7.309,3.332,7.309,6.917,0,3.7-2.882,6.162-7.171,6.565v2.018a1.434,1.434,0,0,1-1.417,1.453h-.029a1.464,1.464,0,0,1-1.481-1.447V1314.4a14.529,14.529,0,0,1-6.917-2.623,1.862,1.862,0,1,1,2.052-3.1,11.982,11.982,0,0,0,4.986,2.26v-6.617c-4.917-1.28-7.206-3.13-7.206-6.917,0-3.6,2.882-6.1,7.073-6.433v-.709a1.464,1.464,0,0,1,1.464-1.464Zm-1.349,11.482v-5.96c-2.156.2-3.234,1.349-3.234,2.83s.64,2.288,3.234,3.13Zm2.657,4.681v6.133c2.156-.237,3.338-1.314,3.338-2.928,0-1.487-.744-2.4-3.338-3.2Z" transform="translate(-6987.382 -1168.517)" fill="#aed3f2"/>
        <path id="Trazado_108551" data-name="Trazado 108551" d="M7023.553,1078.942a1.435,1.435,0,0,1,1.447,1.423v.767a12.319,12.319,0,0,1,5.217,1.85,1.811,1.811,0,0,1,1.009,1.62,1.851,1.851,0,0,1-1.85,1.851h-.035a1.947,1.947,0,0,1-1.009-.306,12.423,12.423,0,0,0-3.458-1.481v6.468c5.119,1.28,7.309,3.332,7.309,6.918,0,3.706-2.882,6.162-7.17,6.565v2.041a1.435,1.435,0,0,1-1.423,1.447h-.024a1.465,1.465,0,0,1-1.481-1.447h0v-2.092a14.508,14.508,0,0,1-6.917-2.623,1.858,1.858,0,1,1,2.035-3.1,11.984,11.984,0,0,0,4.986,2.259v-6.634c-4.917-1.28-7.205-3.13-7.205-6.917,0-3.6,2.882-6.093,7.072-6.433v-.726a1.464,1.464,0,0,1,1.481-1.447Zm-1.349,11.482v-5.961c-2.156.2-3.233,1.349-3.233,2.83S7019.61,1089.582,7022.2,1090.424Zm2.657,4.68v6.127c2.156-.236,3.338-1.314,3.338-2.928C7028.2,1096.822,7027.455,1095.911,7024.861,1095.1Z" transform="translate(-6905.938 -1076.601)" fill="#aed3f2"/>
      </g>
      <g id="freepik--Plant--inject-11" transform="translate(195.88 139.149)">
        <path id="Trazado_108552" data-name="Trazado 108552" d="M7169.314,1358.868c9.223,9.027,10.768,22.994,8.824,35.226-.051.276-.483.2-.483-.064,0-2.784.086-5.54.075-8.3l-.139-.369a18.354,18.354,0,0,1-5.989-6.433c-1.545-3.032-2.15-6.444-3.326-9.609-.109-.3.213-.213.427-.057,5.609,4.138,7.4,8.588,9,14.537a49.56,49.56,0,0,0-.974-9.263c-1.21-5.644-3.609-11.241-7.667-15.431C7168.934,1358.955,7169.17,1358.707,7169.314,1358.868Z" transform="translate(-7159.242 -1338.336)" fill="#344154"/>
        <path id="Trazado_108553" data-name="Trazado 108553" d="M7160.562,1354.284c-1.585.052-2.583,2.588-3.816,3.326a1.192,1.192,0,0,1-1.675-.2q-.029-.036-.054-.074c-1.222-1.729.455-3.816,2.035-5-1.153.467-2.063,1.28-3.286,1.516a1.152,1.152,0,0,1-1.446-.752,1.254,1.254,0,0,1-.036-.141c-.536-2.306,2.387-3.366,4.393-3.412-.974-.681-3.758-2.513-2.277-3.418s4.767,1.729,5.833,2.582c1.568,1.274,3.459,3.176,3.511,5.188C7163.824,1356.2,7161.795,1354.768,7160.562,1354.284Z" transform="translate(-7152.219 -1332.696)" fill="#d9a171"/>
        <path id="Trazado_108554" data-name="Trazado 108554" d="M7160.562,1354.284c-1.585.052-2.583,2.588-3.816,3.326a1.192,1.192,0,0,1-1.675-.2q-.029-.036-.054-.074c-1.222-1.729.455-3.816,2.035-5-1.153.467-2.063,1.28-3.286,1.516a1.152,1.152,0,0,1-1.446-.752,1.254,1.254,0,0,1-.036-.141c-.536-2.306,2.387-3.366,4.393-3.412-.974-.681-3.758-2.513-2.277-3.418s4.767,1.729,5.833,2.582c1.568,1.274,3.459,3.176,3.511,5.188C7163.824,1356.2,7161.795,1354.768,7160.562,1354.284Z" transform="translate(-7152.219 -1332.696)" fill="#d9a171" opacity="0.1" style="isolation: isolate"/>
        <path id="Trazado_108555" data-name="Trazado 108555" d="M7162.79,1356.333c-2.029-.922-5.926.409-6.26-.357-.668-1.568,2.444-2.634,4.127-2.842-1.551-.421-4.514-1.09-4.427-2.583.115-1.821,4.548-.254,6.8,1.464,2.83,2.173,2.813,4.266,2.346,4.686C7164.727,1357.272,7163.124,1356.488,7162.79,1356.333Z" transform="translate(-7153.975 -1334.359)" fill="#d9a171"/>
        <path id="Trazado_108556" data-name="Trazado 108556" d="M7199.275,1357.281c-9.558,8.646-11.632,22.567-10.156,34.863.04.276.473.219.483-.041.1-2.784.127-5.545.237-8.3.057-.121.1-.236.156-.363a18.428,18.428,0,0,0,6.231-6.2c1.655-2.969,2.392-6.341,3.689-9.471.121-.3-.208-.225-.427-.075-5.764,3.919-7.712,8.3-9.551,14.18a49.49,49.49,0,0,1,1.331-9.223c1.424-5.6,4.035-11.1,8.243-15.126A.171.171,0,0,0,7199.275,1357.281Z" transform="translate(-7168.193 -1337.642)" fill="#344154"/>
        <path id="Trazado_108557" data-name="Trazado 108557" d="M7208.084,1352.964c1.58.115,2.479,2.686,3.684,3.458a1.193,1.193,0,0,0,1.684-.107,1.074,1.074,0,0,0,.08-.1c1.286-1.66-.311-3.833-1.844-5.073,1.112.507,2.017,1.36,3.222,1.637a1.153,1.153,0,0,0,1.479-.686,1.079,1.079,0,0,0,.042-.144c.623-2.306-2.26-3.458-4.26-3.586,1-.634,3.851-2.37,2.4-3.326s-4.83,1.539-5.931,2.363c-1.614,1.211-3.557,3.038-3.7,5.027C7204.764,1354.757,7206.845,1353.4,7208.084,1352.964Z" transform="translate(-7175.307 -1332.207)" fill="#d9a171"/>
        <path id="Trazado_108558" data-name="Trazado 108558" d="M7208.084,1352.964c1.58.115,2.479,2.686,3.684,3.458a1.193,1.193,0,0,0,1.684-.107,1.074,1.074,0,0,0,.08-.1c1.286-1.66-.311-3.833-1.844-5.073,1.112.507,2.017,1.36,3.222,1.637a1.153,1.153,0,0,0,1.479-.686,1.079,1.079,0,0,0,.042-.144c.623-2.306-2.26-3.458-4.26-3.586,1-.634,3.851-2.37,2.4-3.326s-4.83,1.539-5.931,2.363c-1.614,1.211-3.557,3.038-3.7,5.027C7204.764,1354.757,7206.845,1353.4,7208.084,1352.964Z" transform="translate(-7175.307 -1332.207)" fill="#d9a171" opacity="0.1" style="isolation: isolate"/>
        <path id="Trazado_108559" data-name="Trazado 108559" d="M7207.515,1354.991c2.058-.847,5.9.628,6.26-.126.732-1.533-2.334-2.727-4.006-3,1.562-.357,4.548-.91,4.513-2.409-.04-1.827-4.536-.427-6.842,1.211-2.911,2.058-2.975,4.15-2.519,4.611C7205.538,1355.855,7207.187,1355.152,7207.515,1354.991Z" transform="translate(-7175.211 -1333.859)" fill="#d9a171"/>
        <path id="Trazado_108560" data-name="Trazado 108560" d="M7184.289,1372.771a93.47,93.47,0,0,1-2.968,13.707.341.341,0,0,1-.669-.133h0c.628-4.225,1.775-8.37,2.4-12.595a63.842,63.842,0,0,0,.732-12.929c-.4-7.119-2.334-14.693-6.98-20.261-.1-.133.115-.317.219-.2,9.3,10.843,7.822,24.135,7.811,25.328,1.32-4.49,2.675-9.632,7.655-14.2.214-.2.38-.1.346.23-.888,8.324-3.205,12.682-8.03,17.12C7184.669,1370.16,7184.5,1371.474,7184.289,1372.771Z" transform="translate(-7162.977 -1330.237)" fill="#344154"/>
        <path id="Trazado_108561" data-name="Trazado 108561" d="M7170.43,1333.943c-1.672-.744-3.977,1.389-5.632,1.533a1.369,1.369,0,0,1-1.678-1.153c-.409-2.393,2.393-3.736,4.612-4.162-1.407-.087-2.791.288-4.174-.087a1.314,1.314,0,0,1-1.129-1.476,1.4,1.4,0,0,1,.039-.189c.617-2.692,4.168-2.306,6.278-1.337-.669-1.188-2.634-4.5-.646-4.692s4.082,4.185,4.756,5.62c.986,2.11,1.972,5.027,1.043,7.125C7172.839,1337.569,7171.455,1335.067,7170.43,1333.943Z" transform="translate(-7156.687 -1322.374)" fill="#d9a171"/>
        <path id="Trazado_108562" data-name="Trazado 108562" d="M7170.43,1333.943c-1.672-.744-3.977,1.389-5.632,1.533a1.369,1.369,0,0,1-1.678-1.153c-.409-2.393,2.393-3.736,4.612-4.162-1.407-.087-2.791.288-4.174-.087a1.314,1.314,0,0,1-1.129-1.476,1.4,1.4,0,0,1,.039-.189c.617-2.692,4.168-2.306,6.278-1.337-.669-1.188-2.634-4.5-.646-4.692s4.082,4.185,4.756,5.62c.986,2.11,1.972,5.027,1.043,7.125C7172.839,1337.569,7171.455,1335.067,7170.43,1333.943Z" transform="translate(-7156.687 -1322.374)" fill="#d9a171" opacity="0.1" style="isolation: isolate"/>
        <path id="Trazado_108563" data-name="Trazado 108563" d="M7172.261,1336.477c-1.643-1.977-6.341-2.565-6.306-3.528.086-1.96,3.856-1.5,5.707-.871-1.4-1.216-4.139-3.4-3.292-4.905,1.032-1.833,4.848,2.023,6.312,4.946,1.845,3.672.772,5.833.075,6.035C7173.8,1338.425,7172.532,1336.8,7172.261,1336.477Z" transform="translate(-7158.235 -1324.268)" fill="#d9a171"/>
        <path id="Trazado_108564" data-name="Trazado 108564" d="M7184.769,1402.489l4.1,31.335h-24.959c.513-2.779,5.159-31.375,5.159-31.375Z" transform="translate(-7157.342 -1357.447)" fill="#d9a171"/>
      </g>
      <g id="freepik--Desk--inject-11" transform="translate(0 215.198)">
        <path id="Trazado_108565" data-name="Trazado 108565" d="M6803.678,1457.974l30.735-.138,30.735-.052,61.476-.092,61.47.092,30.741.052,30.735.138-30.735.144-30.741.052-61.47.092-61.476-.092-30.735-.052Z" transform="translate(-6803.678 -1457.691)" fill="#344154"/>
      </g>
      <g id="freepik--Invoice--inject-11" transform="translate(151.157 0.006)">
        <rect id="Rectángulo_6946" data-name="Rectángulo 6946" width="90.718" height="116.121" fill="#aed3f2"/>
        <rect id="Rectángulo_6947" data-name="Rectángulo 6947" width="90.718" height="6.773" transform="translate(0 6.502)" fill="#344154"/>
        <path id="Trazado_108566" data-name="Trazado 108566" d="M7072.64,1098.409h49.515l-4.156,7.28H7072.64Z" transform="translate(-7072.64 -1085.134)" fill="#344154"/>
        <path id="Trazado_108567" data-name="Trazado 108567" d="M7072.64,1083.967h49.515l-2.041,2.68H7072.64Z" transform="translate(-7072.64 -1078.808)" fill="#d9a171"/>
        <path id="Trazado_108568" data-name="Trazado 108568" d="M7072.64,1091.014H7099.1l-2.041,2.686H7072.64Z" transform="translate(-7072.64 -1081.895)" fill="#d9a171"/>
        <rect id="Rectángulo_6948" data-name="Rectángulo 6948" width="74.117" height="5.701" transform="translate(8.301 47.44)" fill="#ffbf9d"/>
        <rect id="Rectángulo_6949" data-name="Rectángulo 6949" width="74.117" height="5.701" transform="translate(8.301 41.739)" fill="#d9a171"/>
        <rect id="Rectángulo_6950" data-name="Rectángulo 6950" width="74.117" height="5.701" transform="translate(8.301 53.135)" fill="#dbdbdb"/>
        <rect id="Rectángulo_6951" data-name="Rectángulo 6951" width="74.117" height="5.701" transform="translate(8.301 58.836)" fill="#ffbf9d"/>
        <rect id="Rectángulo_6952" data-name="Rectángulo 6952" width="74.117" height="5.701" transform="translate(8.301 64.537)" fill="#dbdbdb"/>
        <rect id="Rectángulo_6953" data-name="Rectángulo 6953" width="74.117" height="5.701" transform="translate(8.301 70.232)" fill="#ffbf9d"/>
        <rect id="Rectángulo_6954" data-name="Rectángulo 6954" width="74.117" height="5.701" transform="translate(8.301 75.933)" fill="#dbdbdb"/>
        <rect id="Rectángulo_6955" data-name="Rectángulo 6955" width="51.896" height="5.701" transform="translate(30.522 81.634)" fill="#d9a171"/>
        <rect id="Rectángulo_6956" data-name="Rectángulo 6956" width="22.221" height="39.895" transform="translate(8.301 41.739)" fill="#c7c7c7"/>
        <path id="Trazado_108569" data-name="Trazado 108569" d="M7087.409,1169.28l37.059-.069,37.059.069-37.059.075Z" transform="translate(-7079.108 -1116.145)" fill="#344154"/>
        <path id="Trazado_108570" data-name="Trazado 108570" d="M7087.409,1179.424l37.059-.069,37.059.069-37.059.075Z" transform="translate(-7079.108 -1120.588)" fill="#344154"/>
        <path id="Trazado_108571" data-name="Trazado 108571" d="M7087.409,1189.563l37.059-.075,37.059.075-37.059.069Z" transform="translate(-7079.108 -1125.026)" fill="#344154"/>
        <path id="Trazado_108572" data-name="Trazado 108572" d="M7087.409,1199.7l37.059-.069,37.059.069-37.059.075Z" transform="translate(-7079.108 -1129.47)" fill="#344154"/>
        <path id="Trazado_108573" data-name="Trazado 108573" d="M7087.409,1209.845l37.059-.069,37.059.069-37.059.075Z" transform="translate(-7079.108 -1133.913)" fill="#344154"/>
        <path id="Trazado_108574" data-name="Trazado 108574" d="M7087.409,1219.985l37.059-.075,37.059.075-37.059.069Z" transform="translate(-7079.108 -1138.351)" fill="#344154"/>
        <path id="Trazado_108575" data-name="Trazado 108575" d="M7094.476,1153.986c2.364-.115,4.732-.127,7.1-.145s4.733,0,7.1.145c-2.369.121-4.732.126-7.1.144S7096.84,1154.119,7094.476,1153.986Z" transform="translate(-7082.204 -1109.411)" fill="#344154"/>
        <path id="Trazado_108576" data-name="Trazado 108576" d="M7094.476,1164.151c1.787-.121,3.58-.127,5.367-.144s3.58,0,5.372.144c-1.792.121-3.58.127-5.372.144S7096.263,1164.272,7094.476,1164.151Z" transform="translate(-7082.204 -1113.863)" fill="#344154"/>
        <path id="Trazado_108577" data-name="Trazado 108577" d="M7094.476,1174.295c2.364-.121,4.732-.127,7.1-.144s4.733,0,7.1.144c-2.369.121-4.732.127-7.1.144S7096.84,1174.41,7094.476,1174.295Z" transform="translate(-7082.204 -1118.306)" fill="#344154"/>
        <path id="Trazado_108578" data-name="Trazado 108578" d="M7094.476,1184.428c1.943-.115,3.891-.127,5.839-.144s3.9,0,5.845.144c-1.949.121-3.9.126-5.845.144S7096.419,1184.549,7094.476,1184.428Z" transform="translate(-7082.204 -1122.744)" fill="#344154"/>
        <path id="Trazado_108579" data-name="Trazado 108579" d="M7094.476,1194.572c2.364-.121,4.732-.127,7.1-.144s4.733,0,7.1.144c-2.369.121-4.732.126-7.1.144S7096.84,1194.693,7094.476,1194.572Z" transform="translate(-7082.204 -1127.188)" fill="#344154"/>
        <path id="Trazado_108580" data-name="Trazado 108580" d="M7094.476,1204.716c2.364-.121,4.732-.126,7.1-.144s4.733,0,7.1.144c-2.369.121-4.732.127-7.1.144S7096.84,1204.831,7094.476,1204.716Z" transform="translate(-7082.204 -1131.631)" fill="#344154"/>
        <path id="Trazado_108581" data-name="Trazado 108581" d="M7094.476,1214.853c1.435-.109,2.882-.138,4.306-.144s2.882.034,4.312.144c-1.436.115-2.882.138-4.312.144S7095.911,1214.969,7094.476,1214.853Z" transform="translate(-7082.204 -1136.073)" fill="#344154"/>
        <path id="Trazado_108582" data-name="Trazado 108582" d="M7136.189,1153.986c1.775-.115,3.557-.127,5.333-.145s3.562,0,5.337.145c-1.775.121-3.557.126-5.337.144S7137.977,1154.119,7136.189,1153.986Z" transform="translate(-7100.474 -1109.411)" fill="#344154"/>
        <path id="Trazado_108583" data-name="Trazado 108583" d="M7136.189,1164.151c1.775-.121,3.557-.127,5.333-.144s3.562,0,5.337.144c-1.775.121-3.557.127-5.337.144S7137.977,1164.272,7136.189,1164.151Z" transform="translate(-7100.474 -1113.863)" fill="#344154"/>
        <path id="Trazado_108584" data-name="Trazado 108584" d="M7136.189,1174.295c1.775-.121,3.557-.127,5.333-.144s3.562,0,5.337.144c-1.775.121-3.557.127-5.337.144S7137.977,1174.41,7136.189,1174.295Z" transform="translate(-7100.474 -1118.306)" fill="#344154"/>
        <path id="Trazado_108585" data-name="Trazado 108585" d="M7136.189,1184.428c1.775-.115,3.557-.127,5.333-.144s3.562,0,5.337.144c-1.775.121-3.557.126-5.337.144S7137.977,1184.549,7136.189,1184.428Z" transform="translate(-7100.474 -1122.744)" fill="#344154"/>
        <path id="Trazado_108586" data-name="Trazado 108586" d="M7136.189,1194.572c1.775-.121,3.557-.127,5.333-.144s3.562,0,5.337.144c-1.775.121-3.557.126-5.337.144S7137.977,1194.693,7136.189,1194.572Z" transform="translate(-7100.474 -1127.188)" fill="#344154"/>
        <path id="Trazado_108587" data-name="Trazado 108587" d="M7136.189,1204.716c1.775-.121,3.557-.126,5.333-.144s3.562,0,5.337.144c-1.775.121-3.557.127-5.337.144S7137.977,1204.831,7136.189,1204.716Z" transform="translate(-7100.474 -1131.631)" fill="#344154"/>
        <path id="Trazado_108588" data-name="Trazado 108588" d="M7136.189,1214.849c1.775-.115,3.557-.127,5.333-.144s3.562,0,5.337.144c-1.775.121-3.557.127-5.337.144S7137.977,1214.97,7136.189,1214.849Z" transform="translate(-7100.474 -1136.069)" fill="#344154"/>
        <path id="Trazado_108589" data-name="Trazado 108589" d="M7163.627,1153.986c1.781-.115,3.557-.127,5.338-.145s3.557,0,5.332.145c-1.775.121-3.556.126-5.332.144S7165.408,1154.119,7163.627,1153.986Z" transform="translate(-7112.492 -1109.411)" fill="#344154"/>
        <path id="Trazado_108590" data-name="Trazado 108590" d="M7170.14,1214.854a10.139,10.139,0,0,1,3.407,0A10.133,10.133,0,0,1,7170.14,1214.854Z" transform="translate(-7115.345 -1136.073)" fill="#344154"/>
        <path id="Trazado_108591" data-name="Trazado 108591" d="M7170.14,1204.72a10.165,10.165,0,0,1,3.407,0A10.139,10.139,0,0,1,7170.14,1204.72Z" transform="translate(-7115.345 -1131.635)" fill="#344154"/>
        <path id="Trazado_108592" data-name="Trazado 108592" d="M7170.14,1194.576a9.451,9.451,0,0,1,1.729-.144,8.945,8.945,0,0,1,1.7.144,10.168,10.168,0,0,1-3.407,0Z" transform="translate(-7115.345 -1127.191)" fill="#344154"/>
        <path id="Trazado_108593" data-name="Trazado 108593" d="M7170.14,1184.433a10.139,10.139,0,0,1,3.407,0A10.139,10.139,0,0,1,7170.14,1184.433Z" transform="translate(-7115.345 -1122.749)" fill="#344154"/>
        <path id="Trazado_108594" data-name="Trazado 108594" d="M7170.14,1174.3a10.139,10.139,0,0,1,3.407,0A10.133,10.133,0,0,1,7170.14,1174.3Z" transform="translate(-7115.345 -1118.31)" fill="#344154"/>
        <path id="Trazado_108595" data-name="Trazado 108595" d="M7170.14,1164.154a9.482,9.482,0,0,1,1.729-.144,8.9,8.9,0,0,1,1.7.144,8.945,8.945,0,0,1-1.7.145A9.494,9.494,0,0,1,7170.14,1164.154Z" transform="translate(-7115.345 -1113.867)" fill="#344154"/>
        <path id="Trazado_108596" data-name="Trazado 108596" d="M7171.894,1225a29.078,29.078,0,0,1,3.009-.144,27.524,27.524,0,0,1,3.014.144A31.544,31.544,0,0,1,7171.894,1225Z" transform="translate(-7116.113 -1140.516)" fill="#344154"/>
        <path id="Trazado_108597" data-name="Trazado 108597" d="M7191.063,1153.986c1.781-.115,3.557-.127,5.338-.145s3.557,0,5.332.145c-1.775.121-3.556.126-5.332.144S7192.845,1154.119,7191.063,1153.986Z" transform="translate(-7124.509 -1109.411)" fill="#344154"/>
        <path id="Trazado_108598" data-name="Trazado 108598" d="M7191.063,1164.151c1.781-.121,3.557-.127,5.338-.144s3.557,0,5.332.144c-1.775.121-3.556.127-5.332.144S7192.845,1164.272,7191.063,1164.151Z" transform="translate(-7124.509 -1113.863)" fill="#344154"/>
        <path id="Trazado_108599" data-name="Trazado 108599" d="M7191.063,1174.295c1.781-.121,3.557-.127,5.338-.144s3.557,0,5.332.144c-1.775.121-3.556.127-5.332.144S7192.845,1174.41,7191.063,1174.295Z" transform="translate(-7124.509 -1118.306)" fill="#344154"/>
        <path id="Trazado_108600" data-name="Trazado 108600" d="M7191.063,1184.428c1.781-.115,3.557-.127,5.338-.144s3.557,0,5.332.144c-1.775.121-3.556.126-5.332.144S7192.845,1184.549,7191.063,1184.428Z" transform="translate(-7124.509 -1122.744)" fill="#344154"/>
        <path id="Trazado_108601" data-name="Trazado 108601" d="M7191.063,1194.572c1.781-.121,3.557-.127,5.338-.144s3.557,0,5.332.144c-1.775.121-3.556.126-5.332.144S7192.845,1194.693,7191.063,1194.572Z" transform="translate(-7124.509 -1127.188)" fill="#344154"/>
        <path id="Trazado_108602" data-name="Trazado 108602" d="M7191.063,1204.716c1.781-.121,3.557-.126,5.338-.144s3.557,0,5.332.144c-1.775.121-3.556.127-5.332.144S7192.845,1204.831,7191.063,1204.716Z" transform="translate(-7124.509 -1131.631)" fill="#344154"/>
        <path id="Trazado_108603" data-name="Trazado 108603" d="M7191.063,1214.849c1.781-.115,3.557-.127,5.338-.144s3.557,0,5.332.144c-1.775.121-3.556.127-5.332.144S7192.845,1214.97,7191.063,1214.849Z" transform="translate(-7124.509 -1136.069)" fill="#344154"/>
        <path id="Trazado_108604" data-name="Trazado 108604" d="M7191.063,1224.994c1.781-.121,3.557-.127,5.338-.144s3.557,0,5.332.144c-1.775.121-3.556.127-5.332.144S7192.845,1225.114,7191.063,1224.994Z" transform="translate(-7124.509 -1140.512)" fill="#344154"/>
        <path id="Trazado_108605" data-name="Trazado 108605" d="M7087.409,1105.665c2.2-.115,4.4-.173,6.6-.219s4.4-.046,6.595-.069,4.4,0,6.6.069l3.3.081c1.1.046,2.2.075,3.3.138-1.1.069-2.2.092-3.3.144l-3.3.08c-2.2.046-4.4.04-6.6.063s-4.4,0-6.595-.063S7089.6,1105.792,7087.409,1105.665Z" transform="translate(-7079.109 -1088.182)" fill="#ffbf9d"/>
        <path id="Trazado_108606" data-name="Trazado 108606" d="M7087.409,1100.68c2.5-.121,4.992-.179,7.493-.225s4.992-.04,7.494-.063,4.991,0,7.494.063l3.747.081c1.251.046,2.5.075,3.747.144-1.245.064-2.5.093-3.747.139l-3.747.08c-2.5.046-4.993.046-7.494.063s-5,0-7.494-.063S7089.905,1100.8,7087.409,1100.68Z" transform="translate(-7079.109 -1085.999)" fill="#ffbf9d"/>
        <path id="Trazado_108607" data-name="Trazado 108607" d="M7087.409,1130.988c2.046-.092,4.087-.133,6.134-.167s4.092,0,6.139-.046,4.086,0,6.133.046,4.087.075,6.133.167c-2.046.092-4.087.133-6.133.167s-4.093,0-6.133.046-4.093,0-6.139-.046S7089.456,1131.074,7087.409,1130.988Z" transform="translate(-7079.109 -1099.301)" fill="#344154"/>
        <path id="Trazado_108608" data-name="Trazado 108608" d="M7087.409,1135.306c1.279-.087,2.565-.133,3.845-.167s2.565,0,3.851-.046,2.564,0,3.845.046,2.565.081,3.851.167c-1.285.092-2.565.133-3.851.167s-2.565.035-3.845.052-2.565,0-3.851-.052S7088.688,1135.392,7087.409,1135.306Z" transform="translate(-7079.109 -1101.193)" fill="#344154"/>
        <path id="Trazado_108609" data-name="Trazado 108609" d="M7087.409,1139.634c1.787-.087,3.567-.127,5.355-.161s3.568-.035,5.355-.052,3.574,0,5.355.052,3.573.075,5.354.161c-1.781.092-3.568.133-5.354.167s-3.568.035-5.355.052-3.567,0-5.355-.052S7089.2,1139.726,7087.409,1139.634Z" transform="translate(-7079.109 -1103.094)" fill="#344154"/>
        <path id="Trazado_108610" data-name="Trazado 108610" d="M7087.409,1237.837c1.314-.092,2.623-.133,3.937-.167s2.628-.034,3.937-.052,2.628,0,3.943.052,2.623.075,3.937.167c-1.314.087-2.629.133-3.937.167s-2.628.029-3.943.046-2.623,0-3.937-.052S7088.724,1237.947,7087.409,1237.837Z" transform="translate(-7079.109 -1146.104)" fill="#344154"/>
        <path id="Trazado_108611" data-name="Trazado 108611" d="M7087.409,1242.123c1.516-.092,3.038-.132,4.554-.167s3.032,0,4.554-.052,3.032,0,4.554.052,3.032.075,4.554.167c-1.521.093-3.038.133-4.554.167s-3.037.029-4.554.046-3.038,0-4.554-.046S7088.942,1242.221,7087.409,1242.123Z" transform="translate(-7079.109 -1147.975)" fill="#344154"/>
        <path id="Trazado_108612" data-name="Trazado 108612" d="M7087.409,1259.386c2.386-.087,4.772-.127,7.159-.161l7.153-.052,7.16.046c2.386.034,4.772.08,7.159.167-2.387.092-4.773.133-7.159.167l-7.16.052-7.153-.052C7092.182,1259.5,7089.8,1259.5,7087.409,1259.386Z" transform="translate(-7079.109 -1155.548)" fill="#344154"/>
        <path id="Trazado_108613" data-name="Trazado 108613" d="M7087.409,1246.481c.928-.087,1.851-.133,2.778-.167s1.851-.04,2.778-.046,1.85,0,2.779.046,1.85.08,2.778.167c-.928.092-1.856.133-2.778.167s-1.856.047-2.779.052-1.856,0-2.778-.052S7088.366,1246.574,7087.409,1246.481Z" transform="translate(-7079.109 -1149.895)" fill="#344154"/>
        <path id="Trazado_108614" data-name="Trazado 108614" d="M7170.14,1250.745c2.306-.092,4.611-.133,6.917-.167l6.917-.052,6.917.052c2.306.035,4.611.075,6.917.167-2.306.087-4.611.133-6.917.167l-6.917.046-6.917-.046C7174.751,1250.878,7172.446,1250.832,7170.14,1250.745Z" transform="translate(-7115.345 -1151.761)" fill="#344154"/>
        <path id="Trazado_108615" data-name="Trazado 108615" d="M7170.14,1246.478c1.874-.087,3.741-.133,5.614-.167s3.741-.029,5.615-.046,3.747,0,5.614.046,3.747.08,5.614.167c-1.868.092-3.741.133-5.614.167s-3.741.035-5.614.052-3.741,0-5.615-.052S7171.984,1246.57,7170.14,1246.478Z" transform="translate(-7115.345 -1149.892)" fill="#344154"/>
        <path id="Trazado_108616" data-name="Trazado 108616" d="M7170.14,1255.063c1.758-.086,3.516-.133,5.28-.167s3.517-.029,5.274-.046,3.522,0,5.28.046,3.516.075,5.274.167c-1.758.092-3.517.133-5.274.167s-3.522.035-5.28.052-3.516,0-5.274-.052S7171.869,1255.155,7170.14,1255.063Z" transform="translate(-7115.345 -1153.652)" fill="#344154"/>
        <path id="Trazado_108617" data-name="Trazado 108617" d="M7170.14,1259.381c1.262-.087,2.525-.127,3.782-.161s2.524-.035,3.787-.052,2.519,0,3.782.046,2.519.08,3.781.167c-1.263.092-2.519.133-3.781.167s-2.525.035-3.782.052-2.524,0-3.787-.052S7171.374,1259.49,7170.14,1259.381Z" transform="translate(-7115.345 -1155.543)" fill="#344154"/>
        <path id="Trazado_108618" data-name="Trazado 108618" d="M7088.748,1252.729c.687-.473,1.4-.922,2.122-1.337a10.086,10.086,0,0,1,2.305-1.032,2.111,2.111,0,0,1,.317-.058.335.335,0,0,1,.352.115,1.214,1.214,0,0,1,.145.646,7.653,7.653,0,0,1-.133,1.262c-.144.824-.352,1.637-.576,2.444a37.537,37.537,0,0,1-1.66,4.733,8.043,8.043,0,0,1-.577,1.153,2.128,2.128,0,0,1-.225.26.335.335,0,0,1-.219.1.208.208,0,0,1-.149-.057l-.075-.075a1.227,1.227,0,0,1-.179-.668,8.433,8.433,0,0,1,.438-2.5,14.375,14.375,0,0,1,.945-2.335,6.929,6.929,0,0,1,1.47-2.046,2.3,2.3,0,0,1,1.152-.576,1.331,1.331,0,0,1,.652.057,1,1,0,0,1,.46.467,2.772,2.772,0,0,0,.346.5.524.524,0,0,0,.507.173,3.307,3.307,0,0,0,1.049-.617c.168-.127.335-.254.508-.375a1.63,1.63,0,0,1,.271-.167c.093-.04.225-.115.346,0,.168.2.122.421.208.605a.37.37,0,0,0,.427.277,3.745,3.745,0,0,0,.917-.8c.283-.306.577-.623.83-.934.548-.635,1.083-1.274,1.643-1.9.277-.311.577-.616.865-.911.155-.144.311-.282.483-.415a1.361,1.361,0,0,1,.283-.167.434.434,0,0,1,.184-.041.254.254,0,0,1,.19.1,1.158,1.158,0,0,1,.086.663,5.68,5.68,0,0,1-.1.628c-.092.415-.208.818-.334,1.216a12.511,12.511,0,0,1-1,2.306,2.412,2.412,0,0,1-.392.524.456.456,0,0,1-.369.144,1.111,1.111,0,0,1-.334-.093,1.564,1.564,0,0,1-.871-1.026.586.586,0,0,1,.046-.392.417.417,0,0,1,.162-.156.4.4,0,0,1,.219-.046,2.429,2.429,0,0,1,.646.15c.4.144.784.311,1.153.478s.761.34,1.153.49a4.956,4.956,0,0,0,.576.207,1.955,1.955,0,0,0,.283.064.4.4,0,0,0,.225-.052c.317-.156.524-.542.842-.853a.994.994,0,0,1,.634-.329.339.339,0,0,1,.259.087.334.334,0,0,1,.087.254,1.691,1.691,0,0,1-.064.341c-.057.19-.08.427-.028.432s.306,0,.479,0a3.193,3.193,0,0,0,1.055-.577,6.142,6.142,0,0,1,.53-.357,1.062,1.062,0,0,1,.7-.167,2.615,2.615,0,0,1,1.072.778,2.741,2.741,0,0,0,.443.387c.076.046.145.063.162.046a1.99,1.99,0,0,0,.236-.15,11.518,11.518,0,0,0,2.56-2.651,2.1,2.1,0,0,0,.4-1.078c0-.375-.386-.577-.784-.611a6.878,6.878,0,0,0-2.45.034,6.061,6.061,0,0,0-1.182.34,2.449,2.449,0,0,0-.524.283c-.155.115-.294.277-.248.427a.773.773,0,0,0,.4.363,5.838,5.838,0,0,0,.576.23,11.719,11.719,0,0,0,1.193.346,27.323,27.323,0,0,0,4.963.478h0a26.442,26.442,0,0,1-5-.369,11.1,11.1,0,0,1-1.21-.334,5.284,5.284,0,0,1-.577-.23.908.908,0,0,1-.5-.467.618.618,0,0,1,.306-.617,2.6,2.6,0,0,1,.577-.317,6.032,6.032,0,0,1,1.216-.363,7.039,7.039,0,0,1,2.53-.069,1.866,1.866,0,0,1,.64.213.783.783,0,0,1,.363.617,2.364,2.364,0,0,1-.432,1.245,12.2,12.2,0,0,1-2.618,2.744,1.947,1.947,0,0,1-.294.178.488.488,0,0,1-.432-.063,3.428,3.428,0,0,1-.5-.427,2.456,2.456,0,0,0-.916-.7c-.306-.046-.664.242-.992.478a3.481,3.481,0,0,1-1.153.577.935.935,0,0,1-.744-.029.468.468,0,0,1-.144-.42,1.8,1.8,0,0,1,.069-.329,1.511,1.511,0,0,0,.052-.271v-.041c0,.012,0,0-.041,0a.736.736,0,0,0-.443.237c-.282.265-.479.668-.916.9a.708.708,0,0,1-.381.075,1.825,1.825,0,0,1-.329-.075,6.257,6.257,0,0,1-.6-.219c-.386-.161-.767-.334-1.153-.5s-.761-.334-1.152-.479a2.185,2.185,0,0,0-.577-.138c-.132,0-.208.11-.173.288a1.327,1.327,0,0,0,.692.853.863.863,0,0,0,.265.075.2.2,0,0,0,.185-.086,2.317,2.317,0,0,0,.363-.467,12.194,12.194,0,0,0,1-2.26,10.871,10.871,0,0,0,.346-1.193,4.508,4.508,0,0,0,.1-.577.981.981,0,0,0-.046-.576c-.058-.109-.294,0-.444.138a4.336,4.336,0,0,0-.467.4c-.3.282-.576.576-.87.893-.577.617-1.1,1.251-1.655,1.879-.276.311-.576.623-.842.928a3.8,3.8,0,0,1-.968.819.473.473,0,0,1-.536-.329c-.081-.2-.075-.444-.184-.576s-.149,0-.236.034a2.47,2.47,0,0,0-.26.161c-.167.121-.329.254-.5.38a3.4,3.4,0,0,1-1.089.651.645.645,0,0,1-.628-.2,3.154,3.154,0,0,1-.369-.519c-.115-.167-.225-.352-.392-.409a1.241,1.241,0,0,0-.577-.041,2.217,2.217,0,0,0-1.066.524,6.968,6.968,0,0,0-1.412,2.012,14.68,14.68,0,0,0-.905,2.306,8.423,8.423,0,0,0-.4,2.421,1.086,1.086,0,0,0,.133.524l.035.034h0a.145.145,0,0,0,.057-.04,1.136,1.136,0,0,0,.178-.214,8.429,8.429,0,0,0,.577-1.084,36.066,36.066,0,0,0,1.7-4.687,23.207,23.207,0,0,0,.576-2.421,6.8,6.8,0,0,0,.139-1.222,1.018,1.018,0,0,0-.109-.577c-.052-.064-.1-.08-.208-.057a1.8,1.8,0,0,0-.3.052,10.738,10.738,0,0,0-2.306.974q-1.1.588-2.144,1.274Z" transform="translate(-7079.693 -1150.88)" fill="#344154"/>
        <g id="Grupo_61931" data-name="Grupo 61931" transform="translate(51.44 14.97)">
          <path id="Trazado_108619" data-name="Trazado 108619" d="M7168.69,1106h-3.439v3.62h-1.081v-8.2h5.078v.884h-4v2.809h3.439Z" transform="translate(-7164.17 -1101.425)" fill="#344154"/>
          <path id="Trazado_108620" data-name="Trazado 108620" d="M7178.5,1111.174a2.157,2.157,0,0,1-.146-.642,2.324,2.324,0,0,1-1.734.754,2.149,2.149,0,0,1-1.477-.509,1.648,1.648,0,0,1-.578-1.292,1.722,1.722,0,0,1,.724-1.478,3.408,3.408,0,0,1,2.035-.526h1.013V1107a1.169,1.169,0,0,0-.326-.87,1.312,1.312,0,0,0-.962-.324,1.517,1.517,0,0,0-.935.281.829.829,0,0,0-.377.681h-1.047a1.436,1.436,0,0,1,.324-.881,2.2,2.2,0,0,1,.878-.673,2.955,2.955,0,0,1,1.219-.248,2.4,2.4,0,0,1,1.649.527,1.9,1.9,0,0,1,.62,1.449v2.8a3.429,3.429,0,0,0,.214,1.334v.09Zm-1.729-.794a1.829,1.829,0,0,0,.929-.253,1.529,1.529,0,0,0,.636-.659v-1.25h-.815q-1.915,0-1.914,1.121a.947.947,0,0,0,.326.765A1.256,1.256,0,0,0,7176.773,1110.381Z" transform="translate(-7168.723 -1102.978)" fill="#344154"/>
          <path id="Trazado_108621" data-name="Trazado 108621" d="M7188.268,1110.437a1.5,1.5,0,0,0,.974-.338,1.189,1.189,0,0,0,.461-.845h.985a1.88,1.88,0,0,1-.36,1,2.372,2.372,0,0,1-.886.754,2.553,2.553,0,0,1-1.174.282,2.511,2.511,0,0,1-1.979-.83,3.31,3.31,0,0,1-.734-2.272v-.174a3.668,3.668,0,0,1,.327-1.582,2.476,2.476,0,0,1,.938-1.075,2.658,2.658,0,0,1,1.443-.383,2.443,2.443,0,0,1,1.7.614,2.187,2.187,0,0,1,.723,1.593h-.985a1.433,1.433,0,0,0-.447-.971,1.393,1.393,0,0,0-.994-.38,1.458,1.458,0,0,0-1.229.572,2.683,2.683,0,0,0-.437,1.652v.2a2.626,2.626,0,0,0,.434,1.621A1.462,1.462,0,0,0,7188.268,1110.437Z" transform="translate(-7173.536 -1102.978)" fill="#344154"/>
          <path id="Trazado_108622" data-name="Trazado 108622" d="M7197.611,1102.547v1.475h1.137v.805h-1.137v3.782a.847.847,0,0,0,.152.55.64.64,0,0,0,.518.183,2.523,2.523,0,0,0,.5-.067v.839a3.029,3.029,0,0,1-.8.112,1.3,1.3,0,0,1-1.053-.422,1.814,1.814,0,0,1-.354-1.2v-3.777h-1.109v-.805h1.109v-1.475Z" transform="translate(-7177.875 -1101.917)" fill="#344154"/>
          <path id="Trazado_108623" data-name="Trazado 108623" d="M7207.217,1110.66a2.212,2.212,0,0,1-1.784.715,1.894,1.894,0,0,1-1.483-.565,2.449,2.449,0,0,1-.515-1.675v-3.963h1.042v3.935q0,1.384,1.126,1.385a1.558,1.558,0,0,0,1.587-.89v-4.43h1.042v6.091h-.991Z" transform="translate(-7181.368 -1103.066)" fill="#344154"/>
          <path id="Trazado_108624" data-name="Trazado 108624" d="M7217.727,1106.018a3.1,3.1,0,0,0-.512-.039,1.372,1.372,0,0,0-1.391.872v4.323h-1.041v-6.091h1.013l.017.7a1.622,1.622,0,0,1,1.453-.816,1.067,1.067,0,0,1,.461.079Z" transform="translate(-7186.338 -1102.978)" fill="#344154"/>
          <path id="Trazado_108625" data-name="Trazado 108625" d="M7224.947,1111.174a2.209,2.209,0,0,1-.146-.642,2.323,2.323,0,0,1-1.734.754,2.15,2.15,0,0,1-1.478-.509,1.649,1.649,0,0,1-.577-1.292,1.722,1.722,0,0,1,.724-1.478,3.407,3.407,0,0,1,2.035-.526h1.013V1107a1.171,1.171,0,0,0-.326-.87,1.313,1.313,0,0,0-.963-.324,1.516,1.516,0,0,0-.934.281.829.829,0,0,0-.378.681h-1.047a1.436,1.436,0,0,1,.323-.881,2.206,2.206,0,0,1,.879-.673,2.95,2.95,0,0,1,1.218-.248,2.406,2.406,0,0,1,1.649.527,1.9,1.9,0,0,1,.62,1.449v2.8a3.429,3.429,0,0,0,.214,1.334v.09Zm-1.728-.794a1.835,1.835,0,0,0,.929-.253,1.531,1.531,0,0,0,.636-.659v-1.25h-.815q-1.915,0-1.914,1.121a.947.947,0,0,0,.326.765A1.254,1.254,0,0,0,7223.219,1110.381Z" transform="translate(-7189.067 -1102.978)" fill="#344154"/>
        </g>
      </g>
      <g id="freepik--Character--inject-11" transform="translate(6.229 71.453)">
        <path id="Trazado_108626" data-name="Trazado 108626" d="M6902.846,1302.772a58.274,58.274,0,0,0,10.421,6.946c-5.136-9.372-2.386-29.352-1.919-26.429,2.219,13.967,10.577,29.761,14.214,30.81a.2.2,0,0,1,.063,0,47.775,47.775,0,0,0,26.983-2.715.092.092,0,0,0,0-.046c-6.756-10.687-4.565-31.047-4.162-29.761,4.392,13.794,15.327,22.538,17.362,22.688h0c8.07-5.684,12.6-11.65,11.592-12.376-7.326-5.309-12.82-17.869-17.61-31.047h0c-4.738-13-6.514-31.928-13.765-43.779-6.641-10.854-21.6-14.065-30.655-9.563C6891.617,1219.282,6898.367,1299.049,6902.846,1302.772Z" transform="translate(-6851.397 -1203.499)" fill="#344154"/>
        <path id="Trazado_108627" data-name="Trazado 108627" d="M6914.725,1207.786a15.2,15.2,0,0,0-5.321,3.194,32.273,32.273,0,0,0-4.1,4.433,51.558,51.558,0,0,0-5.764,10.26c-3.142,7.154-4.853,21.553-5.729,29.173a119.3,119.3,0,0,0,0,23c.149,1.914.432,3.816.646,5.724l.841,5.707,1.1,5.672,1.273,5.637-.893-5.683-.755-5.7-.64-5.7c-.145-1.908-.357-3.8-.444-5.712a129.776,129.776,0,0,1,.317-22.8c.738-7.562,2.473-21.835,5.309-28.971a51.927,51.927,0,0,1,5.338-10.272,31.435,31.435,0,0,1,3.8-4.536,20.419,20.419,0,0,1,2.306-1.931A10.789,10.789,0,0,1,6914.725,1207.786Z" transform="translate(-6849.142 -1204.488)" fill="#344154"/>
        <path id="Trazado_108628" data-name="Trazado 108628" d="M7011.471,1294.235a99.081,99.081,0,0,1-5.874-8.531c-1.839-2.882-3.557-5.857-5.107-8.877a99.364,99.364,0,0,1-4.231-9.223c-1.228-3.147-2.345-6.312-3.527-9.471-2.433-6.3-4.755-19.4-7.6-25.582-1.441-3.09-2.946-6.156-4.68-9.131a46.434,46.434,0,0,0-2.882-4.328,13.091,13.091,0,0,0-3.862-3.655,13.622,13.622,0,0,1,3.539,3.833,45.949,45.949,0,0,1,2.576,4.415c1.591,3.009,2.969,6.1,4.277,9.223,2.623,6.225,4.947,19.3,7.275,25.622,1.222,3.153,2.369,6.306,3.66,9.459a81.433,81.433,0,0,0,4.467,9.223A96.037,96.037,0,0,0,7011.471,1294.235Z" transform="translate(-6884.378 -1207.839)" fill="#344154"/>
        <path id="Trazado_108629" data-name="Trazado 108629" d="M6935.237,1329.362c6.2,13.932,30.47,58.8,45.445,61.493,9.8,1.764,49.083-3.458,55.533-13.033,2.813-4.168-3.205-32.28-8.416-30.995s-36.655,6.623-40.575,5.637-34.2-33.432-45.359-41.341C6922.6,1297.468,6931.9,1321.863,6935.237,1329.362Z" transform="translate(-6865.256 -1247.964)" fill="#ffbf9d"/>
        <path id="Trazado_108630" data-name="Trazado 108630" d="M7013.1,1343.314l2.363,42.517s-31.018,6.819-44.558,2.145c-16.434-5.678-40.488-56.588-43.808-64.958-5.407-13.736-3.908-22.048,3.752-20.02,2.975.767,6.917,3.113,11.69,7.338,5.02,4.4,33.859,32.978,42.961,38.373C6990.616,1351.73,7013.1,1343.314,7013.1,1343.314Z" transform="translate(-6862.554 -1246.058)" fill="#d9a171"/>
        <path id="Trazado_108631" data-name="Trazado 108631" d="M6996.839,1385.557a9.381,9.381,0,0,0-2.34,1.234,9.391,9.391,0,0,0,2.577-.577,9.211,9.211,0,0,0,2.34-1.228A9.141,9.141,0,0,0,6996.839,1385.557Zm-23.367-33.4a9.146,9.146,0,0,0-2.335,1.228,10.126,10.126,0,0,0,4.911-1.822A9.184,9.184,0,0,0,6973.472,1352.158Zm-23.576-20.175a9.363,9.363,0,0,0-2.34,1.234,10.173,10.173,0,0,0,4.917-1.821,9.326,9.326,0,0,0-2.577.582Zm17.137,45.71a9.287,9.287,0,0,0-2.34,1.228,10.123,10.123,0,0,0,4.911-1.822,9.112,9.112,0,0,0-2.571.588Zm27.426-16.387a9.3,9.3,0,0,0-2.34,1.234,9.387,9.387,0,0,0,2.577-.577,9.211,9.211,0,0,0,2.34-1.228,9.128,9.128,0,0,0-2.577.565Zm-41.186-7.436a9.374,9.374,0,0,0-2.305,1.233,9.384,9.384,0,0,0,2.576-.576,9.179,9.179,0,0,0,2.306-1.234,9.383,9.383,0,0,0-2.577.571Zm61.678,23.478c-.1-.392-.225-.778-.357-1.153a9.4,9.4,0,0,0-1.234-2.34,9.191,9.191,0,0,0,.577,2.576,9.64,9.64,0,0,0,1.061,2.11Zm-32.585,2.369a1.332,1.332,0,1,0-.651.236,1.334,1.334,0,1,0,.674-.242Zm-20.6-36.413a1.332,1.332,0,1,0-.657.242,1.332,1.332,0,1,0,.657-.242Zm-22.706-22.354a9.271,9.271,0,0,0-1.227-2.34,10.107,10.107,0,0,0,1.821,4.911,9.082,9.082,0,0,0-.623-2.571Zm32.13,69.488a9.149,9.149,0,0,0-2.507-.807,9.223,9.223,0,0,0,2.236,1.4,9.342,9.342,0,0,0,2.525.783A9.354,9.354,0,0,0,6971.194,1390.438Zm28.285-17.494a9.221,9.221,0,0,0-2.524-.778,10.3,10.3,0,0,0,4.767,2.185,9.538,9.538,0,0,0-2.242-1.43Zm-9.315,23.351a9.126,9.126,0,0,0-2.524-.784,7.531,7.531,0,0,0,1.4.968l1.359-.075Zm-22.872-33.173a9.1,9.1,0,0,0-2.525-.784,10.253,10.253,0,0,0,4.761,2.185,9.225,9.225,0,0,0-2.236-1.424Zm-34.586-30.015a9.11,9.11,0,0,0-2.524-.784,9.216,9.216,0,0,0,2.236,1.4,9.322,9.322,0,0,0,2.525.784,9.318,9.318,0,0,0-2.225-1.424Zm21.443,37.03a8.995,8.995,0,0,0-.778,2.524,9.338,9.338,0,0,0,1.4-2.242,9.5,9.5,0,0,0,.784-2.524,9.375,9.375,0,0,0-1.395,2.219Zm-11.528-23.772a9,9,0,0,0-.778,2.525,9.369,9.369,0,0,0,1.4-2.242,1.327,1.327,0,1,0-.605-.306Zm36.689,19.091a9.321,9.321,0,0,0-.767,2.5,9.077,9.077,0,0,0,1.406-2.237,9.533,9.533,0,0,0,.784-2.524,9.123,9.123,0,0,0-1.406,2.236Zm-54.594-44.6c.058.317.121.634.2.963a8.385,8.385,0,0,0,.576-2.017,6.992,6.992,0,0,0-.755,1.032Z" transform="translate(-6862.922 -1253.029)" fill="#ffbf9d"/>
        <path id="Trazado_108632" data-name="Trazado 108632" d="M7071.71,1419.927c-.542-6.271-1.8-32.021-1.7-37.606,0-.386.253-.473.3-.069,2.063,18.757,1.43,31.467,1.644,37.647C7071.958,1420.037,7071.721,1420.072,7071.71,1419.927Z" transform="translate(-6926.557 -1280.788)" fill="#344154"/>
        <path id="Trazado_108633" data-name="Trazado 108633" d="M6927.143,1323c3.286,8.369,27.352,59.285,43.809,64.958,4.035,1.4,9.684,1.769,15.563,1.613l-56.634-86.815a4.852,4.852,0,0,0-3.891.79C6922.936,1305.961,6923.229,1313.074,6927.143,1323Z" transform="translate(-6862.575 -1246.046)" fill="#d9a171" opacity="0.1" style="isolation: isolate"/>
        <path id="Trazado_108634" data-name="Trazado 108634" d="M6829.278,1389.675l85.161-.225-4.709-29.282s6.733-8.174,5.459-17.039c-1.395-9.713-18.912-34.338-20.383-35.739-5.931-5.568-12.209-6.566-18.238-4.56h0C6848.71,1320.377,6829.278,1389.675,6829.278,1389.675Z" transform="translate(-6821.12 -1245.7)" fill="#d9a171"/>
        <path id="Trazado_108635" data-name="Trazado 108635" d="M6839.861,1374.5a11.4,11.4,0,0,0-1.436.657l-.173.49a11.085,11.085,0,0,0,1.845-.508,9.127,9.127,0,0,0,2.341-1.234A9.166,9.166,0,0,0,6839.861,1374.5Zm30.77-55.914a9.4,9.4,0,0,0-2.306,1.234,9.347,9.347,0,0,0,2.571-.576,9.123,9.123,0,0,0,2.34-1.234,9.374,9.374,0,0,0-2.605.565Zm40.183,8.278a7.822,7.822,0,0,0-1.153.7,7.07,7.07,0,0,0,1.412-.23C6911,1327.182,6910.906,1327.027,6910.814,1326.865Zm-21.939,12.745a9.373,9.373,0,0,0-2.34,1.228,10.167,10.167,0,0,0,4.917-1.822A9.162,9.162,0,0,0,6888.875,1339.61Zm-10.952,33.346a9.283,9.283,0,0,0-2.34,1.227,9.365,9.365,0,0,0,2.577-.576,9.2,9.2,0,0,0,2.306-1.234,9.08,9.08,0,0,0-2.524.582Zm37.468-24.735a9.354,9.354,0,0,0-2.306,1.234,9.375,9.375,0,0,0,2.577-.577,9.174,9.174,0,0,0,2.305-1.233,9.373,9.373,0,0,0-2.565.576Zm-55.879,1.487a9.343,9.343,0,0,0-2.306,1.228,10.127,10.127,0,0,0,4.911-1.822,9.176,9.176,0,0,0-2.594.594Zm42,22.337a9.291,9.291,0,0,0-2.34,1.228,9.367,9.367,0,0,0,2.576-.577,9.254,9.254,0,0,0,2.335-1.234,9.083,9.083,0,0,0-2.56.582Zm-22.579-65.891-.172-.427c-.19.133-.375.271-.577.409.034.086.063.167.092.253a9.2,9.2,0,0,0,1.233,2.317A9.376,9.376,0,0,0,6878.937,1306.155Zm-21.259,67.638a9.368,9.368,0,0,0-1.227-2.34,10.168,10.168,0,0,0,1.821,4.917A9.132,9.132,0,0,0,6857.678,1373.792Zm30.62-13.333a9.308,9.308,0,0,0-1.228-2.305,10.119,10.119,0,0,0,1.822,4.911A9.177,9.177,0,0,0,6888.3,1360.459Zm-10.831-28.741a9.377,9.377,0,0,0-1.233-2.334,10.333,10.333,0,0,0,1.822,4.911,9.383,9.383,0,0,0-.588-2.577Zm37.629,48.887a9.112,9.112,0,0,0-1.228-2.34,9.373,9.373,0,0,0,.577,2.577,9.261,9.261,0,0,0,1.233,2.335,9.122,9.122,0,0,0-.582-2.571Zm-13.933-65.3a9.255,9.255,0,0,0-1.228-2.34,10.122,10.122,0,0,0,1.822,4.911A9.082,9.082,0,0,0,6901.164,1315.308Zm-32.654,47.417a9.229,9.229,0,0,0-2.525-.778,10.3,10.3,0,0,0,4.767,2.185,9.574,9.574,0,0,0-2.242-1.407Zm30.245,27.79a7.26,7.26,0,0,0,.939.692h1.372A8.631,8.631,0,0,0,6898.755,1390.515Zm-49.965-4.934a9.321,9.321,0,0,0-2.525-.784,9.081,9.081,0,0,0,2.243,1.407,9.45,9.45,0,0,0,2.519.784A9.036,9.036,0,0,0,6848.79,1385.58Zm51.584-29.911a9.234,9.234,0,0,0-2.519-.784,9.09,9.09,0,0,0,2.236,1.407,9.335,9.335,0,0,0,2.525.778,9.346,9.346,0,0,0-2.243-1.4Zm-5.528-28.245a9.141,9.141,0,0,0-2.525-.784,10.257,10.257,0,0,0,4.761,2.184,9.31,9.31,0,0,0-2.236-1.383Zm-33.167,7.816a9.092,9.092,0,0,0-.784,2.525,9.265,9.265,0,0,0,1.4-2.242,9.051,9.051,0,0,0,.784-2.519,9.226,9.226,0,0,0-1.4,2.254Zm26.723,46.339a1.326,1.326,0,1,0,1.406-2.191,9.5,9.5,0,0,0-1.406,2.208Zm16.365-40.9a8.98,8.98,0,0,0-.778,2.525,9.351,9.351,0,0,0,1.4-2.242,1.337,1.337,0,1,0-.622-.265Zm-36.575,43.279a9.325,9.325,0,0,0-.784,2.565,9.037,9.037,0,0,0,1.406-2.237,1.328,1.328,0,1,0-.622-.311Zm-18.492-21.178a9.272,9.272,0,0,0-.784,2.525,10.151,10.151,0,0,0,2.185-4.767A9.343,9.343,0,0,0,6849.7,1362.783Zm26.043-13.725a9.031,9.031,0,0,0-.784,2.52,10.258,10.258,0,0,0,2.185-4.761A9.379,9.379,0,0,0,6875.744,1349.058Zm10.486-32.7a9,9,0,0,0-.784,2.519,9.222,9.222,0,0,0,1.4-2.236,1.337,1.337,0,1,0-.616-.265Z" transform="translate(-6825.051 -1247.386)" fill="#ffbf9d"/>
        <path id="Trazado_108636" data-name="Trazado 108636" d="M6962.155,1332.752c1.648,2.744,3.459,5.39,5.188,8.07-.7-1.914-1.377-3.828-2.139-5.713a.035.035,0,0,1,.058-.034,39.8,39.8,0,0,1,2.945,7.125,54.147,54.147,0,0,1,3.458,6.34,25.384,25.384,0,0,1,2.306,8.336,21.411,21.411,0,0,1-1.211,8.577,55.507,55.507,0,0,1-4.312,9.084c-.22.386-.756.029-.577-.357,2.416-5.153,5.084-10.572,4.842-16.411s-2.929-11.1-5.563-16.105a79.874,79.874,0,0,0-5.188-8.836C6961.885,1332.747,6962.08,1332.626,6962.155,1332.752Z" transform="translate(-6879.228 -1259.199)" fill="#344154"/>
        <path id="Trazado_108637" data-name="Trazado 108637" d="M7008.849,1446.932l-1.729,9.678H7060.8a6.577,6.577,0,0,0,6.237-5.274l.773-4.4Z" transform="translate(-6899.015 -1309.234)" fill="#dbdbdb"/>
        <path id="Trazado_108638" data-name="Trazado 108638" d="M6999.364,1451.336l.777-4.4h10.543l-.779,4.4a6.564,6.564,0,0,1-6.2,5.274,4.385,4.385,0,0,1-3.458-1.545A4.528,4.528,0,0,1,6999.364,1451.336Z" transform="translate(-6895.576 -1309.234)" fill="#aed3f2"/>
        <path id="Trazado_108639" data-name="Trazado 108639" d="M7030.42,1320.007l-13.875,78.7h48.42a6.577,6.577,0,0,0,6.2-5.274l13.875-78.7h-48.419a6.259,6.259,0,0,0-4,1.545A6.462,6.462,0,0,0,7030.42,1320.007Z" transform="translate(-6903.143 -1251.331)" fill="#6595bf"/>
        <path id="Trazado_108640" data-name="Trazado 108640" d="M7050.086,1314.733l-2.8,15.9h58.945l1.874-10.624a4.306,4.306,0,0,0-4.341-5.274Z" transform="translate(-6916.607 -1251.331)" fill="#aed3f2"/>
        <path id="Trazado_108641" data-name="Trazado 108641" d="M7039.773,1320.007l-1.874,10.624h10.543l1.874-10.624a4.3,4.3,0,0,0-4.341-5.274,6.258,6.258,0,0,0-4,1.545A6.459,6.459,0,0,0,7039.773,1320.007Z" transform="translate(-6912.496 -1251.331)" fill="#6595bf"/>
        <path id="Trazado_108642" data-name="Trazado 108642" d="M7101.588,1368.889c1.971,5.62,7.655,12.935,7.718,17.362a5.084,5.084,0,0,1-3.372,5.032s4.127,2.634,3.522,6.657c-.312,2.07-3.9,3.389-3.9,3.389s3.217,2.254,2.456,5.8c-.605,2.824-4.1,3.723-4.1,3.723s2.075,3.6.536,6.283c-3.124,5.43-27.778,2.813-30.62-6.675-1.326-4.421,4.663-3.458,4.663-3.458s-8.277-3.458-7.862-8.565,8.11-3.373,8.11-3.373-7.989-3.429-7.032-8.675c1-5.453,8.41-2.409,8.41-2.409s-5.09-4.295-3.459-8.139c2.727-6.34,12.232,3.009,17.789,2.306l3.937-8.646Z" transform="translate(-6926.824 -1275.051)" fill="#ffbf9d"/>
        <path id="Trazado_108643" data-name="Trazado 108643" d="M7126.7,1368.115c-1.4-5.482,5.822-11.3,5.234-16.716-.79-7.35-9.626-1.153-12.532,9.079l-.858,8.329Z" transform="translate(-6947.816 -1265.982)" fill="#ffbf9d"/>
        <path id="Trazado_108644" data-name="Trazado 108644" d="M7109.143,1440.382a.063.063,0,0,1,0,.127c-8.323,1.118-17.8-.207-25.236-4.214-.248-.126-.139-.576.162-.49A88.121,88.121,0,0,0,7109.143,1440.382Z" transform="translate(-6932.587 -1304.355)" fill="#344154"/>
        <path id="Trazado_108645" data-name="Trazado 108645" d="M7111.589,1421.563c.1,0,.092.161,0,.173-8.583,1.107-19.218-.68-27.248-6.306-.271-.19-.329-.64,0-.444C7089.961,1418.323,7103.577,1421.4,7111.589,1421.563Z" transform="translate(-6932.739 -1295.22)" fill="#344154"/>
        <path id="Trazado_108646" data-name="Trazado 108646" d="M7086.542,1394.675c7.9,5.1,16.647,7.142,25.939,7.949.122,0,.092.185,0,.2-4.646.842-10.508-.294-14.986-1.562a24.7,24.7,0,0,1-11.1-6.312C7086.237,1394.831,7086.369,1394.572,7086.542,1394.675Z" transform="translate(-6933.706 -1286.335)" fill="#344154"/>
        <path id="Trazado_108647" data-name="Trazado 108647" d="M6921.023,1283.878c.116,1.5,5.569,11.938,12.221,12.647,2.167.225,3.931-11.529,3.931-11.529l.334-.836,4.611-11.754-12.883-11.378-1.88-1.528s-1.043,3.3-2.306,7.413c-.058.19-.121.386-.178.577s-.156.45-.22.668c-.2.611-.392,1.239-.576,1.868-.144.479-.282.94-.415,1.447s-.271,1-.415,1.5A80.7,80.7,0,0,0,6921.023,1283.878Z" transform="translate(-6861.303 -1227.139)" fill="#ffbf9d"/>
        <path id="Trazado_108648" data-name="Trazado 108648" d="M6928.164,1266.883a25.32,25.32,0,0,0,12.474,17.247l4.611-11.753L6932.366,1261l-1.88-1.527S6929.426,1262.767,6928.164,1266.883Z" transform="translate(-6864.432 -1227.125)" fill="#344154"/>
        <path id="Trazado_108649" data-name="Trazado 108649" d="M6964.356,1234.02c-2.917,21.95-16.394,22.683-21.125,22.048-4.295-.576-18.855-3.084-18.222-25.219s11.766-27.72,21.663-26.925S6967.279,1212.064,6964.356,1234.02Z" transform="translate(-6863.041 -1202.765)" fill="#ffbf9d"/>
        <path id="Trazado_108650" data-name="Trazado 108650" d="M6987.248,1251.2a14.26,14.26,0,0,1-1.407-.611,2.433,2.433,0,0,1-1.308-.894.777.777,0,0,1,.2-.939,1.952,1.952,0,0,1,1.977-.064,2.881,2.881,0,0,1,1.562,1.354.841.841,0,0,1-1.02,1.153Z" transform="translate(-6889.086 -1222.299)" fill="#344154"/>
        <path id="Trazado_108651" data-name="Trazado 108651" d="M6962.43,1245a15.033,15.033,0,0,0,1.527,0,2.489,2.489,0,0,0,1.563-.311.79.79,0,0,0,.19-.94,1.958,1.958,0,0,0-1.8-.836,2.884,2.884,0,0,0-1.966.634.842.842,0,0,0,.484,1.453Z" transform="translate(-6879.111 -1219.868)" fill="#344154"/>
        <path id="Trazado_108652" data-name="Trazado 108652" d="M6965.365,1255.209c0-.063-.127.046-.139.11-.219,1.493-.721,3.164-2.156,3.412-.041,0-.052.086,0,.086C6964.748,1258.9,6965.394,1256.656,6965.365,1255.209Z" transform="translate(-6879.706 -1225.251)" fill="#344154"/>
        <path id="Trazado_108653" data-name="Trazado 108653" d="M6963.441,1251.992c-2.352-.611-3.407,4.144-1.223,4.709S6965.413,1252.5,6963.441,1251.992Z" transform="translate(-6878.825 -1223.826)" fill="#344154"/>
        <path id="Trazado_108654" data-name="Trazado 108654" d="M6961.325,1251.526c-.472.179-.986.577-1.493.5-.577-.069-.922-.669-1.193-1.227-.029-.058-.081-.029-.092.034a1.769,1.769,0,0,0,.876,2.271c.859.323,1.678-.34,2.11-1.2C6961.612,1251.739,6961.521,1251.457,6961.325,1251.526Z" transform="translate(-6877.7 -1223.314)" fill="#344154"/>
        <path id="Trazado_108655" data-name="Trazado 108655" d="M6982.45,1257.688c0-.052.1.1.08.161-.386,1.458-.576,3.193.641,3.983.04.029,0,.1-.028.081C6981.568,1261.3,6981.851,1259,6982.45,1257.688Z" transform="translate(-6888 -1226.34)" fill="#344154"/>
        <path id="Trazado_108656" data-name="Trazado 108656" d="M6984.211,1255.459c2.409.363,1.5,5.147-.72,4.813S6982.2,1255.159,6984.211,1255.459Z" transform="translate(-6888.101 -1225.363)" fill="#344154"/>
        <path id="Trazado_108657" data-name="Trazado 108657" d="M6987.214,1256.341c.328.323.616.853,1.066.969s1-.311,1.423-.744c.046-.046.075,0,.069.063-.15.922-.634,1.816-1.545,1.828s-1.268-.888-1.314-1.839C6986.9,1256.44,6987.081,1256.209,6987.214,1256.341Z" transform="translate(-6890.163 -1225.738)" fill="#344154"/>
        <path id="Trazado_108658" data-name="Trazado 108658" d="M6962.874,1277.772c.259.432.478,1,1,1.153a4.034,4.034,0,0,0,1.66.058.052.052,0,0,1,.046.092,2.04,2.04,0,0,1-2.063.288,1.587,1.587,0,0,1-.8-1.591C6962.718,1277.708,6962.845,1277.708,6962.874,1277.772Z" transform="translate(-6879.56 -1235.121)" fill="#344154"/>
        <path id="Trazado_108659" data-name="Trazado 108659" d="M6971.7,1259.292s-.156,2.266-.375,3.308c0,.1-.283.087-.64.035a.036.036,0,0,1-.041,0,5.062,5.062,0,0,1-4.415-2.848.11.11,0,0,1,.185-.115,7.57,7.57,0,0,0,4.248,2.236c.133-.271.133-3.891.3-3.868a9.1,9.1,0,0,1,2.254,1.026c.461-4.715.161-9.465.692-14.152a.144.144,0,1,1,.288,0c.663,4.958.248,10.376-.1,15.276C6974.056,1260.785,6972.079,1259.558,6971.7,1259.292Z" transform="translate(-6881.099 -1220.688)" fill="#344154"/>
        <path id="Trazado_108660" data-name="Trazado 108660" d="M6925.339,1230.285c5.072,1.037,6.594-6.981,6.594-6.981s5.862.577,8.1-8.618c0,0,1.677,6.156,9.263,8.82,1.608.577-3.1-4.8-3.1-4.8s5.47,7.3,18.244,7.425c.9,0,2.612-13.425-6.19-19.743a22.5,22.5,0,0,0-26.222-.5s-6.917,2.433-9.01,8.987S6923.367,1229.881,6925.339,1230.285Z" transform="translate(-6861.826 -1201.917)" fill="#344154"/>
        <path id="Trazado_108661" data-name="Trazado 108661" d="M6953.639,1258.963a7.35,7.35,0,1,1,9.326-6.917h0a7.359,7.359,0,0,1-7.493,7.171A7.185,7.185,0,0,1,6953.639,1258.963Zm3.7-13.212a4.853,4.853,0,1,0,.017,0Z" transform="translate(-6873.237 -1220.583)" fill="#aed3f2"/>
        <path id="Trazado_108662" data-name="Trazado 108662" d="M6984.521,1263.428c-2.7-.755-4.387-4.213-3.793-8a8.763,8.763,0,0,1,2.306-4.836,4.577,4.577,0,0,1,7.736,1.217,8.755,8.755,0,0,1,.738,5.314c-.628,4-3.562,6.877-6.543,6.41A3.264,3.264,0,0,1,6984.521,1263.428Zm2.963-13.362a2.566,2.566,0,0,0-.363-.08,3.937,3.937,0,0,0-3.366,1.3,7.843,7.843,0,0,0-2.058,4.295c-.542,3.458,1,6.6,3.458,6.986s4.876-2.127,5.424-5.591a7.833,7.833,0,0,0-.64-4.721,4.034,4.034,0,0,0-2.484-2.185Z" transform="translate(-6887.402 -1222.524)" fill="#aed3f2"/>
        <path id="Trazado_108663" data-name="Trazado 108663" d="M6973.39,1258.058l-.507-.842c1.245-.755,3.983-1.6,5.459.577l-.813.577C6976.208,1256.4,6973.505,1257.989,6973.39,1258.058Z" transform="translate(-6884.019 -1225.783)" fill="#aed3f2"/>
        <path id="Trazado_108664" data-name="Trazado 108664" d="M6915.1,1250.322l-.79-.577c.271-.369,2.71-3.609,4.935-3.62,2.075,0,14.889,3.257,15.437,3.4l-.248.951c-3.671-.94-13.58-3.373-15.183-3.366C6917.776,1247.135,6915.753,1249.452,6915.1,1250.322Z" transform="translate(-6858.362 -1221.281)" fill="#aed3f2"/>
        <path id="Trazado_108665" data-name="Trazado 108665" d="M6924.093,1250.35s-3.223-7.8-6.658-6.8-2.064,11.575,1.233,13.713a3.747,3.747,0,0,0,5.246-.748q.048-.063.092-.128Z" transform="translate(-6858.856 -1220.115)" fill="#ffbf9d"/>
        <path id="Trazado_108666" data-name="Trazado 108666" d="M6919.829,1249a.052.052,0,0,0-.041.092c2.306,1.585,3.1,4.214,3.488,6.842a2.06,2.06,0,0,0-2.882-1.222.081.081,0,0,0,.035.15,2.306,2.306,0,0,1,2.306,1.337,10.663,10.663,0,0,1,.744,2.265c.069.248.5.219.472-.057v-.063C6924.683,1255.142,6923.184,1250.086,6919.829,1249Z" transform="translate(-6860.754 -1222.538)" fill="#344154"/>
        <path id="Trazado_108667" data-name="Trazado 108667" d="M6934.336,1304.57l-3.1,10.122-13.206-11.344-3.107,4.26s13.563,18.659,13.563,17.76l3.314-8.773,6.34,5.372-1.729-14.687Z" transform="translate(-6858.632 -1246.344)" fill="#aed3f2"/>
        <path id="Trazado_108668" data-name="Trazado 108668" d="M6937.466,1317.76c-.364-2.416-.663-4.86-1.153-7.257,0-.081-.156-.109-.167,0-.288,2.386,1.152,11.615,1.337,13.834h0c-.265-.237-5.833-4.7-5.88-4.612-.76,1.412-3.2,7.805-3.354,8.382-2.144-2.963-11.171-14.6-13.65-17.363a.083.083,0,0,0-.115-.023.084.084,0,0,0-.023.116c1.943,3.158,13.638,18.532,13.777,18.48a95.2,95.2,0,0,0,3.458-9.275c.962.991,6.635,6.093,6.623,5.729A75.647,75.647,0,0,0,6937.466,1317.76Z" transform="translate(-6858.423 -1249.446)" fill="#344154"/>
        <path id="Trazado_108669" data-name="Trazado 108669" d="M6871.759,1328.671c-5.131,22.1-19.662,46.824-28.862,54.092-5.6,4.421-23.536,4.462-24.337-7.142s34.407-47.97,39.589-55.043S6876.393,1308.732,6871.759,1328.671Z" transform="translate(-6816.419 -1251.209)" fill="#ffbf9d"/>
        <path id="Trazado_108670" data-name="Trazado 108670" d="M6871.759,1328.671c-5.131,22.1-19.662,46.824-28.862,54.092-5.6,4.421-23.536,4.462-24.337-7.142s34.407-47.97,39.589-55.043S6876.393,1308.732,6871.759,1328.671Z" transform="translate(-6816.419 -1251.209)" fill="#d9a171"/>
        <path id="Trazado_108671" data-name="Trazado 108671" d="M6831.232,1384.075a9.362,9.362,0,0,0-2.306,1.234,9.348,9.348,0,0,0,2.571-.577,9.112,9.112,0,0,0,2.34-1.234A9.173,9.173,0,0,0,6831.232,1384.075Zm30.77-55.914a9.4,9.4,0,0,0-2.306,1.234,9.347,9.347,0,0,0,2.571-.576,9.123,9.123,0,0,0,2.34-1.234,9.369,9.369,0,0,0-2.605.565Zm-11.107,31.128a9.336,9.336,0,0,0-2.306,1.227,10.118,10.118,0,0,0,4.911-1.821,9.178,9.178,0,0,0-2.605.588Zm-8.779-9.88a9.289,9.289,0,0,0-1.205-2.364,9.393,9.393,0,0,0,.577,2.577,9.188,9.188,0,0,0,1.233,2.34A9.343,9.343,0,0,0,6842.115,1349.409Zm-14.33,21.99a9.38,9.38,0,0,0-1.233-2.34,10.168,10.168,0,0,0,1.821,4.917A9.364,9.364,0,0,0,6827.785,1371.4Zm20.042,9.627a8.048,8.048,0,0,0,.416,2.052l.455-.576A7.818,7.818,0,0,0,6847.828,1381.026Zm21.017-39.734a9.393,9.393,0,0,0-1.233-2.334,9.131,9.131,0,0,0,.577,2.571,9.9,9.9,0,0,0,.985,2c.046-.15.1-.294.144-.444h0a11,11,0,0,0-.478-1.793Zm-32.73,18.492a9.3,9.3,0,0,0-2.524-.778,9.23,9.23,0,0,0,2.237,1.4,9.336,9.336,0,0,0,2.525.783A9.521,9.521,0,0,0,6836.114,1359.784Zm16.936-14.987a9.1,9.1,0,0,0-.784,2.525,9.256,9.256,0,0,0,1.4-2.242,9.05,9.05,0,0,0,.784-2.519,9.206,9.206,0,0,0-1.4,2.271Zm-11.979,27.559a9.27,9.27,0,0,0-.784,2.524,10.151,10.151,0,0,0,2.185-4.767A9.342,9.342,0,0,0,6841.072,1372.356Zm-22.1,7.735c-.15.34-.294.686-.415,1.044a1.513,1.513,0,0,0,0,.23,5.417,5.417,0,0,0,.069.7,10.766,10.766,0,0,0,.957-1.689,9.461,9.461,0,0,0,.783-2.525A9.264,9.264,0,0,0,6818.972,1380.092Z" transform="translate(-6816.422 -1256.96)" fill="#ffbf9d"/>
        <path id="Trazado_108672" data-name="Trazado 108672" d="M6834.192,1392.721a23.629,23.629,0,0,0,7.3.04,19.723,19.723,0,0,0,6.727-2.4c4.392-2.524,7.332-6.8,9.943-11.01q4.295-6.918,8.07-14.169c2.508-4.825,4.808-9.759,7.027-14.722,1.124-2.5,2.144-5.038,3.21-7.563s2.075-5.02,3-7.574c.235-.646.455-1.292.68-1.937a.048.048,0,0,1,.061-.032.049.049,0,0,1,.032.061h0c-.831,2.64-1.62,5.309-2.513,7.926-.115.34-.243.68-.363,1.02.928-1.977,1.879-3.942,2.882-5.885.058-.115.219,0,.173.1-.888,2.018-1.81,4.035-2.755,6q-.7,1.47-1.413,2.928c-.45,1.21-.917,2.427-1.4,3.632q-3.1,7.747-6.882,15.166t-8.163,14.532c-2.669,4.363-5.533,8.848-9.851,11.759a18.792,18.792,0,0,1-14.094,2.842,13.026,13.026,0,0,1-1.729-.5.115.115,0,0,1,.052-.219Z" transform="translate(-6823.221 -1259.485)" fill="#344154"/>
        <path id="Trazado_108673" data-name="Trazado 108673" d="M6849.546,1256.621c3.66-8.906,9.6-21.121,13.586-22.988,4.2-1.942,19.223-8.168,23.184-8.485s18,3.787,20.538,6.278c2.023,1.995-1.487,6.744-9.488,6.064-7.494-.64-9.223-1.153-11.4-.824s-8.6,5.517-8.035,8.687c.334,1.862,4.687,5.073,8.07,4.49s5.418-3.891,9.6-5.822,10.174,0,10.1,1.729-2.306,1.983-6.837,6.767c-2.928,3.072-5.037,9.177-11.176,14.186-3.085,2.513-9.189,9.753-9.189,9.753Z" transform="translate(-6829.997 -1212.084)" fill="#ffbf9d"/>
        <path id="Trazado_108674" data-name="Trazado 108674" d="M6873.721,1231.535c4.127-3.856,13.782-10.237,21.961-11.171,5.528-.64,20.671,12.254,19.311,15.431s-4.312,2.432-8.56.784c-1.545-.577-9.223-5.8-11.1-4.4-2.721,2.011-7.586,10.03-7.586,10.03Z" transform="translate(-6840.586 -1209.987)" fill="#ffbf9d"/>
        <path id="Trazado_108675" data-name="Trazado 108675" d="M6939.341,1237.669c-1.228-4.093-5.441-7.194-9.735-9.891-.069-.046-.138.058-.069.1,1.089.692,7.81,6.162,9.735,9.834C6939.295,1237.75,6939.353,1237.71,6939.341,1237.669Z" transform="translate(-6865.021 -1213.239)" fill="#344154"/>
        <path id="Trazado_108676" data-name="Trazado 108676" d="M6873.721,1231.537c4.127-3.856,13.782-10.237,21.961-11.171,5.528-.64,16.446,13.678,15.091,16.86s-5.678,2.346-9.949-.5c-1.383-.922-5.551-5.81-7.442-4.415-2.727,2.011-9.39,7.032-9.39,7.032Z" transform="translate(-6840.586 -1209.989)" fill="#ffbf9d"/>
        <path id="Trazado_108677" data-name="Trazado 108677" d="M6898.871,1235.973c.657-.577.889-.818,1.557-1.412s1.343-1.153,2.052-1.729a6.691,6.691,0,0,1,1.971-1.234,3.424,3.424,0,0,1,2.185.121c1.591.576,2.8,1.983,3.972,3.135,1.314,1.28,4.145,3.539,6.664,3.908a4.96,4.96,0,0,0,2.063,0,3.138,3.138,0,0,0,1.4-.628c1.522-1.528.726-3.925-.254-5.764a31.829,31.829,0,0,0-7.608-8.646c-.709-.605-1.436-1.194-2.156-1.781a7.493,7.493,0,0,0-2.755-1.62c-1.7-.45-4.935.577-5.932.865-.075,0-.1-.1,0-.121,1.211-.386,4.352-1.839,7.061-.991a8.978,8.978,0,0,1,2.612,1.695c.813.628,1.683,1.349,2.5,2.057a39.868,39.868,0,0,1,4.438,4.444,16.656,16.656,0,0,1,3.24,5.147,4.879,4.879,0,0,1-.963,4.975,4.321,4.321,0,0,1-3.511.853,8.339,8.339,0,0,1-2.161-.577,34.792,34.792,0,0,1-4.353-2.588c-1.337-.974-2.421-2.306-3.833-3.182a2.965,2.965,0,0,0-2.26-.427,7.727,7.727,0,0,0-2.052,1.09,23.82,23.82,0,0,0-3.62,2.571C6898.8,1236.389,6898.595,1236.227,6898.871,1235.973Z" transform="translate(-6851.544 -1209.756)" fill="#344154"/>
        <path id="Trazado_108678" data-name="Trazado 108678" d="M6868.018,1229.684c1.644-1.914,5.765-10.491,8.243-12.814s12.9-9.857,16.515-8.485c4.542,1.729-2.5,8.9-5.845,11.736s-4.444,8.848-4.444,8.848Z" transform="translate(-6838.087 -1204.678)" fill="#ffbf9d"/>
        <path id="Trazado_108679" data-name="Trazado 108679" d="M6903.159,1220.755c-1.153.876-2.237,1.9-3.3,2.883a28.356,28.356,0,0,0-2.975,2.882,12.394,12.394,0,0,0-1.9,3.614,18.851,18.851,0,0,0-.576,1.931c-.162.651-.312,1.447-.514,2.15,0,.075.093.121.115.041a31.778,31.778,0,0,1,1.5-3.747,17.321,17.321,0,0,1,2.167-3.557c1.729-2.167,3.886-3.937,5.626-6.093C6903.372,1220.79,6903.245,1220.692,6903.159,1220.755Z" transform="translate(-6849.422 -1210.159)" fill="#344154"/>
        <path id="Trazado_108680" data-name="Trazado 108680" d="M6911.337,1263.708a6,6,0,0,0,4.253-1.435c1.107-.83,2.162-1.729,3.274-2.554a14.3,14.3,0,0,1,3.545-2.092,16.492,16.492,0,0,1,4.554-.761,8.9,8.9,0,0,1,4.381.64c1.118.531,2.306,1.689,1.689,3.049a5.3,5.3,0,0,1-1.257,1.6,13.2,13.2,0,0,1-1.556,1.268c-1.1.79-2.271,1.5-3.3,2.4a20.99,20.99,0,0,0-3.309,4.335c-.375.576-2.767,4.346-3.678,5.632a22.868,22.868,0,0,1-2.565,3.066,31.869,31.869,0,0,1-2.945,2.4,18.571,18.571,0,0,0-3.073,2.749c-.04.052-.109,0-.081-.069,1.153-2.121,3.263-3.545,5.188-4.951,2.461-1.822,7.926-11.229,8.917-12.509,1.649-2.127,4.15-3.147,6.029-5,.433-.427,1.1-1.032,1.084-1.7a1.884,1.884,0,0,0-1.153-1.435,7.628,7.628,0,0,0-4.289-.5,19.6,19.6,0,0,0-4.369.72,14.388,14.388,0,0,0-3.493,1.828c-1.233.853-2.416,1.729-3.713,2.5a6.046,6.046,0,0,1-4.173.934C6911.233,1263.807,6911.268,1263.7,6911.337,1263.708Z" transform="translate(-6857.03 -1225.963)" fill="#344154"/>
        <path id="Trazado_108681" data-name="Trazado 108681" d="M6945.04,1233.122c-.985-.484-1.966-1.009-2.969-1.464v-.046c1.188.473,2.41.864,3.6,1.326a3.676,3.676,0,0,1,2.306,1.885,2.778,2.778,0,0,1-.577,2.721,7.427,7.427,0,0,1-2.605,1.764c-.052.029-.092-.052-.04-.08,1.435-.83,3.66-2.5,2.49-4.41A5.064,5.064,0,0,0,6945.04,1233.122Z" transform="translate(-6870.523 -1214.923)" fill="#344154"/>
        <path id="Trazado_108682" data-name="Trazado 108682" d="M6938.771,1248.756a6.352,6.352,0,0,0,3.366-.577,2.4,2.4,0,0,0,1.228-1.821,1.2,1.2,0,0,0-.109-.813c-.046-.058.063-.11.081-.041a3.759,3.759,0,0,0,.179.438,1.884,1.884,0,0,1,.086.392,2.112,2.112,0,0,1-.063.79,2.554,2.554,0,0,1-1,1.378,4.278,4.278,0,0,1-3.788.357A.054.054,0,0,1,6938.771,1248.756Z" transform="translate(-6869.055 -1220.994)" fill="#344154"/>
        <path id="Trazado_108683" data-name="Trazado 108683" d="M6863.571,1300.425c-2.456,8.859-21.121,56.109-26.308,62.779s-17.806,8.1-21.328-3.949,14.814-69.662,18.688-78.677C6836.784,1275.563,6864.453,1297.214,6863.571,1300.425Z" transform="translate(-6815.079 -1236.042)" fill="#ffbf9d"/>
        <path id="Trazado_108684" data-name="Trazado 108684" d="M6867.334,1310.548l-36.626-21.241s-15.668,53.74-15.944,70.312c-.2,11.892,14.053,20.781,25.316,4.7S6867.334,1310.548,6867.334,1310.548Z" transform="translate(-6814.762 -1240.194)" fill="#d9a171"/>
        <path id="Trazado_108685" data-name="Trazado 108685" d="M6833.2,1290.517a9.614,9.614,0,0,0-1.354,2.173,9.323,9.323,0,0,0-.778,2.525,9.223,9.223,0,0,0,1.4-2.236,9.409,9.409,0,0,0,.771-2.462h-.04Zm-11.8,51.244a1.338,1.338,0,1,0,1.406-2.248A9.635,9.635,0,0,0,6821.4,1341.761Zm-2.71,22.094a1.332,1.332,0,1,0,.611.283,9.478,9.478,0,0,0,.784-2.525,9.253,9.253,0,0,0-1.4,2.242Zm22.1-7.735a9.274,9.274,0,0,0-.784,2.524,10.152,10.152,0,0,0,2.186-4.767,9.329,9.329,0,0,0-1.4,2.242Zm12.313-54.075v.162l.1-.121Zm-.334,26.568a9.108,9.108,0,0,0-.784,2.525,9.221,9.221,0,0,0,1.4-2.242,9.037,9.037,0,0,0,.784-2.519,9.219,9.219,0,0,0-1.4,2.219Zm-16.89-6.018a9.087,9.087,0,0,0-.783,2.507,10.3,10.3,0,0,0,2.184-4.767,9.369,9.369,0,0,0-1.4,2.242Zm12.543-6.37a9.329,9.329,0,0,0-2.524-.784,9.057,9.057,0,0,0,2.236,1.407,9.339,9.339,0,0,0,2.525.761,9.317,9.317,0,0,0-2.237-1.4Zm-12.59,27.323a9.3,9.3,0,0,0-2.524-.778,9.217,9.217,0,0,0,2.237,1.4,9.334,9.334,0,0,0,2.524.783A9.514,9.514,0,0,0,6835.83,1343.548Zm-5.475-33.767a9.222,9.222,0,0,0-2.525-.784,10.148,10.148,0,0,0,4.767,2.184,9.359,9.359,0,0,0-2.242-1.377Zm-2.882,45.359a9.39,9.39,0,0,0-1.234-2.34,10.178,10.178,0,0,0,1.822,4.917,9.367,9.367,0,0,0-.56-2.554Zm14.359-21.967a1.334,1.334,0,1,0-.628.213,9.2,9.2,0,0,0,1.233,2.34A9.341,9.341,0,0,0,6841.832,1333.173Zm8.779,9.9a9.326,9.326,0,0,0-2.306,1.228,10.122,10.122,0,0,0,4.911-1.822,9.192,9.192,0,0,0-2.605.57Zm-24.464-12.854a9.184,9.184,0,0,0-2.306,1.234,9.586,9.586,0,0,0,2.577-.577,9.184,9.184,0,0,0,2.306-1.234A9.18,9.18,0,0,0,6826.146,1330.216Zm14.336-26.879a9.42,9.42,0,0,0-2.34,1.234,9.361,9.361,0,0,0,2.577-.577,9.22,9.22,0,0,0,2.34-1.234A9.344,9.344,0,0,0,6840.482,1303.337Zm21.235,8.577a9.355,9.355,0,0,0-2.305,1.234,9.338,9.338,0,0,0,2.571-.577,9.113,9.113,0,0,0,2.34-1.234A9.383,9.383,0,0,0,6861.718,1311.914Zm-30.77,55.913a9.362,9.362,0,0,0-2.306,1.234,9.338,9.338,0,0,0,2.571-.577,9.094,9.094,0,0,0,2.34-1.234,9.187,9.187,0,0,0-2.605.588Z" transform="translate(-6816.138 -1240.724)" fill="#ffbf9d"/>
        <path id="Trazado_108686" data-name="Trazado 108686" d="M6873.93,1323.544c-5.545-2.98-27.808-15.984-32.424-19.12-.323-.219-.26-.478.1-.294,16.854,8.508,27.132,15.956,32.447,19.178A.135.135,0,0,1,6873.93,1323.544Z" transform="translate(-6826.384 -1246.659)" fill="#344154"/>
        <path id="Trazado_108687" data-name="Trazado 108687" d="M6876.714,1359.833c3.868-7.263,7.585-14.6,10.952-22.123q1.4-3.159,2.744-6.34c.859-2.041,1.729-4.087,2.5-6.162-.767-.536-4.133-2.738-4.5-3.078a.147.147,0,0,1,.149-.242c.45.167,4.358,2.433,5.188,3.049.12.087-1.545,4.133-2.306,6.07s-1.533,3.862-2.34,5.765q-2.4,5.689-5.072,11.246c-1.92,4-3.926,7.943-6.053,11.823C6876.126,1363.182,6871.717,1369.188,6876.714,1359.833Z" transform="translate(-6840.887 -1254.461)" fill="#344154"/>
      </g>
      <g id="freepik--Pencil--inject-11" transform="translate(131.293 225.302)">
        <path id="Trazado_108688" data-name="Trazado 108688" d="M7141.8,1489.244s7.182.974,7.447-3.977-6.98-4.756-6.98-4.756Z" transform="translate(-7083.068 -1477.79)" fill="#d9a171"/>
        <rect id="Rectángulo_6957" data-name="Rectángulo 6957" width="8.744" height="50.973" transform="translate(8.136 8.748) rotate(-86.92)" fill="#d9a171"/>
        <rect id="Rectángulo_6958" data-name="Rectángulo 6958" width="10.209" height="2.023" transform="translate(57.248 12.128) rotate(-86.92)" fill="#5e6178"/>
        <rect id="Rectángulo_6959" data-name="Rectángulo 6959" width="10.209" height="2.029" transform="translate(55.007 12.004) rotate(-86.92)" fill="#5e6178"/>
        <path id="Trazado_108689" data-name="Trazado 108689" d="M7045.884,1475.671l-6.456,2.945-2.133.963,2.018,1.211,6.1,3.62,1.313-.813-1.222-.933,1.314-.819-1.222-.928,1.314-.8s-1.2-.928-1.217-.951l1.314-.8-1.222-.951,1.313-.8Z" transform="translate(-7037.295 -1475.671)" fill="#aed3f2"/>
        <path id="Trazado_108690" data-name="Trazado 108690" d="M7039.428,1480.912l-2.132.963,2.017,1.21Z" transform="translate(-7037.295 -1477.967)" fill="#5e6178"/>
      </g>
      <g id="freepik--Calculator--inject-11" transform="translate(36.805 220.656)">
        <path id="Trazado_108691" data-name="Trazado 108691" d="M6929.842,1467.4l7.464,19.276h-68.139l8.145-19.253Z" transform="translate(-6869.167 -1467.404)" fill="#d9a171"/>
        <path id="Trazado_108692" data-name="Trazado 108692" d="M6930.383,1469.9l6.923,17.875v3.268h-68.139v-3.268l7.557-17.858Z" transform="translate(-6869.167 -1468.496)" fill="#d9a171"/>
        <path id="Trazado_108693" data-name="Trazado 108693" d="M6929.842,1467.4l7.464,19.276h-68.139l8.145-19.253Z" transform="translate(-6869.167 -1467.404)" fill="#d9a171" opacity="0.1" style="isolation: isolate"/>
        <path id="Trazado_108694" data-name="Trazado 108694" d="M6909.38,1492.472l-.427,3.706h-8.277l.8-3.706Z" transform="translate(-6882.968 -1478.384)" fill="#ffbf9d"/>
        <path id="Trazado_108695" data-name="Trazado 108695" d="M6910.575,1485l-.433,3.706h-7.856l.8-3.706Z" transform="translate(-6883.673 -1475.113)" fill="#ffbf9d"/>
        <path id="Trazado_108696" data-name="Trazado 108696" d="M6911.765,1477.538l-.427,3.707H6903.9l.8-3.707Z" transform="translate(-6884.378 -1471.843)" fill="#d9a171"/>
        <path id="Trazado_108697" data-name="Trazado 108697" d="M6912.964,1470.071l-.432,3.7-7.016.006.8-3.706Z" transform="translate(-6885.088 -1468.572)" fill="#d9a171"/>
        <path id="Trazado_108698" data-name="Trazado 108698" d="M6925.852,1492.472l-.006,3.706h-8.277l.375-3.706Z" transform="translate(-6890.367 -1478.384)" fill="#5e6178"/>
        <path id="Trazado_108699" data-name="Trazado 108699" d="M6926.185,1485v3.706h-7.857l.375-3.706Z" transform="translate(-6890.699 -1475.113)" fill="#5e6178"/>
        <path id="Trazado_108700" data-name="Trazado 108700" d="M6926.518,1477.538v3.7h-7.441l.375-3.7Z" transform="translate(-6891.027 -1471.843)" fill="#5e6178"/>
        <path id="Trazado_108701" data-name="Trazado 108701" d="M6926.943,1470.061v3.706h-7.015l.369-3.7Z" transform="translate(-6891.4 -1468.568)" fill="#ffbf9d"/>
        <path id="Trazado_108702" data-name="Trazado 108702" d="M6942.277,1492.472l.421,3.706h-8.277l-.052-3.706Z" transform="translate(-6897.726 -1478.384)" fill="#5e6178"/>
        <path id="Trazado_108703" data-name="Trazado 108703" d="M6941.754,1485l.421,3.7-7.856.006-.052-3.706Z" transform="translate(-6897.681 -1475.113)" fill="#5e6178"/>
        <path id="Trazado_108704" data-name="Trazado 108704" d="M6941.231,1477.528l.42,3.706h-7.436l-.052-3.7Z" transform="translate(-6897.636 -1471.838)" fill="#5e6178"/>
        <path id="Trazado_108705" data-name="Trazado 108705" d="M6940.707,1470.061l.421,3.706h-7.015l-.052-3.706Z" transform="translate(-6897.591 -1468.568)" fill="#ffbf9d"/>
        <path id="Trazado_108706" data-name="Trazado 108706" d="M6958.422,1492.472l.847,3.706h-8.284l-.473-3.706Z" transform="translate(-6904.796 -1478.384)" fill="#5e6178"/>
        <path id="Trazado_108707" data-name="Trazado 108707" d="M6957.037,1484.995l.847,3.706h-7.856l-.479-3.7Z" transform="translate(-6904.374 -1475.109)" fill="#5e6178"/>
        <path id="Trazado_108708" data-name="Trazado 108708" d="M6955.652,1477.528l.847,3.706h-7.436l-.479-3.706Z" transform="translate(-6903.952 -1471.838)" fill="#5e6178"/>
        <path id="Trazado_108709" data-name="Trazado 108709" d="M6954.277,1470.051l.847,3.706-7.021.006-.473-3.706Z" transform="translate(-6903.534 -1468.563)" fill="#ffbf9d"/>
        <path id="Trazado_108710" data-name="Trazado 108710" d="M6974.556,1492.472l1.273,3.7-8.277.006-.905-3.706Z" transform="translate(-6911.863 -1478.384)" fill="#5e6178"/>
        <path id="Trazado_108711" data-name="Trazado 108711" d="M6972.319,1484.995l1.273,3.706h-7.862l-.9-3.706Z" transform="translate(-6911.067 -1475.109)" fill="#5e6178"/>
        <path id="Trazado_108712" data-name="Trazado 108712" d="M6970.073,1477.517l1.274,3.707-7.436.006-.905-3.706Z" transform="translate(-6910.269 -1471.834)" fill="#ffbf9d"/>
        <path id="Trazado_108713" data-name="Trazado 108713" d="M6967.836,1470.051l1.274,3.706H6962.1l-.905-3.706Z" transform="translate(-6909.473 -1468.563)" fill="#ffbf9d"/>
        <path id="Trazado_108714" data-name="Trazado 108714" d="M6906.564,1495.846h0c-.328,0-.576-.1-.576-.254s.323-.253.646-.253h0c.329,0,.577.1.577.253S6906.876,1495.846,6906.564,1495.846Zm.063-.369h0c-.189,0-.351.046-.368.115s.138.116.322.116h0c.19,0,.352-.046.363-.116S6906.813,1495.477,6906.628,1495.477Zm1.545.191-1.989-.7a.049.049,0,0,1-.051-.057c.005-.023.069-.058.138-.058h.086l1.994.709a.054.054,0,0,1,.052.052c0,.018-.069.064-.144.064a.19.19,0,0,1-.087-.006Zm-.288-.473h0c-.328,0-.577-.1-.577-.254s.318-.253.634-.253h0c.323,0,.576.1.576.253s-.311.254-.634.254Zm.058-.375h0c-.19,0-.352.052-.363.121s.138.116.317.116h0c.19,0,.352-.046.363-.116s-.138-.121-.317-.121Z" transform="translate(-6885.294 -1479.354)" fill="#5e6178"/>
        <path id="Trazado_108715" data-name="Trazado 108715" d="M6909.643,1481.755c-.6,0-1.049-.253-.992-.576a.577.577,0,0,1,.3-.358.318.318,0,0,1,.242,0c.069.029.075.086,0,.121a.382.382,0,0,0-.208.248.264.264,0,0,0,.167.276,1.089,1.089,0,0,0,.513.116,1.3,1.3,0,0,0,.547-.116.425.425,0,0,0,.265-.276.259.259,0,0,0-.127-.248c-.046-.035-.028-.092.052-.121a.3.3,0,0,1,.236,0,.384.384,0,0,1,.185.358C6910.784,1481.5,6910.254,1481.755,6909.643,1481.755Z" transform="translate(-6886.459 -1473.271)" fill="#5e6178"/>
        <path id="Trazado_108716" data-name="Trazado 108716" d="M6910.929,1479.745h-1.775c-.092,0-.156-.04-.15-.087h0l.092-.5c0-.046.086-.087.179-.087s.161.04.156.087l-.075.415h.576l.058-.357c0-.046.092-.087.179-.087s.161.041.156.087l-.058.357h.577l.069-.415c0-.046.086-.087.179-.087s.156.04.15.087l-.075.5h0A.272.272,0,0,1,6910.929,1479.745Z" transform="translate(-6886.615 -1472.516)" fill="#5e6178"/>
        <path id="Trazado_108717" data-name="Trazado 108717" d="M6911.1,1473.476c-.576,0-.98-.26-.928-.577a.576.576,0,0,1,.289-.357.283.283,0,0,1,.225,0c.069.035.069.093,0,.127a.365.365,0,0,0-.2.248.294.294,0,0,0,.156.277.959.959,0,0,0,.479.109,1.149,1.149,0,0,0,.513-.109.445.445,0,0,0,.254-.277.261.261,0,0,0-.121-.248c-.041-.034,0-.092.052-.127a.248.248,0,0,1,.225,0,.38.38,0,0,1,.167.357C6912.164,1473.216,6911.668,1473.476,6911.1,1473.476Z" transform="translate(-6887.124 -1469.643)" fill="#5e6178"/>
        <path id="Trazado_108718" data-name="Trazado 108718" d="M6923.271,1495.169l1.966.386c.069,0,.109.041.109.075a.068.068,0,0,1,0,.034.332.332,0,0,1-.248.046l-1.729-.334v.4c0,.046-.092.087-.2.087s-.184-.041-.178-.087l.034-.53h0l.035-.035h.225Z" transform="translate(-6892.743 -1479.565)" fill="#ffbf9d"/>
        <path id="Trazado_108719" data-name="Trazado 108719" d="M6924.969,1487.7c.421,0,.756.167.744.369s-.358.369-.779.369a1.06,1.06,0,0,1-.628-.167.9.9,0,0,1-.316.052c-.289,0-.52-.115-.514-.254s.254-.254.542-.254a.855.855,0,0,1,.311.052A1.154,1.154,0,0,1,6924.969,1487.7Zm0,.167c-.225,0-.421.092-.426.2s.179.2.409.2.415-.092.421-.2-.184-.2-.409-.2Zm-.968.288c.1,0,.184-.04.189-.087s-.08-.087-.179-.087-.179.041-.179.087.069.064.162.064Z" transform="translate(-6892.954 -1476.294)" fill="#ffbf9d"/>
        <path id="Trazado_108720" data-name="Trazado 108720" d="M6924.684,1480.948c-.41,0-.727-.167-.715-.375s.312-.352.68-.369h.179a3.664,3.664,0,0,1,.611.052,1.231,1.231,0,0,1,.507.2.319.319,0,0,1,.133.23c0,.046-.069.087-.167.087s-.161-.034-.167-.081a.2.2,0,0,0-.081-.144.633.633,0,0,0-.207-.1h-.075a.215.215,0,0,1,.052.144C6925.421,1480.781,6925.087,1480.948,6924.684,1480.948Zm0-.167c.219,0,.4-.092.409-.207s-.168-.2-.386-.2-.4.092-.4.2.167.207.387.207Z" transform="translate(-6893.169 -1473.011)" fill="#ffbf9d"/>
        <path id="Trazado_108721" data-name="Trazado 108721" d="M6926.177,1473.432c-.092,0-.167-.041-.167-.087v-.484c0-.046.087-.092.179-.092s.161.046.161.092v.484C6926.35,1473.391,6926.269,1473.432,6926.177,1473.432Z" transform="translate(-6894.064 -1469.754)" fill="#5e6178"/>
        <path id="Trazado_108722" data-name="Trazado 108722" d="M6941.125,1495.036c.1,0,.19.034.19.087h.253c.1,0,.185.04.19.087s-.075.086-.179.086h-.254l.035.479h0a.06.06,0,0,1-.041.052.331.331,0,0,1-.26,0l-1.585-.577h1.464C6940.94,1495.07,6941.021,1495.036,6941.125,1495.036Zm-1,.271.853.306v-.306Z" transform="translate(-6899.944 -1479.507)" fill="#ffbf9d"/>
        <path id="Trazado_108723" data-name="Trazado 108723" d="M6939.973,1487.835a1.239,1.239,0,0,1,.577-.115,1.394,1.394,0,0,1,.576.115c.162.075.243.173.248.271h0c0,.1-.063.2-.213.271a.331.331,0,0,1-.26,0c-.075-.034-.075-.092,0-.126s.127-.092.121-.144a.212.212,0,0,0-.139-.149.742.742,0,0,0-.3-.058.69.69,0,0,0-.306.058.172.172,0,0,0-.115.149c0,.052.046.1.133.144s.081.092,0,.126h-.15l-.836-.046a.257.257,0,0,1-.127-.04h0a.081.081,0,0,1,0-.041v-.456c0-.052.075-.092.179-.092s.179.041.179.092v.375h.317a.187.187,0,0,1-.034-.1C6939.748,1488.008,6939.817,1487.91,6939.973,1487.835Z" transform="translate(-6899.83 -1476.295)" fill="#ffbf9d"/>
        <path id="Trazado_108724" data-name="Trazado 108724" d="M6940.037,1480.194c.4,0,.744.167.755.375s-.259.352-.628.375h-.179a3.257,3.257,0,0,1-.623-.058,1.251,1.251,0,0,1-.53-.2.365.365,0,0,1-.156-.23c0-.052.063-.087.156-.092s.167.035.178.081a.214.214,0,0,0,.093.149.775.775,0,0,0,.219.093h.081a.243.243,0,0,1-.069-.15C6939.322,1480.361,6939.64,1480.194,6940.037,1480.194Zm0,.173c-.214,0-.392.092-.387.2s.2.2.416.2.392-.086.38-.2-.179-.2-.4-.2Z" transform="translate(-6899.612 -1473.006)" fill="#ffbf9d"/>
        <path id="Trazado_108725" data-name="Trazado 108725" d="M6939.644,1473.339c0,.046-.063.08-.145.08s-.149-.034-.155-.08l-.034-.623c0-.04.063-.081.144-.081s.145.035.15.081Zm-.772-.415h0c.1,0,.2.046.2.1s-.081.109-.185.109h0c-.1,0-.19-.046-.2-.109s.075-.1.179-.1Zm1.153,0h0c.1,0,.189.046.189.1s-.074.109-.179.109h0c-.109,0-.2-.052-.2-.109s.109-.1.213-.1Z" transform="translate(-6899.616 -1469.695)" fill="#5e6178"/>
        <path id="Trazado_108726" data-name="Trazado 108726" d="M6956.08,1495.477h1.982c.1,0,.189.04.2.086s-.063.087-.167.087h-1.683l.086.057s.035.035.035.046,0,.058-.081.069a.323.323,0,0,1-.259,0l-.277-.19h.145Z" transform="translate(-6907.164 -1479.7)" fill="#ffbf9d"/>
        <path id="Trazado_108727" data-name="Trazado 108727" d="M6956.692,1487.682c.1,0,.185.04.2.087l.1.547h0a.058.058,0,0,1-.045.063.353.353,0,0,1-.254,0l-.939-.461a.781.781,0,0,0-.317-.063.616.616,0,0,0-.265.052c-.086.041-.121.092-.109.15s.051.092.126.132l.1.047c.075.034.075.086,0,.121a.336.336,0,0,1-.248,0l-.1-.046a.385.385,0,0,1-.242-.248.3.3,0,0,1,.207-.277,1.21,1.21,0,0,1,.5-.1,1.376,1.376,0,0,1,.576.127l.576.288-.063-.329A.233.233,0,0,1,6956.692,1487.682Z" transform="translate(-6906.63 -1476.286)" fill="#ffbf9d"/>
        <path id="Trazado_108728" data-name="Trazado 108728" d="M6954.255,1480.36a1.052,1.052,0,0,1,.5-.1,1.331,1.331,0,0,1,.548.11c.161.075.253.173.271.271s-.034.2-.167.271a.3.3,0,0,1-.243,0c-.074-.034-.081-.087,0-.121a.156.156,0,0,0,.093-.15.244.244,0,0,0-.15-.144.628.628,0,0,0-.3-.064.5.5,0,0,0-.271.064c-.075.04-.1.092-.1.144s0,.046-.041.063h0a.319.319,0,0,1-.243,0l-.34-.156.041.248c0,.046-.058.087-.156.087s-.179-.041-.185-.087l-.075-.455c0-.052.063-.087.156-.087h.127l.427.2A.386.386,0,0,1,6954.255,1480.36Z" transform="translate(-6906.076 -1473.033)" fill="#ffbf9d"/>
        <path id="Trazado_108729" data-name="Trazado 108729" d="M6953.478,1472.875l.5.184.433-.184a.257.257,0,0,1,.208,0s.04.034.04.052a.068.068,0,0,1-.046.069l-.363.156.421.15a.088.088,0,0,1,.075.063.155.155,0,0,1,0,.052.239.239,0,0,1-.2,0l-.507-.184-.433.184a.261.261,0,0,1-.208,0c-.052-.04-.046-.087,0-.115l.357-.15-.409-.156c-.069-.029-.092-.081-.051-.121A.237.237,0,0,1,6953.478,1472.875Z" transform="translate(-6906.003 -1469.791)" fill="#5e6178"/>
        <path id="Trazado_108730" data-name="Trazado 108730" d="M6975.745,1495.561c0-.063.08-.115.218-.115s.265.052.289.115-.081.115-.219.115S6975.768,1495.625,6975.745,1495.561Z" transform="translate(-6915.848 -1479.687)" fill="#ffbf9d"/>
        <path id="Trazado_108731" data-name="Trazado 108731" d="M6971.62,1488.48a2.777,2.777,0,0,1-.8-.1c-.219-.063-.4-.167-.432-.288s.086-.219.271-.283a2.166,2.166,0,0,1,.731-.1,2.743,2.743,0,0,1,.79.1c.225.063.409.167.444.283s-.087.225-.271.288A2.191,2.191,0,0,1,6971.62,1488.48Zm-.178-.605a1.905,1.905,0,0,0-.577.069c-.121.046-.173.1-.155.144s.092.1.236.149a2.367,2.367,0,0,0,.576.075,1.9,1.9,0,0,0,.548-.075c.121-.046.167-.1.149-.149s-.086-.1-.242-.144a2.331,2.331,0,0,0-.535-.069Z" transform="translate(-6913.499 -1476.294)" fill="#ffbf9d"/>
        <path id="Trazado_108732" data-name="Trazado 108732" d="M6969.668,1480.893c-.092,0-.185-.041-.2-.092l-.133-.473c0-.052.052-.093.145-.093s.184.041.2.093l.138.473C6969.836,1480.829,6969.783,1480.893,6969.668,1480.893Zm.577,0c-.1,0-.2-.041-.208-.092l-.144-.473c0-.052.058-.093.156-.093s.189.041.2.093l.144.473c.006.029-.034.092-.161.092Z" transform="translate(-6913.04 -1473.024)" fill="#5e6178"/>
        <path id="Trazado_108733" data-name="Trazado 108733" d="M6967.6,1473.109l.069.219c0,.046-.046.081-.132.081s-.173-.035-.185-.081l-.063-.219h-.375c-.087,0-.173-.04-.185-.086s.046-.092.139-.092h.392l-.063-.219c0-.046.046-.087.133-.087s.167.041.179.087l.063.219h.4a.207.207,0,0,1,.19.086c0,.052-.046.093-.139.093Z" transform="translate(-6911.898 -1469.691)" fill="#5e6178"/>
        <path id="Trazado_108734" data-name="Trazado 108734" d="M6907.926,1487.364c.074,0,.132.029.126.063l-.034.2c.45.081,1.625.283,1.966.329a.31.31,0,0,1,.1.035.046.046,0,0,1,.029.046s0,.04-.063.057-.45.207-.611.271a.6.6,0,0,1-.334.04c-.018-.011,0,0,0-.034s0-.041.051-.058l.156-.069.127-.058.121-.052.127-.058-1.856-.323h-.046s-.04-.034-.035-.052l.046-.254C6907.787,1487.41,6907.856,1487.364,6907.926,1487.364Z" transform="translate(-6886.067 -1476.147)" fill="#5e6178"/>
        <path id="Trazado_108735" data-name="Trazado 108735" d="M6889.782,1470.071l-4.473,16.3h-8.716l6.191-16.29Z" transform="translate(-6872.419 -1468.572)" fill="#455a64"/>
        <path id="Trazado_108736" data-name="Trazado 108736" d="M6886.526,1483.169h3.038c.162,0,.266.063.242.144s-.167.138-.329.138h-2.53l.08.1a.073.073,0,0,1,0,.075.274.274,0,0,1-.185.121.41.41,0,0,1-.375-.052l-.265-.311h.185Z" transform="translate(-6876.629 -1474.309)" fill="#ffbf9d"/>
        <path id="Trazado_108737" data-name="Trazado 108737" d="M6890.272,1480.512c.156,0,.254.063.23.144l-.276.911h0a.225.225,0,0,1-.121.1.519.519,0,0,1-.4,0l-1.118-.767a.8.8,0,0,0-.45-.1,1.394,1.394,0,0,0-.467.081.5.5,0,0,0-.3.248.184.184,0,0,0,.092.225l.115.081c.086.057.046.144-.087.2a.485.485,0,0,1-.4,0l-.115-.08a.341.341,0,0,1-.167-.415.908.908,0,0,1,.576-.455,2.313,2.313,0,0,1,.864-.161,1.519,1.519,0,0,1,.825.2l.715.49.167-.548C6889.974,1480.575,6890.117,1480.512,6890.272,1480.512Z" transform="translate(-6876.888 -1473.146)" fill="#ffbf9d"/>
        <path id="Trazado_108738" data-name="Trazado 108738" d="M6889.2,1477.991a2.3,2.3,0,0,1,.922-.184,1.563,1.563,0,0,1,.807.184.392.392,0,0,1,.225.455.852.852,0,0,1-.5.449.477.477,0,0,1-.4,0c-.093-.057-.063-.149.063-.207a.454.454,0,0,0,.271-.242.213.213,0,0,0-.115-.248.869.869,0,0,0-.443-.1,1.224,1.224,0,0,0-.5.1.532.532,0,0,0-.282.242c0,.046-.052.081-.121.109h0a.5.5,0,0,1-.4,0l-.427-.26-.144.415c0,.081-.179.144-.334.144s-.26-.063-.23-.144l.265-.761c0-.081.179-.144.329-.144a.4.4,0,0,1,.127,0h.063l.531.328A1.149,1.149,0,0,1,6889.2,1477.991Z" transform="translate(-6877.236 -1471.956)" fill="#ffbf9d"/>
        <path id="Trazado_108739" data-name="Trazado 108739" d="M6891.716,1474.635c.15,0,.242.063.22.144v.029h.369c.15,0,.242.058.219.138s-.156.145-.305.145h-.369l-.253.807h0a.164.164,0,0,1-.086.092.468.468,0,0,1-.381,0l-1.919-.951h0v-.029h2.087v-.029C6891.457,1474.7,6891.572,1474.635,6891.716,1474.635Zm-1.6.456,1.026.512.167-.512Z" transform="translate(-6877.945 -1470.571)" fill="#ffbf9d"/>
        <path id="Trazado_108740" data-name="Trazado 108740" d="M6891.2,1472.209a2.117,2.117,0,0,1,.888-.19,1.437,1.437,0,0,1,.761.19.379.379,0,0,1,.207.449h0a.81.81,0,0,1-.483.45.44.44,0,0,1-.381,0c-.086-.057-.058-.15.063-.208a.446.446,0,0,0,.265-.248.2.2,0,0,0-.109-.242.765.765,0,0,0-.415-.1,1.157,1.157,0,0,0-.484.1.442.442,0,0,0-.265.242.2.2,0,0,0,.1.248c.086.058.052.15-.069.208l-.069.029h-.167l-1.211-.075a.266.266,0,0,1-.167-.069h0a.053.053,0,0,1,0-.063l.265-.76c0-.081.167-.144.317-.144s.242.063.213.144l-.219.634.461.029a.449.449,0,0,1,0-.173A.859.859,0,0,1,6891.2,1472.209Z" transform="translate(-6878.139 -1469.425)" fill="#ffbf9d"/>
      </g>
      <g id="freepik--speech-bubble--inject-11" transform="translate(107.55 42.338)">
        <path id="Trazado_108741" data-name="Trazado 108741" d="M7035.936,1169.532a19.241,19.241,0,0,1-30.712,15.454l-9.448,2.4,3.926-8.779a19.247,19.247,0,1,1,36.21-9.078Z" transform="translate(-6995.367 -1150.18)" fill="#ffbf9d"/>
        <path id="Trazado_108742" data-name="Trazado 108742" d="M7035.617,1169.464a19.35,19.35,0,0,1-2.854,10.1,21.6,21.6,0,0,1-1.528,2.173,21.36,21.36,0,0,1-1.838,1.92c-.341.288-.641.623-1,.876l-1.067.8c-.351.265-.749.478-1.117.714l-.577.352c-.19.11-.4.2-.576.3l-1.2.577-1.251.467a8.734,8.734,0,0,1-1.274.386c-.432.1-.859.254-1.3.317a18.686,18.686,0,0,1-2.651.323,16.539,16.539,0,0,1-2.669,0,19.292,19.292,0,0,1-9.921-3.7l.174.035-9.414,2.455-.507.133.213-.484,3.9-8.785v.242a19.068,19.068,0,0,1-2.306-8.479,19.386,19.386,0,1,1,38.76-.732Zm0,0a19.294,19.294,0,0,0-7.442-15.126,19.545,19.545,0,0,0-7.839-3.6,19.171,19.171,0,0,0-8.6.236,18.921,18.921,0,0,0-7.632,3.943,19.828,19.828,0,0,0-5.107,6.865,19.02,19.02,0,0,0,.634,16.636l.063.121-.052.121-3.948,8.768-.294-.346,9.442-2.363h.092l.081.058a19.022,19.022,0,0,0,9.695,3.753,16.715,16.715,0,0,0,2.635.04,19.022,19.022,0,0,0,2.623-.282c.438-.063.859-.2,1.291-.3a8.827,8.827,0,0,0,1.269-.369l1.245-.444,1.192-.576c.2-.1.4-.185.577-.288l.576-.34c.375-.237.772-.438,1.124-.7l1.066-.79a11.8,11.8,0,0,0,1-.864,22.19,22.19,0,0,0,1.845-1.9,20.877,20.877,0,0,0,1.533-2.161A19.3,19.3,0,0,0,7035.617,1169.464Z" transform="translate(-6995.048 -1150.112)" fill="#344154"/>
        <path id="Trazado_108743" data-name="Trazado 108743" d="M7023.7,1187.8l-7.165-7.246,2.409-2.375,4.179,4.231,8.692-13.621,2.848,1.816Z" transform="translate(-7004.459 -1158.293)" fill="#d9a171"/>
      </g>
    </g>
  </g>
</svg>
