<svg id="Capa_2" data-name="Capa 2" xmlns="http://www.w3.org/2000/svg" width="500" height="500" viewBox="0 0 500 500">
  <g id="Capa_1" data-name="Capa 1">
    <rect id="Rectángulo_6719" data-name="Rectángulo 6719" width="500" height="500" fill="#344154" opacity="0"/>
    <g id="freepik--Floor--inject-204">
      <ellipse id="freepik--floor--inject-204-2" data-name="freepik--floor--inject-204" cx="214.31" cy="123.73" rx="214.31" ry="123.73" transform="translate(36.87 222.42)" fill="#fafafa"/>
    </g>
    <g id="freepik--Shadows--inject-204">
      <ellipse id="freepik--Shadow--inject-204" cx="64.42" cy="37.19" rx="64.42" ry="37.19" transform="translate(332.98 365.67)" fill="#ebebeb"/>
      <path id="freepik--shadow--inject-204-2" data-name="freepik--shadow--inject-204" d="M136.63,462.49l-70-40.44c-2.07-1.2-2.07-3.14,0-4.34L242.32,316.3a8.3,8.3,0,0,1,7.52,0l70,40.44c2.08,1.2,2.08,3.14,0,4.33L144.14,462.49a8.35,8.35,0,0,1-7.51,0Z" fill="#ebebeb"/>
      <path id="freepik--shadow--inject-204-3" data-name="freepik--shadow--inject-204" d="M228.31,316.3,42.2,415.78c-2.12,1.23-2.12,3.22,0,4.44l14.22,8.2a8.43,8.43,0,0,0,7.7,0L250.24,329c2.12-1.23,2.12-3.22,0-4.45L236,316.3A8.45,8.45,0,0,0,228.31,316.3Z" fill="#ebebeb"/>
    </g>
    <g id="freepik--Pictures--inject-204">
      <g id="freepik--Picture--inject-204">
        <g id="freepik--Frame--inject-204">
          <path id="Trazado_107121" data-name="Trazado 107121" d="M289.6,101.19l1.59.96,32.88-18.99-1.61-.95Z" fill="#fafafa"/>
          <path id="Trazado_107122" data-name="Trazado 107122" d="M322.46,82.21l-31.27,18.05V67.52l31.28-18.04Z" fill="#fff"/>
          <path id="Trazado_107123" data-name="Trazado 107123" d="M327.09,43.3,288.18,65.77v41.61l38.91-22.47Zm-3,39.86-32.91,19V67.51l32.91-19Z" fill="#f0f0f0"/>
          <path id="Trazado_107124" data-name="Trazado 107124" d="M324.07,83.16l-1.61-.95.01-32.73,1.6-.94Z" fill="#e0e0e0"/>
          <path id="Trazado_107125" data-name="Trazado 107125" d="M327.09,43.3l-1.63-.93L286.55,64.84l1.63.94Z" fill="#fafafa"/>
          <path id="Trazado_107126" data-name="Trazado 107126" d="M286.55,64.84l1.63.94v41.6l-1.63-.93Z" fill="#e0e0e0"/>
        </g>
        <g id="freepik--Land--inject-204">
          <path id="Trazado_107127" data-name="Trazado 107127" d="M321.25,81.24,292.42,97.88V89.56l7.2-16.65,4.5,4.16-1.62,6.98,9.96-21.29,8.79,10.15Z" fill="#f0f0f0"/>
          <path id="Trazado_107128" data-name="Trazado 107128" d="M303.84,64.87a4.72,4.72,0,0,0-2.13,3.7c0,1.35.94,1.88,2.13,1.23A4.71,4.71,0,0,0,306,66.1C306,64.74,305,64.2,303.84,64.87Z" fill="#f0f0f0"/>
        </g>
      </g>
      <g id="freepik--picture--inject-204-2" data-name="freepik--picture--inject-204">
        <g id="freepik--frame--inject-204-2" data-name="freepik--frame--inject-204">
          <path id="Trazado_107129" data-name="Trazado 107129" d="M289.6,152.34l1.59.96,32.88-18.99-1.61-.95Z" fill="#fafafa"/>
          <path id="Trazado_107130" data-name="Trazado 107130" d="M322.46,133.36l-31.27,18.05V118.66l31.28-18.03Z" fill="#fff"/>
          <path id="Trazado_107131" data-name="Trazado 107131" d="M327.09,94.45l-38.91,22.46v41.62l38.91-22.47Zm-3,39.86-32.91,19V118.66l32.91-19Z" fill="#f0f0f0"/>
          <path id="Trazado_107132" data-name="Trazado 107132" d="M324.07,134.31l-1.61-.95.01-32.73,1.6-.94Z" fill="#e0e0e0"/>
          <path id="Trazado_107133" data-name="Trazado 107133" d="M327.09,94.45l-1.63-.93-38.91,22.46,1.63.94Z" fill="#fafafa"/>
          <path id="Trazado_107134" data-name="Trazado 107134" d="M286.55,115.98l1.63.94v41.61l-1.63-.93Z" fill="#e0e0e0"/>
        </g>
        <g id="freepik--land--inject-204-2" data-name="freepik--land--inject-204">
          <path id="Trazado_107135" data-name="Trazado 107135" d="M321.25,132.38l-28.83,16.65v-8.32l7.2-16.65,4.5,4.16-1.62,6.98,9.96-21.29,8.79,10.15Z" fill="#f0f0f0"/>
          <path id="Trazado_107136" data-name="Trazado 107136" d="M303.84,116a4.7,4.7,0,0,0-2.13,3.7c0,1.35.94,1.88,2.13,1.23a4.71,4.71,0,0,0,2.14-3.7C306,115.89,305,115.34,303.84,116Z" fill="#f0f0f0"/>
        </g>
      </g>
    </g>
    <g id="freepik--Plant--inject-204">
      <g id="freepik--Plants--inject-204">
        <path id="Trazado_107137" data-name="Trazado 107137" d="M290.17,353.69s-4.7-20.37,5.64-40.25c5.78-11.11,16.78-17.13,22.44-17.53,6.35-.43,12.47,5.31,6.41,12.58-5.76,6.93-16.22,9.59-23.38,27.78-4.71,12-4.66,21-4.66,21Z" fill="#d9a171"/>
        <path id="Trazado_107138" data-name="Trazado 107138" d="M290.17,353.69s-4.7-20.37,5.64-40.25c5.78-11.11,16.78-17.13,22.44-17.53,6.35-.43,12.47,5.31,6.41,12.58-5.76,6.93-16.22,9.59-23.38,27.78-4.71,12-4.66,21-4.66,21Z" fill="#fff" opacity="0.5"/>
        <path id="Trazado_107139" data-name="Trazado 107139" d="M294.3,348.58a.35.35,0,0,0,.37-.33h0c-1.33-22.44,13.33-40.92,24.16-46.88A.27.27,0,0,0,319,301a.363.363,0,0,0,0-.09.46.46,0,0,0-.55-.08c-11,6-25.87,24.76-24.52,47.44a.37.37,0,0,0,.4.3Z" fill="#fff"/>
        <path id="Trazado_107140" data-name="Trazado 107140" d="M296.59,357.25c1.26-5.13,5.2-11.34,13.17-16.8s18.81-10.34,17.61-15.4-9.56-5.15-15.58-2.54-20,14.58-18.57,32.91Z" fill="#d9a171"/>
        <path id="Trazado_107141" data-name="Trazado 107141" d="M296.59,357.25c1.26-5.13,5.2-11.34,13.17-16.8s18.81-10.34,17.61-15.4-9.56-5.15-15.58-2.54-20,14.58-18.57,32.91Z" fill="#fff" opacity="0.65"/>
        <path id="Trazado_107142" data-name="Trazado 107142" d="M295.38,350.47a.38.38,0,0,0,.37-.28c1.82-10.86,18.43-24.16,25.82-26.08a.31.31,0,0,0,.27-.35.09.09,0,0,0,0-.05.4.4,0,0,0-.49-.2c-7.75,2-24.45,15.32-26.33,26.62a.35.35,0,0,0,.35.34Z" fill="#fff"/>
      </g>
    </g>
    <g id="freepik--Folder--inject-204">
      <g id="freepik--folder--inject-204-2" data-name="freepik--folder--inject-204">
        <path id="Trazado_107143" data-name="Trazado 107143" d="M51.42,418.67a2.93,2.93,0,0,1,1.6-2.35l158.87-99.87V170.29l19.7-24.37a29.36,29.36,0,0,0,5.64-15.82V47.74c0-4.92-3.38-6.8-7.52-4.21L53,153.32a2.9,2.9,0,0,0-1.6,2.35Z" fill="#d9a171"/>
        <path id="Trazado_107144" data-name="Trazado 107144" d="M226.32,69.7c0-4.92-3.48-7-7.78-4.59L56.79,154.62a8.57,8.57,0,0,1-5.29.79v263h0a3,3,0,0,1,1.56-2.1l158.88-99.87V170.29l14.43-17.87Z" opacity="0.3"/>
        <path id="Trazado_107145" data-name="Trazado 107145" d="M52.87,420.77a8.46,8.46,0,0,0,7.52-.07l161.75-89.51A16.61,16.61,0,0,0,229.93,318V72.77c0-4.91-3.48-7-7.79-4.59L60.39,157.7a8.46,8.46,0,0,1-7.52.08,2.5,2.5,0,0,1-1.45-2.07v263a2.5,2.5,0,0,0,1.45,2.06Z" fill="#d9a171"/>
        <path id="Trazado_107146" data-name="Trazado 107146" d="M52.87,420.77a8.46,8.46,0,0,0,7.52-.07l161.75-89.51A16.61,16.61,0,0,0,229.93,318V72.77c0-4.91-3.48-7-7.79-4.59L60.39,157.7a8.46,8.46,0,0,1-7.52.08,2.5,2.5,0,0,1-1.45-2.07v263a2.5,2.5,0,0,0,1.45,2.06Z" fill="#fff" opacity="0.3"/>
        <path id="Trazado_107147" data-name="Trazado 107147" d="M56.52,158.61a7.39,7.39,0,0,1-3.63-.83,2.53,2.53,0,0,1-1.47-2.07v263a2.5,2.5,0,0,0,1.45,2.1,7.35,7.35,0,0,0,3.62.85Z" fill="#fff" opacity="0.3"/>
        <path id="Trazado_107148" data-name="Trazado 107148" d="M78.14,155.61a.44.44,0,0,0-.44.44h0V402.27a.47.47,0,0,0,.94,0V156.06a.44.44,0,0,0-.43-.45ZM63.69,164a.45.45,0,0,0-.44.45h0V410.62a.44.44,0,1,0,.88,0h0V164.41a.44.44,0,0,0-.42-.45Zm7.23-4.17a.45.45,0,0,0-.45.44V406.45a.46.46,0,0,0,.45.44.44.44,0,0,0,.44-.44h0V160.23a.43.43,0,0,0-.42-.44Z" fill="#d9a171"/>
      </g>
    </g>
    <g id="freepik--Contract--inject-204">
      <g id="freepik--Sheet--inject-204">
        <path id="Trazado_107149" data-name="Trazado 107149" d="M93.14,169.76l-3.72-2.15L256.37,71.22l3.73,2.14Z" fill="#f0f0f0"/>
        <path id="Trazado_107150" data-name="Trazado 107150" d="M260.1,73.36V329.78L93.07,426.2l.07-256.44Z" fill="#fafafa"/>
        <path id="Trazado_107151" data-name="Trazado 107151" d="M259.2,74.9V329.27L94,424.66V170.26L259.2,74.9m.94-1.54-167,96.4-.06,256.45,167-96.43V73.36Z" fill="#ebebeb"/>
        <path id="Trazado_107152" data-name="Trazado 107152" d="M93.14,169.76,93.07,426.2l-3.61-2.08-.04-256.51,3.65,2.1Z" fill="#e0e0e0"/>
      </g>
      <g id="freepik--contract--inject-204-2" data-name="freepik--contract--inject-204">
        <g id="freepik--sheet--inject-204-2" data-name="freepik--sheet--inject-204">
          <path id="Trazado_107153" data-name="Trazado 107153" d="M306.83,352.65V357l-167,96.38L138,452.26A74.43,74.43,0,0,1,100.9,388V189l167-96.4,3.76,2.15V291.59a70.567,70.567,0,0,0,35.185,61.068Z" fill="#f0f0f0"/>
          <path id="Trazado_107154" data-name="Trazado 107154" d="M271.58,291.59V94.78L104.63,191.17V388a70.52,70.52,0,0,0,35.24,61.06l167-96.39a70.53,70.53,0,0,1-35.29-61.08ZM105.42,388V191.64L270.75,96.2V291.59a71.51,71.51,0,0,0,34.46,61.05L139.87,448.09A69.9,69.9,0,0,1,105.42,388Z" fill="#e0e0e0"/>
          <path id="Trazado_107155" data-name="Trazado 107155" d="M305.21,352.64,139.87,448.09A69.9,69.9,0,0,1,105.42,388V191.64L270.75,96.2V291.59a71.51,71.51,0,0,0,34.46,61.05Z" fill="#fafafa"/>
          <path id="Trazado_107156" data-name="Trazado 107156" d="M104.62,388V191.17L100.86,189V388A74.43,74.43,0,0,0,138,452.27l1.88,1.07v-4.29A70.54,70.54,0,0,1,104.62,388Z" fill="#e0e0e0"/>
          <path id="Trazado_107157" data-name="Trazado 107157" d="M139.87,449.04v4.29l166.97-96.39v-4.29Z" opacity="0.15"/>
        </g>
        <g id="freepik--Text--inject-204">
          <path id="Trazado_107158" data-name="Trazado 107158" d="M219.55,146.74l39.85-23c.94-.56,1.78-.16,1.78.94a3.84,3.84,0,0,1-1.78,3l-39.85,23c-1,.56-1.78.16-1.78-.94a3.76,3.76,0,0,1,1.78-3Z" fill="#e0e0e0"/>
          <path id="Trazado_107159" data-name="Trazado 107159" d="M219.55,162.17l39.85-23c.94-.57,1.78-.16,1.78.94a3.82,3.82,0,0,1-1.78,3l-39.85,23c-1,.57-1.78.16-1.78-.94A3.75,3.75,0,0,1,219.55,162.17Z" fill="#e0e0e0"/>
          <path id="Trazado_107160" data-name="Trazado 107160" d="M234.47,145.84l24.93-14.4c.94-.56,1.78-.16,1.78.94a3.82,3.82,0,0,1-1.78,3l-24.93,14.39c-.94.57-1.79.16-1.79-.94a3.76,3.76,0,0,1,1.79-2.99Z" fill="#e0e0e0"/>
        </g>
        <g id="freepik--text--inject-204-2" data-name="freepik--text--inject-204">
          <path id="Trazado_107161" data-name="Trazado 107161" d="M124.27,247.35,254.5,172.16c1-.56,1.78-.16,1.78.94a3.78,3.78,0,0,1-1.78,3L124.27,251.29c-.94.57-1.78.17-1.78-.94a3.84,3.84,0,0,1,1.78-3Z" fill="#e0e0e0"/>
          <path id="Trazado_107162" data-name="Trazado 107162" d="M124.27,255.06,254.5,179.83c1-.57,1.78-.16,1.78.94a3.78,3.78,0,0,1-1.78,2.95l-130.23,75.2c-.94.57-1.78.17-1.78-.94a3.88,3.88,0,0,1,1.78-2.92Z" fill="#e0e0e0"/>
          <path id="Trazado_107163" data-name="Trazado 107163" d="M124.27,262.77,254.5,187.54c1-.57,1.78-.16,1.78.94a3.78,3.78,0,0,1-1.78,3L124.27,266.67c-.94.58-1.78.17-1.78-.94a3.84,3.84,0,0,1,1.78-2.96Z" fill="#e0e0e0"/>
          <path id="Trazado_107164" data-name="Trazado 107164" d="M124.27,270.48,254.5,195.25c1-.56,1.78-.16,1.78.94a3.78,3.78,0,0,1-1.78,2.95l-130.23,75.2c-.94.57-1.78.17-1.78-.94a3.82,3.82,0,0,1,1.78-2.92Z" fill="#e0e0e0"/>
        </g>
        <g id="freepik--text--inject-204-3" data-name="freepik--text--inject-204">
          <path id="Trazado_107165" data-name="Trazado 107165" d="M124.27,286.06,254.5,210.82c1-.57,1.78-.17,1.78.94a3.84,3.84,0,0,1-1.78,3L124.27,289.91c-.94.57-1.78.16-1.78-.94a3.79,3.79,0,0,1,1.78-2.91Z" fill="#e0e0e0"/>
          <path id="Trazado_107166" data-name="Trazado 107166" d="M124.27,293.77,254.5,218.58c1-.57,1.78-.17,1.78.9a3.84,3.84,0,0,1-1.78,3L124.27,297.67c-.94.56-1.78.16-1.78-.94a3.84,3.84,0,0,1,1.78-2.96Z" fill="#e0e0e0"/>
          <path id="Trazado_107167" data-name="Trazado 107167" d="M124.27,301.47,254.5,226.29c1-.57,1.78-.17,1.78.9a3.84,3.84,0,0,1-1.78,3L124.27,305.33c-.94.57-1.78.16-1.78-.95a3.88,3.88,0,0,1,1.78-2.91Z" fill="#e0e0e0"/>
          <path id="Trazado_107168" data-name="Trazado 107168" d="M124.27,309.18,254.5,234c1-.57,1.78-.16,1.78.95a3.84,3.84,0,0,1-1.78,3L124.27,313c-.94.57-1.78.17-1.78-.9a3.89,3.89,0,0,1,1.78-2.92Z" fill="#e0e0e0"/>
        </g>
        <path id="Trazado_107169" data-name="Trazado 107169" d="M124.27,324.75,254.5,249.57c1-.57,1.78-.17,1.78.94a3.78,3.78,0,0,1-1.78,3L124.27,328.69c-.94.57-1.78.16-1.78-.94a3.86,3.86,0,0,1,1.78-3Z" fill="#e0e0e0"/>
        <path id="Trazado_107170" data-name="Trazado 107170" d="M124.27,332.5,254.5,257.27c1-.56,1.78-.17,1.78.94a3.78,3.78,0,0,1-1.78,3L124.27,336.32c-.94.57-1.78.16-1.78-.94a3.85,3.85,0,0,1,1.78-2.88Z" fill="#e0e0e0"/>
        <path id="Trazado_107171" data-name="Trazado 107171" d="M124.27,340.18l69.8-40.33c.94-.56,1.78-.16,1.78.94a3.84,3.84,0,0,1-1.78,3l-69.8,40.32c-.94.56-1.78.16-1.78-.94a3.81,3.81,0,0,1,1.78-2.99Z" fill="#e0e0e0"/>
        <path id="Trazado_107172" data-name="Trazado 107172" d="M124.27,353.88l46.37-26.81c.94-.57,1.78-.17,1.78.94a3.75,3.75,0,0,1-1.78,2.95l-46.37,26.81c-.94.57-1.78.16-1.78-.94A3.81,3.81,0,0,1,124.27,353.88Z" fill="#d9a171"/>
        <path id="Trazado_107173" data-name="Trazado 107173" d="M239.71,302.55v-4c-8.9,5.14-16.15,19-16.15,30.85l3-1.74C226.58,318,232.47,306.74,239.71,302.55Zm11.64,10.79c0-8.56-5.22-12.51-11.64-8.8s-11.64,13.68-11.64,22.24,5.22,12.5,11.64,8.8S251.35,321.9,251.35,313.34Zm-21.8,12.58c0-7.44,4.54-16.13,10.13-19.35a12.406,12.406,0,0,1,1.15-.58l-11.2,21.43c-.02-.49-.08-.99-.08-1.5Zm.43,3.66,12.63-24.12c3.27-.57,5.83,1.4,6.79,5.22l-12.56,24c-3.25.59-5.84-1.34-6.83-5.12Zm19.75-16.74c0,.44.06.94.06,1.39,0,7.45-4.55,16.13-10.14,19.35a10.553,10.553,0,0,1-1.06.54Zm-10-18.31c-10.55,6.09-19.15,22.5-19.15,36.58s8.6,20.58,19.15,14.47S258.86,323.1,258.86,309s-8.62-20.56-19.15-14.47Zm0,49c-9.73,5.64-17.64-.37-17.64-13.33s7.91-28.08,17.64-33.7,17.64.37,17.64,13.34-7.93,28.16-17.66,33.73Zm13.16-31.1c0,9.66-5.89,20.92-13.16,25.09v4c8.9-5.15,16.15-19,16.15-30.86Z" fill="#d9a171" opacity="0.2"/>
        <path id="Trazado_107174" data-name="Trazado 107174" d="M207.26,368.9l-71.82,41.49a1.28,1.28,0,0,1-1.78-.38,1.171,1.171,0,0,1-.16-.36v-.12a2.15,2.15,0,0,1,.94-2.39l71.82-41.5a1.26,1.26,0,0,1,1.73.41,1.09,1.09,0,0,1,.15.35v.12A2.11,2.11,0,0,1,207.26,368.9Z" fill="#e0e0e0"/>
        <path id="Trazado_107175" data-name="Trazado 107175" d="M190,388.62l-50.3,29.15a1.44,1.44,0,0,1-2-.47,1.994,1.994,0,0,1-.1-.21V417a1.88,1.88,0,0,1,.79-2.34l50.3-29.16a1.41,1.41,0,0,1,1.93.45,1.151,1.151,0,0,1,.12.25v.06a1.9,1.9,0,0,1-.74,2.36Z" fill="#e0e0e0"/>
        <path id="Trazado_107176" data-name="Trazado 107176" d="M272.52,341.29l-50.3,29.15a1.43,1.43,0,0,1-2-.46,1.51,1.51,0,0,1-.11-.22v-.06a1.89,1.89,0,0,1,.79-2.35l50.29-29.15a1.42,1.42,0,0,1,2,.48,1.507,1.507,0,0,1,.11.22v.1a1.9,1.9,0,0,1-.78,2.29Z" fill="#e0e0e0"/>
        <path id="Trazado_107177" data-name="Trazado 107177" d="M177.74,364.48a14.9,14.9,0,0,1-4,5.58,1.5,1.5,0,0,1-.58.38c-.35.06-.47-.23-.51-.62a8,8,0,0,1,.12-2c.15-1.29.34-2.56.55-3.84q.53-3.09,1.12-6.16c.37-.87.72-1.74,1.05-2.64a67.688,67.688,0,0,0,2.4-7.89,20.59,20.59,0,0,0,.73-8.22c-.05-.26-.4-.47-.53-.17-1.13,2.5-1.52,5.53-2.08,8.28l-2,9.59c-.05.22-.08.43-.13.64q-.94,2.28-2.05,4.43c-.43.85-.89,1.68-1.36,2.48a15.621,15.621,0,0,1-1.41,2.27c-.72.87-1.66.59-2.09-.51a3,3,0,0,1-.19-.73,9.33,9.33,0,0,0,1.66-2.33,21.193,21.193,0,0,0,1.35-3,22.141,22.141,0,0,0,.87-3.41c.12-.76.41-1.93-.05-2.56s-1.12-.07-1.48.53a22.448,22.448,0,0,0-1.46,3.1,19.3,19.3,0,0,0-1.47,7V365c-.07,0-.14.12-.22.17a1.3,1.3,0,0,1-1.84-.14,1.28,1.28,0,0,1-.31-1,.32.32,0,0,0-.6-.19c-.5,1.12-.54,2.54-1.15,3.58-.29.47-.8,1.05-1.26.71a1,1,0,0,1-.37-.82c.06-.17.12-.33.17-.5.12-.36-.36-.61-.53-.37a1.36,1.36,0,0,0-.25.73c-.29.84-.6,1.67-.94,2.47a8,8,0,0,1,0-2.59c.05-.34-.52-.56-.59-.19a23.292,23.292,0,0,1-.94,3.36c-.19.56-.42,1.1-.66,1.64a6.26,6.26,0,0,1-.94,1.72c-.19.19-.46.37-.7.22s-.27-.72-.28-1.09c0-.61,0-1.23.05-1.88a21.7,21.7,0,0,1,.57-3.58c.09-.4-.48-.67-.6-.26a44.406,44.406,0,0,1-2,5.48c-.39.85-.79,1.7-1.25,2.5-.2.38-.75,1.21-1.2,1.2l.27-.5a43.221,43.221,0,0,0,2.61-6,26.461,26.461,0,0,0,1.46-6.39,1.84,1.84,0,0,0-.53-1.62,9.66,9.66,0,0,0,.07-3.35c-.36-2-1.82-2.69-3.25-2.23-1.71.53-3.07,2.25-4.25,3.88a41,41,0,0,0-5.56,10.65,46.077,46.077,0,0,0-1.66,6.09c-.4,1.95-.94,4.32-.27,6.25,1.6,4.59,6.05.37,7.85-1.88a31.219,31.219,0,0,0,2.82-4.36,1.32,1.32,0,0,0,1.42-.47,9.45,9.45,0,0,0,1.44-2.43c.5-1,.94-2.1,1.37-3.19v1.22a4.35,4.35,0,0,0,.24,2,1,1,0,0,0,1,.54c1-.09,1.6-1.7,2-2.7a22.818,22.818,0,0,0,.88-2.39,7.69,7.69,0,0,0,.29,1.24.28.28,0,0,0,.33.22.26.26,0,0,0,.19-.15,17.971,17.971,0,0,0,1-2.51,1.34,1.34,0,0,0,1.3.66c1.38-.34,1.62-2.3,2.07-3.85a2.07,2.07,0,0,0,.81.85,1.88,1.88,0,0,0,2-.14,3.22,3.22,0,0,0,.87,1.61,1.43,1.43,0,0,0,2,.12,10,10,0,0,0,1.82-2.67c.58-1,1.15-2.06,1.68-3.12l.61-1.25c-.35,1.74-.67,3.49-.94,5.24-.12.75-.22,1.49-.3,2.24a8.451,8.451,0,0,0-.12,1.88c.12,1,.77,1.61,1.55,1.29a4.749,4.749,0,0,0,1.33-1,14.62,14.62,0,0,0,1.39-1.56,17.58,17.58,0,0,0,2.15-3.77C178.5,364.36,177.9,364.09,177.74,364.48Zm-1.3-16.57c.32-1.55.62-3.11.94-4.65a23.637,23.637,0,0,1,.79-3,18.77,18.77,0,0,1-.53,5c-.41,1.88-.94,3.82-1.45,5.64-.32,1.05-.66,2.07-1,3.09.42-2,.84-4.09,1.26-6.14Zm-28.38,30.64a19.839,19.839,0,0,1-3.39,4.09,10.189,10.189,0,0,1-2,1.35c-.67.36-1.42.62-2.06.06-1.23-1.08-1.09-3.32-.83-5a45.875,45.875,0,0,1,1.11-5.15,43.751,43.751,0,0,1,3.85-9.53,38,38,0,0,1,2.73-4.26c1.07-1.43,2.34-3,3.91-3.32,2.24-.46,2.38,2.19,1.94,4.83a3,3,0,0,0-1.76,1.12,13.21,13.21,0,0,0-2.41,5.55,18.046,18.046,0,0,0-.34,2,3.71,3.71,0,0,1-1.88.64c-1,0-.84-1.64-.74-2.53a11.9,11.9,0,0,1,.71-2.82c.1-.22-.29-.55-.39-.32a12,12,0,0,0-.87,3.15A3.88,3.88,0,0,0,146,371a1.72,1.72,0,0,0,2,.33,5.455,5.455,0,0,0,.76-.3,15.1,15.1,0,0,0,.14,3.49,5.66,5.66,0,0,0,.5,1.75c-.41.75-.88,1.5-1.34,2.23Zm5.15-16.14a20.57,20.57,0,0,1-1,3.52,9.77,9.77,0,0,1-2.56,3.76,18.141,18.141,0,0,1,1.18-4.16,8.069,8.069,0,0,1,1.33-2.29,2.849,2.849,0,0,1,.94-.78Zm-3.43,13.16c-.07-.27-.12-.59-.16-.8a10.937,10.937,0,0,1-.18-1.4,13.732,13.732,0,0,1,0-2.72h0a7,7,0,0,0,.85-.68,11.89,11.89,0,0,0,3-5.27c.2-.63.4-1.33.56-2.06v.2a3.748,3.748,0,0,1,0,.67,27.939,27.939,0,0,1-1.22,5.4,38.56,38.56,0,0,1-2.85,6.68Zm17.11-13a22.32,22.32,0,0,1,1.6-5.49,10.819,10.819,0,0,1,1.29-2.45c0-.07.32-.36.4-.28s.06.29.06.34a3.86,3.86,0,0,1,0,.68c-.06.51-.15,1-.26,1.53a19.28,19.28,0,0,1-2.08,5.74,11.388,11.388,0,0,1-1.16,1.76,14,14,0,0,1,.15-1.8Zm30.3-9.08-.29-.06c.07-1.47.08-2.95.06-4.4-.05-2.82-.23-5.55-.54-8.3a6.392,6.392,0,0,0-.11-.85c.14-.84.26-1.69.35-2.54.17-1.67.29-3.77-.94-4.75a.25.25,0,0,0-.45.17,20.16,20.16,0,0,0,.29,5.75,6.87,6.87,0,0,0,.13.94,39.363,39.363,0,0,1-.85,4,40,40,0,0,1-1.64,5c-.32.81-.66,1.61-1,2.39a4.32,4.32,0,0,1-1.64,2.08,2.09,2.09,0,0,1-.19-1.05c0-.35-.46-.58-.55-.19a1.291,1.291,0,0,1-.08.28c.08-.94.18-1.88.32-2.83.05-.31-.45-.57-.53-.24a17.471,17.471,0,0,1-1.07,3.1,14.758,14.758,0,0,1-.81,1.52c-.17.28-.54.94-.85.86-.7-.09-.18-2.82,0-3.38a2.3,2.3,0,0,1,.13-.5,20.77,20.77,0,0,0,.94-2.53c.13-.34-.34-.65-.49-.34a13.422,13.422,0,0,0-.69,1.72,37.341,37.341,0,0,1-2.95,5.64c-.68,1.08-1.58,2.74-2.72,2.92-.66.09-.88-.49-.9-1.24a21,21,0,0,0,3-4.15c.62-1.11,3.61-7.23.84-7-1.2.12-1.95,1.69-2.48,2.94a26.071,26.071,0,0,0-1.51,4.81,24.175,24.175,0,0,0-.38,2.41,4.209,4.209,0,0,0,0,.71,18.449,18.449,0,0,1-2.87,2.5c-.23.15.11.59.31.46a18.134,18.134,0,0,0,2.62-2.16,2.49,2.49,0,0,0,.2.6c.68,1.28,2.05.65,2.82-.15a20.83,20.83,0,0,0,3-4.46c.16-.3.32-.6.47-.94-.14.94-.19,2.22.49,2.57s1.49-.77,1.88-1.49c.28-.52.54-1.05.77-1.6a4.7,4.7,0,0,1-.06.94c-.06.28.24.5.41.38a2.091,2.091,0,0,0,.42-.42,2.9,2.9,0,0,0,.3.7.35.35,0,0,0,.34.15c1.59-.47,2.44-2.89,3.15-4.6a41.454,41.454,0,0,0,1.88-5.64c.13-.54.26-1.08.38-1.63.11,1.18.2,2.35.26,3.53a67.068,67.068,0,0,1,.06,8,6.29,6.29,0,0,0-3.68,1.28,16.149,16.149,0,0,0-4.08,3.65,7.54,7.54,0,0,0-1.59,5.07c.11,1.74.94,3.23,2.28,3.63,2.82.87,5.23-2.82,6.31-5.78a26.221,26.221,0,0,0,1.35-7.13h.31c.34.29.34-.32-.05-.41Zm-16.78.64a25.721,25.721,0,0,1,1.05-3.87,9.07,9.07,0,0,1,1.88-3.58c.18-.17.66-.53.87-.39s.29.69.24,1.11a10.069,10.069,0,0,1-.56,2.07,20.669,20.669,0,0,1-1.74,3.57,21.459,21.459,0,0,1-2,2.82,16.6,16.6,0,0,1,.26-1.7ZM196,337.6a17.18,17.18,0,0,1-.19-4.05c.57,1.05.38,2.76.19,4.08Zm-.17,19.9c-.59,3.28-1.93,7-4.45,8.46a2.19,2.19,0,0,1-3.34-1,6.19,6.19,0,0,1,.37-5,12.71,12.71,0,0,1,4-4.19,7.12,7.12,0,0,1,3.82-1.65,33.706,33.706,0,0,1-.43,3.46Z" fill="#455a64"/>
        <path id="freepik--shadow--inject-204-4" data-name="freepik--shadow--inject-204" d="M101.39,392.16a70,70,0,0,0,2.15,15.44L123.76,396l5.39-15.67-5.39-1Z" fill="#e0e0e0"/>
        <path id="Trazado_107178" data-name="Trazado 107178" d="M125.15,202.35v6.93l-1.75,1V192.6l4.89-2.82c1.45-.84,2.59-1,3.42-.49s1.23,1.58,1.23,3.21a9.07,9.07,0,0,1-1.21,4.66,9.17,9.17,0,0,1-3.46,3.39Zm0-1.9,3.14-1.82a5.62,5.62,0,0,0,2.15-2.12,5.92,5.92,0,0,0,.75-3,2.4,2.4,0,0,0-.75-2.1c-.49-.35-1.18-.28-2.05.2l-3.24,1.87Z" fill="#344154"/>
        <path id="Trazado_107179" data-name="Trazado 107179" d="M134.34,197.28a13,13,0,0,1,.571-3.813,11.3,11.3,0,0,1,1.589-3.287,7.34,7.34,0,0,1,2.32-2.18c1.34-.77,2.42-.78,3.25,0s1.25,2.17,1.25,4.23v.15a13.38,13.38,0,0,1-.55,3.77,11.34,11.34,0,0,1-1.58,3.28,7.46,7.46,0,0,1-2.36,2.21c-1.33.77-2.41.78-3.24,0s-1.25-2.16-1.25-4.2Zm1.7-.71a4.75,4.75,0,0,0,.76,3.07,1.419,1.419,0,0,0,2,.15,5.13,5.13,0,0,0,2-2.52,10.79,10.79,0,0,0,.75-4.2,4.75,4.75,0,0,0-.77-3.06,1.411,1.411,0,0,0-2-.16,5,5,0,0,0-2,2.48,10.64,10.64,0,0,0-.78,4.24Z" fill="#344154"/>
        <path id="Trazado_107180" data-name="Trazado 107180" d="M147.26,196.51l-1.68,1V178.83l1.68-1Z" fill="#344154"/>
        <path id="Trazado_107181" data-name="Trazado 107181" d="M151.81,175.24l2-1.18-2.44,5-1.36.78Zm0,18.66-1.69,1V181.73l1.69-1Z" fill="#344154"/>
        <path id="Trazado_107182" data-name="Trazado 107182" d="M156.86,174.65v3.18l1.84-1.06v1.73l-1.84,1.07v8.16a1.59,1.59,0,0,0,.24,1q.26.25.84-.09a5.453,5.453,0,0,0,.8-.61v1.82a7.1,7.1,0,0,1-1.29,1c-.76.44-1.32.46-1.71.08a3.29,3.29,0,0,1-.57-2.26v-8.15l-1.79,1v-1.74l1.79-1V175.6Z" fill="#344154"/>
        <path id="Trazado_107183" data-name="Trazado 107183" d="M160.67,172.14a2.54,2.54,0,0,1,.25-1.07,1.76,1.76,0,0,1,.75-.8c.32-.19.57-.21.74-.06a1,1,0,0,1,.26.78,2.33,2.33,0,0,1-.26,1,1.85,1.85,0,0,1-.74.8q-.49.28-.75.06A1,1,0,0,1,160.67,172.14Zm1.83,15.58-1.69,1V175.55l1.69-1Z" fill="#344154"/>
        <path id="Trazado_107184" data-name="Trazado 107184" d="M169.15,182.29a4.6,4.6,0,0,0,1.57-1.64,5,5,0,0,0,.75-2.26l1.59-.92a7.44,7.44,0,0,1-.58,2.49,10.079,10.079,0,0,1-1.43,2.46,7.06,7.06,0,0,1-1.9,1.7c-1.35.77-2.41.79-3.21.06s-1.19-2.14-1.19-4.22v-.37a13.22,13.22,0,0,1,.53-3.72,10.88,10.88,0,0,1,1.52-3.2,7.29,7.29,0,0,1,2.34-2.17,2.57,2.57,0,0,1,2.75-.27,3.12,3.12,0,0,1,1.17,2.76l-1.59.92a2.08,2.08,0,0,0-.72-1.68,1.45,1.45,0,0,0-1.61.11,4.85,4.85,0,0,0-2,2.38,10.08,10.08,0,0,0-.71,4v.42a5,5,0,0,0,.7,3.1C167.61,182.76,168.28,182.79,169.15,182.29Z" fill="#344154"/>
        <path id="Trazado_107185" data-name="Trazado 107185" d="M181.05,177a4.32,4.32,0,0,1-.24-1.25A7.59,7.59,0,0,1,178,179a2.31,2.31,0,0,1-2.39.28,2.42,2.42,0,0,1-.93-2.25,7,7,0,0,1,1.17-3.87,9.47,9.47,0,0,1,3.29-3l1.64-.95v-1a1.87,1.87,0,0,0-.53-1.57c-.35-.27-.87-.2-1.56.2a4.35,4.35,0,0,0-1.51,1.48,3.49,3.49,0,0,0-.61,1.82l-1.69,1a5.67,5.67,0,0,1,.52-2.21,8.89,8.89,0,0,1,1.42-2.27,7.65,7.65,0,0,1,2-1.67c1.14-.66,2-.79,2.67-.41s1,1.24,1,2.55v6.05a7.76,7.76,0,0,0,.34,2.68v.2Zm-2.8-.1a5.09,5.09,0,0,0,1.5-1.42,6.29,6.29,0,0,0,1-2v-2.7l-1.32.76q-3.11,1.8-3.1,4.21c0,.71.18,1.15.53,1.35a1.38,1.38,0,0,0,1.39-.19Z" fill="#344154"/>
        <path id="Trazado_107186" data-name="Trazado 107186" d="M133.16,228.9a12.37,12.37,0,0,1-1.56,5.22,9.44,9.44,0,0,1-3.47,3.54c-1.57.9-2.82.88-3.77-.08s-1.42-2.68-1.42-5.19v-1.7a16.67,16.67,0,0,1,.67-4.72,13,13,0,0,1,1.87-3.95,9,9,0,0,1,2.8-2.63c1.41-.81,2.54-.94,3.39-.38s1.35,1.72,1.49,3.5l-1.76,1a3.44,3.44,0,0,0-1-2.5c-.51-.34-1.21-.25-2.13.28a6.46,6.46,0,0,0-2.62,3.17,13.11,13.11,0,0,0-1,5.26v1.71a6.79,6.79,0,0,0,.91,4.06c.6.79,1.44.87,2.52.25a6.07,6.07,0,0,0,2.24-2.17,9.34,9.34,0,0,0,1-3.67Z" fill="#344154"/>
        <path id="Trazado_107187" data-name="Trazado 107187" d="M134.83,226.85a13,13,0,0,1,.571-3.813,11.3,11.3,0,0,1,1.589-3.287,7.45,7.45,0,0,1,2.32-2.18c1.34-.77,2.43-.78,3.26,0s1.24,2.17,1.24,4.23v.15a13,13,0,0,1-.55,3.77,11.339,11.339,0,0,1-1.58,3.28,7.54,7.54,0,0,1-2.35,2.21c-1.34.77-2.42.78-3.25,0s-1.25-2.16-1.25-4.2Zm1.7-.71a4.75,4.75,0,0,0,.76,3.07,1.413,1.413,0,0,0,2,.15,5.17,5.17,0,0,0,2-2.52,10.79,10.79,0,0,0,.75-4.2,4.69,4.69,0,0,0-.77-3.06,1.411,1.411,0,0,0-2-.16,5.09,5.09,0,0,0-2,2.48,10.64,10.64,0,0,0-.74,4.24Z" fill="#344154"/>
        <path id="Trazado_107188" data-name="Trazado 107188" d="M147.52,213.08v1.62a7.44,7.44,0,0,1,3-3.6q3.14-1.82,3.16,2.88v8.68l-1.69,1v-8.7a2.46,2.46,0,0,0-.49-1.82c-.32-.27-.81-.21-1.49.18a4.48,4.48,0,0,0-1.44,1.41,8.13,8.13,0,0,0-1,2.09v9.37l-1.69,1V214Z" fill="#344154"/>
        <path id="Trazado_107189" data-name="Trazado 107189" d="M158.5,203.55v3.18l1.85-1.06v1.74l-1.85,1.06v8.16a1.55,1.55,0,0,0,.25,1c.16.17.44.14.84-.08a7.429,7.429,0,0,0,.8-.61v1.81a7.191,7.191,0,0,1-1.29,1c-.76.43-1.32.46-1.71.07a3.29,3.29,0,0,1-.57-2.26v-8.15l-1.8,1v-1.74l1.8-1v-3.18Z" fill="#344154"/>
        <path id="Trazado_107190" data-name="Trazado 107190" d="M168.4,214.16a4.24,4.24,0,0,1-.24-1.25,7.51,7.51,0,0,1-2.8,3.25,2.31,2.31,0,0,1-2.4.28,2.4,2.4,0,0,1-.93-2.24,7,7,0,0,1,1.17-3.87,9.44,9.44,0,0,1,3.3-3l1.64-.94v-1a1.88,1.88,0,0,0-.53-1.57c-.36-.26-.87-.19-1.56.2a4.36,4.36,0,0,0-1.51,1.48,3.4,3.4,0,0,0-.61,1.83l-1.7,1a5.66,5.66,0,0,1,.53-2.2,8.62,8.62,0,0,1,1.42-2.27,7.34,7.34,0,0,1,2-1.67c1.13-.66,2-.8,2.67-.41s1,1.24,1,2.55v6.05a7.71,7.71,0,0,0,.35,2.68v.19Zm-2.8-.1a5.06,5.06,0,0,0,1.51-1.41,6.78,6.78,0,0,0,1-2v-2.69l-1.33.76q-3.09,1.78-3.09,4.21c0,.7.17,1.15.52,1.34a1.36,1.36,0,0,0,1.39-.21Z" fill="#344154"/>
        <path id="Trazado_107191" data-name="Trazado 107191" d="M180.81,200.57a13.74,13.74,0,0,1-1,5.44,6.88,6.88,0,0,1-2.79,3.44c-1.24.72-2.21.69-2.89-.09l-.08,1.56-1.55.9V193.16l1.69-1v7a7,7,0,0,1,2.81-3.32q1.8-1,2.82.18c.69.82,1,2.27,1,4.37Zm-1.69.72a5.47,5.47,0,0,0-.66-3.16c-.45-.58-1.08-.63-1.92-.15a5.51,5.51,0,0,0-2.39,3.45v5.68a1.5,1.5,0,0,0,2.41.68,4.61,4.61,0,0,0,1.89-2.34,11,11,0,0,0,.67-4.16Z" fill="#344154"/>
        <path id="Trazado_107192" data-name="Trazado 107192" d="M184.76,204.72l-1.68,1V187l1.68-1Z" fill="#344154"/>
        <path id="Trazado_107193" data-name="Trazado 107193" d="M191.55,201c-1.34.77-2.42.81-3.26.13s-1.26-2-1.26-4v-.41a13.28,13.28,0,0,1,.56-3.82,11.909,11.909,0,0,1,1.57-3.31,7,7,0,0,1,2.18-2.13c1.28-.74,2.28-.75,3,0s1.06,2.13,1.06,4.22v.94l-6.67,3.85a3.49,3.49,0,0,0,.85,2.65,1.63,1.63,0,0,0,2.07,0,4.67,4.67,0,0,0,1.51-1.36,9.51,9.51,0,0,0,1.09-1.91l1,.47a8.77,8.77,0,0,1-3.7,4.68Zm-.21-11.66a4.47,4.47,0,0,0-1.71,2,9,9,0,0,0-.86,3.27l4.94-2.85v-.17a3.33,3.33,0,0,0-.69-2.26,1.453,1.453,0,0,0-1.68.05Z" fill="#344154"/>
      </g>
    </g>
    <g id="freepik--Sticker--inject-204">
      <g id="freepik--sticker--inject-204-2" data-name="freepik--sticker--inject-204">
        <path id="Trazado_107194" data-name="Trazado 107194" d="M121.95,376.13,82.19,399.08v16.7l39.76-22.96,7.22-12.52Z" fill="#d9a171"/>
        <path id="Trazado_107195" data-name="Trazado 107195" d="M97.43,394.17a.1.1,0,0,1,.15,0h0a.23.23,0,0,1,.07.19v8a.48.48,0,0,1-.07.26.32.32,0,0,1-.15.19l-.65.38a.14.14,0,0,1-.15,0,.25.25,0,0,1-.06-.2V399.7l-2.44,1.4v3.25a.6.6,0,0,1-.06.27.58.58,0,0,1-.15.19l-.65.38a.14.14,0,0,1-.15,0,.22.22,0,0,1-.07-.2v-8a.55.55,0,0,1,.07-.28.45.45,0,0,1,.15-.19l.65-.37a.11.11,0,0,1,.15,0,.26.26,0,0,1,.06.21v3.15l2.42-1.39V395a.66.66,0,0,1,.06-.27.7.7,0,0,1,.15-.19Z" fill="#fff"/>
        <path id="Trazado_107196" data-name="Trazado 107196" d="M102.6,398.25a.11.11,0,0,1,.15,0,.25.25,0,0,1,0,.19v.88a.75.75,0,0,1,0,.26.47.47,0,0,1-.15.19l-3.52,2a.11.11,0,0,1-.15,0,.24.24,0,0,1-.07-.2v-8a.5.5,0,0,1,.07-.27.36.36,0,0,1,.15-.19l3.52-2a.14.14,0,0,1,.15,0,.3.3,0,0,1,.06.2v.88a.879.879,0,0,1-.06.27.65.65,0,0,1-.15.18l-2.6,1.57v2l2.41-1.38a.09.09,0,0,1,.14,0h0a.22.22,0,0,1,.06.19v.88a.63.63,0,0,1-.06.27.38.38,0,0,1-.15.18L100,397.7v2.05Z" fill="#fff"/>
        <path id="Trazado_107197" data-name="Trazado 107197" d="M106.12,389.14c.67-.38,1.18-.44,1.53-.16a2.16,2.16,0,0,1,.51,1.69,5.429,5.429,0,0,1-.27,1.689,4.33,4.33,0,0,1-.78,1.391l1.13,2.41a.24.24,0,0,1,0,.12.46.46,0,0,1-.06.23.44.44,0,0,1-.12.15l-.69.39c-.1.06-.18.07-.23,0a.46.46,0,0,1-.11-.16l-1-2.26-1.06.62v2.87a.54.54,0,0,1-.07.27.45.45,0,0,1-.15.19l-.65.37a.11.11,0,0,1-.15,0,.22.22,0,0,1-.06-.19v-7.95a.6.6,0,0,1,.06-.27.36.36,0,0,1,.15-.19Zm-1.2,4.58,1.16-.66a2.34,2.34,0,0,0,.73-.67,2,2,0,0,0,.27-1.1c0-.46-.09-.72-.27-.76a1,1,0,0,0-.73.17l-1.16.68Z" fill="#fff"/>
        <path id="Trazado_107198" data-name="Trazado 107198" d="M112.94,392.3a.12.12,0,0,1,.16,0h0a.36.36,0,0,1,.06.2v.88a.88.88,0,0,1-.06.27.4.4,0,0,1-.16.18l-3.51,2a.12.12,0,0,1-.16,0h0a.29.29,0,0,1,0-.2v-8a.87.87,0,0,1,0-.28.4.4,0,0,1,.16-.18l3.45-2a.11.11,0,0,1,.15,0,.31.31,0,0,1,.07.2v.87a.68.68,0,0,1-.07.28.43.43,0,0,1-.15.18l-2.58,1.49v2l2.4-1.39a.11.11,0,0,1,.15,0,.26.26,0,0,1,.07.2v.87a.55.55,0,0,1-.07.28.45.45,0,0,1-.15.19l-2.41,1.37v2Z" fill="#fff"/>
      </g>
    </g>
    <g id="freepik--Character--inject-204">
      <g id="freepik--Chartacter--inject-204">
        <g id="freepik--Bottom--inject-204">
          <path id="Trazado_107199" data-name="Trazado 107199" d="M379.2,394.38l-5.58-2.12,1.84-3.77,3.43,3.21Z"/>
          <path id="Trazado_107200" data-name="Trazado 107200" d="M385,384.33s.21,3.64.25,4.79-4.86,4.7-6.07,5.26l-.31-2.63a20.449,20.449,0,0,0-2.82,4.32c-.94,1.63-2.17,4.71-4.76,6.81-3.85,3.12-9.84,4.71-15.94,4.87s-9.59-1.33-11.29-2.66-2.27-2.88-1.83-4.43S385,384.33,385,384.33Z" fill="#344154"/>
          <path id="Trazado_107201" data-name="Trazado 107201" d="M368.73,371.84l-.07-2.11c-1.12,0-1.27,3-2.92,5.69a54.729,54.729,0,0,1-8.64,10.94c-6.22,5.64-11.76,9.12-14.52,11.65-3.76,3.38,2.75,8.81,12.71,8.3,4.94-.26,13.73-2.7,16.21-5.65s4-7.45,6-9.56,6.24-4.23,7.48-6.81c.69-1.41.34-4.7-.05-7.52-.35-2.58-.42-6.53-1.88-6.21l-.11,1.32c-.59,1.13-2,3-6,3.63C375,375.87,369.09,376,368.73,371.84Z" fill="#37474f"/>
          <path id="Trazado_107202" data-name="Trazado 107202" d="M373.82,375.64c-1.88-.17-3.94-.81-4.7-2.53v-.06a4.87,4.87,0,0,1-1.31,4.06c-1.79,2.07-13.11,16.71-13.11,16.71s10.53-12.07,12.54-14.34c3-3.36,3.94-3.77,6.65-3.83Z" opacity="0.15"/>
          <path id="Trazado_107203" data-name="Trazado 107203" d="M371.32,379.52a.6.6,0,0,0,.7.5.586.586,0,1,0-.7-.5Z" opacity="0.15"/>
          <path id="Trazado_107204" data-name="Trazado 107204" d="M368.36,382.76a.6.6,0,1,0,.54-.67.61.61,0,0,0-.54.67Z" opacity="0.15"/>
          <path id="Trazado_107205" data-name="Trazado 107205" d="M365.4,386a.61.61,0,1,0,1.21-.13.59.59,0,0,0-.66-.53h0a.6.6,0,0,0-.55.65Z" opacity="0.15"/>
          <path id="Trazado_107206" data-name="Trazado 107206" d="M362.45,389.23a.61.61,0,0,0,.68.53.59.59,0,0,0,.53-.66h0a.61.61,0,0,0-1.21.13Z" opacity="0.15"/>
          <path id="Trazado_107207" data-name="Trazado 107207" d="M359.5,392.46a.61.61,0,0,0,.66.54.6.6,0,0,0,.55-.65h0a.613.613,0,1,0-1.22.12Z" opacity="0.15"/>
          <path id="Trazado_107208" data-name="Trazado 107208" d="M371.94,379.7a.25.25,0,0,0,.22-.27.27.27,0,0,0-.07-.14,10.07,10.07,0,0,0-6.87-2.77h0a.25.25,0,0,0-.22.27.24.24,0,0,0,.26.22h0c3.61-.19,6.47,2.6,6.5,2.63a.23.23,0,0,0,.18.06Z" fill="#344154"/>
          <path id="Trazado_107209" data-name="Trazado 107209" d="M369,382.93a.2.2,0,0,0,.15-.08.24.24,0,0,0,0-.34h0a10,10,0,0,0-6.87-2.75h0a.25.25,0,0,0-.23.26h0a.26.26,0,0,0,.26.23c3.61-.19,6.48,2.58,6.51,2.61A.25.25,0,0,0,369,382.93Z" fill="#344154"/>
          <path id="Trazado_107210" data-name="Trazado 107210" d="M366,386.17a.2.2,0,0,0,.15-.07.24.24,0,0,0,0-.35h0a10.13,10.13,0,0,0-6.87-2.76h0a.26.26,0,0,0-.23.27.24.24,0,0,0,.26.22c3.61-.19,6.48,2.6,6.5,2.62A.23.23,0,0,0,366,386.17Z" fill="#344154"/>
          <path id="Trazado_107211" data-name="Trazado 107211" d="M363.09,389.41a.19.19,0,0,0,.15-.08.24.24,0,0,0,0-.33h0a10,10,0,0,0-6.88-2.76h0a.24.24,0,0,0-.22.26h0a.23.23,0,0,0,.24.23h0c3.61-.19,6.47,2.59,6.5,2.62a.29.29,0,0,0,.21.06Z" fill="#344154"/>
          <path id="Trazado_107212" data-name="Trazado 107212" d="M360.12,392.69a.27.27,0,0,0,.16-.08.25.25,0,0,0,0-.34,10.07,10.07,0,0,0-6.88-2.76h0a.25.25,0,0,0-.23.26.24.24,0,0,0,.26.23h0c3.61-.19,6.47,2.59,6.5,2.61A.27.27,0,0,0,360.12,392.69Z" fill="#344154"/>
          <path id="Trazado_107213" data-name="Trazado 107213" d="M424.84,412c.85,4.76,2,7.85,4,10.46s5.69,2.9,8.41,2.33c3.81-.8,7.52-3.45,9-8.91.87-3.28.27-7-1-11.41Z" fill="#344154"/>
          <path id="Trazado_107214" data-name="Trazado 107214" d="M435.44,375.4c1.35-.06,2.51,6.33,4.06,12.68,1.64,6.81,4.22,10.42,5.46,15,1.72,6.34,1.62,9.3-.19,13.49s-11.17,9.28-15.79,4.14c-3.76-4.18-4.5-9.23-5-15.72a165.026,165.026,0,0,0-1.67-16.49c-.83-4.81-1.73-9.47-.63-10.14.17.7.37,1.6.55,2.28s.58,3.13,1.33,3.07a10.253,10.253,0,0,0-.2-1.83,2.13,2.13,0,0,1,.19-1.6,2.51,2.51,0,0,1,1.4-.84,37.746,37.746,0,0,1,3.91-1.09,16.812,16.812,0,0,1,2-.32,20.906,20.906,0,0,1,3.53-.27,1.14,1.14,0,0,1,.8.56,2,2,0,0,1,.16.73,5.359,5.359,0,0,0,.33,1.31c.06.19.22.4.41.34s.19-.26.17-.42c-.08-.78-.25-1.34-.39-2.24-.07-.42-.21-.94-.26-1.4S435.5,375.81,435.44,375.4Z" fill="#37474f"/>
          <path id="Trazado_107215" data-name="Trazado 107215" d="M440.2,405.26a.46.46,0,0,1-.36.56.47.47,0,1,1,.36-.56Z" opacity="0.15"/>
          <path id="Trazado_107216" data-name="Trazado 107216" d="M439.26,400.85a.46.46,0,0,1-.36.56.47.47,0,0,1-.56-.36.48.48,0,0,1,.36-.56.47.47,0,0,1,.56.36Z" opacity="0.15"/>
          <path id="Trazado_107217" data-name="Trazado 107217" d="M438.32,396.69a.47.47,0,0,1-.36.56.48.48,0,0,1-.56-.36.472.472,0,0,1,.92-.21Z" opacity="0.15"/>
          <path id="Trazado_107218" data-name="Trazado 107218" d="M437.38,392.59a.47.47,0,0,1-.36.56.48.48,0,0,1-.56-.36.472.472,0,0,1,.92-.21Z" opacity="0.15"/>
          <path id="Trazado_107219" data-name="Trazado 107219" d="M426.9,394.5a.47.47,0,1,1-.56-.35.46.46,0,0,1,.56.35Z" opacity="0.15"/>
          <path id="Trazado_107220" data-name="Trazado 107220" d="M427.83,398.64a.46.46,0,0,1-.35.55h0a.472.472,0,1,1-.21-.92.46.46,0,0,1,.56.36Z" opacity="0.15"/>
          <path id="Trazado_107221" data-name="Trazado 107221" d="M428.75,402.8a.471.471,0,1,1-.92.2.472.472,0,0,1,.92-.21Z" opacity="0.15"/>
          <path id="Trazado_107222" data-name="Trazado 107222" d="M429.73,407.22a.49.49,0,0,1-.38.57.479.479,0,1,1,.38-.57Z" opacity="0.15"/>
          <path id="Trazado_107223" data-name="Trazado 107223" d="M433.92,408.86l-7.31-30.74,1.72-.24Z" opacity="0.15"/>
          <path id="Trazado_107224" data-name="Trazado 107224" d="M439.83,405.6h-.08c-3.17-.31-8.41.63-10.34,1.88a.24.24,0,0,1-.33-.07h0a.24.24,0,0,1,.07-.33c2.06-1.34,7.35-2.3,10.67-2a.235.235,0,0,1,0,.47Z" fill="#344154"/>
          <path id="Trazado_107225" data-name="Trazado 107225" d="M438.85,401.15a.239.239,0,0,1-.12,0c-2.5-.83-8.09.46-10.35,1.88a.24.24,0,0,1-.26-.4h0c2.31-1.51,8.08-2.82,10.72-1.95a.24.24,0,0,1,0,.46Z" fill="#344154"/>
          <path id="Trazado_107226" data-name="Trazado 107226" d="M437.93,397a.17.17,0,0,1-.14,0c-2.49-.83-8.08.47-10.34,1.89a.25.25,0,0,1-.32-.13.24.24,0,0,1,.06-.28c2.32-1.49,8.09-2.82,10.72-1.95a.24.24,0,0,1,.16.28h0A.26.26,0,0,1,437.93,397Z" fill="#344154"/>
          <path id="Trazado_107227" data-name="Trazado 107227" d="M437,392.91h-.13c-2.49-.83-8.09.47-10.34,1.89a.241.241,0,0,1-.27-.4h0c2.33-1.5,8.1-2.82,10.72-2a.24.24,0,0,1,.16.3h0a.21.21,0,0,1-.14.21Z" fill="#344154"/>
          <path id="Trazado_107228" data-name="Trazado 107228" d="M428.18,218.71c3.13,39.6,5,93.53,5,93.53.29,3,3.18,15.84,4.63,30.67,1.53,15.65,2.77,45,2.77,45s-10.94,5.89-19.81,2.94c0,0-9.51-49.37-14.05-67.81-4.31-17.46-11-50.54-11-50.54l-4.58,32.77s.6,11.29.27,19.19c-.39,9.18-6.25,53.33-6.25,53.33s-11.91,7-21.13-.11c0,0-1.6-60.88-1.88-71.93-.51-21.68,2-63.68,2.82-91.66Z" fill="#344154"/>
          <path id="Trazado_107229" data-name="Trazado 107229" d="M412.08,264.3q1.25,14.24,2.78,28.45.74,7.1,1.55,14.2l.81,7.1.41,3.55c.13,1.18.38,2.35.56,3.52,1.56,9.41,4,26.47,5.64,35.84s3.52,18.73,5.45,28.06q-1.87-14.17-4.06-28.27c-1.47-9.41-3.76-26.49-5.38-35.87-.19-1.18-.43-2.34-.57-3.52l-.43-3.54-.9-7.08q-.88-7.08-1.88-14.16Q414.23,278.42,412.08,264.3Z"/>
          <path id="Trazado_107230" data-name="Trazado 107230" d="M368.23,261.62c-1,8.84-1.52,17.75-1.88,26.65s-.73,17.86-.39,26.71.44,23.82.78,32.73.73,17.79,1.26,26.68q.21-13.36.08-26.71c-.05-8.89-.21-23.81-.4-32.71l-.16-6.66v-6.68l.17-13.35.22-13.34C367.94,270.51,368.08,266.06,368.23,261.62Z"/>
          <path id="Trazado_107231" data-name="Trazado 107231" d="M395.72,272.47l-3.86-21.69s-10.75-1.57-16.26-6.52c0,0,3.55,6.59,13.69,9.11l3.89,19.16-2,32.7Z"/>
        </g>
        <g id="freepik--Top--inject-204">
          <g id="freepik--Arm--inject-204">
            <path id="Trazado_107232" data-name="Trazado 107232" d="M349,151c.08-1.88.94-3.36,3.22-4.89a16.33,16.33,0,0,0,4.61-4c1.25-1.67,3.37-4.8,4.65-5.84s-.25-2.53-2.5-2.27-7.34,2.82-8.56,5.53A24.45,24.45,0,0,0,349,151Z" fill="#f28f8f"/>
            <path id="Trazado_107233" data-name="Trazado 107233" d="M378.23,142.06c-5.17.4-11.36.4-16.72,10.29-5.53,10.22-10.13,18.28-10.13,18.28a96.859,96.859,0,0,1-2.17-14.36c-.44-7.09-.26-10.19,2-14.27a118.283,118.283,0,0,0,8.62-13.9A69,69,0,0,0,348,129.72a2.41,2.41,0,0,0-1.49,1c-.2.39-.19.87-.38,1.28a2.62,2.62,0,0,1-1.4,1.18c-1.19.57-2.57,1.06-3.13,2.25-.31.66-.31,1.44-.58,2.11a7.9,7.9,0,0,1-2.38,2.66,7.34,7.34,0,0,0-1.74,3.76c-1.8,7.3-2.29,14.72-2.29,26,0,7.85.47,18.6,3.16,24.54s8.1,12.66,16,4.71,21.78-30,21.78-30Z" fill="#ffa8a7"/>
            <path id="Trazado_107234" data-name="Trazado 107234" d="M352.08,140.66a13.4,13.4,0,0,0-3.69,2.16,4.55,4.55,0,0,1,.05,4c-.94,2.41-2.75,3.34-2.3,5.64a3.92,3.92,0,0,1,2.11-3.61C350.86,147.24,352.39,142.05,352.08,140.66Z" fill="#f28f8f"/>
            <path id="Trazado_107235" data-name="Trazado 107235" d="M377.68,141.73c-4.92.53-10,.8-14.81,7.45s-11.67,20.69-11.67,20.69l.18.79s4,5.08,4.81,15.1a20.88,20.88,0,0,1-5.42,16,8.479,8.479,0,0,1-2.34,1s2,1.44,4.84-.58,25-33.71,25-33.71Z" fill="#f0f0f0"/>
            <path id="Trazado_107236" data-name="Trazado 107236" d="M351.07,169.22l.31,1.41s2.6,9.12-.71,16-8.11,7.63-10.6,7.41c-2.74-.23-3.64-3.57-3.64-3.57l-.51-2.34a2,2,0,0,0-.61,2.34,62.056,62.056,0,0,0,3.76,8.46c1.51,2.74,6.58,6.69,10.95,4.28s7.08-8.32,7.08-16.18-1.81-12.88-3-14.55-3.4-5.25-3.4-5.25Z" fill="#e0e0e0"/>
          </g>
          <g id="freepik--Chest--inject-204">
            <path id="Trazado_107237" data-name="Trazado 107237" d="M429.15,145.87s6.93,5.74,3.66,19.83a205.911,205.911,0,0,0-4.39,27.93c-.51,7.43.33,32.48.33,32.48-11.24,13.43-58.23,10-64.06-2.22,0,0-.67-47.53,3.58-64.37,2.41-9.53,5.79-15,9.4-17.79l16-3.76,14.51-.18Z" fill="#e6e6e6"/>
          </g>
          <g id="freepik--Pen--inject-204">
            <path id="Trazado_107238" data-name="Trazado 107238" d="M422.68,65.5a5.04,5.04,0,1,0-8.58-5.29h0l-2.67,4.32a2.52,2.52,0,0,0,.18,2.53,7.91,7.91,0,0,0,6.08,3.77,2.52,2.52,0,0,0,2.33-1l2.66-4.32Z" fill="#455a64"/>
            <path id="Trazado_107239" data-name="Trazado 107239" d="M417.69,70.81a2.54,2.54,0,0,0,2.33-.94l2.66-4.33h0a5,5,0,0,0,.22-4.9h0c.45,1.35-.83,3.4-2.31,5.8S417.3,70,413.67,68c-2.64-1.48-2.32-3.1-1.94-3.87l-.3.48a2.52,2.52,0,0,0,.18,2.53,7.9,7.9,0,0,0,6.08,3.67Z" fill="#37474f"/>
            <path id="Trazado_107240" data-name="Trazado 107240" d="M422.41,86.2a15.668,15.668,0,1,0-26.683-16.432l0,0c-1.21,2-1.13,4.7.55,7.85,3.36,6.22,11.81,11.42,18.87,11.62C418.68,89.34,421.19,88.18,422.41,86.2Z" fill="#aed3f2"/>
            <path id="Trazado_107241" data-name="Trazado 107241" d="M421.85,78.35c-3.35-6.21-11.8-11.42-18.86-11.62-3.53-.1-6.05,1.08-7.26,3L337.1,165c-1.22,2-1.12,4.7.55,7.85,3.36,6.22,11.8,11.42,18.86,11.63,3.53.09,6.05-1.08,7.26-3L422.41,86.2C423.62,84.24,423.53,81.46,421.85,78.35Z" fill="#84aacc"/>
            <path id="Trazado_107242" data-name="Trazado 107242" d="M353.2,190.39c-7.26-.21-15.94-5.56-19.39-11.94-1.72-3.2-1.81-6-.56-8.07l4.5-7.33c1.25-2,3.84-3.22,7.47-3.12,7.26.21,15.94,5.56,19.39,11.94,1.72,3.2,1.82,6,.57,8.08l-4.51,7.32C359.42,189.29,356.83,190.5,353.2,190.39Z" fill="#aed3f2"/>
            <path id="Trazado_107243" data-name="Trazado 107243" d="M340.71,167.25c7.26.21,15.94,5.55,19.39,11.95,1.73,3.19,1.81,6,.56,8.07s-3.83,3.22-7.46,3.12c-7.26-.21-15.94-5.56-19.39-11.94-1.72-3.2-1.81-6-.56-8.07S337.08,167.15,340.71,167.25Z" fill="#4c708f"/>
            <path id="Trazado_107244" data-name="Trazado 107244" d="M281.16,259c1.08-1.75,3.32-2.82,6.47-2.7,6.28.18,13.8,4.81,16.8,10.34,1.49,2.77,1.57,5.24.48,7h0l-3.6,3.54h0a7,7,0,0,1-5.34,1.73c-5.79-.16-12.71-4.43-15.47-9.53a7,7,0,0,1-.85-5.55h0Z" fill="#4c708f"/>
            <path id="Trazado_107245" data-name="Trazado 107245" d="M287.63,256.33c6.28.18,13.8,4.81,16.8,10.34,1.49,2.77,1.57,5.24.48,7l52.88-85.84c1.08-1.76,1-4.23-.49-7-3-5.53-10.5-10.16-16.79-10.34-3.14-.09-5.39.94-6.47,2.7L281.16,259h0C282.21,257.27,284.48,256.24,287.63,256.33Z" fill="#6595bf"/>
            <path id="Trazado_107246" data-name="Trazado 107246" d="M300.85,277.51c1-1.56.94-3.76-.41-6.3-2.68-5-9.45-9.09-15.11-9.23-2.83-.06-4.81.84-5.77,2.41h0v.05h0c-3.37,5.51-10,22.15-9.2,30.45l.15.09a2.941,2.941,0,0,0,.39,1.29,7.28,7.28,0,0,0,5.64,3.41,3,3,0,0,0,1.27-.22h0C285.54,296.45,297.5,282.94,300.85,277.51Z" fill="#6595bf"/>
            <path id="Trazado_107247" data-name="Trazado 107247" d="M357.3,180.82a16.188,16.188,0,0,0-2-2.86l-52.88,85.89a16,16,0,0,1,2,2.87c.09.18.16.36.25.54l52.89-85.85A2.921,2.921,0,0,0,357.3,180.82Zm8.58-5.49a6.865,6.865,0,0,0-.21-.87l52.16-84.64c6.85-11.1,6.82-15.78,4.33-20.38,1.48,4.54-4.79,14.65-5.64,16L364,170.75c.24.37.45.74.66,1.1l-4.51,7.33a12.45,12.45,0,0,1,1.27,3.45ZM274,299.06l2.75-1.23s2,.21,7.94-5.2,9.52-11.29,15.78-21.42a15.4,15.4,0,0,0-2.46-3.27c-.06.14-7,13.64-15.77,23.19a50.561,50.561,0,0,1-8.7,7.69Z" fill="#fff" opacity="0.2"/>
            <path id="Trazado_107248" data-name="Trazado 107248" d="M272.56,295.27l-2.19,3.56c-.94,1.55-2.49,5.93-1.26,6.69s4.46-2.58,5.42-4.13h0l2.19-3.55s-.05-.94-1.68-1.88a3.54,3.54,0,0,0-2.48-.69Z" fill="#455a64"/>
            <path id="Trazado_107249" data-name="Trazado 107249" d="M270.7,305.23a1.61,1.61,0,0,0-1.87-1.29h-.16c-.07.73.07,1.32.44,1.55A1.591,1.591,0,0,0,270.7,305.23Z" fill="#344154"/>
          </g>
          <g id="freepik--Hand--inject-204">
            <path id="Trazado_107250" data-name="Trazado 107250" d="M359.8,128.1c1.34,0,3.82,1.44,5.77,2.71s3.76,1.37,3.12,2.83a2.81,2.81,0,0,1-2.58,1.18,11,11,0,0,1-3.17-.59c2.3,2,2.82,2.77,2.13,3.47-.94,1-2.65.88-4,.2.78.79,1.66,1.21,1.26,2s-1.83,1-3.48.7a9.81,9.81,0,0,1-3-1.07c-1.76.47-3.71,1.15-3.71,1.15a42.311,42.311,0,0,1,7.66-12.58Z" fill="#ffa8a7"/>
            <path id="Trazado_107251" data-name="Trazado 107251" d="M361,137.84c-.94-.54-1.88-1.21-2.82-1.77a4.28,4.28,0,0,0-3.1-.34c-1.08.13-2.16.34-3.24.55s-2.16.37-3.26.51c1.05-.3,2.12-.56,3.2-.82a32.9,32.9,0,0,1,3.26-.63,10.46,10.46,0,0,1,1.68-.1,3.17,3.17,0,0,1,1.62.57C359.33,136.47,360.15,137.18,361,137.84Z" fill="#f28f8f"/>
            <path id="Trazado_107252" data-name="Trazado 107252" d="M362.94,134.19c-.84-.54-1.68-1.07-2.53-1.57-.43-.24-.87-.51-1.29-.69a3.9,3.9,0,0,0-1.4-.13,25.432,25.432,0,0,0-3,.3c-1,.12-2,.26-3,.34.94-.25,1.94-.46,2.93-.65a22.9,22.9,0,0,1,3-.38,4,4,0,0,1,1.54.18,9.672,9.672,0,0,1,1.32.77A20.8,20.8,0,0,1,362.94,134.19Z" fill="#f28f8f"/>
          </g>
          <g id="freepik--Head--inject-204">
            <path id="Trazado_107253" data-name="Trazado 107253" d="M411.93,95.43s3.13,0,5.43,3.83c1.16,1.88,2.12,5.47,0,16a41.53,41.53,0,0,1-4.22,11.67,5.11,5.11,0,0,1-2.82,2.55l-.31-7.93L410,116s-3.85-4.61-4.49-8.55c-.82-5.06.12-7.21.12-7.21Z" fill="#37474f"/>
            <path id="Trazado_107254" data-name="Trazado 107254" d="M413,95.62c-1.06-4.4-7-9.33-18-9.22-8.94.1-14,3.5-16.73,8.89s-.29,12-.29,12l27.89-3.63Z" fill="#37474f"/>
            <path id="Trazado_107255" data-name="Trazado 107255" d="M417.39,123.35c-3,1.79-6.05-.87-6.05-.87l.43,16.36s-.12,3.16-5,6.25c-6.87,4.37-9.88,5.51-12.66,9.89-2.75-6.88-5.57-10.66-1.35-16.28l-.23-3.76a26.179,26.179,0,0,1-4.93.16c-3.67-.34-6.13-3.07-7.46-6.94-2-5.72-3.2-15-1.64-25a8.43,8.43,0,0,1,2.69-5.06c6.81-6,15.11-2.46,21.34-.48a11.44,11.44,0,0,0,7.63-.52c-2,2.47-2.82,4.8-2.21,16a6.721,6.721,0,0,0,1.7,1.94c1.4,1.07,2.29-2,3.33-3.21a4.58,4.58,0,0,1,6.47.13,4.831,4.831,0,0,1,.75,1,7.53,7.53,0,0,1-2.76,10.28Z" fill="#ffa8a7"/>
            <path id="Trazado_107256" data-name="Trazado 107256" d="M396.51,106.66l4.12,1.49a2.29,2.29,0,0,0-1.36-2.87,2.14,2.14,0,0,0-2.73,1.3Z" fill="#37474f"/>
            <path id="Trazado_107257" data-name="Trazado 107257" d="M381.3,107.85l4.16-1.5a2.12,2.12,0,0,0-2.66-1.4h-.1A2.33,2.33,0,0,0,381.3,107.85Z" fill="#37474f"/>
            <path id="Trazado_107258" data-name="Trazado 107258" d="M399.09,110.89a1.79,1.79,0,1,1-3.57.11,1.77,1.77,0,0,1,1.73-1.84h0a1.77,1.77,0,0,1,1.84,1.72Z" fill="#344154"/>
            <path id="Trazado_107259" data-name="Trazado 107259" d="M385.81,111.07a1.79,1.79,0,1,1-1.88-1.73,1.643,1.643,0,0,1,1.88,1.73Z" fill="#344154"/>
            <path id="Trazado_107260" data-name="Trazado 107260" d="M392.32,107.35l-.75,11.42-6.13-1.83a26.68,26.68,0,0,1,6.88-9.59Z" fill="#f28f8f"/>
            <path id="Trazado_107261" data-name="Trazado 107261" d="M408,112.21c-.27,7.79-2.94,8.36-5.7,8.84-3.66.65-5.48-1.3-12-1.22-4,0-5.2,1.24-7.45,2.2-1.65.71-3,.52-3.67-.94a26,26,0,0,1-1.36-8.39,63.122,63.122,0,0,0,.48,12.74c.59,3.65,2,6.77,4,8.47,2.82,2.33,8.68,3.22,16,1.52s10-4.78,10.88-7.37c2.74-8.47,1.58-12.38,2.52-14S408,112.21,408,112.21Z" fill="#37474f"/>
            <path id="Trazado_107262" data-name="Trazado 107262" d="M391.23,122.15c3.77-.12,5,.54,5.18,3.1.3,3.65.14,4.89-1.26,5.09-1.65.26-2.82.37-2.93-.67a4.28,4.28,0,0,1,.21-2.35c.57-.71.37-.8-1.27-.75s-1.62.35-1.12.85.34,1.62.35,2.34-.17,1.1-2.53.94c-2.06-.17-1.73-1.82-1.73-5C386.13,123.57,387,122.29,391.23,122.15Z" fill="#ffa8a7"/>
            <path id="Trazado_107263" data-name="Trazado 107263" d="M394.78,122.68l-6.08.94a3,3,0,0,0,3.31,2.69h.12a3.22,3.22,0,0,0,2.65-3.63Z" fill="#b16668"/>
            <path id="Trazado_107264" data-name="Trazado 107264" d="M394,123.61a3,3,0,0,1,.74.06,3.17,3.17,0,0,1-2.6,2.59,2.75,2.75,0,0,1-1,0,2.82,2.82,0,0,1,2.86-2.65Z" fill="#f28f8f"/>
          </g>
          <g id="freepik--Tie--inject-204">
            <path id="Trazado_107265" data-name="Trazado 107265" d="M391.19,154.42s-2.71-5.1-2.72-7.1l3.23-3.38,1.06,8.34Z" fill="#d9a171"/>
            <path id="Trazado_107266" data-name="Trazado 107266" d="M391.19,154.42s-2.71-5.1-2.72-7.1l3.23-3.38,1.06,8.34Z" opacity="0.2"/>
            <path id="Trazado_107267" data-name="Trazado 107267" d="M395.63,152.6l5.53-3.8,4.64,3.1-8.5,4.39Z" fill="#d9a171"/>
            <path id="Trazado_107268" data-name="Trazado 107268" d="M395.63,152.6l5.53-3.8,4.64,3.1-8.5,4.39Z" opacity="0.2"/>
            <path id="Trazado_107269" data-name="Trazado 107269" d="M399.53,204c-.53-17.87-4.52-40.56-4.2-44.91l-3-.28c-2.08,5.22-6.72,34.19-6.5,46.52-.13,4.31,4.07,12.23,7,12.36S399.6,206.58,399.53,204Z" fill="#d9a171"/>
            <path id="Trazado_107270" data-name="Trazado 107270" d="M399.53,204c-.53-17.87-4.52-40.56-4.2-44.91l-3-.28c-2.08,5.22-6.72,34.19-6.5,46.52-.13,4.31,4.07,12.23,7,12.36S399.6,206.58,399.53,204Z" fill="#fff" opacity="0.1"/>
            <path id="Trazado_107271" data-name="Trazado 107271" d="M392.05,159.47c.1-.27.15-.45.24-.66h0l3,.28h0a10.007,10.007,0,0,0,0,1.34,5.4,5.4,0,0,1-3.24-.96Z" opacity="0.5"/>
            <path id="Trazado_107272" data-name="Trazado 107272" d="M395.7,152.18a12.521,12.521,0,0,0-2.87-.1,6.62,6.62,0,0,0-1.64,2.34,10.34,10.34,0,0,0,1.1,4.36,3.64,3.64,0,0,0,3,.28,6.34,6.34,0,0,0,2.17-2.93,5.76,5.76,0,0,0-1.76-3.95Z" fill="#d9a171"/>
            <path id="Trazado_107273" data-name="Trazado 107273" d="M395.7,152.18a12.521,12.521,0,0,0-2.87-.1,6.62,6.62,0,0,0-1.64,2.34,10.34,10.34,0,0,0,1.1,4.36,3.64,3.64,0,0,0,3,.28,6.34,6.34,0,0,0,2.17-2.93,5.76,5.76,0,0,0-1.76-3.95Z" fill="#fff" opacity="0.1"/>
            <path id="Trazado_107274" data-name="Trazado 107274" d="M395.64,152.17c.1,0,.23.23.32.24,2.11-1.16,2.44-1.55,3-1.4,1.07.3,3.63,4.71,4.26,6.12s.53,1.41,2.47.09a35,35,0,0,0,8.74-8.63,26,26,0,0,0,3.44-7.06s-2.26-3.05-2.93-4.22c-1.29-2.25-2-3.16-3.29-2.95v1.48c-.21,2-2.25,3.89-5,6.31s-7.19,4.7-8.23,5.77a21.112,21.112,0,0,0-2.78,4.25Z" fill="#f5f5f5"/>
            <path id="Trazado_107275" data-name="Trazado 107275" d="M385.66,154c.32.8,2.82-5.54,4.07-5.43.6.05,2,1.74,3.14,3.54h.87a19.649,19.649,0,0,1-1.37-4.8c-.28-2.14.5-8.55.5-8.55l-.19-2.47-1.11.05a9.748,9.748,0,0,0-1.08,1.47c-1.2,2-4.35,6.74-4.7,9.14a21.13,21.13,0,0,0-.13,7.05Z" fill="#f5f5f5"/>
          </g>
          <g id="freepik--arm--inject-204-2" data-name="freepik--arm--inject-204">
            <path id="Trazado_107276" data-name="Trazado 107276" d="M404.58,189.32a23.618,23.618,0,0,1-3.67-5.2c-1.27-2.4-1.73-4-2.67-6l-.94-1.89a1.13,1.13,0,0,0-.29-.43,1,1,0,0,0-1.1.05,3.84,3.84,0,0,0-1.72,3.29,15.537,15.537,0,0,0,.61,3.83c.18.83,1,3.88,1,3.88Z" fill="#f28f8f"/>
            <path id="Trazado_107277" data-name="Trazado 107277" d="M444,156.87c-3.09-7.3-7-8.4-17.28-11.36-5.59,9.55-1.42,28.09-1.42,28.09l4.7,21.93s-16.09-.5-18.93-1.8-10.87-7.86-13.52-9.79c-3.62-2.62-5.15-2-6.74-1.53-5.2,1.54-6.31,2.15-7.33,3a2.41,2.41,0,0,0-.74,2.21c-1.4.37-3.51.62-3.47,3a6.67,6.67,0,0,0,.18,1.89,1.46,1.46,0,0,0-.84.64c-1,1.53,1.67,6,3.11,6.93,1,.68,2.3.61,4,.15,1.4-.4.54-1.76.54-1.76l2-.16c4.75,2.47,5.81,8.12,11.71,8.67a57.06,57.06,0,0,1,7.15.79c12.88,2.43,25.52,9.92,36.61,9.35,10.83-.57,9.74-6.23,9-12.8C452,198.44,447.51,165.2,444,156.87Z" fill="#ffa8a7"/>
            <path id="Trazado_107278" data-name="Trazado 107278" d="M429.54,193.32l.47,2.18c5,.58,10.78,3.36,12.32,5.86C440.84,197.29,438.42,194.45,429.54,193.32Z" fill="#f28f8f"/>
            <path id="Trazado_107279" data-name="Trazado 107279" d="M426.45,144.79c3.76,1.12,10.41,2.24,13.31,5.12s4.83,4.58,7.11,14.11,5.06,32.2,6.27,36.22,2.2,6.72,0,9.17c-2.72-7.27-10.41-13.47-23.12-13.91-2.1,0-1.61-2.6-2.35-5s-3.51-16.67-4.71-21.41S420,149.82,426.45,144.79Z" fill="#f0f0f0"/>
            <path id="Trazado_107280" data-name="Trazado 107280" d="M428.48,194.45l-.3.94a29.71,29.71,0,0,1,11.72,6.47c5,4.76,6.1,8.66,6.36,11.15s0,4-1.88,4.06l-1.72.06s.35.94,3.61.68c2.82-.22,5.55-1,6.88-3.92a8.81,8.81,0,0,0,.35-7.52c-.94-2.62-3.43-7.24-11.16-10.43C436,193.32,428.48,194.45,428.48,194.45Z" fill="#e0e0e0"/>
            <path id="Trazado_107281" data-name="Trazado 107281" d="M382.74,187.68l6.13-2.15-6.12,1.21a2.481,2.481,0,0,0-.01.94Z" fill="#f28f8f"/>
            <path id="Trazado_107282" data-name="Trazado 107282" d="M379.46,192.49l7.14-2-7.26,1.1A4.432,4.432,0,0,0,379.46,192.49Z" fill="#f28f8f"/>
            <path id="Trazado_107283" data-name="Trazado 107283" d="M380.86,195.55a2.35,2.35,0,0,0,1.09.72,4.81,4.81,0,0,0,1.3.24l-.1-.06c.24.36.5.71.76,1.05l.13-.22a1.51,1.51,0,0,0-1.12.44,2,2,0,0,0-.5,1,2.49,2.49,0,0,1,.63-.9,1.46,1.46,0,0,1,.94-.31h.29l-.16-.23a10.529,10.529,0,0,0-.78-1v-.06h-.06a6.6,6.6,0,0,1-1.25-.17,2.71,2.71,0,0,1-1.17-.5Z" fill="#f28f8f"/>
            <path id="Trazado_107284" data-name="Trazado 107284" d="M382.91,196.22a23.61,23.61,0,0,0,2.66-.18s.13.51,1.09,1.27a16.69,16.69,0,0,0,1.57.94l-2,.16a3.22,3.22,0,0,0-2.46-.94Z" fill="#f28f8f"/>
          </g>
        </g>
      </g>
    </g>
  </g>
</svg>
