<svg xmlns="http://www.w3.org/2000/svg" width="150" height="150" viewBox="0 0 150 150">
  <g id="Grupo_60215" data-name="Grupo 60215" transform="translate(-6.053 -11.062)">
    <g id="Grupo_60217" data-name="Grupo 60217" transform="translate(6.053 11.062)">
      <rect id="Rectángulo_6876" data-name="Rectángulo 6876" width="150" height="150" fill="#5e6178" opacity="0"/>
      <g id="surface1" transform="translate(7.864 7.864)">
        <path id="Trazado_108102" data-name="Trazado 108102" d="M549.237,6799.29a67.136,67.136,0,1,1-67.137-67.136A67.136,67.136,0,0,1,549.237,6799.29Z" transform="translate(-414.964 -6732.154)" fill="#aed3f2"/>
        <path id="Trazado_108103" data-name="Trazado 108103" d="M429.844,6871.01a67.554,67.554,0,0,0,112.094,0Z" transform="translate(-418.754 -6766.578)" fill="#344154"/>
        <path id="Trazado_108104" data-name="Trazado 108104" d="M486.992,6886.482a15.735,15.735,0,0,1,12.893-15.472H429.844a66.763,66.763,0,0,0,65.129,29.16A15.721,15.721,0,0,1,486.992,6886.482Z" transform="translate(-418.754 -6766.578)" fill="#344154"/>
        <path id="Trazado_108105" data-name="Trazado 108105" d="M477.337,6835.392c-1.636-4.062-6.587-4.124-8.3-.1-.508.77-6.3,19.338-25.316,25.86h29.554c3.452-3.538,6.716-8.642,9.719-15.1A50.76,50.76,0,0,1,477.337,6835.392Z" transform="translate(-422.075 -6756.99)" fill="#6595bf"/>
        <path id="Trazado_108106" data-name="Trazado 108106" d="M474.292,6835.292a5.258,5.258,0,0,1,1.153-2.29c-2.155-1.411-5.151-.66-6.4,2.29-.508.77-6.3,19.338-25.316,25.86H458.5C470.282,6854.675,474.025,6835.942,474.292,6835.292Z" transform="translate(-422.091 -6756.991)" fill="#4c708f"/>
        <path id="Trazado_108107" data-name="Trazado 108107" d="M532.468,6820.8c-4.99-13.306-9.056-30.687-11.784-50.927-.809-6-8.236-6.041-9.089-.045-.342,1.755-4.171,35.521-15.171,59.168a39.79,39.79,0,0,0,19.837,15.1C522.392,6839.59,527.929,6831.538,532.468,6820.8Z" transform="translate(-435.124 -6740.181)" fill="#d9a171"/>
        <path id="Trazado_108108" data-name="Trazado 108108" d="M493.1,6850.752c-3,6.456-6.268,11.56-9.72,15.1h29.557A39.785,39.785,0,0,1,493.1,6850.752Z" transform="translate(-431.927 -6761.657)" fill="#5e6178"/>
        <path id="Trazado_108109" data-name="Trazado 108109" d="M495.767,6865.85a43.991,43.991,0,0,0,4.15-7.512,43.273,43.273,0,0,1-6.818-7.586c-3,6.456-6.267,11.56-9.719,15.1h12.386Z" transform="translate(-431.927 -6761.657)" fill="#344154"/>
        <path id="Trazado_108110" data-name="Trazado 108110" d="M503.24,6836.583c7.684-17.205,11.785-45.368,13.731-64.121.283-1.562.025-4.531,1.72-6.26-2.509-1.864-6.485-.665-7.1,3.627-.342,1.755-4.171,35.521-15.173,59.168A43.233,43.233,0,0,0,503.24,6836.583Z" transform="translate(-435.197 -6740.233)" fill="#a66d58"/>
        <path id="Trazado_108111" data-name="Trazado 108111" d="M576.758,6838.855c-10.13-16.539-13.565-38.451-14.246-41.048-1.049-5.58-7.878-5.625-8.983-.061-.312,1.3-2.732,16.04-8.74,30.25,3.942,10.509,8.458,18.477,13.348,23.294h12.135A66.468,66.468,0,0,0,576.758,6838.855Z" transform="translate(-447.088 -6747.233)" fill="#f2e9e4"/>
        <path id="Trazado_108112" data-name="Trazado 108112" d="M523.042,6863.048H552.6c-4.89-4.817-9.406-12.783-13.348-23.294C534.709,6850.491,529.173,6858.543,523.042,6863.048Z" transform="translate(-441.76 -6758.873)" fill="#d9a171"/>
        <path id="Trazado_108113" data-name="Trazado 108113" d="M535.856,6863.048c2.866-2.87,5.556-7.181,7.992-12.708a104.4,104.4,0,0,1-4.6-10.586c-4.539,10.737-10.076,18.788-16.207,23.294h12.814Z" transform="translate(-441.76 -6758.873)" fill="#a37955"/>
        <path id="Trazado_108114" data-name="Trazado 108114" d="M559.708,6797.747a6.173,6.173,0,0,1,1.182-3.02c-2.406-2.188-6.524-1.2-7.362,3.02-.312,1.3-2.732,16.039-8.74,30.25a104.344,104.344,0,0,0,4.6,10.586C556.359,6822.773,558.745,6803.188,559.708,6797.747Z" transform="translate(-447.253 -6747.315)" fill="#d9a171"/>
        <path id="Trazado_108115" data-name="Trazado 108115" d="M441.89,6773.44h-2.977a2.392,2.392,0,1,1,0-4.784h2.977a2.392,2.392,0,0,1,0,4.784Z" transform="translate(-420.455 -6741.252)" fill="#358eba"/>
        <path id="Trazado_108116" data-name="Trazado 108116" d="M441.89,6793.269h-2.977a2.392,2.392,0,1,1,0-4.784h2.977a2.392,2.392,0,0,1,0,4.784Z" transform="translate(-420.455 -6746.194)" fill="#358eba"/>
        <path id="Trazado_108117" data-name="Trazado 108117" d="M441.89,6813.1h-2.977a2.392,2.392,0,1,1,0-4.784h2.977a2.392,2.392,0,0,1,0,4.784Z" transform="translate(-420.455 -6751.137)" fill="#358eba"/>
        <path id="Trazado_108118" data-name="Trazado 108118" d="M441.89,6832.927h-2.977a2.392,2.392,0,1,1,0-4.783h2.977a2.392,2.392,0,0,1,0,4.783Z" transform="translate(-420.455 -6756.079)" fill="#358eba"/>
        <path id="Trazado_108119" data-name="Trazado 108119" d="M441.89,6852.757h-2.977a2.392,2.392,0,1,1,0-4.784h2.977a2.392,2.392,0,0,1,0,4.784Z" transform="translate(-420.455 -6761.021)" fill="#358eba"/>
        <path id="Trazado_108120" data-name="Trazado 108120" d="M428.5,6773.44h-.037a2.392,2.392,0,0,1,0-4.784h.037a2.392,2.392,0,0,1,0,4.784Z" transform="translate(-417.794 -6741.252)" fill="#358eba"/>
        <path id="Trazado_108121" data-name="Trazado 108121" d="M428.5,6793.269h-.037a2.392,2.392,0,0,1,0-4.784h.037a2.392,2.392,0,0,1,0,4.784Z" transform="translate(-417.794 -6746.194)" fill="#358eba"/>
        <path id="Trazado_108122" data-name="Trazado 108122" d="M428.5,6813.1h-.037a2.392,2.392,0,0,1,0-4.784h.037a2.392,2.392,0,0,1,0,4.784Z" transform="translate(-417.794 -6751.137)" fill="#358eba"/>
        <path id="Trazado_108123" data-name="Trazado 108123" d="M428.5,6832.927h-.037a2.392,2.392,0,0,1,0-4.783h.037a2.392,2.392,0,0,1,0,4.783Z" transform="translate(-417.794 -6756.079)" fill="#358eba"/>
        <path id="Trazado_108124" data-name="Trazado 108124" d="M428.5,6852.757h-.037a2.392,2.392,0,0,1,0-4.784h.037a2.392,2.392,0,0,1,0,4.784Z" transform="translate(-417.794 -6761.021)" fill="#358eba"/>
        <path id="Trazado_108125" data-name="Trazado 108125" d="M462.736,6875.562a2.392,2.392,0,0,1-2.393-2.392v-2.978a2.392,2.392,0,0,1,4.784,0v2.978A2.39,2.39,0,0,1,462.736,6875.562Z" transform="translate(-426.274 -6765.945)" fill="#358eba"/>
        <path id="Trazado_108126" data-name="Trazado 108126" d="M482.565,6875.562a2.39,2.39,0,0,1-2.391-2.392v-2.978a2.392,2.392,0,0,1,4.784,0v2.978A2.392,2.392,0,0,1,482.565,6875.562Z" transform="translate(-431.217 -6765.945)" fill="#358eba"/>
        <path id="Trazado_108127" data-name="Trazado 108127" d="M502.394,6875.562A2.391,2.391,0,0,1,500,6873.17v-2.978a2.392,2.392,0,0,1,4.784,0v2.978A2.392,2.392,0,0,1,502.394,6875.562Z" transform="translate(-436.159 -6765.945)" fill="#358eba"/>
        <path id="Trazado_108128" data-name="Trazado 108128" d="M522.224,6875.562a2.392,2.392,0,0,1-2.393-2.392v-2.978a2.392,2.392,0,0,1,4.784,0v2.978A2.391,2.391,0,0,1,522.224,6875.562Z" transform="translate(-441.102 -6765.945)" fill="#3ea4cc"/>
        <path id="Trazado_108129" data-name="Trazado 108129" d="M542.052,6875.562a2.392,2.392,0,0,1-2.392-2.392v-2.978a2.393,2.393,0,0,1,4.785,0v2.978A2.392,2.392,0,0,1,542.052,6875.562Z" transform="translate(-446.044 -6765.945)" fill="#3ea4cc"/>
        <path id="Trazado_108130" data-name="Trazado 108130" d="M561.882,6875.562a2.391,2.391,0,0,1-2.392-2.392v-2.978a2.392,2.392,0,0,1,4.784,0v2.978A2.392,2.392,0,0,1,561.882,6875.562Z" transform="translate(-450.833 -6765.945)" fill="#3ea4cc"/>
        <path id="Trazado_108131" data-name="Trazado 108131" d="M462.734,6886.735a2.393,2.393,0,0,1-2.392-2.393v-.048a2.392,2.392,0,1,1,4.785,0v.048A2.393,2.393,0,0,1,462.734,6886.735Z" transform="translate(-426.274 -6769.353)" fill="#358eba"/>
        <path id="Trazado_108132" data-name="Trazado 108132" d="M482.564,6886.735a2.393,2.393,0,0,1-2.392-2.393v-.048a2.392,2.392,0,1,1,4.784,0v.048A2.392,2.392,0,0,1,482.564,6886.735Z" transform="translate(-431.217 -6769.353)" fill="#358eba"/>
        <path id="Trazado_108133" data-name="Trazado 108133" d="M502.393,6886.735a2.393,2.393,0,0,1-2.392-2.393v-.048a2.392,2.392,0,1,1,4.784,0v.048A2.392,2.392,0,0,1,502.393,6886.735Z" transform="translate(-436.159 -6769.353)" fill="#358eba"/>
        <path id="Trazado_108134" data-name="Trazado 108134" d="M522.223,6886.735a2.392,2.392,0,0,1-2.392-2.393v-.048a2.392,2.392,0,1,1,4.784,0v.048A2.393,2.393,0,0,1,522.223,6886.735Z" transform="translate(-441.102 -6769.353)" fill="#3ea4cc"/>
        <path id="Trazado_108135" data-name="Trazado 108135" d="M542.052,6886.735a2.392,2.392,0,0,1-2.392-2.393v-.048a2.392,2.392,0,1,1,4.784,0v.048A2.393,2.393,0,0,1,542.052,6886.735Z" transform="translate(-446.044 -6769.353)" fill="#3ea4cc"/>
        <path id="Trazado_108136" data-name="Trazado 108136" d="M561.881,6886.735a2.392,2.392,0,0,1-2.392-2.393v-.048a2.392,2.392,0,1,1,4.784,0v.048A2.393,2.393,0,0,1,561.881,6886.735Z" transform="translate(-450.833 -6769.353)" fill="#3ea4cc"/>
        <path id="Trazado_108137" data-name="Trazado 108137" d="M545.157,6867.8H438.933a2.392,2.392,0,1,0,0,4.784H541.945Q543.65,6870.266,545.157,6867.8Z" transform="translate(-420.455 -6765.963)" fill="#358eba"/>
        <path id="Trazado_108138" data-name="Trazado 108138" d="M493.548,6870.192a2.391,2.391,0,0,1,2.392-2.391H438.912a2.392,2.392,0,1,0,0,4.784H495.94A2.393,2.393,0,0,1,493.548,6870.192Z" transform="translate(-420.455 -6765.963)" fill="#236c9b"/>
        <path id="Trazado_108139" data-name="Trazado 108139" d="M440.515,6757.5v86.442a2.392,2.392,0,0,0,4.784,0V6753.07Q442.8,6755.17,440.515,6757.5Z" transform="translate(-421.473 -6737.482)" fill="#236c9b"/>
      </g>
    </g>
  </g>
</svg>
