<?xml version="1.0" encoding="utf-8"?>
<!-- Generator: Adobe Illustrator 25.3.1, SVG Export Plug-In . SVG Version: 6.00 Build 0)  -->
<svg version="1.1" id="Capa_2" xmlns="http://www.w3.org/2000/svg" xmlns:xlink="http://www.w3.org/1999/xlink" x="0px" y="0px"
	 viewBox="0 0 500 424" style="enable-background:new 0 0 500 424;" xml:space="preserve">
<style type="text/css">
	.st0{fill:#344154;fill-opacity:0;}
	.st1{fill:#D9A171;}
	.st2{opacity:0.85;fill:#FFFFFF;enable-background:new    ;}
	.st3{opacity:0.7;fill:#FFFFFF;enable-background:new    ;}
	.st4{fill:#FFFFFF;}
	.st5{fill:#344154;}
	.st6{opacity:0.75;fill:#FFFFFF;enable-background:new    ;}
	.st7{opacity:0.25;enable-background:new    ;}
	.st8{opacity:0.9;fill:#FFFFFF;enable-background:new    ;}
	.st9{fill:#FFFFFF;stroke:#263238;stroke-linecap:round;stroke-miterlimit:10;}
	.st10{clip-path:url(#SVGID_2_);}
	.st11{opacity:0.1;enable-background:new    ;}
	.st12{fill:none;stroke:#263238;stroke-linecap:round;stroke-miterlimit:10;}
	.st13{fill:none;stroke:#263238;stroke-linecap:round;stroke-linejoin:round;}
	.st14{clip-path:url(#SVGID_4_);}
	.st15{clip-path:url(#SVGID_6_);}
	.st16{fill:#344154;stroke:#263238;stroke-linecap:round;stroke-linejoin:round;}
	.st17{fill:#FFFFFF;stroke:#263238;stroke-linecap:round;stroke-linejoin:round;}
	.st18{fill:#FF9A6C;}
	.st19{clip-path:url(#SVGID_8_);}
	.st20{clip-path:url(#SVGID_10_);}
	.st21{fill:#FFBF9D;}
	.st22{fill:none;stroke:#263238;stroke-width:0.5;stroke-linecap:round;stroke-linejoin:round;}
	.st23{clip-path:url(#SVGID_12_);}
	.st24{clip-path:url(#SVGID_14_);}
	.st25{fill:none;stroke:#FFFFFF;stroke-linecap:round;stroke-linejoin:round;}
	.st26{fill:#D9A171;stroke:#263238;stroke-linecap:round;stroke-linejoin:round;}
	.st27{fill:none;stroke:#263238;stroke-width:2;stroke-linecap:round;stroke-linejoin:round;}
</style>
<g id="Capa_1">
	<rect id="Rectángulo_6382" y="-38" class="st0" width="500" height="500"/>
	<g id="freepik--background-simple--inject-33">
		<path id="Trazado_106435" class="st1" d="M419.6,110.8c0,0-25.6-48.1-82.2-55.3S241.3,83.2,199.7,101
			c-21.8,9.3-46.7,5.7-69.8,10.2c-74,14.4-101.9,105-71,156.4c26.7,44.6,73.7,67.8,145.2,73.1s121.7,11.6,185.7-32.1
			S449.5,174.1,419.6,110.8z"/>
		<path id="Trazado_106436" class="st2" d="M419.6,110.8c0,0-25.6-48.1-82.2-55.3S241.3,83.2,199.7,101
			c-21.8,9.3-46.7,5.7-69.8,10.2c-74,14.4-101.9,105-71,156.4c26.7,44.6,73.7,67.8,145.2,73.1s121.7,11.6,185.7-32.1
			S449.5,174.1,419.6,110.8z"/>
	</g>
	<g id="freepik--Bookshelf--inject-33">
		<path id="Trazado_106437" class="st1" d="M103.6,58.6l-2-15.8l3.7,13.4V33.5l2.4,17.5l2.4-11.8v11.4l1.2-22.7l1.2,23.2l4.5-10.2
			l-2,12.6l4.9-5.3l-6.9,12.6L103.6,58.6z"/>
		<path id="Trazado_106438" class="st3" d="M103.6,58.6l-2-15.8l3.7,13.4V33.5l2.4,17.5l2.4-11.8v11.4l1.2-22.7l1.2,23.2l4.5-10.2
			l-2,12.6l4.9-5.3l-6.9,12.6L103.6,58.6z"/>
		<path id="Trazado_106439" class="st1" d="M116.5,75.7H103l-1.7-20.5h16.9L116.5,75.7z"/>
		<path id="Trazado_106440" class="st1" d="M166.4,55.7l8.8,20.4h-12.8l-4.4-8.4L166.4,55.7z"/>
		<path id="Trazado_106441" class="st1" d="M171.5,42.5h-22.9l-13.5,34.1H158L171.5,42.5z"/>
		<path id="Trazado_106442" class="st4" d="M166.8,46.9h-16.9l-10,25.3h16.9L166.8,46.9z"/>
		<rect id="Rectángulo_6383" x="90.7" y="82.5" class="st5" width="325.2" height="260.7"/>
		<rect id="Rectángulo_6384" x="90.7" y="82.5" class="st6" width="325.2" height="260.7"/>
		<rect id="Rectángulo_6385" x="99.7" y="87.2" class="st1" width="15.1" height="46.1"/>
		<rect id="Rectángulo_6386" x="100.7" y="89.9" class="st4" width="13.1" height="2.8"/>
		<rect id="Rectángulo_6387" x="100.7" y="126.9" class="st4" width="13.1" height="2.8"/>
		<rect id="Rectángulo_6388" x="115.8" y="87.2" class="st1" width="15.1" height="46.1"/>
		<rect id="Rectángulo_6389" x="116.8" y="89.9" class="st4" width="13.1" height="2.8"/>
		<rect id="Rectángulo_6390" x="116.8" y="126.9" class="st4" width="13.1" height="2.8"/>
		<rect id="Rectángulo_6391" x="132" y="87.2" class="st1" width="15.1" height="46.1"/>
		<rect id="Rectángulo_6392" x="133" y="89.9" class="st4" width="13.1" height="2.8"/>
		<rect id="Rectángulo_6393" x="133" y="126.9" class="st4" width="13.1" height="2.8"/>
		<rect id="Rectángulo_6394" x="148.1" y="87.2" class="st1" width="15.1" height="46.1"/>
		<rect id="Rectángulo_6395" x="149.1" y="89.9" class="st4" width="13.1" height="2.8"/>
		<rect id="Rectángulo_6396" x="149.1" y="126.9" class="st4" width="13.1" height="2.8"/>
		<rect id="Rectángulo_6397" x="164.2" y="87.2" class="st1" width="15.1" height="46.1"/>
		<rect id="Rectángulo_6398" x="165.2" y="89.9" class="st4" width="13.1" height="2.8"/>
		<rect id="Rectángulo_6399" x="165.2" y="126.9" class="st4" width="13.1" height="2.8"/>
		<rect id="Rectángulo_6400" x="180.3" y="87.2" class="st1" width="15.1" height="46.1"/>
		<rect id="Rectángulo_6401" x="181.3" y="89.9" class="st4" width="13.1" height="2.8"/>
		<rect id="Rectángulo_6402" x="181.3" y="126.9" class="st4" width="13.1" height="2.8"/>
		<rect id="Rectángulo_6403" x="186.5" y="135.7" class="st1" width="15.1" height="46.1"/>
		<rect id="Rectángulo_6404" x="187.4" y="138.4" class="st4" width="13.1" height="2.8"/>
		<rect id="Rectángulo_6405" x="187.4" y="175.3" class="st4" width="13.1" height="2.8"/>
		<rect id="Rectángulo_6406" x="202.6" y="135.7" class="st1" width="15.1" height="46.1"/>
		<rect id="Rectángulo_6407" x="203.6" y="138.4" class="st4" width="13.1" height="2.8"/>
		<rect id="Rectángulo_6408" x="203.6" y="175.3" class="st4" width="13.1" height="2.8"/>
		<rect id="Rectángulo_6409" x="218.7" y="135.7" class="st1" width="15.1" height="46.1"/>
		<rect id="Rectángulo_6410" x="219.7" y="138.4" class="st4" width="13.1" height="2.8"/>
		<rect id="Rectángulo_6411" x="219.7" y="175.3" class="st4" width="13.1" height="2.8"/>
		<rect id="Rectángulo_6412" x="234.8" y="135.7" class="st1" width="15.1" height="46.1"/>
		<rect id="Rectángulo_6413" x="235.8" y="138.4" class="st4" width="13.1" height="2.8"/>
		<rect id="Rectángulo_6414" x="235.8" y="175.3" class="st4" width="13.1" height="2.8"/>
		<rect id="Rectángulo_6415" x="250.9" y="135.7" class="st1" width="15.1" height="46.1"/>
		<rect id="Rectángulo_6416" x="251.9" y="138.4" class="st4" width="13.1" height="2.8"/>
		<rect id="Rectángulo_6417" x="251.9" y="175.3" class="st4" width="13.1" height="2.8"/>
		<rect id="Rectángulo_6418" x="267" y="135.7" class="st1" width="15.1" height="46.1"/>
		<rect id="Rectángulo_6419" x="268" y="138.4" class="st4" width="13.1" height="2.8"/>
		<rect id="Rectángulo_6420" x="268" y="175.3" class="st4" width="13.1" height="2.8"/>
		<rect id="Rectángulo_6421" x="302.8" y="135.7" class="st1" width="15.1" height="46.1"/>
		<rect id="Rectángulo_6422" x="303.8" y="138.4" class="st4" width="13.1" height="2.8"/>
		<rect id="Rectángulo_6423" x="303.8" y="175.3" class="st4" width="13.1" height="2.8"/>
		<rect id="Rectángulo_6424" x="318.9" y="135.7" class="st1" width="15.1" height="46.1"/>
		<rect id="Rectángulo_6425" x="319.9" y="138.4" class="st4" width="13.1" height="2.8"/>
		<rect id="Rectángulo_6426" x="319.9" y="175.3" class="st4" width="13.1" height="2.8"/>
		<rect id="Rectángulo_6427" x="335" y="135.7" class="st1" width="15.1" height="46.1"/>
		<rect id="Rectángulo_6428" x="336" y="138.4" class="st4" width="13.1" height="2.8"/>
		<rect id="Rectángulo_6429" x="336" y="175.3" class="st4" width="13.1" height="2.8"/>
		<rect id="Rectángulo_6430" x="351.1" y="135.7" class="st1" width="15.1" height="46.1"/>
		<rect id="Rectángulo_6431" x="352.1" y="138.4" class="st4" width="13.1" height="2.8"/>
		<rect id="Rectángulo_6432" x="352.1" y="175.3" class="st4" width="13.1" height="2.8"/>
		<rect id="Rectángulo_6433" x="367.2" y="135.7" class="st1" width="15.1" height="46.1"/>
		<rect id="Rectángulo_6434" x="368.2" y="138.4" class="st4" width="13.1" height="2.8"/>
		<rect id="Rectángulo_6435" x="368.2" y="175.3" class="st4" width="13.1" height="2.8"/>
		<path id="Trazado_106443" class="st1" d="M397.6,185.8l-14.3-4.6l16-43.6l14.3,4.6L397.6,185.8z"/>
		<path id="Trazado_106444" class="st4" d="M410.7,147.1l-12.4-3.9l1-2.7l12.4,3.9L410.7,147.1z"/>
		<path id="Trazado_106445" class="st4" d="M397.9,182l-12.4-3.9l1-2.7l12.4,3.9L397.9,182z"/>
		<path id="Trazado_106446" class="st1" d="M347,325.9l-14.3-4.6l16-43.6l14.3,4.6L347,325.9z"/>
		<path id="Trazado_106447" class="st4" d="M360,287.2l-12.4-4l1-2.7l12.4,3.9L360,287.2z"/>
		<path id="Trazado_106448" class="st4" d="M347.2,322.2l-12.4-4l1-2.7l12.4,4L347.2,322.2z"/>
		<rect id="Rectángulo_6436" x="196.4" y="87.2" class="st1" width="15.1" height="46.1"/>
		<rect id="Rectángulo_6437" x="197.4" y="89.9" class="st4" width="13.1" height="2.8"/>
		<rect id="Rectángulo_6438" x="197.4" y="126.9" class="st4" width="13.1" height="2.8"/>
		<rect id="Rectángulo_6439" x="98.2" y="185" class="st1" width="15.1" height="46.1"/>
		<rect id="Rectángulo_6440" x="99.2" y="187.7" class="st4" width="13.1" height="2.8"/>
		<rect id="Rectángulo_6441" x="99.2" y="224.7" class="st4" width="13.1" height="2.8"/>
		<rect id="Rectángulo_6442" x="114.3" y="185" class="st1" width="15.1" height="46.1"/>
		<rect id="Rectángulo_6443" x="115.3" y="187.7" class="st4" width="13.1" height="2.8"/>
		<rect id="Rectángulo_6444" x="115.3" y="224.7" class="st4" width="13.1" height="2.8"/>
		<rect id="Rectángulo_6445" x="130.4" y="185" class="st1" width="15.1" height="46.1"/>
		<rect id="Rectángulo_6446" x="131.4" y="187.7" class="st4" width="13.1" height="2.8"/>
		<rect id="Rectángulo_6447" x="131.4" y="224.7" class="st4" width="13.1" height="2.8"/>
		<rect id="Rectángulo_6448" x="146.6" y="185" class="st1" width="15.1" height="46.1"/>
		<rect id="Rectángulo_6449" x="147.6" y="187.7" class="st4" width="13.1" height="2.8"/>
		<rect id="Rectángulo_6450" x="147.6" y="224.7" class="st4" width="13.1" height="2.8"/>
		<rect id="Rectángulo_6451" x="162.7" y="185" class="st1" width="15.1" height="46.1"/>
		<rect id="Rectángulo_6452" x="163.7" y="187.7" class="st4" width="13.1" height="2.8"/>
		<rect id="Rectángulo_6453" x="163.7" y="224.7" class="st4" width="13.1" height="2.8"/>
		<rect id="Rectángulo_6454" x="147.7" y="280.9" class="st1" width="15.1" height="46.1"/>
		<rect id="Rectángulo_6455" x="148.7" y="283.6" class="st4" width="13.1" height="2.8"/>
		<rect id="Rectángulo_6456" x="148.7" y="320.6" class="st4" width="13.1" height="2.8"/>
		<rect id="Rectángulo_6457" x="163.8" y="280.9" class="st1" width="15.1" height="46.1"/>
		<rect id="Rectángulo_6458" x="164.8" y="283.6" class="st4" width="13.1" height="2.8"/>
		<rect id="Rectángulo_6459" x="164.8" y="320.6" class="st4" width="13.1" height="2.8"/>
		<rect id="Rectángulo_6460" x="179.9" y="280.9" class="st1" width="15.1" height="46.1"/>
		<rect id="Rectángulo_6461" x="180.9" y="283.6" class="st4" width="13.1" height="2.8"/>
		<rect id="Rectángulo_6462" x="180.9" y="320.6" class="st4" width="13.1" height="2.8"/>
		<rect id="Rectángulo_6463" x="196" y="280.9" class="st1" width="15.1" height="46.1"/>
		<rect id="Rectángulo_6464" x="197" y="283.6" class="st4" width="13.1" height="2.8"/>
		<rect id="Rectángulo_6465" x="197" y="320.6" class="st4" width="13.1" height="2.8"/>
		<rect id="Rectángulo_6466" x="212.2" y="280.9" class="st1" width="15.1" height="46.1"/>
		<rect id="Rectángulo_6467" x="213.1" y="283.6" class="st4" width="13.1" height="2.8"/>
		<rect id="Rectángulo_6468" x="213.1" y="320.6" class="st4" width="13.1" height="2.8"/>
		<rect id="Rectángulo_6469" x="178.8" y="185" class="st1" width="15.1" height="46.1"/>
		<rect id="Rectángulo_6470" x="179.8" y="187.7" class="st4" width="13.1" height="2.8"/>
		<rect id="Rectángulo_6471" x="179.8" y="224.7" class="st4" width="13.1" height="2.8"/>
		<rect id="Rectángulo_6472" x="194.9" y="185" class="st1" width="15.1" height="46.1"/>
		<rect id="Rectángulo_6473" x="195.9" y="187.7" class="st4" width="13.1" height="2.8"/>
		<rect id="Rectángulo_6474" x="195.9" y="224.7" class="st4" width="13.1" height="2.8"/>
		<rect id="Rectángulo_6475" x="210.9" y="185" class="st1" width="15.1" height="46.1"/>
		<rect id="Rectángulo_6476" x="211.9" y="187.7" class="st4" width="13.1" height="2.8"/>
		<rect id="Rectángulo_6477" x="211.9" y="224.7" class="st4" width="13.1" height="2.8"/>
		<rect id="Rectángulo_6478" x="226.9" y="185" class="st1" width="15.1" height="46.1"/>
		<rect id="Rectángulo_6479" x="227.8" y="187.7" class="st4" width="13.1" height="2.8"/>
		<rect id="Rectángulo_6480" x="227.8" y="224.7" class="st4" width="13.1" height="2.8"/>
		<path id="Trazado_106449" class="st1" d="M284.6,228.1l-14.5,4L255.8,188l14.5-4.1L284.6,228.1z"/>
		<path id="Trazado_106450" class="st4" d="M271,189.6l-12.6,3.5l-0.9-2.7l12.5-3.5L271,189.6z"/>
		<path id="Trazado_106451" class="st4" d="M282.5,225l-12.5,3.5l-0.9-2.7l12.5-3.5L282.5,225z"/>
		<rect id="Rectángulo_6481" x="242.8" y="185" class="st1" width="15.1" height="46.1"/>
		<rect id="Rectángulo_6482" x="243.8" y="187.7" class="st4" width="13.1" height="2.8"/>
		<rect id="Rectángulo_6483" x="243.8" y="224.7" class="st4" width="13.1" height="2.8"/>
		<rect id="Rectángulo_6484" x="146.2" y="233" class="st1" width="15.1" height="46.1"/>
		<rect id="Rectángulo_6485" x="147.1" y="235.7" class="st4" width="13.1" height="2.8"/>
		<rect id="Rectángulo_6486" x="147.1" y="272.6" class="st4" width="13.1" height="2.8"/>
		<rect id="Rectángulo_6487" x="162.3" y="233" class="st1" width="15.1" height="46.1"/>
		<rect id="Rectángulo_6488" x="163.3" y="235.7" class="st4" width="13.1" height="2.8"/>
		<rect id="Rectángulo_6489" x="163.3" y="272.6" class="st4" width="13.1" height="2.8"/>
		<rect id="Rectángulo_6490" x="178.4" y="233" class="st1" width="15.1" height="46.1"/>
		<rect id="Rectángulo_6491" x="179.4" y="235.7" class="st4" width="13.1" height="2.8"/>
		<rect id="Rectángulo_6492" x="179.4" y="272.6" class="st4" width="13.1" height="2.8"/>
		<rect id="Rectángulo_6493" x="194.5" y="233" class="st1" width="15.1" height="46.1"/>
		<rect id="Rectángulo_6494" x="195.5" y="235.7" class="st4" width="13.1" height="2.8"/>
		<rect id="Rectángulo_6495" x="195.5" y="272.6" class="st4" width="13.1" height="2.8"/>
		<rect id="Rectángulo_6496" x="210.6" y="233" class="st1" width="15.1" height="46.1"/>
		<rect id="Rectángulo_6497" x="211.6" y="235.7" class="st4" width="13.1" height="2.8"/>
		<rect id="Rectángulo_6498" x="211.6" y="272.6" class="st4" width="13.1" height="2.8"/>
		<rect id="Rectángulo_6499" x="226.7" y="233" class="st1" width="15.1" height="46.1"/>
		<rect id="Rectángulo_6500" x="227.7" y="235.7" class="st4" width="13.1" height="2.8"/>
		<rect id="Rectángulo_6501" x="227.7" y="272.6" class="st4" width="13.1" height="2.8"/>
		<rect id="Rectángulo_6502" x="242.9" y="233" class="st1" width="15.1" height="46.1"/>
		<rect id="Rectángulo_6503" x="243.9" y="235.7" class="st4" width="13.1" height="2.8"/>
		<rect id="Rectángulo_6504" x="243.9" y="272.6" class="st4" width="13.1" height="2.8"/>
		<rect id="Rectángulo_6505" x="299.2" y="233" class="st1" width="15.1" height="46.1"/>
		<rect id="Rectángulo_6506" x="300.2" y="235.7" class="st4" width="13.1" height="2.8"/>
		<rect id="Rectángulo_6507" x="300.2" y="272.6" class="st4" width="13.1" height="2.8"/>
		<rect id="Rectángulo_6508" x="315.3" y="233" class="st1" width="15.1" height="46.1"/>
		<rect id="Rectángulo_6509" x="316.3" y="235.7" class="st4" width="13.1" height="2.8"/>
		<rect id="Rectángulo_6510" x="316.3" y="272.6" class="st4" width="13.1" height="2.8"/>
		<rect id="Rectángulo_6511" x="331.4" y="233" class="st1" width="15.1" height="46.1"/>
		<rect id="Rectángulo_6512" x="332.4" y="235.7" class="st4" width="13.1" height="2.8"/>
		<rect id="Rectángulo_6513" x="332.4" y="272.6" class="st4" width="13.1" height="2.8"/>
		<rect id="Rectángulo_6514" x="347.5" y="233" class="st1" width="15.1" height="46.1"/>
		<rect id="Rectángulo_6515" x="348.5" y="235.7" class="st4" width="13.1" height="2.8"/>
		<rect id="Rectángulo_6516" x="348.5" y="272.6" class="st4" width="13.1" height="2.8"/>
		<rect id="Rectángulo_6517" x="363.7" y="233" class="st1" width="15.1" height="46.1"/>
		<rect id="Rectángulo_6518" x="364.7" y="235.7" class="st4" width="13.1" height="2.8"/>
		<rect id="Rectángulo_6519" x="364.7" y="272.6" class="st4" width="13.1" height="2.8"/>
		<rect id="Rectángulo_6520" x="379.8" y="233" class="st1" width="15.1" height="46.1"/>
		<rect id="Rectángulo_6521" x="380.8" y="235.7" class="st4" width="13.1" height="2.8"/>
		<rect id="Rectángulo_6522" x="380.8" y="272.6" class="st4" width="13.1" height="2.8"/>
		<rect id="Rectángulo_6523" x="395.9" y="233" class="st1" width="15.1" height="46.1"/>
		<rect id="Rectángulo_6524" x="396.9" y="235.7" class="st4" width="13.1" height="2.8"/>
		<rect id="Rectángulo_6525" x="396.9" y="272.6" class="st4" width="13.1" height="2.8"/>
		<rect id="Rectángulo_6526" x="220.1" y="87.2" class="st1" width="15.1" height="46.1"/>
		<rect id="Rectángulo_6527" x="221.1" y="89.9" class="st4" width="13.1" height="2.8"/>
		<rect id="Rectángulo_6528" x="221.1" y="126.9" class="st4" width="13.1" height="2.8"/>
		<rect id="Rectángulo_6529" x="237.3" y="87.2" class="st1" width="15.1" height="46.1"/>
		<rect id="Rectángulo_6530" x="238.3" y="89.9" class="st4" width="13.1" height="2.8"/>
		<rect id="Rectángulo_6531" x="238.3" y="126.9" class="st4" width="13.1" height="2.8"/>
		<rect id="Rectángulo_6532" x="254.5" y="87.2" class="st1" width="15.1" height="46.1"/>
		<rect id="Rectángulo_6533" x="255.4" y="89.9" class="st4" width="13.1" height="2.8"/>
		<rect id="Rectángulo_6534" x="255.4" y="126.9" class="st4" width="13.1" height="2.8"/>
		<rect id="Rectángulo_6535" x="271.6" y="87.2" class="st1" width="15.1" height="46.1"/>
		<rect id="Rectángulo_6536" x="272.6" y="89.9" class="st4" width="13.1" height="2.8"/>
		<rect id="Rectángulo_6537" x="272.6" y="126.9" class="st4" width="13.1" height="2.8"/>
		<path id="Trazado_106452" class="st1" d="M166.3,181.1l-6.1,1.5l-12.6-43.8l6.1-1.5L166.3,181.1z"/>
		<path id="Trazado_106453" class="st4" d="M154.8,142.7l-5.3,1.3l-0.8-2.7l5.3-1.3L154.8,142.7z"/>
		<path id="Trazado_106454" class="st4" d="M164.9,177.8l-5.3,1.3l-0.8-2.7l5.3-1.3L164.9,177.8z"/>
		<rect id="Rectángulo_6538" x="165.6" y="137.3" class="st1" width="6.3" height="45.3"/>
		<rect id="Rectángulo_6539" x="166.1" y="139.9" class="st4" width="5.5" height="2.8"/>
		<rect id="Rectángulo_6540" x="166.1" y="176.3" class="st4" width="5.5" height="2.8"/>
		<rect id="Rectángulo_6541" x="172.4" y="137.3" class="st1" width="6.3" height="45.3"/>
		<rect id="Rectángulo_6542" x="172.9" y="139.9" class="st4" width="5.5" height="2.8"/>
		<rect id="Rectángulo_6543" x="172.9" y="176.3" class="st4" width="5.5" height="2.8"/>
		<path id="Trazado_106455" class="st4" d="M101,166.3c1.7,4.2,1.7,9,0,13.2h43.9c0,0,5.4-1.4,5.4-6.6c-0.7-2.9-2.6-5.2-5.3-6.5
			L101,166.3z"/>
		<path id="Trazado_106456" class="st7" d="M147,167.4c-1.9-1.1-3.7-1-5.9-1h-15l-21-0.1c-0.3,0-3.8,0.3-3.9,0
			c0.4,0.9,0.7,1.8,0.9,2.7H146v10c2.6-1,4.3-3.4,4.4-6.2c0.1-2.2-1-4.2-2.9-5.2L147,167.4z"/>
		<path id="Trazado_106457" class="st1" d="M143.2,181.3H99.1c-0.8-0.1-1.4-0.7-1.3-1.5c0.1-0.7,0.6-1.2,1.3-1.3h44.1
			c3,0.1,5.5-2.2,5.6-5.2s-2.2-5.5-5.2-5.6l0,0H99.5c-0.8,0-1.4-0.6-1.4-1.4c0-0.8,0.6-1.4,1.4-1.4l0,0h43.7c4.5,0,8.2,3.7,8.2,8.2
			C151.4,177.7,147.8,181.3,143.2,181.3z"/>
		<path id="Trazado_106458" class="st4" d="M148.2,150.1c-1.7,4.2-1.7,9,0,13.2h-43.9c0,0-5.4-1.4-5.4-6.6c0.7-2.8,2.6-5.2,5.3-6.5
			L148.2,150.1z"/>
		<path id="Trazado_106459" class="st7" d="M102.2,151.2c1.9-1.1,3.7-1,5.9-1h15l21-0.1c0.3,0,3.8,0.3,3.9,0
			c-0.4,0.9-0.7,1.8-0.9,2.7h-43.8v10.1c-2.5-1-4.3-3.4-4.4-6.2c-0.1-2.2,1-4.2,2.9-5.2L102.2,151.2z"/>
		<path id="Trazado_106460" class="st1" d="M106,165.1h44c0.8-0.1,1.4-0.7,1.3-1.5c-0.1-0.7-0.6-1.2-1.3-1.3h-44
			c-3,0-5.4-2.4-5.4-5.4c0-3,2.4-5.4,5.4-5.4h43.7c0.8-0.1,1.4-0.7,1.3-1.5c-0.1-0.7-0.6-1.2-1.3-1.3H106c-4.5,0-8.2,3.7-8.2,8.2
			C97.8,161.4,101.5,165.1,106,165.1z"/>
		<path id="Trazado_106461" class="st4" d="M361.7,215.2c1.7,4.2,1.7,9,0,13.2h43.9c0,0,5.4-1.4,5.4-6.6c-0.7-2.9-2.6-5.2-5.3-6.5
			L361.7,215.2z"/>
		<path id="Trazado_106462" class="st7" d="M407.7,216.3c-1.9-1.1-3.7-1-5.9-1h-15l-21-0.1c-0.3,0-3.8,0.3-3.9,0
			c0.4,0.9,0.7,1.8,0.9,2.7h43.8v10c2.6-1,4.3-3.4,4.4-6.2c0.1-2.2-1-4.2-2.9-5.2L407.7,216.3z"/>
		<path id="Trazado_106463" class="st1" d="M403.9,230.2h-44.1c-0.8-0.1-1.4-0.7-1.3-1.5c0.1-0.7,0.6-1.2,1.3-1.3h44.1
			c3,0,5.4-2.4,5.4-5.4c0-3-2.4-5.4-5.4-5.4h-43.7c-0.8-0.1-1.4-0.7-1.3-1.5c0.1-0.7,0.6-1.2,1.3-1.3h43.7c4.5,0,8.2,3.7,8.2,8.2
			C412.1,226.6,408.5,230.2,403.9,230.2C403.9,230.2,403.9,230.2,403.9,230.2L403.9,230.2z"/>
		<path id="Trazado_106464" class="st4" d="M408.8,199c-1.7,4.2-1.7,9,0,13.2H365c0,0-5.4-1.4-5.4-6.6c0.7-2.8,2.6-5.2,5.3-6.5
			L408.8,199z"/>
		<path id="Trazado_106465" class="st7" d="M362.9,200.1c1.9-1.1,3.7-1,5.9-1h15l21-0.1c0.3,0,3.8,0.3,3.9,0
			c-0.4,0.9-0.7,1.8-0.9,2.7h-43.8v10.1c-2.5-1-4.3-3.4-4.4-6.2c-0.1-2.2,1-4.2,2.9-5.2L362.9,200.1z"/>
		<path id="Trazado_106466" class="st1" d="M366.6,214h44.1c0.8-0.1,1.4-0.7,1.3-1.5c-0.1-0.7-0.6-1.2-1.3-1.3h-44.1
			c-3,0-5.4-2.4-5.4-5.4c0-3,2.4-5.4,5.4-5.4l0,0h43.7c0.8-0.1,1.4-0.7,1.3-1.5c-0.1-0.7-0.6-1.2-1.3-1.3h-43.7
			c-4.5,0-8.2,3.7-8.2,8.2C358.4,210.3,362.1,214,366.6,214z"/>
		<path id="Trazado_106467" class="st4" d="M360.6,308.8c1.7,4.2,1.7,9,0,13.2h43.9c0,0,5.4-1.4,5.4-6.6c-0.7-2.9-2.6-5.2-5.3-6.5
			L360.6,308.8z"/>
		<path id="Trazado_106468" class="st7" d="M406.6,309.9c-1.9-1.1-3.7-1-5.9-1h-15l-21-0.1c-0.4,0-3.8,0.3-3.9,0
			c0.4,0.9,0.7,1.8,0.9,2.7h43.8v10.1c2.6-1,4.3-3.4,4.4-6.2c0.1-2.2-1-4.2-2.9-5.2L406.6,309.9z"/>
		<path id="Trazado_106469" class="st1" d="M402.9,323.8h-44.1c-0.8-0.1-1.4-0.7-1.3-1.5c0.1-0.7,0.6-1.2,1.3-1.3h44.1
			c3,0.1,5.5-2.2,5.6-5.2c0.1-3-2.2-5.5-5.2-5.6l0,0h-44.2c-0.8,0-1.4-0.6-1.4-1.4c0-0.8,0.6-1.4,1.4-1.4c0,0,0,0,0,0h43.7
			c4.5,0,8.2,3.7,8.2,8.2C411.1,320.1,407.4,323.8,402.9,323.8L402.9,323.8z"/>
		<path id="Trazado_106470" class="st4" d="M407.8,292.5c-1.7,4.2-1.7,9,0,13.2H364c0,0-5.4-1.4-5.4-6.6c0.7-2.8,2.6-5.2,5.3-6.4
			L407.8,292.5z"/>
		<path id="Trazado_106471" class="st7" d="M361.8,293.6c1.9-1.1,3.7-1,5.9-1h15l21-0.1c0.3,0,3.8,0.3,3.9,0
			c-0.4,0.9-0.7,1.8-0.9,2.7h-43.8v10.1c-2.5-1-4.3-3.4-4.4-6.2c-0.1-2.2,1-4.2,2.9-5.2L361.8,293.6z"/>
		<path id="Trazado_106472" class="st1" d="M365.6,307.5h44.1c0.8-0.1,1.4-0.7,1.3-1.5c-0.1-0.7-0.6-1.2-1.3-1.3h-44.1
			c-3,0-5.4-2.4-5.4-5.4c0-3,2.4-5.4,5.4-5.4h43.7c0.8-0.1,1.4-0.7,1.3-1.5c-0.1-0.7-0.6-1.2-1.3-1.3h-43.7c-4.5,0-8.2,3.7-8.2,8.2
			C357.4,303.8,361.1,307.5,365.6,307.5L365.6,307.5z"/>
		<path id="Trazado_106473" class="st4" d="M282.7,308.8c1.7,4.2,1.7,9,0,13.2h43.9c0,0,5.4-1.4,5.4-6.6c-0.7-2.9-2.6-5.2-5.3-6.5
			L282.7,308.8z"/>
		<path id="Trazado_106474" class="st7" d="M328.7,309.9c-1.9-1.1-3.7-1-5.9-1h-15l-21-0.1c-0.4,0-3.8,0.3-3.9,0
			c0.4,0.9,0.7,1.8,0.9,2.7h43.8v10.1c2.6-1,4.3-3.4,4.4-6.2c0.1-2.2-1-4.2-2.9-5.2L328.7,309.9z"/>
		<path id="Trazado_106475" class="st1" d="M325,323.8h-44.2c-0.8-0.1-1.4-0.7-1.3-1.5c0.1-0.7,0.6-1.2,1.3-1.3h44.1
			c3,0.1,5.5-2.2,5.6-5.2c0.1-3-2.2-5.5-5.2-5.6l0,0h-44.1c-0.8,0-1.4-0.6-1.4-1.4c0-0.8,0.6-1.4,1.4-1.4c0,0,0,0,0,0H325
			c4.5,0,8.2,3.7,8.2,8.2C333.2,320.1,329.5,323.8,325,323.8L325,323.8z"/>
		<path id="Trazado_106476" class="st4" d="M282.7,292.5c1.7,4.2,1.7,9,0,13.2h43.9c0,0,5.4-1.4,5.4-6.6c-0.7-2.8-2.6-5.2-5.3-6.4
			L282.7,292.5z"/>
		<path id="Trazado_106477" class="st7" d="M328.7,293.6c-1.9-1.1-3.7-1-5.9-1h-15l-21-0.1c-0.4,0-3.8,0.3-3.9,0
			c0.4,0.9,0.7,1.8,0.9,2.7h43.8v10.1c2.6-1,4.3-3.4,4.4-6.2c0.1-2.2-1-4.2-2.9-5.2L328.7,293.6z"/>
		<path id="Trazado_106478" class="st1" d="M325,307.5h-44.2c-0.8-0.1-1.4-0.7-1.3-1.5c0.1-0.7,0.6-1.2,1.3-1.3h44.1
			c3,0,5.4-2.4,5.4-5.4c0-3-2.4-5.4-5.4-5.4c0,0,0,0,0,0h-43.7c-0.8-0.1-1.4-0.7-1.3-1.5c0.1-0.7,0.6-1.2,1.3-1.3H325
			c4.5,0,8.2,3.7,8.2,8.2C333.2,303.8,329.5,307.5,325,307.5L325,307.5z"/>
		<path id="Trazado_106479" class="st4" d="M97.4,308.8c1.7,4.2,1.7,9,0,13.2h43.9c0,0,5.4-1.4,5.4-6.6c-0.7-2.9-2.6-5.2-5.3-6.5
			L97.4,308.8z"/>
		<path id="Trazado_106480" class="st7" d="M143.4,309.9c-1.9-1.1-3.7-1-5.9-1h-15l-21-0.1c-0.3,0-3.8,0.3-3.9,0
			c0.4,0.9,0.7,1.8,0.9,2.7h43.8v10.1c2.6-1,4.3-3.4,4.4-6.2c0.1-2.2-1-4.2-2.9-5.2L143.4,309.9z"/>
		<path id="Trazado_106481" class="st1" d="M139.7,323.8H95.6c-0.8-0.1-1.4-0.7-1.3-1.5c0.1-0.7,0.6-1.2,1.3-1.3h44.1
			c3,0.1,5.5-2.2,5.6-5.2c0.1-3-2.2-5.5-5.2-5.6l0,0H96c-0.8,0-1.4-0.6-1.4-1.4c0-0.8,0.6-1.4,1.4-1.4c0,0,0,0,0,0h43.7
			c4.5,0,8.2,3.7,8.2,8.2C147.9,320.1,144.2,323.8,139.7,323.8L139.7,323.8L139.7,323.8z"/>
		<path id="Trazado_106482" class="st4" d="M144.6,292.5c-1.7,4.2-1.7,9,0,13.2h-43.9c0,0-5.4-1.4-5.4-6.6c0.7-2.8,2.6-5.2,5.3-6.5
			L144.6,292.5z"/>
		<path id="Trazado_106483" class="st7" d="M98.6,293.6c1.9-1.1,3.7-1,5.9-1h15l21-0.1c0.3,0,3.8,0.3,3.9,0
			c-0.4,0.9-0.7,1.8-0.9,2.7H99.7v10.1c-2.5-1-4.3-3.4-4.4-6.2c-0.1-2.2,1-4.2,2.9-5.2L98.6,293.6z"/>
		<path id="Trazado_106484" class="st1" d="M102.4,307.5h44.1c0.8-0.1,1.4-0.7,1.3-1.5c-0.1-0.7-0.6-1.2-1.3-1.3h-44.1
			c-3,0-5.4-2.4-5.4-5.4c0-3,2.4-5.4,5.4-5.4c0,0,0,0,0,0h43.7c0.8-0.1,1.4-0.7,1.3-1.5c-0.1-0.7-0.6-1.2-1.3-1.3h-43.7
			c-4.5,0-8.2,3.7-8.2,8.2C94.2,303.8,97.8,307.5,102.4,307.5L102.4,307.5z"/>
		<path id="Trazado_106485" class="st4" d="M307.1,215.2c1.7,4.2,1.7,9,0,13.2H351c0,0,5.4-1.4,5.4-6.6c-0.7-2.9-2.6-5.2-5.3-6.5
			L307.1,215.2z"/>
		<path id="Trazado_106486" class="st7" d="M353.1,216.3c-1.9-1.1-3.7-1-5.9-1h-14.9l-21-0.1c-0.3,0-3.7,0.3-3.9,0
			c0.4,0.9,0.7,1.8,0.9,2.7h43.8v10c2.5-1,4.3-3.4,4.4-6.2c0.1-2.2-1-4.2-2.9-5.2L353.1,216.3z"/>
		<path id="Trazado_106487" class="st1" d="M349.3,230.2h-44.1c-0.8-0.1-1.4-0.7-1.3-1.5c0.1-0.7,0.6-1.2,1.3-1.3h44.1
			c3,0,5.4-2.4,5.4-5.4c0-3-2.4-5.4-5.4-5.4h-43.7c-0.8-0.1-1.4-0.7-1.3-1.5c0.1-0.7,0.6-1.2,1.3-1.3h43.7c4.5,0,8.2,3.7,8.2,8.2
			C357.5,226.6,353.9,230.2,349.3,230.2C349.3,230.2,349.3,230.2,349.3,230.2z"/>
		<path id="Trazado_106488" class="st4" d="M354.3,199c-1.7,4.2-1.7,9,0,13.2h-43.9c0,0-5.4-1.4-5.4-6.6c0.7-2.9,2.6-5.2,5.3-6.5
			L354.3,199z"/>
		<path id="Trazado_106489" class="st7" d="M308.3,200.1c1.9-1.1,3.7-1,5.9-1h15l21-0.1c0.3,0,3.7,0.3,3.9,0
			c-0.4,0.9-0.7,1.8-0.9,2.7h-43.8v10.1c-2.5-1-4.3-3.4-4.4-6.2c-0.1-2.2,1.1-4.2,2.9-5.2L308.3,200.1z"/>
		<path id="Trazado_106490" class="st1" d="M312,214h44.1c0.8-0.1,1.4-0.7,1.3-1.5c-0.1-0.7-0.6-1.2-1.3-1.3H312
			c-3,0-5.4-2.4-5.4-5.4c0-3,2.4-5.4,5.4-5.4h43.7c0.8-0.1,1.4-0.7,1.3-1.5c-0.1-0.7-0.6-1.2-1.3-1.3H312c-4.5,0-8.2,3.7-8.2,8.2
			C303.8,210.3,307.5,214,312,214z"/>
		<path id="Trazado_106491" class="st5" d="M420.8,75.7H82.9v12.6h4.6v307.5h7.3v-4.1h316.9v4.1h7.3V88.3h1.8V75.7z M142.3,234.8
			h269.4v41.8H142.3V234.8z M94.8,228.5v-41.8h316.9v41.8H94.8z M94.8,180.5v-41.8h316.9v41.8L94.8,180.5z M293,88.3v44.1H94.8V88.3
			H293z M94.8,324.6v-41.8h316.9v41.8H94.8z"/>
		<path id="Trazado_106492" class="st8" d="M420.8,75.7H82.9v12.6h4.6v307.5h7.3v-4.1h316.9v4.1h7.3V88.3h1.8V75.7z M142.3,234.8
			h269.4v41.8H142.3V234.8z M94.8,228.5v-41.8h316.9v41.8H94.8z M94.8,180.5v-41.8h316.9v41.8L94.8,180.5z M293,88.3v44.1H94.8V88.3
			H293z M94.8,324.6v-41.8h316.9v41.8H94.8z"/>
		<ellipse id="Elipse_4082" class="st4" cx="346" cy="109.4" rx="5" ry="4.7"/>
		<ellipse id="Elipse_4083" class="st4" cx="365.4" cy="109.4" rx="5" ry="4.7"/>
	</g>
	<g id="freepik--Character--inject-33">
		<path id="Trazado_106493" class="st9" d="M218.5,376.8l-1.7,2.5l2.5,1.7l-1.7,2.8l2.2,1.9l-4.2,2.8l2.2,1.4l-0.6,2l2.2,1.1
			l-2.2,3.3h-68.1l-1.4-3.3l1.7-2l-2.5-1.4l3.9-1.1l-2.5-1.7l2.8-1.1l-3.6-1.4l9.2-2.8l-10.3-1.7l3.3-25.3l67.6,11.6L218.5,376.8z"
			/>
		<path id="Trazado_106494" class="st7" d="M215.6,380.3c0,0-32,3.4-51.6,1l10,2.4l-18.6,1l17.6,2.8l-18.6,1.7l14.8,3.1l-17.6,1.5
			h63.6l-14.4-3.5l8.6-1.4l-7.9-1.4l14.4-1.4l-14.8-0.7l13.7-1.4l-14.8-0.7C200.1,383.3,207.7,382,215.6,380.3z"/>
		<path id="Trazado_106495" class="st4" d="M144.3,379.7c0,0,41.2,1.8,74.3-2.9l-1.1-16.1L148,354L144.3,379.7z"/>
		<g>
			<defs>
				<path id="SVGID_1_" d="M144.3,379.7c0,0,41.2,1.8,74.3-2.9l-1.1-16.1L148,354L144.3,379.7z"/>
			</defs>
			<clipPath id="SVGID_2_">
				<use xlink:href="#SVGID_1_"  style="overflow:visible;"/>
			</clipPath>
			<g id="Grupo_60103" class="st10">
				<path id="Trazado_106496" class="st11" d="M144.3,379.7c0,0,41.2,1.8,74.3-2.9l-1.1-16.1L148,354L144.3,379.7z"/>
			</g>
		</g>
		<path id="Trazado_106498" class="st12" d="M144.3,379.7c0,0,41.2,1.8,74.3-2.9l-1.1-16.1L148,354L144.3,379.7z"/>
		<line id="Línea_216" class="st13" x1="160.6" y1="358.5" x2="159.3" y2="371.6"/>
		<line id="Línea_217" class="st13" x1="170.8" y1="359.3" x2="170.4" y2="372.9"/>
		<line id="Línea_218" class="st13" x1="181.1" y1="360.6" x2="180.7" y2="373.7"/>
		<line id="Línea_219" class="st13" x1="190.5" y1="363.4" x2="190.5" y2="374.1"/>
		<line id="Línea_220" class="st13" x1="201.6" y1="365.9" x2="202" y2="374.1"/>
		<line id="Línea_221" class="st13" x1="211.5" y1="367.5" x2="211.9" y2="374.1"/>
		<path id="Trazado_106499" class="st4" d="M218.8,348.9c0,0-54.8,24.2-74.6,30.8L148,354l55.3-22.9L218.8,348.9z"/>
		<g>
			<defs>
				<path id="SVGID_3_" d="M218.8,348.9c0,0-54.8,24.2-74.6,30.8L148,354l55.3-22.9L218.8,348.9z"/>
			</defs>
			<clipPath id="SVGID_4_">
				<use xlink:href="#SVGID_3_"  style="overflow:visible;"/>
			</clipPath>
			<g id="Grupo_60104" class="st14">
				<path id="Trazado_106500" class="st11" d="M173.7,368.1c21.7-7,45.1-19.2,45.1-19.2l-15.6-17.8L166.6,344L173.7,368.1z"/>
			</g>
		</g>
		<path id="Trazado_106502" class="st13" d="M218.8,348.9c0,0-54.8,24.2-74.6,30.8L148,354l55.3-22.9L218.8,348.9z"/>
		<path id="Trazado_106503" class="st4" d="M165.7,351.1l53.1-2.2l-10.6-23.1l-52.2,0.3L165.7,351.1z"/>
		<g>
			<defs>
				<polygon id="SVGID_5_" points="165.7,351.1 218.8,348.9 208.2,325.8 156,326.1 				"/>
			</defs>
			<clipPath id="SVGID_6_">
				<use xlink:href="#SVGID_5_"  style="overflow:visible;"/>
			</clipPath>
			<g id="Grupo_60105" class="st15">
				<path id="Trazado_106504" class="st11" d="M165.7,351.1l53.1-2.2l-10.6-23.1l-52.2,0.3L165.7,351.1z"/>
			</g>
		</g>
		<path id="Trazado_106506" class="st13" d="M165.7,351.1l53.1-2.2l-10.6-23.1l-52.2,0.3L165.7,351.1z"/>
		<line id="Línea_222" class="st13" x1="170" y1="329.8" x2="174.9" y2="346.2"/>
		<line id="Línea_223" class="st13" x1="179.4" y1="328.9" x2="184.4" y2="346.2"/>
		<line id="Línea_224" class="st13" x1="188.9" y1="328.5" x2="193.4" y2="345"/>
		<line id="Línea_225" class="st13" x1="198.8" y1="328.5" x2="203.7" y2="344.5"/>
		<path id="Trazado_106507" class="st16" d="M221.1,261.2l15.9,55.4l-6.4,2.1l-29-62.9C201.7,255.9,212.7,252.3,221.1,261.2z"/>
		<path id="Trazado_106508" class="st17" d="M237.1,316.7c0,0,4.1,6.9,4.1,9.2s-7.4,2-10.8,2.6s-10.6,5.4-13.6,4.1c0,0-1.8-1,0-3.1
			s10.1-6.1,13.9-10.7L237.1,316.7z"/>
		<path id="Trazado_106509" class="st5" d="M289.2,114.6c0,1-1.2,1.9-1.3,2.9s0.8,2.1,0.6,3.1s-1.5,1.7-1.8,2.6s0.4,2.3,0,3.2
			s-1.9,1.3-2.3,2.2s-0.1,2.3-0.7,3.1s-2.1,0.9-2.8,1.6s-0.6,2.2-1.3,2.9s-2.2,0.4-3,1s-1,2.1-1.9,2.6s-2.2,0-3.2,0.4
			s-1.4,1.8-2.4,2.1s-2.2-0.5-3.2-0.3s-1.8,1.5-2.8,1.6s-2-1-3-1s-2.1,1.1-3,1s-1.8-1.4-2.8-1.6s-2.2,0.6-3.2,0.3s-1.5-1.7-2.4-2.1
			s-2.3,0.1-3.2-0.4s-1.1-2-1.9-2.6s-2.3-0.4-3-1s-0.7-2.2-1.3-2.9s-2.2-0.8-2.8-1.6s-0.2-2.2-0.7-3.1s-1.9-1.2-2.3-2.2
			s0.3-2.2,0-3.2s-1.6-1.6-1.8-2.6s0.7-2.1,0.6-3.1s-1.3-1.9-1.3-2.9s1.2-2,1.3-2.9s-0.8-2.2-0.6-3.1s1.5-1.6,1.8-2.6
			s-0.4-2.3,0-3.2s1.9-1.3,2.3-2.2s0.1-2.3,0.7-3.1s2.1-0.9,2.8-1.6s0.6-2.2,1.3-2.9s2.2-0.4,3-1s1-2.1,1.9-2.6s2.2,0,3.2-0.4
			s1.4-1.8,2.4-2.1s2.2,0.5,3.2,0.3s1.8-1.5,2.8-1.6s2,1,3,1s2.1-1.1,3-1s1.8,1.4,2.8,1.6s2.2-0.6,3.2-0.3s1.5,1.7,2.4,2.1
			s2.3-0.1,3.2,0.4s1.1,2,1.9,2.6s2.3,0.4,3,1s0.7,2.2,1.3,2.9s2.2,0.8,2.8,1.6s0.2,2.2,0.7,3.1s1.9,1.2,2.3,2.2s-0.3,2.2,0,3.2
			s1.6,1.6,1.8,2.6s-0.7,2.1-0.6,3.1S289.2,113.5,289.2,114.6z"/>
		<path id="Trazado_106510" class="st17" d="M237.8,152.9c0,0-10,22.2-15,34.2s-1.2,22.2,2,23.4c3.4,1.2,27.9-7.5,33.8-9.8
			c5.5-2.1,5.6-2,5.6-2s0.4,18.6,0.4,20.8c0,2.2-4,10.2-3.6,12.6s5.8,7,21.8,8.6s25.2-2.2,26.8-4.4s1.6-5,1.6-9.4s-2.2-29.4-5.4-49
			s-11.6-28-15.6-30.2s-10.8,0.8-17.6,5.4s-10.6,13.6-11.6,16s-20.2,18.4-21.6,19.8s2.8-34.4,2.8-34.4L237.8,152.9z"/>
		<line id="Línea_226" class="st13" x1="236.1" y1="156.6" x2="241.6" y2="158.5"/>
		<path id="Trazado_106511" class="st17" d="M239.4,188.8c-0.3,3.2-0.8,6.4-1.6,9.6"/>
		<line id="Línea_227" class="st13" x1="264.1" y1="198.6" x2="261.8" y2="182"/>
		<path id="Trazado_106512" class="st17" d="M268.3,153.9c0,0-5.8,14-4.6,14s3.8-4.4,3.8-4.4l3.4,6.8c0,0,0.6-16,0.2-16.6
			S269.1,151.7,268.3,153.9z"/>
		<path id="Trazado_106513" class="st18" d="M262.4,147.3c0,0,6.2,8.6,6.8,11s1.2,14,1.8,12s12.2-22.4,12.4-23.4s-3.4-7.4-3.4-7.4
			s-8,5.8-11.8,6.8C266.3,146.8,264.3,147.2,262.4,147.3z"/>
		<path id="Trazado_106514" class="st13" d="M262.4,147.3c0,0,6.2,8.6,6.8,11s1.2,14,1.8,12s12.2-22.4,12.4-23.4s-3.4-7.4-3.4-7.4
			s-8,5.8-11.8,6.8C266.3,146.8,264.3,147.2,262.4,147.3z"/>
		<path id="Trazado_106515" class="st17" d="M271.9,161l-1,9.2l4.8-6.4L271.9,161z"/>
		<path id="Trazado_106516" class="st17" d="M271.9,161l4,5.8l14-19.8l-5.4-4.6L271.9,161z"/>
		<path id="Trazado_106517" class="st4" d="M276.9,124.6c0,0,1-5.2,3.2-4.8s2,4.4,0.8,7.2c-0.5,1.2-1,2.3-1.6,3.4L276.9,124.6z"/>
		<g>
			<defs>
				<path id="SVGID_7_" d="M276.9,124.6c0,0,1-5.2,3.2-4.8s2,4.4,0.8,7.2c-0.5,1.2-1,2.3-1.6,3.4L276.9,124.6z"/>
			</defs>
			<clipPath id="SVGID_8_">
				<use xlink:href="#SVGID_7_"  style="overflow:visible;"/>
			</clipPath>
			<g id="Grupo_60106" class="st19">
				<path id="Trazado_106518" class="st11" d="M276.9,124.6c0,0,1-5.2,3.2-4.8s2,4.4,0.8,7.2c-0.5,1.2-1,2.3-1.6,3.4L276.9,124.6z"
					/>
			</g>
		</g>
		<path id="Trazado_106520" class="st13" d="M276.9,124.6c0,0,1-5.2,3.2-4.8s2,4.4,0.8,7.2c-0.5,1.2-1,2.3-1.6,3.4L276.9,124.6z"/>
		<path id="Trazado_106521" class="st4" d="M250.3,132.3c0,0-3.2-3-3.8,1.2s6.2,5,6.2,5L250.3,132.3z"/>
		<g>
			<defs>
				<path id="SVGID_9_" d="M250.3,132.3c0,0-3.2-3-3.8,1.2s6.2,5,6.2,5L250.3,132.3z"/>
			</defs>
			<clipPath id="SVGID_10_">
				<use xlink:href="#SVGID_9_"  style="overflow:visible;"/>
			</clipPath>
			<g id="Grupo_60107" class="st20">
				<path id="Trazado_106522" class="st11" d="M250.3,132.3c0,0-3.2-3-3.8,1.2s6.2,5,6.2,5L250.3,132.3z"/>
			</g>
		</g>
		<path id="Trazado_106524" class="st13" d="M250.3,132.3c0,0-3.2-3-3.8,1.2s6.2,5,6.2,5L250.3,132.3z"/>
		<path id="Trazado_106525" class="st21" d="M245.7,120.1c0,0,8.8,24.2,12,27.8s11.8,5.6,18.8,0.2s4.8-11.4,3.2-16.2
			s-8.2-21.4-9.2-23.6s-5.8-3.4-8.2-1.6s-1.4,4-5.4,5s-8.8-0.6-11,2.4C244.7,115.9,244.6,118.3,245.7,120.1z"/>
		<path id="Trazado_106526" class="st13" d="M245.7,120.1c0,0,8.8,24.2,12,27.8s11.8,5.6,18.8,0.2s4.8-11.4,3.2-16.2
			s-8.2-21.4-9.2-23.6s-5.8-3.4-8.2-1.6s-1.4,4-5.4,5s-8.8-0.6-11,2.4C244.7,115.9,244.6,118.3,245.7,120.1z"/>
		<path id="Trazado_106527" class="st17" d="M249.3,127.5l9.5-3.5c0.8-0.3,1.7,0.1,1.9,0.9c0,0,0,0,0,0l0,0l1,2.8
			c0.6,1.6-0.2,3.4-1.9,4l-6.5,2.4c-1.6,0.6-3.4-0.2-4-1.8c0,0,0,0,0,0l-1-2.8C248.2,128.7,248.6,127.8,249.3,127.5L249.3,127.5z"/>
		<path id="Trazado_106528" class="st17" d="M264.8,121.9l9.5-3.5c0.8-0.3,1.6,0.1,1.9,0.9l0,0l1,2.8c0.6,1.6-0.2,3.4-1.8,4
			c0,0,0,0,0,0l-6.5,2.4c-1.6,0.6-3.4-0.2-4-1.9l-1-2.8C263.7,123,264,122.2,264.8,121.9L264.8,121.9L264.8,121.9z"/>
		<line id="Línea_228" class="st22" x1="252.9" y1="134.4" x2="255.7" y2="127.5"/>
		<line id="Línea_229" class="st22" x1="257.8" y1="125.4" x2="255.7" y2="130.8"/>
		<line id="Línea_230" class="st22" x1="268.6" y1="128.3" x2="271.4" y2="121.4"/>
		<line id="Línea_231" class="st22" x1="273.5" y1="119.3" x2="271.4" y2="124.7"/>
		<line id="Línea_232" class="st13" x1="258.7" y1="124.1" x2="265" y2="121.8"/>
		<path id="Trazado_106529" class="st13" d="M260.8,125.1c0.9-0.7,2-1,3.1-1.2"/>
		<path id="Trazado_106530" class="st13" d="M264.3,119.7c1.8-2.5,4.8-3.7,7.8-3.1"/>
		<path id="Trazado_106531" class="st13" d="M258.5,122.4c-2.5-2.1-6.1-1.9-8.4,0.4"/>
		<path id="Trazado_106532" class="st13" d="M261.8,133.4c0,0,0.5,2,0.9,2.2c1.5,0.6,6.5-0.6,6.4-2.9c-0.1-0.7-0.4-1.4-0.7-2.1"/>
		<path id="Trazado_106533" class="st13" d="M264.5,140.2c2.4,0.2,4.7-0.8,6.3-2.6"/>
		<path id="Trazado_106534" class="st4" d="M232.4,190.8c0,0-2.8,31.1-14.2,62.2S156,326.1,156,326.1l9.7,25
			c0,0,36.4-27.5,53.6-68.1s17.8-91.4,17.8-91.4L232.4,190.8z"/>
		<g>
			<defs>
				<path id="SVGID_11_" d="M232.4,190.8c0,0-2.8,31.1-14.2,62.2S156,326.1,156,326.1l9.7,25c0,0,36.4-27.5,53.6-68.1
					s17.8-91.4,17.8-91.4L232.4,190.8z"/>
			</defs>
			<clipPath id="SVGID_12_">
				<use xlink:href="#SVGID_11_"  style="overflow:visible;"/>
			</clipPath>
			<g id="Grupo_60108" class="st23">
				<path id="Trazado_106535" class="st11" d="M216.2,257.8l7.6,13.5c12.9-38,13.3-79.7,13.3-79.7l-4.7-0.8c0,0-2.8,31.1-14.2,62.2
					C217.7,254.6,217,256.2,216.2,257.8z"/>
			</g>
		</g>
		<path id="Trazado_106537" class="st13" d="M232.4,190.8c0,0-2.8,31.1-14.2,62.2S156,326.1,156,326.1l9.7,25
			c0,0,36.4-27.5,53.6-68.1s17.8-91.4,17.8-91.4L232.4,190.8z"/>
		<path id="Trazado_106538" class="st16" d="M186.8,246.4c0,0-4.4,4.1-2.3,9.6s37.8,65.2,37.8,65.2l8.3-1.9c0,0-16.6-54.4-19.7-61.1
			s-5.6-10.8-7.7-12.3"/>
		<path id="Trazado_106539" class="st17" d="M222.4,321.2c0,0-10.6,7.3-15.2,9.1s-3.1,4.2,0,4.2s15-1.5,20-2.1s7.7-0.2,7.9-2.9
			s-4.4-10.8-4.4-10.8L222.4,321.2z"/>
		<path id="Trazado_106540" class="st21" d="M242,133.9c0,0,0-5.2,1.2-6.2s7-3.8,8.2-3.2s0.2,1.4-0.6,2s-4.6,3.1-4.6,3.1l0.6,5.7
			L242,133.9z"/>
		<path id="Trazado_106541" class="st13" d="M242,133.9c0,0,0-5.2,1.2-6.2s7-3.8,8.2-3.2s0.2,1.4-0.6,2s-4.6,3.1-4.6,3.1l0.6,5.7
			L242,133.9z"/>
		<path id="Trazado_106542" class="st4" d="M251,140.9c0,0,3,0,3.6-0.8s4.2-5,4.4-5.8s0-1.6-2.2-0.8c-1.3,0.5-2.3,1.5-2.8,2.8
			l-2.8,0.2L251,140.9z"/>
		<g>
			<defs>
				<path id="SVGID_13_" d="M251,140.9c0,0,3,0,3.6-0.8s4.2-5,4.4-5.8s0-1.6-2.2-0.8c-1.3,0.5-2.3,1.5-2.8,2.8l-2.8,0.2L251,140.9z"
					/>
			</defs>
			<clipPath id="SVGID_14_">
				<use xlink:href="#SVGID_13_"  style="overflow:visible;"/>
			</clipPath>
			<g id="Grupo_60109" class="st24">
				<path id="Trazado_106543" class="st11" d="M251,140.9c0,0,3,0,3.6-0.8s4.2-5,4.4-5.8s0-1.6-2.2-0.8c-1.3,0.5-2.3,1.5-2.8,2.8
					l-2.8,0.2L251,140.9z"/>
			</g>
		</g>
		<path id="Trazado_106545" class="st13" d="M251,140.9c0,0,3,0,3.6-0.8s4.2-5,4.4-5.8s0-1.6-2.2-0.8c-1.3,0.5-2.3,1.5-2.8,2.8
			l-2.8,0.2L251,140.9z"/>
		<path id="Trazado_106546" class="st21" d="M237.8,152.9c0,0,2.2-11.4,2.6-14.4s0-4.4,1.6-4.6c2.7,0,5.4,0.2,8,0.6
			c1.4,0.2,2.8,0.2,2.4,2.4s0.8,7-0.6,8.4c-1,0.9-2.3,1.4-3.6,1.4c0,0,0.8,2-1.6,3.2c-1,0.6-2.1,1-3.2,1.4l-1.2,3.2L237.8,152.9z"/>
		<path id="Trazado_106547" class="st13" d="M237.8,152.9c0,0,2.2-11.4,2.6-14.4s0-4.4,1.6-4.6c2.7,0,5.4,0.2,8,0.6
			c1.4,0.2,2.8,0.2,2.4,2.4s0.8,7-0.6,8.4c-1,0.9-2.3,1.4-3.6,1.4c0,0,0.8,2-1.6,3.2c-1,0.6-2.1,1-3.2,1.4l-1.2,3.2L237.8,152.9z"/>
		<path id="Trazado_106548" class="st13" d="M248.2,146.7l-0.4-3.8l-2.6-0.4"/>
		<path id="Trazado_106549" class="st13" d="M245.4,138.8c0,0,5.3,0.3,6,0.7s0.8,4.5,0.8,4.5"/>
		<line id="Línea_233" class="st13" x1="245.3" y1="136.2" x2="252.4" y2="136.9"/>
		<path id="Trazado_106550" class="st16" d="M282.7,240.6c-12.9-1.3-18.9-4.5-20.9-7l-1.8,2.3l0.2,1.7c0,0-24.7-3.7-44-1.5
			s-31,8.1-31.8,15.2l10,4.6c14.8,8.7,47.6,10.6,59,11.4c11.4,0.8,33.2,0,41.6-1.2s12-4.8,12.9-11.6c0.7-5.7,0.8-14.4,0.8-17.3
			C305.6,239.2,296.8,242,282.7,240.6z"/>
		<line id="Línea_234" class="st25" x1="261" y1="238.5" x2="273.9" y2="250"/>
		<line id="Línea_235" class="st25" x1="263.1" y1="239.2" x2="272.5" y2="242.7"/>
		<path id="Trazado_106551" class="st17" d="M217.6,191.4c0,0-16,5.2-21,12L177,168.7c9.6-2.5,19.6-3.4,29.6-2.8
			c15.4,1.2,25.6,12,29.8,19L217.6,191.4z"/>
		<line id="Línea_236" class="st13" x1="192.2" y1="172.1" x2="202" y2="190.2"/>
		<line id="Línea_237" class="st13" x1="201.6" y1="170.5" x2="210.2" y2="186.9"/>
		<line id="Línea_238" class="st13" x1="211.1" y1="170.1" x2="218.5" y2="184.4"/>
		<path id="Trazado_106552" class="st17" d="M284.1,167c0,0-2.2,5.6-1.8,9s1.6,25.8,1.6,25.8s-18.2-1.2-25.4-3.8s-13.4-5.6-13.4-5.6
			l-1.6,6.4c0,0,12.8,11.4,23.6,15.8s31.6,8.6,34,7.6s4.6-23.2,4.4-31.8s0.2-17.8-3.8-24.2"/>
		<line id="Línea_239" class="st13" x1="249.6" y1="194.5" x2="247.9" y2="202.2"/>
		<path id="Trazado_106553" class="st17" d="M283.9,201.8c0,0,4.8,5.8,7.4,7.4"/>
		<path id="Trazado_106554" class="st21" d="M245.2,192.4c-2.4-1.5-4.5-3.3-6.4-5.4c-2.6-3-4.2-3-7.8-3.2s-7.4-3.4-8.4-3.2
			s-1.2,2-0.2,3s6,3.6,6,3.6l-10.8,4.2c0.5,0.6,1.2,1.1,2,1.4c1.4,0.6,2.8,0,3.4,0.6s4.2,1.8,6.4,2.6s9.4-0.4,9.4-0.4l4.8,3.2
			L245.2,192.4z"/>
		<path id="Trazado_106555" class="st13" d="M245.2,192.4c-2.4-1.5-4.5-3.3-6.4-5.4c-2.6-3-4.2-3-7.8-3.2s-7.4-3.4-8.4-3.2
			s-1.2,2-0.2,3s6,3.6,6,3.6l-10.8,4.2c0.5,0.6,1.2,1.1,2,1.4c1.4,0.6,2.8,0,3.4,0.6s4.2,1.8,6.4,2.6s9.4-0.4,9.4-0.4l4.8,3.2
			L245.2,192.4z"/>
	</g>
	<g id="freepik--Books--inject-33">
		<path id="Trazado_106556" class="st17" d="M235.2,269.7c3.6,8.3,3.6,17.8,0,26.1h92.3c0,0,11.4-2.8,11.4-13.1c0,0-2-9.2-11.1-12.8
			L235.2,269.7z"/>
		<path id="Trazado_106557" class="st7" d="M331.8,271.9c-4-2.2-7.7-2-12.3-2h-8.7l-22.7-0.1l-44.1-0.1c-0.7,0-7.9,0.6-8.2,0
			c0.8,1.7,1.4,3.5,1.8,5.4h92.1v20c5.2-1.9,8.8-6.7,9.1-12.3c0.4-4.5-2.5-8.1-6.1-10.3C332.4,272.2,332.1,272,331.8,271.9z"/>
		<line id="Línea_240" class="st13" x1="329.7" y1="272.6" x2="329.7" y2="293.1"/>
		<line id="Línea_241" class="st13" x1="237.7" y1="276" x2="251.9" y2="276"/>
		<line id="Línea_242" class="st13" x1="242.1" y1="278" x2="258" y2="278"/>
		<line id="Línea_243" class="st13" x1="237.7" y1="287.4" x2="264.1" y2="287.4"/>
		<line id="Línea_244" class="st13" x1="329.4" y1="277.1" x2="317.5" y2="277.1"/>
		<line id="Línea_245" class="st13" x1="328.8" y1="280.5" x2="302.7" y2="280.5"/>
		<line id="Línea_246" class="st13" x1="299.9" y1="280.5" x2="291" y2="280.5"/>
		<line id="Línea_247" class="st13" x1="313" y1="286" x2="329.4" y2="286"/>
		<line id="Línea_248" class="st13" x1="237.1" y1="291" x2="247.7" y2="291"/>
		<path id="Trazado_106558" class="st5" d="M324,299.4h-92.7c-1.5,0.1-2.9-1.1-3-2.6c-0.1-1.5,1.1-2.9,2.6-3c0,0,0,0,0,0h93
			c6.4,0,11.5-4.8,11.5-10.7s-5.2-10.7-11.5-10.7h-91.8c-1.5,0-2.8-1.2-2.8-2.8c0-1.5,1.2-2.8,2.8-2.8H324c9.4,0,17.1,7.3,17.1,16.3
			S333.4,299.4,324,299.4z"/>
		<path id="Trazado_106559" class="st17" d="M334.4,301.9c-3.6,8.3-3.6,17.8,0,26.1h-92.2c0,0-11.4-2.8-11.4-13.1
			c0,0,1.9-9.2,11.1-12.8L334.4,301.9z"/>
		<path id="Trazado_106560" class="st7" d="M237.7,304.1c4-2.2,7.7-2,12.3-2h8.7l22.7-0.1l44.2-0.1c0.7,0,7.9,0.6,8.2,0
			c-0.8,1.7-1.4,3.5-1.8,5.4h-92.1v19.9c-5.2-1.9-8.8-6.7-9.2-12.2c-0.4-4.5,2.5-8.1,6.1-10.4C237.2,304.4,237.4,304.3,237.7,304.1z
			"/>
		<line id="Línea_249" class="st13" x1="239.6" y1="306.3" x2="239.6" y2="324.3"/>
		<line id="Línea_250" class="st13" x1="331.9" y1="308.3" x2="317.7" y2="308.3"/>
		<line id="Línea_251" class="st13" x1="327.4" y1="310.2" x2="311.6" y2="310.2"/>
		<line id="Línea_252" class="st13" x1="331.9" y1="319.7" x2="305.5" y2="319.7"/>
		<line id="Línea_253" class="st13" x1="240.2" y1="309.4" x2="252.1" y2="309.4"/>
		<line id="Línea_254" class="st13" x1="240.8" y1="312.7" x2="266.9" y2="312.7"/>
		<line id="Línea_255" class="st13" x1="269.7" y1="312.7" x2="278.6" y2="312.7"/>
		<line id="Línea_256" class="st13" x1="256.6" y1="318.3" x2="240.2" y2="318.3"/>
		<line id="Línea_257" class="st13" x1="332.5" y1="323.3" x2="321.9" y2="323.3"/>
		<path id="Trazado_106561" class="st26" d="M245.6,331.6h92.7c1.5,0,2.8-1.2,2.8-2.8c0-1.5-1.2-2.8-2.8-2.8c0,0,0,0,0,0h-92.7
			c-6.4,0-11.5-4.8-11.5-10.7s5.2-10.7,11.5-10.7h91.8c1.5,0.1,2.9-1.1,2.9-2.6c0.1-1.5-1.1-2.9-2.6-2.9h-92.2
			c-9.4,0-17.1,7.3-17.1,16.2S236.2,331.6,245.6,331.6z"/>
		<path id="Trazado_106562" class="st17" d="M235.2,334.3c3.6,8.3,3.6,17.8,0,26.1h92.3c0,0,11.4-2.8,11.4-13.1c0,0-2-9.2-11.1-12.8
			L235.2,334.3z"/>
		<path id="Trazado_106563" class="st7" d="M331.8,336.5c-4-2.2-7.7-2-12.3-2h-8.7l-22.7-0.1l-44.2-0.1c-0.7,0-7.9,0.6-8.2,0
			c0.8,1.7,1.4,3.5,1.8,5.4h92.1v19.9c5.2-1.9,8.8-6.7,9.2-12.2c0.4-4.5-2.5-8.1-6.1-10.4C332.4,336.8,332.1,336.7,331.8,336.5z"/>
		<line id="Línea_258" class="st13" x1="329.7" y1="337.2" x2="329.7" y2="357.8"/>
		<line id="Línea_259" class="st13" x1="237.7" y1="340.7" x2="251.9" y2="340.7"/>
		<line id="Línea_260" class="st13" x1="242.1" y1="342.6" x2="258" y2="342.6"/>
		<line id="Línea_261" class="st13" x1="237.7" y1="352" x2="264.1" y2="352"/>
		<line id="Línea_262" class="st13" x1="329.4" y1="341.8" x2="317.5" y2="341.8"/>
		<line id="Línea_263" class="st13" x1="328.8" y1="345.1" x2="302.7" y2="345.1"/>
		<line id="Línea_264" class="st13" x1="299.9" y1="345.1" x2="291" y2="345.1"/>
		<line id="Línea_265" class="st13" x1="313" y1="350.7" x2="329.4" y2="350.7"/>
		<line id="Línea_266" class="st13" x1="237.1" y1="355.7" x2="247.7" y2="355.7"/>
		<path id="Trazado_106564" class="st5" d="M324,364h-92.7c-1.5,0-2.8-1.2-2.8-2.8c0-1.5,1.2-2.8,2.8-2.8c0,0,0,0,0,0H324
			c6.4,0,11.5-4.8,11.5-10.7S330.4,337,324,337h-91.9c-1.5,0-2.8-1.2-2.8-2.8c0-1.5,1.2-2.8,2.8-2.8c0,0,0,0,0,0H324
			c9.4,0,17.1,7.3,17.1,16.2S333.4,364,324,364z"/>
		<path id="Trazado_106565" class="st17" d="M334.4,366.5c-3.6,8.3-3.6,17.8,0,26.1h-92.2c0,0-11.4-2.8-11.4-13.1
			c0,0,1.9-9.2,11.1-12.8L334.4,366.5z"/>
		<path id="Trazado_106566" class="st7" d="M237.7,368.7c4-2.2,7.7-2,12.3-2h8.7l22.7-0.1l44.2-0.1c0.7,0,7.9,0.6,8.2,0
			c-0.8,1.7-1.4,3.5-1.8,5.4h-92.1v20c-5.2-1.9-8.8-6.7-9.2-12.2c-0.4-4.5,2.5-8.1,6.1-10.4L237.7,368.7z"/>
		<line id="Línea_267" class="st13" x1="239.6" y1="370.9" x2="239.6" y2="388.9"/>
		<line id="Línea_268" class="st13" x1="331.9" y1="372.9" x2="317.7" y2="372.9"/>
		<line id="Línea_269" class="st13" x1="327.4" y1="374.8" x2="311.6" y2="374.8"/>
		<line id="Línea_270" class="st13" x1="331.9" y1="384.3" x2="305.5" y2="384.3"/>
		<line id="Línea_271" class="st13" x1="240.2" y1="374" x2="252.1" y2="374"/>
		<line id="Línea_272" class="st13" x1="240.8" y1="377.3" x2="266.9" y2="377.3"/>
		<line id="Línea_273" class="st13" x1="269.7" y1="377.3" x2="278.6" y2="377.3"/>
		<line id="Línea_274" class="st13" x1="256.6" y1="382.9" x2="240.2" y2="382.9"/>
		<line id="Línea_275" class="st13" x1="332.5" y1="387.9" x2="321.9" y2="387.9"/>
		<path id="Trazado_106567" class="st26" d="M245.6,396.2h92.7c1.5,0,2.8-1.2,2.8-2.8c0-1.5-1.2-2.8-2.8-2.8c0,0,0,0,0,0h-92.7
			c-6.4,0-11.5-4.8-11.5-10.7s5.2-10.7,11.5-10.7h91.8c1.5,0,2.8-1.2,2.8-2.8c0-1.5-1.2-2.8-2.8-2.8h-91.8
			c-9.4,0-17.1,7.3-17.1,16.3S236.2,396.2,245.6,396.2z"/>
	</g>
	<g id="freepik--Plants--inject-33">
		<path id="Trazado_106568" class="st5" d="M379.2,253.6c2.2,1,7.6,0.9,7.7,0.9s-1.2-3.6-1.3-3.8c-1.2-2.5-5-6.6-8-6.2
			c-2,0.3-3.3,2.2-3,4.2c0,0.1,0,0.3,0.1,0.4C375.1,251.2,377.3,252.8,379.2,253.6z"/>
		<path id="Trazado_106569" class="st5" d="M450.3,235.1c-3.1-0.3-6.7,3.9-7.9,6.4c-0.1,0.2-1.2,3.8-1.2,3.8h0.1
			c-0.6,0.7-1.2,1.4-1.9,2.2c-1.2,1.5-2.5,3.2-3.9,5.1c-1.5,2.1-2.8,4.2-4,6.4c-1.4,2.5-2.5,5.1-3.5,7.8v-3.5
			c-0.4-2.7-2.7-7.8-5.7-8.4c-2-0.3-3.8,1-4.2,3v0.4c-0.2,2.2,1.4,4.4,2.9,5.7c1.7,1.6,6.5,3.1,6.9,3.2c-0.9,2.8-1.5,5.6-2,8.4
			c-0.3,1.7-0.5,3.3-0.8,5V279c-0.4-2.7-2.6-7.8-5.7-8.4c-2-0.3-3.9,1-4.2,3v0.4c-0.2,2.2,1.4,4.4,2.9,5.7s5.6,2.8,6.7,3.1l-0.2,1.9
			c-0.4,3.1-0.7,6.2-1.2,9.2c-0.2,1.1-0.4,2.1-0.5,3.2v-1.4c-0.4-2.7-2.6-7.8-5.7-8.4c-2-0.3-3.9,1-4.2,3v0.4
			c-0.2,2.2,1.4,4.4,2.9,5.7s5.2,2.6,6.5,3c-0.2,1.1-0.5,2.1-0.7,3.2c-0.2,0.7-0.3,1.4-0.6,2.1s-0.4,1.4-0.6,2
			c-0.5,1.3-0.9,2.6-1.4,3.8c-0.3,0.9-0.7,1.7-1,2.5c0.2-1.1,0.5-3.1,0.5-3.3c0-2.4-0.7-4.8-1.9-6.9c0.2-2-1.2-3.8-3.2-4
			c-0.3,0-0.6,0-0.9,0l-0.4,0.1c-3,0.8-4.9,6-5,8.8c0,0.2,0.1,1.9,0.2,3.1c-0.1-0.6-0.3-1.3-0.5-2c-0.3-1.3-0.7-2.6-1-4l-0.6-2
			c-0.2-0.7-0.5-1.4-0.7-2.1c-0.6-1.6-1.3-3.2-2-4.8c1.2-0.3,5.3-1.3,6.9-2.6s3.4-3.3,3.4-5.5c0.1-2-1.5-3.7-3.5-3.8c0,0,0,0,0,0
			c-0.1,0-0.3,0-0.5,0c-3.1,0.3-5.7,5.2-6.3,8c0,0.2-0.2,2.1-0.3,3.2c-0.4-1-0.9-1.9-1.4-2.9c-1.4-2.8-2.9-5.5-4.3-8.3l-1.6-2.5
			c0.4-0.1,5.3-1.2,7.1-2.6c1.6-1.2,3.4-3.3,3.4-5.5c0.1-2-1.5-3.7-3.5-3.8c0,0,0,0,0,0c-0.1,0-0.3,0-0.5,0
			c-3.1,0.3-5.7,5.2-6.3,7.9c0,0.2-0.3,3.1-0.3,3.8c-1-1.9-1.9-3.7-2.8-5.6c-1.2-2.5-2.2-5.1-3-7.8c0.2,0,5.3-1.2,7.2-2.7
			c1.6-1.2,3.4-3.3,3.4-5.5c0.1-2-1.5-3.7-3.5-3.8H396c-3.1,0.3-5.8,5.2-6.3,7.9c0,0.2-0.3,3.3-0.3,3.9l-0.2-0.5
			c-0.8-2.7-1.3-5.5-1.6-8.2c-0.2-1.5-0.2-3-0.3-4.5c1-0.1,5.4-0.7,7.3-1.8s3.7-2.9,3.9-5.1c0.3-2-1.1-3.9-3.1-4.1H395
			c-3.1,0-6.3,4.6-7.1,7.2c0,0.1-0.4,1.6-0.6,2.8v-2c0-2.3,0.1-4.5,0.3-6.4c0.1-1.1,0.2-2,0.3-3c0.9-0.6,4.5-3.1,5.6-5
			s2-4.3,1.1-6.3c-0.7-1.9-2.8-2.9-4.7-2.2l-0.3,0.1c-2.8,1.4-3.5,7-3,9.7c0,0.2,1.1,3.9,1.1,3.8l0,0c-0.1,0.9-0.2,1.8-0.4,2.8
			c-0.2,1.9-0.4,4-0.4,6.4c-0.1,2.5,0,5.1,0.2,7.6c0.2,2.8,0.7,5.6,1.4,8.4v0.1c-0.5-0.8-1.9-2.9-2-3c-1.8-2.1-6.5-5.1-9.4-3.9
			c-1.8,0.9-2.6,3-1.8,4.9l0.2,0.3c1,1.9,3.6,2.9,5.6,3.2c2.3,0.3,7.2-1.1,7.5-1.2c0.8,2.8,1.8,5.5,2.9,8.1c0.7,1.5,1.4,3.1,2.1,4.6
			c-0.4-0.6-0.8-1.2-0.9-1.3c-1.8-2.1-6.5-5.1-9.4-3.9c-1.8,0.8-2.6,3-1.8,4.8c0,0,0,0,0,0c0.1,0.1,0.1,0.2,0.2,0.4
			c1,1.9,3.6,2.9,5.6,3.2s6.2-0.8,7.3-1.1l0.9,1.8c1.4,2.8,2.8,5.6,4.1,8.4c0.5,1,0.9,2,1.3,2.9c-0.4-0.6-0.7-1.1-0.8-1.1
			c-1.8-2.1-6.5-5.1-9.4-3.9c-1.8,0.9-2.6,3-1.8,4.9l0.2,0.3c1,1.9,3.6,2.9,5.6,3.2s5.8-0.7,7.1-1.1c0.4,1,0.8,2,1.1,3
			c0.2,0.7,0.5,1.3,0.7,2l0.6,2.1c0.3,1.3,0.7,2.7,0.9,4c0.2,0.9,0.4,1.8,0.5,2.6c-0.4-1-1.4-2.9-1.5-3c-1.5-2.3-5.7-6-8.7-5.2
			c-1.9,0.6-3.1,2.6-2.5,4.5c0,0.1,0.1,0.3,0.1,0.4c0.8,2,3.1,3.4,5.1,4c2.2,0.7,7,0.1,7.6,0c0.3,1.4,0.5,2.8,0.8,4.2
			c0.8,4.6,1.3,8.5,1.6,11.1c0,0.4,0.1,0.9,0.1,1.3h-9.3l3.4,66.4h15.8l3.4-66.4h-8.7c0.1-0.1,0.1-0.3,0.2-0.4
			c1.2-2.5,2.8-6,4.6-10.4c0.6-1.4,1.1-2.9,1.7-4.4c0.6,0.1,5.4,1.1,7.6,0.6c2-0.5,4.5-1.6,5.4-3.6c0.9-1.8,0.2-4-1.6-4.9
			c0,0,0,0,0,0l-0.4-0.1c-2.9-1-7.4,2.4-9.1,4.6c-0.1,0.1-1,1.7-1.5,2.6c0.2-0.6,0.5-1.2,0.7-1.9c0.5-1.3,0.9-2.6,1.4-4
			c0.2-0.7,0.4-1.4,0.6-2s0.4-1.4,0.5-2.1c0.4-1.7,0.7-3.4,1-5.1c1.1,0.4,5.1,1.8,7.2,1.6s4.6-0.9,5.8-2.7c1.2-1.7,0.8-3.9-0.9-5.1
			c-0.1-0.1-0.2-0.1-0.3-0.2c-2.8-1.4-7.7,1.2-9.6,3.1c-0.1,0.1-1.4,1.7-2,2.5c0.2-1,0.3-2.1,0.5-3.1c0.4-3.1,0.7-6.2,1-9.3
			c0.1-1,0.2-1.9,0.3-2.9c0.4,0.1,5.1,1.9,7.4,1.7c2.1-0.1,4.6-0.9,5.8-2.7c1.2-1.7,0.8-3.9-0.9-5.1c0,0,0,0,0,0
			c-0.1-0.1-0.2-0.1-0.3-0.2c-2.8-1.4-7.7,1.2-9.6,3.1c-0.1,0.1-1.9,2.4-2.4,3c0.2-2.1,0.5-4.2,0.8-6.2c0.4-2.8,1-5.5,1.8-8.2
			c0.2,0.1,5.1,1.9,7.5,1.8c2.1-0.1,4.6-0.9,5.8-2.7c1.2-1.7,0.8-3.9-0.9-5.1c-0.1-0.1-0.2-0.1-0.3-0.2c-2.8-1.4-7.7,1.2-9.6,3.1
			c-0.2,0.2-2.1,2.6-2.4,3c0-0.2,0.1-0.3,0.1-0.5c0.8-2.7,1.9-5.3,3.2-7.7c0.7-1.4,1.5-2.6,2.2-3.9c0.9,0.4,4.9,2.4,7.1,2.5
			s4.7-0.4,6.1-2.1c1.3-1.5,1.2-3.8-0.3-5.2c0,0,0,0,0,0l-0.3-0.2c-2.6-1.7-7.8,0.3-9.9,2.1c-0.1,0.1-1.2,1.2-2,2
			c0.4-0.5,0.7-1.1,1-1.6c1.3-2,2.6-3.7,3.8-5.2c0.7-0.9,1.3-1.6,1.9-2.3c1.1,0,5.5-0.1,7.4-1s4-2.5,4.5-4.6
			c0.5-1.9-0.7-3.9-2.6-4.4c0,0,0,0,0,0C450.7,235.1,450.5,235.1,450.3,235.1z M416.2,317.8c-1.9,4.3-3.6,7.8-4.8,10.2
			c-0.2,0.5-0.5,0.9-0.7,1.3h-0.2c-0.1-0.5-0.1-1-0.2-1.6c-0.4-2.7-1-6.6-1.9-11.2c-0.3-1.5-0.6-3-1-4.6c1.5-0.6,2.9-1.3,4.2-2
			c1.6,1.7,5.6,3.7,6.2,4C417.3,315.2,416.8,316.6,416.2,317.8L416.2,317.8z"/>
		<path id="Trazado_106570" class="st5" d="M434.1,254.8c0,0,1-3.6,1-3.8c0.4-2.7-0.5-8.2-3.3-9.6c-1.8-0.8-4,0-4.9,1.8
			c-0.1,0.1-0.1,0.2-0.1,0.4c-0.8,2,0.2,4.6,1.3,6.3C429.5,251.9,434.1,254.8,434.1,254.8z"/>
	</g>
	<g id="freepik--Ground--inject-33">
		<line id="Línea_276" class="st27" x1="54.8" y1="396.2" x2="449.8" y2="396.2"/>
	</g>
</g>
</svg>
