<?xml version="1.0" encoding="utf-8"?>
<!-- Generator: Adobe Illustrator 25.3.1, SVG Export Plug-In . SVG Version: 6.00 Build 0)  -->
<svg version="1.1" id="Layer_1" xmlns="http://www.w3.org/2000/svg" xmlns:xlink="http://www.w3.org/1999/xlink" x="0px" y="0px"
	 viewBox="0 0 333 302.4" style="enable-background:new 0 0 333 302.4;" xml:space="preserve">
<style type="text/css">
	.st0{fill:#344154;}
	.st1{fill:#D9A171;}
	.st2{opacity:0.1;}
	.st3{fill:#344154;fill-opacity:0;}
	.st4{fill:#EBEBEB;}
	.st5{fill:#E0E0E0;}
	.st6{fill:#F5F5F5;}
	.st7{fill:#FFFFFF;}
	.st8{fill:#FAFAFA;}
	.st9{fill:#455A64;}
	.st10{opacity:0.3;}
	.st11{fill:#FFBE9D;}
	.st12{opacity:0.5;}
	.st13{opacity:0.4;}
</style>
<g id="Capa_2" transform="translate(0 -0.266)">
	<g id="Capa_1" transform="translate(0 0.266)">
		<g id="freepik--Plants--inject-44" transform="translate(254.205 97.068)">
			<path id="Trazado_106295" class="st0" d="M46.3-15.1c-0.2-0.1-0.3-0.1-0.5-0.1c-0.5-0.1-1-0.1-1.4,0c-0.8,0.2-1.5,0.6-2.1,1.1
				c-0.8,0.7-1.5,1.6-2.1,2.5c-1.5,2.7-2.8,5.5-3.7,8.4C35,0.6,33.8,4.5,32.7,8.5l0,0c-0.2,0.4-0.5,0.7-0.8,1
				c-0.3,0.3-0.8,0.4-1.2,0.4c-0.4-0.1-0.8-0.3-1.1-0.7c-0.3-0.3-0.6-0.6-0.9-0.9c-0.6-0.6-1.2-1.2-1.8-1.8c-0.6-0.6-1.5-0.9-2.3-1
				c-0.9,0.1-1.7,0.7-2.1,1.4c-0.5,0.8-0.7,1.7-0.7,2.7c0,2,0.3,3.9,0.8,5.8c0.3,2,0.8,4,1.1,6.1c0.2,1,0.4,2.1,0.6,3.2l0.3,1.6
				c0.2,0.6,0.1,1.2-0.2,1.7c-0.2,0.3-0.6,0.4-0.9,0.3c-0.3-0.1-0.6-0.2-0.8-0.4l-1.3-1c-0.9-0.7-1.8-1.3-2.8-1.9
				c-1-0.6-2-1.1-3.2-1.3c-0.6-0.1-1.1-0.1-1.7,0c-0.6,0.1-1,0.5-1.4,0.9c-0.6,1-1,2.2-0.9,3.3c0,1.2,0.1,2.4,0.4,3.6
				c0.5,2.4,1.2,4.8,2,7.2c0.3,0.6,0.5,1.2,0.6,1.9c0.1,0.5-0.1,0.9-0.4,1.2c-0.1,0.1-0.2,0.1-0.3,0.2c-0.2,0-0.4,0-0.6-0.1
				c-0.6-0.4-1.1-0.8-1.5-1.2L10,39.2c-0.9-0.9-1.9-1.7-3-2.4c-0.5-0.4-1.1-0.6-1.8-0.8c-0.6-0.2-1.2-0.1-1.8,0.2
				c-0.5,0.4-0.9,0.9-1,1.5c-0.2,0.6-0.2,1.3-0.2,1.9c0,1.3,0.2,2.7,0.5,4c0.7,2.7,1.6,5.2,2.9,7.7c1.3,2.5,2.7,4.9,4.3,7.2
				c0.8,1.2,1.7,2.3,2.6,3.3c0.9,1.1,1.8,2.2,2.7,3.3v0l-0.2-0.1l4.2-0.6c1.4-0.2,2.8-0.4,4.2-0.7c2.7-0.6,5.4-1.4,8-2.4
				c2.6-1,5-2.2,7.3-3.7c1.1-0.7,2.1-1.6,3-2.6c0.4-0.5,0.8-1,1.1-1.6c0.3-0.5,0.4-1.2,0.3-1.8c-0.2-0.6-0.6-1.1-1.2-1.4
				c-0.6-0.3-1.2-0.5-1.8-0.6c-1.3-0.2-2.6-0.3-3.9-0.2h-1.9c-0.7,0-1.3,0-2-0.1c-0.2,0-0.4-0.1-0.5-0.3c0-0.1-0.1-0.2-0.1-0.3
				c0-0.1,0-0.2,0-0.3c0-0.4,0.2-0.7,0.5-0.9c0.5-0.4,1.1-0.7,1.7-1c2.2-1.1,4.3-2.4,6.4-3.9c1-0.7,1.9-1.5,2.7-2.4
				c0.8-0.8,1.4-1.9,1.6-3.1c0.1-0.6-0.1-1.1-0.4-1.6c-0.3-0.5-0.7-0.9-1.2-1.1c-1-0.6-2.1-0.9-3.2-1.2c-1.1-0.2-2.2-0.4-3.4-0.5
				l-1.7-0.2c-0.3,0-0.6-0.1-0.9-0.2c-0.3-0.2-0.5-0.5-0.4-0.8c0.1-0.6,0.5-1.1,1-1.4l1.3-1l2.6-2l5-3.8c1.6-1.1,3.1-2.4,4.5-3.8
				c0.6-0.7,1-1.5,1.2-2.5c0.2-0.9,0-1.8-0.6-2.6c-0.3-0.3-0.7-0.6-1.1-0.7c-0.4-0.1-0.8-0.2-1.3-0.2c-0.9,0-1.7,0-2.6,0.1
				c-0.4,0-0.9,0.1-1.3,0.1c-0.4,0-0.9-0.1-1.3-0.3c-0.4-0.3-0.6-0.7-0.7-1.1c0-0.4,0-0.8,0.1-1.2l0,0c1.9-3.6,3.6-7.3,5.2-11.1
				c1.2-2.8,2.2-5.7,2.9-8.7c0.2-1.1,0.2-2.2,0.1-3.3c-0.1-0.8-0.4-1.6-0.8-2.2c-0.3-0.4-0.6-0.8-1-1C46.6-15,46.4-15.1,46.3-15.1
				c0.1,0,0.3,0,0.4,0.1c0.4,0.2,0.8,0.6,1.1,1c0.4,0.7,0.7,1.4,0.8,2.2c0.1,1.1,0.1,2.2-0.1,3.3c-0.7,3-1.6,5.9-2.9,8.7
				c-1.5,3.8-3.2,7.6-5.1,11.2l0,0c-0.1,0.4-0.1,0.8-0.1,1.1c0,0.4,0.2,0.7,0.5,1c0.3,0.2,0.7,0.3,1.1,0.2c0.4,0,0.8,0,1.3-0.1
				c0.9-0.1,1.7-0.1,2.6-0.1c0.5,0,0.9,0.1,1.3,0.2c0.5,0.1,0.9,0.4,1.2,0.7c0.6,0.8,0.8,1.7,0.7,2.7c-0.2,1-0.6,1.8-1.3,2.6
				c-1.4,1.4-2.9,2.7-4.5,3.9l-5,3.8l-2.6,1.9l-1.3,1c-0.2,0.1-0.4,0.3-0.6,0.5c-0.2,0.2-0.3,0.4-0.3,0.7c0,0.2,0.1,0.4,0.3,0.5
				c0.2,0.1,0.5,0.2,0.8,0.2l1.7,0.2c1.1,0.1,2.3,0.3,3.4,0.5c1.2,0.2,2.3,0.6,3.3,1.2c0.5,0.3,1,0.7,1.3,1.2
				c0.4,0.5,0.5,1.2,0.5,1.8c-0.2,1.2-0.8,2.4-1.6,3.3c-0.8,0.9-1.7,1.7-2.7,2.5c-2,1.5-4.1,2.8-6.4,4c-0.6,0.3-1.1,0.6-1.6,0.9
				c-0.2,0.2-0.4,0.4-0.4,0.7c0,0.1,0,0.1,0,0.2c0,0.1,0,0.2,0,0.2c0.1,0.1,0.2,0.1,0.3,0.1c0.6,0.1,1.3,0.1,1.9,0.1h1.9
				c1.3-0.1,2.6,0,3.9,0.2c0.7,0.1,1.3,0.3,1.9,0.6c0.7,0.3,1.1,0.9,1.3,1.6c0.2,0.7,0,1.4-0.3,2.1c-0.3,0.6-0.7,1.2-1.2,1.7
				c-0.9,1-2,1.9-3.1,2.7c-2.3,1.5-4.8,2.8-7.4,3.8c-2.6,1-5.3,1.8-8.1,2.4c-1.4,0.3-2.8,0.6-4.2,0.7l-4.2,0.6H15l-0.1-0.1h0
				l-2.7-3.3c-0.9-1.1-1.8-2.2-2.6-3.3c-1.6-2.3-3.1-4.7-4.3-7.2C4,49.1,3,46.5,2.3,43.9c-0.3-1.3-0.5-2.7-0.5-4.1
				c0-0.7,0.1-1.4,0.3-2c0.2-0.7,0.6-1.3,1.1-1.7c0.6-0.4,1.4-0.5,2.1-0.3c0.7,0.2,1.3,0.5,1.8,0.8c1.1,0.7,2.1,1.6,3.1,2.5l1.4,1.3
				c0.5,0.4,1,0.8,1.5,1.2c0.1,0.1,0.2,0.1,0.3,0.1l0.1-0.1l0.1-0.1c0.2-0.2,0.2-0.5,0.2-0.8c-0.1-0.6-0.3-1.2-0.6-1.8
				c-0.9-2.4-1.6-4.8-2-7.2c-0.2-1.2-0.4-2.4-0.4-3.7c0-1.2,0.3-2.5,1-3.5c0.4-0.5,0.9-0.9,1.5-1c0.6-0.1,1.2-0.1,1.8,0
				c1.1,0.3,2.2,0.7,3.2,1.3c1,0.6,1.9,1.2,2.9,1.9l1.3,1c0.2,0.2,0.4,0.3,0.7,0.4c0.2,0.1,0.5,0,0.6-0.2c0.1-0.2,0.2-0.4,0.2-0.7
				c0-0.3,0-0.5-0.1-0.8c-0.1-0.5-0.2-1.1-0.3-1.6c-0.2-1.1-0.4-2.1-0.6-3.2c-0.4-2.1-0.8-4.1-1.1-6.1c-0.5-1.9-0.7-3.9-0.8-5.9
				c0-1,0.3-1.9,0.8-2.8c0.5-0.8,1.3-1.3,2.3-1.5c0.5,0,0.9,0.1,1.4,0.3c0.4,0.2,0.8,0.4,1.1,0.7c0.7,0.6,1.3,1.2,1.9,1.8
				c0.3,0.3,0.6,0.6,0.9,0.9c0.3,0.3,0.6,0.5,1,0.6c0.4,0.1,0.8-0.1,1.1-0.3c0.3-0.3,0.5-0.6,0.7-0.9l0,0c1.1-4,2.3-7.9,3.8-11.8
				c1-2.9,2.2-5.7,3.8-8.4c0.6-0.9,1.3-1.8,2.2-2.5c0.6-0.5,1.4-0.9,2.1-1.1c0.5-0.1,1-0.1,1.5,0C46-15.2,46.1-15.1,46.3-15.1z"/>
			<path id="Trazado_106296" class="st0" d="M42.8-6c0,0.1,0,0.2-0.1,0.2l-0.2,0.6c-0.2,0.6-0.5,1.4-0.9,2.4c-0.8,2.1-2,5.1-3.4,8.8
				L27.1,35.2C22.8,46.5,18.9,56.8,16,64.2c-1.5,3.7-2.7,6.7-3.5,8.8c-0.4,1-0.7,1.8-1,2.4c-0.1,0.3-0.2,0.5-0.3,0.6l-0.1,0.2
				c0-0.1,0-0.1,0.1-0.2c0.1-0.2,0.1-0.4,0.2-0.6c0.2-0.6,0.5-1.4,0.9-2.4c0.8-2.1,2-5.1,3.4-8.8l11.1-29.1
				C31.1,23.7,35.1,13.4,38,6c1.5-3.7,2.7-6.7,3.5-8.8c0.4-1,0.7-1.8,1-2.4c0.1-0.3,0.2-0.5,0.3-0.6L42.8-6z"/>
			<path id="Trazado_106297" class="st0" d="M43.2,17c-0.5,0.4-1.1,0.7-1.7,1l-4.1,2.3c-1.6,0.9-3.1,1.7-4.1,2.2
				c-0.6,0.3-1.2,0.6-1.8,0.8c0.5-0.4,1.1-0.7,1.7-1l4.1-2.3c1.6-0.9,3.1-1.7,4.1-2.2C42,17.5,42.6,17.2,43.2,17z"/>
			<path id="Trazado_106298" class="st0" d="M31,22.9c-0.1,0-1.7-3-3.5-6.8s-3.3-6.9-3.2-6.9s1.7,3,3.5,6.8S31.1,22.8,31,22.9z"/>
			<path id="Trazado_106299" class="st0" d="M25.2,40.6c-0.5-0.4-1-0.8-1.5-1.3c-0.9-0.9-2-2.1-3.2-3.5S18.2,33,17.5,32
				c-0.4-0.5-0.8-1.1-1.1-1.7c0.5,0.5,0.9,1,1.3,1.5c0.8,1,1.8,2.3,3,3.7s2.3,2.7,3.1,3.6C24.3,39.6,24.8,40.1,25.2,40.6z"/>
			<path id="Trazado_106300" class="st0" d="M37.4,37.7c-0.6,0.2-1.2,0.4-1.8,0.5c-1.1,0.3-2.6,0.6-4.3,1s-3.2,0.7-4.3,0.9
				c-0.6,0.1-1.2,0.2-1.8,0.3c0.6-0.2,1.2-0.4,1.8-0.5c1.1-0.3,2.6-0.7,4.3-1s3.2-0.7,4.3-0.9C36.1,37.9,36.7,37.8,37.4,37.7
				L37.4,37.7z"/>
			<path id="Trazado_106301" class="st0" d="M34.2,54.1c-0.7,0.3-1.5,0.5-2.3,0.6c-1.4,0.3-3.3,0.8-5.5,1.2s-4.1,0.9-5.5,1.1
				c-0.8,0.2-1.5,0.3-2.3,0.4c0.7-0.3,1.5-0.5,2.3-0.6c1.4-0.3,3.3-0.8,5.5-1.2s4.1-0.9,5.5-1.1C32.6,54.2,33.4,54.1,34.2,54.1
				L34.2,54.1z"/>
			<path id="Trazado_106302" class="st0" d="M18.9,57.2c-0.2-0.1-0.3-0.3-0.5-0.5c-0.3-0.3-0.7-0.8-1.3-1.3c-1-1.1-2.5-2.8-3.9-4.6
				s-2.8-3.6-3.6-4.9c-0.4-0.7-0.8-1.2-1-1.5c-0.1-0.2-0.2-0.4-0.3-0.6c0.2,0.1,0.3,0.3,0.4,0.5l1.1,1.5c0.9,1.2,2.2,2.9,3.7,4.8
				s2.8,3.5,3.8,4.7C17.9,55.8,18.4,56.5,18.9,57.2L18.9,57.2z"/>
			<path id="Trazado_106303" class="st1" d="M12.2,101.8C0.7,92.5-1,76.6,0.4,62.4c0.2-2.4,0.2-4.9,1.4-6.9s4-3.2,6-2.1
				c1.7,0.9,2.3,3,3.2,4.8c1.2,2.3,3,4.3,5.2,5.7c1.5,0.9,3.3,1.5,4.8,0.8c2.1-1,2.6-3.8,2.7-6.1l0.8-13.2c0-2.4,0.4-4.7,1.2-6.9
				c0.8-2.2,2.6-4,4.9-4.6c2.3-0.5,5,1,5.3,3.3c0,1,0,2-0.1,2.9c-0.1,1,0.4,1.9,1.3,2.4c1,0.2,2-0.2,2.7-0.9
				c2.5-2.3,4.6-5.1,6.2-8.1c1.6-3,3.6-5.8,5.8-8.4c2.4-2.4,5.6-4.3,9-4.2s6.8,2.4,7.5,5.7s-1.5,6.6-3.8,9.2
				c-3.4,3.8-7.3,7-11.7,9.7c-0.8,0.4-1.5,1-2,1.8c-0.6,1.5,0.8,3.2,2.3,3.8c1.7,0.7,3.6,0.7,5.5,1s3.8,1.3,4.3,3.1
				c0.8,2.5-1.4,4.9-3.5,6.4c-4.2,3-8.8,5.3-13.8,6.8c-1.8,0.4-3.6,1.1-5.1,2.1c-1.5,1.1-2.5,3.2-1.7,4.9s2.9,2.4,4.7,2.2
				c1.8-0.4,3.6-0.9,5.3-1.6c3.3-1,7.5-0.5,9.3,2.4c1.1,2,1.3,4.5,0.3,6.7c-0.9,2.1-2.3,4-4,5.6c-5.5,5.8-12.5,10-20.2,12.2
				C26.5,104.9,19.5,105.1,12.2,101.8"/>
			<g id="Grupo_60095" transform="translate(0 36.206)" class="st2">
				<path id="Trazado_106304" d="M12.2,65.6C0.7,56.3-1,40.3,0.4,26.2c0.2-2.4,0.2-4.9,1.4-6.9s4-3.2,6-2.1c1.7,0.9,2.3,3,3.2,4.8
					c1.2,2.3,3,4.3,5.2,5.7c1.5,0.9,3.3,1.5,4.8,0.8c2.1-1,2.6-3.8,2.7-6.1l0.8-13.2c0-2.4,0.4-4.7,1.2-6.9c0.8-2.2,2.6-4,4.9-4.6
					c2.3-0.5,5,1,5.3,3.3c0,1,0,2-0.1,2.9c-0.1,1,0.4,1.9,1.3,2.4c1,0.2,2-0.2,2.7-0.9c2.5-2.3,4.6-5.1,6.2-8.1
					c1.6-3,3.6-5.8,5.8-8.4c2.4-2.4,5.6-4.3,9-4.2s6.8,2.4,7.5,5.7S66.7-3,64.4-0.4c-3.4,3.8-7.3,7-11.7,9.7c-0.8,0.4-1.5,1-2,1.8
					c-0.6,1.5,0.8,3.2,2.3,3.8c1.7,0.7,3.6,0.7,5.5,1c1.8,0.3,3.8,1.3,4.3,3.1c0.8,2.5-1.4,4.9-3.5,6.4c-4.2,3-8.8,5.3-13.8,6.8
					c-1.8,0.4-3.6,1.1-5.1,2.1c-1.5,1.1-2.5,3.2-1.7,4.9s2.9,2.4,4.7,2.2c1.8-0.4,3.6-0.9,5.3-1.6c3.3-1,7.5-0.5,9.3,2.4
					c1.1,2,1.3,4.5,0.3,6.7c-0.9,2.1-2.3,4-4,5.6c-5.5,5.8-12.5,10-20.2,12.2C26.5,68.7,19.5,68.9,12.2,65.6"/>
			</g>
			<path id="Trazado_106305" class="st0" d="M11.3,112.3c1.1-6.5,2.8-12.9,5.2-19.1c2.9-7.6,6.2-14.9,9.9-22.1l2.9-5.7
				c1-1.9,1.9-3.7,2.9-5.4c2-3.3,4.2-6.6,6.5-9.7c2.2-3,4.5-5.7,6.6-8.3s4.1-4.9,6-6.9c3-3.3,6.3-6.3,9.8-9c1.2-1,2.2-1.7,2.9-2.2
				l0.8-0.5c0.1-0.1,0.2-0.1,0.3-0.2c-0.1,0.1-0.1,0.2-0.2,0.2L64.1,24c-0.7,0.5-1.6,1.2-2.8,2.2c-3.4,2.8-6.7,5.8-9.6,9.1
				c-1.9,2.1-3.9,4.4-6,7s-4.3,5.3-6.5,8.3c-2.3,3.1-4.5,6.3-6.5,9.6c-1,1.7-2,3.6-2.9,5.4l-2.9,5.7c-3.7,7.2-7,14.5-9.9,22
				c-2.3,6.2-4.1,12.5-5.2,19"/>
			<path id="Trazado_106306" class="st0" d="M32.4,60c-0.1-0.3-0.1-0.7-0.2-1c-0.1-0.7-0.2-1.6-0.2-2.8c-0.2-2.4-0.3-5.6-0.4-9.2
				S31.2,40,31,37.7c-0.1-1.2-0.2-2.1-0.3-2.8c-0.1-0.3-0.1-0.7-0.1-1c0.1,0.3,0.2,0.7,0.2,1c0.1,0.7,0.3,1.6,0.4,2.8
				c0.3,2.4,0.5,5.6,0.7,9.2s0.2,6.8,0.3,9.2c0,1.1,0.1,2,0.1,2.8C32.4,59.3,32.4,59.6,32.4,60L32.4,60z"/>
			<path id="Trazado_106307" class="st0" d="M63,56.4c-0.4,0.1-0.8,0.1-1.2,0.1c-0.8,0-1.9,0-3.3,0.1c-2.8,0.1-6.7,0.4-10.9,0.9
				s-8,1.1-10.8,1.7c-1.4,0.3-2.5,0.5-3.2,0.7c-0.4,0.1-0.8,0.2-1.2,0.2c0.4-0.2,0.8-0.3,1.2-0.4c0.8-0.2,1.9-0.5,3.2-0.8
				c2.7-0.6,6.6-1.3,10.8-1.8c3.6-0.4,7.3-0.7,10.9-0.8c1.4,0,2.5,0,3.3,0C62.2,56.3,62.6,56.3,63,56.4z"/>
			<path id="Trazado_106308" class="st0" d="M16.9,92.7c-0.1-0.1-0.1-0.2-0.2-0.4l-0.4-1.1c-0.4-1-0.9-2.4-1.5-4.2
				c-1.2-3.6-2.8-8.5-4.4-14.1S7.3,62.4,6.2,58.8c-0.6-1.7-1-3.2-1.4-4.2l-0.4-1.2c0-0.1-0.1-0.3-0.1-0.4c0.1,0.1,0.1,0.2,0.2,0.4
				c0.1,0.3,0.3,0.7,0.4,1.1c0.4,1,0.9,2.4,1.5,4.2c1.2,3.6,2.8,8.5,4.4,14.1s3.1,10.5,4.3,14.1c0.6,1.7,1,3.2,1.3,4.2l0.4,1.2
				C16.9,92.4,16.9,92.5,16.9,92.7z"/>
			<path id="Trazado_106309" class="st0" d="M58,82.5c-0.1,0.1-0.3,0.1-0.4,0.1l-1.2,0.3L52,84c-3.7,0.9-8.8,2.3-14.5,3.8
				S26.7,90.6,23,91.4c-1.9,0.4-3.4,0.8-4.4,1l-1.2,0.2c-0.1,0-0.3,0-0.4,0c0.1-0.1,0.3-0.1,0.4-0.1l1.2-0.3l4.4-1.1
				c3.7-0.9,8.8-2.3,14.5-3.8s10.8-2.8,14.5-3.6c1.9-0.4,3.4-0.8,4.4-1l1.2-0.2C57.7,82.5,57.9,82.5,58,82.5z"/>
		</g>
		<rect id="Rectángulo_6376" y="-15.3" class="st3" width="333" height="333"/>
		<g id="freepik--background-complete--inject-44" transform="translate(21.487 30.54)">
			<path id="Trazado_106310" class="st4" d="M2.6,238.2v16.7h3.9c-0.2-1.8-0.2-3.5,0-5.3c0.4-2,4.6-7,4.4-11.4L2.6,238.2z"/>
			<path id="Trazado_106311" class="st5" d="M33.5,238.2v16.7h3.9c-0.2-1.8-0.2-3.5,0-5.3c0.4-2,4.6-7,4.4-11.4L33.5,238.2z"/>
			<path id="Trazado_106312" class="st4" d="M63.7,238.2v16.7h-3.9c0.2-1.8,0.2-3.5,0-5.3c-0.4-2-4.6-7-4.4-11.4L63.7,238.2z"/>
			<path id="Trazado_106313" class="st5" d="M90.4,238.2v16.7h-3.9c0.2-1.8,0.2-3.5,0-5.3c-0.4-2-4.6-7-4.4-11.4L90.4,238.2z"/>
			<rect id="Rectángulo_6377" x="0" y="155.7" class="st6" width="92.5" height="83"/>
			<path id="Trazado_106314" class="st5" d="M67.5,155.7l0.7,83h24.2v-83H67.5z"/>
			<rect id="Rectángulo_6378" x="4.2" y="161.8" class="st4" width="59.4" height="21.1"/>
			<rect id="Rectángulo_6379" x="4.2" y="187.2" class="st4" width="59.4" height="21.1"/>
			<rect id="Rectángulo_6380" x="4.2" y="212.5" class="st4" width="59.4" height="21.1"/>
			<path id="Trazado_106315" class="st5" d="M26.9,131.9l-2.6,23.8h32.8l2.7-23.8H26.9z"/>
			<path id="Trazado_106316" class="st7" d="M28.3,133.6l-2.5,20.8h29.6l2.4-20.8H28.3z"/>
			<path id="Trazado_106317" class="st4" d="M33.2,137.1l-1.5,13.8h18.7l1-13.8H33.2z"/>
			<path id="Trazado_106318" class="st4" d="M58.7,142.1l6.8,13.6l-8.3-0.1L58.7,142.1"/>
			<path id="Trazado_106319" class="st5" d="M36,173.5c0,1.2-1,2.2-2.2,2.2c-1.2,0-2.2-1-2.2-2.2s1-2.2,2.2-2.2c0,0,0,0,0,0l0,0
				C35,171.3,36,172.3,36,173.5z"/>
			<path id="Trazado_106320" class="st5" d="M36,199.1c1.2,0,2.2-1,2.2-2.2c0-1.2-1-2.2-2.2-2.2c-1.2,0-2.2,1-2.2,2.2
				C33.8,198.1,34.8,199.1,36,199.1L36,199.1z"/>
			<path id="Trazado_106321" class="st5" d="M36,224.7c0.3-0.9-0.2-1.9-1.1-2.2s-1.9,0.2-2.2,1.1c-0.3,0.9,0.2,1.9,1.1,2.2
				C34.7,226,35.7,225.6,36,224.7L36,224.7z"/>
			<path id="Trazado_106322" class="st5" d="M63.4,20.8L11,20.3l1.5,68.3l52.4,0.2L63.4,20.8z"/>
			<path id="Trazado_106323" class="st8" d="M60,23.8l-45.9-1.2l1.3,62l45.9,0.6L60,23.8z"/>
			<path id="Trazado_106324" class="st4" d="M52.2,33.1l-30.5-0.5l0.9,43.3l30.4-0.7L52.2,33.1z"/>
			<path id="Trazado_106325" class="st6" d="M22.7,75.9L52.6,53L21.8,32.6L22.7,75.9z"/>
			<path id="Trazado_106326" class="st5" d="M289-14.8l-46-0.4l1.3,59.9l46,0.2L289-14.8z"/>
			<path id="Trazado_106327" class="st8" d="M286-12.2l-40.3-1l1.2,54.3l40.2,0.5L286-12.2z"/>
			<path id="Trazado_106328" class="st4" d="M279.1-4.1l-26.7-0.4l0.8,38l26.7-0.6L279.1-4.1z"/>
			<path id="Trazado_106329" class="st6" d="M253.2,33.5l26.3-20.1L252.4-4.5L253.2,33.5z"/>
			<path id="Trazado_106330" class="st4" d="M237.5,210.5c-0.2,0.6,6.7,26.7,6.7,26.7l4.7-1l-6.5-25.7L237.5,210.5z"/>
			<path id="Trazado_106331" class="st6" d="M273.9,206.8l-9.4,30.4h5.5l9-28.2L273.9,206.8z"/>
			<path id="Trazado_106332" class="st4" d="M282.5,202l-10.8,35.1h5.5l10.4-32.9L282.5,202z"/>
			<path id="Trazado_106333" class="st5" d="M240.8,235l5.5,19h27.6l5.1-19H240.8z"/>
			<path id="Trazado_106334" class="st5" d="M255.1,235c0-0.1,0-0.1-0.1-0.2l-0.1-0.6c-0.1-0.5-0.3-1.3-0.5-2.2l-1.9-8.3l-6.2-27.7
				l0.2,0.1h-4.8l0.2-0.2c2.5,10.9,4.7,20.7,6.2,27.7c0.8,3.5,1.4,6.3,1.8,8.3c0.2,1,0.4,1.7,0.5,2.3c0,0.2,0.1,0.4,0.1,0.6
				c0,0.1,0,0.1,0,0.2c0-0.1,0-0.1-0.1-0.2c0-0.1-0.1-0.3-0.1-0.6c-0.1-0.5-0.3-1.3-0.5-2.2c-0.5-2-1.1-4.8-1.9-8.3
				c-1.6-7.1-3.9-16.8-6.3-27.7l-0.1-0.2h5.2v0.1c2.4,10.9,4.5,20.7,6.1,27.7c0.8,3.5,1.4,6.3,1.8,8.3c0.2,1,0.4,1.7,0.5,2.3
				l0.1,0.6C255,234.8,255,234.9,255.1,235z"/>
		</g>
		<g id="freepik--Checklist--inject-44" transform="translate(92.351 34.066)">
			<rect id="Rectángulo_6381" x="0" y="2.3" class="st9" width="161.6" height="221.5"/>
			<path id="Trazado_106335" class="st5" d="M155.2,210.6H13.5V11.2h141.8V210.6z"/>
			<path id="Trazado_106336" class="st4" d="M153,206.9H12.5V8.6H153L153,206.9L153,206.9z"/>
			<path id="Trazado_106337" class="st8" d="M137.9,191.4l-16.2,13.2H9.9V9.1h141.8v171.2L137.9,191.4z"/>
			<path id="Trazado_106338" class="st0" d="M137.9,191.4c0,0,0.3-0.2,0.9-0.7l2.6-2.1l10.3-8.4v0c0-28.1-0.1-90.6-0.1-171.2
				l0.2,0.2H9.9l0.2-0.2c0,73.5,0,141.3,0,195.5l-0.1-0.1l111.8,0.1h0l12.2-9.9l3-2.5C137.6,191.7,137.9,191.4,137.9,191.4l-1,0.8
				l-3,2.5l-12.1,9.9l0,0L9.9,204.8H9.7v-0.1c0-54.2,0-122,0-195.5V8.9h142.1v0.1c0,80.6-0.1,143.1-0.1,171.2l0,0l-10.3,8.3
				l-2.6,2.2L137.9,191.4z"/>
			<path id="Trazado_106339" class="st1" d="M61.6-4.6h38.8c5.2,0,9.4,4.2,9.4,9.4v10.5h-58V5.3C51.8-0.2,56.2-4.6,61.6-4.6z"/>
			<path id="Trazado_106340" class="st1" d="M66-4.6l-2.1-10.7h33.4L95.4-4.6H66z"/>
			<path id="Trazado_106341" class="st1" d="M48.6,64.1H24.7V40.2h23.9V64.1z M25.4,63.5h22.5V40.9H25.4V63.5z"/>
			<path id="Trazado_106342" class="st0" d="M133,46c0,0.1-16.6,0.2-37.1,0.2S58.7,46.1,58.7,46s16.6-0.2,37.1-0.2S133,45.9,133,46z
				"/>
			<path id="Trazado_106343" class="st0" d="M133,51c0,0.1-16.6,0.2-37.1,0.2S58.7,51.1,58.7,51s16.6-0.2,37.1-0.2S133,50.9,133,51z
				"/>
			<path id="Trazado_106344" class="st0" d="M133,55.9c0,0.1-16.6,0.2-37.1,0.2S58.7,56,58.7,55.9s16.6-0.2,37.1-0.2
				S133,55.8,133,55.9z"/>
			<path id="Trazado_106345" class="st0" d="M133,60.9c0,0.1-16.6,0.2-37.1,0.2S58.7,61,58.7,60.9s16.6-0.2,37.1-0.2
				S133,60.8,133,60.9z"/>
			<path id="Trazado_106346" class="st1" d="M48.6,100.9H24.7V77h23.9V100.9z M25.4,100.3h22.5V77.7H25.4V100.3z"/>
			<path id="Trazado_106347" class="st1" d="M29.5,89.5l3.2-3.4l5.3,4.2L50,78.6l2.9,3.4L37.7,97L29.5,89.5z"/>
			<path id="Trazado_106348" class="st0" d="M133,82.8c0,0.1-16.6,0.2-37.1,0.2s-37.1-0.1-37.1-0.2s16.6-0.2,37.1-0.2
				S133,82.7,133,82.8z"/>
			<path id="Trazado_106349" class="st0" d="M133,87.8c0,0.1-16.6,0.2-37.1,0.2s-37.1-0.1-37.1-0.2s16.6-0.2,37.1-0.2
				S133,87.7,133,87.8z"/>
			<path id="Trazado_106350" class="st0" d="M133,92.7c0,0.1-16.6,0.2-37.1,0.2s-37.1-0.1-37.1-0.2s16.6-0.2,37.1-0.2
				S133,92.7,133,92.7z"/>
			<path id="Trazado_106351" class="st0" d="M133,97.7c0,0.1-16.6,0.2-37.1,0.2s-37.1-0.1-37.1-0.2s16.6-0.2,37.1-0.2
				S133,97.6,133,97.7z"/>
			<path id="Trazado_106352" class="st1" d="M48.6,136.6H24.7v-23.9h23.9V136.6z M25.4,135.9h22.5v-22.6H25.4V135.9z"/>
			<path id="Trazado_106353" class="st1" d="M29.5,125.1l3.2-3.4l5.3,4.2L50,114.2l2.9,3.4l-15.2,15L29.5,125.1z"/>
			<path id="Trazado_106354" class="st0" d="M133,118.4c0,0.1-16.6,0.2-37.1,0.2s-37.1-0.1-37.1-0.2s16.6-0.2,37.1-0.2
				S133,118.4,133,118.4z"/>
			<path id="Trazado_106355" class="st0" d="M133,123.4c0,0.1-16.6,0.2-37.1,0.2s-37.1-0.1-37.1-0.2s16.6-0.2,37.1-0.2
				S133,123.3,133,123.4z"/>
			<path id="Trazado_106356" class="st0" d="M133,128.4c0,0.1-16.6,0.2-37.1,0.2s-37.1-0.1-37.1-0.2s16.6-0.2,37.1-0.2
				S133,128.3,133,128.4z"/>
			<path id="Trazado_106357" class="st0" d="M133,133.3c0,0.1-16.6,0.2-37.1,0.2s-37.1-0.1-37.1-0.2s16.6-0.2,37.1-0.2
				S133,133.2,133,133.3z"/>
			<path id="Trazado_106358" class="st1" d="M48.6,171H24.7v-23.9h23.9V171z M25.4,170.3h22.5v-22.6H25.4V170.3z"/>
			<path id="Trazado_106359" class="st1" d="M29.5,159.5l3.2-3.4l5.3,4.2L50,148.6l2.9,3.4l-15.2,15L29.5,159.5z"/>
			<path id="Trazado_106360" class="st0" d="M133,152.8c0,0.1-16.6,0.2-37.1,0.2s-37.1-0.1-37.1-0.2s16.6-0.2,37.1-0.2
				S133,152.8,133,152.8z"/>
			<path id="Trazado_106361" class="st0" d="M133,157.8c0,0.1-16.6,0.2-37.1,0.2s-37.1-0.1-37.1-0.2s16.6-0.2,37.1-0.2
				S133,157.7,133,157.8z"/>
			<path id="Trazado_106362" class="st0" d="M133,162.8c0,0.1-16.6,0.2-37.1,0.2s-37.1-0.1-37.1-0.2s16.6-0.2,37.1-0.2
				S133,162.7,133,162.8z"/>
			<path id="Trazado_106363" class="st0" d="M133,167.7c0,0.1-16.6,0.2-37.1,0.2s-37.1-0.1-37.1-0.2s16.6-0.2,37.1-0.2
				S133,167.6,133,167.7z"/>
			<path id="Trazado_106364" class="st5" d="M126.2,172.3l-15.5,32.2h11.1L126.2,172.3z"/>
			<path id="Trazado_106365" class="st8" d="M121.7,204.6l4.4-32.2l25.5,7.9L121.7,204.6z"/>
			<path id="Trazado_106366" class="st0" d="M121.7,204.6l8.6-7.1l21.3-17.4l0.1,0.3l-9.8-3l-15.6-4.8l0.2-0.1
				c-1.3,9.3-2.5,17.4-3.3,23.1C122.3,201,121.9,203.9,121.7,204.6l0.1-0.1l0.1-0.4c0.1-0.4,0.1-1,0.2-1.8c0.2-1.6,0.5-3.8,0.9-6.7
				c0.8-5.7,1.9-13.8,3.1-23.2v-0.2l0.2,0.1l15.7,4.8l9.8,3l0.3,0.1l-0.2,0.2c-8.6,6.9-16.1,13-21.5,17.3l-6.3,5l-1.7,1.3l-0.4,0.3
				L121.7,204.6z"/>
			<g id="Grupo_60096" transform="translate(93.151)" class="st10">
				<path id="Trazado_106367" d="M1.8-15.3L0-4.6h2.3l1.9-10.7H1.2"/>
			</g>
		</g>
		<g id="freepik--Character--inject-44" transform="translate(57.802 97.346)">
			<path id="Trazado_106368" class="st11" d="M31.7,34.6L31.7,34.6c3.3,0.2,6.2-2.2,6.4-5.5v-0.2c0.1-3.3,0.2-6.6,0.2-6.6
				s4.9-0.5,5.3-5.3s0.2-16.2,0.2-16.2l0,0C38.4-2,31.8-1.6,26.6,1.9l0.3,17.2v9.3C27,31.4,28.6,34.4,31.7,34.6z"/>
			<path id="Trazado_106369" class="st0" d="M38.8,10.9c-0.8-1.1-2.2-1.4-3.3-0.7c-1.1,0.8-1.5,2.3-0.9,3.6c0.5,0.9,1.4,1.6,2.4,1.8
				c0.9,0.2,1.6,1.1,1.5,2c-0.2,1.3-0.8,2.5-1.7,3.4c-1.5,1.5-3.5,2.5-5.7,2.7c-2.1,0.2-4.5-0.2-5.7-1.9c-0.8-1.3-1.1-2.9-1-4.4
				c-0.1-3.6-0.1-7.2-0.2-10.8c-0.1-1.3,0-2.6,0.2-3.9c0.3-1.3,1-2.4,2.1-3.2c1.2-0.8,2.7-0.9,4.1-1.3c1.6-0.7,3.2-1.5,4.7-2.5
				c1.6-0.8,3.5-1.3,5.1-0.5c1.1,0.6,1.9,1.7,3,2.3c1.6,0.9,3.7,0.7,4.5,3c0.3,0.8,0.3,1.7,0,2.5c-1.2,3-4.5,4.4-7.5,3.2
				c-0.1,0-0.2-0.1-0.3-0.2c0.2,1.1,0.2,2.3-0.1,3.4C39.7,10.1,39.7,10.9,38.8,10.9"/>
			<path id="Trazado_106370" class="st0" d="M25.3,0.9c0.8-1.5,1.3-3.2,1.6-4.9c0.3-1.7-0.3-3.5-1.5-4.8c-0.9-0.8-2-1.2-3.2-1.1
				c-2.3,0.1-4.3,1.7-4.9,3.9c-0.6,2.2,0.2,4.6,2,6c1.8,1.4,4.2,1.7,6.3,0.8"/>
			<path id="Trazado_106371" class="st1" d="M26.2-0.9c-0.1,1.2-1.1,2.2-2.3,2.3c0.5-0.3,0.9-0.6,1.3-0.9
				C25.9-0.2,26.2-0.9,26.2-0.9z"/>
			<path id="Trazado_106372" class="st0" d="M24.6,0.3c-0.4,0.4-0.8,0.7-1.3,1c-0.5,0.3-1.1,0.5-1.7,0.5c-0.8,0-1.6-0.3-2-0.9
				c-0.4-0.7-0.6-1.5-0.4-2.2C19.3-2,19.6-2.5,20-3c0.3-0.4,0.7-0.8,1.2-1.2c-0.3,0.5-0.6,0.9-1,1.3c-0.3,0.5-0.6,1-0.7,1.5
				c-0.2,0.7,0,1.4,0.3,1.9c0.4,0.5,1.1,0.8,1.8,0.8c0.6,0,1.1-0.1,1.6-0.4C23.7,0.8,24.1,0.5,24.6,0.3L24.6,0.3z"/>
			<path id="Trazado_106373" class="st0" d="M16.3,5.8c0.1,0.2,0.2,0.4,0.2,0.5c0.2,0.5,0.4,1,0.7,1.4c0.4,0.6,1.2,1,1.9,0.9
				c0.9-0.3,1.6-1,1.8-1.9c0.2-0.9,0.4-1.9,0.5-2.8c0.1-0.8,0.4-1.6,0.9-2.2c0.4-0.4,0.9-0.7,1.4-0.8c0.2,0,0.4,0,0.6,0.1
				c-0.2,0-0.4,0-0.6,0.1c-0.5,0.1-0.9,0.4-1.3,0.8c-0.5,0.6-0.7,1.4-0.8,2.1c-0.1,1-0.2,2-0.5,2.9c-0.3,1-1.1,1.8-2.1,2.1
				c-0.5,0.1-0.9,0-1.3-0.3c-0.3-0.2-0.6-0.5-0.8-0.8c-0.3-0.5-0.5-1-0.7-1.5C16.3,6.2,16.3,6,16.3,5.8L16.3,5.8z"/>
			<path id="Trazado_106374" class="st11" d="M13.9,46.9c0,0-2.5,18.3,0,20.6c1.3,1.3,3.1,1.9,4.9,1.6l4.8-4l0.9-18.2L13.9,46.9z"/>
			<path id="Trazado_106375" class="st1" d="M65.5-4.4l3.2-3.4L74-3.6l12.1-11.7l2.9,3.4l-15.2,15L65.5-4.4z"/>
			<path id="Trazado_106376" class="st11" d="M80.4-3.4l-4.6,3c-0.2-1.8-1.6-3.6-1.5-2.7s0,5.7,0,5.7l-8.2,17.3
				c-0.9,2.3-2.7,4.1-5.1,4.9l-7.7,2.3l3,10.1L67,33.4c2.8-0.9,4.9-3.1,5.8-5.8l7.3-22.3c0.5-1.4,0.9-2.9,1.2-4.4
				C81.5-0.6,81.1-2.1,80.4-3.4z"/>
			<path id="Trazado_106377" class="st1" d="M42.8,185.3l-0.1-5.1l-9.6,0.2l0.1,7.5l0.6,0c2.7,0.1,13.5,0.3,15.2-0.2
				C50.9,187,42.8,185.3,42.8,185.3z"/>
			<g id="Grupo_60097" transform="translate(33.11 200.321)" class="st12">
				<path id="Trazado_106378" class="st7" d="M3.5-12.6c-0.2-0.8-0.6-1.5-1.3-2c-0.6-0.5-1.4-0.7-2.3-0.7l0,2.7H3.5z"/>
			</g>
			<g id="Grupo_60098" transform="translate(33.116 201.551)" class="st13">
				<path id="Trazado_106379" class="st7" d="M13.6-15.3c0,0,2.9,0.8,2.5,1.3S4.8-13.4,0-13.8V-14l12.8-0.1
					C12.8-14.1,13.1-15.3,13.6-15.3z"/>
			</g>
			<path id="Trazado_106380" class="st0" d="M33,187.6h0.7l1.7,0c1.5,0,3.5,0,5.8,0s4.3-0.1,5.8-0.2l1.7-0.1l0.5,0h-0.5l-1.7,0.1
				c-1.5,0-3.5,0.1-5.8,0.1s-4.3,0-5.8,0L33,187.6L33,187.6z"/>
			<path id="Trazado_106381" class="st0" d="M45.9,187.6c0.1-0.3,0.2-0.6,0.3-0.8c0.2-0.2,0.4-0.5,0.6-0.7
				C46.2,186.4,45.9,187,45.9,187.6L45.9,187.6z"/>
			<path id="Trazado_106382" class="st0" d="M43.1,186.3c0.1-0.1,0.2-0.2,0.3-0.4c0.1-0.2,0.2-0.4,0.2-0.4s-0.2,0.1-0.3,0.4
				S43,186.2,43.1,186.3z"/>
			<path id="Trazado_106383" class="st0" d="M42.3,185.9c0.1-0.1,0.2-0.1,0.3-0.2c0.2-0.2,0.3-0.3,0.3-0.3s-0.2,0.1-0.3,0.2
				S42.3,185.8,42.3,185.9z"/>
			<path id="Trazado_106384" class="st0" d="M41.8,185c0.2,0.1,0.3,0.1,0.5,0.1c0.2,0,0.3,0,0.5-0.1c-0.2,0-0.3-0.1-0.5-0.1
				C42.1,184.9,41.9,184.9,41.8,185z"/>
			<path id="Trazado_106385" class="st0" d="M41.6,184.3c0.4,0.2,0.8,0.2,1.1,0.1c-0.2,0-0.4,0-0.6,0
				C42,184.4,41.8,184.3,41.6,184.3L41.6,184.3z"/>
			<path id="Trazado_106386" class="st0" d="M43.4,185.4c0.2,0,0.4,0,0.6,0c0.2,0,0.4-0.1,0.7-0.2c0.1,0,0.3-0.1,0.4-0.2
				c0.1,0,0.1-0.1,0.2-0.2c0-0.1,0-0.2-0.1-0.2c-0.5-0.2-1.1-0.1-1.4,0.4c-0.1,0.1-0.2,0.3-0.2,0.4c0,0.1,0,0.1,0,0.2
				c0.1-0.2,0.2-0.4,0.3-0.5c0.1-0.2,0.3-0.3,0.5-0.4c0.2-0.1,0.5-0.1,0.7,0c0.1,0.1,0.1,0.2,0,0.3c-0.1,0.1-0.2,0.1-0.3,0.2
				c-0.2,0.1-0.4,0.1-0.7,0.2C43.6,185.4,43.4,185.4,43.4,185.4z"/>
			<path id="Trazado_106387" class="st0" d="M43.5,185.5c0.1-0.1,0.1-0.3,0.1-0.4c0-0.2-0.1-0.3-0.2-0.4c-0.1-0.2-0.3-0.3-0.5-0.3
				c-0.1,0-0.2,0.2-0.2,0.3l0,0c0,0.1,0.1,0.2,0.1,0.3c0.1,0.1,0.2,0.3,0.3,0.4C43.2,185.3,43.4,185.4,43.5,185.5
				c-0.2-0.1-0.3-0.2-0.3-0.3c-0.1-0.1-0.2-0.2-0.3-0.4c-0.1-0.1-0.1-0.4,0-0.4s0.3,0.1,0.4,0.3c0.1,0.1,0.2,0.3,0.2,0.4
				C43.5,185.2,43.6,185.3,43.5,185.5z"/>
			<path id="Trazado_106388" class="st0" d="M33.2,185h0.7c1.2,0.1,2.1,0.9,2.5,2c0.2,0.4,0.2,0.7,0.2,0.7c0-0.1,0-0.1,0-0.2
				c0-0.2-0.1-0.3-0.1-0.5c-0.4-1.1-1.4-1.9-2.6-2c-0.2,0-0.4,0-0.5,0C33.3,184.9,33.2,184.9,33.2,185z"/>
			<path id="Trazado_106389" class="st0" d="M34.1,181c-0.1,0.7-0.1,1.3-0.1,2c0,0.7,0,1.3,0.1,2c0.1-0.7,0.1-1.3,0.1-2
				C34.2,182.3,34.1,181.6,34.1,181z"/>
			<path id="Trazado_106390" class="st0" d="M37.8,186.7c0.5,0.1,0.9,0.1,1.4,0.1c0.5,0,0.9,0,1.4-0.1c0,0-0.7,0-1.4,0
				C38.7,186.7,38.3,186.7,37.8,186.7z"/>
			<path id="Trazado_106391" class="st0" d="M35.9,186.7L36,187c0.1,0.1,0.1,0.3,0.1,0.3s0-0.2,0-0.3S36,186.7,35.9,186.7z"/>
			<path id="Trazado_106392" class="st0" d="M35.2,185.9c0,0.1,0.1,0.2,0.1,0.2c0.1,0.1,0.2,0.2,0.2,0.1s0-0.1-0.1-0.2
				S35.2,185.8,35.2,185.9z"/>
			<path id="Trazado_106393" class="st0" d="M34.2,185.5c0.1,0,0.2,0,0.3,0.1c0.1,0.1,0.2,0.1,0.3,0.1s-0.1-0.2-0.2-0.2
				C34.4,185.4,34.3,185.4,34.2,185.5z"/>
			<path id="Trazado_106394" class="st0" d="M33.5,185.3c0,0,0.1,0.1,0.1,0.1c0.1,0,0.2,0,0.2,0s0-0.1-0.1-0.1
				S33.5,185.3,33.5,185.3z"/>
			<path id="Trazado_106395" class="st1" d="M8.9,183.6l3.2-3.9l-7.3-6.2L0,179.3l0.4,0.4c1.9,1.8,10,9,11.7,9.8
				C14,190.3,8.9,183.6,8.9,183.6z"/>
			<g id="Grupo_60099" transform="translate(0.073 192.441)" class="st12">
				<path id="Trazado_106396" class="st7" d="M2.7-11c0.4-0.7,0.5-1.6,0.4-2.4c-0.2-0.8-0.6-1.5-1.3-2l-1.8,2L2.7-11z"/>
			</g>
			<g id="Grupo_60100" transform="translate(0 194.427)" class="st13">
				<path id="Trazado_106397" class="st7" d="M11.3-7.4c0,0,1.7,2.5,1.1,2.6S3.4-11.7,0-15.1l0.1-0.2L9.9-7C9.9-7,10.9-7.8,11.3-7.4
					z"/>
			</g>
			<path id="Trazado_106398" class="st0" d="M0,179l0.1,0.1l0.3,0.3l1.3,1.2c1.1,1,2.6,2.3,4.4,3.8s3.3,2.7,4.5,3.6l1.4,1.1l0.4,0.3
				l0.1,0.1l-0.1-0.1l-0.4-0.3l-1.3-1.1c-1.2-0.9-2.7-2.2-4.5-3.6s-3.3-2.8-4.4-3.7l-1.3-1.1l-0.4-0.3L0,179z"/>
			<path id="Trazado_106399" class="st0" d="M9.8,187.5c0.2-0.2,0.5-0.3,0.8-0.4c0.3-0.1,0.6-0.1,0.9-0.1
				C10.8,186.7,10.1,187,9.8,187.5L9.8,187.5z"/>
			<path id="Trazado_106400" class="st0" d="M8.5,184.6c0,0,0.2,0,0.5-0.1s0.4-0.2,0.4-0.2s-0.2,0-0.5,0.1
				C8.8,184.4,8.7,184.5,8.5,184.6z"/>
			<path id="Trazado_106401" class="st0" d="M8.2,183.8c0.1,0,0.3,0.1,0.4,0c0.2,0,0.4,0,0.4-0.1s-0.2-0.1-0.4,0
				C8.4,183.7,8.3,183.7,8.2,183.8z"/>
			<path id="Trazado_106402" class="st0" d="M8.4,182.8c0.1,0.1,0.2,0.3,0.3,0.4c0.1,0.1,0.3,0.2,0.4,0.3c-0.1-0.1-0.2-0.3-0.3-0.4
				C8.6,182.9,8.4,182.7,8.4,182.8z"/>
			<path id="Trazado_106403" class="st0" d="M8.7,182.2c0.1,0.4,0.4,0.7,0.8,0.8c-0.1-0.1-0.3-0.3-0.4-0.4
				C8.8,182.4,8.7,182.1,8.7,182.2z"/>
			<path id="Trazado_106404" class="st0" d="M9.3,184.1c0.1,0.2,0.3,0.3,0.5,0.4c0.2,0.1,0.4,0.2,0.6,0.3c0.1,0.1,0.3,0.1,0.4,0.1
				c0.1,0,0.2,0,0.2-0.1c0.1-0.1,0.1-0.2,0.1-0.2c-0.2-0.5-0.8-0.8-1.3-0.7C9.7,184,9.5,184.1,9.3,184.1c0,0.1,0,0.1,0,0.2
				c0.2-0.1,0.4-0.2,0.6-0.2c0.2,0,0.4,0,0.6,0.1c0.2,0.1,0.4,0.3,0.5,0.5c0,0.1,0,0.2-0.1,0.2c0,0,0,0-0.1,0
				c-0.1,0-0.2-0.1-0.4-0.1c-0.2-0.1-0.4-0.2-0.6-0.3C9.7,184.3,9.5,184.3,9.3,184.1L9.3,184.1z"/>
			<path id="Trazado_106405" class="st0" d="M9.4,184.3c0.1-0.1,0.3-0.2,0.3-0.3c0.1-0.1,0.1-0.3,0.2-0.5c0-0.2,0-0.4-0.2-0.6
				c-0.1-0.1-0.3,0-0.3,0.1c0,0.1-0.1,0.2-0.1,0.3c0,0.2,0,0.3,0,0.5C9.3,184,9.3,184.1,9.4,184.3l0-0.5c0-0.2,0-0.3,0-0.5
				c0-0.2,0.1-0.4,0.3-0.3s0.1,0.3,0.1,0.5c0,0.1-0.1,0.3-0.1,0.4C9.6,184.1,9.5,184.2,9.4,184.3L9.4,184.3z"/>
			<path id="Trazado_106406" class="st0" d="M1.9,177.1c0.2,0.1,0.4,0.3,0.5,0.5c0.4,0.4,0.7,0.9,0.8,1.5c0.1,0.6,0.1,1.1-0.1,1.7
				c-0.2,0.4-0.3,0.6-0.3,0.7c0.1,0,0.1-0.1,0.1-0.2c0.1-0.1,0.2-0.3,0.2-0.5c0.2-0.5,0.3-1.1,0.2-1.7c-0.1-0.6-0.4-1.1-0.8-1.5
				c-0.1-0.1-0.3-0.2-0.4-0.3C2,177.2,1.9,177.2,1.9,177.1z"/>
			<path id="Trazado_106407" class="st0" d="M5.2,174.7c-0.5,0.5-0.9,0.9-1.3,1.5c-0.4,0.5-0.9,1-1.2,1.5c0.5-0.5,0.9-0.9,1.3-1.5
				C4.4,175.8,4.8,175.2,5.2,174.7L5.2,174.7z"/>
			<path id="Trazado_106408" class="st0" d="M4.2,181.5c0.3,0.4,0.6,0.7,1,1c0.3,0.3,0.7,0.6,1.2,0.8c0,0-0.5-0.4-1.1-0.9
				C5,182.1,4.6,181.8,4.2,181.5z"/>
			<path id="Trazado_106409" class="st0" d="M2.8,180.3c0,0,0,0.1-0.1,0.3s-0.1,0.3-0.1,0.3s0.1-0.1,0.2-0.3S2.8,180.3,2.8,180.3z"
				/>
			<path id="Trazado_106410" class="st0" d="M2.8,179.2c0,0.1,0,0.2,0,0.3c0,0.1,0,0.3,0.1,0.3s0-0.1,0-0.3S2.8,179.2,2.8,179.2z"/>
			<path id="Trazado_106411" class="st0" d="M2.3,178.2c0,0,0.1,0.1,0.2,0.2s0.1,0.3,0.1,0.3s0.1-0.2,0-0.3S2.3,178.2,2.3,178.2z"/>
			<path id="Trazado_106412" class="st0" d="M1.9,177.6v0.2c0,0.1,0.1,0.1,0.1,0.1v-0.2C2,177.6,1.9,177.6,1.9,177.6z"/>
			<path id="Trazado_106413" class="st0" d="M28.9,76.6c0,0-3.2,13.5-2.3,16.2s6.8,4.2,6.8,4.2l-0.2,37l-32.3,40l11.9,9.8
				c0,0,35-40,38.1-47.3s-2-60.4-2-60.4L28.9,76.6z"/>
			<path id="Trazado_106414" class="st0" d="M45.4,71.1L47,183.4l-16.4,0.1L22.3,92l0,0c-1.7-1.7-4.2-4.5-3.9-10.9l0.4-7.4
				L45.4,71.1z"/>
			<path id="Trazado_106415" class="st9" d="M28.1,140.2c0-0.1,0.1-0.1,0.1-0.2c0.1-0.1,0.2-0.3,0.3-0.5l1.2-1.7l4.5-6.2v0.1
				c-0.4-3.9-0.8-8.6-1.3-13.7c-0.6-6.7-1.1-12.7-1.4-17.1c-0.1-2.2-0.2-4-0.3-5.2c0-0.6,0-1.1,0-1.4c0-0.2,0-0.3,0-0.5
				c0,0.2,0.1,0.3,0.1,0.5c0,0.4,0.1,0.8,0.1,1.4c0.1,1.3,0.2,3,0.4,5.2c0.3,4.4,0.9,10.4,1.5,17.1c0.4,5.1,0.9,9.8,1.2,13.8v0.1
				l-4.6,6.1l-1.3,1.7l-0.3,0.4L28.1,140.2z"/>
			<path id="Trazado_106416" class="st9" d="M33.1,93.8c-1.5-0.1-2.9-0.3-4.4-0.7c-1.5-0.2-2.9-0.6-4.3-1.2c1.5,0.2,2.9,0.5,4.3,0.8
				C30.3,93,31.7,93.4,33.1,93.8L33.1,93.8z"/>
			<path id="Trazado_106417" class="st9" d="M44.4,132.1c-1.4-0.6-2.9-1-4.4-1.2c-1.5-0.1-3.1,0.1-4.6,0.4c0.4-0.2,0.8-0.4,1.3-0.5
				c1.1-0.3,2.2-0.4,3.3-0.3c1.1,0.1,2.2,0.4,3.2,0.8C43.6,131.6,44,131.8,44.4,132.1z"/>
			<path id="Trazado_106418" class="st9" d="M50.2,137.3c0.1,0.1-4.6,6.3-10.3,13.9s-10.5,13.7-10.6,13.7s4.6-6.3,10.3-13.9
				S50.1,137.3,50.2,137.3z"/>
			<path id="Trazado_106419" class="st9" d="M47.9,79.4c-0.2,0.5-0.5,0.9-0.9,1.2c-1.9,1.7-4.8,1.5-6.5-0.4
				c-0.1-0.1-0.2-0.2-0.2-0.3c-0.4-0.4-0.6-0.9-0.7-1.4c0.3,0.4,0.5,0.8,0.8,1.2c1.6,1.9,4.4,2.2,6.4,0.7
				C47.2,80.1,47.6,79.7,47.9,79.4z"/>
			<path id="Trazado_106420" class="st0" d="M25.5,21.6c-5.6-5.4-6-14.2-0.8-20"/>
			<path id="Trazado_106421" class="st1" d="M16.2,32.1c0,0-3.6,4-4.3,19.5c0,0,10.2,1.9,10.4,1.4S16.2,32.1,16.2,32.1z"/>
			<g id="Grupo_60101" transform="translate(11.91 47.372)" class="st10">
				<path id="Trazado_106422" d="M4.3-15.3c0,0-3.6,4-4.3,19.5c0,0,10.2,1.9,10.4,1.4S4.3-15.3,4.3-15.3z"/>
			</g>
			<path id="Trazado_106423" class="st1" d="M17.9,77.1h31.3l-0.5-4.9c0,0-3.6-18.6-3.5-18.8l0.6-1.2c1.5-3.1,1.5-6.7,0.1-9.8l0,0
				l15.3-5.2l-3.7-12.6C50.4,25.7,39.9,27,39.9,27l-1.6,0.1c0,0-10.8,0.6-11.1,0.6c-4.5,0.6-9.8,0.9-11.7,5.8
				c-1,2.6-0.1,6.5,1.6,10.5l4,12.3c1.6,6.8-1,6.5-2.4,13.3C18.6,70.6,17.9,76.1,17.9,77.1z"/>
			<g id="Grupo_60102" transform="translate(15.132 39.801)" class="st10">
				<path id="Trazado_106424" d="M2.7,37.3H34l-0.5-4.9c0,0-3.6-18.6-3.5-18.8l0.6-1.2C32,9.3,32,5.7,30.6,2.6l0,0L46-2.7l-3.7-12.6
					c-6.9,1.2-17.4,2.5-17.4,2.5l-1.6,0.1c0,0-10.8,0.6-11.1,0.6c-4.5,0.6-9.8,0.9-11.7,5.8c-1,2.6-0.1,6.5,1.6,10.5l4,12.3
					c1.6,6.8-1,6.5-2.4,13.3C3.5,30.8,2.7,36.3,2.7,37.3z"/>
			</g>
			<path id="Trazado_106425" class="st0" d="M60.9,37.3c-0.2,0.1-0.4,0.2-0.7,0.3l-1.9,0.7c-1.6,0.5-3.8,1.3-6.3,2s-4.7,1.6-6.2,2.2
				c-0.8,0.3-1.4,0.6-1.8,0.8c-0.2,0.1-0.4,0.2-0.7,0.3c0.2-0.2,0.4-0.3,0.6-0.4c0.4-0.2,1-0.5,1.8-0.9c2-0.9,4.1-1.6,6.2-2.3
				c2.5-0.8,4.7-1.5,6.3-1.9c0.8-0.2,1.5-0.4,1.9-0.6C60.5,37.4,60.7,37.3,60.9,37.3z"/>
			<path id="Trazado_106426" class="st8" d="M59.1,30.6c0,0.1-9.2,0.2-20.7,0.2s-20.7-0.1-20.7-0.2s9.2-0.2,20.7-0.2
				S59.1,30.5,59.1,30.6z"/>
			<path id="Trazado_106427" class="st8" d="M60.1,36.7c0,0.1-10.3,0.2-23,0.2s-23-0.1-23-0.2s10.3-0.2,23-0.2S60.1,36.6,60.1,36.7z
				"/>
			<path id="Trazado_106428" class="st8" d="M16.7,43.7c-1.3,0.2-2.6,0.2-3.8,0C14.2,43.5,15.5,43.5,16.7,43.7z"/>
			<path id="Trazado_106429" class="st8" d="M46.7,43.9c0,0.1-6.7,0.2-15,0.2s-15-0.1-15-0.2s6.7-0.2,15-0.2S46.7,43.8,46.7,43.9z"
				/>
			<path id="Trazado_106430" class="st8" d="M46.1,51.1c0,0.1-6,0.2-13.5,0.2s-13.5-0.1-13.5-0.2s6-0.2,13.5-0.2
				C40.1,50.9,46.1,51,46.1,51.1z"/>
			<path id="Trazado_106431" class="st8" d="M45.9,57.8c0,0.1-5.5,0.2-12.2,0.2s-12.2-0.1-12.2-0.2s5.5-0.2,12.2-0.2
				C40.4,57.6,45.9,57.7,45.9,57.8z"/>
			<path id="Trazado_106432" class="st8" d="M46.9,63.2c0,0.1-5.9,0.2-13.1,0.2s-13.1-0.1-13.1-0.2S26.7,63,33.9,63
				C41.1,63,46.9,63.1,46.9,63.2z"/>
			<path id="Trazado_106433" class="st8" d="M48.6,70.1c0,0.1-6.7,0.2-14.9,0.2s-14.9-0.1-14.9-0.2s6.7-0.2,14.9-0.2
				S48.6,70,48.6,70.1z"/>
			<path id="Trazado_106434" class="st0" d="M21,55.7c-0.1-0.2-0.2-0.4-0.3-0.6L20,53.4c-0.6-1.4-1.3-3.4-2.1-5.6S16.4,43.5,16,42
				c-0.2-0.7-0.4-1.3-0.5-1.8c-0.1-0.2-0.1-0.4-0.1-0.7c0.3,0.8,0.6,1.6,0.8,2.4c0.5,1.5,1.2,3.5,2,5.7s1.5,4.2,2,5.7
				c0.2,0.7,0.4,1.3,0.6,1.7C20.9,55.2,20.9,55.5,21,55.7L21,55.7z"/>
		</g>
	</g>
</g>
</svg>
