<svg id="Capa_2" data-name="Capa 2" xmlns="http://www.w3.org/2000/svg" width="500" height="500" viewBox="0 0 500 500">
  <g id="Capa_1" data-name="Capa 1">
    <rect id="Rectángulo_6606" data-name="Rectángulo 6606" width="500" height="500" fill="#344154" opacity="0"/>
    <path id="Trazado_106782" data-name="Trazado 106782" d="M135.73,82.21S66,130.93,36.84,195.08,21.18,334.54,74.53,384.47s139.23,30.36,217,55.83,157.05,6.91,180.91-73.4-32-101.27-53.09-187.39S301.57-23.55,135.73,82.21Z" fill="#f2e9e4"/>
    <rect id="Rectángulo_6607" data-name="Rectángulo 6607" width="78" height="103" transform="translate(172.41 118.01)" fill="none" stroke="#1a2e35" stroke-linecap="round" stroke-linejoin="round" stroke-width="1"/>
    <rect id="Rectángulo_6608" data-name="Rectángulo 6608" width="59.83" height="79" transform="translate(181.5 130.01)" fill="none" stroke="#1a2e35" stroke-linecap="round" stroke-linejoin="round" stroke-width="1"/>
    <rect id="Rectángulo_6609" data-name="Rectángulo 6609" width="78" height="103" transform="translate(55.41 171.01)" fill="none" stroke="#1a2e35" stroke-linecap="round" stroke-linejoin="round" stroke-width="1"/>
    <rect id="Rectángulo_6610" data-name="Rectángulo 6610" width="59.83" height="79" transform="translate(64.5 183.01)" fill="none" stroke="#1a2e35" stroke-linecap="round" stroke-linejoin="round" stroke-width="1"/>
    <circle id="Elipse_4087" data-name="Elipse 4087" cx="45.04" cy="45.04" r="45.04" transform="matrix(0.995, -0.1, 0.1, 0.995, 313.054, 112.506)" fill="none" stroke="#1a2e35" stroke-linecap="round" stroke-linejoin="round" stroke-width="1"/>
    <circle id="Elipse_4088" data-name="Elipse 4088" cx="37.368" cy="37.368" r="37.368" transform="translate(320.568 120.619) rotate(-8.616)" fill="none" stroke="#1a2e35" stroke-linecap="round" stroke-linejoin="round" stroke-width="1.001"/>
    <path id="Trazado_106783" data-name="Trazado 106783" d="M338.56,152.84h23.81v34.35" fill="none" stroke="#1a2e35" stroke-linecap="round" stroke-linejoin="round" stroke-width="1"/>
    <path id="Trazado_106784" data-name="Trazado 106784" d="M332.11,367.32l15.8,25.45a4.87,4.87,0,0,1-4.14,7.44H311.5a4.87,4.87,0,0,0,4.15-7.42l-15.3-24.9Z" fill="#fff" stroke="#1a2e35" stroke-linecap="round" stroke-linejoin="round" stroke-width="1"/>
    <path id="Trazado_106785" data-name="Trazado 106785" d="M332.11,367.32l-31.76.57,5.89,9.57h32.17Z" fill="#344154" stroke="#1a2e35" stroke-linecap="round" stroke-linejoin="round" stroke-width="1"/>
    <rect id="Rectángulo_6611" data-name="Rectángulo 6611" width="134.96" height="113.98" rx="2.91" transform="translate(379.75 372.99) rotate(180)" fill="#fff" stroke="#1a2e35" stroke-linecap="round" stroke-linejoin="round" stroke-width="1"/>
    <rect id="Rectángulo_6612" data-name="Rectángulo 6612" width="134.96" height="113.98" rx="2.91" transform="translate(374.64 372.99) rotate(180)" fill="#fff" stroke="#1a2e35" stroke-linecap="round" stroke-linejoin="round" stroke-width="1"/>
    <path id="Trazado_106786" data-name="Trazado 106786" d="M244.21,259H370.1a4.54,4.54,0,0,1,4.54,4.54v89h-135v-89a4.53,4.53,0,0,1,4.57-4.54Z" fill="#344154" stroke="#1a2e35" stroke-linecap="round" stroke-linejoin="round" stroke-width="1"/>
    <rect id="Rectángulo_6613" data-name="Rectángulo 6613" width="123.62" height="82.79" transform="translate(368.97 346.33) rotate(180)" fill="#fff" stroke="#1a2e35" stroke-linecap="round" stroke-linejoin="round" stroke-width="1"/>
    <rect id="Rectángulo_6614" data-name="Rectángulo 6614" width="114.1" height="7.06" transform="translate(250.49 285.76)" fill="#d9a171"/>
    <path id="Trazado_106787" data-name="Trazado 106787" d="M250.86,338.53V297.65H363.85v42.37" fill="none" stroke="#1a2e35" stroke-miterlimit="10" stroke-width="1"/>
    <line id="Línea_290" data-name="Línea 290" x2="112.25" transform="translate(251.23 311.4)" fill="none" stroke="#1a2e35" stroke-miterlimit="10" stroke-width="1"/>
    <line id="Línea_291" data-name="Línea 291" y2="42.67" transform="translate(332.63 297.35)" fill="none" stroke="#1a2e35" stroke-miterlimit="10" stroke-width="1"/>
    <rect id="Rectángulo_6615" data-name="Rectángulo 6615" width="3.93" height="1.31" transform="translate(186.09 394.51)" fill="#fff" stroke="#1a2e35" stroke-linecap="round" stroke-linejoin="round" stroke-width="1"/>
    <rect id="Rectángulo_6616" data-name="Rectángulo 6616" width="3.93" height="1.31" transform="translate(191.32 394.51)" fill="#fff" stroke="#1a2e35" stroke-linecap="round" stroke-linejoin="round" stroke-width="1"/>
    <rect id="Rectángulo_6617" data-name="Rectángulo 6617" width="3.93" height="1.31" transform="translate(196.56 394.51)" fill="#fff" stroke="#1a2e35" stroke-linecap="round" stroke-linejoin="round" stroke-width="1"/>
    <rect id="Rectángulo_6618" data-name="Rectángulo 6618" width="3.93" height="1.31" transform="translate(201.79 394.51)" fill="#fff" stroke="#1a2e35" stroke-linecap="round" stroke-linejoin="round" stroke-width="1"/>
    <rect id="Rectángulo_6619" data-name="Rectángulo 6619" width="3.93" height="1.31" transform="translate(207.03 394.51)" fill="#fff" stroke="#1a2e35" stroke-linecap="round" stroke-linejoin="round" stroke-width="1"/>
    <rect id="Rectángulo_6620" data-name="Rectángulo 6620" width="3.93" height="1.31" transform="translate(212.26 394.51)" fill="#fff" stroke="#1a2e35" stroke-linecap="round" stroke-linejoin="round" stroke-width="1"/>
    <rect id="Rectángulo_6621" data-name="Rectángulo 6621" width="3.93" height="1.31" transform="translate(217.5 394.51)" fill="#fff" stroke="#1a2e35" stroke-linecap="round" stroke-linejoin="round" stroke-width="1"/>
    <rect id="Rectángulo_6622" data-name="Rectángulo 6622" width="3.93" height="1.31" transform="translate(222.73 394.51)" fill="#fff" stroke="#1a2e35" stroke-linecap="round" stroke-linejoin="round" stroke-width="1"/>
    <rect id="Rectángulo_6623" data-name="Rectángulo 6623" width="3.93" height="1.31" transform="translate(227.97 394.51)" fill="#fff" stroke="#1a2e35" stroke-linecap="round" stroke-linejoin="round" stroke-width="1"/>
    <rect id="Rectángulo_6624" data-name="Rectángulo 6624" width="3.93" height="1.31" transform="translate(233.2 394.51)" fill="#fff" stroke="#1a2e35" stroke-linecap="round" stroke-linejoin="round" stroke-width="1"/>
    <rect id="Rectángulo_6625" data-name="Rectángulo 6625" width="3.93" height="1.31" transform="translate(238.44 394.51)" fill="#fff" stroke="#1a2e35" stroke-linecap="round" stroke-linejoin="round" stroke-width="1"/>
    <rect id="Rectángulo_6626" data-name="Rectángulo 6626" width="3.93" height="1.31" transform="translate(243.67 394.51)" fill="#fff" stroke="#1a2e35" stroke-linecap="round" stroke-linejoin="round" stroke-width="1"/>
    <rect id="Rectángulo_6627" data-name="Rectángulo 6627" width="3.93" height="1.31" transform="translate(248.91 394.51)" fill="#fff" stroke="#1a2e35" stroke-linecap="round" stroke-linejoin="round" stroke-width="1"/>
    <rect id="Rectángulo_6628" data-name="Rectángulo 6628" width="3.93" height="1.31" transform="translate(254.14 394.51)" fill="#fff" stroke="#1a2e35" stroke-linecap="round" stroke-linejoin="round" stroke-width="1"/>
    <rect id="Rectángulo_6629" data-name="Rectángulo 6629" width="3.93" height="1.31" transform="translate(259.38 394.51)" fill="#fff" stroke="#1a2e35" stroke-linecap="round" stroke-linejoin="round" stroke-width="1"/>
    <rect id="Rectángulo_6630" data-name="Rectángulo 6630" width="3.93" height="1.31" transform="translate(264.61 394.51)" fill="#fff" stroke="#1a2e35" stroke-linecap="round" stroke-linejoin="round" stroke-width="1"/>
    <rect id="Rectángulo_6631" data-name="Rectángulo 6631" width="3.93" height="1.31" transform="translate(269.85 394.51)" fill="#fff" stroke="#1a2e35" stroke-linecap="round" stroke-linejoin="round" stroke-width="1"/>
    <rect id="Rectángulo_6632" data-name="Rectángulo 6632" width="3.93" height="1.31" transform="translate(275.08 394.51)" fill="#fff" stroke="#1a2e35" stroke-linecap="round" stroke-linejoin="round" stroke-width="1"/>
    <rect id="Rectángulo_6633" data-name="Rectángulo 6633" width="3.93" height="1.31" transform="translate(280.32 394.51)" fill="#fff" stroke="#1a2e35" stroke-linecap="round" stroke-linejoin="round" stroke-width="1"/>
    <rect id="Rectángulo_6634" data-name="Rectángulo 6634" width="3.93" height="1.31" transform="translate(285.55 394.51)" fill="#fff" stroke="#1a2e35" stroke-linecap="round" stroke-linejoin="round" stroke-width="1"/>
    <rect id="Rectángulo_6635" data-name="Rectángulo 6635" width="3.93" height="1.31" transform="translate(290.79 394.51)" fill="#fff" stroke="#1a2e35" stroke-linecap="round" stroke-linejoin="round" stroke-width="1"/>
    <rect id="Rectángulo_6636" data-name="Rectángulo 6636" width="113.51" height="4.23" transform="translate(184.06 396.01)" fill="#fff" stroke="#1a2e35" stroke-linecap="round" stroke-linejoin="round" stroke-width="1"/>
    <rect id="Rectángulo_6637" data-name="Rectángulo 6637" width="27.69" height="4.23" transform="translate(269.88 396.01)" fill="#344154" stroke="#1a2e35" stroke-linecap="round" stroke-linejoin="round" stroke-width="1"/>
    <path id="Trazado_106788" data-name="Trazado 106788" d="M407.28,304.64V290.01h-10.5v14.63h-6.99l12.24,21.2,12.24-21.2Z" fill="#344154"/>
    <line id="Línea_292" data-name="Línea 292" y1="1.5" transform="translate(326.41 251.01)" fill="none" stroke="#1a2e35" stroke-miterlimit="10" stroke-width="1"/>
    <path id="Trazado_106789" data-name="Trazado 106789" d="M326.41,248.06V237.51a7,7,0,0,1,7-7h62a7,7,0,0,1,7,7V283" fill="none" stroke="#1a2e35" stroke-miterlimit="10" stroke-width="1" stroke-dasharray="2.95 2.95"/>
    <line id="Línea_293" data-name="Línea 293" y2="1.5" transform="translate(402.41 284.51)" fill="none" stroke="#1a2e35" stroke-miterlimit="10" stroke-width="1"/>
    <path id="Trazado_106790" data-name="Trazado 106790" d="M366.16,334.51h63.5a6.25,6.25,0,0,1,6.25,6.25v50.51h-76V340.76a6.25,6.25,0,0,1,6.25-6.25Z" fill="#344154" stroke="#1a2e35" stroke-miterlimit="10" stroke-width="1"/>
    <rect id="Rectángulo_6638" data-name="Rectángulo 6638" width="68" height="63.76" transform="translate(363.91 327.51)" fill="#fff" stroke="#1a2e35" stroke-miterlimit="10" stroke-width="1"/>
    <path id="Trazado_106791" data-name="Trazado 106791" d="M325.27,358.1H444.48a3.82,3.82,0,0,1,3.82,3.82v37.85h-123V358.1Z" fill="#344154" stroke="#1a2e35" stroke-miterlimit="10" stroke-width="1"/>
    <path id="Trazado_106792" data-name="Trazado 106792" d="M309.47,358.1H427.72a2.39,2.39,0,0,1,2.39,2.39v39.28h-123V360.49a2.39,2.39,0,0,1,2.39-2.39Z" fill="#636363" stroke="#1a2e35" stroke-miterlimit="10" stroke-width="1"/>
    <path id="Trazado_106793" data-name="Trazado 106793" d="M317.66,358.1H419.53v27.28a8.43,8.43,0,0,1-8.43,8.43h-85a8.43,8.43,0,0,1-8.43-8.43V358.1Z" fill="#636363" stroke="#1a2e35" stroke-miterlimit="10" stroke-width="1"/>
    <rect id="Rectángulo_6639" data-name="Rectángulo 6639" width="64.16" height="41.67" transform="translate(336.52 358.1)" fill="#344154" stroke="#1a2e35" stroke-miterlimit="10" stroke-width="1"/>
    <path id="Trazado_106794" data-name="Trazado 106794" d="M342.13,379.78s2.19,10.37-2.73,14.2-29.49,3-29.49,3h80.28s9.83,2.46,9.29-15.29Z" fill="#fff" stroke="#1a2e35" stroke-miterlimit="10" stroke-width="1"/>
    <path id="Trazado_106795" data-name="Trazado 106795" d="M391.37,395.43h-51.4l2.8-1.57h50.62Z" fill="#d9a171"/>
    <path id="Trazado_106796" data-name="Trazado 106796" d="M346.66,383.43c0,6.33-1.5,8.67-1.5,8.67h49.53s2.17-1.34,2.67-8.51" fill="none" stroke="#a3a3a3" stroke-miterlimit="10" stroke-width="1"/>
    <line id="Línea_294" data-name="Línea 294" x2="50.2" transform="translate(345.99 389.1)" fill="none" stroke="#a3a3a3" stroke-miterlimit="10" stroke-width="1"/>
    <line id="Línea_295" data-name="Línea 295" x2="50.37" transform="translate(346.49 385.93)" fill="none" stroke="#a3a3a3" stroke-miterlimit="10" stroke-width="1"/>
    <path id="Trazado_106797" data-name="Trazado 106797" d="M378.85,391.93s2.5-2.33,2.33-8.5" fill="none" stroke="#a3a3a3" stroke-miterlimit="10" stroke-width="1"/>
    <rect id="Rectángulo_6640" data-name="Rectángulo 6640" width="64.16" height="23.91" transform="translate(336.52 358.1)" fill="#636363" stroke="#1a2e35" stroke-miterlimit="10" stroke-width="1"/>
    <rect id="Rectángulo_6641" data-name="Rectángulo 6641" width="69.97" height="2.74" transform="translate(330.7 397.03)" fill="#344154" stroke="#1a2e35" stroke-miterlimit="10" stroke-width="1"/>
    <path id="Trazado_106798" data-name="Trazado 106798" d="M334.2,358.1H403v3.31a6.61,6.61,0,0,1-6.61,6.61H340.81a6.61,6.61,0,0,1-6.61-6.61Z" fill="#344154" stroke="#1a2e35" stroke-miterlimit="10" stroke-width="1"/>
    <path id="Trazado_106799" data-name="Trazado 106799" d="M426.14,365.54a2.15,2.15,0,1,1-2.15-2.15A2.15,2.15,0,0,1,426.14,365.54Z" fill="#fff" stroke="#1a2e35" stroke-miterlimit="10" stroke-width="1"/>
    <path id="Trazado_106800" data-name="Trazado 106800" d="M426.14,375.13A2.15,2.15,0,1,1,424,373,2.15,2.15,0,0,1,426.14,375.13Z" fill="#fff" stroke="#1a2e35" stroke-miterlimit="10" stroke-width="1"/>
    <path id="Trazado_106801" data-name="Trazado 106801" d="M424.5,396.36h-1.3a1.79,1.79,0,0,1-1.78-1.79h0a1.78,1.78,0,0,1,1.78-1.78h1.3a1.78,1.78,0,0,1,1.78,1.78h0a1.79,1.79,0,0,1-1.78,1.79Z" fill="#344154" stroke="#1a2e35" stroke-miterlimit="10" stroke-width="1"/>
    <path id="Trazado_106802" data-name="Trazado 106802" d="M367.43,454.78V411.27H348.26v43.66" fill="#fff" stroke="#1a2e35" stroke-linecap="round" stroke-linejoin="round" stroke-width="1"/>
    <rect id="Rectángulo_6642" data-name="Rectángulo 6642" width="9.59" height="44.05" transform="translate(357.85 411.27)" fill="#344154" stroke="#1a2e35" stroke-linecap="round" stroke-linejoin="round" stroke-width="1"/>
    <path id="Trazado_106803" data-name="Trazado 106803" d="M453.29,454.78V411.27H434.12v43.66" fill="#fff" stroke="#1a2e35" stroke-linecap="round" stroke-linejoin="round" stroke-width="1"/>
    <rect id="Rectángulo_6643" data-name="Rectángulo 6643" width="9.59" height="44.05" transform="translate(443.71 411.27)" fill="#344154" stroke="#1a2e35" stroke-linecap="round" stroke-linejoin="round" stroke-width="1"/>
    <rect id="Rectángulo_6644" data-name="Rectángulo 6644" width="391" height="15.18" transform="translate(67.41 403.82)" fill="#fff" stroke="#1a2e35" stroke-miterlimit="10" stroke-width="1"/>
    <rect id="Rectángulo_6645" data-name="Rectángulo 6645" width="94.08" height="15.18" transform="translate(364.32 403.82)" fill="#344154" stroke="#1a2e35" stroke-miterlimit="10" stroke-width="1"/>
    <rect id="Rectángulo_6646" data-name="Rectángulo 6646" width="391" height="5.33" transform="translate(67.41 399.68)" fill="#fff" stroke="#1a2e35" stroke-miterlimit="10" stroke-width="1"/>
    <rect id="Rectángulo_6647" data-name="Rectángulo 6647" width="85.55" height="5.33" transform="translate(372.86 399.68)" fill="#344154" stroke="#1a2e35" stroke-miterlimit="10" stroke-width="1"/>
    <path id="Trazado_106804" data-name="Trazado 106804" d="M192,192.08s.71,6.17.24,8.54-3.09,3.8-2.85,5.46,6.17,10.2,3.32,13a14,14,0,0,1-5.22,3.56l-1.9,4.27s-11.39,7.36-15.89,9.25-.48,10.92-.48,10.92l-11.63-2.61L154.75,258s-8.78-8.55-20.65-12.34-16.37-3.33-16.37-3.33A74.49,74.49,0,0,0,122,227.67c1.66-8.78,2.61-28.24,2.61-29.66s7.59-23.26,14.24-27.53,33.69.48,47.93,4,8.07,13.76,8.07,13.76Z" fill="#ffbf9d" stroke="#1a2e35" stroke-miterlimit="10" stroke-width="1"/>
    <path id="Trazado_106805" data-name="Trazado 106805" d="M191.5,199.67s-.72-2.61-3.8-1.66-3.8,2.61-2.61,2.61,4-1.42,4.75,0S191.26,201.33,191.5,199.67Z" fill="#344154" stroke="#1a2e35" stroke-miterlimit="10" stroke-width="1"/>
    <path id="Trazado_106806" data-name="Trazado 106806" d="M187.23,208.21l-1.43.72s2.14,1.42,1.19,4.74-1.9,6.17-1.9,6.17" fill="none" stroke="#1a2e35" stroke-miterlimit="10" stroke-width="1"/>
    <path id="Trazado_106807" data-name="Trazado 106807" d="M178.68,185.67s2.14,9,1.19,10.92-8.07,4.5-8.78,7.11-2.14,16.62-1.66,19.23,1.66,7.12,2.85,7.12,10-6.65,13.28-6.89,1.9,5.7.24,7.6-5,2.37-4.74,4.51,4.5,9.49-.24,15.89-10.21,5-15.9.48-6.65-12.1-5-16.37,4.27-15.43,4.5-20.41-.94-11.39-4.5-10-.72,15.43-3.33,18.51-13.05,11.87-15.9,11.87-18.27-6.89-18.74-7.6,1.42-32.51-.48-45.08,2.61-21.6,17.09-25.87,40.81,3.56,40.81,3.56-2.61-4.27,3.09-6.17,19.22,3.32,20.17,11.86-4,8.78-3.32,11.63,9.73,8.31,5,12.82S192,192.08,192,192.08l-.95-7.36S186,178.55,178.68,185.67Z" fill="#344154" stroke="#1a2e35" stroke-miterlimit="10" stroke-width="1"/>
    <path id="Trazado_106808" data-name="Trazado 106808" d="M179.87,203.47l-22.54-.71s-4.75,1.18-5.22,3.79-1,8.78.47,9S154,214.15,154,212s0-5.46,1.9-6.64a13.93,13.93,0,0,1,5.22-1.43l19.22,1.9,18,1.42v-3.08Z" fill="#5e5e5e" stroke="#1a2e35" stroke-miterlimit="10" stroke-width="1"/>
    <path id="Trazado_106809" data-name="Trazado 106809" d="M163.73,212.72s.71-7.59-3.08-9.73-6.41,3.8-6.65,9,3.33,11.63,7.83,10.44" fill="#ffbf9d" stroke="#1a2e35" stroke-miterlimit="10" stroke-width="1"/>
    <path id="Trazado_106810" data-name="Trazado 106810" d="M198.38,207.26s.47,5.46-1.66,8.07a11,11,0,0,1-2.85,2.38" fill="none" stroke="#1a2e35" stroke-miterlimit="10" stroke-width="1"/>
    <path id="Trazado_106811" data-name="Trazado 106811" d="M264.55,251.45,255,284.84l-7.16,19.08-7.75,20.56s-21.46-.29-31-2.08-26.69-7.89-26.69-7.89a172.9,172.9,0,0,0,19.5-43.5c4.05-14.16,7.19-25.52,7.19-25.52Z" fill="#fff" stroke="#1a2e35" stroke-miterlimit="10" stroke-width="1"/>
    <path id="Trazado_106812" data-name="Trazado 106812" d="M216.77,266.75s-7.14,25.62-10.06,30.82l34.71,5.19s6.49-11.36,11.35-31.15Z" fill="none" stroke="#a3a3a3" stroke-miterlimit="10" stroke-width="1"/>
    <line id="Línea_296" data-name="Línea 296" x2="36.01" y2="4.86" transform="translate(214.82 272.59)" fill="none" stroke="#a3a3a3" stroke-miterlimit="10" stroke-width="1"/>
    <line id="Línea_297" data-name="Línea 297" x2="34.59" y2="4.59" transform="translate(213.2 281.02)" fill="none" stroke="#a3a3a3" stroke-miterlimit="10" stroke-width="1"/>
    <line id="Línea_298" data-name="Línea 298" x2="34.71" y2="4.87" transform="translate(210.35 289.59)" fill="none" stroke="#a3a3a3" stroke-miterlimit="10" stroke-width="1"/>
    <path id="Trazado_106813" data-name="Trazado 106813" d="M232.98,292.85l-6.81,18.66,11.03,2.28,3.9-12.98" fill="none" stroke="#a3a3a3" stroke-miterlimit="10" stroke-width="1"/>
    <line id="Línea_299" data-name="Línea 299" x2="14.27" y2="2.6" transform="translate(193.41 299.51)" fill="none" stroke="#a3a3a3" stroke-miterlimit="10" stroke-width="1"/>
    <line id="Línea_300" data-name="Línea 300" x2="14.28" y2="2.59" transform="translate(192.43 301.46)" fill="none" stroke="#a3a3a3" stroke-miterlimit="10" stroke-width="1"/>
    <line id="Línea_301" data-name="Línea 301" x2="14.28" y2="2.6" transform="translate(191.46 303.4)" fill="none" stroke="#a3a3a3" stroke-miterlimit="10" stroke-width="1"/>
    <path id="Trazado_106814" data-name="Trazado 106814" d="M210.61,247.82l-4.3,14.91,50.19,6.02,4.88-14.91Z" fill="#d9a171"/>
    <path id="Trazado_106815" data-name="Trazado 106815" d="M255.36,258.28a3.76,3.76,0,1,1-3.73-3.29,3.53,3.53,0,0,1,3.73,3.29Z" fill="#fff"/>
    <path id="Trazado_106816" data-name="Trazado 106816" d="M271.77,274.67a7.58,7.58,0,0,1-3-1.46,2.79,2.79,0,0,1-.94-2.14,2.93,2.93,0,0,1,1.15-2.38,4.56,4.56,0,0,1,3-.95,5,5,0,0,1,2.24.49,3.65,3.65,0,0,1,1.53,1.34,3.43,3.43,0,0,1,.54,1.87h-1.62a2.25,2.25,0,0,0-.7-1.75,3.5,3.5,0,0,0-3.84-.11,1.75,1.75,0,0,0-.67,1.46,1.56,1.56,0,0,0,.63,1.26,6.23,6.23,0,0,0,2.16.95,10.131,10.131,0,0,1,2.38.94,3.6,3.6,0,0,1,1.27,1.2,3,3,0,0,1,.41,1.62,2.83,2.83,0,0,1-1.15,2.37,4.89,4.89,0,0,1-3.09.89,5.779,5.779,0,0,1-2.35-.48,3.94,3.94,0,0,1-1.68-1.32,3.22,3.22,0,0,1-.59-1.9h1.62a2.11,2.11,0,0,0,.81,1.75,3.46,3.46,0,0,0,2.19.64,3.12,3.12,0,0,0,1.95-.52,1.7,1.7,0,0,0,.68-1.42,1.64,1.64,0,0,0-.63-1.38,7.22,7.22,0,0,0-2.3-.97Z" fill="#344154"/>
    <path id="Trazado_106817" data-name="Trazado 106817" d="M283.71,279.21a3.3,3.3,0,0,1-2.66,1.06,2.84,2.84,0,0,1-2.21-.84,3.63,3.63,0,0,1-.76-2.49V271h1.55v5.86c0,1.37.56,2.06,1.67,2.06a2.31,2.31,0,0,0,2.36-1.32V271h1.55v9.07h-1.47Z" fill="#344154"/>
    <path id="Trazado_106818" data-name="Trazado 106818" d="M289,271v1a3.34,3.34,0,0,1,2.69-1.17,2.6,2.6,0,0,1,2.59,1.45,3.35,3.35,0,0,1,2.88-1.45q3,0,3,3.15v6.08h-1.55v-6a2.08,2.08,0,0,0-.45-1.46,1.94,1.94,0,0,0-1.49-.48,2,2,0,0,0-1.43.52,2.06,2.06,0,0,0-.66,1.38v6h-1.56v-5.94a1.73,1.73,0,0,0-1.93-2,2.07,2.07,0,0,0-2.09,1.3V280h-1.55v-9Z" fill="#344154"/>
    <path id="Trazado_106819" data-name="Trazado 106819" d="M302.61,268.64a1,1,0,0,1,.23-.64.89.89,0,0,1,.69-.26.87.87,0,0,1,.68.26.93.93,0,0,1,.24.64.88.88,0,0,1-.24.63.86.86,0,0,1-.68.25.89.89,0,0,1-.69-.25.92.92,0,0,1-.23-.63Zm1.68,11.47h-1.55V271h1.55Z" fill="#344154"/>
    <path id="Trazado_106820" data-name="Trazado 106820" d="M308.23,271v1.14a3.32,3.32,0,0,1,2.72-1.3q2.87,0,2.9,3.24v6H312.3v-6a2.13,2.13,0,0,0-.45-1.45,1.8,1.8,0,0,0-1.37-.47,2.27,2.27,0,0,0-1.32.4,2.71,2.71,0,0,0-.89,1.06v6.46h-1.55V271Z" fill="#344154"/>
    <path id="Trazado_106821" data-name="Trazado 106821" d="M316.24,268.64a.916.916,0,0,1,1.6-.64.93.93,0,0,1,.24.64,1,1,0,0,1-1.61.63.92.92,0,0,1-.23-.63Zm1.68,11.47h-1.55V271h1.55Z" fill="#344154"/>
    <path id="Trazado_106822" data-name="Trazado 106822" d="M325.67,277.7a1.11,1.11,0,0,0-.47-1,4.7,4.7,0,0,0-1.65-.6,7.722,7.722,0,0,1-1.87-.61,2.63,2.63,0,0,1-1-.83,2,2,0,0,1-.33-1.16,2.33,2.33,0,0,1,.94-1.88,3.65,3.65,0,0,1,2.41-.77,3.78,3.78,0,0,1,2.5.79,2.53,2.53,0,0,1,1,2h-1.56a1.4,1.4,0,0,0-.54-1.1,2,2,0,0,0-1.36-.46,2.07,2.07,0,0,0-1.32.37,1.14,1.14,0,0,0-.48,1,1,1,0,0,0,.44.85,5.42,5.42,0,0,0,1.61.54,8.257,8.257,0,0,1,1.88.62,2.8,2.8,0,0,1,1.07.87,2.14,2.14,0,0,1,.34,1.23,2.32,2.32,0,0,1-1,2,4.07,4.07,0,0,1-2.52.73,4.52,4.52,0,0,1-1.93-.38,3.25,3.25,0,0,1-1.31-1.08,2.63,2.63,0,0,1-.47-1.49h1.55a1.58,1.58,0,0,0,.62,1.23,2.39,2.39,0,0,0,1.54.46,2.45,2.45,0,0,0,1.41-.36A1.07,1.07,0,0,0,325.67,277.7Z" fill="#344154"/>
    <path id="Trazado_106823" data-name="Trazado 106823" d="M331.34,268.85V271H333v1.2h-1.7v5.63a1.27,1.27,0,0,0,.23.82,1,1,0,0,0,.77.27,3.521,3.521,0,0,0,.74-.1v1.25a4.591,4.591,0,0,1-1.19.16,1.93,1.93,0,0,1-1.57-.62,2.73,2.73,0,0,1-.53-1.79V272.2H328.1V271h1.65v-2.19Z" fill="#344154"/>
    <path id="Trazado_106824" data-name="Trazado 106824" d="M339.23,272.43a6.106,6.106,0,0,0-.77-.05,2,2,0,0,0-2.06,1.29v6.44h-1.55V271h1.5v1a2.41,2.41,0,0,1,2.16-1.21,1.771,1.771,0,0,1,.69.11Z" fill="#344154"/>
    <path id="Trazado_106825" data-name="Trazado 106825" d="M340.07,275.49a5.31,5.31,0,0,1,.53-2.39,4,4,0,0,1,1.45-1.65,4.05,4.05,0,0,1,2.14-.57,3.8,3.8,0,0,1,3,1.28,4.93,4.93,0,0,1,1.14,3.41v.11a5.49,5.49,0,0,1-.5,2.37,3.86,3.86,0,0,1-1.45,1.64,4,4,0,0,1-2.17.58,3.78,3.78,0,0,1-3-1.28,4.85,4.85,0,0,1-1.15-3.39Zm1.56.19a3.86,3.86,0,0,0,.7,2.42,2.37,2.37,0,0,0,3.75,0,4.24,4.24,0,0,0,.69-2.59,3.9,3.9,0,0,0-.7-2.42,2.28,2.28,0,0,0-1.88-.92,2.23,2.23,0,0,0-1.86.91A4.28,4.28,0,0,0,341.63,275.68Z" fill="#344154"/>
    <path id="Trazado_106826" data-name="Trazado 106826" d="M355.54,277.7a1.11,1.11,0,0,0-.47-1,4.55,4.55,0,0,0-1.65-.6,7.722,7.722,0,0,1-1.87-.61,2.63,2.63,0,0,1-1-.83,2,2,0,0,1-.33-1.16,2.33,2.33,0,0,1,.94-1.88,3.65,3.65,0,0,1,2.41-.77,3.78,3.78,0,0,1,2.5.79,2.53,2.53,0,0,1,1,2h-1.56a1.4,1.4,0,0,0-.54-1.1,2,2,0,0,0-1.36-.46,2.09,2.09,0,0,0-1.32.37,1.14,1.14,0,0,0-.48,1,1,1,0,0,0,.44.85,5.42,5.42,0,0,0,1.61.54,8.259,8.259,0,0,1,1.88.62,2.8,2.8,0,0,1,1.07.87,2.14,2.14,0,0,1,.34,1.23,2.32,2.32,0,0,1-1,2,4.07,4.07,0,0,1-2.52.73,4.56,4.56,0,0,1-1.93-.38,3.25,3.25,0,0,1-1.31-1.08,2.63,2.63,0,0,1-.47-1.49h1.55a1.61,1.61,0,0,0,.62,1.23,2.39,2.39,0,0,0,1.54.46,2.45,2.45,0,0,0,1.41-.36A1.07,1.07,0,0,0,355.54,277.7Z" fill="#344154"/>
    <path id="Trazado_106827" data-name="Trazado 106827" d="M219.83,354.59s8.95-21.16,9.84-29.51,1.49-16.1,3.58-18.48,6.85-13.71,7.75-17,3-6.56,5.36-4.18,1.49,8.05.6,10.14-2.09,5.36-2.09,5.36l6.26-6.85,3.88-9.24s3.28,0,3.87,3,4.18,7.45,3.28,10.13a7.16,7.16,0,0,1-3.58,3.88s1.5,7.45,1.2,10.13a15.18,15.18,0,0,1-5.37,9c-3,2.38-11.33,10.13-11.33,10.13s4.18,31.6,0,47.1-11.62,20.27-17,21.16-15.8-11-15.8-11S221.32,382.61,219.83,354.59Z" fill="#ffbf9d" stroke="#1a2e35" stroke-miterlimit="10" stroke-width="1"/>
    <line id="Línea_302" data-name="Línea 302" x1="4.76" y2="4.77" transform="translate(253.82 301.83)" fill="none" stroke="#1a2e35" stroke-miterlimit="10" stroke-width="1"/>
    <line id="Línea_303" data-name="Línea 303" y1="3.88" x2="4.77" transform="translate(251.13 290.2)" fill="none" stroke="#1a2e35" stroke-miterlimit="10" stroke-width="1"/>
    <path id="Trazado_106828" data-name="Trazado 106828" d="M114.41,236.34s8.33-2,21,3.34a58.15,58.15,0,0,1,23.66,17.66,52.13,52.13,0,0,1,6.67,12s-48.33-18.66-53.67-18.66h-12S106.41,237,114.41,236.34Z" fill="#aed3f2" stroke="#1a2e35" stroke-miterlimit="10" stroke-width="1"/>
    <path id="Trazado_106829" data-name="Trazado 106829" d="M280.41,455.34c-38.67-34-99-34-99-34l-9-8.66H65.33v43.15" fill="#fff" stroke="#1a2e35" stroke-miterlimit="10" stroke-width="1"/>
    <path id="Trazado_106830" data-name="Trazado 106830" d="M179.07,423.34s-5,21.67-14.66,31" fill="none" stroke="#1a2e35" stroke-miterlimit="10" stroke-width="1"/>
    <path id="Trazado_106831" data-name="Trazado 106831" d="M176.07,421.68a48.92,48.92,0,0,1-17.66,21" fill="none" stroke="#1a2e35" stroke-miterlimit="10" stroke-width="1"/>
    <path id="Trazado_106832" data-name="Trazado 106832" d="M101.41,246.68s7.33-1.67,21.66,1.33,35.34,15.33,44.67,19.33,16.67,4.34,18.33,10.34,20,62.66,28,69c11.8,9.35,23,25.75,10,39.34-7.66,8-18,8.67-22.66,7s-16-13.33-16-17v-4.67l-22-25.33s4.66,39.67,6.66,45,7.34,13,7.34,16.33-7.67,10-16.67,15.67-18,10.67-38.67,11.67-45.33-2.34-50.66-9.34-12-15.33-12.67-27-3-57.66-3-57.66,1.33-37.34,2.33-49.67,3.67-20.33,10-23S97.07,246.68,101.41,246.68Z" fill="#6595bf" stroke="#1a2e35" stroke-miterlimit="10" stroke-width="1"/>
    <path id="Trazado_106833" data-name="Trazado 106833" d="M111.76,323.54a41.388,41.388,0,0,0,3,4.14" fill="none" stroke="#1a2e35" stroke-miterlimit="10" stroke-width="1"/>
    <path id="Trazado_106834" data-name="Trazado 106834" d="M96.74,277s3.58,25,12.54,42.22" fill="none" stroke="#1a2e35" stroke-miterlimit="10" stroke-width="1"/>
    <path id="Trazado_106835" data-name="Trazado 106835" d="M99.07,308.34s7.34,23.67,18.67,36" fill="none" stroke="#1a2e35" stroke-miterlimit="10" stroke-width="1"/>
    <line id="Línea_304" data-name="Línea 304" x2="16.67" y2="20" transform="translate(146.74 326.01)" fill="none" stroke="#1a2e35" stroke-miterlimit="10" stroke-width="1"/>
    <line id="Línea_305" data-name="Línea 305" x2="2.6" y2="3.11" transform="translate(141.74 320.01)" fill="none" stroke="#1a2e35" stroke-miterlimit="10" stroke-width="1"/>
    <line id="Línea_306" data-name="Línea 306" x2="15.66" y2="11.33" transform="translate(142.41 329.01)" fill="none" stroke="#1a2e35" stroke-miterlimit="10" stroke-width="1"/>
    <path id="Trazado_106836" data-name="Trazado 106836" d="M164.74,285s-15.67,15-15.33,32.33" fill="none" stroke="#1a2e35" stroke-miterlimit="10" stroke-width="1"/>
    <path id="Trazado_106837" data-name="Trazado 106837" d="M214.07,346.68s5.67,11-2.66,19-26,5.66-26,5.66V376c0,3.67,11.33,15.33,16,17s15,1,22.66-7C237.1,372.42,225.87,356,214.07,346.68Z" fill="#fff" stroke="#1a2e35" stroke-miterlimit="10" stroke-width="1"/>
    <line id="Línea_307" data-name="Línea 307" x1="18" y1="17" transform="translate(152.07 374.01)" fill="none" stroke="#1a2e35" stroke-miterlimit="10" stroke-width="1"/>
    <line id="Línea_308" data-name="Línea 308" x2="17.67" y2="12.67" transform="translate(142.07 364.34)" fill="none" stroke="#1a2e35" stroke-miterlimit="10" stroke-width="1"/>
    <path id="Trazado_106838" data-name="Trazado 106838" d="M116.75,382.18a33.331,33.331,0,0,0,4,2.5" fill="none" stroke="#1a2e35" stroke-miterlimit="10" stroke-width="1"/>
    <path id="Trazado_106839" data-name="Trazado 106839" d="M78.07,353s20.07,15.66,32.83,25" fill="none" stroke="#1a2e35" stroke-miterlimit="10" stroke-width="1"/>
    <path id="Trazado_106840" data-name="Trazado 106840" d="M82.07,363s14.67,10.67,17,12" fill="none" stroke="#1a2e35" stroke-miterlimit="10" stroke-width="1"/>
    <path id="Trazado_106841" data-name="Trazado 106841" d="M65.16,370.51h79a9.25,9.25,0,0,1,9.25,9.25v67.5a6.75,6.75,0,0,1-6.75,6.75h-84a6.75,6.75,0,0,1-6.75-6.75v-67.5A9.25,9.25,0,0,1,65.16,370.51Z" fill="#344154" stroke="#1a2e35" stroke-miterlimit="10" stroke-width="1"/>
    <path id="Trazado_106842" data-name="Trazado 106842" d="M57.16,370.51h79a9.25,9.25,0,0,1,9.25,9.25v67.5a6.75,6.75,0,0,1-6.75,6.75h-84a6.75,6.75,0,0,1-6.75-6.75v-67.5a9.25,9.25,0,0,1,9.25-9.25Z" fill="#636363" stroke="#1a2e35" stroke-miterlimit="10" stroke-width="1"/>
    <path id="Trazado_106843" data-name="Trazado 106843" d="M66.41,459.82V395a3,3,0,1,0-6,0v64.81Z" fill="#344154"/>
    <path id="Trazado_106844" data-name="Trazado 106844" d="M120.91,459.82V395a3,3,0,1,0-6,0v64.81Z" fill="#344154"/>
  </g>
</svg>
